# MagicaVoxel @ Ephtracy

# group
o 

# material
mtllib stadium-large-complex-1.mtl
usemtl palette

# normals
vn -1 0 0
vn 1 0 0
vn 0 0 1
vn 0 0 -1
vn 0 -1 0
vn 0 1 0

# texcoords
vt 0.970703 0.5
vt 0.974609 0.5
vt 0.978516 0.5
vt 0.982422 0.5

# verts
v -12.8 8 4
v -12.8 8 2
v -12.8 8 1.9
v -12.8 8 0.3
v -12.8 8 0.2
v -12.8 8 -0.2
v -12.8 8 -0.3
v -12.8 8 -1.9
v -12.8 8 -2
v -12.8 8 -4
v -12.8 8.1 0.4
v -12.8 8.1 0.3
v -12.8 8.1 0.2
v -12.8 8.1 -0.2
v -12.8 8.1 -0.3
v -12.8 8.1 -0.4
v -12.8 8.2 4
v -12.8 8.2 3.7
v -12.8 8.2 2.1
v -12.8 8.2 2
v -12.8 8.2 1.9
v -12.8 8.2 0.5
v -12.8 8.2 0.4
v -12.8 8.2 -0.4
v -12.8 8.2 -0.5
v -12.8 8.2 -1.9
v -12.8 8.2 -2
v -12.8 8.2 -2.1
v -12.8 8.2 -3.7
v -12.8 8.2 -4
v -12.8 8.3 4
v -12.8 8.3 3.7
v -12.8 8.3 3.5
v -12.8 8.3 2.3
v -12.8 8.3 2.1
v -12.8 8.3 2
v -12.8 8.3 0.6
v -12.8 8.3 0.5
v -12.8 8.3 0.3
v -12.8 8.3 -0.3
v -12.8 8.3 -0.5
v -12.8 8.3 -0.6
v -12.8 8.3 -2
v -12.8 8.3 -2.1
v -12.8 8.3 -2.3
v -12.8 8.3 -3.5
v -12.8 8.3 -3.7
v -12.8 8.3 -4
v -12.8 8.4 3.7
v -12.8 8.4 3.5
v -12.8 8.4 3
v -12.8 8.4 2.4
v -12.8 8.4 2.3
v -12.8 8.4 2.1
v -12.8 8.4 -2.1
v -12.8 8.4 -2.3
v -12.8 8.4 -2.4
v -12.8 8.4 -3
v -12.8 8.4 -3.5
v -12.8 8.4 -3.7
v -12.8 8.5 3.5
v -12.8 8.5 3
v -12.8 8.5 2.8
v -12.8 8.5 2.5
v -12.8 8.5 2.4
v -12.8 8.5 2.3
v -12.8 8.5 -2.3
v -12.8 8.5 -2.4
v -12.8 8.5 -2.5
v -12.8 8.5 -2.8
v -12.8 8.5 -3
v -12.8 8.5 -3.5
v -12.8 8.6 3
v -12.8 8.6 2.8
v -12.8 8.6 2.5
v -12.8 8.6 2.4
v -12.8 8.6 2.3
v -12.8 8.6 1.6
v -12.8 8.6 1.5
v -12.8 8.6 1.1
v -12.8 8.6 1
v -12.8 8.6 -1
v -12.8 8.6 -1.1
v -12.8 8.6 -1.5
v -12.8 8.6 -1.6
v -12.8 8.6 -2.3
v -12.8 8.6 -2.4
v -12.8 8.6 -2.5
v -12.8 8.6 -2.8
v -12.8 8.6 -3
v -12.8 8.7 2.8
v -12.8 8.7 2.6
v -12.8 8.7 2.5
v -12.8 8.7 2.3
v -12.8 8.7 2.1
v -12.8 8.7 1.6
v -12.8 8.7 1.5
v -12.8 8.7 1.1
v -12.8 8.7 1
v -12.8 8.7 0.7
v -12.8 8.7 0.6
v -12.8 8.7 0.5
v -12.8 8.7 -0.5
v -12.8 8.7 -0.6
v -12.8 8.7 -0.7
v -12.8 8.7 -1
v -12.8 8.7 -1.1
v -12.8 8.7 -1.5
v -12.8 8.7 -1.6
v -12.8 8.7 -2.1
v -12.8 8.7 -2.3
v -12.8 8.7 -2.5
v -12.8 8.7 -2.6
v -12.8 8.7 -2.8
v -12.8 8.8 2.7
v -12.8 8.8 2.6
v -12.8 8.8 2.5
v -12.8 8.8 2.3
v -12.8 8.8 2.1
v -12.8 8.8 1.8
v -12.8 8.8 1.6
v -12.8 8.8 1.5
v -12.8 8.8 1.4
v -12.8 8.8 0.8
v -12.8 8.8 0.7
v -12.8 8.8 0.6
v -12.8 8.8 -0.6
v -12.8 8.8 -0.7
v -12.8 8.8 -0.8
v -12.8 8.8 -1.4
v -12.8 8.8 -1.5
v -12.8 8.8 -1.6
v -12.8 8.8 -1.8
v -12.8 8.8 -2.1
v -12.8 8.8 -2.3
v -12.8 8.8 -2.5
v -12.8 8.8 -2.6
v -12.8 8.8 -2.7
v -12.8 8.9 2.9
v -12.8 8.9 2.7
v -12.8 8.9 2.6
v -12.8 8.9 2.1
v -12.8 8.9 1.8
v -12.8 8.9 1.5
v -12.8 8.9 1.4
v -12.8 8.9 1.3
v -12.8 8.9 1.1
v -12.8 8.9 1
v -12.8 8.9 -1
v -12.8 8.9 -1.1
v -12.8 8.9 -1.3
v -12.8 8.9 -1.4
v -12.8 8.9 -1.5
v -12.8 8.9 -1.8
v -12.8 8.9 -2.1
v -12.8 8.9 -2.6
v -12.8 8.9 -2.7
v -12.8 8.9 -2.9
v -12.8 9 4
v -12.8 9 2.9
v -12.8 9 2.7
v -12.8 9 1.8
v -12.8 9 1.3
v -12.8 9 1.1
v -12.8 9 1
v -12.8 9 0.8
v -12.8 9 0.7
v -12.8 9 -0.7
v -12.8 9 -0.8
v -12.8 9 -1
v -12.8 9 -1.1
v -12.8 9 -1.3
v -12.8 9 -1.8
v -12.8 9 -2.7
v -12.8 9 -2.9
v -12.8 9 -4
v -11.8 8 4
v -11.8 8 3.3
v -11.8 8 3.2
v -11.8 8 -3.2
v -11.8 8 -3.3
v -11.8 8 -4
v -11.8 8.1 3.3
v -11.8 8.1 3.2
v -11.8 8.1 3.1
v -11.8 8.1 -3.1
v -11.8 8.1 -3.2
v -11.8 8.1 -3.3
v -11.8 8.2 3.2
v -11.8 8.2 3.1
v -11.8 8.2 3
v -11.8 8.2 -3
v -11.8 8.2 -3.1
v -11.8 8.2 -3.2
v -11.8 8.3 3.1
v -11.8 8.3 3
v -11.8 8.3 2.9
v -11.8 8.3 1.6
v -11.8 8.3 1.5
v -11.8 8.3 -1.5
v -11.8 8.3 -1.6
v -11.8 8.3 -2.9
v -11.8 8.3 -3
v -11.8 8.3 -3.1
v -11.8 8.4 3
v -11.8 8.4 2.9
v -11.8 8.4 2.8
v -11.8 8.4 1.9
v -11.8 8.4 1.8
v -11.8 8.4 1.6
v -11.8 8.4 1.5
v -11.8 8.4 -1.5
v -11.8 8.4 -1.6
v -11.8 8.4 -1.8
v -11.8 8.4 -1.9
v -11.8 8.4 -2.8
v -11.8 8.4 -2.9
v -11.8 8.4 -3
v -11.8 8.5 1.9
v -11.8 8.5 1.8
v -11.8 8.5 1.6
v -11.8 8.5 -1.6
v -11.8 8.5 -1.8
v -11.8 8.5 -1.9
v -11.8 8.6 2.9
v -11.8 8.6 2.8
v -11.8 8.6 2.7
v -11.8 8.6 1.8
v -11.8 8.6 1.6
v -11.8 8.6 1.5
v -11.8 8.6 -1.5
v -11.8 8.6 -1.6
v -11.8 8.6 -1.8
v -11.8 8.6 -2.7
v -11.8 8.6 -2.8
v -11.8 8.6 -2.9
v -11.8 8.7 1.6
v -11.8 8.7 1.5
v -11.8 8.7 1.4
v -11.8 8.7 -1.4
v -11.8 8.7 -1.5
v -11.8 8.7 -1.6
v -11.8 8.8 2.8
v -11.8 8.8 2.7
v -11.8 8.8 2.6
v -11.8 8.8 1.5
v -11.8 8.8 1.4
v -11.8 8.8 1.3
v -11.8 8.8 -1.3
v -11.8 8.8 -1.4
v -11.8 8.8 -1.5
v -11.8 8.8 -2.6
v -11.8 8.8 -2.7
v -11.8 8.8 -2.8
v -11.8 8.9 2.9
v -11.8 8.9 2.8
v -11.8 8.9 2.7
v -11.8 8.9 2.6
v -11.8 8.9 2.5
v -11.8 8.9 1.4
v -11.8 8.9 1.3
v -11.8 8.9 1.2
v -11.8 8.9 0.7
v -11.8 8.9 0.6
v -11.8 8.9 0.5
v -11.8 8.9 -0.5
v -11.8 8.9 -0.6
v -11.8 8.9 -0.7
v -11.8 8.9 -1.2
v -11.8 8.9 -1.3
v -11.8 8.9 -1.4
v -11.8 8.9 -2.5
v -11.8 8.9 -2.6
v -11.8 8.9 -2.7
v -11.8 8.9 -2.8
v -11.8 8.9 -2.9
v -11.8 9 4
v -11.8 9 2.9
v -11.8 9 2.8
v -11.8 9 2.6
v -11.8 9 2.5
v -11.8 9 1.3
v -11.8 9 1.2
v -11.8 9 0.7
v -11.8 9 0.6
v -11.8 9 0.5
v -11.8 9 -0.5
v -11.8 9 -0.6
v -11.8 9 -0.7
v -11.8 9 -1.2
v -11.8 9 -1.3
v -11.8 9 -2.5
v -11.8 9 -2.6
v -11.8 9 -2.8
v -11.8 9 -2.9
v -11.8 9 -4
v -12.8 8 4
v -12.8 8.2 4
v -12.8 8.3 4
v -12.8 9 4
v -12.7 8.2 4
v -12.7 8.3 4
v -12.5 8.9 4
v -12.5 9 4
v -12.4 8.9 4
v -12.4 9 4
v -11.8 8 4
v -11.8 9 4
v -12.8 8 -4
v -12.8 8.2 -4
v -12.8 8.3 -4
v -12.8 9 -4
v -12.7 8.2 -4
v -12.7 8.3 -4
v -12.5 8.9 -4
v -12.5 9 -4
v -12.4 8.9 -4
v -12.4 9 -4
v -11.8 8 -4
v -11.8 9 -4
v -12.8 8 4
v -11.8 8 4
v -11.9 8 3.3
v -11.8 8 3.3
v -11.9 8 3.2
v -11.8 8 3.2
v -12.8 8 2
v -12.7 8 2
v -12.8 8 1.9
v -12.7 8 1.9
v -12.8 8 0.3
v -12.7 8 0.3
v -12.8 8 0.2
v -12.7 8 0.2
v -12.8 8 -0.2
v -12.7 8 -0.2
v -12.8 8 -0.3
v -12.7 8 -0.3
v -12.8 8 -1.9
v -12.7 8 -1.9
v -12.8 8 -2
v -12.7 8 -2
v -11.9 8 -3.2
v -11.8 8 -3.2
v -11.9 8 -3.3
v -11.8 8 -3.3
v -12.8 8 -4
v -11.8 8 -4
v -12.8 9 4
v -12.5 9 4
v -12.4 9 4
v -11.8 9 4
v -12.5 9 3.7
v -12.4 9 3.7
v -12.3 9 3.7
v -12.4 9 3.3
v -12.3 9 3.3
v -12.2 9 3.3
v -12.8 9 2.9
v -12.3 9 2.9
v -12.2 9 2.9
v -11.8 9 2.9
v -12.7 9 2.8
v -12.3 9 2.8
v -12.2 9 2.8
v -12.1 9 2.8
v -11.8 9 2.8
v -12.8 9 2.7
v -12.7 9 2.7
v -11.9 9 2.6
v -11.8 9 2.6
v -12 9 2.5
v -11.9 9 2.5
v -11.8 9 2.5
v -12.6 9 2.4
v -12.2 9 2.4
v -12.1 9 2.4
v -12 9 2.4
v -12.6 9 2.3
v -12.2 9 2.3
v -12.1 9 2.3
v -12 9 2.3
v -11.9 9 2.3
v -12.1 9 2
v -12 9 2
v -12.8 9 1.8
v -12.7 9 1.8
v -12.8 9 1.3
v -12.7 9 1.3
v -11.9 9 1.3
v -11.8 9 1.3
v -11.9 9 1.2
v -11.8 9 1.2
v -12.8 9 1.1
v -12.7 9 1.1
v -12.8 9 1
v -12.7 9 1
v -12.5 9 1
v -12.4 9 1
v -12 9 1
v -11.9 9 1
v -12.8 9 0.8
v -12.5 9 0.8
v -12.4 9 0.8
v -12.3 9 0.8
v -12.8 9 0.7
v -12.4 9 0.7
v -12.3 9 0.7
v -12 9 0.7
v -11.9 9 0.7
v -11.8 9 0.7
v -12.3 9 0.6
v -12.2 9 0.6
v -12.1 9 0.6
v -12 9 0.6
v -11.9 9 0.6
v -11.8 9 0.6
v -11.9 9 0.5
v -11.8 9 0.5
v -12.4 9 0.4
v -12.3 9 0.4
v -12.2 9 0.4
v -12.1 9 0.4
v -12 9 0.4
v -12.3 9 0.0999999
v -12.2 9 0.0999999
v -12.1 9 0.0999999
v -12 9 0.0999999
v -11.9 9 0.0999999
v -12.3 9 -0.1
v -12.2 9 -0.1
v -12.1 9 -0.1
v -12 9 -0.1
v -11.9 9 -0.1
v -12.4 9 -0.4
v -12.3 9 -0.4
v -12.2 9 -0.4
v -12.1 9 -0.4
v -12 9 -0.4
v -11.9 9 -0.5
v -11.8 9 -0.5
v -12.3 9 -0.6
v -12.2 9 -0.6
v -12.1 9 -0.6
v -12 9 -0.6
v -11.9 9 -0.6
v -11.8 9 -0.6
v -12.8 9 -0.7
v -12.4 9 -0.7
v -12.3 9 -0.7
v -12 9 -0.7
v -11.9 9 -0.7
v -11.8 9 -0.7
v -12.8 9 -0.8
v -12.5 9 -0.8
v -12.4 9 -0.8
v -12.3 9 -0.8
v -12.8 9 -1
v -12.7 9 -1
v -12.5 9 -1
v -12.4 9 -1
v -12 9 -1
v -11.9 9 -1
v -12.8 9 -1.1
v -12.7 9 -1.1
v -11.9 9 -1.2
v -11.8 9 -1.2
v -12.8 9 -1.3
v -12.7 9 -1.3
v -11.9 9 -1.3
v -11.8 9 -1.3
v -12.8 9 -1.8
v -12.7 9 -1.8
v -12.1 9 -2
v -12 9 -2
v -12.6 9 -2.3
v -12.2 9 -2.3
v -12.1 9 -2.3
v -12 9 -2.3
v -11.9 9 -2.3
v -12.6 9 -2.4
v -12.2 9 -2.4
v -12.1 9 -2.4
v -12 9 -2.4
v -12 9 -2.5
v -11.9 9 -2.5
v -11.8 9 -2.5
v -11.9 9 -2.6
v -11.8 9 -2.6
v -12.8 9 -2.7
v -12.7 9 -2.7
v -12.7 9 -2.8
v -12.3 9 -2.8
v -12.2 9 -2.8
v -12.1 9 -2.8
v -11.8 9 -2.8
v -12.8 9 -2.9
v -12.3 9 -2.9
v -12.2 9 -2.9
v -11.8 9 -2.9
v -12.4 9 -3.3
v -12.3 9 -3.3
v -12.2 9 -3.3
v -12.5 9 -3.7
v -12.4 9 -3.7
v -12.3 9 -3.7
v -12.8 9 -4
v -12.5 9 -4
v -12.4 9 -4
v -11.8 9 -4

# faces
f 11/1/1 4/1/1 3/1/1
f 12/3/1 5/3/1 4/3/1
f 12/1/1 4/1/1 11/1/1
f 13/1/1 6/1/1 5/1/1
f 13/3/1 5/3/1 12/3/1
f 14/3/1 7/3/1 6/3/1
f 14/1/1 6/1/1 13/1/1
f 15/1/1 8/1/1 7/1/1
f 15/3/1 7/3/1 14/3/1
f 16/1/1 8/1/1 15/1/1
f 17/1/1 2/1/1 1/1/1
f 18/1/1 2/1/1 17/1/1
f 19/1/1 2/1/1 18/1/1
f 20/3/1 3/3/1 2/3/1
f 20/1/1 2/1/1 19/1/1
f 21/1/1 11/1/1 3/1/1
f 21/3/1 3/3/1 20/3/1
f 22/1/1 11/1/1 21/1/1
f 23/3/1 12/3/1 11/3/1
f 23/1/1 11/1/1 22/1/1
f 24/1/1 8/1/1 16/1/1
f 24/3/1 16/3/1 15/3/1
f 25/1/1 8/1/1 24/1/1
f 26/3/1 9/3/1 8/3/1
f 26/1/1 8/1/1 25/1/1
f 27/1/1 10/1/1 9/1/1
f 27/3/1 9/3/1 26/3/1
f 28/1/1 10/1/1 27/1/1
f 29/1/1 10/1/1 28/1/1
f 30/1/1 10/1/1 29/1/1
f 31/3/1 18/3/1 17/3/1
f 32/1/1 19/1/1 18/1/1
f 32/3/1 18/3/1 31/3/1
f 33/1/1 19/1/1 32/1/1
f 34/1/1 19/1/1 33/1/1
f 35/3/1 20/3/1 19/3/1
f 35/1/1 19/1/1 34/1/1
f 36/1/1 22/1/1 21/1/1
f 36/3/1 20/3/1 35/3/1
f 36/1/1 21/1/1 20/1/1
f 37/1/1 22/1/1 36/1/1
f 38/3/1 23/3/1 22/3/1
f 38/1/1 22/1/1 37/1/1
f 39/3/1 12/3/1 23/3/1
f 39/3/1 23/3/1 38/3/1
f 39/1/1 13/1/1 12/1/1
f 39/1/1 14/1/1 13/1/1
f 39/1/1 15/1/1 14/1/1
f 40/3/1 25/3/1 24/3/1
f 40/1/1 15/1/1 39/1/1
f 40/3/1 24/3/1 15/3/1
f 41/1/1 26/1/1 25/1/1
f 41/3/1 25/3/1 40/3/1
f 41/1/1 27/1/1 26/1/1
f 42/1/1 27/1/1 41/1/1
f 43/3/1 28/3/1 27/3/1
f 43/1/1 27/1/1 42/1/1
f 44/1/1 29/1/1 28/1/1
f 44/3/1 28/3/1 43/3/1
f 45/1/1 29/1/1 44/1/1
f 46/1/1 29/1/1 45/1/1
f 47/3/1 30/3/1 29/3/1
f 47/1/1 29/1/1 46/1/1
f 48/3/1 30/3/1 47/3/1
f 49/1/1 32/1/1 31/1/1
f 49/3/1 33/3/1 32/3/1
f 50/1/1 34/1/1 33/1/1
f 50/3/1 33/3/1 49/3/1
f 51/1/1 34/1/1 50/1/1
f 52/1/1 34/1/1 51/1/1
f 53/3/1 35/3/1 34/3/1
f 53/1/1 34/1/1 52/1/1
f 54/1/1 36/1/1 35/1/1
f 54/3/1 35/3/1 53/3/1
f 54/1/1 37/1/1 36/1/1
f 55/1/1 43/1/1 42/1/1
f 55/1/1 44/1/1 43/1/1
f 55/3/1 45/3/1 44/3/1
f 56/1/1 46/1/1 45/1/1
f 56/3/1 45/3/1 55/3/1
f 57/1/1 46/1/1 56/1/1
f 58/1/1 46/1/1 57/1/1
f 59/3/1 47/3/1 46/3/1
f 59/1/1 46/1/1 58/1/1
f 60/1/1 48/1/1 47/1/1
f 60/3/1 47/3/1 59/3/1
f 61/3/1 51/3/1 50/3/1
f 61/1/1 50/1/1 49/1/1
f 62/1/1 52/1/1 51/1/1
f 62/3/1 51/3/1 61/3/1
f 63/1/1 52/1/1 62/1/1
f 64/1/1 52/1/1 63/1/1
f 65/3/1 53/3/1 52/3/1
f 65/1/1 52/1/1 64/1/1
f 66/1/1 54/1/1 53/1/1
f 66/3/1 53/3/1 65/3/1
f 67/1/1 56/1/1 55/1/1
f 67/3/1 57/3/1 56/3/1
f 68/1/1 58/1/1 57/1/1
f 68/3/1 57/3/1 67/3/1
f 69/1/1 58/1/1 68/1/1
f 70/1/1 58/1/1 69/1/1
f 71/3/1 59/3/1 58/3/1
f 71/1/1 58/1/1 70/1/1
f 72/1/1 60/1/1 59/1/1
f 72/3/1 59/3/1 71/3/1
f 73/1/1 62/1/1 61/1/1
f 73/3/1 63/3/1 62/3/1
f 74/1/1 64/1/1 63/1/1
f 74/3/1 63/3/1 73/3/1
f 75/3/1 65/3/1 64/3/1
f 75/1/1 64/1/1 74/1/1
f 76/1/1 66/1/1 65/1/1
f 76/3/1 65/3/1 75/3/1
f 77/1/1 54/1/1 66/1/1
f 77/1/1 66/1/1 76/1/1
f 78/1/1 37/1/1 54/1/1
f 78/1/1 54/1/1 77/1/1
f 79/1/1 37/1/1 78/1/1
f 80/1/1 37/1/1 79/1/1
f 81/1/1 37/1/1 80/1/1
f 82/1/1 55/1/1 42/1/1
f 82/1/1 67/1/1 55/1/1
f 82/1/1 68/1/1 67/1/1
f 83/1/1 68/1/1 82/1/1
f 84/1/1 68/1/1 83/1/1
f 85/1/1 68/1/1 84/1/1
f 86/1/1 68/1/1 85/1/1
f 87/3/1 69/3/1 68/3/1
f 87/1/1 68/1/1 86/1/1
f 88/1/1 70/1/1 69/1/1
f 88/3/1 69/3/1 87/3/1
f 89/3/1 71/3/1 70/3/1
f 89/1/1 70/1/1 88/1/1
f 90/1/1 72/1/1 71/1/1
f 90/3/1 71/3/1 89/3/1
f 91/3/1 77/3/1 76/3/1
f 91/1/1 74/1/1 73/1/1
f 91/3/1 76/3/1 75/3/1
f 91/3/1 75/3/1 74/3/1
f 92/3/1 77/3/1 91/3/1
f 93/3/1 77/3/1 92/3/1
f 94/1/1 78/1/1 77/1/1
f 94/3/1 77/3/1 93/3/1
f 95/1/1 78/1/1 94/1/1
f 96/2/1 79/2/1 78/2/1
f 96/1/1 78/1/1 95/1/1
f 97/1/1 80/1/1 79/1/1
f 97/2/1 79/2/1 96/2/1
f 98/2/1 81/2/1 80/2/1
f 98/1/1 80/1/1 97/1/1
f 99/1/1 37/1/1 81/1/1
f 99/2/1 81/2/1 98/2/1
f 100/1/1 37/1/1 99/1/1
f 101/3/1 38/3/1 37/3/1
f 101/1/1 37/1/1 100/1/1
f 102/1/1 40/1/1 39/1/1
f 102/3/1 38/3/1 101/3/1
f 102/1/1 39/1/1 38/1/1
f 102/1/1 41/1/1 40/1/1
f 103/3/1 42/3/1 41/3/1
f 103/1/1 41/1/1 102/1/1
f 104/1/1 82/1/1 42/1/1
f 104/3/1 42/3/1 103/3/1
f 105/1/1 82/1/1 104/1/1
f 106/2/1 83/2/1 82/2/1
f 106/1/1 82/1/1 105/1/1
f 107/1/1 84/1/1 83/1/1
f 107/2/1 83/2/1 106/2/1
f 108/2/1 85/2/1 84/2/1
f 108/1/1 84/1/1 107/1/1
f 109/1/1 86/1/1 85/1/1
f 109/2/1 85/2/1 108/2/1
f 110/1/1 86/1/1 109/1/1
f 111/3/1 87/3/1 86/3/1
f 111/1/1 86/1/1 110/1/1
f 111/3/1 88/3/1 87/3/1
f 111/3/1 89/3/1 88/3/1
f 112/3/1 89/3/1 111/3/1
f 113/3/1 89/3/1 112/3/1
f 114/1/1 90/1/1 89/1/1
f 114/3/1 89/3/1 113/3/1
f 115/1/1 92/1/1 91/1/1
f 116/3/1 93/3/1 92/3/1
f 116/1/1 92/1/1 115/1/1
f 117/1/1 94/1/1 93/1/1
f 117/3/1 93/3/1 116/3/1
f 118/3/1 95/3/1 94/3/1
f 118/1/1 94/1/1 117/1/1
f 119/1/1 96/1/1 95/1/1
f 119/3/1 95/3/1 118/3/1
f 120/1/1 96/1/1 119/1/1
f 121/3/1 97/3/1 96/3/1
f 121/1/1 96/1/1 120/1/1
f 122/1/1 100/1/1 99/1/1
f 122/3/1 97/3/1 121/3/1
f 122/1/1 99/1/1 98/1/1
f 122/1/1 98/1/1 97/1/1
f 123/1/1 100/1/1 122/1/1
f 124/1/1 100/1/1 123/1/1
f 125/3/1 101/3/1 100/3/1
f 125/1/1 100/1/1 124/1/1
f 126/1/1 102/1/1 101/1/1
f 126/3/1 101/3/1 125/3/1
f 126/1/1 104/1/1 103/1/1
f 126/1/1 103/1/1 102/1/1
f 127/3/1 105/3/1 104/3/1
f 127/1/1 104/1/1 126/1/1
f 128/1/1 107/1/1 106/1/1
f 128/3/1 105/3/1 127/3/1
f 128/1/1 106/1/1 105/1/1
f 128/1/1 108/1/1 107/1/1
f 129/1/1 108/1/1 128/1/1
f 130/1/1 108/1/1 129/1/1
f 131/3/1 109/3/1 108/3/1
f 131/1/1 108/1/1 130/1/1
f 132/1/1 110/1/1 109/1/1
f 132/3/1 109/3/1 131/3/1
f 133/1/1 110/1/1 132/1/1
f 134/3/1 111/3/1 110/3/1
f 134/1/1 110/1/1 133/1/1
f 135/1/1 112/1/1 111/1/1
f 135/3/1 111/3/1 134/3/1
f 136/3/1 113/3/1 112/3/1
f 136/1/1 112/1/1 135/1/1
f 137/1/1 114/1/1 113/1/1
f 137/3/1 113/3/1 136/3/1
f 138/1/1 114/1/1 137/1/1
f 139/1/1 115/1/1 91/1/1
f 139/1/1 91/1/1 73/1/1
f 140/3/1 116/3/1 115/3/1
f 140/1/1 115/1/1 139/1/1
f 141/1/1 119/1/1 118/1/1
f 141/3/1 116/3/1 140/3/1
f 141/1/1 118/1/1 117/1/1
f 141/1/1 117/1/1 116/1/1
f 142/3/1 120/3/1 119/3/1
f 142/1/1 119/1/1 141/1/1
f 143/1/1 121/1/1 120/1/1
f 143/3/1 120/3/1 142/3/1
f 143/1/1 122/1/1 121/1/1
f 144/3/1 123/3/1 122/3/1
f 144/1/1 122/1/1 143/1/1
f 145/1/1 124/1/1 123/1/1
f 145/3/1 123/3/1 144/3/1
f 146/1/1 124/1/1 145/1/1
f 147/1/1 124/1/1 146/1/1
f 148/1/1 124/1/1 147/1/1
f 149/1/1 130/1/1 129/1/1
f 150/1/1 130/1/1 149/1/1
f 151/1/1 130/1/1 150/1/1
f 152/3/1 131/3/1 130/3/1
f 152/1/1 130/1/1 151/1/1
f 153/1/1 133/1/1 132/1/1
f 153/3/1 131/3/1 152/3/1
f 153/1/1 132/1/1 131/1/1
f 154/3/1 134/3/1 133/3/1
f 154/1/1 133/1/1 153/1/1
f 155/1/1 136/1/1 135/1/1
f 155/3/1 134/3/1 154/3/1
f 155/1/1 135/1/1 134/1/1
f 155/1/1 137/1/1 136/1/1
f 156/3/1 138/3/1 137/3/1
f 156/1/1 137/1/1 155/1/1
f 157/1/1 114/1/1 138/1/1
f 157/3/1 138/3/1 156/3/1
f 158/1/1 90/1/1 114/1/1
f 158/1/1 114/1/1 157/1/1
f 159/1/1 49/1/1 31/1/1
f 159/1/1 61/1/1 49/1/1
f 159/1/1 73/1/1 61/1/1
f 159/1/1 139/1/1 73/1/1
f 160/3/1 140/3/1 139/3/1
f 160/1/1 139/1/1 159/1/1
f 161/1/1 142/1/1 141/1/1
f 161/3/1 140/3/1 160/3/1
f 161/1/1 141/1/1 140/1/1
f 161/1/1 143/1/1 142/1/1
f 162/3/1 144/3/1 143/3/1
f 162/1/1 143/1/1 161/1/1
f 162/3/1 146/3/1 145/3/1
f 162/3/1 145/3/1 144/3/1
f 163/1/1 147/1/1 146/1/1
f 163/3/1 146/3/1 162/3/1
f 164/2/1 148/2/1 147/2/1
f 164/1/1 147/1/1 163/1/1
f 165/1/1 124/1/1 148/1/1
f 165/2/1 148/2/1 164/2/1
f 166/3/1 125/3/1 124/3/1
f 166/1/1 124/1/1 165/1/1
f 167/1/1 127/1/1 126/1/1
f 167/3/1 125/3/1 166/3/1
f 167/1/1 128/1/1 127/1/1
f 167/1/1 126/1/1 125/1/1
f 168/3/1 129/3/1 128/3/1
f 168/1/1 128/1/1 167/1/1
f 169/1/1 149/1/1 129/1/1
f 169/3/1 129/3/1 168/3/1
f 170/2/1 150/2/1 149/2/1
f 170/1/1 149/1/1 169/1/1
f 171/1/1 151/1/1 150/1/1
f 171/2/1 150/2/1 170/2/1
f 172/3/1 154/3/1 153/3/1
f 172/1/1 151/1/1 171/1/1
f 172/3/1 153/3/1 152/3/1
f 172/3/1 152/3/1 151/3/1
f 173/1/1 157/1/1 156/1/1
f 173/3/1 154/3/1 172/3/1
f 173/1/1 155/1/1 154/1/1
f 173/1/1 156/1/1 155/1/1
f 174/3/1 158/3/1 157/3/1
f 174/1/1 157/1/1 173/1/1
f 175/1/1 90/1/1 158/1/1
f 175/3/1 158/3/1 174/3/1
f 176/1/1 48/1/1 60/1/1
f 176/1/1 90/1/1 175/1/1
f 176/1/1 72/1/1 90/1/1
f 176/1/1 60/1/1 72/1/1
f 177/1/2 178/1/2 183/1/2
f 178/3/2 179/3/2 183/3/2
f 179/1/2 180/1/2 184/1/2
f 183/3/2 179/3/2 184/3/2
f 184/1/2 180/1/2 185/1/2
f 185/1/2 180/1/2 186/1/2
f 180/3/2 181/3/2 187/3/2
f 186/1/2 180/1/2 187/1/2
f 181/1/2 182/1/2 188/1/2
f 187/3/2 181/3/2 188/3/2
f 183/1/2 184/1/2 189/1/2
f 184/3/2 185/3/2 189/3/2
f 185/1/2 186/1/2 190/1/2
f 189/3/2 185/3/2 190/3/2
f 190/1/2 186/1/2 191/1/2
f 191/1/2 186/1/2 192/1/2
f 186/3/2 187/3/2 193/3/2
f 192/1/2 186/1/2 193/1/2
f 187/1/2 188/1/2 194/1/2
f 193/3/2 187/3/2 194/3/2
f 189/1/2 190/1/2 195/1/2
f 190/3/2 191/3/2 195/3/2
f 191/1/2 192/1/2 196/1/2
f 195/3/2 191/3/2 196/3/2
f 196/1/2 192/1/2 197/1/2
f 197/1/2 192/1/2 198/1/2
f 198/1/2 192/1/2 199/1/2
f 199/1/2 192/1/2 200/1/2
f 200/1/2 192/1/2 201/1/2
f 201/1/2 192/1/2 202/1/2
f 192/3/2 193/3/2 203/3/2
f 202/1/2 192/1/2 203/1/2
f 193/1/2 194/1/2 204/1/2
f 203/3/2 193/3/2 204/3/2
f 195/1/2 196/1/2 205/1/2
f 196/3/2 197/3/2 205/3/2
f 197/1/2 198/1/2 206/1/2
f 205/3/2 197/3/2 206/3/2
f 206/1/2 198/1/2 207/1/2
f 207/1/2 198/1/2 208/1/2
f 208/1/2 198/1/2 209/1/2
f 198/3/2 199/3/2 210/3/2
f 209/1/2 198/1/2 210/1/2
f 199/1/2 200/1/2 211/1/2
f 210/3/2 199/3/2 211/3/2
f 200/3/2 201/3/2 212/3/2
f 211/1/2 200/1/2 212/1/2
f 201/1/2 202/1/2 213/1/2
f 212/3/2 201/3/2 213/3/2
f 213/1/2 202/1/2 214/1/2
f 214/1/2 202/1/2 215/1/2
f 215/1/2 202/1/2 216/1/2
f 202/3/2 203/3/2 217/3/2
f 216/1/2 202/1/2 217/1/2
f 203/1/2 204/1/2 218/1/2
f 217/3/2 203/3/2 218/3/2
f 208/3/2 209/3/2 219/3/2
f 207/1/2 208/1/2 219/1/2
f 211/1/2 212/1/2 220/1/2
f 219/3/2 209/3/2 220/3/2
f 209/1/2 210/1/2 220/1/2
f 210/1/2 211/1/2 220/1/2
f 213/1/2 214/1/2 220/1/2
f 212/1/2 213/1/2 220/1/2
f 220/1/2 214/1/2 221/1/2
f 221/1/2 214/1/2 222/1/2
f 214/3/2 215/3/2 223/3/2
f 222/1/2 214/1/2 223/1/2
f 215/1/2 216/1/2 224/1/2
f 223/3/2 215/3/2 224/3/2
f 205/1/2 206/1/2 225/1/2
f 206/3/2 207/3/2 225/3/2
f 207/1/2 219/1/2 226/1/2
f 225/3/2 207/3/2 226/3/2
f 219/1/2 220/1/2 226/1/2
f 226/1/2 220/1/2 227/1/2
f 220/3/2 221/3/2 228/3/2
f 227/1/2 220/1/2 228/1/2
f 221/1/2 222/1/2 229/1/2
f 228/3/2 221/3/2 229/3/2
f 229/1/2 222/1/2 230/1/2
f 230/1/2 222/1/2 231/1/2
f 222/3/2 223/3/2 232/3/2
f 231/1/2 222/1/2 232/1/2
f 223/1/2 224/1/2 233/1/2
f 232/3/2 223/3/2 233/3/2
f 224/1/2 216/1/2 234/1/2
f 233/1/2 224/1/2 234/1/2
f 216/3/2 217/3/2 235/3/2
f 234/1/2 216/1/2 235/1/2
f 217/1/2 218/1/2 236/1/2
f 235/3/2 217/3/2 236/3/2
f 227/1/2 228/1/2 237/1/2
f 228/1/2 229/1/2 237/1/2
f 229/3/2 230/3/2 237/3/2
f 230/1/2 231/1/2 238/1/2
f 237/3/2 230/3/2 238/3/2
f 238/1/2 231/1/2 239/1/2
f 239/1/2 231/1/2 240/1/2
f 231/3/2 232/3/2 241/3/2
f 240/1/2 231/1/2 241/1/2
f 233/1/2 234/1/2 242/1/2
f 241/3/2 232/3/2 242/3/2
f 232/1/2 233/1/2 242/1/2
f 226/3/2 227/3/2 243/3/2
f 225/1/2 226/1/2 243/1/2
f 227/1/2 237/1/2 244/1/2
f 243/3/2 227/3/2 244/3/2
f 237/1/2 238/1/2 244/1/2
f 244/1/2 238/1/2 245/1/2
f 238/3/2 239/3/2 246/3/2
f 245/1/2 238/1/2 246/1/2
f 239/1/2 240/1/2 247/1/2
f 246/3/2 239/3/2 247/3/2
f 247/1/2 240/1/2 248/1/2
f 248/1/2 240/1/2 249/1/2
f 240/3/2 241/3/2 250/3/2
f 249/1/2 240/1/2 250/1/2
f 241/1/2 242/1/2 251/1/2
f 250/3/2 241/3/2 251/3/2
f 242/1/2 234/1/2 252/1/2
f 251/1/2 242/1/2 252/1/2
f 234/3/2 235/3/2 253/3/2
f 252/1/2 234/1/2 253/1/2
f 235/1/2 236/1/2 254/1/2
f 253/3/2 235/3/2 254/3/2
f 205/1/2 225/1/2 255/1/2
f 225/1/2 243/1/2 255/1/2
f 243/1/2 244/1/2 255/1/2
f 255/1/2 244/1/2 256/1/2
f 244/3/2 245/3/2 257/3/2
f 256/1/2 244/1/2 257/1/2
f 245/1/2 246/1/2 258/1/2
f 257/3/2 245/3/2 258/3/2
f 246/1/2 247/1/2 258/1/2
f 258/1/2 247/1/2 259/1/2
f 247/3/2 248/3/2 260/3/2
f 259/1/2 247/1/2 260/1/2
f 248/1/2 249/1/2 261/1/2
f 260/3/2 248/3/2 261/3/2
f 261/1/2 249/1/2 262/1/2
f 262/1/2 249/1/2 263/1/2
f 263/1/2 249/1/2 264/1/2
f 264/1/2 249/1/2 265/1/2
f 265/1/2 249/1/2 266/1/2
f 266/1/2 249/1/2 267/1/2
f 267/1/2 249/1/2 268/1/2
f 268/1/2 249/1/2 269/1/2
f 249/3/2 250/3/2 270/3/2
f 269/1/2 249/1/2 270/1/2
f 251/1/2 252/1/2 271/1/2
f 270/3/2 250/3/2 271/3/2
f 250/1/2 251/1/2 271/1/2
f 271/1/2 252/1/2 272/1/2
f 252/3/2 253/3/2 273/3/2
f 272/1/2 252/1/2 273/1/2
f 253/1/2 254/1/2 274/1/2
f 273/3/2 253/3/2 274/3/2
f 254/1/2 236/1/2 275/1/2
f 274/1/2 254/1/2 275/1/2
f 236/1/2 218/1/2 276/1/2
f 275/1/2 236/1/2 276/1/2
f 189/1/2 195/1/2 277/1/2
f 183/1/2 189/1/2 277/1/2
f 177/1/2 183/1/2 277/1/2
f 195/1/2 205/1/2 277/1/2
f 205/1/2 255/1/2 277/1/2
f 255/3/2 256/3/2 278/3/2
f 277/1/2 255/1/2 278/1/2
f 256/1/2 257/1/2 279/1/2
f 278/3/2 256/3/2 279/3/2
f 257/1/2 258/1/2 279/1/2
f 258/3/2 259/3/2 280/3/2
f 279/1/2 258/1/2 280/1/2
f 259/1/2 260/1/2 281/1/2
f 280/3/2 259/3/2 281/3/2
f 260/1/2 261/1/2 281/1/2
f 261/3/2 262/3/2 282/3/2
f 281/1/2 261/1/2 282/1/2
f 262/1/2 263/1/2 283/1/2
f 282/3/2 262/3/2 283/3/2
f 263/3/2 264/3/2 284/3/2
f 283/1/2 263/1/2 284/1/2
f 264/1/2 265/1/2 285/1/2
f 284/3/2 264/3/2 285/3/2
f 265/4/2 266/4/2 286/4/2
f 285/1/2 265/1/2 286/1/2
f 266/1/2 267/1/2 287/1/2
f 286/4/2 266/4/2 287/4/2
f 267/3/2 268/3/2 288/3/2
f 287/1/2 267/1/2 288/1/2
f 268/1/2 269/1/2 289/1/2
f 288/3/2 268/3/2 289/3/2
f 269/3/2 270/3/2 290/3/2
f 289/1/2 269/1/2 290/1/2
f 270/1/2 271/1/2 291/1/2
f 290/3/2 270/3/2 291/3/2
f 271/1/2 272/1/2 291/1/2
f 272/3/2 273/3/2 292/3/2
f 291/1/2 272/1/2 292/1/2
f 273/1/2 274/1/2 293/1/2
f 292/3/2 273/3/2 293/3/2
f 274/1/2 275/1/2 293/1/2
f 275/3/2 276/3/2 294/3/2
f 293/1/2 275/1/2 294/1/2
f 276/1/2 218/1/2 295/1/2
f 294/3/2 276/3/2 295/3/2
f 188/1/2 182/1/2 296/1/2
f 295/1/2 218/1/2 296/1/2
f 194/1/2 188/1/2 296/1/2
f 204/1/2 194/1/2 296/1/2
f 218/1/2 204/1/2 296/1/2
f 301/1/3 298/1/3 297/1/3
f 301/3/3 299/3/3 298/3/3
f 302/1/3 300/1/3 299/1/3
f 302/3/3 299/3/3 301/3/3
f 303/1/3 302/1/3 301/1/3
f 303/1/3 300/1/3 302/1/3
f 304/1/3 300/1/3 303/1/3
f 305/1/3 303/1/3 301/1/3
f 305/4/3 304/4/3 303/4/3
f 306/4/3 304/4/3 305/4/3
f 307/1/3 301/1/3 297/1/3
f 307/1/3 305/1/3 301/1/3
f 307/1/3 306/1/3 305/1/3
f 308/1/3 306/1/3 307/1/3
f 309/1/4 310/1/4 313/1/4
f 310/3/4 311/3/4 313/3/4
f 311/1/4 312/1/4 314/1/4
f 313/3/4 311/3/4 314/3/4
f 313/1/4 314/1/4 315/1/4
f 314/1/4 312/1/4 315/1/4
f 315/1/4 312/1/4 316/1/4
f 313/1/4 315/1/4 317/1/4
f 315/4/4 316/4/4 317/4/4
f 317/4/4 316/4/4 318/4/4
f 309/1/4 313/1/4 319/1/4
f 313/1/4 317/1/4 319/1/4
f 317/1/4 318/1/4 319/1/4
f 319/1/4 318/1/4 320/1/4
f 323/1/5 322/1/5 321/1/5
f 324/1/5 322/1/5 323/1/5
f 325/1/5 323/1/5 321/1/5
f 325/3/5 324/3/5 323/3/5
f 326/3/5 324/3/5 325/3/5
f 327/1/5 325/1/5 321/1/5
f 327/1/5 326/1/5 325/1/5
f 328/1/5 326/1/5 327/1/5
f 329/3/5 328/3/5 327/3/5
f 330/1/5 326/1/5 328/1/5
f 330/3/5 328/3/5 329/3/5
f 331/1/5 330/1/5 329/1/5
f 332/1/5 326/1/5 330/1/5
f 332/1/5 330/1/5 331/1/5
f 333/3/5 332/3/5 331/3/5
f 334/1/5 326/1/5 332/1/5
f 334/3/5 332/3/5 333/3/5
f 335/1/5 334/1/5 333/1/5
f 336/1/5 326/1/5 334/1/5
f 336/1/5 334/1/5 335/1/5
f 337/3/5 336/3/5 335/3/5
f 338/1/5 326/1/5 336/1/5
f 338/3/5 336/3/5 337/3/5
f 339/1/5 338/1/5 337/1/5
f 340/1/5 326/1/5 338/1/5
f 340/1/5 338/1/5 339/1/5
f 341/3/5 340/3/5 339/3/5
f 342/1/5 326/1/5 340/1/5
f 342/3/5 340/3/5 341/3/5
f 343/1/5 342/1/5 341/1/5
f 343/1/5 326/1/5 342/1/5
f 344/1/5 326/1/5 343/1/5
f 345/1/5 343/1/5 341/1/5
f 345/3/5 344/3/5 343/3/5
f 346/3/5 344/3/5 345/3/5
f 347/1/5 345/1/5 341/1/5
f 347/1/5 346/1/5 345/1/5
f 348/1/5 346/1/5 347/1/5
f 349/1/6 350/1/6 353/1/6
f 350/4/6 351/4/6 353/4/6
f 351/1/6 352/1/6 354/1/6
f 353/4/6 351/4/6 354/4/6
f 354/1/6 352/1/6 355/1/6
f 353/1/6 354/1/6 356/1/6
f 354/4/6 355/4/6 356/4/6
f 355/1/6 352/1/6 357/1/6
f 356/4/6 355/4/6 357/4/6
f 357/1/6 352/1/6 358/1/6
f 349/1/6 353/1/6 359/1/6
f 353/1/6 356/1/6 359/1/6
f 356/1/6 357/1/6 359/1/6
f 357/4/6 358/4/6 360/4/6
f 359/1/6 357/1/6 360/1/6
f 358/1/6 352/1/6 361/1/6
f 360/4/6 358/4/6 361/4/6
f 361/1/6 352/1/6 362/1/6
f 359/3/6 360/3/6 363/3/6
f 360/4/6 361/4/6 364/4/6
f 363/3/6 360/3/6 364/3/6
f 361/3/6 362/3/6 365/3/6
f 364/4/6 361/4/6 365/4/6
f 365/3/6 362/3/6 366/3/6
f 366/3/6 362/3/6 367/3/6
f 359/3/6 363/3/6 368/3/6
f 363/1/6 364/1/6 369/1/6
f 368/3/6 363/3/6 369/3/6
f 364/1/6 365/1/6 369/1/6
f 366/1/6 367/1/6 370/1/6
f 370/1/6 367/1/6 371/1/6
f 366/1/6 370/1/6 372/1/6
f 370/3/6 371/3/6 373/3/6
f 372/1/6 370/1/6 373/1/6
f 373/3/6 371/3/6 374/3/6
f 369/1/6 365/1/6 375/1/6
f 368/1/6 369/1/6 375/1/6
f 365/4/6 366/4/6 376/4/6
f 375/1/6 365/1/6 376/1/6
f 366/1/6 372/1/6 377/1/6
f 376/4/6 366/4/6 377/4/6
f 372/3/6 373/3/6 378/3/6
f 377/1/6 372/1/6 378/1/6
f 368/1/6 375/1/6 379/1/6
f 375/3/6 376/3/6 379/3/6
f 376/4/6 377/4/6 380/4/6
f 379/3/6 376/3/6 380/3/6
f 377/3/6 378/3/6 381/3/6
f 380/4/6 377/4/6 381/4/6
f 378/3/6 373/3/6 382/3/6
f 381/3/6 378/3/6 382/3/6
f 373/1/6 374/1/6 383/1/6
f 382/3/6 373/3/6 383/3/6
f 380/1/6 381/1/6 384/1/6
f 381/4/6 382/4/6 384/4/6
f 379/1/6 380/1/6 384/1/6
f 382/1/6 383/1/6 385/1/6
f 384/4/6 382/4/6 385/4/6
f 379/1/6 384/1/6 386/1/6
f 368/1/6 379/1/6 386/1/6
f 384/1/6 385/1/6 386/1/6
f 386/1/6 385/1/6 387/1/6
f 386/3/6 387/3/6 388/3/6
f 387/1/6 385/1/6 389/1/6
f 388/3/6 387/3/6 389/3/6
f 383/1/6 374/1/6 390/1/6
f 389/1/6 385/1/6 390/1/6
f 385/1/6 383/1/6 390/1/6
f 390/1/6 374/1/6 391/1/6
f 388/1/6 389/1/6 392/1/6
f 389/1/6 390/1/6 392/1/6
f 390/3/6 391/3/6 392/3/6
f 392/3/6 391/3/6 393/3/6
f 388/1/6 392/1/6 394/1/6
f 392/1/6 393/1/6 394/1/6
f 394/1/6 393/1/6 395/1/6
f 394/2/6 395/2/6 396/2/6
f 395/1/6 393/1/6 397/1/6
f 396/2/6 395/2/6 397/2/6
f 397/1/6 393/1/6 398/1/6
f 398/1/6 393/1/6 399/1/6
f 399/1/6 393/1/6 400/1/6
f 400/1/6 393/1/6 401/1/6
f 396/1/6 397/1/6 402/1/6
f 397/1/6 398/1/6 402/1/6
f 398/3/6 399/3/6 403/3/6
f 402/1/6 398/1/6 403/1/6
f 399/1/6 400/1/6 404/1/6
f 403/3/6 399/3/6 404/3/6
f 404/1/6 400/1/6 405/1/6
f 402/3/6 403/3/6 406/3/6
f 403/3/6 404/3/6 406/3/6
f 404/3/6 405/3/6 406/3/6
f 406/3/6 405/3/6 407/3/6
f 405/1/6 400/1/6 408/1/6
f 407/3/6 405/3/6 408/3/6
f 400/4/6 401/4/6 409/4/6
f 408/1/6 400/1/6 409/1/6
f 401/1/6 393/1/6 410/1/6
f 409/4/6 401/4/6 410/4/6
f 410/1/6 393/1/6 411/1/6
f 408/3/6 409/3/6 412/3/6
f 407/3/6 408/3/6 412/3/6
f 412/3/6 409/3/6 413/3/6
f 413/3/6 409/3/6 414/3/6
f 409/4/6 410/4/6 415/4/6
f 414/3/6 409/3/6 415/3/6
f 410/3/6 411/3/6 416/3/6
f 415/4/6 410/4/6 416/4/6
f 416/3/6 411/3/6 417/3/6
f 415/4/6 416/4/6 418/4/6
f 416/1/6 417/1/6 418/1/6
f 418/1/6 417/1/6 419/1/6
f 406/1/6 407/1/6 420/1/6
f 407/3/6 412/3/6 420/3/6
f 412/1/6 413/1/6 421/1/6
f 420/3/6 412/3/6 421/3/6
f 413/3/6 414/3/6 422/3/6
f 421/1/6 413/1/6 422/1/6
f 414/1/6 415/1/6 423/1/6
f 422/3/6 414/3/6 423/3/6
f 418/4/6 419/4/6 424/4/6
f 423/1/6 415/1/6 424/1/6
f 415/4/6 418/4/6 424/4/6
f 421/3/6 422/3/6 425/3/6
f 420/1/6 421/1/6 425/1/6
f 422/1/6 423/1/6 426/1/6
f 425/3/6 422/3/6 426/3/6
f 423/3/6 424/3/6 427/3/6
f 426/1/6 423/1/6 427/1/6
f 424/4/6 419/4/6 428/4/6
f 427/3/6 424/3/6 428/3/6
f 428/4/6 419/4/6 429/4/6
f 425/1/6 426/1/6 430/1/6
f 420/1/6 425/1/6 430/1/6
f 426/3/6 427/3/6 431/3/6
f 430/1/6 426/1/6 431/1/6
f 428/1/6 429/1/6 432/1/6
f 431/3/6 427/3/6 432/3/6
f 427/1/6 428/1/6 432/1/6
f 432/1/6 429/1/6 433/1/6
f 429/4/6 419/4/6 434/4/6
f 433/1/6 429/1/6 434/1/6
f 420/1/6 430/1/6 435/1/6
f 406/1/6 420/1/6 435/1/6
f 430/3/6 431/3/6 436/3/6
f 435/1/6 430/1/6 436/1/6
f 431/1/6 432/1/6 437/1/6
f 436/3/6 431/3/6 437/3/6
f 432/3/6 433/3/6 438/3/6
f 437/1/6 432/1/6 438/1/6
f 433/4/6 434/4/6 439/4/6
f 438/3/6 433/3/6 439/3/6
f 434/4/6 419/4/6 440/4/6
f 439/4/6 434/4/6 440/4/6
f 440/4/6 419/4/6 441/4/6
f 436/1/6 437/1/6 442/1/6
f 435/3/6 436/3/6 442/3/6
f 437/3/6 438/3/6 443/3/6
f 442/1/6 437/1/6 443/1/6
f 438/1/6 439/1/6 444/1/6
f 443/3/6 438/3/6 444/3/6
f 439/4/6 440/4/6 445/4/6
f 444/1/6 439/1/6 445/1/6
f 440/1/6 441/1/6 446/1/6
f 445/4/6 440/4/6 446/4/6
f 446/1/6 441/1/6 447/1/6
f 406/1/6 435/1/6 448/1/6
f 442/3/6 443/3/6 449/3/6
f 448/1/6 435/1/6 449/1/6
f 435/3/6 442/3/6 449/3/6
f 444/3/6 445/3/6 449/3/6
f 443/3/6 444/3/6 449/3/6
f 449/3/6 445/3/6 450/3/6
f 445/4/6 446/4/6 451/4/6
f 450/3/6 445/3/6 451/3/6
f 446/3/6 447/3/6 452/3/6
f 451/4/6 446/4/6 452/4/6
f 452/3/6 447/3/6 453/3/6
f 449/3/6 450/3/6 454/3/6
f 448/3/6 449/3/6 454/3/6
f 454/3/6 450/3/6 455/3/6
f 455/3/6 450/3/6 456/3/6
f 450/1/6 451/1/6 457/1/6
f 456/3/6 450/3/6 457/3/6
f 454/1/6 455/1/6 458/1/6
f 458/1/6 455/1/6 459/1/6
f 455/3/6 456/3/6 460/3/6
f 459/1/6 455/1/6 460/1/6
f 456/1/6 457/1/6 461/1/6
f 460/3/6 456/3/6 461/3/6
f 451/4/6 452/4/6 462/4/6
f 461/1/6 457/1/6 462/1/6
f 457/1/6 451/1/6 462/1/6
f 452/1/6 453/1/6 463/1/6
f 462/4/6 452/4/6 463/4/6
f 458/2/6 459/2/6 464/2/6
f 461/1/6 462/1/6 465/1/6
f 464/2/6 459/2/6 465/2/6
f 460/1/6 461/1/6 465/1/6
f 462/1/6 463/1/6 465/1/6
f 459/1/6 460/1/6 465/1/6
f 463/1/6 453/1/6 466/1/6
f 465/1/6 463/1/6 466/1/6
f 464/1/6 465/1/6 466/1/6
f 466/1/6 453/1/6 467/1/6
f 464/1/6 466/1/6 468/1/6
f 468/1/6 466/1/6 469/1/6
f 466/3/6 467/3/6 470/3/6
f 469/1/6 466/1/6 470/1/6
f 470/3/6 467/3/6 471/3/6
f 468/3/6 469/3/6 472/3/6
f 469/1/6 470/1/6 473/1/6
f 472/3/6 469/3/6 473/3/6
f 470/1/6 471/1/6 473/1/6
f 472/1/6 473/1/6 474/1/6
f 473/1/6 471/1/6 474/1/6
f 474/1/6 471/1/6 475/1/6
f 472/1/6 474/1/6 476/1/6
f 476/1/6 474/1/6 477/1/6
f 474/4/6 475/4/6 478/4/6
f 477/1/6 474/1/6 478/1/6
f 475/1/6 471/1/6 479/1/6
f 478/4/6 475/4/6 479/4/6
f 479/1/6 471/1/6 480/1/6
f 476/3/6 477/3/6 481/3/6
f 472/1/6 476/1/6 481/1/6
f 477/4/6 478/4/6 482/4/6
f 481/3/6 477/3/6 482/3/6
f 479/3/6 480/3/6 483/3/6
f 482/4/6 478/4/6 483/4/6
f 478/3/6 479/3/6 483/3/6
f 483/3/6 480/3/6 484/3/6
f 483/1/6 484/1/6 485/1/6
f 484/3/6 480/3/6 485/3/6
f 480/1/6 471/1/6 486/1/6
f 485/3/6 480/3/6 486/3/6
f 486/1/6 471/1/6 487/1/6
f 485/1/6 486/1/6 488/1/6
f 486/3/6 487/3/6 488/3/6
f 488/3/6 487/3/6 489/3/6
f 472/1/6 481/1/6 490/1/6
f 481/1/6 482/1/6 490/1/6
f 490/1/6 482/1/6 491/1/6
f 490/3/6 491/3/6 492/3/6
f 491/1/6 482/1/6 492/1/6
f 492/1/6 482/1/6 493/1/6
f 482/4/6 483/4/6 494/4/6
f 493/1/6 482/1/6 494/1/6
f 483/1/6 485/1/6 495/1/6
f 494/4/6 483/4/6 495/4/6
f 488/1/6 489/1/6 495/1/6
f 485/1/6 488/1/6 495/1/6
f 495/1/6 489/1/6 496/1/6
f 490/3/6 492/3/6 497/3/6
f 492/3/6 493/3/6 497/3/6
f 493/4/6 494/4/6 498/4/6
f 497/3/6 493/3/6 498/3/6
f 495/3/6 496/3/6 499/3/6
f 498/4/6 494/4/6 499/4/6
f 494/3/6 495/3/6 499/3/6
f 499/3/6 496/3/6 500/3/6
f 497/1/6 498/1/6 501/1/6
f 498/4/6 499/4/6 502/4/6
f 501/1/6 498/1/6 502/1/6
f 499/1/6 500/1/6 503/1/6
f 502/4/6 499/4/6 503/4/6
f 497/1/6 501/1/6 504/1/6
f 501/4/6 502/4/6 505/4/6
f 504/1/6 501/1/6 505/1/6
f 502/1/6 503/1/6 506/1/6
f 505/4/6 502/4/6 506/4/6
f 497/1/6 504/1/6 507/1/6
f 504/4/6 505/4/6 508/4/6
f 507/1/6 504/1/6 508/1/6
f 505/1/6 506/1/6 509/1/6
f 508/4/6 505/4/6 509/4/6
f 503/1/6 500/1/6 510/1/6
f 509/1/6 506/1/6 510/1/6
f 506/1/6 503/1/6 510/1/6
