# MagicaVoxel @ Ephtracy

# group
o 

# material
mtllib stadium-large-complex-3.mtl
usemtl palette

# normals
vn -1 0 0
vn 1 0 0
vn 0 0 1
vn 0 0 -1
vn 0 -1 0
vn 0 1 0

# texcoords
vt 0.970703 0.5
vt 0.978516 0.5
vt 0.982422 0.5

# verts
v -12.8 2 4
v -12.8 2 3.1
v -12.8 2 2.8
v -12.8 2 0.0999999
v -12.8 2 -0.1
v -12.8 2 -2.8
v -12.8 2 -3.1
v -12.8 2 -4
v -12.8 2.1 3.4
v -12.8 2.1 3.1
v -12.8 2.1 2.8
v -12.8 2.1 2.7
v -12.8 2.1 -2.7
v -12.8 2.1 -2.8
v -12.8 2.1 -3.1
v -12.8 2.1 -3.4
v -12.8 2.2 3.6
v -12.8 2.2 3.4
v -12.8 2.2 3.1
v -12.8 2.2 0.2
v -12.8 2.2 0.0999999
v -12.8 2.2 -0.1
v -12.8 2.2 -0.2
v -12.8 2.2 -3.1
v -12.8 2.2 -3.4
v -12.8 2.2 -3.6
v -12.8 2.3 4
v -12.8 2.3 3.6
v -12.8 2.3 3.4
v -12.8 2.3 2.8
v -12.8 2.3 2.7
v -12.8 2.3 2.6
v -12.8 2.3 -2.6
v -12.8 2.3 -2.7
v -12.8 2.3 -2.8
v -12.8 2.3 -3.4
v -12.8 2.3 -3.6
v -12.8 2.3 -4
v -12.8 2.4 4
v -12.8 2.4 3.6
v -12.8 2.4 0.3
v -12.8 2.4 0.2
v -12.8 2.4 0.0999999
v -12.8 2.4 -0.1
v -12.8 2.4 -0.2
v -12.8 2.4 -0.3
v -12.8 2.4 -3.6
v -12.8 2.4 -4
v -12.8 2.5 2.7
v -12.8 2.5 2.6
v -12.8 2.5 2.5
v -12.8 2.5 -2.5
v -12.8 2.5 -2.6
v -12.8 2.5 -2.7
v -12.8 2.6 0.4
v -12.8 2.6 0.3
v -12.8 2.6 0.2
v -12.8 2.6 -0.2
v -12.8 2.6 -0.3
v -12.8 2.6 -0.4
v -12.8 2.7 2.6
v -12.8 2.7 2.5
v -12.8 2.7 2.4
v -12.8 2.7 -2.4
v -12.8 2.7 -2.5
v -12.8 2.7 -2.6
v -12.8 2.8 2.5
v -12.8 2.8 2.4
v -12.8 2.8 2.3
v -12.8 2.8 0.5
v -12.8 2.8 0.4
v -12.8 2.8 0.3
v -12.8 2.8 -0.3
v -12.8 2.8 -0.4
v -12.8 2.8 -0.5
v -12.8 2.8 -2.3
v -12.8 2.8 -2.4
v -12.8 2.8 -2.5
v -12.8 2.9 2.3
v -12.8 2.9 2.2
v -12.8 2.9 0.7
v -12.8 2.9 0.5
v -12.8 2.9 0.4
v -12.8 2.9 -0.4
v -12.8 2.9 -0.5
v -12.8 2.9 -0.7
v -12.8 2.9 -2.2
v -12.8 2.9 -2.3
v -12.8 3 4
v -12.8 3 2.4
v -12.8 3 2.2
v -12.8 3 0.7
v -12.8 3 0.5
v -12.8 3 -0.5
v -12.8 3 -0.7
v -12.8 3 -2.2
v -12.8 3 -2.4
v -12.8 3 -4
v -11.8 2 4
v -11.8 2 0.9
v -11.8 2 0.8
v -11.8 2 -0.8
v -11.8 2 -0.9
v -11.8 2 -4
v -11.8 2.2 1
v -11.8 2.2 0.9
v -11.8 2.2 0.8
v -11.8 2.2 -0.8
v -11.8 2.2 -0.9
v -11.8 2.2 -1
v -11.8 2.4 1.1
v -11.8 2.4 1
v -11.8 2.4 0.9
v -11.8 2.4 -0.9
v -11.8 2.4 -1
v -11.8 2.4 -1.1
v -11.8 2.7 1.2
v -11.8 2.7 1.1
v -11.8 2.7 1
v -11.8 2.7 -1
v -11.8 2.7 -1.1
v -11.8 2.7 -1.2
v -11.8 2.9 2.3
v -11.8 2.9 2.2
v -11.8 2.9 1.5
v -11.8 2.9 1.4
v -11.8 2.9 1.2
v -11.8 2.9 1.1
v -11.8 2.9 -1.1
v -11.8 2.9 -1.2
v -11.8 2.9 -1.4
v -11.8 2.9 -1.5
v -11.8 2.9 -2.2
v -11.8 2.9 -2.3
v -11.8 3 4
v -11.8 3 2.3
v -11.8 3 2.2
v -11.8 3 1.5
v -11.8 3 1.4
v -11.8 3 1.2
v -11.8 3 -1.2
v -11.8 3 -1.4
v -11.8 3 -1.5
v -11.8 3 -2.2
v -11.8 3 -2.3
v -11.8 3 -4
v -12.8 2 4
v -12.8 2.3 4
v -12.8 2.4 4
v -12.8 3 4
v -12.7 2.3 4
v -12.7 2.4 4
v -11.8 2 4
v -11.8 3 4
v -12.8 2 -4
v -12.8 2.3 -4
v -12.8 2.4 -4
v -12.8 3 -4
v -12.7 2.3 -4
v -12.7 2.4 -4
v -11.8 2 -4
v -11.8 3 -4
v -12.8 2 4
v -11.8 2 4
v -12.8 2 3.1
v -12.7 2 3.1
v -12.8 2 2.8
v -12.7 2 2.8
v -11.9 2 0.9
v -11.8 2 0.9
v -11.9 2 0.8
v -11.8 2 0.8
v -12.8 2 0.0999999
v -12.7 2 0.0999999
v -12.8 2 -0.1
v -12.7 2 -0.1
v -11.9 2 -0.8
v -11.8 2 -0.8
v -11.9 2 -0.9
v -11.8 2 -0.9
v -12.8 2 -2.8
v -12.7 2 -2.8
v -12.8 2 -3.1
v -12.7 2 -3.1
v -12.8 2 -4
v -11.8 2 -4
v -12.8 3 4
v -11.8 3 4
v -12.8 3 2.4
v -12.7 3 2.4
v -12.7 3 2.3
v -11.8 3 2.3
v -12.8 3 2.2
v -12.6 3 2.2
v -12.5 3 2.2
v -11.8 3 2.2
v -12.6 3 2.1
v -12.5 3 2.1
v -12.4 3 2.1
v -12.5 3 2
v -12.4 3 2
v -12.3 3 2
v -12.4 3 1.8
v -12.3 3 1.8
v -12.2 3 1.8
v -12.3 3 1.7
v -12.2 3 1.7
v -12.1 3 1.7
v -12.2 3 1.6
v -12.1 3 1.6
v -12 3 1.6
v -12.1 3 1.5
v -12 3 1.5
v -11.9 3 1.5
v -11.8 3 1.5
v -12 3 1.4
v -11.9 3 1.4
v -11.8 3 1.4
v -12.1 3 1.3
v -12 3 1.3
v -11.9 3 1.3
v -12.2 3 1.2
v -12.1 3 1.2
v -12 3 1.2
v -11.9 3 1.2
v -11.8 3 1.2
v -12.4 3 1.1
v -12.2 3 1.1
v -12.1 3 1.1
v -12.5 3 1
v -12.4 3 1
v -12.2 3 1
v -12.6 3 0.9
v -12.5 3 0.9
v -12.4 3 0.9
v -12.7 3 0.8
v -12.6 3 0.8
v -12.5 3 0.8
v -12.8 3 0.7
v -12.7 3 0.7
v -12.6 3 0.7
v -12.8 3 0.5
v -12.7 3 0.5
v -12.8 3 -0.5
v -12.7 3 -0.5
v -12.8 3 -0.7
v -12.7 3 -0.7
v -12.6 3 -0.7
v -12.7 3 -0.8
v -12.6 3 -0.8
v -12.5 3 -0.8
v -12.6 3 -0.9
v -12.5 3 -0.9
v -12.4 3 -0.9
v -12.5 3 -1
v -12.4 3 -1
v -12.2 3 -1
v -12.4 3 -1.1
v -12.2 3 -1.1
v -12.1 3 -1.1
v -12.2 3 -1.2
v -12.1 3 -1.2
v -12 3 -1.2
v -11.9 3 -1.2
v -11.8 3 -1.2
v -12.1 3 -1.3
v -12 3 -1.3
v -11.9 3 -1.3
v -12 3 -1.4
v -11.9 3 -1.4
v -11.8 3 -1.4
v -12.1 3 -1.5
v -12 3 -1.5
v -11.9 3 -1.5
v -11.8 3 -1.5
v -12.2 3 -1.6
v -12.1 3 -1.6
v -12 3 -1.6
v -12.3 3 -1.7
v -12.2 3 -1.7
v -12.1 3 -1.7
v -12.4 3 -1.8
v -12.3 3 -1.8
v -12.2 3 -1.8
v -12.5 3 -2
v -12.4 3 -2
v -12.3 3 -2
v -12.6 3 -2.1
v -12.5 3 -2.1
v -12.4 3 -2.1
v -12.8 3 -2.2
v -12.6 3 -2.2
v -12.5 3 -2.2
v -11.8 3 -2.2
v -12.7 3 -2.3
v -11.8 3 -2.3
v -12.8 3 -2.4
v -12.7 3 -2.4
v -12.8 3 -4
v -11.8 3 -4

# faces
f 9/1/1 2/1/1 1/1/1
f 10/2/1 3/2/1 2/2/1
f 10/1/1 2/1/1 9/1/1
f 11/1/1 4/1/1 3/1/1
f 11/2/1 3/2/1 10/2/1
f 12/1/1 4/1/1 11/1/1
f 13/1/1 6/1/1 5/1/1
f 14/2/1 7/2/1 6/2/1
f 14/1/1 6/1/1 13/1/1
f 15/1/1 8/1/1 7/1/1
f 15/2/1 7/2/1 14/2/1
f 16/1/1 8/1/1 15/1/1
f 17/1/1 9/1/1 1/1/1
f 18/2/1 10/2/1 9/2/1
f 18/1/1 9/1/1 17/1/1
f 19/1/1 11/1/1 10/1/1
f 19/2/1 10/2/1 18/2/1
f 20/1/1 4/1/1 12/1/1
f 21/3/1 5/3/1 4/3/1
f 21/1/1 4/1/1 20/1/1
f 22/1/1 13/1/1 5/1/1
f 22/3/1 5/3/1 21/3/1
f 23/1/1 13/1/1 22/1/1
f 24/1/1 15/1/1 14/1/1
f 24/2/1 16/2/1 15/2/1
f 25/1/1 8/1/1 16/1/1
f 25/2/1 16/2/1 24/2/1
f 26/1/1 8/1/1 25/1/1
f 27/1/1 17/1/1 1/1/1
f 28/2/1 18/2/1 17/2/1
f 28/1/1 17/1/1 27/1/1
f 29/1/1 19/1/1 18/1/1
f 29/2/1 18/2/1 28/2/1
f 30/1/1 11/1/1 19/1/1
f 30/1/1 19/1/1 29/1/1
f 30/2/1 12/2/1 11/2/1
f 31/1/1 20/1/1 12/1/1
f 31/2/1 12/2/1 30/2/1
f 32/1/1 20/1/1 31/1/1
f 33/1/1 13/1/1 23/1/1
f 34/2/1 14/2/1 13/2/1
f 34/1/1 13/1/1 33/1/1
f 35/1/1 24/1/1 14/1/1
f 35/2/1 14/2/1 34/2/1
f 35/1/1 25/1/1 24/1/1
f 36/2/1 26/2/1 25/2/1
f 36/1/1 25/1/1 35/1/1
f 37/1/1 8/1/1 26/1/1
f 37/2/1 26/2/1 36/2/1
f 38/1/1 8/1/1 37/1/1
f 39/2/1 28/2/1 27/2/1
f 40/1/1 30/1/1 29/1/1
f 40/2/1 28/2/1 39/2/1
f 40/1/1 29/1/1 28/1/1
f 40/1/1 31/1/1 30/1/1
f 41/1/1 20/1/1 32/1/1
f 42/3/1 21/3/1 20/3/1
f 42/1/1 20/1/1 41/1/1
f 43/1/1 22/1/1 21/1/1
f 43/3/1 21/3/1 42/3/1
f 44/3/1 23/3/1 22/3/1
f 44/1/1 22/1/1 43/1/1
f 45/1/1 33/1/1 23/1/1
f 45/3/1 23/3/1 44/3/1
f 46/1/1 33/1/1 45/1/1
f 47/1/1 36/1/1 35/1/1
f 47/2/1 38/2/1 37/2/1
f 47/1/1 35/1/1 34/1/1
f 47/1/1 37/1/1 36/1/1
f 48/2/1 38/2/1 47/2/1
f 49/1/1 31/1/1 40/1/1
f 49/2/1 32/2/1 31/2/1
f 49/1/1 40/1/1 39/1/1
f 50/1/1 41/1/1 32/1/1
f 50/2/1 32/2/1 49/2/1
f 51/1/1 41/1/1 50/1/1
f 52/1/1 33/1/1 46/1/1
f 53/2/1 34/2/1 33/2/1
f 53/1/1 33/1/1 52/1/1
f 54/1/1 48/1/1 47/1/1
f 54/2/1 34/2/1 53/2/1
f 54/1/1 47/1/1 34/1/1
f 55/1/1 41/1/1 51/1/1
f 56/3/1 42/3/1 41/3/1
f 56/1/1 41/1/1 55/1/1
f 57/1/1 44/1/1 43/1/1
f 57/3/1 42/3/1 56/3/1
f 57/1/1 45/1/1 44/1/1
f 57/1/1 43/1/1 42/1/1
f 58/3/1 46/3/1 45/3/1
f 58/1/1 45/1/1 57/1/1
f 59/1/1 52/1/1 46/1/1
f 59/3/1 46/3/1 58/3/1
f 60/1/1 52/1/1 59/1/1
f 61/1/1 50/1/1 49/1/1
f 61/2/1 51/2/1 50/2/1
f 62/1/1 55/1/1 51/1/1
f 62/2/1 51/2/1 61/2/1
f 63/1/1 55/1/1 62/1/1
f 64/1/1 52/1/1 60/1/1
f 65/2/1 53/2/1 52/2/1
f 65/1/1 52/1/1 64/1/1
f 66/1/1 54/1/1 53/1/1
f 66/2/1 53/2/1 65/2/1
f 67/1/1 62/1/1 61/1/1
f 67/2/1 63/2/1 62/2/1
f 68/1/1 55/1/1 63/1/1
f 68/2/1 63/2/1 67/2/1
f 69/1/1 55/1/1 68/1/1
f 70/1/1 55/1/1 69/1/1
f 71/3/1 56/3/1 55/3/1
f 71/1/1 55/1/1 70/1/1
f 72/1/1 58/1/1 57/1/1
f 72/3/1 56/3/1 71/3/1
f 72/1/1 57/1/1 56/1/1
f 72/1/1 59/1/1 58/1/1
f 73/3/1 60/3/1 59/3/1
f 73/1/1 59/1/1 72/1/1
f 74/1/1 64/1/1 60/1/1
f 74/3/1 60/3/1 73/3/1
f 75/1/1 64/1/1 74/1/1
f 76/1/1 64/1/1 75/1/1
f 77/2/1 65/2/1 64/2/1
f 77/1/1 64/1/1 76/1/1
f 78/1/1 66/1/1 65/1/1
f 78/2/1 65/2/1 77/2/1
f 79/1/1 70/1/1 69/1/1
f 79/2/1 69/2/1 68/2/1
f 80/1/1 70/1/1 79/1/1
f 81/1/1 70/1/1 80/1/1
f 82/3/1 71/3/1 70/3/1
f 82/1/1 70/1/1 81/1/1
f 83/1/1 73/1/1 72/1/1
f 83/3/1 71/3/1 82/3/1
f 83/1/1 72/1/1 71/1/1
f 83/1/1 74/1/1 73/1/1
f 84/3/1 75/3/1 74/3/1
f 84/1/1 74/1/1 83/1/1
f 85/1/1 76/1/1 75/1/1
f 85/3/1 75/3/1 84/3/1
f 86/1/1 76/1/1 85/1/1
f 87/1/1 76/1/1 86/1/1
f 88/2/1 77/2/1 76/2/1
f 88/1/1 76/1/1 87/1/1
f 89/1/1 49/1/1 39/1/1
f 89/1/1 67/1/1 61/1/1
f 89/1/1 61/1/1 49/1/1
f 89/1/1 68/1/1 67/1/1
f 90/2/1 80/2/1 79/2/1
f 90/1/1 68/1/1 89/1/1
f 90/2/1 79/2/1 68/2/1
f 91/1/1 81/1/1 80/1/1
f 91/2/1 80/2/1 90/2/1
f 92/3/1 82/3/1 81/3/1
f 92/1/1 81/1/1 91/1/1
f 93/1/1 84/1/1 83/1/1
f 93/3/1 82/3/1 92/3/1
f 93/1/1 85/1/1 84/1/1
f 93/1/1 83/1/1 82/1/1
f 94/3/1 86/3/1 85/3/1
f 94/1/1 85/1/1 93/1/1
f 95/1/1 87/1/1 86/1/1
f 95/3/1 86/3/1 94/3/1
f 96/2/1 88/2/1 87/2/1
f 96/1/1 87/1/1 95/1/1
f 97/1/1 78/1/1 77/1/1
f 97/2/1 88/2/1 96/2/1
f 97/2/1 77/2/1 88/2/1
f 98/1/1 66/1/1 78/1/1
f 98/1/1 78/1/1 97/1/1
f 98/1/1 48/1/1 54/1/1
f 98/1/1 54/1/1 66/1/1
f 99/1/2 100/1/2 105/1/2
f 100/2/2 101/2/2 106/2/2
f 105/1/2 100/1/2 106/1/2
f 101/1/2 102/1/2 107/1/2
f 106/2/2 101/2/2 107/2/2
f 102/2/2 103/2/2 108/2/2
f 107/1/2 102/1/2 108/1/2
f 103/1/2 104/1/2 109/1/2
f 108/2/2 103/2/2 109/2/2
f 109/1/2 104/1/2 110/1/2
f 99/1/2 105/1/2 111/1/2
f 105/2/2 106/2/2 112/2/2
f 111/1/2 105/1/2 112/1/2
f 107/1/2 108/1/2 113/1/2
f 112/2/2 106/2/2 113/2/2
f 106/1/2 107/1/2 113/1/2
f 108/1/2 109/1/2 113/1/2
f 109/2/2 110/2/2 114/2/2
f 113/1/2 109/1/2 114/1/2
f 110/1/2 104/1/2 115/1/2
f 114/2/2 110/2/2 115/2/2
f 115/1/2 104/1/2 116/1/2
f 99/1/2 111/1/2 117/1/2
f 111/2/2 112/2/2 118/2/2
f 117/1/2 111/1/2 118/1/2
f 113/1/2 114/1/2 119/1/2
f 118/2/2 112/2/2 119/2/2
f 112/1/2 113/1/2 119/1/2
f 114/1/2 115/1/2 119/1/2
f 115/2/2 116/2/2 120/2/2
f 119/1/2 115/1/2 120/1/2
f 116/1/2 104/1/2 121/1/2
f 120/2/2 116/2/2 121/2/2
f 121/1/2 104/1/2 122/1/2
f 99/1/2 117/1/2 123/1/2
f 123/1/2 117/1/2 124/1/2
f 124/1/2 117/1/2 125/1/2
f 125/1/2 117/1/2 126/1/2
f 117/2/2 118/2/2 127/2/2
f 126/1/2 117/1/2 127/1/2
f 119/1/2 120/1/2 128/1/2
f 127/2/2 118/2/2 128/2/2
f 118/1/2 119/1/2 128/1/2
f 120/1/2 121/1/2 128/1/2
f 121/2/2 122/2/2 129/2/2
f 128/1/2 121/1/2 129/1/2
f 122/1/2 104/1/2 130/1/2
f 129/2/2 122/2/2 130/2/2
f 130/1/2 104/1/2 131/1/2
f 131/1/2 104/1/2 132/1/2
f 132/1/2 104/1/2 133/1/2
f 133/1/2 104/1/2 134/1/2
f 99/1/2 123/1/2 135/1/2
f 123/2/2 124/2/2 136/2/2
f 135/1/2 123/1/2 136/1/2
f 124/1/2 125/1/2 137/1/2
f 136/2/2 124/2/2 137/2/2
f 125/3/2 126/3/2 138/3/2
f 137/1/2 125/1/2 138/1/2
f 126/2/2 127/2/2 139/2/2
f 138/3/2 126/3/2 139/3/2
f 128/1/2 129/1/2 140/1/2
f 139/2/2 127/2/2 140/2/2
f 127/1/2 128/1/2 140/1/2
f 129/1/2 130/1/2 140/1/2
f 130/2/2 131/2/2 141/2/2
f 140/1/2 130/1/2 141/1/2
f 131/3/2 132/3/2 142/3/2
f 141/2/2 131/2/2 142/2/2
f 132/1/2 133/1/2 143/1/2
f 142/3/2 132/3/2 143/3/2
f 133/2/2 134/2/2 144/2/2
f 143/1/2 133/1/2 144/1/2
f 134/1/2 104/1/2 145/1/2
f 144/2/2 134/2/2 145/2/2
f 145/1/2 104/1/2 146/1/2
f 151/1/3 148/1/3 147/1/3
f 151/2/3 149/2/3 148/2/3
f 152/1/3 150/1/3 149/1/3
f 152/2/3 149/2/3 151/2/3
f 153/1/3 151/1/3 147/1/3
f 153/1/3 152/1/3 151/1/3
f 154/1/3 150/1/3 152/1/3
f 154/1/3 152/1/3 153/1/3
f 155/1/4 156/1/4 159/1/4
f 156/2/4 157/2/4 159/2/4
f 157/1/4 158/1/4 160/1/4
f 159/2/4 157/2/4 160/2/4
f 155/1/4 159/1/4 161/1/4
f 159/1/4 160/1/4 161/1/4
f 160/1/4 158/1/4 162/1/4
f 161/1/4 160/1/4 162/1/4
f 165/1/5 164/1/5 163/1/5
f 166/1/5 164/1/5 165/1/5
f 167/2/5 166/2/5 165/2/5
f 168/1/5 164/1/5 166/1/5
f 168/2/5 166/2/5 167/2/5
f 169/1/5 168/1/5 167/1/5
f 169/1/5 164/1/5 168/1/5
f 170/1/5 164/1/5 169/1/5
f 171/1/5 169/1/5 167/1/5
f 171/2/5 170/2/5 169/2/5
f 172/2/5 170/2/5 171/2/5
f 173/1/5 171/1/5 167/1/5
f 173/1/5 172/1/5 171/1/5
f 174/1/5 172/1/5 173/1/5
f 175/3/5 174/3/5 173/3/5
f 176/1/5 172/1/5 174/1/5
f 176/3/5 174/3/5 175/3/5
f 177/1/5 176/1/5 175/1/5
f 177/1/5 172/1/5 176/1/5
f 178/1/5 172/1/5 177/1/5
f 179/1/5 177/1/5 175/1/5
f 179/2/5 178/2/5 177/2/5
f 180/2/5 178/2/5 179/2/5
f 181/1/5 179/1/5 175/1/5
f 181/1/5 180/1/5 179/1/5
f 182/1/5 180/1/5 181/1/5
f 183/2/5 182/2/5 181/2/5
f 184/1/5 180/1/5 182/1/5
f 184/2/5 182/2/5 183/2/5
f 185/1/5 184/1/5 183/1/5
f 186/1/5 180/1/5 184/1/5
f 186/1/5 184/1/5 185/1/5
f 187/1/6 188/1/6 189/1/6
f 189/1/6 188/1/6 190/1/6
f 189/2/6 190/2/6 191/2/6
f 190/1/6 188/1/6 191/1/6
f 191/1/6 188/1/6 192/1/6
f 189/2/6 191/2/6 193/2/6
f 191/2/6 192/2/6 193/2/6
f 193/2/6 192/2/6 194/2/6
f 194/2/6 192/2/6 195/2/6
f 195/2/6 192/2/6 196/2/6
f 193/1/6 194/1/6 197/1/6
f 194/2/6 195/2/6 197/2/6
f 195/1/6 196/1/6 198/1/6
f 197/2/6 195/2/6 198/2/6
f 198/1/6 196/1/6 199/1/6
f 197/1/6 198/1/6 200/1/6
f 198/2/6 199/2/6 200/2/6
f 199/1/6 196/1/6 201/1/6
f 200/2/6 199/2/6 201/2/6
f 201/1/6 196/1/6 202/1/6
f 200/1/6 201/1/6 203/1/6
f 201/2/6 202/2/6 203/2/6
f 202/1/6 196/1/6 204/1/6
f 203/2/6 202/2/6 204/2/6
f 204/1/6 196/1/6 205/1/6
f 203/1/6 204/1/6 206/1/6
f 204/2/6 205/2/6 206/2/6
f 205/1/6 196/1/6 207/1/6
f 206/2/6 205/2/6 207/2/6
f 207/1/6 196/1/6 208/1/6
f 206/1/6 207/1/6 209/1/6
f 207/2/6 208/2/6 209/2/6
f 208/1/6 196/1/6 210/1/6
f 209/2/6 208/2/6 210/2/6
f 210/1/6 196/1/6 211/1/6
f 209/1/6 210/1/6 212/1/6
f 210/2/6 211/2/6 212/2/6
f 211/1/6 196/1/6 213/1/6
f 212/2/6 211/2/6 213/2/6
f 213/1/6 196/1/6 214/1/6
f 214/1/6 196/1/6 215/1/6
f 212/1/6 213/1/6 216/1/6
f 213/2/6 214/2/6 216/2/6
f 214/3/6 215/3/6 217/3/6
f 216/2/6 214/2/6 217/2/6
f 217/3/6 215/3/6 218/3/6
f 209/1/6 212/1/6 219/1/6
f 212/1/6 216/1/6 219/1/6
f 216/3/6 217/3/6 220/3/6
f 219/1/6 216/1/6 220/1/6
f 217/2/6 218/2/6 221/2/6
f 220/3/6 217/3/6 221/3/6
f 206/1/6 209/1/6 222/1/6
f 209/1/6 219/1/6 222/1/6
f 219/3/6 220/3/6 223/3/6
f 222/1/6 219/1/6 223/1/6
f 220/1/6 221/1/6 224/1/6
f 223/3/6 220/3/6 224/3/6
f 221/2/6 218/2/6 225/2/6
f 224/1/6 221/1/6 225/1/6
f 225/2/6 218/2/6 226/2/6
f 200/1/6 203/1/6 227/1/6
f 203/1/6 206/1/6 227/1/6
f 206/1/6 222/1/6 227/1/6
f 222/3/6 223/3/6 228/3/6
f 227/1/6 222/1/6 228/1/6
f 225/1/6 226/1/6 229/1/6
f 228/3/6 223/3/6 229/3/6
f 223/1/6 224/1/6 229/1/6
f 224/1/6 225/1/6 229/1/6
f 197/1/6 200/1/6 230/1/6
f 200/1/6 227/1/6 230/1/6
f 227/3/6 228/3/6 231/3/6
f 230/1/6 227/1/6 231/1/6
f 228/1/6 229/1/6 232/1/6
f 231/3/6 228/3/6 232/3/6
f 193/1/6 197/1/6 233/1/6
f 197/1/6 230/1/6 233/1/6
f 230/3/6 231/3/6 234/3/6
f 233/1/6 230/1/6 234/1/6
f 231/1/6 232/1/6 235/1/6
f 234/3/6 231/3/6 235/3/6
f 193/1/6 233/1/6 236/1/6
f 233/3/6 234/3/6 237/3/6
f 236/1/6 233/1/6 237/1/6
f 234/1/6 235/1/6 238/1/6
f 237/3/6 234/3/6 238/3/6
f 193/1/6 236/1/6 239/1/6
f 236/3/6 237/3/6 240/3/6
f 239/1/6 236/1/6 240/1/6
f 237/1/6 238/1/6 241/1/6
f 240/3/6 237/3/6 241/3/6
f 239/3/6 240/3/6 242/3/6
f 240/1/6 241/1/6 243/1/6
f 242/3/6 240/3/6 243/3/6
f 242/1/6 243/1/6 244/1/6
f 243/1/6 241/1/6 245/1/6
f 244/1/6 243/1/6 245/1/6
f 244/3/6 245/3/6 246/3/6
f 245/1/6 241/1/6 247/1/6
f 246/3/6 245/3/6 247/3/6
f 241/1/6 238/1/6 248/1/6
f 247/1/6 241/1/6 248/1/6
f 246/1/6 247/1/6 249/1/6
f 247/3/6 248/3/6 249/3/6
f 248/1/6 238/1/6 250/1/6
f 249/3/6 248/3/6 250/3/6
f 238/1/6 235/1/6 251/1/6
f 250/1/6 238/1/6 251/1/6
f 249/1/6 250/1/6 252/1/6
f 250/3/6 251/3/6 252/3/6
f 251/1/6 235/1/6 253/1/6
f 252/3/6 251/3/6 253/3/6
f 235/1/6 232/1/6 254/1/6
f 253/1/6 235/1/6 254/1/6
f 252/1/6 253/1/6 255/1/6
f 253/3/6 254/3/6 255/3/6
f 254/1/6 232/1/6 256/1/6
f 255/3/6 254/3/6 256/3/6
f 232/1/6 229/1/6 257/1/6
f 256/1/6 232/1/6 257/1/6
f 255/1/6 256/1/6 258/1/6
f 256/3/6 257/3/6 258/3/6
f 257/1/6 229/1/6 259/1/6
f 258/3/6 257/3/6 259/3/6
f 229/1/6 226/1/6 260/1/6
f 259/1/6 229/1/6 260/1/6
f 258/1/6 259/1/6 261/1/6
f 259/3/6 260/3/6 261/3/6
f 260/1/6 226/1/6 262/1/6
f 261/3/6 260/3/6 262/3/6
f 262/1/6 226/1/6 263/1/6
f 263/1/6 226/1/6 264/1/6
f 264/1/6 226/1/6 265/1/6
f 261/1/6 262/1/6 266/1/6
f 262/3/6 263/3/6 266/3/6
f 263/1/6 264/1/6 267/1/6
f 266/3/6 263/3/6 267/3/6
f 264/2/6 265/2/6 268/2/6
f 267/1/6 264/1/6 268/1/6
f 266/1/6 267/1/6 269/1/6
f 267/3/6 268/3/6 269/3/6
f 268/2/6 265/2/6 270/2/6
f 269/3/6 268/3/6 270/3/6
f 270/2/6 265/2/6 271/2/6
f 266/1/6 269/1/6 272/1/6
f 261/1/6 266/1/6 272/1/6
f 269/2/6 270/2/6 273/2/6
f 272/1/6 269/1/6 273/1/6
f 270/3/6 271/3/6 274/3/6
f 273/2/6 270/2/6 274/2/6
f 274/3/6 271/3/6 275/3/6
f 258/1/6 261/1/6 276/1/6
f 261/1/6 272/1/6 276/1/6
f 272/2/6 273/2/6 277/2/6
f 276/1/6 272/1/6 277/1/6
f 274/1/6 275/1/6 278/1/6
f 277/2/6 273/2/6 278/2/6
f 273/1/6 274/1/6 278/1/6
f 258/1/6 276/1/6 279/1/6
f 276/2/6 277/2/6 280/2/6
f 279/1/6 276/1/6 280/1/6
f 277/1/6 278/1/6 281/1/6
f 280/2/6 277/2/6 281/2/6
f 255/1/6 258/1/6 282/1/6
f 258/1/6 279/1/6 282/1/6
f 279/2/6 280/2/6 283/2/6
f 282/1/6 279/1/6 283/1/6
f 280/1/6 281/1/6 284/1/6
f 283/2/6 280/2/6 284/2/6
f 252/1/6 255/1/6 285/1/6
f 255/1/6 282/1/6 285/1/6
f 282/2/6 283/2/6 286/2/6
f 285/1/6 282/1/6 286/1/6
f 283/1/6 284/1/6 287/1/6
f 286/2/6 283/2/6 287/2/6
f 249/1/6 252/1/6 288/1/6
f 252/1/6 285/1/6 288/1/6
f 285/2/6 286/2/6 289/2/6
f 288/1/6 285/1/6 289/1/6
f 286/1/6 287/1/6 290/1/6
f 289/2/6 286/2/6 290/2/6
f 246/1/6 249/1/6 291/1/6
f 249/1/6 288/1/6 291/1/6
f 288/2/6 289/2/6 292/2/6
f 291/1/6 288/1/6 292/1/6
f 289/1/6 290/1/6 293/1/6
f 292/2/6 289/2/6 293/2/6
f 281/1/6 278/1/6 294/1/6
f 293/1/6 290/1/6 294/1/6
f 287/1/6 284/1/6 294/1/6
f 284/1/6 281/1/6 294/1/6
f 290/1/6 287/1/6 294/1/6
f 278/1/6 275/1/6 294/1/6
f 292/2/6 293/2/6 295/2/6
f 291/2/6 292/2/6 295/2/6
f 293/2/6 294/2/6 295/2/6
f 295/2/6 294/2/6 296/2/6
f 291/2/6 295/2/6 297/2/6
f 295/1/6 296/1/6 298/1/6
f 297/2/6 295/2/6 298/2/6
f 297/1/6 298/1/6 299/1/6
f 298/1/6 296/1/6 300/1/6
f 299/1/6 298/1/6 300/1/6
