# MagicaVoxel @ Ephtracy

# group
o 

# material
mtllib stadium-large-complex-11.mtl
usemtl palette

# normals
vn -1 0 0
vn 1 0 0
vn 0 0 1
vn 0 0 -1
vn 0 -1 0
vn 0 1 0

# texcoords
vt 0.970703 0.5
vt 0.978516 0.5
vt 0.982422 0.5

# verts
v 0.3 8 -4
v 0.3 8 -5
v 0.3 8.2 -4.9
v 0.3 8.2 -5
v 0.3 8.3 -4.9
v 0.3 8.3 -5
v 0.3 9 -4
v 0.3 9 -5
v 11.8 8 -4
v 11.8 8 -4.1
v 11.8 8 -5
v 11.8 8.1 -4
v 11.8 8.1 -4.1
v 11.8 8.9 -4.7
v 11.8 8.9 -4.8
v 11.8 9 -4
v 11.8 9 -4.7
v 11.8 9 -4.8
v 11.8 9 -5
v 0.3 8 -4
v 0.3 9 -4
v 1.4 8.9 -4
v 1.4 9 -4
v 1.5 8.7 -4
v 1.5 8.9 -4
v 1.5 9 -4
v 1.6 8.6 -4
v 1.6 8.7 -4
v 1.6 8.9 -4
v 1.8 8.5 -4
v 1.8 8.6 -4
v 1.8 8.7 -4
v 1.9 8.4 -4
v 1.9 8.5 -4
v 1.9 8.6 -4
v 2 8.2 -4
v 2 8.4 -4
v 2 8.5 -4
v 2.1 8.1 -4
v 2.1 8.2 -4
v 2.1 8.4 -4
v 2.2 8 -4
v 2.2 8.1 -4
v 2.2 8.2 -4
v 2.3 8 -4
v 2.3 8.1 -4
v 2.3 8.9 -4
v 2.3 9 -4
v 2.4 8.9 -4
v 2.4 9 -4
v 2.9 8.9 -4
v 2.9 9 -4
v 3 8.9 -4
v 3 9 -4
v 3.9 8.9 -4
v 3.9 9 -4
v 4 8.9 -4
v 4 9 -4
v 6.6 8 -4
v 6.6 8.1 -4
v 6.6 8.9 -4
v 6.6 9 -4
v 7 8.1 -4
v 7 8.2 -4
v 7.1 8 -4
v 7.1 8.1 -4
v 7.3 8.2 -4
v 7.3 8.3 -4
v 7.4 8.1 -4
v 7.4 8.2 -4
v 7.4 8.3 -4
v 7.4 8.4 -4
v 7.6 8.3 -4
v 7.6 8.4 -4
v 7.6 8.5 -4
v 7.7 8.2 -4
v 7.7 8.3 -4
v 7.7 8.4 -4
v 7.8 8.4 -4
v 7.8 8.5 -4
v 7.8 8.6 -4
v 7.8 8.8 -4
v 7.8 8.9 -4
v 7.8 9 -4
v 8 8.3 -4
v 8 8.4 -4
v 8 8.5 -4
v 8 8.6 -4
v 8 8.7 -4
v 8.2 8.4 -4
v 8.2 8.5 -4
v 8.2 8.6 -4
v 8.2 8.7 -4
v 8.2 8.8 -4
v 8.3 8.7 -4
v 8.3 8.8 -4
v 8.4 8.7 -4
v 8.4 8.8 -4
v 8.4 8.9 -4
v 8.5 8.5 -4
v 8.5 8.6 -4
v 8.5 8.7 -4
v 8.5 8.8 -4
v 8.5 8.9 -4
v 8.5 9 -4
v 8.7 8.9 -4
v 8.7 9 -4
v 8.8 8.6 -4
v 8.8 8.7 -4
v 8.8 8.8 -4
v 9.2 8.5 -4
v 9.2 8.6 -4
v 9.2 8.7 -4
v 9.2 8.8 -4
v 9.2 8.9 -4
v 9.6 8.4 -4
v 9.6 8.5 -4
v 9.6 8.6 -4
v 9.6 8.8 -4
v 9.6 8.9 -4
v 9.6 9 -4
v 9.9 8.9 -4
v 9.9 9 -4
v 10.1 8.3 -4
v 10.1 8.4 -4
v 10.1 8.5 -4
v 10.5 8.9 -4
v 10.5 9 -4
v 10.6 8.9 -4
v 10.6 9 -4
v 10.7 8.2 -4
v 10.7 8.3 -4
v 10.7 8.4 -4
v 11 8.9 -4
v 11 9 -4
v 11.1 8.7 -4
v 11.1 8.9 -4
v 11.1 9 -4
v 11.2 8.5 -4
v 11.2 8.7 -4
v 11.2 8.9 -4
v 11.3 8.4 -4
v 11.3 8.5 -4
v 11.3 8.7 -4
v 11.4 8.1 -4
v 11.4 8.2 -4
v 11.4 8.3 -4
v 11.4 8.4 -4
v 11.4 8.5 -4
v 11.5 8 -4
v 11.5 8.1 -4
v 11.5 8.2 -4
v 11.5 8.4 -4
v 11.6 8 -4
v 11.6 8.1 -4
v 11.7 8 -4
v 11.7 8.1 -4
v 11.7 8.2 -4
v 11.8 8 -4
v 11.8 8.1 -4
v 11.8 9 -4
v 0.3 8 -5
v 0.3 8.2 -5
v 0.3 8.3 -5
v 0.3 9 -5
v 0.4 8.1 -5
v 0.4 8.2 -5
v 0.4 8.3 -5
v 0.4 8.4 -5
v 0.6 8 -5
v 0.6 8.1 -5
v 0.6 8.2 -5
v 0.6 8.3 -5
v 0.6 8.4 -5
v 0.6 8.5 -5
v 0.7 8 -5
v 0.7 8.1 -5
v 0.7 8.9 -5
v 0.7 9 -5
v 0.8 8.4 -5
v 0.8 8.5 -5
v 0.8 8.6 -5
v 1.1 8.5 -5
v 1.1 8.6 -5
v 1.1 8.7 -5
v 1.3 8.6 -5
v 1.3 8.7 -5
v 1.3 8.8 -5
v 1.4 8.9 -5
v 1.4 9 -5
v 1.6 8.7 -5
v 1.6 8.8 -5
v 1.6 8.9 -5
v 1.8 8 -5
v 1.8 8.1 -5
v 1.9 8 -5
v 1.9 8.1 -5
v 1.9 8.2 -5
v 1.9 8.9 -5
v 1.9 9 -5
v 2 8.1 -5
v 2 8.2 -5
v 2 8.3 -5
v 2 8.8 -5
v 2 8.9 -5
v 2.1 8.2 -5
v 2.1 8.3 -5
v 2.1 8.4 -5
v 2.2 8.3 -5
v 2.2 8.4 -5
v 2.2 8.5 -5
v 2.2 8.9 -5
v 2.2 9 -5
v 2.3 8.4 -5
v 2.3 8.5 -5
v 2.3 8.6 -5
v 2.4 8.5 -5
v 2.4 8.6 -5
v 2.4 8.7 -5
v 2.5 8.6 -5
v 2.5 8.7 -5
v 2.5 8.8 -5
v 2.6 8.7 -5
v 2.6 8.8 -5
v 2.6 8.9 -5
v 2.7 8.8 -5
v 2.7 8.9 -5
v 2.7 9 -5
v 2.8 8.9 -5
v 2.8 9 -5
v 3.1 8.8 -5
v 3.1 9 -5
v 3.2 8.6 -5
v 3.2 8.8 -5
v 3.2 9 -5
v 3.3 8.3 -5
v 3.3 8.6 -5
v 3.3 8.8 -5
v 3.4 8.1 -5
v 3.4 8.3 -5
v 3.4 8.6 -5
v 3.5 8 -5
v 3.5 8.1 -5
v 3.5 8.3 -5
v 3.6 8 -5
v 3.6 8.1 -5
v 7.9 8.9 -5
v 7.9 9 -5
v 8 8.9 -5
v 8 9 -5
v 9.7 8 -5
v 9.7 8.1 -5
v 9.8 8 -5
v 9.8 8.1 -5
v 9.8 8.3 -5
v 9.9 8.1 -5
v 9.9 8.3 -5
v 9.9 8.5 -5
v 10 8.3 -5
v 10 8.5 -5
v 10 8.7 -5
v 10.1 8.5 -5
v 10.1 8.7 -5
v 10.1 8.9 -5
v 10.2 8.7 -5
v 10.2 8.9 -5
v 10.2 9 -5
v 10.3 8.9 -5
v 10.3 9 -5
v 10.7 8.9 -5
v 10.7 9 -5
v 10.8 8.9 -5
v 10.8 9 -5
v 11.8 8 -5
v 11.8 9 -5
v 0.3 8 -4
v 2.2 8 -4
v 2.3 8 -4
v 6.6 8 -4
v 7.1 8 -4
v 11.5 8 -4
v 11.6 8 -4
v 11.7 8 -4
v 11.8 8 -4
v 2.2 8 -4.1
v 2.3 8 -4.1
v 6.6 8 -4.1
v 7.1 8 -4.1
v 11.5 8 -4.1
v 11.6 8 -4.1
v 11.7 8 -4.1
v 11.8 8 -4.1
v 0.6 8 -4.9
v 0.7 8 -4.9
v 1.8 8 -4.9
v 1.9 8 -4.9
v 3.5 8 -4.9
v 3.6 8 -4.9
v 9.7 8 -4.9
v 9.8 8 -4.9
v 0.3 8 -5
v 0.6 8 -5
v 0.7 8 -5
v 1.8 8 -5
v 1.9 8 -5
v 3.5 8 -5
v 3.6 8 -5
v 9.7 8 -5
v 9.8 8 -5
v 11.8 8 -5
v 0.3 9 -4
v 1.4 9 -4
v 1.5 9 -4
v 2.3 9 -4
v 2.4 9 -4
v 2.9 9 -4
v 3 9 -4
v 3.9 9 -4
v 4 9 -4
v 6.6 9 -4
v 7.8 9 -4
v 8.5 9 -4
v 8.7 9 -4
v 9.6 9 -4
v 9.9 9 -4
v 10.5 9 -4
v 10.6 9 -4
v 11 9 -4
v 11.1 9 -4
v 11.8 9 -4
v 1.4 9 -4.1
v 1.5 9 -4.1
v 1.6 9 -4.1
v 2.3 9 -4.1
v 2.4 9 -4.1
v 2.5 9 -4.1
v 2.8 9 -4.1
v 2.9 9 -4.1
v 3 9 -4.1
v 3.8 9 -4.1
v 3.9 9 -4.1
v 4 9 -4.1
v 6 9 -4.1
v 6.6 9 -4.1
v 7.8 9 -4.1
v 8.6 9 -4.1
v 8.7 9 -4.1
v 9.6 9 -4.1
v 9.9 9 -4.1
v 10 9 -4.1
v 11 9 -4.1
v 11.1 9 -4.1
v 11.2 9 -4.1
v 2.7 9 -4.2
v 2.8 9 -4.2
v 2.9 9 -4.2
v 3.7 9 -4.2
v 3.8 9 -4.2
v 3.9 9 -4.2
v 5.6 9 -4.2
v 6 9 -4.2
v 6.6 9 -4.2
v 8.4 9 -4.2
v 8.5 9 -4.2
v 8.6 9 -4.2
v 9.9 9 -4.2
v 10 9 -4.2
v 10.1 9 -4.2
v 11.1 9 -4.2
v 11.2 9 -4.2
v 11.3 9 -4.2
v 1.5 9 -4.3
v 1.6 9 -4.3
v 1.7 9 -4.3
v 2.4 9 -4.3
v 2.5 9 -4.3
v 2.7 9 -4.3
v 2.8 9 -4.3
v 4.6 9 -4.3
v 5.6 9 -4.3
v 6 9 -4.3
v 8.3 9 -4.3
v 8.4 9 -4.3
v 8.5 9 -4.3
v 10 9 -4.3
v 10.1 9 -4.3
v 10.2 9 -4.3
v 10.4 9 -4.3
v 10.5 9 -4.3
v 10.6 9 -4.3
v 11.2 9 -4.3
v 11.3 9 -4.3
v 11.4 9 -4.3
v 2.6 9 -4.4
v 2.7 9 -4.4
v 3.6 9 -4.4
v 3.7 9 -4.4
v 3.8 9 -4.4
v 4.3 9 -4.4
v 4.6 9 -4.4
v 5.6 9 -4.4
v 10.1 9 -4.4
v 10.2 9 -4.4
v 10.3 9 -4.4
v 1.6 9 -4.5
v 1.7 9 -4.5
v 1.8 9 -4.5
v 2.4 9 -4.5
v 2.5 9 -4.5
v 2.6 9 -4.5
v 2.7 9 -4.5
v 3.5 9 -4.5
v 3.6 9 -4.5
v 3.7 9 -4.5
v 4.3 9 -4.5
v 4.6 9 -4.5
v 8.2 9 -4.5
v 8.3 9 -4.5
v 8.4 9 -4.5
v 10.2 9 -4.5
v 10.3 9 -4.5
v 10.4 9 -4.5
v 11.3 9 -4.5
v 11.4 9 -4.5
v 11.5 9 -4.5
v 2.3 9 -4.6
v 2.4 9 -4.6
v 2.5 9 -4.6
v 2.6 9 -4.6
v 2.7 9 -4.6
v 2.9 9 -4.6
v 3.4 9 -4.6
v 3.5 9 -4.6
v 3.6 9 -4.6
v 8.1 9 -4.6
v 8.2 9 -4.6
v 8.3 9 -4.6
v 10.3 9 -4.6
v 10.4 9 -4.6
v 11.4 9 -4.6
v 11.5 9 -4.6
v 11.7 9 -4.6
v 1.7 9 -4.7
v 1.8 9 -4.7
v 1.9 9 -4.7
v 2 9 -4.7
v 2.3 9 -4.7
v 2.4 9 -4.7
v 2.6 9 -4.7
v 2.7 9 -4.7
v 2.8 9 -4.7
v 2.9 9 -4.7
v 3.3 9 -4.7
v 3.4 9 -4.7
v 3.5 9 -4.7
v 8 9 -4.7
v 8.1 9 -4.7
v 8.2 9 -4.7
v 10.3 9 -4.7
v 10.4 9 -4.7
v 10.5 9 -4.7
v 10.6 9 -4.7
v 11.5 9 -4.7
v 11.7 9 -4.7
v 11.8 9 -4.7
v 1.4 9 -4.8
v 1.8 9 -4.8
v 1.9 9 -4.8
v 2 9 -4.8
v 2.2 9 -4.8
v 2.3 9 -4.8
v 2.6 9 -4.8
v 3.2 9 -4.8
v 3.3 9 -4.8
v 3.4 9 -4.8
v 10.5 9 -4.8
v 10.6 9 -4.8
v 10.7 9 -4.8
v 11.7 9 -4.8
v 11.8 9 -4.8
v 0.7 9 -4.9
v 1.4 9 -4.9
v 1.9 9 -4.9
v 2 9 -4.9
v 2.2 9 -4.9
v 2.3 9 -4.9
v 3.1 9 -4.9
v 3.2 9 -4.9
v 3.3 9 -4.9
v 7.9 9 -4.9
v 8 9 -4.9
v 8.1 9 -4.9
v 10.2 9 -4.9
v 10.3 9 -4.9
v 10.4 9 -4.9
v 10.6 9 -4.9
v 10.7 9 -4.9
v 10.8 9 -4.9
v 0.3 9 -5
v 0.7 9 -5
v 1.4 9 -5
v 1.9 9 -5
v 2.2 9 -5
v 2.7 9 -5
v 2.8 9 -5
v 3.1 9 -5
v 3.2 9 -5
v 7.9 9 -5
v 8 9 -5
v 10.2 9 -5
v 10.3 9 -5
v 10.7 9 -5
v 10.8 9 -5
v 11.8 9 -5

# faces
f 3/1/1 2/1/1 1/1/1
f 4/1/1 2/1/1 3/1/1
f 5/1/1 3/1/1 1/1/1
f 5/3/1 4/3/1 3/3/1
f 6/3/1 4/3/1 5/3/1
f 7/1/1 5/1/1 1/1/1
f 7/1/1 6/1/1 5/1/1
f 8/1/1 6/1/1 7/1/1
f 9/3/2 10/3/2 12/3/2
f 10/1/2 11/1/2 13/1/2
f 12/3/2 10/3/2 13/3/2
f 12/1/2 13/1/2 14/1/2
f 13/1/2 11/1/2 14/1/2
f 14/1/2 11/1/2 15/1/2
f 12/1/2 14/1/2 16/1/2
f 14/2/2 15/2/2 17/2/2
f 16/1/2 14/1/2 17/1/2
f 15/1/2 11/1/2 18/1/2
f 17/2/2 15/2/2 18/2/2
f 18/1/2 11/1/2 19/1/2
f 22/1/3 21/1/3 20/1/3
f 23/1/3 21/1/3 22/1/3
f 24/1/3 22/1/3 20/1/3
f 25/2/3 23/2/3 22/2/3
f 25/1/3 22/1/3 24/1/3
f 26/2/3 23/2/3 25/2/3
f 27/1/3 24/1/3 20/1/3
f 28/2/3 25/2/3 24/2/3
f 28/1/3 24/1/3 27/1/3
f 29/1/3 26/1/3 25/1/3
f 29/2/3 25/2/3 28/2/3
f 30/1/3 27/1/3 20/1/3
f 31/2/3 28/2/3 27/2/3
f 31/1/3 27/1/3 30/1/3
f 32/1/3 29/1/3 28/1/3
f 32/2/3 28/2/3 31/2/3
f 33/1/3 30/1/3 20/1/3
f 34/2/3 31/2/3 30/2/3
f 34/1/3 30/1/3 33/1/3
f 35/1/3 32/1/3 31/1/3
f 35/2/3 31/2/3 34/2/3
f 36/1/3 33/1/3 20/1/3
f 37/2/3 34/2/3 33/2/3
f 37/1/3 33/1/3 36/1/3
f 38/1/3 35/1/3 34/1/3
f 38/2/3 34/2/3 37/2/3
f 39/1/3 36/1/3 20/1/3
f 40/2/3 37/2/3 36/2/3
f 40/1/3 36/1/3 39/1/3
f 41/1/3 38/1/3 37/1/3
f 41/2/3 37/2/3 40/2/3
f 42/1/3 39/1/3 20/1/3
f 43/2/3 40/2/3 39/2/3
f 43/1/3 39/1/3 42/1/3
f 44/1/3 41/1/3 40/1/3
f 44/2/3 40/2/3 43/2/3
f 45/2/3 43/2/3 42/2/3
f 46/1/3 44/1/3 43/1/3
f 46/2/3 43/2/3 45/2/3
f 47/1/3 26/1/3 29/1/3
f 47/1/3 44/1/3 46/1/3
f 47/1/3 29/1/3 32/1/3
f 47/1/3 32/1/3 35/1/3
f 47/1/3 41/1/3 44/1/3
f 47/1/3 35/1/3 38/1/3
f 47/1/3 38/1/3 41/1/3
f 48/1/3 26/1/3 47/1/3
f 49/1/3 46/1/3 45/1/3
f 49/1/3 47/1/3 46/1/3
f 49/2/3 48/2/3 47/2/3
f 50/2/3 48/2/3 49/2/3
f 51/1/3 49/1/3 45/1/3
f 51/1/3 50/1/3 49/1/3
f 52/1/3 50/1/3 51/1/3
f 53/1/3 51/1/3 45/1/3
f 53/2/3 52/2/3 51/2/3
f 54/2/3 52/2/3 53/2/3
f 55/1/3 53/1/3 45/1/3
f 55/1/3 54/1/3 53/1/3
f 56/1/3 54/1/3 55/1/3
f 57/1/3 55/1/3 45/1/3
f 57/2/3 56/2/3 55/2/3
f 58/2/3 56/2/3 57/2/3
f 59/1/3 57/1/3 45/1/3
f 59/1/3 58/1/3 57/1/3
f 60/1/3 58/1/3 59/1/3
f 61/1/3 58/1/3 60/1/3
f 62/1/3 58/1/3 61/1/3
f 63/2/3 60/2/3 59/2/3
f 63/1/3 61/1/3 60/1/3
f 64/1/3 61/1/3 63/1/3
f 65/2/3 63/2/3 59/2/3
f 65/2/3 64/2/3 63/2/3
f 66/2/3 64/2/3 65/2/3
f 67/1/3 61/1/3 64/1/3
f 67/2/3 64/2/3 66/2/3
f 68/1/3 61/1/3 67/1/3
f 69/1/3 66/1/3 65/1/3
f 69/2/3 67/2/3 66/2/3
f 69/2/3 68/2/3 67/2/3
f 70/2/3 68/2/3 69/2/3
f 71/1/3 61/1/3 68/1/3
f 71/2/3 68/2/3 70/2/3
f 72/1/3 61/1/3 71/1/3
f 73/2/3 71/2/3 70/2/3
f 73/2/3 72/2/3 71/2/3
f 74/1/3 61/1/3 72/1/3
f 74/2/3 72/2/3 73/2/3
f 75/1/3 61/1/3 74/1/3
f 76/1/3 70/1/3 69/1/3
f 76/2/3 73/2/3 70/2/3
f 77/1/3 74/1/3 73/1/3
f 77/2/3 73/2/3 76/2/3
f 78/2/3 75/2/3 74/2/3
f 78/1/3 74/1/3 77/1/3
f 79/2/3 78/2/3 77/2/3
f 79/2/3 75/2/3 78/2/3
f 80/1/3 61/1/3 75/1/3
f 80/2/3 75/2/3 79/2/3
f 81/1/3 61/1/3 80/1/3
f 82/1/3 61/1/3 81/1/3
f 83/3/3 62/3/3 61/3/3
f 83/1/3 61/1/3 82/1/3
f 84/3/3 62/3/3 83/3/3
f 85/2/3 79/2/3 77/2/3
f 85/1/3 77/1/3 76/1/3
f 86/1/3 80/1/3 79/1/3
f 86/2/3 79/2/3 85/2/3
f 87/2/3 81/2/3 80/2/3
f 87/1/3 80/1/3 86/1/3
f 88/1/3 82/1/3 81/1/3
f 88/2/3 81/2/3 87/2/3
f 89/1/3 82/1/3 88/1/3
f 90/2/3 87/2/3 86/2/3
f 90/1/3 86/1/3 85/1/3
f 91/1/3 88/1/3 87/1/3
f 91/2/3 87/2/3 90/2/3
f 92/2/3 89/2/3 88/2/3
f 92/1/3 88/1/3 91/1/3
f 93/1/3 82/1/3 89/1/3
f 93/2/3 89/2/3 92/2/3
f 94/3/3 83/3/3 82/3/3
f 94/1/3 82/1/3 93/1/3
f 95/1/3 93/1/3 92/1/3
f 95/2/3 94/2/3 93/2/3
f 96/3/3 83/3/3 94/3/3
f 96/2/3 94/2/3 95/2/3
f 97/1/3 95/1/3 92/1/3
f 97/1/3 96/1/3 95/1/3
f 98/3/3 83/3/3 96/3/3
f 98/1/3 96/1/3 97/1/3
f 99/1/3 84/1/3 83/1/3
f 99/3/3 83/3/3 98/3/3
f 100/2/3 92/2/3 91/2/3
f 100/1/3 91/1/3 90/1/3
f 101/1/3 97/1/3 92/1/3
f 101/2/3 92/2/3 100/2/3
f 102/3/3 98/3/3 97/3/3
f 102/1/3 97/1/3 101/1/3
f 103/2/3 99/2/3 98/2/3
f 103/3/3 98/3/3 102/3/3
f 104/1/3 84/1/3 99/1/3
f 104/2/3 99/2/3 103/2/3
f 105/1/3 84/1/3 104/1/3
f 106/1/3 104/1/3 103/1/3
f 106/2/3 105/2/3 104/2/3
f 107/2/3 105/2/3 106/2/3
f 108/1/3 101/1/3 100/1/3
f 108/2/3 102/2/3 101/2/3
f 109/3/3 103/3/3 102/3/3
f 109/2/3 102/2/3 108/2/3
f 110/1/3 107/1/3 106/1/3
f 110/3/3 103/3/3 109/3/3
f 110/1/3 106/1/3 103/1/3
f 111/1/3 108/1/3 100/1/3
f 111/1/3 100/1/3 90/1/3
f 112/3/3 109/3/3 108/3/3
f 112/1/3 108/1/3 111/1/3
f 113/2/3 110/2/3 109/2/3
f 113/3/3 109/3/3 112/3/3
f 114/1/3 107/1/3 110/1/3
f 114/2/3 110/2/3 113/2/3
f 115/1/3 107/1/3 114/1/3
f 116/1/3 111/1/3 90/1/3
f 116/1/3 90/1/3 85/1/3
f 117/3/3 112/3/3 111/3/3
f 117/1/3 111/1/3 116/1/3
f 118/1/3 113/1/3 112/1/3
f 118/3/3 112/3/3 117/3/3
f 118/1/3 114/1/3 113/1/3
f 119/2/3 115/2/3 114/2/3
f 119/1/3 114/1/3 118/1/3
f 120/1/3 107/1/3 115/1/3
f 120/2/3 115/2/3 119/2/3
f 121/1/3 107/1/3 120/1/3
f 122/1/3 119/1/3 118/1/3
f 122/1/3 118/1/3 117/1/3
f 122/2/3 121/2/3 120/2/3
f 122/1/3 120/1/3 119/1/3
f 123/2/3 121/2/3 122/2/3
f 124/1/3 85/1/3 76/1/3
f 124/1/3 116/1/3 85/1/3
f 125/3/3 117/3/3 116/3/3
f 125/1/3 116/1/3 124/1/3
f 126/1/3 123/1/3 122/1/3
f 126/3/3 117/3/3 125/3/3
f 126/1/3 122/1/3 117/1/3
f 127/1/3 126/1/3 125/1/3
f 127/1/3 123/1/3 126/1/3
f 128/1/3 123/1/3 127/1/3
f 129/1/3 127/1/3 125/1/3
f 129/2/3 128/2/3 127/2/3
f 130/2/3 128/2/3 129/2/3
f 131/1/3 124/1/3 76/1/3
f 131/1/3 76/1/3 69/1/3
f 132/3/3 125/3/3 124/3/3
f 132/1/3 124/1/3 131/1/3
f 133/1/3 130/1/3 129/1/3
f 133/3/3 125/3/3 132/3/3
f 133/1/3 129/1/3 125/1/3
f 134/1/3 133/1/3 132/1/3
f 134/1/3 130/1/3 133/1/3
f 135/1/3 130/1/3 134/1/3
f 136/1/3 134/1/3 132/1/3
f 137/2/3 135/2/3 134/2/3
f 137/1/3 134/1/3 136/1/3
f 138/2/3 135/2/3 137/2/3
f 139/1/3 136/1/3 132/1/3
f 140/2/3 137/2/3 136/2/3
f 140/1/3 136/1/3 139/1/3
f 141/1/3 138/1/3 137/1/3
f 141/2/3 137/2/3 140/2/3
f 142/1/3 139/1/3 132/1/3
f 143/2/3 140/2/3 139/2/3
f 143/1/3 139/1/3 142/1/3
f 144/1/3 141/1/3 140/1/3
f 144/2/3 140/2/3 143/2/3
f 145/1/3 69/1/3 65/1/3
f 145/1/3 131/1/3 69/1/3
f 146/3/3 132/3/3 131/3/3
f 146/1/3 131/1/3 145/1/3
f 147/1/3 142/1/3 132/1/3
f 147/3/3 132/3/3 146/3/3
f 148/2/3 143/2/3 142/2/3
f 148/1/3 142/1/3 147/1/3
f 149/1/3 144/1/3 143/1/3
f 149/2/3 143/2/3 148/2/3
f 150/1/3 145/1/3 65/1/3
f 151/3/3 146/3/3 145/3/3
f 151/1/3 145/1/3 150/1/3
f 152/2/3 148/2/3 147/2/3
f 152/3/3 146/3/3 151/3/3
f 152/2/3 147/2/3 146/2/3
f 153/1/3 149/1/3 148/1/3
f 153/2/3 148/2/3 152/2/3
f 154/2/3 151/2/3 150/2/3
f 155/3/3 152/3/3 151/3/3
f 155/2/3 151/2/3 154/2/3
f 156/1/3 155/1/3 154/1/3
f 157/3/3 152/3/3 155/3/3
f 157/1/3 155/1/3 156/1/3
f 158/1/3 153/1/3 152/1/3
f 158/3/3 152/3/3 157/3/3
f 159/3/3 157/3/3 156/3/3
f 160/1/3 158/1/3 157/1/3
f 160/3/3 157/3/3 159/3/3
f 161/1/3 141/1/3 144/1/3
f 161/1/3 158/1/3 160/1/3
f 161/1/3 144/1/3 149/1/3
f 161/1/3 149/1/3 153/1/3
f 161/1/3 138/1/3 141/1/3
f 161/1/3 153/1/3 158/1/3
f 162/1/4 163/1/4 166/1/4
f 163/3/4 164/3/4 167/3/4
f 166/1/4 163/1/4 167/1/4
f 164/1/4 165/1/4 168/1/4
f 167/3/4 164/3/4 168/3/4
f 168/1/4 165/1/4 169/1/4
f 162/1/4 166/1/4 170/1/4
f 166/3/4 167/3/4 171/3/4
f 170/1/4 166/1/4 171/1/4
f 167/1/4 168/1/4 172/1/4
f 171/3/4 167/3/4 172/3/4
f 168/2/4 169/2/4 173/2/4
f 172/1/4 168/1/4 173/1/4
f 169/1/4 165/1/4 174/1/4
f 173/2/4 169/2/4 174/2/4
f 174/1/4 165/1/4 175/1/4
f 170/3/4 171/3/4 176/3/4
f 172/1/4 173/1/4 177/1/4
f 176/3/4 171/3/4 177/3/4
f 171/1/4 172/1/4 177/1/4
f 173/1/4 174/1/4 177/1/4
f 175/1/4 165/1/4 178/1/4
f 178/1/4 165/1/4 179/1/4
f 177/1/4 174/1/4 180/1/4
f 174/2/4 175/2/4 180/2/4
f 176/1/4 177/1/4 180/1/4
f 175/1/4 178/1/4 181/1/4
f 180/2/4 175/2/4 181/2/4
f 181/1/4 178/1/4 182/1/4
f 180/1/4 181/1/4 183/1/4
f 181/2/4 182/2/4 183/2/4
f 182/1/4 178/1/4 184/1/4
f 183/2/4 182/2/4 184/2/4
f 184/1/4 178/1/4 185/1/4
f 183/1/4 184/1/4 186/1/4
f 184/2/4 185/2/4 186/2/4
f 185/1/4 178/1/4 187/1/4
f 186/2/4 185/2/4 187/2/4
f 187/1/4 178/1/4 188/1/4
f 178/3/4 179/3/4 189/3/4
f 188/1/4 178/1/4 189/1/4
f 189/3/4 179/3/4 190/3/4
f 187/2/4 188/2/4 191/2/4
f 186/1/4 187/1/4 191/1/4
f 189/1/4 190/1/4 192/1/4
f 191/2/4 188/2/4 192/2/4
f 188/1/4 189/1/4 192/1/4
f 192/1/4 190/1/4 193/1/4
f 176/1/4 180/1/4 194/1/4
f 180/1/4 183/1/4 194/1/4
f 183/1/4 186/1/4 194/1/4
f 191/1/4 192/1/4 194/1/4
f 186/1/4 191/1/4 194/1/4
f 194/1/4 192/1/4 195/1/4
f 194/2/4 195/2/4 196/2/4
f 195/1/4 192/1/4 197/1/4
f 196/2/4 195/2/4 197/2/4
f 197/1/4 192/1/4 198/1/4
f 193/1/4 190/1/4 199/1/4
f 192/2/4 193/2/4 199/2/4
f 199/1/4 190/1/4 200/1/4
f 197/2/4 198/2/4 201/2/4
f 196/1/4 197/1/4 201/1/4
f 198/1/4 192/1/4 202/1/4
f 201/2/4 198/2/4 202/2/4
f 202/1/4 192/1/4 203/1/4
f 199/2/4 200/2/4 204/2/4
f 203/1/4 192/1/4 204/1/4
f 192/2/4 199/2/4 204/2/4
f 204/2/4 200/2/4 205/2/4
f 202/2/4 203/2/4 206/2/4
f 201/1/4 202/1/4 206/1/4
f 204/1/4 205/1/4 207/1/4
f 206/2/4 203/2/4 207/2/4
f 203/1/4 204/1/4 207/1/4
f 207/1/4 205/1/4 208/1/4
f 206/1/4 207/1/4 209/1/4
f 207/2/4 208/2/4 209/2/4
f 208/1/4 205/1/4 210/1/4
f 209/2/4 208/2/4 210/2/4
f 210/1/4 205/1/4 211/1/4
f 205/2/4 200/2/4 212/2/4
f 211/1/4 205/1/4 212/1/4
f 212/2/4 200/2/4 213/2/4
f 210/2/4 211/2/4 214/2/4
f 209/1/4 210/1/4 214/1/4
f 212/1/4 213/1/4 215/1/4
f 214/2/4 211/2/4 215/2/4
f 211/1/4 212/1/4 215/1/4
f 215/1/4 213/1/4 216/1/4
f 214/1/4 215/1/4 217/1/4
f 215/2/4 216/2/4 217/2/4
f 216/1/4 213/1/4 218/1/4
f 217/2/4 216/2/4 218/2/4
f 218/1/4 213/1/4 219/1/4
f 217/1/4 218/1/4 220/1/4
f 218/2/4 219/2/4 220/2/4
f 219/1/4 213/1/4 221/1/4
f 220/2/4 219/2/4 221/2/4
f 221/1/4 213/1/4 222/1/4
f 220/1/4 221/1/4 223/1/4
f 221/2/4 222/2/4 223/2/4
f 222/1/4 213/1/4 224/1/4
f 223/2/4 222/2/4 224/2/4
f 224/1/4 213/1/4 225/1/4
f 223/1/4 224/1/4 226/1/4
f 224/2/4 225/2/4 226/2/4
f 225/1/4 213/1/4 227/1/4
f 226/2/4 225/2/4 227/2/4
f 227/1/4 213/1/4 228/1/4
f 226/1/4 227/1/4 229/1/4
f 227/2/4 228/2/4 229/2/4
f 229/2/4 228/2/4 230/2/4
f 223/1/4 226/1/4 231/1/4
f 226/1/4 229/1/4 231/1/4
f 229/1/4 230/1/4 231/1/4
f 231/1/4 230/1/4 232/1/4
f 217/1/4 220/1/4 233/1/4
f 220/1/4 223/1/4 233/1/4
f 223/1/4 231/1/4 233/1/4
f 231/2/4 232/2/4 234/2/4
f 233/1/4 231/1/4 234/1/4
f 234/2/4 232/2/4 235/2/4
f 206/1/4 209/1/4 236/1/4
f 209/1/4 214/1/4 236/1/4
f 214/1/4 217/1/4 236/1/4
f 217/1/4 233/1/4 236/1/4
f 233/2/4 234/2/4 237/2/4
f 236/1/4 233/1/4 237/1/4
f 234/1/4 235/1/4 238/1/4
f 237/2/4 234/2/4 238/2/4
f 196/1/4 201/1/4 239/1/4
f 201/1/4 206/1/4 239/1/4
f 206/1/4 236/1/4 239/1/4
f 236/2/4 237/2/4 240/2/4
f 239/1/4 236/1/4 240/1/4
f 237/1/4 238/1/4 241/1/4
f 240/2/4 237/2/4 241/2/4
f 196/1/4 239/1/4 242/1/4
f 239/2/4 240/2/4 243/2/4
f 242/1/4 239/1/4 243/1/4
f 240/1/4 241/1/4 244/1/4
f 243/2/4 240/2/4 244/2/4
f 242/2/4 243/2/4 245/2/4
f 243/1/4 244/1/4 246/1/4
f 245/2/4 243/2/4 246/2/4
f 238/1/4 235/1/4 247/1/4
f 246/1/4 244/1/4 247/1/4
f 245/1/4 246/1/4 247/1/4
f 241/1/4 238/1/4 247/1/4
f 244/1/4 241/1/4 247/1/4
f 247/1/4 235/1/4 248/1/4
f 245/1/4 247/1/4 249/1/4
f 247/2/4 248/2/4 249/2/4
f 249/2/4 248/2/4 250/2/4
f 245/1/4 249/1/4 251/1/4
f 249/1/4 250/1/4 251/1/4
f 251/1/4 250/1/4 252/1/4
f 251/2/4 252/2/4 253/2/4
f 252/1/4 250/1/4 254/1/4
f 253/2/4 252/2/4 254/2/4
f 254/1/4 250/1/4 255/1/4
f 253/1/4 254/1/4 256/1/4
f 254/2/4 255/2/4 256/2/4
f 255/1/4 250/1/4 257/1/4
f 256/2/4 255/2/4 257/2/4
f 257/1/4 250/1/4 258/1/4
f 256/1/4 257/1/4 259/1/4
f 257/2/4 258/2/4 259/2/4
f 258/1/4 250/1/4 260/1/4
f 259/2/4 258/2/4 260/2/4
f 260/1/4 250/1/4 261/1/4
f 259/1/4 260/1/4 262/1/4
f 260/2/4 261/2/4 262/2/4
f 261/1/4 250/1/4 263/1/4
f 262/2/4 261/2/4 263/2/4
f 263/1/4 250/1/4 264/1/4
f 262/1/4 263/1/4 265/1/4
f 263/2/4 264/2/4 265/2/4
f 264/1/4 250/1/4 266/1/4
f 265/2/4 264/2/4 266/2/4
f 266/1/4 250/1/4 267/1/4
f 265/1/4 266/1/4 268/1/4
f 266/2/4 267/2/4 268/2/4
f 268/2/4 267/2/4 269/2/4
f 265/1/4 268/1/4 270/1/4
f 268/1/4 269/1/4 270/1/4
f 270/1/4 269/1/4 271/1/4
f 265/1/4 270/1/4 272/1/4
f 270/2/4 271/2/4 272/2/4
f 272/2/4 271/2/4 273/2/4
f 253/1/4 256/1/4 274/1/4
f 256/1/4 259/1/4 274/1/4
f 272/1/4 273/1/4 274/1/4
f 265/1/4 272/1/4 274/1/4
f 259/1/4 262/1/4 274/1/4
f 262/1/4 265/1/4 274/1/4
f 274/1/4 273/1/4 275/1/4
f 285/1/5 277/1/5 276/1/5
f 285/2/5 278/2/5 277/2/5
f 286/1/5 279/1/5 278/1/5
f 286/2/5 278/2/5 285/2/5
f 287/2/5 280/2/5 279/2/5
f 287/1/5 279/1/5 286/1/5
f 288/1/5 281/1/5 280/1/5
f 288/2/5 280/2/5 287/2/5
f 289/2/5 282/2/5 281/2/5
f 289/1/5 281/1/5 288/1/5
f 290/1/5 283/1/5 282/1/5
f 290/2/5 282/2/5 289/2/5
f 291/3/5 284/3/5 283/3/5
f 291/1/5 283/1/5 290/1/5
f 292/3/5 284/3/5 291/3/5
f 293/1/5 290/1/5 289/1/5
f 293/1/5 289/1/5 288/1/5
f 293/1/5 292/1/5 291/1/5
f 293/1/5 291/1/5 290/1/5
f 293/1/5 288/1/5 287/1/5
f 293/1/5 287/1/5 286/1/5
f 293/1/5 286/1/5 285/1/5
f 293/1/5 285/1/5 276/1/5
f 294/1/5 292/1/5 293/1/5
f 295/1/5 292/1/5 294/1/5
f 296/1/5 292/1/5 295/1/5
f 297/1/5 292/1/5 296/1/5
f 298/1/5 292/1/5 297/1/5
f 299/1/5 292/1/5 298/1/5
f 300/1/5 292/1/5 299/1/5
f 301/1/5 293/1/5 276/1/5
f 302/3/5 294/3/5 293/3/5
f 302/1/5 293/1/5 301/1/5
f 303/1/5 295/1/5 294/1/5
f 303/3/5 294/3/5 302/3/5
f 304/2/5 296/2/5 295/2/5
f 304/1/5 295/1/5 303/1/5
f 305/1/5 297/1/5 296/1/5
f 305/2/5 296/2/5 304/2/5
f 306/2/5 298/2/5 297/2/5
f 306/1/5 297/1/5 305/1/5
f 307/1/5 299/1/5 298/1/5
f 307/2/5 298/2/5 306/2/5
f 308/2/5 300/2/5 299/2/5
f 308/1/5 299/1/5 307/1/5
f 309/1/5 292/1/5 300/1/5
f 309/2/5 300/2/5 308/2/5
f 310/1/5 292/1/5 309/1/5
f 311/1/6 312/1/6 331/1/6
f 312/2/6 313/2/6 331/2/6
f 313/1/6 314/1/6 332/1/6
f 331/2/6 313/2/6 332/2/6
f 332/1/6 314/1/6 333/1/6
f 314/2/6 315/2/6 334/2/6
f 333/1/6 314/1/6 334/1/6
f 315/1/6 316/1/6 335/1/6
f 334/2/6 315/2/6 335/2/6
f 335/1/6 316/1/6 336/1/6
f 336/1/6 316/1/6 337/1/6
f 316/2/6 317/2/6 338/2/6
f 337/1/6 316/1/6 338/1/6
f 317/1/6 318/1/6 339/1/6
f 338/2/6 317/2/6 339/2/6
f 339/1/6 318/1/6 340/1/6
f 318/2/6 319/2/6 341/2/6
f 340/1/6 318/1/6 341/1/6
f 319/1/6 320/1/6 342/1/6
f 341/2/6 319/2/6 342/2/6
f 342/1/6 320/1/6 343/1/6
f 320/3/6 321/3/6 344/3/6
f 343/1/6 320/1/6 344/1/6
f 321/1/6 322/1/6 345/1/6
f 344/3/6 321/3/6 345/3/6
f 322/2/6 323/2/6 346/2/6
f 323/1/6 324/1/6 347/1/6
f 346/2/6 323/2/6 347/2/6
f 324/2/6 325/2/6 348/2/6
f 347/1/6 324/1/6 348/1/6
f 325/1/6 326/1/6 349/1/6
f 348/2/6 325/2/6 349/2/6
f 349/1/6 326/1/6 350/1/6
f 328/2/6 329/2/6 351/2/6
f 327/1/6 328/1/6 351/1/6
f 329/1/6 330/1/6 352/1/6
f 351/2/6 329/2/6 352/2/6
f 352/1/6 330/1/6 353/1/6
f 336/1/6 337/1/6 354/1/6
f 337/2/6 338/2/6 355/2/6
f 354/1/6 337/1/6 355/1/6
f 339/1/6 340/1/6 356/1/6
f 355/2/6 338/2/6 356/2/6
f 338/1/6 339/1/6 356/1/6
f 356/1/6 340/1/6 357/1/6
f 340/2/6 341/2/6 358/2/6
f 357/1/6 340/1/6 358/1/6
f 342/1/6 343/1/6 359/1/6
f 358/2/6 341/2/6 359/2/6
f 341/1/6 342/1/6 359/1/6
f 359/1/6 343/1/6 360/1/6
f 343/3/6 344/3/6 361/3/6
f 360/1/6 343/1/6 361/1/6
f 344/1/6 345/1/6 362/1/6
f 361/3/6 344/3/6 362/3/6
f 345/1/6 322/1/6 363/1/6
f 362/1/6 345/1/6 363/1/6
f 322/2/6 346/2/6 364/2/6
f 363/1/6 322/1/6 364/1/6
f 346/1/6 347/1/6 365/1/6
f 364/2/6 346/2/6 365/2/6
f 347/1/6 348/1/6 365/1/6
f 348/1/6 349/1/6 365/1/6
f 349/2/6 350/2/6 366/2/6
f 365/1/6 349/1/6 366/1/6
f 350/1/6 326/1/6 367/1/6
f 366/2/6 350/2/6 367/2/6
f 367/1/6 326/1/6 368/1/6
f 352/2/6 353/2/6 369/2/6
f 351/1/6 352/1/6 369/1/6
f 353/1/6 330/1/6 370/1/6
f 369/2/6 353/2/6 370/2/6
f 370/1/6 330/1/6 371/1/6
f 332/2/6 333/2/6 372/2/6
f 331/1/6 332/1/6 372/1/6
f 333/1/6 334/1/6 373/1/6
f 372/2/6 333/2/6 373/2/6
f 334/1/6 335/1/6 373/1/6
f 373/1/6 335/1/6 374/1/6
f 335/2/6 336/2/6 375/2/6
f 374/1/6 335/1/6 375/1/6
f 336/1/6 354/1/6 376/1/6
f 375/2/6 336/2/6 376/2/6
f 354/2/6 355/2/6 377/2/6
f 376/1/6 354/1/6 377/1/6
f 356/1/6 357/1/6 378/1/6
f 377/2/6 355/2/6 378/2/6
f 355/1/6 356/1/6 378/1/6
f 359/1/6 360/1/6 379/1/6
f 358/1/6 359/1/6 379/1/6
f 360/3/6 361/3/6 380/3/6
f 379/1/6 360/1/6 380/1/6
f 361/1/6 362/1/6 381/1/6
f 380/3/6 361/3/6 381/3/6
f 362/1/6 363/1/6 381/1/6
f 381/1/6 363/1/6 382/1/6
f 363/2/6 364/2/6 383/2/6
f 382/1/6 363/1/6 383/1/6
f 365/1/6 366/1/6 384/1/6
f 383/2/6 364/2/6 384/2/6
f 366/1/6 367/1/6 384/1/6
f 364/1/6 365/1/6 384/1/6
f 367/2/6 368/2/6 385/2/6
f 384/1/6 367/1/6 385/1/6
f 368/1/6 326/1/6 386/1/6
f 385/2/6 368/2/6 386/2/6
f 386/1/6 326/1/6 387/1/6
f 387/1/6 326/1/6 388/1/6
f 326/2/6 327/2/6 389/2/6
f 388/1/6 326/1/6 389/1/6
f 327/1/6 351/1/6 390/1/6
f 389/2/6 327/2/6 390/2/6
f 351/1/6 369/1/6 390/1/6
f 369/1/6 370/1/6 390/1/6
f 370/2/6 371/2/6 391/2/6
f 390/1/6 370/1/6 391/1/6
f 371/1/6 330/1/6 392/1/6
f 391/2/6 371/2/6 392/2/6
f 392/1/6 330/1/6 393/1/6
f 376/2/6 377/2/6 394/2/6
f 377/1/6 378/1/6 395/1/6
f 394/2/6 377/2/6 395/2/6
f 378/1/6 357/1/6 396/1/6
f 395/1/6 378/1/6 396/1/6
f 357/2/6 358/2/6 397/2/6
f 396/1/6 357/1/6 397/1/6
f 358/1/6 379/1/6 398/1/6
f 397/2/6 358/2/6 398/2/6
f 398/1/6 379/1/6 399/1/6
f 379/3/6 380/3/6 400/3/6
f 399/1/6 379/1/6 400/1/6
f 380/1/6 381/1/6 401/1/6
f 400/3/6 380/3/6 401/3/6
f 381/1/6 382/1/6 401/1/6
f 386/2/6 387/2/6 402/2/6
f 383/1/6 384/1/6 402/1/6
f 385/1/6 386/1/6 402/1/6
f 384/1/6 385/1/6 402/1/6
f 387/1/6 388/1/6 403/1/6
f 402/2/6 387/2/6 403/2/6
f 403/1/6 388/1/6 404/1/6
f 373/2/6 374/2/6 405/2/6
f 372/1/6 373/1/6 405/1/6
f 374/1/6 375/1/6 406/1/6
f 405/2/6 374/2/6 406/2/6
f 375/1/6 376/1/6 406/1/6
f 406/1/6 376/1/6 407/1/6
f 407/1/6 376/1/6 408/1/6
f 376/2/6 394/2/6 409/2/6
f 408/1/6 376/1/6 409/1/6
f 395/1/6 396/1/6 410/1/6
f 409/2/6 394/2/6 410/2/6
f 394/1/6 395/1/6 410/1/6
f 410/1/6 396/1/6 411/1/6
f 411/1/6 396/1/6 412/1/6
f 396/2/6 397/2/6 413/2/6
f 412/1/6 396/1/6 413/1/6
f 398/1/6 399/1/6 414/1/6
f 413/2/6 397/2/6 414/2/6
f 397/1/6 398/1/6 414/1/6
f 399/3/6 400/3/6 415/3/6
f 414/1/6 399/1/6 415/1/6
f 400/1/6 401/1/6 416/1/6
f 415/3/6 400/3/6 416/3/6
f 401/1/6 382/1/6 417/1/6
f 416/1/6 401/1/6 417/1/6
f 382/2/6 383/2/6 418/2/6
f 417/1/6 382/1/6 418/1/6
f 402/1/6 403/1/6 419/1/6
f 418/2/6 383/2/6 419/2/6
f 383/1/6 402/1/6 419/1/6
f 403/2/6 404/2/6 420/2/6
f 419/1/6 403/1/6 420/1/6
f 404/1/6 388/1/6 421/1/6
f 420/2/6 404/2/6 421/2/6
f 388/2/6 389/2/6 422/2/6
f 421/1/6 388/1/6 422/1/6
f 390/1/6 391/1/6 423/1/6
f 389/1/6 390/1/6 423/1/6
f 392/2/6 393/2/6 423/2/6
f 391/1/6 392/1/6 423/1/6
f 393/1/6 330/1/6 424/1/6
f 423/2/6 393/2/6 424/2/6
f 424/1/6 330/1/6 425/1/6
f 407/1/6 408/1/6 426/1/6
f 408/2/6 409/2/6 427/2/6
f 426/1/6 408/1/6 427/1/6
f 409/1/6 410/1/6 428/1/6
f 427/2/6 409/2/6 428/2/6
f 410/2/6 411/2/6 429/2/6
f 428/1/6 410/1/6 429/1/6
f 411/1/6 412/1/6 430/1/6
f 429/2/6 411/2/6 430/2/6
f 430/1/6 412/1/6 431/1/6
f 431/1/6 412/1/6 432/1/6
f 412/2/6 413/2/6 433/2/6
f 432/1/6 412/1/6 433/1/6
f 416/1/6 417/1/6 434/1/6
f 433/2/6 413/2/6 434/2/6
f 415/1/6 416/1/6 434/1/6
f 413/1/6 414/1/6 434/1/6
f 414/1/6 415/1/6 434/1/6
f 434/1/6 417/1/6 435/1/6
f 417/2/6 418/2/6 436/2/6
f 435/1/6 417/1/6 436/1/6
f 420/1/6 421/1/6 437/1/6
f 436/2/6 418/2/6 437/2/6
f 419/1/6 420/1/6 437/1/6
f 418/1/6 419/1/6 437/1/6
f 421/2/6 422/2/6 438/2/6
f 437/1/6 421/1/6 438/1/6
f 422/2/6 389/2/6 439/2/6
f 438/2/6 422/2/6 439/2/6
f 424/2/6 425/2/6 440/2/6
f 423/1/6 424/1/6 440/1/6
f 425/1/6 330/1/6 441/1/6
f 440/2/6 425/2/6 441/2/6
f 441/1/6 330/1/6 442/1/6
f 406/2/6 407/2/6 443/2/6
f 405/1/6 406/1/6 443/1/6
f 407/1/6 426/1/6 444/1/6
f 443/2/6 407/2/6 444/2/6
f 444/1/6 426/1/6 445/1/6
f 445/1/6 426/1/6 446/1/6
f 426/2/6 427/2/6 447/2/6
f 446/1/6 426/1/6 447/1/6
f 427/1/6 428/1/6 448/1/6
f 447/2/6 427/2/6 448/2/6
f 428/1/6 429/1/6 448/1/6
f 430/3/6 431/3/6 449/3/6
f 448/1/6 429/1/6 449/1/6
f 429/3/6 430/3/6 449/3/6
f 449/3/6 431/3/6 450/3/6
f 450/3/6 431/3/6 451/3/6
f 431/1/6 432/1/6 452/1/6
f 451/3/6 431/3/6 452/3/6
f 452/1/6 432/1/6 453/1/6
f 432/2/6 433/2/6 454/2/6
f 453/1/6 432/1/6 454/1/6
f 434/1/6 435/1/6 455/1/6
f 454/2/6 433/2/6 455/2/6
f 433/1/6 434/1/6 455/1/6
f 455/1/6 435/1/6 456/1/6
f 435/2/6 436/2/6 457/2/6
f 456/1/6 435/1/6 457/1/6
f 437/1/6 438/1/6 458/1/6
f 457/2/6 436/2/6 458/2/6
f 436/1/6 437/1/6 458/1/6
f 438/1/6 439/1/6 458/1/6
f 458/1/6 439/1/6 459/1/6
f 439/2/6 389/2/6 460/2/6
f 459/1/6 439/1/6 460/1/6
f 389/1/6 423/1/6 461/1/6
f 460/2/6 389/2/6 461/2/6
f 423/1/6 440/1/6 461/1/6
f 440/1/6 441/1/6 461/1/6
f 461/1/6 441/1/6 462/1/6
f 441/2/6 442/2/6 463/2/6
f 462/1/6 441/1/6 463/1/6
f 442/1/6 330/1/6 464/1/6
f 463/2/6 442/2/6 464/2/6
f 464/1/6 330/1/6 465/1/6
f 311/1/6 331/1/6 466/1/6
f 331/1/6 372/1/6 466/1/6
f 372/1/6 405/1/6 466/1/6
f 405/1/6 443/1/6 466/1/6
f 443/1/6 444/1/6 466/1/6
f 444/2/6 445/2/6 467/2/6
f 466/1/6 444/1/6 467/1/6
f 445/1/6 446/1/6 468/1/6
f 467/2/6 445/2/6 468/2/6
f 447/3/6 448/3/6 469/3/6
f 468/1/6 446/1/6 469/1/6
f 448/3/6 449/3/6 469/3/6
f 446/3/6 447/3/6 469/3/6
f 469/3/6 449/3/6 470/3/6
f 470/3/6 449/3/6 471/3/6
f 449/1/6 450/1/6 472/1/6
f 471/3/6 449/3/6 472/3/6
f 452/1/6 453/1/6 473/1/6
f 451/1/6 452/1/6 473/1/6
f 453/2/6 454/2/6 474/2/6
f 473/1/6 453/1/6 474/1/6
f 455/1/6 456/1/6 475/1/6
f 474/2/6 454/2/6 475/2/6
f 454/1/6 455/1/6 475/1/6
f 460/1/6 461/1/6 476/1/6
f 461/2/6 462/2/6 476/2/6
f 463/1/6 464/1/6 477/1/6
f 476/2/6 462/2/6 477/2/6
f 462/1/6 463/1/6 477/1/6
f 477/1/6 464/1/6 478/1/6
f 464/2/6 465/2/6 479/2/6
f 478/1/6 464/1/6 479/1/6
f 479/2/6 465/2/6 480/2/6
f 311/1/6 466/1/6 481/1/6
f 467/3/6 468/3/6 482/3/6
f 481/1/6 466/1/6 482/1/6
f 468/3/6 469/3/6 482/3/6
f 466/3/6 467/3/6 482/3/6
f 482/3/6 469/3/6 483/3/6
f 469/1/6 470/1/6 484/1/6
f 483/3/6 469/3/6 484/3/6
f 470/2/6 471/2/6 485/2/6
f 484/1/6 470/1/6 485/1/6
f 471/1/6 472/1/6 486/1/6
f 485/2/6 471/2/6 486/2/6
f 451/1/6 473/1/6 487/1/6
f 473/2/6 474/2/6 488/2/6
f 487/1/6 473/1/6 488/1/6
f 474/1/6 475/1/6 489/1/6
f 488/2/6 474/2/6 489/2/6
f 475/1/6 456/1/6 490/1/6
f 489/1/6 475/1/6 490/1/6
f 456/2/6 457/2/6 491/2/6
f 490/1/6 456/1/6 491/1/6
f 457/1/6 458/1/6 492/1/6
f 491/2/6 457/2/6 492/2/6
f 458/1/6 459/1/6 492/1/6
f 492/1/6 459/1/6 493/1/6
f 459/2/6 460/2/6 494/2/6
f 493/1/6 459/1/6 494/1/6
f 460/1/6 476/1/6 495/1/6
f 494/2/6 460/2/6 495/2/6
f 476/1/6 477/1/6 495/1/6
f 477/2/6 478/2/6 496/2/6
f 495/1/6 477/1/6 496/1/6
f 479/1/6 480/1/6 497/1/6
f 496/2/6 478/2/6 497/2/6
f 478/1/6 479/1/6 497/1/6
f 497/1/6 480/1/6 498/1/6
f 311/1/6 481/1/6 499/1/6
f 481/3/6 482/3/6 500/3/6
f 499/1/6 481/1/6 500/1/6
f 482/1/6 483/1/6 501/1/6
f 500/3/6 482/3/6 501/3/6
f 483/2/6 484/2/6 502/2/6
f 501/1/6 483/1/6 502/1/6
f 484/2/6 485/2/6 502/2/6
f 485/1/6 486/1/6 503/1/6
f 502/2/6 485/2/6 503/2/6
f 472/1/6 450/1/6 504/1/6
f 503/1/6 486/1/6 504/1/6
f 486/1/6 472/1/6 504/1/6
f 450/2/6 451/2/6 504/2/6
f 451/1/6 487/1/6 505/1/6
f 504/2/6 451/2/6 505/2/6
f 487/2/6 488/2/6 506/2/6
f 505/1/6 487/1/6 506/1/6
f 489/1/6 490/1/6 507/1/6
f 506/2/6 488/2/6 507/2/6
f 488/1/6 489/1/6 507/1/6
f 490/2/6 491/2/6 508/2/6
f 507/1/6 490/1/6 508/1/6
f 492/1/6 493/1/6 509/1/6
f 508/2/6 491/2/6 509/2/6
f 491/1/6 492/1/6 509/1/6
f 493/2/6 494/2/6 510/2/6
f 509/1/6 493/1/6 510/1/6
f 494/1/6 495/1/6 511/1/6
f 510/2/6 494/2/6 511/2/6
f 496/1/6 497/1/6 511/1/6
f 495/1/6 496/1/6 511/1/6
f 497/2/6 498/2/6 512/2/6
f 511/1/6 497/1/6 512/1/6
f 498/1/6 480/1/6 513/1/6
f 512/2/6 498/2/6 513/2/6
f 513/1/6 480/1/6 514/1/6
