# MagicaVoxel @ Ephtracy

# group
o 

# material
mtllib stadium-large-complex-21.mtl
usemtl palette

# normals
vn -1 0 0
vn 1 0 0
vn 0 0 1
vn 0 0 -1
vn 0 -1 0
vn 0 1 0

# texcoords
vt 0.970703 0.5
vt 0.974609 0.5
vt 0.978516 0.5
vt 0.982422 0.5

# verts
v 11.8 0 5
v 11.8 0 4.4
v 11.8 0 4.2
v 11.8 0 4.1
v 11.8 0 4
v 11.8 0.1 4.6
v 11.8 0.1 4.4
v 11.8 0.1 4.2
v 11.8 0.1 4.1
v 11.8 0.1 4
v 11.8 0.2 4.7
v 11.8 0.2 4.6
v 11.8 0.2 4.5
v 11.8 0.2 4.4
v 11.8 0.2 4.3
v 11.8 0.2 4.2
v 11.8 0.2 4.1
v 11.8 0.3 4.9
v 11.8 0.3 4.7
v 11.8 0.3 4.5
v 11.8 0.4 5
v 11.8 0.4 4.9
v 11.8 0.4 4.7
v 11.8 0.4 4.4
v 11.8 0.4 4.3
v 11.8 0.4 4.2
v 11.8 0.5 5
v 11.8 0.5 4.9
v 11.8 0.5 4.8
v 11.8 0.5 4.7
v 11.8 0.5 4.5
v 11.8 0.5 4.4
v 11.8 0.5 4.3
v 11.8 0.6 4.6
v 11.8 0.6 4.5
v 11.8 0.6 4.4
v 11.8 0.7 4.8
v 11.8 0.7 4.7
v 11.8 0.7 4.6
v 11.8 0.7 4.5
v 11.8 0.8 4.8
v 11.8 0.8 4.7
v 11.8 0.8 4.6
v 11.8 0.8 4.5
v 11.8 0.9 4.6
v 11.8 0.9 4.5
v 11.8 0.9 4.4
v 11.8 1 4.9
v 11.8 1 4.8
v 11.8 1 4.7
v 11.8 1 4.5
v 11.8 1 4.4
v 11.8 1 4.3
v 11.8 1.1 5
v 11.8 1.1 4.9
v 11.8 1.1 4.8
v 11.8 1.2 5
v 11.8 1.2 4.9
v 11.8 1.2 4.4
v 11.8 1.2 4.3
v 11.8 1.2 4.2
v 11.8 1.3 4.3
v 11.8 1.3 4.2
v 11.8 1.3 4.1
v 11.8 1.5 4.2
v 11.8 1.5 4.1
v 11.8 1.5 4
v 11.8 1.6 4.1
v 11.8 1.6 4
v 11.8 2 5
v 11.8 2 4.9
v 11.8 2.1 5
v 11.8 2.1 4.9
v 11.8 2.2 5
v 11.8 2.2 4.9
v 11.8 2.3 5
v 11.8 2.3 4.9
v 11.8 2.4 5
v 11.8 2.4 4.9
v 11.8 2.5 5
v 11.8 2.5 4.9
v 11.8 2.6 5
v 11.8 2.6 4.9
v 11.8 2.7 5
v 11.8 2.7 4.9
v 11.8 2.9 5
v 11.8 2.9 4.9
v 11.8 3 5
v 11.8 3 4.9
v 11.8 3.6 4.3
v 11.8 3.6 4
v 11.8 3.7 5
v 11.8 3.7 4.3
v 11.8 3.7 4
v 11.8 3.8 5
v 11.8 3.8 4.3
v 11.8 4.1 5
v 11.8 4.1 4.9
v 11.8 4.2 5
v 11.8 4.2 4.9
v 11.8 4.2 4.8
v 11.8 4.2 4.7
v 11.8 4.3 5
v 11.8 4.3 4.9
v 11.8 4.3 4.8
v 11.8 4.3 4.7
v 11.8 4.4 5
v 11.8 4.4 4.9
v 11.8 4.4 4.8
v 11.8 4.4 4.7
v 11.8 4.4 4.6
v 11.8 4.5 4.9
v 11.8 4.5 4.8
v 11.8 4.5 4.7
v 11.8 4.5 4.6
v 11.8 4.5 4.5
v 11.8 4.6 4.8
v 11.8 4.6 4.7
v 11.8 4.6 4.6
v 11.8 4.6 4.5
v 11.8 4.6 4.4
v 11.8 4.7 4.6
v 11.8 4.7 4.5
v 11.8 4.8 4.7
v 11.8 4.8 4.6
v 11.8 4.8 4.5
v 11.8 4.8 4.4
v 11.8 4.8 4.3
v 11.8 4.9 5
v 11.8 4.9 4.9
v 11.8 4.9 4.5
v 11.8 4.9 4.4
v 11.8 4.9 4.3
v 11.8 4.9 4.2
v 11.8 5 5
v 11.8 5 4.9
v 11.8 5 4.6
v 11.8 5 4.5
v 11.8 5 4.4
v 11.8 5 4.3
v 11.8 5 4.2
v 11.8 5 4.1
v 11.8 5.1 4.1
v 11.8 5.1 4
v 11.8 5.2 4.2
v 11.8 5.2 4.1
v 11.8 5.2 4
v 11.8 5.4 4.5
v 11.8 5.4 4.4
v 11.8 5.4 4.3
v 11.8 5.4 4.1
v 11.8 5.5 4.6
v 11.8 5.5 4.4
v 11.8 5.5 4.3
v 11.8 5.6 5
v 11.8 5.6 4.6
v 11.8 5.6 4.5
v 11.8 5.6 4.3
v 11.8 5.6 4.2
v 11.8 5.6 4.1
v 11.8 5.6 4
v 11.8 5.7 4.8
v 11.8 5.7 4.5
v 11.8 5.7 4.1
v 11.8 5.7 4
v 11.8 5.8 5
v 11.8 5.8 4.8
v 11.8 5.8 4.3
v 11.8 5.8 4.2
v 11.8 5.8 4.1
v 11.8 5.9 4.1
v 11.8 5.9 4
v 11.8 6 4.5
v 11.8 6 4.4
v 11.8 6 4.1
v 11.8 6 4
v 11.8 6.1 4.6
v 11.8 6.1 4.5
v 11.8 6.1 4.4
v 11.8 6.1 4.2
v 11.8 6.1 4.1
v 11.8 6.1 4
v 11.8 6.2 4.8
v 11.8 6.2 4.6
v 11.8 6.2 4.5
v 11.8 6.3 4.9
v 11.8 6.3 4.8
v 11.8 6.3 4.6
v 11.8 6.4 5
v 11.8 6.4 4.9
v 11.8 6.4 4.8
v 11.8 6.5 5
v 11.8 6.5 4.9
v 11.8 6.5 4.1
v 11.8 6.5 4
v 11.8 6.6 4.1
v 11.8 6.6 4
v 11.8 6.9 4.2
v 11.8 6.9 4.1
v 11.8 6.9 4
v 11.8 7.7 5
v 11.8 7.7 4.9
v 11.8 7.7 4.3
v 11.8 7.7 4.2
v 11.8 7.7 4.1
v 11.8 7.7 4
v 11.8 7.8 5
v 11.8 7.8 4.9
v 11.8 7.9 4.4
v 11.8 7.9 4.3
v 11.8 7.9 4.2
v 11.8 7.9 4.1
v 11.8 7.9 4
v 11.8 8 5
v 11.8 8 4.9
v 11.8 8 4.2
v 11.8 8 4.1
v 11.8 8.1 5
v 11.8 8.1 4.9
v 11.8 8.3 5
v 11.8 8.3 4.9
v 11.8 8.4 5
v 11.8 8.4 4.9
v 11.8 8.4 4.5
v 11.8 8.4 4.4
v 11.8 8.4 4.3
v 11.8 8.6 5
v 11.8 8.6 4.9
v 11.8 8.6 4.6
v 11.8 8.6 4.5
v 11.8 8.6 4.4
v 11.8 8.7 5
v 11.8 8.7 4.9
v 11.8 8.9 5
v 11.8 8.9 4.9
v 11.8 9 5
v 11.8 9 4.9
v 11.8 9 4.6
v 11.8 9 4.5
v 11.8 9.1 4.9
v 11.8 9.1 4.7
v 11.8 9.1 4.6
v 11.8 9.1 4.4
v 11.8 9.2 5
v 11.8 9.2 4.9
v 11.8 9.2 4.8
v 11.8 9.2 4.7
v 11.8 9.2 4.4
v 11.8 9.3 4.9
v 11.8 9.3 4.8
v 11.8 9.4 4.9
v 11.8 9.4 4.8
v 11.8 9.4 4.7
v 11.8 9.4 4.3
v 11.8 9.5 4.7
v 11.8 9.5 4.3
v 11.8 9.5 4
v 11.8 9.6 4.3
v 11.8 9.6 4
v 11.8 9.8 5
v 11.8 9.8 4.9
v 11.8 9.9 5
v 11.8 9.9 4.9
v 11.8 9.9 4.8
v 11.8 9.9 4.7
v 11.8 10 4.9
v 11.8 10 4.8
v 11.8 10 4.6
v 11.8 10.1 4.8
v 11.8 10.1 4.6
v 11.8 10.1 4.5
v 11.8 10.2 4.6
v 11.8 10.2 4.5
v 11.8 10.2 4.4
v 11.8 10.3 5
v 11.8 10.3 4.9
v 11.8 10.3 4.8
v 11.8 10.3 4.5
v 11.8 10.3 4.4
v 11.8 10.3 4.2
v 11.8 10.3 4.1
v 11.8 10.3 4
v 11.8 10.4 4.4
v 11.8 10.4 4.3
v 11.8 10.4 4.2
v 11.8 10.4 4.1
v 11.8 10.5 4.9
v 11.8 10.5 4.3
v 11.8 10.5 4.2
v 11.8 10.5 4.1
v 11.8 10.5 4
v 11.8 10.6 4.9
v 11.8 10.6 4.4
v 11.8 10.6 4.3
v 11.8 10.6 4.2
v 11.8 10.6 4.1
v 11.8 10.6 4
v 11.8 10.7 5
v 11.8 10.7 4.9
v 11.8 10.8 4.5
v 11.8 10.8 4.4
v 11.8 10.8 4.3
v 11.8 10.8 4.1
v 11.8 10.8 4
v 11.8 10.9 5
v 11.8 10.9 4.9
v 11.8 10.9 4.6
v 11.8 10.9 4.5
v 11.8 10.9 4.4
v 11.8 10.9 4.1
v 11.8 10.9 4
v 11.8 11 5
v 11.8 11 4.9
v 11.8 11 4.7
v 11.8 11 4.6
v 11.8 11 4.5
v 11.8 11.1 4.8
v 11.8 11.1 4.7
v 11.8 11.1 4.6
v 11.8 11.2 5
v 11.8 11.2 4.8
v 11.8 11.2 4.7
v 11.8 11.2 4.6
v 11.8 11.3 4.9
v 11.8 11.3 4.6
v 11.8 11.3 4.1
v 11.8 11.4 5
v 11.8 11.4 4.9
v 11.8 11.4 4.6
v 11.8 11.4 4.1
v 11.8 11.4 4
v 11.8 11.5 4.1
v 11.8 11.5 4
v 11.8 11.6 5
v 11.8 11.6 4.7
v 11.8 11.7 5
v 11.8 11.7 4.7
v 11.8 11.7 4.3
v 11.8 11.8 4.7
v 11.8 11.8 4.3
v 11.8 11.8 4
v 11.8 11.9 4.5
v 11.8 11.9 4.3
v 11.8 11.9 4.2
v 11.8 11.9 4
v 11.8 12 4.8
v 11.8 12 4.5
v 11.8 12 4.2
v 11.8 12.1 5
v 11.8 12.1 4.8
v 11.8 12.1 4.5
v 11.8 12.2 5
v 11.8 12.2 4.8
v 11.8 12.3 4.9
v 11.8 12.3 4.6
v 11.8 12.4 4.9
v 11.8 12.4 4.7
v 11.8 12.4 4.6
v 11.8 12.4 4
v 11.8 12.5 5
v 11.8 12.5 4.7
v 11.8 12.5 4.2
v 11.8 12.6 4.9
v 11.8 12.6 4.7
v 11.8 12.6 4.2
v 11.8 12.6 4
v 11.8 12.7 5
v 11.8 12.7 4.9
v 11.8 12.9 5
v 11.8 12.9 4.9
v 11.8 13 4.9
v 11.8 13 4.7
v 11.8 13 4.2
v 11.8 13 4
v 11.8 13.1 5
v 11.8 13.1 4.7
v 11.8 13.1 4.2
v 11.8 13.2 4.9
v 11.8 13.2 4.7
v 11.8 13.2 4.6
v 11.8 13.2 4
v 11.8 13.3 4.9
v 11.8 13.3 4.6
v 11.8 13.4 5
v 11.8 13.4 4.8
v 11.8 13.5 5
v 11.8 13.5 4.8
v 11.8 13.5 4.5
v 11.8 13.6 4.8
v 11.8 13.6 4.5
v 11.8 13.6 4.2
v 11.8 13.7 4.5
v 11.8 13.7 4.3
v 11.8 13.7 4.2
v 11.8 13.7 4
v 11.8 13.8 4.7
v 11.8 13.8 4.3
v 11.8 13.8 4
v 11.8 13.9 5
v 11.8 13.9 4.7
v 11.8 13.9 4.3
v 11.8 14 5
v 11.8 14 4.7
v 11.8 14.1 4.1
v 11.8 14.1 4
v 11.8 14.2 5
v 11.8 14.2 4.9
v 11.8 14.2 4.6
v 11.8 14.2 4.1
v 11.8 14.2 4
v 11.8 14.3 4.9
v 11.8 14.3 4.6
v 11.8 14.3 4.1
v 11.8 14.4 5
v 11.8 14.4 4.8
v 11.8 14.4 4.7
v 11.8 14.4 4.6
v 11.8 14.5 4.8
v 11.8 14.5 4.7
v 11.8 14.5 4.6
v 11.8 14.6 5
v 11.8 14.6 4.9
v 11.8 14.6 4.7
v 11.8 14.6 4.6
v 11.8 14.6 4.5
v 11.8 14.7 5
v 11.8 14.7 4.9
v 11.8 14.7 4.6
v 11.8 14.7 4.5
v 11.8 14.7 4.4
v 11.8 14.7 4.1
v 11.8 14.7 4
v 11.8 14.8 4.5
v 11.8 14.8 4.4
v 11.8 14.8 4.3
v 11.8 14.8 4.1
v 11.8 14.8 4
v 11.8 14.9 5
v 11.8 14.9 4.9
v 11.8 15 4.9
v 11.8 15 4.4
v 11.8 15 4.3
v 11.8 15 4.2
v 11.8 15 4.1
v 11.8 15 4
v 11.8 15.1 4.9
v 11.8 15.1 4.3
v 11.8 15.1 4.2
v 11.8 15.1 4.1
v 11.8 15.1 4
v 11.8 15.2 4.4
v 11.8 15.2 4.3
v 11.8 15.2 4.2
v 11.8 15.2 4.1
v 11.8 15.3 5
v 11.8 15.3 4.9
v 11.8 15.3 4.8
v 11.8 15.3 4.5
v 11.8 15.3 4.4
v 11.8 15.3 4.2
v 11.8 15.3 4.1
v 11.8 15.3 4
v 11.8 15.4 4.6
v 11.8 15.4 4.5
v 11.8 15.4 4.4
v 11.8 15.5 4.8
v 11.8 15.5 4.6
v 11.8 15.5 4.5
v 11.8 15.6 4.9
v 11.8 15.6 4.8
v 11.8 15.6 4.6
v 11.8 15.7 5
v 11.8 15.7 4.9
v 11.8 15.7 4.8
v 11.8 15.7 4.7
v 11.8 15.8 5
v 11.8 15.8 4.9
v 11.8 16 4.3
v 11.8 16 4
v 11.8 16.1 4.7
v 11.8 16.1 4.3
v 11.8 16.1 4
v 11.8 16.2 4.9
v 11.8 16.2 4.8
v 11.8 16.2 4.7
v 11.8 16.2 4.3
v 11.8 16.3 4.9
v 11.8 16.3 4.8
v 11.8 16.4 5
v 11.8 16.4 4.9
v 11.8 16.4 4.8
v 11.8 16.4 4.7
v 11.8 16.4 4.4
v 11.8 16.5 4.9
v 11.8 16.5 4.7
v 11.8 16.5 4.6
v 11.8 16.5 4.4
v 11.8 16.6 5
v 11.8 16.6 4.6
v 11.8 16.6 4.5
v 11.8 17 4.6
v 11.8 17 4.5
v 11.8 17 4.4
v 11.8 17.2 4.5
v 11.8 17.2 4.4
v 11.8 17.2 4.3
v 11.8 17.6 4.2
v 11.8 17.6 4.1
v 11.8 17.7 4.4
v 11.8 17.7 4.3
v 11.8 17.7 4.2
v 11.8 17.7 4.1
v 11.8 17.7 4
v 11.8 17.8 5
v 11.8 17.8 4.9
v 11.8 17.9 5
v 11.8 17.9 4.9
v 11.8 17.9 4.3
v 11.8 17.9 4.2
v 11.8 17.9 4.1
v 11.8 17.9 4
v 11.8 18.7 4.2
v 11.8 18.7 4.1
v 11.8 18.7 4
v 11.8 19 5
v 11.8 19 4.1
v 11.8 19 4
v 12.8 0 5
v 12.8 0 4
v 12.8 0.6 5
v 12.8 0.6 4.9
v 12.8 0.7 5
v 12.8 0.7 4.9
v 12.8 1.5 4.1
v 12.8 1.5 4
v 12.8 1.6 4.1
v 12.8 1.6 4
v 12.8 2 4.4
v 12.8 2 4.3
v 12.8 2 4.1
v 12.8 2 4
v 12.8 2.1 4.4
v 12.8 2.1 4.3
v 12.8 2.1 4.1
v 12.8 2.1 4
v 12.8 2.3 4.4
v 12.8 2.3 4.3
v 12.8 2.3 4.1
v 12.8 2.3 4
v 12.8 2.4 4.4
v 12.8 2.4 4.3
v 12.8 2.4 4.1
v 12.8 2.4 4
v 12.8 2.5 4.5
v 12.8 2.5 4.1
v 12.8 2.5 4
v 12.8 2.6 5
v 12.8 2.6 4.9
v 12.8 2.6 4.8
v 12.8 2.6 4.5
v 12.8 2.6 4.4
v 12.8 2.6 4.3
v 12.8 2.6 4.1
v 12.8 2.6 4
v 12.8 2.7 5
v 12.8 2.7 4.9
v 12.8 2.7 4.8
v 12.8 2.7 4.5
v 12.8 2.7 4.4
v 12.8 2.7 4.3
v 12.8 2.7 4.1
v 12.8 2.7 4
v 12.8 2.8 5
v 12.8 2.8 4.8
v 12.8 2.9 5
v 12.8 2.9 4.9
v 12.8 2.9 4.7
v 12.8 2.9 4.6
v 12.8 2.9 4.4
v 12.8 2.9 4.3
v 12.8 2.9 4.1
v 12.8 2.9 4
v 12.8 3 5
v 12.8 3 4.9
v 12.8 3 4.7
v 12.8 3 4.6
v 12.8 3 4.4
v 12.8 3 4.3
v 12.8 3 4.1
v 12.8 3 4
v 12.8 3.1 5
v 12.8 3.1 4.9
v 12.8 3.2 5
v 12.8 3.2 4.9
v 12.8 3.2 4.8
v 12.8 3.3 4.9
v 12.8 3.3 4.8
v 12.8 3.3 4.6
v 12.8 3.4 4.8
v 12.8 3.4 4.6
v 12.8 3.4 4.5
v 12.8 3.5 4.6
v 12.8 3.5 4.5
v 12.8 3.5 4.4
v 12.8 3.5 4.1
v 12.8 3.5 4
v 12.8 3.6 4.5
v 12.8 3.6 4.4
v 12.8 3.6 4.3
v 12.8 3.6 4.1
v 12.8 3.6 4
v 12.8 3.7 4.4
v 12.8 3.7 4.3
v 12.8 3.7 4.1
v 12.8 3.8 4.3
v 12.8 3.8 4.1
v 12.8 3.8 4
v 12.8 3.9 4.1
v 12.8 3.9 4
v 12.8 5.3 4.1
v 12.8 5.3 4
v 12.8 5.5 4.1
v 12.8 5.5 4
v 12.8 6 4.1
v 12.8 6 4
v 12.8 6.1 5
v 12.8 6.1 4.1
v 12.8 6.2 5
v 12.8 6.2 4
v 12.8 6.6 4.1
v 12.8 6.6 4
v 12.8 6.7 4.7
v 12.8 6.7 4.1
v 12.8 6.7 4
v 12.8 6.8 5
v 12.8 6.8 4.7
v 12.8 6.8 4.1
v 12.8 6.9 5
v 12.8 6.9 4.7
v 12.8 8 4.4
v 12.8 8 4.3
v 12.8 8 4.1
v 12.8 8 4
v 12.8 8.1 5
v 12.8 8.1 4.4
v 12.8 8.1 4.3
v 12.8 8.1 4.2
v 12.8 8.1 4.1
v 12.8 8.1 4
v 12.8 8.2 5
v 12.8 8.2 4.2
v 12.8 8.2 4
v 12.8 8.3 4.4
v 12.8 8.3 4.3
v 12.8 8.3 4.2
v 12.8 8.3 4.1
v 12.8 8.3 4
v 12.8 8.4 4.4
v 12.8 8.4 4.3
v 12.8 8.4 4.1
v 12.8 8.4 4
v 12.8 8.6 5
v 12.8 8.6 4.9
v 12.8 8.6 4.7
v 12.8 8.6 4.6
v 12.8 8.6 4.4
v 12.8 8.6 4.3
v 12.8 8.6 4.1
v 12.8 8.6 4
v 12.8 8.7 5
v 12.8 8.7 4.9
v 12.8 8.7 4.7
v 12.8 8.7 4.6
v 12.8 8.7 4.4
v 12.8 8.7 4.3
v 12.8 8.7 4.1
v 12.8 8.7 4
v 12.8 8.9 5
v 12.8 8.9 4.9
v 12.8 8.9 4.7
v 12.8 8.9 4.6
v 12.8 8.9 4.4
v 12.8 8.9 4.3
v 12.8 8.9 4.1
v 12.8 8.9 4
v 12.8 9 5
v 12.8 9 4.9
v 12.8 9 4.7
v 12.8 9 4.6
v 12.8 9 4.4
v 12.8 9 4.3
v 12.8 9 4.1
v 12.8 9 4
v 12.8 10.1 5
v 12.8 10.1 4.9
v 12.8 10.3 5
v 12.8 10.3 4.9
v 12.8 10.5 4.1
v 12.8 10.5 4
v 12.8 10.6 4.1
v 12.8 10.6 4
v 12.8 10.7 5
v 12.8 10.7 4.9
v 12.8 10.8 5
v 12.8 10.8 4.9
v 12.8 10.8 4.3
v 12.8 10.9 4.9
v 12.8 10.9 4.4
v 12.8 10.9 4.3
v 12.8 10.9 4
v 12.8 11 4.4
v 12.8 11 4
v 12.8 11.3 5
v 12.8 11.3 4.9
v 12.8 11.3 4.1
v 12.8 11.3 4
v 12.8 11.4 5
v 12.8 11.4 4.9
v 12.8 11.4 4.4
v 12.8 11.4 4.1
v 12.8 11.4 4
v 12.8 11.5 4.7
v 12.8 11.5 4.4
v 12.8 11.5 4.1
v 12.8 11.6 5
v 12.8 11.6 4.7
v 12.8 11.6 4.4
v 12.8 11.7 4.9
v 12.8 11.7 4.7
v 12.8 11.8 5
v 12.8 11.8 4.9
v 12.8 12.4 5
v 12.8 12.4 4.9
v 12.8 12.5 5
v 12.8 12.5 4.9
v 12.8 13.1 5
v 12.8 13.1 4.9
v 12.8 13.2 5
v 12.8 13.2 4.9
v 12.8 13.8 5
v 12.8 13.8 4.9
v 12.8 13.9 4.9
v 12.8 13.9 4.7
v 12.8 14 5
v 12.8 14 4.7
v 12.8 14 4.4
v 12.8 14.1 4.7
v 12.8 14.1 4.4
v 12.8 14.1 4.1
v 12.8 14.2 5
v 12.8 14.2 4.9
v 12.8 14.2 4.4
v 12.8 14.2 4.1
v 12.8 14.2 4
v 12.8 14.3 5
v 12.8 14.3 4.9
v 12.8 14.3 4.1
v 12.8 14.3 4
v 12.8 14.6 4.4
v 12.8 14.6 4
v 12.8 14.7 4.9
v 12.8 14.7 4.4
v 12.8 14.7 4.3
v 12.8 14.7 4
v 12.8 14.8 5
v 12.8 14.8 4.9
v 12.8 14.8 4.3
v 12.8 14.9 5
v 12.8 14.9 4.9
v 12.8 15 4.1
v 12.8 15 4
v 12.8 15.1 4.1
v 12.8 15.1 4
v 12.8 15.3 5
v 12.8 15.3 4.9
v 12.8 15.5 5
v 12.8 15.5 4.9
v 12.8 16 4.4
v 12.8 16 4.3
v 12.8 16 4.1
v 12.8 16 4
v 12.8 16.1 4.4
v 12.8 16.1 4.3
v 12.8 16.1 4.1
v 12.8 16.1 4
v 12.8 16.5 4.4
v 12.8 16.5 4.3
v 12.8 16.5 4.1
v 12.8 16.5 4
v 12.8 16.6 4.4
v 12.8 16.6 4.3
v 12.8 16.6 4.1
v 12.8 16.6 4
v 12.8 17.3 4.2
v 12.8 17.3 4
v 12.8 17.4 5
v 12.8 17.4 4.2
v 12.8 17.4 4
v 12.8 17.5 5
v 12.8 17.5 4.2
v 12.8 18.7 5
v 12.8 18.7 4.7
v 12.8 18.8 5
v 12.8 18.8 4.7
v 12.8 18.8 4.1
v 12.8 18.9 4.7
v 12.8 18.9 4.1
v 12.8 18.9 4
v 12.8 19 5
v 12.8 19 4.1
v 12.8 19 4
v 11.8 0 5
v 11.8 0.4 5
v 11.8 0.5 5
v 11.8 1.1 5
v 11.8 1.2 5
v 11.8 2 5
v 11.8 2.1 5
v 11.8 2.2 5
v 11.8 2.3 5
v 11.8 2.4 5
v 11.8 2.5 5
v 11.8 2.6 5
v 11.8 2.7 5
v 11.8 2.9 5
v 11.8 3 5
v 11.8 3.7 5
v 11.8 3.8 5
v 11.8 4.1 5
v 11.8 4.2 5
v 11.8 4.3 5
v 11.8 4.4 5
v 11.8 4.9 5
v 11.8 5 5
v 11.8 5.6 5
v 11.8 5.8 5
v 11.8 6.4 5
v 11.8 6.5 5
v 11.8 7.7 5
v 11.8 7.8 5
v 11.8 8 5
v 11.8 8.1 5
v 11.8 8.3 5
v 11.8 8.4 5
v 11.8 8.6 5
v 11.8 8.7 5
v 11.8 8.9 5
v 11.8 9 5
v 11.8 9.2 5
v 11.8 9.8 5
v 11.8 9.9 5
v 11.8 10.3 5
v 11.8 10.7 5
v 11.8 10.9 5
v 11.8 11 5
v 11.8 11.2 5
v 11.8 11.4 5
v 11.8 11.6 5
v 11.8 11.7 5
v 11.8 12.1 5
v 11.8 12.2 5
v 11.8 12.5 5
v 11.8 12.7 5
v 11.8 12.9 5
v 11.8 13.1 5
v 11.8 13.4 5
v 11.8 13.5 5
v 11.8 13.9 5
v 11.8 14 5
v 11.8 14.2 5
v 11.8 14.4 5
v 11.8 14.6 5
v 11.8 14.7 5
v 11.8 14.9 5
v 11.8 15.3 5
v 11.8 15.7 5
v 11.8 15.8 5
v 11.8 16.4 5
v 11.8 16.6 5
v 11.8 17.8 5
v 11.8 17.9 5
v 11.8 19 5
v 11.9 1 5
v 11.9 1.1 5
v 11.9 1.2 5
v 11.9 2 5
v 11.9 2.1 5
v 11.9 2.3 5
v 11.9 2.4 5
v 11.9 2.6 5
v 11.9 2.7 5
v 11.9 2.9 5
v 11.9 3 5
v 11.9 3.7 5
v 11.9 3.8 5
v 11.9 4.1 5
v 11.9 4.2 5
v 11.9 4.3 5
v 11.9 4.4 5
v 11.9 5.6 5
v 11.9 5.8 5
v 11.9 6.4 5
v 11.9 6.5 5
v 11.9 8 5
v 11.9 8.1 5
v 11.9 8.3 5
v 11.9 8.4 5
v 11.9 8.6 5
v 11.9 8.7 5
v 11.9 8.9 5
v 11.9 9 5
v 11.9 9.2 5
v 11.9 9.8 5
v 11.9 9.9 5
v 11.9 10.3 5
v 11.9 10.5 5
v 11.9 11.2 5
v 11.9 11.3 5
v 11.9 11.4 5
v 11.9 11.6 5
v 11.9 11.7 5
v 11.9 12.5 5
v 11.9 12.7 5
v 11.9 12.9 5
v 11.9 13.1 5
v 11.9 13.9 5
v 11.9 14 5
v 11.9 14.2 5
v 11.9 14.3 5
v 11.9 14.4 5
v 11.9 15.1 5
v 11.9 15.3 5
v 11.9 15.7 5
v 11.9 15.8 5
v 11.9 16.4 5
v 11.9 16.6 5
v 12 2.2 5
v 12 2.3 5
v 12 2.4 5
v 12 2.5 5
v 12 2.6 5
v 12 4.9 5
v 12 5 5
v 12 5.1 5
v 12 7.7 5
v 12 7.8 5
v 12 7.9 5
v 12 10.6 5
v 12 10.7 5
v 12 10.8 5
v 12 11.4 5
v 12 11.6 5
v 12 12.1 5
v 12 12.2 5
v 12 12.3 5
v 12 13.3 5
v 12 13.4 5
v 12 13.5 5
v 12 14 5
v 12 14.2 5
v 12 14.8 5
v 12 14.9 5
v 12 15 5
v 12 17.7 5
v 12 17.8 5
v 12 17.9 5
v 12.1 0.9 5
v 12.1 1 5
v 12.1 1.1 5
v 12.1 2 5
v 12.1 2.1 5
v 12.1 2.6 5
v 12.1 2.7 5
v 12.1 2.9 5
v 12.1 3 5
v 12.1 8 5
v 12.1 8.1 5
v 12.1 8.3 5
v 12.1 8.4 5
v 12.1 8.6 5
v 12.1 8.7 5
v 12.1 8.9 5
v 12.1 9 5
v 12.1 11.2 5
v 12.1 11.3 5
v 12.1 12.6 5
v 12.1 12.7 5
v 12.1 12.9 5
v 12.1 13 5
v 12.1 14.3 5
v 12.1 14.4 5
v 12.2 2 5
v 12.2 2.1 5
v 12.2 2.3 5
v 12.2 2.4 5
v 12.2 2.5 5
v 12.2 2.6 5
v 12.2 2.7 5
v 12.2 2.8 5
v 12.2 2.9 5
v 12.2 3 5
v 12.2 8 5
v 12.2 8.1 5
v 12.2 8.3 5
v 12.2 8.4 5
v 12.2 8.6 5
v 12.2 8.7 5
v 12.2 8.9 5
v 12.2 9 5
v 12.2 10.8 5
v 12.2 10.9 5
v 12.2 11 5
v 12.2 11.2 5
v 12.2 11.3 5
v 12.2 12.4 5
v 12.2 12.6 5
v 12.2 12.7 5
v 12.2 12.9 5
v 12.2 13 5
v 12.2 13.2 5
v 12.2 14.3 5
v 12.2 14.4 5
v 12.2 14.6 5
v 12.2 14.7 5
v 12.2 14.8 5
v 12.3 0.3 5
v 12.3 0.4 5
v 12.3 0.5 5
v 12.3 0.8 5
v 12.3 0.9 5
v 12.3 1 5
v 12.3 2.6 5
v 12.3 2.8 5
v 12.3 2.9 5
v 12.3 7.8 5
v 12.3 7.9 5
v 12.3 8 5
v 12.3 10.5 5
v 12.3 10.6 5
v 12.3 10.9 5
v 12.3 11 5
v 12.3 11.2 5
v 12.3 12.3 5
v 12.3 12.4 5
v 12.3 12.6 5
v 12.3 13 5
v 12.3 13.2 5
v 12.3 13.3 5
v 12.3 14.4 5
v 12.3 14.6 5
v 12.3 14.7 5
v 12.3 15 5
v 12.3 15.1 5
v 12.3 17.6 5
v 12.3 17.7 5
v 12.3 17.8 5
v 12.4 2.4 5
v 12.4 2.5 5
v 12.4 2.6 5
v 12.4 2.7 5
v 12.4 2.8 5
v 12.4 2.9 5
v 12.4 3 5
v 12.4 5.1 5
v 12.4 5.2 5
v 12.4 8.6 5
v 12.4 8.7 5
v 12.4 8.9 5
v 12.4 9 5
v 12.4 10.9 5
v 12.4 11 5
v 12.4 14.6 5
v 12.4 14.7 5
v 12.5 0.7 5
v 12.5 0.8 5
v 12.5 0.9 5
v 12.5 2.5 5
v 12.5 2.6 5
v 12.5 2.7 5
v 12.5 2.9 5
v 12.5 3 5
v 12.5 3.1 5
v 12.5 5 5
v 12.5 5.2 5
v 12.5 7.9 5
v 12.5 8 5
v 12.5 8.1 5
v 12.5 8.6 5
v 12.5 8.7 5
v 12.5 8.9 5
v 12.5 9 5
v 12.5 10.5 5
v 12.5 10.7 5
v 12.5 10.8 5
v 12.5 10.9 5
v 12.5 11 5
v 12.5 11.8 5
v 12.5 12.2 5
v 12.5 12.3 5
v 12.5 13.3 5
v 12.5 13.4 5
v 12.5 13.8 5
v 12.5 14.6 5
v 12.5 14.7 5
v 12.5 14.8 5
v 12.5 14.9 5
v 12.5 15.1 5
v 12.5 17.5 5
v 12.5 17.6 5
v 12.5 17.7 5
v 12.6 10.3 5
v 12.6 10.5 5
v 12.6 10.7 5
v 12.6 10.8 5
v 12.6 11 5
v 12.6 11.7 5
v 12.6 11.8 5
v 12.6 11.9 5
v 12.6 12.2 5
v 12.6 12.3 5
v 12.6 12.4 5
v 12.6 12.5 5
v 12.6 13.1 5
v 12.6 13.2 5
v 12.6 13.3 5
v 12.6 13.4 5
v 12.6 13.7 5
v 12.6 13.8 5
v 12.6 13.9 5
v 12.6 14.6 5
v 12.6 14.8 5
v 12.6 14.9 5
v 12.6 15.1 5
v 12.6 15.3 5
v 12.7 0.3 5
v 12.7 0.4 5
v 12.7 0.6 5
v 12.7 0.7 5
v 12.7 0.8 5
v 12.7 2.6 5
v 12.7 2.7 5
v 12.7 2.8 5
v 12.7 2.9 5
v 12.7 3 5
v 12.7 3.1 5
v 12.7 3.2 5
v 12.7 6.1 5
v 12.7 6.2 5
v 12.7 6.8 5
v 12.7 6.9 5
v 12.7 8 5
v 12.7 8.1 5
v 12.7 8.2 5
v 12.7 8.6 5
v 12.7 8.7 5
v 12.7 8.9 5
v 12.7 9 5
v 12.7 10.1 5
v 12.7 10.3 5
v 12.7 10.5 5
v 12.7 11.6 5
v 12.7 11.7 5
v 12.7 11.8 5
v 12.7 11.9 5
v 12.7 13.7 5
v 12.7 13.8 5
v 12.7 13.9 5
v 12.7 14 5
v 12.7 15.1 5
v 12.7 15.3 5
v 12.7 15.5 5
v 12.7 17.4 5
v 12.7 17.5 5
v 12.7 17.6 5
v 12.7 18.7 5
v 12.7 18.8 5
v 12.8 0 5
v 12.8 0.6 5
v 12.8 0.7 5
v 12.8 2.6 5
v 12.8 2.7 5
v 12.8 2.8 5
v 12.8 2.9 5
v 12.8 3 5
v 12.8 3.1 5
v 12.8 3.2 5
v 12.8 6.1 5
v 12.8 6.2 5
v 12.8 6.8 5
v 12.8 6.9 5
v 12.8 8.1 5
v 12.8 8.2 5
v 12.8 8.6 5
v 12.8 8.7 5
v 12.8 8.9 5
v 12.8 9 5
v 12.8 10.1 5
v 12.8 10.3 5
v 12.8 10.7 5
v 12.8 10.8 5
v 12.8 11.3 5
v 12.8 11.4 5
v 12.8 11.6 5
v 12.8 11.8 5
v 12.8 12.4 5
v 12.8 12.5 5
v 12.8 13.1 5
v 12.8 13.2 5
v 12.8 13.8 5
v 12.8 14 5
v 12.8 14.2 5
v 12.8 14.3 5
v 12.8 14.8 5
v 12.8 14.9 5
v 12.8 15.3 5
v 12.8 15.5 5
v 12.8 17.4 5
v 12.8 17.5 5
v 12.8 18.7 5
v 12.8 18.8 5
v 12.8 19 5
v 11.8 0 4
v 11.8 0.1 4
v 11.8 1.5 4
v 11.8 1.6 4
v 11.8 3.6 4
v 11.8 3.7 4
v 11.8 5.1 4
v 11.8 5.2 4
v 11.8 5.6 4
v 11.8 5.7 4
v 11.8 5.9 4
v 11.8 6 4
v 11.8 6.1 4
v 11.8 6.5 4
v 11.8 6.6 4
v 11.8 6.9 4
v 11.8 7.7 4
v 11.8 7.9 4
v 11.8 9.5 4
v 11.8 9.6 4
v 11.8 10.3 4
v 11.8 10.5 4
v 11.8 10.6 4
v 11.8 10.8 4
v 11.8 10.9 4
v 11.8 11.4 4
v 11.8 11.5 4
v 11.8 11.8 4
v 11.8 11.9 4
v 11.8 12.4 4
v 11.8 12.6 4
v 11.8 13 4
v 11.8 13.2 4
v 11.8 13.7 4
v 11.8 13.8 4
v 11.8 14.1 4
v 11.8 14.2 4
v 11.8 14.7 4
v 11.8 14.8 4
v 11.8 15 4
v 11.8 15.1 4
v 11.8 15.3 4
v 11.8 16 4
v 11.8 16.1 4
v 11.8 17.7 4
v 11.8 17.9 4
v 11.8 18.7 4
v 11.8 19 4
v 11.9 0 4
v 11.9 0.1 4
v 11.9 5.1 4
v 11.9 5.2 4
v 11.9 5.5 4
v 11.9 5.6 4
v 11.9 5.7 4
v 11.9 5.8 4
v 11.9 5.9 4
v 11.9 6 4
v 11.9 6.1 4
v 11.9 6.5 4
v 11.9 6.6 4
v 11.9 6.9 4
v 11.9 7.5 4
v 11.9 7.7 4
v 11.9 7.9 4
v 11.9 10.3 4
v 11.9 10.5 4
v 11.9 11.4 4
v 11.9 11.5 4
v 11.9 11.6 4
v 11.9 11.8 4
v 11.9 11.9 4
v 11.9 12.4 4
v 11.9 12.6 4
v 11.9 12.7 4
v 11.9 12.9 4
v 11.9 13 4
v 11.9 13.2 4
v 11.9 13.7 4
v 11.9 13.8 4
v 11.9 14 4
v 11.9 14.1 4
v 11.9 14.2 4
v 11.9 15.1 4
v 11.9 15.3 4
v 11.9 17.7 4
v 11.9 17.9 4
v 11.9 18.1 4
v 11.9 18.7 4
v 11.9 19 4
v 12 6 4
v 12 6.1 4
v 12 6.2 4
v 12 6.5 4
v 12 6.6 4
v 12 6.7 4
v 12 7.3 4
v 12 7.5 4
v 12 7.7 4
v 12 9.5 4
v 12 9.6 4
v 12 9.7 4
v 12 10.8 4
v 12 10.9 4
v 12 11 4
v 12 14.6 4
v 12 14.7 4
v 12 14.8 4
v 12 15.9 4
v 12 16 4
v 12 16.1 4
v 12 17.9 4
v 12 18.1 4
v 12 18.3 4
v 12 18.9 4
v 12 19 4
v 12.1 7.1 4
v 12.1 7.3 4
v 12.1 7.5 4
v 12.1 11.5 4
v 12.1 11.6 4
v 12.1 11.7 4
v 12.1 12.6 4
v 12.1 12.7 4
v 12.1 12.9 4
v 12.1 13 4
v 12.1 13.9 4
v 12.1 14 4
v 12.1 14.1 4
v 12.1 18.1 4
v 12.1 18.3 4
v 12.1 18.5 4
v 12.2 5.2 4
v 12.2 5.3 4
v 12.2 5.7 4
v 12.2 5.8 4
v 12.2 5.9 4
v 12.2 6.1 4
v 12.2 6.2 4
v 12.2 6.3 4
v 12.2 6.6 4
v 12.2 6.7 4
v 12.2 6.8 4
v 12.2 6.9 4
v 12.2 7.1 4
v 12.2 7.3 4
v 12.2 9.6 4
v 12.2 9.7 4
v 12.2 9.8 4
v 12.2 10.9 4
v 12.2 11 4
v 12.2 11.1 4
v 12.2 11.6 4
v 12.2 11.7 4
v 12.2 11.8 4
v 12.2 13.8 4
v 12.2 13.9 4
v 12.2 14 4
v 12.2 14.5 4
v 12.2 14.6 4
v 12.2 14.7 4
v 12.2 15.8 4
v 12.2 15.9 4
v 12.2 16 4
v 12.2 18.3 4
v 12.2 18.5 4
v 12.2 18.7 4
v 12.2 18.8 4
v 12.2 18.9 4
v 12.2 19 4
v 12.3 3.5 4
v 12.3 3.6 4
v 12.3 3.7 4
v 12.3 6.2 4
v 12.3 6.3 4
v 12.3 6.4 4
v 12.3 6.8 4
v 12.3 6.9 4
v 12.3 7.1 4
v 12.3 10 4
v 12.3 10.2 4
v 12.3 11.7 4
v 12.3 11.8 4
v 12.3 11.9 4
v 12.3 12.5 4
v 12.3 12.7 4
v 12.3 12.9 4
v 12.3 13.1 4
v 12.3 13.7 4
v 12.3 13.8 4
v 12.3 13.9 4
v 12.3 15.4 4
v 12.3 15.6 4
v 12.3 18.5 4
v 12.3 18.7 4
v 12.3 18.8 4
v 12.4 5.2 4
v 12.4 5.3 4
v 12.4 5.8 4
v 12.4 5.9 4
v 12.4 6 4
v 12.4 6.3 4
v 12.4 6.4 4
v 12.4 6.7 4
v 12.4 6.8 4
v 12.4 6.9 4
v 12.4 9.7 4
v 12.4 9.8 4
v 12.4 10 4
v 12.4 10.2 4
v 12.4 11 4
v 12.4 11.1 4
v 12.4 11.2 4
v 12.4 11.8 4
v 12.4 11.9 4
v 12.4 12.5 4
v 12.4 12.7 4
v 12.4 12.9 4
v 12.4 13.1 4
v 12.4 13.7 4
v 12.4 13.8 4
v 12.4 14.4 4
v 12.4 14.5 4
v 12.4 14.6 4
v 12.4 15.4 4
v 12.4 15.6 4
v 12.4 15.8 4
v 12.4 15.9 4
v 12.4 18.7 4
v 12.4 18.8 4
v 12.4 18.9 4
v 12.4 19 4
v 12.5 5.9 4
v 12.5 6 4
v 12.5 6.1 4
v 12.5 6.3 4
v 12.5 6.4 4
v 12.5 6.5 4
v 12.5 6.7 4
v 12.5 11.1 4
v 12.5 11.2 4
v 12.5 11.3 4
v 12.5 14.3 4
v 12.5 14.4 4
v 12.5 14.5 4
v 12.5 18.9 4
v 12.5 19 4
v 12.6 5.2 4
v 12.6 5.3 4
v 12.6 6 4
v 12.6 6.1 4
v 12.6 6.3 4
v 12.6 6.5 4
v 12.6 6.6 4
v 12.6 6.9 4
v 12.6 7.1 4
v 12.6 18.5 4
v 12.6 18.7 4
v 12.7 2 4
v 12.7 2.1 4
v 12.7 2.3 4
v 12.7 2.4 4
v 12.7 2.5 4
v 12.7 2.6 4
v 12.7 2.7 4
v 12.7 2.9 4
v 12.7 3 4
v 12.7 3.8 4
v 12.7 3.9 4
v 12.7 6 4
v 12.7 6.1 4
v 12.7 6.2 4
v 12.7 6.3 4
v 12.7 6.5 4
v 12.7 6.6 4
v 12.7 6.7 4
v 12.7 6.8 4
v 12.7 6.9 4
v 12.7 7.1 4
v 12.7 8 4
v 12.7 8.1 4
v 12.7 8.2 4
v 12.7 8.3 4
v 12.7 8.4 4
v 12.7 8.6 4
v 12.7 8.7 4
v 12.7 8.9 4
v 12.7 9 4
v 12.7 10.9 4
v 12.7 11 4
v 12.7 11.2 4
v 12.7 11.3 4
v 12.7 11.4 4
v 12.7 14.2 4
v 12.7 14.3 4
v 12.7 14.4 4
v 12.7 14.6 4
v 12.7 14.7 4
v 12.7 16 4
v 12.7 16.1 4
v 12.7 16.5 4
v 12.7 16.6 4
v 12.7 17.3 4
v 12.7 17.4 4
v 12.7 18.5 4
v 12.7 18.7 4
v 12.7 18.8 4
v 12.7 18.9 4
v 12.7 19 4
v 12.8 0 4
v 12.8 1.5 4
v 12.8 1.6 4
v 12.8 2 4
v 12.8 2.1 4
v 12.8 2.3 4
v 12.8 2.4 4
v 12.8 2.5 4
v 12.8 2.6 4
v 12.8 2.7 4
v 12.8 2.9 4
v 12.8 3 4
v 12.8 3.5 4
v 12.8 3.6 4
v 12.8 3.8 4
v 12.8 3.9 4
v 12.8 5.3 4
v 12.8 5.5 4
v 12.8 6 4
v 12.8 6.2 4
v 12.8 6.6 4
v 12.8 6.7 4
v 12.8 8 4
v 12.8 8.1 4
v 12.8 8.2 4
v 12.8 8.3 4
v 12.8 8.4 4
v 12.8 8.6 4
v 12.8 8.7 4
v 12.8 8.9 4
v 12.8 9 4
v 12.8 10.5 4
v 12.8 10.6 4
v 12.8 10.9 4
v 12.8 11 4
v 12.8 11.3 4
v 12.8 11.4 4
v 12.8 14.2 4
v 12.8 14.3 4
v 12.8 14.6 4
v 12.8 14.7 4
v 12.8 15 4
v 12.8 15.1 4
v 12.8 16 4
v 12.8 16.1 4
v 12.8 16.5 4
v 12.8 16.6 4
v 12.8 17.3 4
v 12.8 17.4 4
v 12.8 18.9 4
v 12.8 19 4
v 11.8 0 5
v 12.8 0 5
v 11.8 0 4.4
v 11.9 0 4.4
v 11.8 0 4.2
v 11.9 0 4.2
v 11.8 0 4.1
v 11.9 0 4.1
v 11.8 0 4
v 11.9 0 4
v 12.8 0 4
v 11.8 19 5
v 12.8 19 5
v 11.8 19 4.1
v 11.9 19 4.1
v 12 19 4.1
v 12.2 19 4.1
v 12.4 19 4.1
v 12.5 19 4.1
v 12.7 19 4.1
v 12.8 19 4.1
v 11.8 19 4
v 11.9 19 4
v 12 19 4
v 12.2 19 4
v 12.4 19 4
v 12.5 19 4
v 12.7 19 4
v 12.8 19 4

# faces
f 6/1/1 2/1/1 1/1/1
f 7/3/1 3/3/1 2/3/1
f 7/1/1 2/1/1 6/1/1
f 8/1/1 4/1/1 3/1/1
f 8/3/1 3/3/1 7/3/1
f 9/4/1 5/4/1 4/4/1
f 9/1/1 4/1/1 8/1/1
f 10/4/1 5/4/1 9/4/1
f 11/1/1 6/1/1 1/1/1
f 12/3/1 7/3/1 6/3/1
f 12/1/1 6/1/1 11/1/1
f 13/3/1 7/3/1 12/3/1
f 14/1/1 8/1/1 7/1/1
f 14/3/1 7/3/1 13/3/1
f 15/1/1 8/1/1 14/1/1
f 16/4/1 9/4/1 8/4/1
f 16/1/1 8/1/1 15/1/1
f 17/1/1 10/1/1 9/1/1
f 17/4/1 9/4/1 16/4/1
f 18/1/1 11/1/1 1/1/1
f 19/3/1 13/3/1 12/3/1
f 19/1/1 11/1/1 18/1/1
f 19/3/1 12/3/1 11/3/1
f 20/1/1 15/1/1 14/1/1
f 20/3/1 13/3/1 19/3/1
f 20/1/1 14/1/1 13/1/1
f 21/1/1 18/1/1 1/1/1
f 22/3/1 19/3/1 18/3/1
f 22/1/1 18/1/1 21/1/1
f 23/1/1 20/1/1 19/1/1
f 23/3/1 19/3/1 22/3/1
f 24/1/1 15/1/1 20/1/1
f 24/1/1 20/1/1 23/1/1
f 25/4/1 16/4/1 15/4/1
f 25/1/1 15/1/1 24/1/1
f 26/1/1 17/1/1 16/1/1
f 26/4/1 16/4/1 25/4/1
f 27/3/1 22/3/1 21/3/1
f 28/1/1 23/1/1 22/1/1
f 28/3/1 22/3/1 27/3/1
f 28/1/1 24/1/1 23/1/1
f 29/1/1 24/1/1 28/1/1
f 30/1/1 24/1/1 29/1/1
f 31/1/1 24/1/1 30/1/1
f 32/4/1 25/4/1 24/4/1
f 32/1/1 24/1/1 31/1/1
f 33/1/1 26/1/1 25/1/1
f 33/4/1 25/4/1 32/4/1
f 34/1/1 31/1/1 30/1/1
f 35/4/1 32/4/1 31/4/1
f 35/1/1 31/1/1 34/1/1
f 36/1/1 33/1/1 32/1/1
f 36/4/1 32/4/1 35/4/1
f 37/1/1 28/1/1 27/1/1
f 37/1/1 29/1/1 28/1/1
f 37/3/1 30/3/1 29/3/1
f 38/1/1 34/1/1 30/1/1
f 38/3/1 30/3/1 37/3/1
f 39/4/1 35/4/1 34/4/1
f 39/1/1 34/1/1 38/1/1
f 40/1/1 36/1/1 35/1/1
f 40/4/1 35/4/1 39/4/1
f 41/1/1 37/1/1 27/1/1
f 41/1/1 38/1/1 37/1/1
f 42/4/1 39/4/1 38/4/1
f 42/1/1 38/1/1 41/1/1
f 43/1/1 40/1/1 39/1/1
f 43/4/1 39/4/1 42/4/1
f 44/1/1 36/1/1 40/1/1
f 44/1/1 40/1/1 43/1/1
f 45/1/1 43/1/1 42/1/1
f 45/3/1 44/3/1 43/3/1
f 46/1/1 36/1/1 44/1/1
f 46/3/1 44/3/1 45/3/1
f 47/1/1 33/1/1 36/1/1
f 47/1/1 36/1/1 46/1/1
f 48/1/1 41/1/1 27/1/1
f 49/4/1 42/4/1 41/4/1
f 49/1/1 41/1/1 48/1/1
f 50/1/1 45/1/1 42/1/1
f 50/4/1 42/4/1 49/4/1
f 50/1/1 46/1/1 45/1/1
f 51/3/1 47/3/1 46/3/1
f 51/1/1 46/1/1 50/1/1
f 52/1/1 33/1/1 47/1/1
f 52/3/1 47/3/1 51/3/1
f 53/1/1 26/1/1 33/1/1
f 53/1/1 33/1/1 52/1/1
f 54/1/1 48/1/1 27/1/1
f 55/4/1 49/4/1 48/4/1
f 55/1/1 48/1/1 54/1/1
f 56/1/1 52/1/1 51/1/1
f 56/4/1 49/4/1 55/4/1
f 56/1/1 50/1/1 49/1/1
f 56/1/1 51/1/1 50/1/1
f 57/4/1 55/4/1 54/4/1
f 58/1/1 56/1/1 55/1/1
f 58/4/1 55/4/1 57/4/1
f 59/1/1 52/1/1 56/1/1
f 59/1/1 56/1/1 58/1/1
f 59/3/1 53/3/1 52/3/1
f 60/1/1 26/1/1 53/1/1
f 60/3/1 53/3/1 59/3/1
f 61/1/1 17/1/1 26/1/1
f 61/1/1 26/1/1 60/1/1
f 62/1/1 58/1/1 57/1/1
f 62/1/1 60/1/1 59/1/1
f 62/3/1 61/3/1 60/3/1
f 62/1/1 59/1/1 58/1/1
f 63/1/1 17/1/1 61/1/1
f 63/3/1 61/3/1 62/3/1
f 64/1/1 10/1/1 17/1/1
f 64/1/1 17/1/1 63/1/1
f 65/1/1 63/1/1 62/1/1
f 65/3/1 64/3/1 63/3/1
f 66/1/1 10/1/1 64/1/1
f 66/3/1 64/3/1 65/3/1
f 67/1/1 10/1/1 66/1/1
f 68/1/1 66/1/1 65/1/1
f 68/3/1 67/3/1 66/3/1
f 69/3/1 67/3/1 68/3/1
f 70/1/1 65/1/1 62/1/1
f 70/1/1 62/1/1 57/1/1
f 70/1/1 69/1/1 68/1/1
f 70/1/1 68/1/1 65/1/1
f 71/1/1 69/1/1 70/1/1
f 72/2/1 71/2/1 70/2/1
f 73/1/1 69/1/1 71/1/1
f 73/2/1 71/2/1 72/2/1
f 74/1/1 73/1/1 72/1/1
f 75/1/1 69/1/1 73/1/1
f 75/1/1 73/1/1 74/1/1
f 76/3/1 75/3/1 74/3/1
f 77/1/1 69/1/1 75/1/1
f 77/3/1 75/3/1 76/3/1
f 78/2/1 77/2/1 76/2/1
f 79/1/1 69/1/1 77/1/1
f 79/2/1 77/2/1 78/2/1
f 80/3/1 79/3/1 78/3/1
f 81/1/1 69/1/1 79/1/1
f 81/3/1 79/3/1 80/3/1
f 82/1/1 81/1/1 80/1/1
f 83/1/1 69/1/1 81/1/1
f 83/1/1 81/1/1 82/1/1
f 84/2/1 83/2/1 82/2/1
f 85/1/1 69/1/1 83/1/1
f 85/2/1 83/2/1 84/2/1
f 86/1/1 85/1/1 84/1/1
f 87/1/1 69/1/1 85/1/1
f 87/1/1 85/1/1 86/1/1
f 88/2/1 87/2/1 86/2/1
f 89/1/1 69/1/1 87/1/1
f 89/2/1 87/2/1 88/2/1
f 90/1/1 89/1/1 88/1/1
f 90/1/1 69/1/1 89/1/1
f 91/1/1 69/1/1 90/1/1
f 92/1/1 90/1/1 88/1/1
f 93/3/1 91/3/1 90/3/1
f 93/1/1 90/1/1 92/1/1
f 94/3/1 91/3/1 93/3/1
f 95/3/1 93/3/1 92/3/1
f 96/1/1 94/1/1 93/1/1
f 96/3/1 93/3/1 95/3/1
f 97/1/1 96/1/1 95/1/1
f 98/1/1 96/1/1 97/1/1
f 99/4/1 98/4/1 97/4/1
f 100/1/1 96/1/1 98/1/1
f 100/4/1 98/4/1 99/4/1
f 101/1/1 96/1/1 100/1/1
f 102/1/1 96/1/1 101/1/1
f 103/1/1 100/1/1 99/1/1
f 104/4/1 101/4/1 100/4/1
f 104/1/1 100/1/1 103/1/1
f 105/3/1 102/3/1 101/3/1
f 105/4/1 101/4/1 104/4/1
f 106/1/1 96/1/1 102/1/1
f 106/3/1 102/3/1 105/3/1
f 107/3/1 104/3/1 103/3/1
f 108/1/1 105/1/1 104/1/1
f 108/3/1 104/3/1 107/3/1
f 109/4/1 106/4/1 105/4/1
f 109/1/1 105/1/1 108/1/1
f 110/1/1 96/1/1 106/1/1
f 110/4/1 106/4/1 109/4/1
f 111/1/1 96/1/1 110/1/1
f 112/3/1 109/3/1 108/3/1
f 112/1/1 108/1/1 107/1/1
f 112/3/1 110/3/1 109/3/1
f 113/3/1 110/3/1 112/3/1
f 114/4/1 111/4/1 110/4/1
f 114/3/1 110/3/1 113/3/1
f 115/1/1 96/1/1 111/1/1
f 115/4/1 111/4/1 114/4/1
f 116/1/1 96/1/1 115/1/1
f 117/3/1 114/3/1 113/3/1
f 117/1/1 113/1/1 112/1/1
f 118/1/1 115/1/1 114/1/1
f 118/3/1 114/3/1 117/3/1
f 119/4/1 116/4/1 115/4/1
f 119/1/1 115/1/1 118/1/1
f 120/1/1 96/1/1 116/1/1
f 120/4/1 116/4/1 119/4/1
f 121/1/1 96/1/1 120/1/1
f 122/3/1 119/3/1 118/3/1
f 122/1/1 120/1/1 119/1/1
f 123/4/1 121/4/1 120/4/1
f 123/1/1 120/1/1 122/1/1
f 124/1/1 118/1/1 117/1/1
f 124/3/1 122/3/1 118/3/1
f 124/3/1 123/3/1 122/3/1
f 125/3/1 123/3/1 124/3/1
f 126/4/1 121/4/1 123/4/1
f 126/3/1 123/3/1 125/3/1
f 127/1/1 96/1/1 121/1/1
f 127/4/1 121/4/1 126/4/1
f 128/1/1 94/1/1 96/1/1
f 128/1/1 96/1/1 127/1/1
f 129/1/1 125/1/1 124/1/1
f 129/1/1 112/1/1 107/1/1
f 129/1/1 117/1/1 112/1/1
f 129/1/1 124/1/1 117/1/1
f 130/1/1 125/1/1 129/1/1
f 131/3/1 127/3/1 126/3/1
f 131/3/1 126/3/1 125/3/1
f 132/4/1 128/4/1 127/4/1
f 132/3/1 127/3/1 131/3/1
f 133/1/1 94/1/1 128/1/1
f 133/4/1 128/4/1 132/4/1
f 134/1/1 94/1/1 133/1/1
f 135/3/1 130/3/1 129/3/1
f 136/1/1 125/1/1 130/1/1
f 136/3/1 130/3/1 135/3/1
f 137/3/1 131/3/1 125/3/1
f 137/1/1 125/1/1 136/1/1
f 138/1/1 132/1/1 131/1/1
f 138/3/1 131/3/1 137/3/1
f 139/3/1 133/3/1 132/3/1
f 139/1/1 132/1/1 138/1/1
f 140/4/1 134/4/1 133/4/1
f 140/3/1 133/3/1 139/3/1
f 141/1/1 94/1/1 134/1/1
f 141/4/1 134/4/1 140/4/1
f 142/1/1 94/1/1 141/1/1
f 143/4/1 142/4/1 141/4/1
f 143/1/1 94/1/1 142/1/1
f 144/1/1 94/1/1 143/1/1
f 145/1/1 140/1/1 139/1/1
f 145/1/1 141/1/1 140/1/1
f 145/4/1 143/4/1 141/4/1
f 146/3/1 144/3/1 143/3/1
f 146/4/1 143/4/1 145/4/1
f 147/3/1 144/3/1 146/3/1
f 148/1/1 137/1/1 136/1/1
f 148/1/1 136/1/1 135/1/1
f 148/1/1 138/1/1 137/1/1
f 148/3/1 139/3/1 138/3/1
f 149/1/1 146/1/1 145/1/1
f 149/3/1 139/3/1 148/3/1
f 149/1/1 145/1/1 139/1/1
f 150/1/1 146/1/1 149/1/1
f 151/4/1 147/4/1 146/4/1
f 151/1/1 146/1/1 150/1/1
f 152/1/1 148/1/1 135/1/1
f 152/1/1 149/1/1 148/1/1
f 153/3/1 150/3/1 149/3/1
f 153/1/1 149/1/1 152/1/1
f 154/4/1 151/4/1 150/4/1
f 154/3/1 150/3/1 153/3/1
f 155/1/1 152/1/1 135/1/1
f 156/4/1 153/4/1 152/4/1
f 156/1/1 152/1/1 155/1/1
f 156/4/1 154/4/1 153/4/1
f 157/4/1 154/4/1 156/4/1
f 158/4/1 151/4/1 154/4/1
f 158/4/1 154/4/1 157/4/1
f 159/4/1 151/4/1 158/4/1
f 160/4/1 147/4/1 151/4/1
f 160/4/1 151/4/1 159/4/1
f 161/4/1 147/4/1 160/4/1
f 162/4/1 157/4/1 156/4/1
f 162/4/1 156/4/1 155/4/1
f 163/1/1 158/1/1 157/1/1
f 163/4/1 157/4/1 162/4/1
f 164/3/1 161/3/1 160/3/1
f 164/1/1 160/1/1 159/1/1
f 165/3/1 161/3/1 164/3/1
f 166/4/1 162/4/1 155/4/1
f 167/1/1 163/1/1 162/1/1
f 167/4/1 162/4/1 166/4/1
f 168/3/1 159/3/1 158/3/1
f 168/1/1 163/1/1 167/1/1
f 168/1/1 158/1/1 163/1/1
f 169/1/1 165/1/1 164/1/1
f 169/3/1 159/3/1 168/3/1
f 169/1/1 164/1/1 159/1/1
f 170/1/1 165/1/1 169/1/1
f 171/3/1 170/3/1 169/3/1
f 171/1/1 165/1/1 170/1/1
f 172/1/1 165/1/1 171/1/1
f 173/1/1 167/1/1 166/1/1
f 173/1/1 168/1/1 167/1/1
f 173/1/1 169/1/1 168/1/1
f 174/1/1 169/1/1 173/1/1
f 175/3/1 172/3/1 171/3/1
f 175/3/1 171/3/1 169/3/1
f 176/3/1 172/3/1 175/3/1
f 177/1/1 173/1/1 166/1/1
f 178/3/1 174/3/1 173/3/1
f 178/1/1 173/1/1 177/1/1
f 179/1/1 169/1/1 174/1/1
f 179/3/1 174/3/1 178/3/1
f 180/3/1 175/3/1 169/3/1
f 180/1/1 169/1/1 179/1/1
f 181/1/1 176/1/1 175/1/1
f 181/3/1 175/3/1 180/3/1
f 182/1/1 176/1/1 181/1/1
f 183/1/1 177/1/1 166/1/1
f 184/3/1 178/3/1 177/3/1
f 184/1/1 177/1/1 183/1/1
f 185/1/1 179/1/1 178/1/1
f 185/3/1 178/3/1 184/3/1
f 185/1/1 180/1/1 179/1/1
f 185/1/1 181/1/1 180/1/1
f 186/1/1 183/1/1 166/1/1
f 187/3/1 184/3/1 183/3/1
f 187/1/1 183/1/1 186/1/1
f 188/1/1 185/1/1 184/1/1
f 188/3/1 184/3/1 187/3/1
f 189/1/1 186/1/1 166/1/1
f 190/3/1 187/3/1 186/3/1
f 190/1/1 186/1/1 189/1/1
f 191/1/1 188/1/1 187/1/1
f 191/3/1 187/3/1 190/3/1
f 192/3/1 190/3/1 189/3/1
f 193/1/1 191/1/1 190/1/1
f 193/3/1 190/3/1 192/3/1
f 194/1/1 181/1/1 185/1/1
f 194/1/1 191/1/1 193/1/1
f 194/1/1 185/1/1 188/1/1
f 194/3/1 182/3/1 181/3/1
f 194/1/1 188/1/1 191/1/1
f 195/3/1 182/3/1 194/3/1
f 196/1/1 193/1/1 192/1/1
f 196/1/1 194/1/1 193/1/1
f 196/1/1 195/1/1 194/1/1
f 197/1/1 195/1/1 196/1/1
f 198/1/1 196/1/1 192/1/1
f 199/3/1 197/3/1 196/3/1
f 199/1/1 196/1/1 198/1/1
f 200/3/1 197/3/1 199/3/1
f 201/1/1 198/1/1 192/1/1
f 202/1/1 198/1/1 201/1/1
f 203/1/1 198/1/1 202/1/1
f 204/3/1 199/3/1 198/3/1
f 204/1/1 198/1/1 203/1/1
f 205/1/1 200/1/1 199/1/1
f 205/3/1 199/3/1 204/3/1
f 206/1/1 200/1/1 205/1/1
f 207/3/1 202/3/1 201/3/1
f 208/1/1 203/1/1 202/1/1
f 208/3/1 202/3/1 207/3/1
f 209/1/1 208/1/1 207/1/1
f 209/1/1 203/1/1 208/1/1
f 210/3/1 204/3/1 203/3/1
f 210/1/1 203/1/1 209/1/1
f 211/1/1 205/1/1 204/1/1
f 211/3/1 204/3/1 210/3/1
f 212/3/1 206/3/1 205/3/1
f 212/1/1 205/1/1 211/1/1
f 213/3/1 206/3/1 212/3/1
f 214/1/1 209/1/1 207/1/1
f 215/1/1 209/1/1 214/1/1
f 216/1/1 211/1/1 210/1/1
f 216/3/1 212/3/1 211/3/1
f 217/1/1 213/1/1 212/1/1
f 217/3/1 212/3/1 216/3/1
f 218/2/1 215/2/1 214/2/1
f 219/1/1 209/1/1 215/1/1
f 219/2/1 215/2/1 218/2/1
f 220/1/1 219/1/1 218/1/1
f 221/1/1 209/1/1 219/1/1
f 221/1/1 219/1/1 220/1/1
f 222/2/1 221/2/1 220/2/1
f 223/1/1 209/1/1 221/1/1
f 223/2/1 221/2/1 222/2/1
f 224/1/1 209/1/1 223/1/1
f 225/3/1 210/3/1 209/3/1
f 225/1/1 209/1/1 224/1/1
f 226/1/1 216/1/1 210/1/1
f 226/3/1 210/3/1 225/3/1
f 226/1/1 217/1/1 216/1/1
f 227/1/1 224/1/1 223/1/1
f 227/1/1 223/1/1 222/1/1
f 228/1/1 224/1/1 227/1/1
f 229/1/1 224/1/1 228/1/1
f 230/3/1 225/3/1 224/3/1
f 230/1/1 224/1/1 229/1/1
f 231/1/1 226/1/1 225/1/1
f 231/3/1 225/3/1 230/3/1
f 232/2/1 228/2/1 227/2/1
f 233/1/1 229/1/1 228/1/1
f 233/2/1 228/2/1 232/2/1
f 234/1/1 233/1/1 232/1/1
f 235/1/1 229/1/1 233/1/1
f 235/1/1 233/1/1 234/1/1
f 236/2/1 235/2/1 234/2/1
f 237/1/1 229/1/1 235/1/1
f 237/2/1 235/2/1 236/2/1
f 238/3/1 230/3/1 229/3/1
f 238/1/1 229/1/1 237/1/1
f 239/1/1 231/1/1 230/1/1
f 239/3/1 230/3/1 238/3/1
f 240/3/1 237/3/1 236/3/1
f 240/3/1 238/3/1 237/3/1
f 241/3/1 238/3/1 240/3/1
f 242/1/1 239/1/1 238/1/1
f 242/3/1 238/3/1 241/3/1
f 243/1/1 231/1/1 239/1/1
f 243/1/1 239/1/1 242/1/1
f 243/1/1 226/1/1 231/1/1
f 244/3/1 240/3/1 236/3/1
f 245/1/1 241/1/1 240/1/1
f 245/3/1 240/3/1 244/3/1
f 246/1/1 241/1/1 245/1/1
f 247/3/1 242/3/1 241/3/1
f 247/1/1 241/1/1 246/1/1
f 247/3/1 243/3/1 242/3/1
f 248/1/1 226/1/1 243/1/1
f 248/3/1 243/3/1 247/3/1
f 249/1/1 246/1/1 245/1/1
f 249/1/1 245/1/1 244/1/1
f 250/3/1 247/3/1 246/3/1
f 250/1/1 246/1/1 249/1/1
f 251/1/1 249/1/1 244/1/1
f 251/3/1 250/3/1 249/3/1
f 252/3/1 247/3/1 250/3/1
f 252/3/1 250/3/1 251/3/1
f 253/1/1 248/1/1 247/1/1
f 253/3/1 247/3/1 252/3/1
f 254/1/1 217/1/1 226/1/1
f 254/1/1 248/1/1 253/1/1
f 254/1/1 226/1/1 248/1/1
f 255/3/1 253/3/1 252/3/1
f 255/3/1 254/3/1 253/3/1
f 256/1/1 217/1/1 254/1/1
f 256/3/1 254/3/1 255/3/1
f 257/1/1 213/1/1 217/1/1
f 257/1/1 217/1/1 256/1/1
f 258/1/1 256/1/1 255/1/1
f 258/3/1 257/3/1 256/3/1
f 259/3/1 257/3/1 258/3/1
f 260/1/1 252/1/1 251/1/1
f 260/1/1 251/1/1 244/1/1
f 261/1/1 252/1/1 260/1/1
f 262/4/1 261/4/1 260/4/1
f 263/1/1 252/1/1 261/1/1
f 263/4/1 261/4/1 262/4/1
f 264/3/1 255/3/1 252/3/1
f 264/1/1 252/1/1 263/1/1
f 265/1/1 259/1/1 258/1/1
f 265/3/1 255/3/1 264/3/1
f 265/1/1 258/1/1 255/1/1
f 266/1/1 263/1/1 262/1/1
f 266/4/1 264/4/1 263/4/1
f 267/1/1 265/1/1 264/1/1
f 267/4/1 264/4/1 266/4/1
f 268/1/1 259/1/1 265/1/1
f 268/1/1 265/1/1 267/1/1
f 269/3/1 267/3/1 266/3/1
f 269/4/1 268/4/1 267/4/1
f 270/1/1 259/1/1 268/1/1
f 270/4/1 268/4/1 269/4/1
f 271/1/1 259/1/1 270/1/1
f 272/1/1 270/1/1 269/1/1
f 272/4/1 271/4/1 270/4/1
f 273/1/1 259/1/1 271/1/1
f 273/4/1 271/4/1 272/4/1
f 274/1/1 259/1/1 273/1/1
f 275/1/1 266/1/1 262/1/1
f 276/3/1 269/3/1 266/3/1
f 276/1/1 266/1/1 275/1/1
f 277/1/1 272/1/1 269/1/1
f 277/3/1 269/3/1 276/3/1
f 277/1/1 273/1/1 272/1/1
f 278/4/1 274/4/1 273/4/1
f 278/1/1 273/1/1 277/1/1
f 279/1/1 259/1/1 274/1/1
f 279/4/1 274/4/1 278/4/1
f 280/1/1 259/1/1 279/1/1
f 281/1/1 259/1/1 280/1/1
f 282/1/1 259/1/1 281/1/1
f 283/1/1 278/1/1 277/1/1
f 283/1/1 277/1/1 276/1/1
f 283/1/1 279/1/1 278/1/1
f 283/4/1 280/4/1 279/4/1
f 284/4/1 280/4/1 283/4/1
f 285/1/1 281/1/1 280/1/1
f 285/4/1 280/4/1 284/4/1
f 286/3/1 282/3/1 281/3/1
f 286/1/1 281/1/1 285/1/1
f 287/3/1 276/3/1 275/3/1
f 287/1/1 284/1/1 283/1/1
f 287/1/1 283/1/1 276/1/1
f 288/3/1 285/3/1 284/3/1
f 288/1/1 284/1/1 287/1/1
f 289/4/1 286/4/1 285/4/1
f 289/3/1 285/3/1 288/3/1
f 290/3/1 282/3/1 286/3/1
f 290/4/1 286/4/1 289/4/1
f 291/3/1 282/3/1 290/3/1
f 292/3/1 289/3/1 288/3/1
f 292/3/1 287/3/1 275/3/1
f 292/3/1 288/3/1 287/3/1
f 293/3/1 289/3/1 292/3/1
f 294/3/1 289/3/1 293/3/1
f 295/1/1 290/1/1 289/1/1
f 295/3/1 289/3/1 294/3/1
f 296/4/1 291/4/1 290/4/1
f 296/1/1 290/1/1 295/1/1
f 297/4/1 291/4/1 296/4/1
f 298/3/1 292/3/1 275/3/1
f 299/1/1 293/1/1 292/1/1
f 299/3/1 292/3/1 298/3/1
f 300/1/1 299/1/1 298/1/1
f 300/1/1 293/1/1 299/1/1
f 301/3/1 294/3/1 293/3/1
f 301/1/1 293/1/1 300/1/1
f 302/1/1 295/1/1 294/1/1
f 302/3/1 294/3/1 301/3/1
f 302/1/1 296/1/1 295/1/1
f 302/1/1 297/1/1 296/1/1
f 303/1/1 297/1/1 302/1/1
f 304/1/1 297/1/1 303/1/1
f 305/1/1 300/1/1 298/1/1
f 306/1/1 300/1/1 305/1/1
f 307/1/1 300/1/1 306/1/1
f 308/3/1 301/3/1 300/3/1
f 308/1/1 300/1/1 307/1/1
f 309/1/1 302/1/1 301/1/1
f 309/3/1 301/3/1 308/3/1
f 309/1/1 303/1/1 302/1/1
f 310/3/1 304/3/1 303/3/1
f 310/1/1 303/1/1 309/1/1
f 311/3/1 304/3/1 310/3/1
f 312/3/1 306/3/1 305/3/1
f 313/1/1 307/1/1 306/1/1
f 313/3/1 306/3/1 312/3/1
f 314/1/1 307/1/1 313/1/1
f 315/3/1 308/3/1 307/3/1
f 315/1/1 307/1/1 314/1/1
f 316/1/1 309/1/1 308/1/1
f 316/3/1 308/3/1 315/3/1
f 316/1/1 310/1/1 309/1/1
f 316/1/1 311/1/1 310/1/1
f 317/1/1 314/1/1 313/1/1
f 317/1/1 313/1/1 312/1/1
f 318/3/1 315/3/1 314/3/1
f 318/1/1 314/1/1 317/1/1
f 319/1/1 316/1/1 315/1/1
f 319/3/1 315/3/1 318/3/1
f 320/1/1 317/1/1 312/1/1
f 321/3/1 318/3/1 317/3/1
f 321/1/1 317/1/1 320/1/1
f 322/1/1 319/1/1 318/1/1
f 322/3/1 318/3/1 321/3/1
f 323/1/1 316/1/1 319/1/1
f 323/1/1 319/1/1 322/1/1
f 324/3/1 322/3/1 321/3/1
f 324/3/1 321/3/1 320/3/1
f 324/3/1 323/3/1 322/3/1
f 325/1/1 316/1/1 323/1/1
f 325/3/1 323/3/1 324/3/1
f 326/1/1 311/1/1 316/1/1
f 326/1/1 316/1/1 325/1/1
f 327/3/1 324/3/1 320/3/1
f 328/1/1 325/1/1 324/1/1
f 328/3/1 324/3/1 327/3/1
f 329/3/1 326/3/1 325/3/1
f 329/1/1 325/1/1 328/1/1
f 330/1/1 311/1/1 326/1/1
f 330/3/1 326/3/1 329/3/1
f 331/1/1 311/1/1 330/1/1
f 332/1/1 329/1/1 328/1/1
f 332/1/1 328/1/1 327/1/1
f 332/3/1 331/3/1 330/3/1
f 332/1/1 330/1/1 329/1/1
f 333/3/1 331/3/1 332/3/1
f 334/1/1 332/1/1 327/1/1
f 334/1/1 333/1/1 332/1/1
f 335/1/1 333/1/1 334/1/1
f 336/3/1 335/3/1 334/3/1
f 337/1/1 333/1/1 335/1/1
f 337/3/1 335/3/1 336/3/1
f 338/1/1 333/1/1 337/1/1
f 339/1/1 337/1/1 336/1/1
f 339/3/1 338/3/1 337/3/1
f 340/1/1 333/1/1 338/1/1
f 340/3/1 338/3/1 339/3/1
f 341/1/1 333/1/1 340/1/1
f 342/1/1 340/1/1 339/1/1
f 343/3/1 341/3/1 340/3/1
f 343/1/1 340/1/1 342/1/1
f 344/3/1 341/3/1 343/3/1
f 345/3/1 341/3/1 344/3/1
f 346/1/1 339/1/1 336/1/1
f 346/1/1 342/1/1 339/1/1
f 347/3/1 343/3/1 342/3/1
f 347/1/1 342/1/1 346/1/1
f 347/3/1 344/3/1 343/3/1
f 348/1/1 345/1/1 344/1/1
f 348/3/1 344/3/1 347/3/1
f 349/1/1 346/1/1 336/1/1
f 350/3/1 347/3/1 346/3/1
f 350/1/1 346/1/1 349/1/1
f 351/1/1 348/1/1 347/1/1
f 351/3/1 347/3/1 350/3/1
f 352/3/1 350/3/1 349/3/1
f 353/1/1 351/1/1 350/1/1
f 353/3/1 350/3/1 352/3/1
f 354/1/1 353/1/1 352/1/1
f 355/1/1 351/1/1 353/1/1
f 355/1/1 353/1/1 354/1/1
f 356/1/1 354/1/1 352/1/1
f 356/3/1 355/3/1 354/3/1
f 357/3/1 355/3/1 356/3/1
f 358/1/1 351/1/1 355/1/1
f 358/3/1 355/3/1 357/3/1
f 359/1/1 345/1/1 348/1/1
f 359/1/1 351/1/1 358/1/1
f 359/1/1 348/1/1 351/1/1
f 360/1/1 356/1/1 352/1/1
f 360/1/1 357/1/1 356/1/1
f 361/3/1 358/3/1 357/3/1
f 361/1/1 357/1/1 360/1/1
f 361/3/1 359/3/1 358/3/1
f 362/3/1 359/3/1 361/3/1
f 363/3/1 361/3/1 360/3/1
f 364/1/1 362/1/1 361/1/1
f 364/3/1 361/3/1 363/3/1
f 365/3/1 359/3/1 362/3/1
f 365/1/1 362/1/1 364/1/1
f 366/3/1 359/3/1 365/3/1
f 367/3/1 363/3/1 360/3/1
f 368/1/1 364/1/1 363/1/1
f 368/3/1 363/3/1 367/3/1
f 368/1/1 365/1/1 364/1/1
f 368/1/1 366/1/1 365/1/1
f 369/1/1 368/1/1 367/1/1
f 370/1/1 366/1/1 368/1/1
f 370/1/1 368/1/1 369/1/1
f 371/3/1 370/3/1 369/3/1
f 371/1/1 366/1/1 370/1/1
f 372/1/1 366/1/1 371/1/1
f 373/1/1 366/1/1 372/1/1
f 374/1/1 366/1/1 373/1/1
f 375/3/1 371/3/1 369/3/1
f 375/3/1 372/3/1 371/3/1
f 376/1/1 373/1/1 372/1/1
f 376/3/1 372/3/1 375/3/1
f 377/3/1 374/3/1 373/3/1
f 377/1/1 373/1/1 376/1/1
f 378/1/1 376/1/1 375/1/1
f 379/3/1 377/3/1 376/3/1
f 379/1/1 376/1/1 378/1/1
f 380/3/1 377/3/1 379/3/1
f 381/3/1 374/3/1 377/3/1
f 381/3/1 377/3/1 380/3/1
f 382/3/1 380/3/1 379/3/1
f 382/1/1 378/1/1 375/1/1
f 382/3/1 379/3/1 378/3/1
f 383/1/1 381/1/1 380/1/1
f 383/3/1 380/3/1 382/3/1
f 384/1/1 382/1/1 375/1/1
f 384/1/1 383/1/1 382/1/1
f 385/1/1 383/1/1 384/1/1
f 386/3/1 385/3/1 384/3/1
f 387/1/1 383/1/1 385/1/1
f 387/3/1 385/3/1 386/3/1
f 388/1/1 381/1/1 383/1/1
f 388/1/1 383/1/1 387/1/1
f 389/1/1 387/1/1 386/1/1
f 389/3/1 388/3/1 387/3/1
f 390/1/1 381/1/1 388/1/1
f 390/3/1 388/3/1 389/3/1
f 391/1/1 381/1/1 390/1/1
f 392/1/1 390/1/1 389/1/1
f 392/3/1 391/3/1 390/3/1
f 393/3/1 391/3/1 392/3/1
f 394/1/1 381/1/1 391/1/1
f 394/3/1 391/3/1 393/3/1
f 395/1/1 381/1/1 394/1/1
f 396/1/1 393/1/1 392/1/1
f 396/1/1 392/1/1 389/1/1
f 397/3/1 395/3/1 394/3/1
f 397/1/1 393/1/1 396/1/1
f 397/3/1 394/3/1 393/3/1
f 398/3/1 395/3/1 397/3/1
f 399/1/1 389/1/1 386/1/1
f 399/1/1 396/1/1 389/1/1
f 400/3/1 397/3/1 396/3/1
f 400/1/1 396/1/1 399/1/1
f 401/1/1 398/1/1 397/1/1
f 401/3/1 397/3/1 400/3/1
f 402/3/1 400/3/1 399/3/1
f 403/1/1 401/1/1 400/1/1
f 403/3/1 400/3/1 402/3/1
f 404/1/1 398/1/1 401/1/1
f 404/1/1 401/1/1 403/1/1
f 404/1/1 403/1/1 402/1/1
f 405/1/1 398/1/1 404/1/1
f 406/1/1 404/1/1 402/1/1
f 407/1/1 404/1/1 406/1/1
f 408/1/1 404/1/1 407/1/1
f 409/3/1 405/3/1 404/3/1
f 409/1/1 404/1/1 408/1/1
f 410/3/1 405/3/1 409/3/1
f 411/1/1 408/1/1 407/1/1
f 411/3/1 407/3/1 406/3/1
f 412/3/1 409/3/1 408/3/1
f 412/1/1 408/1/1 411/1/1
f 413/1/1 410/1/1 409/1/1
f 413/3/1 409/3/1 412/3/1
f 414/3/1 412/3/1 411/3/1
f 414/3/1 411/3/1 406/3/1
f 415/3/1 412/3/1 414/3/1
f 416/3/1 412/3/1 415/3/1
f 417/1/1 413/1/1 412/1/1
f 417/3/1 412/3/1 416/3/1
f 418/3/1 416/3/1 415/3/1
f 418/1/1 415/1/1 414/1/1
f 419/1/1 417/1/1 416/1/1
f 419/3/1 416/3/1 418/3/1
f 420/1/1 413/1/1 417/1/1
f 420/1/1 417/1/1 419/1/1
f 421/1/1 419/1/1 418/1/1
f 421/1/1 418/1/1 414/1/1
f 422/1/1 419/1/1 421/1/1
f 423/3/1 420/3/1 419/3/1
f 423/1/1 419/1/1 422/1/1
f 424/1/1 413/1/1 420/1/1
f 424/3/1 420/3/1 423/3/1
f 425/1/1 413/1/1 424/1/1
f 426/3/1 422/3/1 421/3/1
f 427/1/1 423/1/1 422/1/1
f 427/3/1 422/3/1 426/3/1
f 427/1/1 424/1/1 423/1/1
f 428/3/1 425/3/1 424/3/1
f 428/1/1 424/1/1 427/1/1
f 429/1/1 413/1/1 425/1/1
f 429/3/1 425/3/1 428/3/1
f 430/1/1 413/1/1 429/1/1
f 431/1/1 410/1/1 413/1/1
f 431/1/1 413/1/1 430/1/1
f 432/1/1 410/1/1 431/1/1
f 433/3/1 430/3/1 429/3/1
f 433/1/1 428/1/1 427/1/1
f 433/1/1 427/1/1 426/1/1
f 433/1/1 429/1/1 428/1/1
f 434/1/1 431/1/1 430/1/1
f 434/3/1 430/3/1 433/3/1
f 435/1/1 431/1/1 434/1/1
f 436/3/1 432/3/1 431/3/1
f 436/1/1 431/1/1 435/1/1
f 437/3/1 432/3/1 436/3/1
f 438/1/1 433/1/1 426/1/1
f 438/1/1 434/1/1 433/1/1
f 439/1/1 434/1/1 438/1/1
f 440/3/1 439/3/1 438/3/1
f 440/1/1 434/1/1 439/1/1
f 441/3/1 435/3/1 434/3/1
f 441/1/1 434/1/1 440/1/1
f 442/1/1 437/1/1 436/1/1
f 442/3/1 435/3/1 441/3/1
f 442/1/1 436/1/1 435/1/1
f 443/1/1 437/1/1 442/1/1
f 444/1/1 437/1/1 443/1/1
f 445/1/1 437/1/1 444/1/1
f 446/3/1 440/3/1 438/3/1
f 446/3/1 441/3/1 440/3/1
f 446/3/1 442/3/1 441/3/1
f 446/3/1 443/3/1 442/3/1
f 447/3/1 443/3/1 446/3/1
f 448/1/1 444/1/1 443/1/1
f 448/3/1 443/3/1 447/3/1
f 449/4/1 445/4/1 444/4/1
f 449/1/1 444/1/1 448/1/1
f 450/4/1 445/4/1 449/4/1
f 451/1/1 447/1/1 446/1/1
f 452/3/1 448/3/1 447/3/1
f 452/1/1 447/1/1 451/1/1
f 453/4/1 449/4/1 448/4/1
f 453/3/1 448/3/1 452/3/1
f 454/3/1 450/3/1 449/3/1
f 454/4/1 449/4/1 453/4/1
f 455/3/1 446/3/1 438/3/1
f 456/1/1 451/1/1 446/1/1
f 456/3/1 446/3/1 455/3/1
f 457/1/1 451/1/1 456/1/1
f 458/1/1 451/1/1 457/1/1
f 459/4/1 452/4/1 451/4/1
f 459/1/1 451/1/1 458/1/1
f 459/4/1 453/4/1 452/4/1
f 460/1/1 454/1/1 453/1/1
f 460/4/1 453/4/1 459/4/1
f 461/3/1 450/3/1 454/3/1
f 461/1/1 454/1/1 460/1/1
f 462/3/1 450/3/1 461/3/1
f 463/1/1 458/1/1 457/1/1
f 464/4/1 459/4/1 458/4/1
f 464/1/1 458/1/1 463/1/1
f 465/1/1 460/1/1 459/1/1
f 465/4/1 459/4/1 464/4/1
f 465/1/1 461/1/1 460/1/1
f 465/1/1 462/1/1 461/1/1
f 466/3/1 457/3/1 456/3/1
f 466/1/1 463/1/1 457/1/1
f 467/4/1 464/4/1 463/4/1
f 467/1/1 463/1/1 466/1/1
f 468/1/1 465/1/1 464/1/1
f 468/4/1 464/4/1 467/4/1
f 469/3/1 466/3/1 456/3/1
f 469/1/1 456/1/1 455/1/1
f 470/4/1 467/4/1 466/4/1
f 470/3/1 466/3/1 469/3/1
f 471/1/1 468/1/1 467/1/1
f 471/4/1 467/4/1 470/4/1
f 472/1/1 469/1/1 455/1/1
f 473/4/1 470/4/1 469/4/1
f 473/1/1 469/1/1 472/1/1
f 474/1/1 471/1/1 470/1/1
f 474/4/1 470/4/1 473/4/1
f 475/1/1 471/1/1 474/1/1
f 476/4/1 473/4/1 472/4/1
f 477/1/1 474/1/1 473/1/1
f 477/4/1 473/4/1 476/4/1
f 478/1/1 465/1/1 468/1/1
f 478/1/1 462/1/1 465/1/1
f 478/1/1 468/1/1 471/1/1
f 478/1/1 471/1/1 475/1/1
f 479/1/1 462/1/1 478/1/1
f 480/3/1 475/3/1 474/3/1
f 480/1/1 478/1/1 475/1/1
f 481/3/1 479/3/1 478/3/1
f 481/1/1 478/1/1 480/1/1
f 482/3/1 479/3/1 481/3/1
f 483/1/1 474/1/1 477/1/1
f 483/1/1 477/1/1 476/1/1
f 484/3/1 480/3/1 474/3/1
f 484/1/1 474/1/1 483/1/1
f 484/3/1 481/3/1 480/3/1
f 485/3/1 481/3/1 484/3/1
f 486/1/1 482/1/1 481/1/1
f 486/3/1 481/3/1 485/3/1
f 487/3/1 485/3/1 484/3/1
f 487/1/1 483/1/1 476/1/1
f 487/3/1 484/3/1 483/3/1
f 488/3/1 485/3/1 487/3/1
f 489/1/1 487/1/1 476/1/1
f 489/1/1 488/1/1 487/1/1
f 490/1/1 488/1/1 489/1/1
f 491/3/1 485/3/1 488/3/1
f 491/1/1 488/1/1 490/1/1
f 492/1/1 486/1/1 485/1/1
f 492/3/1 485/3/1 491/3/1
f 493/1/1 486/1/1 492/1/1
f 494/1/1 491/1/1 490/1/1
f 494/3/1 490/3/1 489/3/1
f 494/1/1 492/1/1 491/1/1
f 495/3/1 493/3/1 492/3/1
f 495/1/1 492/1/1 494/1/1
f 496/3/1 493/3/1 495/3/1
f 497/1/1 486/1/1 493/1/1
f 497/3/1 493/3/1 496/3/1
f 498/3/1 496/3/1 495/3/1
f 498/3/1 494/3/1 489/3/1
f 498/3/1 495/3/1 494/3/1
f 499/1/1 497/1/1 496/1/1
f 499/3/1 496/3/1 498/3/1
f 500/1/1 497/1/1 499/1/1
f 501/1/1 499/1/1 498/1/1
f 501/3/1 500/3/1 499/3/1
f 502/1/1 497/1/1 500/1/1
f 502/3/1 500/3/1 501/3/1
f 503/1/1 486/1/1 497/1/1
f 503/1/1 497/1/1 502/1/1
f 504/1/1 502/1/1 501/1/1
f 504/3/1 503/3/1 502/3/1
f 505/1/1 486/1/1 503/1/1
f 505/3/1 503/3/1 504/3/1
f 506/1/1 482/1/1 486/1/1
f 506/1/1 486/1/1 505/1/1
f 507/1/1 482/1/1 506/1/1
f 508/1/1 482/1/1 507/1/1
f 509/1/1 505/1/1 504/1/1
f 509/3/1 506/3/1 505/3/1
f 510/1/1 507/1/1 506/1/1
f 510/3/1 506/3/1 509/3/1
f 511/3/1 508/3/1 507/3/1
f 511/1/1 507/1/1 510/1/1
f 512/1/1 482/1/1 508/1/1
f 512/3/1 508/3/1 511/3/1
f 513/1/1 482/1/1 512/1/1
f 514/1/1 504/1/1 501/1/1
f 514/1/1 501/1/1 498/1/1
f 514/1/1 510/1/1 509/1/1
f 514/1/1 509/1/1 504/1/1
f 515/1/1 510/1/1 514/1/1
f 516/3/1 515/3/1 514/3/1
f 517/1/1 510/1/1 515/1/1
f 517/3/1 515/3/1 516/3/1
f 518/3/1 511/3/1 510/3/1
f 518/1/1 510/1/1 517/1/1
f 519/1/1 512/1/1 511/1/1
f 519/3/1 511/3/1 518/3/1
f 520/3/1 513/3/1 512/3/1
f 520/1/1 512/1/1 519/1/1
f 521/3/1 513/3/1 520/3/1
f 522/1/1 517/1/1 516/1/1
f 522/1/1 519/1/1 518/1/1
f 522/1/1 518/1/1 517/1/1
f 522/3/1 520/3/1 519/3/1
f 523/1/1 521/1/1 520/1/1
f 523/3/1 520/3/1 522/3/1
f 524/1/1 521/1/1 523/1/1
f 525/1/1 522/1/1 516/1/1
f 525/1/1 523/1/1 522/1/1
f 526/3/1 524/3/1 523/3/1
f 526/1/1 523/1/1 525/1/1
f 527/3/1 524/3/1 526/3/1
f 528/1/2 529/1/2 530/1/2
f 530/1/2 529/1/2 531/1/2
f 530/4/2 531/4/2 532/4/2
f 531/1/2 529/1/2 533/1/2
f 532/4/2 531/4/2 533/4/2
f 532/1/2 533/1/2 534/1/2
f 533/1/2 529/1/2 534/1/2
f 534/1/2 529/1/2 535/1/2
f 532/1/2 534/1/2 536/1/2
f 534/3/2 535/3/2 536/3/2
f 536/3/2 535/3/2 537/3/2
f 532/1/2 536/1/2 538/1/2
f 536/1/2 537/1/2 538/1/2
f 538/1/2 537/1/2 539/1/2
f 539/1/2 537/1/2 540/1/2
f 540/1/2 537/1/2 541/1/2
f 532/1/2 538/1/2 542/1/2
f 538/2/2 539/2/2 542/2/2
f 539/1/2 540/1/2 543/1/2
f 542/2/2 539/2/2 543/2/2
f 540/2/2 541/2/2 544/2/2
f 543/1/2 540/1/2 544/1/2
f 544/2/2 541/2/2 545/2/2
f 542/1/2 543/1/2 546/1/2
f 532/1/2 542/1/2 546/1/2
f 544/1/2 545/1/2 546/1/2
f 543/1/2 544/1/2 546/1/2
f 546/1/2 545/1/2 547/1/2
f 547/1/2 545/1/2 548/1/2
f 548/1/2 545/1/2 549/1/2
f 532/1/2 546/1/2 550/1/2
f 546/2/2 547/2/2 550/2/2
f 547/1/2 548/1/2 551/1/2
f 550/2/2 547/2/2 551/2/2
f 548/2/2 549/2/2 552/2/2
f 551/1/2 548/1/2 552/1/2
f 552/2/2 549/2/2 553/2/2
f 550/1/2 551/1/2 554/1/2
f 532/1/2 550/1/2 554/1/2
f 551/1/2 552/1/2 554/1/2
f 552/3/2 553/3/2 555/3/2
f 554/1/2 552/1/2 555/1/2
f 555/3/2 553/3/2 556/3/2
f 532/1/2 554/1/2 557/1/2
f 557/1/2 554/1/2 558/1/2
f 558/1/2 554/1/2 559/1/2
f 554/3/2 555/3/2 560/3/2
f 559/1/2 554/1/2 560/1/2
f 560/3/2 555/3/2 561/3/2
f 561/3/2 555/3/2 562/3/2
f 555/1/2 556/1/2 563/1/2
f 562/3/2 555/3/2 563/3/2
f 563/1/2 556/1/2 564/1/2
f 557/2/2 558/2/2 565/2/2
f 558/1/2 559/1/2 566/1/2
f 565/2/2 558/2/2 566/2/2
f 559/3/2 560/3/2 567/3/2
f 566/1/2 559/1/2 567/1/2
f 560/1/2 561/1/2 568/1/2
f 567/3/2 560/3/2 568/3/2
f 561/2/2 562/2/2 569/2/2
f 568/1/2 561/1/2 569/1/2
f 562/1/2 563/1/2 570/1/2
f 569/2/2 562/2/2 570/2/2
f 563/2/2 564/2/2 571/2/2
f 570/1/2 563/1/2 571/1/2
f 571/2/2 564/2/2 572/2/2
f 565/3/2 566/3/2 573/3/2
f 566/3/2 567/3/2 573/3/2
f 567/1/2 568/1/2 574/1/2
f 573/3/2 567/3/2 574/3/2
f 571/1/2 572/1/2 574/1/2
f 570/1/2 571/1/2 574/1/2
f 569/1/2 570/1/2 574/1/2
f 568/1/2 569/1/2 574/1/2
f 573/1/2 574/1/2 575/1/2
f 575/1/2 574/1/2 576/1/2
f 574/1/2 572/1/2 577/1/2
f 576/1/2 574/1/2 577/1/2
f 577/1/2 572/1/2 578/1/2
f 578/1/2 572/1/2 579/1/2
f 579/1/2 572/1/2 580/1/2
f 580/1/2 572/1/2 581/1/2
f 581/1/2 572/1/2 582/1/2
f 575/2/2 576/2/2 583/2/2
f 576/1/2 577/1/2 584/1/2
f 583/2/2 576/2/2 584/2/2
f 577/2/2 578/2/2 585/2/2
f 584/1/2 577/1/2 585/1/2
f 578/1/2 579/1/2 586/1/2
f 585/2/2 578/2/2 586/2/2
f 579/2/2 580/2/2 587/2/2
f 586/1/2 579/1/2 587/1/2
f 580/1/2 581/1/2 588/1/2
f 587/2/2 580/2/2 588/2/2
f 581/2/2 582/2/2 589/2/2
f 588/1/2 581/1/2 589/1/2
f 589/2/2 582/2/2 590/2/2
f 583/1/2 584/1/2 591/1/2
f 584/1/2 585/1/2 591/1/2
f 589/1/2 590/1/2 591/1/2
f 588/1/2 589/1/2 591/1/2
f 587/1/2 588/1/2 591/1/2
f 586/1/2 587/1/2 591/1/2
f 585/1/2 586/1/2 591/1/2
f 591/1/2 590/1/2 592/1/2
f 591/3/2 592/3/2 593/3/2
f 592/1/2 590/1/2 594/1/2
f 593/3/2 592/3/2 594/3/2
f 594/1/2 590/1/2 595/1/2
f 593/1/2 594/1/2 596/1/2
f 594/3/2 595/3/2 596/3/2
f 595/1/2 590/1/2 597/1/2
f 596/3/2 595/3/2 597/3/2
f 597/1/2 590/1/2 598/1/2
f 596/1/2 597/1/2 599/1/2
f 597/3/2 598/3/2 599/3/2
f 598/1/2 590/1/2 600/1/2
f 599/3/2 598/3/2 600/3/2
f 600/1/2 590/1/2 601/1/2
f 599/1/2 600/1/2 602/1/2
f 600/3/2 601/3/2 602/3/2
f 601/1/2 590/1/2 603/1/2
f 602/3/2 601/3/2 603/3/2
f 603/1/2 590/1/2 604/1/2
f 604/1/2 590/1/2 605/1/2
f 605/1/2 590/1/2 606/1/2
f 602/1/2 603/1/2 607/1/2
f 603/3/2 604/3/2 607/3/2
f 604/1/2 605/1/2 608/1/2
f 607/3/2 604/3/2 608/3/2
f 608/1/2 605/1/2 609/1/2
f 605/3/2 606/3/2 610/3/2
f 609/1/2 605/1/2 610/1/2
f 610/3/2 606/3/2 611/3/2
f 608/3/2 609/3/2 612/3/2
f 607/1/2 608/1/2 612/1/2
f 610/1/2 611/1/2 613/1/2
f 612/3/2 609/3/2 613/3/2
f 609/1/2 610/1/2 613/1/2
f 613/1/2 611/1/2 614/1/2
f 612/1/2 613/1/2 615/1/2
f 613/3/2 614/3/2 615/3/2
f 614/1/2 611/1/2 616/1/2
f 615/3/2 614/3/2 616/3/2
f 616/1/2 611/1/2 617/1/2
f 615/1/2 616/1/2 618/1/2
f 616/3/2 617/3/2 618/3/2
f 618/3/2 617/3/2 619/3/2
f 615/1/2 618/1/2 620/1/2
f 618/1/2 619/1/2 620/1/2
f 620/1/2 619/1/2 621/1/2
f 615/1/2 620/1/2 622/1/2
f 620/4/2 621/4/2 622/4/2
f 622/4/2 621/4/2 623/4/2
f 615/1/2 622/1/2 624/1/2
f 622/1/2 623/1/2 624/1/2
f 624/1/2 623/1/2 625/1/2
f 593/1/2 596/1/2 626/1/2
f 596/1/2 599/1/2 626/1/2
f 599/1/2 602/1/2 626/1/2
f 615/1/2 624/1/2 626/1/2
f 602/1/2 607/1/2 626/1/2
f 607/1/2 612/1/2 626/1/2
f 612/1/2 615/1/2 626/1/2
f 624/3/2 625/3/2 627/3/2
f 626/1/2 624/1/2 627/1/2
f 626/3/2 627/3/2 628/3/2
f 627/3/2 625/3/2 629/3/2
f 628/3/2 627/3/2 629/3/2
f 628/1/2 629/1/2 630/1/2
f 630/1/2 629/1/2 631/1/2
f 628/1/2 630/1/2 632/1/2
f 630/3/2 631/3/2 633/3/2
f 632/1/2 630/1/2 633/1/2
f 633/3/2 631/3/2 634/3/2
f 628/1/2 632/1/2 635/1/2
f 632/3/2 633/3/2 636/3/2
f 635/1/2 632/1/2 636/1/2
f 633/1/2 634/1/2 637/1/2
f 636/3/2 633/3/2 637/3/2
f 635/3/2 636/3/2 638/3/2
f 636/1/2 637/1/2 639/1/2
f 638/3/2 636/3/2 639/3/2
f 638/1/2 639/1/2 640/1/2
f 639/1/2 637/1/2 640/1/2
f 640/1/2 637/1/2 641/1/2
f 637/1/2 634/1/2 642/1/2
f 641/1/2 637/1/2 642/1/2
f 642/1/2 634/1/2 643/1/2
f 638/1/2 640/1/2 644/1/2
f 640/2/2 641/2/2 645/2/2
f 644/1/2 640/1/2 645/1/2
f 641/1/2 642/1/2 646/1/2
f 645/2/2 641/2/2 646/2/2
f 646/1/2 642/1/2 647/1/2
f 642/2/2 643/2/2 648/2/2
f 647/1/2 642/1/2 648/1/2
f 648/2/2 643/2/2 649/2/2
f 644/3/2 645/3/2 650/3/2
f 646/3/2 647/3/2 650/3/2
f 645/3/2 646/3/2 650/3/2
f 648/1/2 649/1/2 651/1/2
f 650/3/2 647/3/2 651/3/2
f 647/1/2 648/1/2 651/1/2
f 651/1/2 649/1/2 652/1/2
f 650/1/2 651/1/2 653/1/2
f 653/1/2 651/1/2 654/1/2
f 651/3/2 652/3/2 655/3/2
f 654/1/2 651/1/2 655/1/2
f 655/3/2 652/3/2 656/3/2
f 656/3/2 652/3/2 657/3/2
f 653/2/2 654/2/2 658/2/2
f 650/1/2 653/1/2 658/1/2
f 654/1/2 655/1/2 659/1/2
f 658/2/2 654/2/2 659/2/2
f 655/1/2 656/1/2 659/1/2
f 656/2/2 657/2/2 660/2/2
f 659/1/2 656/1/2 660/1/2
f 660/2/2 657/2/2 661/2/2
f 658/1/2 659/1/2 662/1/2
f 650/1/2 658/1/2 662/1/2
f 660/1/2 661/1/2 662/1/2
f 659/1/2 660/1/2 662/1/2
f 662/1/2 661/1/2 663/1/2
f 663/1/2 661/1/2 664/1/2
f 664/1/2 661/1/2 665/1/2
f 665/1/2 661/1/2 666/1/2
f 666/1/2 661/1/2 667/1/2
f 667/1/2 661/1/2 668/1/2
f 668/1/2 661/1/2 669/1/2
f 662/2/2 663/2/2 670/2/2
f 663/1/2 664/1/2 671/1/2
f 670/2/2 663/2/2 671/2/2
f 664/2/2 665/2/2 672/2/2
f 671/1/2 664/1/2 672/1/2
f 665/1/2 666/1/2 673/1/2
f 672/2/2 665/2/2 673/2/2
f 666/2/2 667/2/2 674/2/2
f 673/1/2 666/1/2 674/1/2
f 667/1/2 668/1/2 675/1/2
f 674/2/2 667/2/2 675/2/2
f 668/2/2 669/2/2 676/2/2
f 675/1/2 668/1/2 676/1/2
f 676/2/2 669/2/2 677/2/2
f 670/1/2 671/1/2 678/1/2
f 671/1/2 672/1/2 678/1/2
f 676/1/2 677/1/2 678/1/2
f 675/1/2 676/1/2 678/1/2
f 674/1/2 675/1/2 678/1/2
f 673/1/2 674/1/2 678/1/2
f 672/1/2 673/1/2 678/1/2
f 678/1/2 677/1/2 679/1/2
f 679/1/2 677/1/2 680/1/2
f 680/1/2 677/1/2 681/1/2
f 681/1/2 677/1/2 682/1/2
f 682/1/2 677/1/2 683/1/2
f 683/1/2 677/1/2 684/1/2
f 684/1/2 677/1/2 685/1/2
f 678/2/2 679/2/2 686/2/2
f 679/1/2 680/1/2 687/1/2
f 686/2/2 679/2/2 687/2/2
f 680/2/2 681/2/2 688/2/2
f 687/1/2 680/1/2 688/1/2
f 681/1/2 682/1/2 689/1/2
f 688/2/2 681/2/2 689/2/2
f 682/2/2 683/2/2 690/2/2
f 689/1/2 682/1/2 690/1/2
f 683/1/2 684/1/2 691/1/2
f 690/2/2 683/2/2 691/2/2
f 684/2/2 685/2/2 692/2/2
f 691/1/2 684/1/2 692/1/2
f 692/2/2 685/2/2 693/2/2
f 686/1/2 687/1/2 694/1/2
f 687/1/2 688/1/2 694/1/2
f 692/1/2 693/1/2 694/1/2
f 691/1/2 692/1/2 694/1/2
f 690/1/2 691/1/2 694/1/2
f 689/1/2 690/1/2 694/1/2
f 688/1/2 689/1/2 694/1/2
f 694/1/2 693/1/2 695/1/2
f 694/3/2 695/3/2 696/3/2
f 695/1/2 693/1/2 697/1/2
f 696/3/2 695/3/2 697/3/2
f 696/1/2 697/1/2 698/1/2
f 697/1/2 693/1/2 698/1/2
f 698/1/2 693/1/2 699/1/2
f 696/1/2 698/1/2 700/1/2
f 698/4/2 699/4/2 700/4/2
f 700/4/2 699/4/2 701/4/2
f 696/1/2 700/1/2 702/1/2
f 700/1/2 701/1/2 702/1/2
f 702/1/2 701/1/2 703/1/2
f 702/3/2 703/3/2 704/3/2
f 703/1/2 701/1/2 705/1/2
f 704/3/2 703/3/2 705/3/2
f 705/1/2 701/1/2 706/1/2
f 704/1/2 705/1/2 707/1/2
f 705/3/2 706/3/2 707/3/2
f 707/3/2 706/3/2 708/3/2
f 706/1/2 701/1/2 709/1/2
f 708/3/2 706/3/2 709/3/2
f 709/1/2 701/1/2 710/1/2
f 707/1/2 708/1/2 711/1/2
f 708/3/2 709/3/2 711/3/2
f 709/3/2 710/3/2 711/3/2
f 711/3/2 710/3/2 712/3/2
f 704/1/2 707/1/2 713/1/2
f 707/1/2 711/1/2 713/1/2
f 711/1/2 712/1/2 713/1/2
f 713/1/2 712/1/2 714/1/2
f 714/1/2 712/1/2 715/1/2
f 715/1/2 712/1/2 716/1/2
f 713/3/2 714/3/2 717/3/2
f 714/1/2 715/1/2 718/1/2
f 717/3/2 714/3/2 718/3/2
f 718/1/2 715/1/2 719/1/2
f 715/3/2 716/3/2 720/3/2
f 719/1/2 715/1/2 720/1/2
f 720/3/2 716/3/2 721/3/2
f 718/1/2 719/1/2 722/1/2
f 717/1/2 718/1/2 722/1/2
f 719/3/2 720/3/2 723/3/2
f 722/1/2 719/1/2 723/1/2
f 720/1/2 721/1/2 724/1/2
f 723/3/2 720/3/2 724/3/2
f 717/1/2 722/1/2 725/1/2
f 722/3/2 723/3/2 726/3/2
f 725/1/2 722/1/2 726/1/2
f 723/1/2 724/1/2 727/1/2
f 726/3/2 723/3/2 727/3/2
f 725/3/2 726/3/2 728/3/2
f 726/1/2 727/1/2 729/1/2
f 728/3/2 726/3/2 729/3/2
f 725/3/2 728/3/2 730/3/2
f 728/1/2 729/1/2 731/1/2
f 730/3/2 728/3/2 731/3/2
f 730/1/2 731/1/2 732/1/2
f 731/1/2 729/1/2 733/1/2
f 732/1/2 731/1/2 733/1/2
f 732/3/2 733/3/2 734/3/2
f 733/1/2 729/1/2 735/1/2
f 734/3/2 733/3/2 735/3/2
f 734/1/2 735/1/2 736/1/2
f 735/1/2 729/1/2 737/1/2
f 736/1/2 735/1/2 737/1/2
f 736/3/2 737/3/2 738/3/2
f 737/1/2 729/1/2 739/1/2
f 738/3/2 737/3/2 739/3/2
f 738/1/2 739/1/2 740/1/2
f 739/1/2 729/1/2 741/1/2
f 740/1/2 739/1/2 741/1/2
f 740/3/2 741/3/2 742/3/2
f 741/1/2 729/1/2 742/1/2
f 729/1/2 727/1/2 743/1/2
f 742/1/2 729/1/2 743/1/2
f 740/3/2 742/3/2 744/3/2
f 742/3/2 743/3/2 744/3/2
f 743/1/2 727/1/2 745/1/2
f 744/3/2 743/3/2 745/3/2
f 727/1/2 724/1/2 746/1/2
f 745/1/2 727/1/2 746/1/2
f 744/1/2 745/1/2 747/1/2
f 745/3/2 746/3/2 747/3/2
f 746/1/2 724/1/2 748/1/2
f 747/3/2 746/3/2 748/3/2
f 724/1/2 721/1/2 749/1/2
f 748/1/2 724/1/2 749/1/2
f 747/1/2 748/1/2 750/1/2
f 744/1/2 747/1/2 750/1/2
f 750/1/2 748/1/2 751/1/2
f 748/3/2 749/3/2 752/3/2
f 751/1/2 748/1/2 752/1/2
f 749/1/2 721/1/2 753/1/2
f 752/3/2 749/3/2 753/3/2
f 753/1/2 721/1/2 754/1/2
f 750/3/2 751/3/2 755/3/2
f 751/1/2 752/1/2 756/1/2
f 755/3/2 751/3/2 756/3/2
f 752/1/2 753/1/2 756/1/2
f 753/3/2 754/3/2 757/3/2
f 756/1/2 753/1/2 757/1/2
f 757/3/2 754/3/2 758/3/2
f 755/1/2 756/1/2 759/1/2
f 756/1/2 757/1/2 759/1/2
f 757/1/2 758/1/2 759/1/2
f 759/1/2 758/1/2 760/1/2
f 755/1/2 759/1/2 761/1/2
f 759/3/2 760/3/2 762/3/2
f 761/1/2 759/1/2 762/1/2
f 762/3/2 760/3/2 763/3/2
f 763/3/2 760/3/2 764/3/2
f 755/1/2 761/1/2 765/1/2
f 761/3/2 762/3/2 766/3/2
f 765/1/2 761/1/2 766/1/2
f 762/3/2 763/3/2 766/3/2
f 763/1/2 764/1/2 767/1/2
f 766/3/2 763/3/2 767/3/2
f 765/3/2 766/3/2 768/3/2
f 766/1/2 767/1/2 769/1/2
f 768/3/2 766/3/2 769/3/2
f 767/1/2 764/1/2 770/1/2
f 769/1/2 767/1/2 770/1/2
f 768/1/2 769/1/2 770/1/2
f 770/1/2 764/1/2 771/1/2
f 768/1/2 770/1/2 772/1/2
f 770/4/2 771/4/2 772/4/2
f 772/4/2 771/4/2 773/4/2
f 768/1/2 772/1/2 774/1/2
f 772/1/2 773/1/2 774/1/2
f 774/1/2 773/1/2 775/1/2
f 774/3/2 775/3/2 776/3/2
f 775/1/2 773/1/2 777/1/2
f 776/3/2 775/3/2 777/3/2
f 776/1/2 777/1/2 778/1/2
f 777/1/2 773/1/2 778/1/2
f 778/1/2 773/1/2 779/1/2
f 779/1/2 773/1/2 780/1/2
f 780/1/2 773/1/2 781/1/2
f 776/1/2 778/1/2 782/1/2
f 778/2/2 779/2/2 782/2/2
f 779/1/2 780/1/2 783/1/2
f 782/2/2 779/2/2 783/2/2
f 780/2/2 781/2/2 784/2/2
f 783/1/2 780/1/2 784/1/2
f 784/2/2 781/2/2 785/2/2
f 782/1/2 783/1/2 786/1/2
f 776/1/2 782/1/2 786/1/2
f 784/1/2 785/1/2 786/1/2
f 783/1/2 784/1/2 786/1/2
f 786/1/2 785/1/2 787/1/2
f 787/1/2 785/1/2 788/1/2
f 788/1/2 785/1/2 789/1/2
f 776/1/2 786/1/2 790/1/2
f 786/2/2 787/2/2 790/2/2
f 787/1/2 788/1/2 791/1/2
f 790/2/2 787/2/2 791/2/2
f 788/2/2 789/2/2 792/2/2
f 791/1/2 788/1/2 792/1/2
f 792/2/2 789/2/2 793/2/2
f 790/1/2 791/1/2 794/1/2
f 791/1/2 792/1/2 794/1/2
f 792/1/2 793/1/2 794/1/2
f 794/1/2 793/1/2 795/1/2
f 776/1/2 790/1/2 796/1/2
f 790/1/2 794/1/2 796/1/2
f 794/3/2 795/3/2 797/3/2
f 796/1/2 794/1/2 797/1/2
f 797/3/2 795/3/2 798/3/2
f 796/3/2 797/3/2 799/3/2
f 797/1/2 798/1/2 800/1/2
f 799/3/2 797/3/2 800/3/2
f 799/1/2 800/1/2 801/1/2
f 801/1/2 800/1/2 802/1/2
f 801/3/2 802/3/2 803/3/2
f 802/1/2 800/1/2 804/1/2
f 803/3/2 802/3/2 804/3/2
f 800/1/2 798/1/2 805/1/2
f 804/1/2 800/1/2 805/1/2
f 803/1/2 804/1/2 806/1/2
f 804/3/2 805/3/2 806/3/2
f 805/1/2 798/1/2 807/1/2
f 806/3/2 805/3/2 807/3/2
f 807/1/2 798/1/2 808/1/2
f 803/1/2 806/1/2 809/1/2
f 806/1/2 807/1/2 809/1/2
f 807/3/2 808/3/2 810/3/2
f 809/1/2 807/1/2 810/1/2
f 810/3/2 808/3/2 811/3/2
f 883/1/3 815/1/3 814/1/3
f 884/4/3 816/4/3 815/4/3
f 884/1/3 815/1/3 883/1/3
f 885/1/3 817/1/3 816/1/3
f 885/4/3 816/4/3 884/4/3
f 886/2/3 818/2/3 817/2/3
f 886/1/3 817/1/3 885/1/3
f 887/1/3 819/1/3 818/1/3
f 887/2/3 818/2/3 886/2/3
f 888/3/3 820/3/3 819/3/3
f 888/2/3 821/2/3 820/2/3
f 889/3/3 822/3/3 821/3/3
f 889/2/3 821/2/3 888/2/3
f 890/1/3 823/1/3 822/1/3
f 890/2/3 824/2/3 823/2/3
f 891/1/3 825/1/3 824/1/3
f 891/2/3 824/2/3 890/2/3
f 892/2/3 826/2/3 825/2/3
f 892/1/3 825/1/3 891/1/3
f 893/1/3 827/1/3 826/1/3
f 893/2/3 826/2/3 892/2/3
f 894/3/3 828/3/3 827/3/3
f 894/1/3 827/1/3 893/1/3
f 895/1/3 829/1/3 828/1/3
f 895/3/3 828/3/3 894/3/3
f 896/4/3 830/4/3 829/4/3
f 896/1/3 829/1/3 895/1/3
f 897/1/3 831/1/3 830/1/3
f 897/4/3 830/4/3 896/4/3
f 898/3/3 832/3/3 831/3/3
f 898/1/3 831/1/3 897/1/3
f 899/1/3 833/1/3 832/1/3
f 899/3/3 832/3/3 898/3/3
f 900/1/3 835/1/3 834/1/3
f 900/4/3 836/4/3 835/4/3
f 901/1/3 837/1/3 836/1/3
f 901/4/3 836/4/3 900/4/3
f 902/3/3 838/3/3 837/3/3
f 902/1/3 837/1/3 901/1/3
f 903/1/3 839/1/3 838/1/3
f 903/3/3 838/3/3 902/3/3
f 904/1/3 841/1/3 840/1/3
f 904/2/3 842/2/3 841/2/3
f 905/1/3 843/1/3 842/1/3
f 905/2/3 842/2/3 904/2/3
f 906/2/3 844/2/3 843/2/3
f 906/1/3 843/1/3 905/1/3
f 907/1/3 845/1/3 844/1/3
f 907/2/3 844/2/3 906/2/3
f 908/2/3 846/2/3 845/2/3
f 908/1/3 845/1/3 907/1/3
f 909/1/3 847/1/3 846/1/3
f 909/2/3 846/2/3 908/2/3
f 910/2/3 848/2/3 847/2/3
f 910/1/3 847/1/3 909/1/3
f 911/3/3 849/3/3 848/3/3
f 911/2/3 848/2/3 910/2/3
f 912/1/3 850/1/3 849/1/3
f 912/3/3 849/3/3 911/3/3
f 913/4/3 851/4/3 850/4/3
f 913/1/3 850/1/3 912/1/3
f 914/1/3 852/1/3 851/1/3
f 914/4/3 851/4/3 913/4/3
f 915/3/3 853/3/3 852/3/3
f 915/1/3 852/1/3 914/1/3
f 916/3/3 853/3/3 915/3/3
f 917/1/3 856/1/3 855/1/3
f 917/3/3 857/3/3 856/3/3
f 918/3/3 857/3/3 917/3/3
f 919/1/3 858/1/3 857/1/3
f 919/3/3 857/3/3 918/3/3
f 920/3/3 859/3/3 858/3/3
f 920/1/3 858/1/3 919/1/3
f 921/1/3 860/1/3 859/1/3
f 921/3/3 859/3/3 920/3/3
f 922/1/3 862/1/3 861/1/3
f 922/3/3 863/3/3 862/3/3
f 923/1/3 864/1/3 863/1/3
f 923/3/3 863/3/3 922/3/3
f 924/3/3 865/3/3 864/3/3
f 924/1/3 864/1/3 923/1/3
f 925/1/3 866/1/3 865/1/3
f 925/3/3 865/3/3 924/3/3
f 926/1/3 868/1/3 867/1/3
f 926/3/3 869/3/3 868/3/3
f 927/1/3 870/1/3 869/1/3
f 927/3/3 869/3/3 926/3/3
f 928/3/3 871/3/3 870/3/3
f 928/1/3 870/1/3 927/1/3
f 929/3/3 871/3/3 928/3/3
f 930/1/3 872/1/3 871/1/3
f 930/3/3 871/3/3 929/3/3
f 931/3/3 875/3/3 874/3/3
f 932/1/3 876/1/3 875/1/3
f 932/3/3 875/3/3 931/3/3
f 933/4/3 877/4/3 876/4/3
f 933/1/3 876/1/3 932/1/3
f 934/1/3 878/1/3 877/1/3
f 934/4/3 877/4/3 933/4/3
f 935/3/3 879/3/3 878/3/3
f 935/1/3 878/1/3 934/1/3
f 936/1/3 880/1/3 879/1/3
f 936/3/3 879/3/3 935/3/3
f 937/1/3 885/1/3 884/1/3
f 937/1/3 886/1/3 885/1/3
f 937/1/3 819/1/3 887/1/3
f 937/1/3 887/1/3 886/1/3
f 937/3/3 888/3/3 819/3/3
f 938/1/3 889/1/3 888/1/3
f 938/3/3 888/3/3 937/3/3
f 939/3/3 822/3/3 889/3/3
f 939/1/3 889/1/3 938/1/3
f 940/1/3 890/1/3 822/1/3
f 940/3/3 822/3/3 939/3/3
f 940/1/3 891/1/3 890/1/3
f 940/1/3 892/1/3 891/1/3
f 940/1/3 893/1/3 892/1/3
f 940/1/3 894/1/3 893/1/3
f 940/1/3 895/1/3 894/1/3
f 940/1/3 896/1/3 895/1/3
f 940/1/3 897/1/3 896/1/3
f 940/1/3 898/1/3 897/1/3
f 940/1/3 899/1/3 898/1/3
f 941/1/3 899/1/3 940/1/3
f 942/3/3 834/3/3 833/3/3
f 942/1/3 899/1/3 941/1/3
f 942/1/3 833/1/3 899/1/3
f 943/1/3 900/1/3 834/1/3
f 943/3/3 834/3/3 942/3/3
f 943/1/3 901/1/3 900/1/3
f 943/1/3 902/1/3 901/1/3
f 943/1/3 903/1/3 902/1/3
f 944/1/3 903/1/3 943/1/3
f 945/3/3 840/3/3 839/3/3
f 945/1/3 903/1/3 944/1/3
f 945/1/3 839/1/3 903/1/3
f 946/1/3 915/1/3 914/1/3
f 946/3/3 840/3/3 945/3/3
f 946/1/3 904/1/3 840/1/3
f 946/1/3 905/1/3 904/1/3
f 946/1/3 906/1/3 905/1/3
f 946/1/3 907/1/3 906/1/3
f 946/1/3 908/1/3 907/1/3
f 946/1/3 909/1/3 908/1/3
f 946/1/3 910/1/3 909/1/3
f 946/1/3 911/1/3 910/1/3
f 946/1/3 912/1/3 911/1/3
f 946/1/3 913/1/3 912/1/3
f 946/1/3 914/1/3 913/1/3
f 946/1/3 916/1/3 915/1/3
f 947/1/3 916/1/3 946/1/3
f 948/3/3 853/3/3 916/3/3
f 949/1/3 854/1/3 853/1/3
f 949/3/3 853/3/3 948/3/3
f 950/1/3 854/1/3 949/1/3
f 951/3/3 920/3/3 919/3/3
f 951/3/3 919/3/3 918/3/3
f 952/1/3 921/1/3 920/1/3
f 952/3/3 920/3/3 951/3/3
f 953/1/3 860/1/3 921/1/3
f 953/1/3 921/1/3 952/1/3
f 953/3/3 861/3/3 860/3/3
f 954/1/3 923/1/3 922/1/3
f 954/3/3 861/3/3 953/3/3
f 954/1/3 922/1/3 861/1/3
f 955/1/3 923/1/3 954/1/3
f 956/1/3 925/1/3 924/1/3
f 956/1/3 866/1/3 925/1/3
f 957/3/3 867/3/3 866/3/3
f 957/1/3 866/1/3 956/1/3
f 958/1/3 927/1/3 926/1/3
f 958/3/3 867/3/3 957/3/3
f 958/1/3 926/1/3 867/1/3
f 959/3/3 928/3/3 927/3/3
f 959/1/3 927/1/3 958/1/3
f 959/3/3 929/3/3 928/3/3
f 960/3/3 929/3/3 959/3/3
f 961/1/3 874/1/3 873/1/3
f 962/3/3 931/3/3 874/3/3
f 962/1/3 874/1/3 961/1/3
f 963/3/3 931/3/3 962/3/3
f 964/1/3 880/1/3 936/1/3
f 964/1/3 936/1/3 935/1/3
f 964/1/3 935/1/3 934/1/3
f 964/1/3 934/1/3 933/1/3
f 964/1/3 933/1/3 932/1/3
f 964/1/3 932/1/3 931/1/3
f 965/3/3 881/3/3 880/3/3
f 965/1/3 880/1/3 964/1/3
f 966/1/3 882/1/3 881/1/3
f 966/3/3 881/3/3 965/3/3
f 967/1/3 883/1/3 814/1/3
f 968/4/3 884/4/3 883/4/3
f 968/1/3 883/1/3 967/1/3
f 969/1/3 938/1/3 937/1/3
f 969/4/3 884/4/3 968/4/3
f 969/1/3 937/1/3 884/1/3
f 970/1/3 938/1/3 969/1/3
f 971/1/3 938/1/3 970/1/3
f 972/3/3 941/3/3 940/3/3
f 972/1/3 942/1/3 941/1/3
f 972/1/3 943/1/3 942/1/3
f 973/1/3 943/1/3 972/1/3
f 974/1/3 943/1/3 973/1/3
f 975/1/3 943/1/3 974/1/3
f 976/1/3 916/1/3 947/1/3
f 977/1/3 916/1/3 976/1/3
f 978/1/3 916/1/3 977/1/3
f 979/1/3 916/1/3 978/1/3
f 980/1/3 916/1/3 979/1/3
f 981/1/3 916/1/3 980/1/3
f 982/1/3 916/1/3 981/1/3
f 983/1/3 916/1/3 982/1/3
f 984/1/3 917/1/3 855/1/3
f 984/1/3 918/1/3 917/1/3
f 985/3/3 951/3/3 918/3/3
f 985/1/3 918/1/3 984/1/3
f 986/1/3 923/1/3 955/1/3
f 987/3/3 924/3/3 923/3/3
f 987/1/3 923/1/3 986/1/3
f 988/1/3 956/1/3 924/1/3
f 988/3/3 924/3/3 987/3/3
f 989/1/3 956/1/3 988/1/3
f 990/1/3 930/1/3 929/1/3
f 990/3/3 929/3/3 960/3/3
f 991/1/3 872/1/3 930/1/3
f 991/1/3 930/1/3 990/1/3
f 992/2/3 971/2/3 970/2/3
f 992/1/3 970/1/3 969/1/3
f 992/1/3 969/1/3 968/1/3
f 993/1/3 938/1/3 971/1/3
f 993/2/3 971/2/3 992/2/3
f 994/3/3 939/3/3 938/3/3
f 994/1/3 938/1/3 993/1/3
f 995/1/3 940/1/3 939/1/3
f 995/3/3 939/3/3 994/3/3
f 996/3/3 972/3/3 940/3/3
f 996/1/3 940/1/3 995/1/3
f 997/2/3 973/2/3 972/2/3
f 997/3/3 972/3/3 996/3/3
f 998/1/3 974/1/3 973/1/3
f 998/2/3 973/2/3 997/2/3
f 999/1/3 974/1/3 998/1/3
f 1000/2/3 975/2/3 974/2/3
f 1000/1/3 974/1/3 999/1/3
f 1001/1/3 943/1/3 975/1/3
f 1001/2/3 975/2/3 1000/2/3
f 1002/1/3 976/1/3 947/1/3
f 1002/2/3 977/2/3 976/2/3
f 1003/1/3 978/1/3 977/1/3
f 1003/2/3 977/2/3 1002/2/3
f 1004/2/3 979/2/3 978/2/3
f 1004/1/3 978/1/3 1003/1/3
f 1005/1/3 980/1/3 979/1/3
f 1005/2/3 979/2/3 1004/2/3
f 1006/2/3 981/2/3 980/2/3
f 1006/1/3 980/1/3 1005/1/3
f 1007/1/3 982/1/3 981/1/3
f 1007/2/3 981/2/3 1006/2/3
f 1008/2/3 983/2/3 982/2/3
f 1008/1/3 982/1/3 1007/1/3
f 1009/1/3 916/1/3 983/1/3
f 1009/2/3 983/2/3 1008/2/3
f 1010/1/3 854/1/3 950/1/3
f 1010/3/3 950/3/3 949/3/3
f 1011/3/3 855/3/3 854/3/3
f 1011/1/3 854/1/3 1010/1/3
f 1012/1/3 984/1/3 855/1/3
f 1012/3/3 855/3/3 1011/3/3
f 1013/3/3 985/3/3 984/3/3
f 1013/1/3 984/1/3 1012/1/3
f 1014/3/3 951/3/3 985/3/3
f 1014/3/3 985/3/3 1013/3/3
f 1015/1/3 986/1/3 955/1/3
f 1016/3/3 987/3/3 986/3/3
f 1016/1/3 986/1/3 1015/1/3
f 1017/1/3 988/1/3 987/1/3
f 1017/3/3 987/3/3 1016/3/3
f 1018/3/3 989/3/3 988/3/3
f 1018/1/3 988/1/3 1017/1/3
f 1019/1/3 956/1/3 989/1/3
f 1019/3/3 989/3/3 1018/3/3
f 1020/1/3 956/1/3 1019/1/3
f 1021/3/3 990/3/3 960/3/3
f 1021/3/3 991/3/3 990/3/3
f 1022/1/3 872/1/3 991/1/3
f 1022/3/3 991/3/3 1021/3/3
f 1023/3/3 873/3/3 872/3/3
f 1023/1/3 872/1/3 1022/1/3
f 1024/1/3 961/1/3 873/1/3
f 1024/3/3 873/3/3 1023/3/3
f 1025/3/3 962/3/3 961/3/3
f 1025/1/3 961/1/3 1024/1/3
f 1026/1/3 813/1/3 812/1/3
f 1027/3/3 814/3/3 813/3/3
f 1027/1/3 813/1/3 1026/1/3
f 1028/1/3 967/1/3 814/1/3
f 1028/3/3 814/3/3 1027/3/3
f 1029/1/3 967/1/3 1028/1/3
f 1030/4/3 968/4/3 967/4/3
f 1030/1/3 967/1/3 1029/1/3
f 1031/1/3 993/1/3 992/1/3
f 1031/4/3 968/4/3 1030/4/3
f 1031/1/3 992/1/3 968/1/3
f 1031/1/3 994/1/3 993/1/3
f 1031/1/3 995/1/3 994/1/3
f 1032/1/3 997/1/3 996/1/3
f 1032/3/3 999/3/3 998/3/3
f 1032/3/3 998/3/3 997/3/3
f 1033/1/3 1000/1/3 999/1/3
f 1033/3/3 999/3/3 1032/3/3
f 1033/1/3 1001/1/3 1000/1/3
f 1034/1/3 1001/1/3 1033/1/3
f 1035/1/3 945/1/3 944/1/3
f 1035/1/3 946/1/3 945/1/3
f 1035/3/3 947/3/3 946/3/3
f 1036/1/3 1008/1/3 1007/1/3
f 1036/3/3 947/3/3 1035/3/3
f 1036/1/3 1007/1/3 1006/1/3
f 1036/1/3 1009/1/3 1008/1/3
f 1036/1/3 1006/1/3 1005/1/3
f 1036/1/3 1005/1/3 1004/1/3
f 1036/1/3 1004/1/3 1003/1/3
f 1036/1/3 1003/1/3 1002/1/3
f 1036/1/3 1002/1/3 947/1/3
f 1037/1/3 1009/1/3 1036/1/3
f 1038/1/3 916/1/3 1009/1/3
f 1038/1/3 1009/1/3 1037/1/3
f 1038/3/3 948/3/3 916/3/3
f 1039/1/3 949/1/3 948/1/3
f 1039/3/3 948/3/3 1038/3/3
f 1040/1/3 1012/1/3 1011/1/3
f 1040/3/3 1011/3/3 1010/3/3
f 1041/3/3 1013/3/3 1012/3/3
f 1041/1/3 1012/1/3 1040/1/3
f 1042/1/3 1014/1/3 1013/1/3
f 1042/3/3 1013/3/3 1041/3/3
f 1043/3/3 955/3/3 954/3/3
f 1043/1/3 1015/1/3 955/1/3
f 1044/3/3 1016/3/3 1015/3/3
f 1044/1/3 1015/1/3 1043/1/3
f 1045/1/3 1018/1/3 1017/1/3
f 1045/3/3 1016/3/3 1044/3/3
f 1045/1/3 1017/1/3 1016/1/3
f 1045/1/3 1019/1/3 1018/1/3
f 1046/3/3 1020/3/3 1019/3/3
f 1046/1/3 1019/1/3 1045/1/3
f 1047/1/3 956/1/3 1020/1/3
f 1047/3/3 1020/3/3 1046/3/3
f 1048/3/3 957/3/3 956/3/3
f 1048/1/3 956/1/3 1047/1/3
f 1049/3/3 1023/3/3 1022/3/3
f 1049/1/3 1022/1/3 1021/1/3
f 1050/1/3 1024/1/3 1023/1/3
f 1050/3/3 1023/3/3 1049/3/3
f 1051/3/3 1025/3/3 1024/3/3
f 1051/1/3 1024/1/3 1050/1/3
f 1052/3/3 931/3/3 963/3/3
f 1052/1/3 963/1/3 962/1/3
f 1053/1/3 964/1/3 931/1/3
f 1053/3/3 931/3/3 1052/3/3
f 1054/1/3 964/1/3 1053/1/3
f 1055/3/3 965/3/3 964/3/3
f 1055/1/3 964/1/3 1054/1/3
f 1056/1/3 966/1/3 965/1/3
f 1056/3/3 965/3/3 1055/3/3
f 1057/1/3 1031/1/3 1030/1/3
f 1057/3/3 996/3/3 995/3/3
f 1057/1/3 995/1/3 1031/1/3
f 1058/1/3 1033/1/3 1032/1/3
f 1058/3/3 996/3/3 1057/3/3
f 1058/1/3 1032/1/3 996/1/3
f 1059/1/3 1033/1/3 1058/1/3
f 1060/1/3 1033/1/3 1059/1/3
f 1061/3/3 1034/3/3 1033/3/3
f 1061/1/3 1033/1/3 1060/1/3
f 1062/1/3 1001/1/3 1034/1/3
f 1062/3/3 1034/3/3 1061/3/3
f 1063/1/3 943/1/3 1001/1/3
f 1063/1/3 1001/1/3 1062/1/3
f 1064/1/3 1035/1/3 944/1/3
f 1064/3/3 944/3/3 943/3/3
f 1064/1/3 1036/1/3 1035/1/3
f 1065/1/3 1036/1/3 1064/1/3
f 1066/1/3 1039/1/3 1038/1/3
f 1066/1/3 1038/1/3 1037/1/3
f 1067/1/3 1039/1/3 1066/1/3
f 1068/1/3 1039/1/3 1067/1/3
f 1069/1/3 1039/1/3 1068/1/3
f 1070/3/3 1040/3/3 1010/3/3
f 1070/3/3 1041/3/3 1040/3/3
f 1071/1/3 1042/1/3 1041/1/3
f 1071/3/3 1041/3/3 1070/3/3
f 1072/3/3 1051/3/3 1050/3/3
f 1072/1/3 1050/1/3 1049/1/3
f 1073/3/3 1025/3/3 1051/3/3
f 1073/3/3 1051/3/3 1072/3/3
f 1074/1/3 1029/1/3 1028/1/3
f 1074/1/3 1028/1/3 1027/1/3
f 1075/4/3 1030/4/3 1029/4/3
f 1075/1/3 1029/1/3 1074/1/3
f 1076/1/3 1057/1/3 1030/1/3
f 1076/4/3 1030/4/3 1075/4/3
f 1076/1/3 1058/1/3 1057/1/3
f 1077/3/3 1059/3/3 1058/3/3
f 1077/1/3 1058/1/3 1076/1/3
f 1078/2/3 1060/2/3 1059/2/3
f 1078/3/3 1059/3/3 1077/3/3
f 1079/1/3 1061/1/3 1060/1/3
f 1079/2/3 1060/2/3 1078/2/3
f 1079/1/3 1062/1/3 1061/1/3
f 1080/3/3 1063/3/3 1062/3/3
f 1080/1/3 1062/1/3 1079/1/3
f 1081/1/3 943/1/3 1063/1/3
f 1081/3/3 1063/3/3 1080/3/3
f 1082/1/3 943/1/3 1081/1/3
f 1083/3/3 1065/3/3 1064/3/3
f 1083/1/3 943/1/3 1082/1/3
f 1083/3/3 1064/3/3 943/3/3
f 1084/1/3 1036/1/3 1065/1/3
f 1084/3/3 1065/3/3 1083/3/3
f 1085/3/3 1037/3/3 1036/3/3
f 1085/1/3 1036/1/3 1084/1/3
f 1086/1/3 1066/1/3 1037/1/3
f 1086/3/3 1037/3/3 1085/3/3
f 1087/1/3 1066/1/3 1086/1/3
f 1088/2/3 1067/2/3 1066/2/3
f 1088/1/3 1066/1/3 1087/1/3
f 1089/1/3 1068/1/3 1067/1/3
f 1089/2/3 1067/2/3 1088/2/3
f 1090/2/3 1069/2/3 1068/2/3
f 1090/1/3 1068/1/3 1089/1/3
f 1091/1/3 1039/1/3 1069/1/3
f 1091/2/3 1069/2/3 1090/2/3
f 1092/1/3 1039/1/3 1091/1/3
f 1093/1/3 949/1/3 1039/1/3
f 1093/1/3 1039/1/3 1092/1/3
f 1093/3/3 1070/3/3 1010/3/3
f 1093/3/3 1010/3/3 949/3/3
f 1094/3/3 1070/3/3 1093/3/3
f 1095/1/3 1071/1/3 1070/1/3
f 1095/3/3 1070/3/3 1094/3/3
f 1096/1/3 1042/1/3 1071/1/3
f 1096/1/3 1071/1/3 1095/1/3
f 1097/1/3 954/1/3 953/1/3
f 1097/1/3 953/1/3 952/1/3
f 1097/1/3 952/1/3 951/1/3
f 1098/3/3 1044/3/3 1043/3/3
f 1098/1/3 954/1/3 1097/1/3
f 1098/3/3 1043/3/3 954/3/3
f 1099/3/3 1044/3/3 1098/3/3
f 1100/3/3 957/3/3 1048/3/3
f 1100/3/3 1048/3/3 1047/3/3
f 1101/1/3 958/1/3 957/1/3
f 1101/3/3 957/3/3 1100/3/3
f 1101/1/3 960/1/3 959/1/3
f 1101/1/3 959/1/3 958/1/3
f 1102/1/3 960/1/3 1101/1/3
f 1103/1/3 1072/1/3 1049/1/3
f 1103/1/3 1073/1/3 1072/1/3
f 1104/3/3 1025/3/3 1073/3/3
f 1104/1/3 1073/1/3 1103/1/3
f 1105/3/3 962/3/3 1025/3/3
f 1105/3/3 1025/3/3 1104/3/3
f 1106/1/3 1054/1/3 1053/1/3
f 1106/3/3 962/3/3 1105/3/3
f 1106/1/3 1052/1/3 962/1/3
f 1106/1/3 1053/1/3 1052/1/3
f 1107/1/3 1054/1/3 1106/1/3
f 1108/1/3 1054/1/3 1107/1/3
f 1109/3/3 1055/3/3 1054/3/3
f 1109/1/3 1054/1/3 1108/1/3
f 1110/1/3 1056/1/3 1055/1/3
f 1110/3/3 1055/3/3 1109/3/3
f 1111/1/3 1092/1/3 1091/1/3
f 1111/1/3 1090/1/3 1089/1/3
f 1111/1/3 1091/1/3 1090/1/3
f 1111/1/3 1088/1/3 1087/1/3
f 1111/1/3 1089/1/3 1088/1/3
f 1112/3/3 1093/3/3 1092/3/3
f 1112/1/3 1092/1/3 1111/1/3
f 1113/1/3 1094/1/3 1093/1/3
f 1113/3/3 1093/3/3 1112/3/3
f 1114/3/3 1095/3/3 1094/3/3
f 1114/1/3 1094/1/3 1113/1/3
f 1114/3/3 1096/3/3 1095/3/3
f 1115/1/3 1042/1/3 1096/1/3
f 1115/3/3 1096/3/3 1114/3/3
f 1116/1/3 1097/1/3 951/1/3
f 1117/3/3 1098/3/3 1097/3/3
f 1117/1/3 1097/1/3 1116/1/3
f 1118/3/3 1098/3/3 1117/3/3
f 1119/1/3 1099/1/3 1098/1/3
f 1119/3/3 1098/3/3 1118/3/3
f 1120/3/3 1044/3/3 1099/3/3
f 1120/1/3 1099/1/3 1119/1/3
f 1121/1/3 1046/1/3 1045/1/3
f 1121/3/3 1044/3/3 1120/3/3
f 1121/1/3 1045/1/3 1044/1/3
f 1121/1/3 1047/1/3 1046/1/3
f 1122/1/3 1047/1/3 1121/1/3
f 1123/1/3 1047/1/3 1122/1/3
f 1124/3/3 1100/3/3 1047/3/3
f 1124/1/3 1047/1/3 1123/1/3
f 1125/1/3 1101/1/3 1100/1/3
f 1125/3/3 1100/3/3 1124/3/3
f 1126/3/3 1102/3/3 1101/3/3
f 1126/1/3 1101/1/3 1125/1/3
f 1127/3/3 1102/3/3 1126/3/3
f 1128/1/3 960/1/3 1102/1/3
f 1128/3/3 1102/3/3 1127/3/3
f 1129/1/3 960/1/3 1128/1/3
f 1130/3/3 1104/3/3 1103/3/3
f 1130/3/3 1105/3/3 1104/3/3
f 1130/1/3 1103/1/3 1049/1/3
f 1131/1/3 1106/1/3 1105/1/3
f 1131/3/3 1105/3/3 1130/3/3
f 1132/3/3 1107/3/3 1106/3/3
f 1132/1/3 1106/1/3 1131/1/3
f 1133/1/3 1108/1/3 1107/1/3
f 1133/3/3 1107/3/3 1132/3/3
f 1134/1/3 1108/1/3 1133/1/3
f 1135/1/3 1026/1/3 812/1/3
f 1135/3/3 1027/3/3 1026/3/3
f 1136/1/3 1074/1/3 1027/1/3
f 1136/3/3 1027/3/3 1135/3/3
f 1137/1/3 1074/1/3 1136/1/3
f 1138/4/3 1075/4/3 1074/4/3
f 1138/1/3 1074/1/3 1137/1/3
f 1139/1/3 1078/1/3 1077/1/3
f 1139/4/3 1075/4/3 1138/4/3
f 1139/1/3 1077/1/3 1076/1/3
f 1139/1/3 1076/1/3 1075/1/3
f 1140/3/3 1079/3/3 1078/3/3
f 1140/1/3 1078/1/3 1139/1/3
f 1141/1/3 1080/1/3 1079/1/3
f 1141/3/3 1079/3/3 1140/3/3
f 1141/1/3 1081/1/3 1080/1/3
f 1142/1/3 1081/1/3 1141/1/3
f 1143/1/3 1081/1/3 1142/1/3
f 1144/3/3 1082/3/3 1081/3/3
f 1144/1/3 1081/1/3 1143/1/3
f 1145/1/3 1083/1/3 1082/1/3
f 1145/3/3 1082/3/3 1144/3/3
f 1145/1/3 1084/1/3 1083/1/3
f 1145/1/3 1086/1/3 1085/1/3
f 1145/1/3 1085/1/3 1084/1/3
f 1146/1/3 1086/1/3 1145/1/3
f 1147/1/3 1086/1/3 1146/1/3
f 1148/1/3 1086/1/3 1147/1/3
f 1149/1/3 1086/1/3 1148/1/3
f 1150/1/3 1086/1/3 1149/1/3
f 1151/3/3 1087/3/3 1086/3/3
f 1151/1/3 1086/1/3 1150/1/3
f 1152/1/3 1111/1/3 1087/1/3
f 1152/3/3 1087/3/3 1151/3/3
f 1153/1/3 1111/1/3 1152/1/3
f 1154/1/3 1111/1/3 1153/1/3
f 1155/1/3 1111/1/3 1154/1/3
f 1156/1/3 1111/1/3 1155/1/3
f 1157/1/3 1111/1/3 1156/1/3
f 1158/1/3 1111/1/3 1157/1/3
f 1159/3/3 1112/3/3 1111/3/3
f 1159/1/3 1111/1/3 1158/1/3
f 1160/1/3 1113/1/3 1112/1/3
f 1160/3/3 1112/3/3 1159/3/3
f 1161/1/3 1116/1/3 951/1/3
f 1162/3/3 1118/3/3 1117/3/3
f 1162/1/3 1116/1/3 1161/1/3
f 1162/3/3 1117/3/3 1116/3/3
f 1163/3/3 1118/3/3 1162/3/3
f 1164/1/3 1119/1/3 1118/1/3
f 1164/3/3 1118/3/3 1163/3/3
f 1164/1/3 1120/1/3 1119/1/3
f 1164/1/3 1121/1/3 1120/1/3
f 1165/3/3 1129/3/3 1128/3/3
f 1165/1/3 1127/1/3 1126/1/3
f 1165/3/3 1128/3/3 1127/3/3
f 1165/1/3 1126/1/3 1125/1/3
f 1165/1/3 1125/1/3 1124/1/3
f 1166/3/3 1129/3/3 1165/3/3
f 1167/1/3 960/1/3 1129/1/3
f 1167/3/3 1129/3/3 1166/3/3
f 1168/1/3 960/1/3 1167/1/3
f 1169/3/3 1134/3/3 1133/3/3
f 1169/1/3 1133/1/3 1132/1/3
f 1170/1/3 1108/1/3 1134/1/3
f 1170/3/3 1134/3/3 1169/3/3
f 1171/1/3 1108/1/3 1170/1/3
f 1172/1/3 1108/1/3 1171/1/3
f 1173/3/3 1109/3/3 1108/3/3
f 1173/1/3 1108/1/3 1172/1/3
f 1174/1/3 1110/1/3 1109/1/3
f 1174/3/3 1109/3/3 1173/3/3
f 1175/1/3 882/1/3 966/1/3
f 1175/1/3 1110/1/3 1174/1/3
f 1175/1/3 1056/1/3 1110/1/3
f 1175/1/3 966/1/3 1056/1/3
f 1176/1/3 882/1/3 1175/1/3
f 1177/1/3 1135/1/3 812/1/3
f 1177/1/3 1136/1/3 1135/1/3
f 1177/1/3 1137/1/3 1136/1/3
f 1178/4/3 1138/4/3 1137/4/3
f 1178/1/3 1137/1/3 1177/1/3
f 1179/1/3 1140/1/3 1139/1/3
f 1179/4/3 1138/4/3 1178/4/3
f 1179/1/3 1139/1/3 1138/1/3
f 1180/2/3 1141/2/3 1140/2/3
f 1180/1/3 1140/1/3 1179/1/3
f 1181/3/3 1142/3/3 1141/3/3
f 1181/2/3 1141/2/3 1180/2/3
f 1182/1/3 1143/1/3 1142/1/3
f 1182/3/3 1142/3/3 1181/3/3
f 1183/2/3 1144/2/3 1143/2/3
f 1183/1/3 1143/1/3 1182/1/3
f 1184/1/3 1145/1/3 1144/1/3
f 1184/2/3 1144/2/3 1183/2/3
f 1185/3/3 1146/3/3 1145/3/3
f 1185/1/3 1145/1/3 1184/1/3
f 1186/1/3 1147/1/3 1146/1/3
f 1186/3/3 1146/3/3 1185/3/3
f 1187/3/3 1148/3/3 1147/3/3
f 1187/1/3 1147/1/3 1186/1/3
f 1188/1/3 1149/1/3 1148/1/3
f 1188/3/3 1148/3/3 1187/3/3
f 1189/3/3 1150/3/3 1149/3/3
f 1189/1/3 1149/1/3 1188/1/3
f 1190/1/3 1151/1/3 1150/1/3
f 1190/3/3 1150/3/3 1189/3/3
f 1190/1/3 1152/1/3 1151/1/3
f 1191/3/3 1153/3/3 1152/3/3
f 1191/1/3 1152/1/3 1190/1/3
f 1192/1/3 1154/1/3 1153/1/3
f 1192/3/3 1153/3/3 1191/3/3
f 1193/2/3 1155/2/3 1154/2/3
f 1193/1/3 1154/1/3 1192/1/3
f 1194/1/3 1156/1/3 1155/1/3
f 1194/2/3 1155/2/3 1193/2/3
f 1195/2/3 1157/2/3 1156/2/3
f 1195/1/3 1156/1/3 1194/1/3
f 1196/1/3 1158/1/3 1157/1/3
f 1196/2/3 1157/2/3 1195/2/3
f 1197/3/3 1159/3/3 1158/3/3
f 1197/1/3 1158/1/3 1196/1/3
f 1198/1/3 1160/1/3 1159/1/3
f 1198/3/3 1159/3/3 1197/3/3
f 1199/1/3 1113/1/3 1160/1/3
f 1199/1/3 1160/1/3 1198/1/3
f 1199/3/3 1114/3/3 1113/3/3
f 1200/1/3 1115/1/3 1114/1/3
f 1200/3/3 1114/3/3 1199/3/3
f 1201/1/3 1042/1/3 1115/1/3
f 1201/1/3 1115/1/3 1200/1/3
f 1201/1/3 1014/1/3 1042/1/3
f 1201/3/3 951/3/3 1014/3/3
f 1202/1/3 1161/1/3 951/1/3
f 1202/3/3 951/3/3 1201/3/3
f 1203/3/3 1163/3/3 1162/3/3
f 1203/1/3 1161/1/3 1202/1/3
f 1203/3/3 1162/3/3 1161/3/3
f 1204/1/3 1164/1/3 1163/1/3
f 1204/3/3 1163/3/3 1203/3/3
f 1205/1/3 1121/1/3 1164/1/3
f 1205/1/3 1164/1/3 1204/1/3
f 1205/3/3 1122/3/3 1121/3/3
f 1206/1/3 1123/1/3 1122/1/3
f 1206/3/3 1122/3/3 1205/3/3
f 1207/3/3 1124/3/3 1123/3/3
f 1207/1/3 1123/1/3 1206/1/3
f 1208/1/3 1166/1/3 1165/1/3
f 1208/3/3 1124/3/3 1207/3/3
f 1208/1/3 1165/1/3 1124/1/3
f 1209/3/3 1167/3/3 1166/3/3
f 1209/1/3 1166/1/3 1208/1/3
f 1209/3/3 1168/3/3 1167/3/3
f 1210/1/3 960/1/3 1168/1/3
f 1210/3/3 1168/3/3 1209/3/3
f 1211/3/3 1021/3/3 960/3/3
f 1211/1/3 960/1/3 1210/1/3
f 1212/1/3 1049/1/3 1021/1/3
f 1212/3/3 1021/3/3 1211/3/3
f 1212/1/3 1131/1/3 1130/1/3
f 1212/1/3 1130/1/3 1049/1/3
f 1213/3/3 1132/3/3 1131/3/3
f 1213/1/3 1131/1/3 1212/1/3
f 1214/1/3 1169/1/3 1132/1/3
f 1214/3/3 1132/3/3 1213/3/3
f 1214/1/3 1170/1/3 1169/1/3
f 1215/3/3 1171/3/3 1170/3/3
f 1215/1/3 1170/1/3 1214/1/3
f 1216/1/3 1172/1/3 1171/1/3
f 1216/3/3 1171/3/3 1215/3/3
f 1217/3/3 1173/3/3 1172/3/3
f 1217/1/3 1172/1/3 1216/1/3
f 1218/1/3 1174/1/3 1173/1/3
f 1218/3/3 1173/3/3 1217/3/3
f 1218/1/3 1175/1/3 1174/1/3
f 1219/3/3 1176/3/3 1175/3/3
f 1219/1/3 1175/1/3 1218/1/3
f 1220/1/3 882/1/3 1176/1/3
f 1220/3/3 1176/3/3 1219/3/3
f 1221/1/3 882/1/3 1220/1/3
f 1222/4/4 1223/4/4 1270/4/4
f 1223/1/4 1224/1/4 1271/1/4
f 1270/4/4 1223/4/4 1271/4/4
f 1227/1/4 1228/1/4 1272/1/4
f 1228/3/4 1229/3/4 1272/3/4
f 1229/4/4 1230/4/4 1273/4/4
f 1272/3/4 1229/3/4 1273/3/4
f 1273/4/4 1230/4/4 1274/4/4
f 1230/3/4 1231/3/4 1275/3/4
f 1274/4/4 1230/4/4 1275/4/4
f 1231/1/4 1232/1/4 1276/1/4
f 1275/3/4 1231/3/4 1276/3/4
f 1276/1/4 1232/1/4 1277/1/4
f 1232/3/4 1233/3/4 1278/3/4
f 1277/1/4 1232/1/4 1278/1/4
f 1233/1/4 1234/1/4 1279/1/4
f 1278/3/4 1233/3/4 1279/3/4
f 1234/3/4 1235/3/4 1280/3/4
f 1279/1/4 1234/1/4 1280/1/4
f 1235/1/4 1236/1/4 1281/1/4
f 1280/3/4 1235/3/4 1281/3/4
f 1236/3/4 1237/3/4 1282/3/4
f 1281/1/4 1236/1/4 1282/1/4
f 1237/1/4 1238/1/4 1283/1/4
f 1282/3/4 1237/3/4 1283/3/4
f 1283/1/4 1238/1/4 1284/1/4
f 1238/3/4 1239/3/4 1285/3/4
f 1284/1/4 1238/1/4 1285/1/4
f 1239/1/4 1240/1/4 1286/1/4
f 1285/3/4 1239/3/4 1286/3/4
f 1241/1/4 1242/1/4 1287/1/4
f 1242/3/4 1243/3/4 1287/3/4
f 1243/4/4 1244/4/4 1288/4/4
f 1287/3/4 1243/3/4 1288/3/4
f 1246/1/4 1247/1/4 1289/1/4
f 1247/3/4 1248/3/4 1289/3/4
f 1248/1/4 1249/1/4 1290/1/4
f 1289/3/4 1248/3/4 1290/3/4
f 1290/1/4 1249/1/4 1291/1/4
f 1249/3/4 1250/3/4 1292/3/4
f 1291/1/4 1249/1/4 1292/1/4
f 1250/1/4 1251/1/4 1293/1/4
f 1292/3/4 1250/3/4 1293/3/4
f 1251/3/4 1252/3/4 1294/3/4
f 1293/1/4 1251/1/4 1294/1/4
f 1252/1/4 1253/1/4 1295/1/4
f 1294/3/4 1252/3/4 1295/3/4
f 1295/1/4 1253/1/4 1296/1/4
f 1296/1/4 1253/1/4 1297/1/4
f 1253/3/4 1254/3/4 1298/3/4
f 1297/1/4 1253/1/4 1298/1/4
f 1254/1/4 1255/1/4 1299/1/4
f 1298/3/4 1254/3/4 1299/3/4
f 1255/3/4 1256/3/4 1300/3/4
f 1299/1/4 1255/1/4 1300/1/4
f 1256/1/4 1257/1/4 1301/1/4
f 1300/3/4 1256/3/4 1301/3/4
f 1301/1/4 1257/1/4 1302/1/4
f 1257/3/4 1258/3/4 1303/3/4
f 1302/1/4 1257/1/4 1303/1/4
f 1258/1/4 1259/1/4 1304/1/4
f 1303/3/4 1258/3/4 1304/3/4
f 1261/4/4 1262/4/4 1305/4/4
f 1262/3/4 1263/3/4 1305/3/4
f 1263/1/4 1264/1/4 1306/1/4
f 1305/3/4 1263/3/4 1306/3/4
f 1265/1/4 1266/1/4 1307/1/4
f 1266/3/4 1267/3/4 1307/3/4
f 1267/1/4 1268/1/4 1308/1/4
f 1307/3/4 1267/3/4 1308/3/4
f 1308/1/4 1268/1/4 1309/1/4
f 1268/3/4 1269/3/4 1310/3/4
f 1309/1/4 1268/1/4 1310/1/4
f 1310/3/4 1269/3/4 1311/3/4
f 1277/1/4 1278/1/4 1312/1/4
f 1278/1/4 1279/1/4 1312/1/4
f 1279/3/4 1280/3/4 1312/3/4
f 1280/1/4 1281/1/4 1313/1/4
f 1312/3/4 1280/3/4 1313/3/4
f 1313/1/4 1281/1/4 1314/1/4
f 1281/3/4 1282/3/4 1315/3/4
f 1314/1/4 1281/1/4 1315/1/4
f 1283/1/4 1284/1/4 1316/1/4
f 1315/3/4 1282/3/4 1316/3/4
f 1282/1/4 1283/1/4 1316/1/4
f 1316/1/4 1284/1/4 1317/1/4
f 1317/1/4 1284/1/4 1318/1/4
f 1284/3/4 1285/3/4 1319/3/4
f 1318/1/4 1284/1/4 1319/1/4
f 1285/1/4 1286/1/4 1320/1/4
f 1319/3/4 1285/3/4 1320/3/4
f 1240/3/4 1241/3/4 1321/3/4
f 1320/1/4 1286/1/4 1321/1/4
f 1286/1/4 1240/1/4 1321/1/4
f 1241/1/4 1287/1/4 1322/1/4
f 1321/3/4 1241/3/4 1322/3/4
f 1287/1/4 1288/1/4 1322/1/4
f 1322/1/4 1288/1/4 1323/1/4
f 1244/1/4 1245/1/4 1324/1/4
f 1245/3/4 1246/3/4 1324/3/4
f 1246/1/4 1289/1/4 1325/1/4
f 1324/3/4 1246/3/4 1325/3/4
f 1289/1/4 1290/1/4 1325/1/4
f 1325/1/4 1290/1/4 1326/1/4
f 1304/1/4 1259/1/4 1327/1/4
f 1303/1/4 1304/1/4 1327/1/4
f 1259/3/4 1260/3/4 1328/3/4
f 1327/1/4 1259/1/4 1328/1/4
f 1260/1/4 1261/1/4 1329/1/4
f 1328/3/4 1260/3/4 1329/3/4
f 1306/1/4 1264/1/4 1330/1/4
f 1305/1/4 1306/1/4 1330/1/4
f 1264/3/4 1265/3/4 1331/3/4
f 1330/1/4 1264/1/4 1331/1/4
f 1265/1/4 1307/1/4 1332/1/4
f 1331/3/4 1265/3/4 1332/3/4
f 1307/1/4 1308/1/4 1332/1/4
f 1308/3/4 1309/3/4 1333/3/4
f 1332/1/4 1308/1/4 1333/1/4
f 1310/1/4 1311/1/4 1334/1/4
f 1333/3/4 1309/3/4 1334/3/4
f 1309/1/4 1310/1/4 1334/1/4
f 1334/1/4 1311/1/4 1335/1/4
f 1335/1/4 1311/1/4 1336/1/4
f 1336/1/4 1311/1/4 1337/1/4
f 1317/1/4 1318/1/4 1338/1/4
f 1318/3/4 1319/3/4 1339/3/4
f 1338/1/4 1318/1/4 1339/1/4
f 1319/1/4 1320/1/4 1340/1/4
f 1339/3/4 1319/3/4 1340/3/4
f 1320/1/4 1321/1/4 1340/1/4
f 1321/1/4 1322/1/4 1340/1/4
f 1290/3/4 1291/3/4 1341/3/4
f 1326/1/4 1290/1/4 1341/1/4
f 1291/1/4 1292/1/4 1342/1/4
f 1341/3/4 1291/3/4 1342/3/4
f 1292/1/4 1293/1/4 1342/1/4
f 1293/1/4 1294/1/4 1342/1/4
f 1294/1/4 1295/1/4 1342/1/4
f 1342/1/4 1295/1/4 1343/1/4
f 1295/3/4 1296/3/4 1344/3/4
f 1343/1/4 1295/1/4 1344/1/4
f 1296/1/4 1297/1/4 1345/1/4
f 1344/3/4 1296/3/4 1345/3/4
f 1297/3/4 1298/3/4 1346/3/4
f 1345/1/4 1297/1/4 1346/1/4
f 1298/1/4 1299/1/4 1347/1/4
f 1346/3/4 1298/3/4 1347/3/4
f 1299/1/4 1300/1/4 1347/1/4
f 1301/1/4 1302/1/4 1347/1/4
f 1300/1/4 1301/1/4 1347/1/4
f 1347/1/4 1302/1/4 1348/1/4
f 1302/3/4 1303/3/4 1349/3/4
f 1348/1/4 1302/1/4 1349/1/4
f 1303/1/4 1327/1/4 1350/1/4
f 1349/3/4 1303/3/4 1350/3/4
f 1331/1/4 1332/1/4 1351/1/4
f 1332/1/4 1333/1/4 1351/1/4
f 1334/3/4 1335/3/4 1351/3/4
f 1333/1/4 1334/1/4 1351/1/4
f 1335/1/4 1336/1/4 1352/1/4
f 1351/3/4 1335/3/4 1352/3/4
f 1352/1/4 1336/1/4 1353/1/4
f 1273/4/4 1274/4/4 1354/4/4
f 1272/1/4 1273/1/4 1354/1/4
f 1354/4/4 1274/4/4 1355/4/4
f 1274/1/4 1275/1/4 1356/1/4
f 1276/3/4 1277/3/4 1356/3/4
f 1275/1/4 1276/1/4 1356/1/4
f 1277/1/4 1312/1/4 1357/1/4
f 1356/3/4 1277/3/4 1357/3/4
f 1312/1/4 1313/1/4 1357/1/4
f 1357/1/4 1313/1/4 1358/1/4
f 1313/3/4 1314/3/4 1359/3/4
f 1358/1/4 1313/1/4 1359/1/4
f 1314/1/4 1315/1/4 1360/1/4
f 1359/3/4 1314/3/4 1360/3/4
f 1315/1/4 1316/1/4 1360/1/4
f 1360/1/4 1316/1/4 1361/1/4
f 1316/3/4 1317/3/4 1362/3/4
f 1361/1/4 1316/1/4 1362/1/4
f 1317/1/4 1338/1/4 1363/1/4
f 1362/3/4 1317/3/4 1363/3/4
f 1363/1/4 1338/1/4 1364/1/4
f 1364/1/4 1338/1/4 1365/1/4
f 1338/3/4 1339/3/4 1366/3/4
f 1365/1/4 1338/1/4 1366/1/4
f 1339/1/4 1340/1/4 1367/1/4
f 1366/3/4 1339/3/4 1367/3/4
f 1322/3/4 1323/3/4 1368/3/4
f 1367/1/4 1340/1/4 1368/1/4
f 1340/1/4 1322/1/4 1368/1/4
f 1323/1/4 1288/1/4 1369/1/4
f 1368/3/4 1323/3/4 1369/3/4
f 1369/1/4 1288/1/4 1370/1/4
f 1324/1/4 1325/1/4 1371/1/4
f 1325/3/4 1326/3/4 1371/3/4
f 1326/1/4 1341/1/4 1372/1/4
f 1371/3/4 1326/3/4 1372/3/4
f 1341/1/4 1342/1/4 1372/1/4
f 1372/1/4 1342/1/4 1373/1/4
f 1342/3/4 1343/3/4 1374/3/4
f 1373/1/4 1342/1/4 1374/1/4
f 1343/1/4 1344/1/4 1375/1/4
f 1374/3/4 1343/3/4 1375/3/4
f 1344/1/4 1345/1/4 1375/1/4
f 1375/1/4 1345/1/4 1376/1/4
f 1346/1/4 1347/1/4 1377/1/4
f 1347/1/4 1348/1/4 1377/1/4
f 1348/3/4 1349/3/4 1378/3/4
f 1377/1/4 1348/1/4 1378/1/4
f 1349/1/4 1350/1/4 1379/1/4
f 1378/3/4 1349/3/4 1379/3/4
f 1350/1/4 1327/1/4 1380/1/4
f 1379/1/4 1350/1/4 1380/1/4
f 1327/3/4 1328/3/4 1381/3/4
f 1380/1/4 1327/1/4 1381/1/4
f 1328/1/4 1329/1/4 1382/1/4
f 1381/3/4 1328/3/4 1382/3/4
f 1305/1/4 1330/1/4 1383/1/4
f 1330/3/4 1331/3/4 1384/3/4
f 1383/1/4 1330/1/4 1384/1/4
f 1331/1/4 1351/1/4 1385/1/4
f 1384/3/4 1331/3/4 1385/3/4
f 1351/1/4 1352/1/4 1385/1/4
f 1352/3/4 1353/3/4 1386/3/4
f 1385/1/4 1352/1/4 1386/1/4
f 1353/1/4 1336/1/4 1387/1/4
f 1386/3/4 1353/3/4 1387/3/4
f 1387/1/4 1336/1/4 1388/1/4
f 1388/1/4 1336/1/4 1389/1/4
f 1336/3/4 1337/3/4 1390/3/4
f 1389/1/4 1336/1/4 1390/1/4
f 1390/3/4 1337/3/4 1391/3/4
f 1225/1/4 1226/1/4 1392/1/4
f 1226/3/4 1227/3/4 1393/3/4
f 1392/1/4 1226/1/4 1393/1/4
f 1227/1/4 1272/1/4 1394/1/4
f 1393/3/4 1227/3/4 1394/3/4
f 1354/1/4 1355/1/4 1394/1/4
f 1272/1/4 1354/1/4 1394/1/4
f 1358/1/4 1359/1/4 1395/1/4
f 1360/3/4 1361/3/4 1395/3/4
f 1359/1/4 1360/1/4 1395/1/4
f 1361/1/4 1362/1/4 1396/1/4
f 1395/3/4 1361/3/4 1396/3/4
f 1362/1/4 1363/1/4 1396/1/4
f 1396/1/4 1363/1/4 1397/1/4
f 1364/1/4 1365/1/4 1398/1/4
f 1363/3/4 1364/3/4 1398/3/4
f 1365/3/4 1366/3/4 1399/3/4
f 1398/1/4 1365/1/4 1399/1/4
f 1367/1/4 1368/1/4 1400/1/4
f 1399/3/4 1366/3/4 1400/3/4
f 1366/1/4 1367/1/4 1400/1/4
f 1368/1/4 1369/1/4 1400/1/4
f 1370/1/4 1288/1/4 1401/1/4
f 1401/1/4 1288/1/4 1402/1/4
f 1373/1/4 1374/1/4 1403/1/4
f 1374/1/4 1375/1/4 1403/1/4
f 1375/3/4 1376/3/4 1403/3/4
f 1376/1/4 1345/1/4 1404/1/4
f 1403/3/4 1376/3/4 1404/3/4
f 1404/1/4 1345/1/4 1405/1/4
f 1405/1/4 1345/1/4 1406/1/4
f 1345/3/4 1346/3/4 1407/3/4
f 1406/1/4 1345/1/4 1407/1/4
f 1346/1/4 1377/1/4 1408/1/4
f 1407/3/4 1346/3/4 1408/3/4
f 1408/1/4 1377/1/4 1409/1/4
f 1409/1/4 1377/1/4 1410/1/4
f 1377/3/4 1378/3/4 1411/3/4
f 1410/1/4 1377/1/4 1411/1/4
f 1378/1/4 1379/1/4 1412/1/4
f 1411/3/4 1378/3/4 1412/3/4
f 1379/1/4 1380/1/4 1412/1/4
f 1305/1/4 1383/1/4 1413/1/4
f 1413/1/4 1383/1/4 1414/1/4
f 1385/1/4 1386/1/4 1415/1/4
f 1384/1/4 1385/1/4 1415/1/4
f 1387/3/4 1388/3/4 1415/3/4
f 1386/1/4 1387/1/4 1415/1/4
f 1388/1/4 1389/1/4 1416/1/4
f 1415/3/4 1388/3/4 1416/3/4
f 1389/3/4 1390/3/4 1417/3/4
f 1416/1/4 1389/1/4 1417/1/4
f 1394/1/4 1355/1/4 1418/1/4
f 1393/1/4 1394/1/4 1418/1/4
f 1355/4/4 1274/4/4 1419/4/4
f 1418/1/4 1355/1/4 1419/1/4
f 1357/3/4 1358/3/4 1420/3/4
f 1356/1/4 1357/1/4 1420/1/4
f 1358/1/4 1395/1/4 1421/1/4
f 1420/3/4 1358/3/4 1421/3/4
f 1395/1/4 1396/1/4 1421/1/4
f 1421/1/4 1396/1/4 1422/1/4
f 1396/3/4 1397/3/4 1423/3/4
f 1422/1/4 1396/1/4 1423/1/4
f 1397/1/4 1363/1/4 1424/1/4
f 1423/3/4 1397/3/4 1424/3/4
f 1398/3/4 1399/3/4 1425/3/4
f 1424/1/4 1363/1/4 1425/1/4
f 1363/3/4 1398/3/4 1425/3/4
f 1425/3/4 1399/3/4 1426/3/4
f 1399/1/4 1400/1/4 1427/1/4
f 1426/3/4 1399/3/4 1427/3/4
f 1400/1/4 1369/1/4 1428/1/4
f 1427/1/4 1400/1/4 1428/1/4
f 1369/3/4 1370/3/4 1428/3/4
f 1370/1/4 1401/1/4 1429/1/4
f 1428/3/4 1370/3/4 1429/3/4
f 1401/3/4 1402/3/4 1430/3/4
f 1429/1/4 1401/1/4 1430/1/4
f 1402/1/4 1288/1/4 1431/1/4
f 1430/3/4 1402/3/4 1431/3/4
f 1371/1/4 1372/1/4 1432/1/4
f 1372/3/4 1373/3/4 1432/3/4
f 1373/1/4 1403/1/4 1433/1/4
f 1432/3/4 1373/3/4 1433/3/4
f 1403/1/4 1404/1/4 1433/1/4
f 1433/1/4 1404/1/4 1434/1/4
f 1404/3/4 1405/3/4 1435/3/4
f 1434/1/4 1404/1/4 1435/1/4
f 1405/1/4 1406/1/4 1436/1/4
f 1435/3/4 1405/3/4 1436/3/4
f 1406/3/4 1407/3/4 1437/3/4
f 1436/1/4 1406/1/4 1437/1/4
f 1407/1/4 1408/1/4 1438/1/4
f 1437/3/4 1407/3/4 1438/3/4
f 1408/3/4 1409/3/4 1439/3/4
f 1438/1/4 1408/1/4 1439/1/4
f 1409/1/4 1410/1/4 1440/1/4
f 1439/3/4 1409/3/4 1440/3/4
f 1410/3/4 1411/3/4 1441/3/4
f 1440/1/4 1410/1/4 1441/1/4
f 1411/1/4 1412/1/4 1442/1/4
f 1441/3/4 1411/3/4 1442/3/4
f 1412/1/4 1380/1/4 1443/1/4
f 1442/1/4 1412/1/4 1443/1/4
f 1380/3/4 1381/3/4 1444/3/4
f 1443/1/4 1380/1/4 1444/1/4
f 1381/1/4 1382/1/4 1445/1/4
f 1444/3/4 1381/3/4 1445/3/4
f 1413/3/4 1414/3/4 1446/3/4
f 1305/1/4 1413/1/4 1446/1/4
f 1414/1/4 1383/1/4 1447/1/4
f 1446/3/4 1414/3/4 1447/3/4
f 1383/3/4 1384/3/4 1448/3/4
f 1447/1/4 1383/1/4 1448/1/4
f 1384/1/4 1415/1/4 1449/1/4
f 1448/3/4 1384/3/4 1449/3/4
f 1415/1/4 1416/1/4 1449/1/4
f 1416/3/4 1417/3/4 1450/3/4
f 1449/1/4 1416/1/4 1450/1/4
f 1417/3/4 1390/3/4 1451/3/4
f 1450/3/4 1417/3/4 1451/3/4
f 1390/1/4 1391/1/4 1452/1/4
f 1451/3/4 1390/3/4 1452/3/4
f 1452/1/4 1391/1/4 1453/1/4
f 1421/3/4 1422/3/4 1454/3/4
f 1420/1/4 1421/1/4 1454/1/4
f 1422/1/4 1423/1/4 1455/1/4
f 1454/3/4 1422/3/4 1455/3/4
f 1423/1/4 1424/1/4 1455/1/4
f 1455/1/4 1424/1/4 1456/1/4
f 1456/1/4 1424/1/4 1457/1/4
f 1424/3/4 1425/3/4 1458/3/4
f 1457/1/4 1424/1/4 1458/1/4
f 1425/3/4 1426/3/4 1458/3/4
f 1458/3/4 1426/3/4 1459/3/4
f 1459/3/4 1426/3/4 1460/3/4
f 1432/1/4 1433/1/4 1461/1/4
f 1433/3/4 1434/3/4 1461/3/4
f 1439/1/4 1440/1/4 1462/1/4
f 1461/3/4 1434/3/4 1462/3/4
f 1438/1/4 1439/1/4 1462/1/4
f 1436/1/4 1437/1/4 1462/1/4
f 1434/1/4 1435/1/4 1462/1/4
f 1435/1/4 1436/1/4 1462/1/4
f 1437/1/4 1438/1/4 1462/1/4
f 1442/1/4 1443/1/4 1462/1/4
f 1440/1/4 1441/1/4 1462/1/4
f 1441/1/4 1442/1/4 1462/1/4
f 1462/1/4 1443/1/4 1463/1/4
f 1463/1/4 1443/1/4 1464/1/4
f 1443/3/4 1444/3/4 1465/3/4
f 1464/1/4 1443/1/4 1465/1/4
f 1444/1/4 1445/1/4 1466/1/4
f 1465/3/4 1444/3/4 1466/3/4
f 1451/3/4 1452/3/4 1467/3/4
f 1452/3/4 1453/3/4 1467/3/4
f 1467/3/4 1453/3/4 1468/3/4
f 1393/1/4 1418/1/4 1469/1/4
f 1418/4/4 1419/4/4 1469/4/4
f 1419/4/4 1274/4/4 1470/4/4
f 1469/4/4 1419/4/4 1470/4/4
f 1454/1/4 1455/1/4 1471/1/4
f 1455/3/4 1456/3/4 1471/3/4
f 1456/1/4 1457/1/4 1472/1/4
f 1471/3/4 1456/3/4 1472/3/4
f 1458/3/4 1459/3/4 1473/3/4
f 1472/1/4 1457/1/4 1473/1/4
f 1457/3/4 1458/3/4 1473/3/4
f 1459/1/4 1460/1/4 1474/1/4
f 1473/3/4 1459/3/4 1474/3/4
f 1474/1/4 1460/1/4 1475/1/4
f 1426/1/4 1427/1/4 1476/1/4
f 1429/1/4 1430/1/4 1476/1/4
f 1428/1/4 1429/1/4 1476/1/4
f 1430/1/4 1431/1/4 1476/1/4
f 1427/1/4 1428/1/4 1476/1/4
f 1476/1/4 1431/1/4 1477/1/4
f 1450/1/4 1451/1/4 1478/1/4
f 1449/1/4 1450/1/4 1478/1/4
f 1448/1/4 1449/1/4 1478/1/4
f 1447/1/4 1448/1/4 1478/1/4
f 1446/1/4 1447/1/4 1478/1/4
f 1478/1/4 1451/1/4 1479/1/4
f 1225/1/4 1392/1/4 1480/1/4
f 1480/1/4 1392/1/4 1481/1/4
f 1481/1/4 1392/1/4 1482/1/4
f 1482/1/4 1392/1/4 1483/1/4
f 1483/1/4 1392/1/4 1484/1/4
f 1484/1/4 1392/1/4 1485/1/4
f 1485/1/4 1392/1/4 1486/1/4
f 1486/1/4 1392/1/4 1487/1/4
f 1487/1/4 1392/1/4 1488/1/4
f 1393/1/4 1469/1/4 1489/1/4
f 1469/1/4 1470/1/4 1489/1/4
f 1489/1/4 1470/1/4 1490/1/4
f 1471/1/4 1472/1/4 1491/1/4
f 1454/1/4 1471/1/4 1491/1/4
f 1472/3/4 1473/3/4 1492/3/4
f 1491/1/4 1472/1/4 1492/1/4
f 1492/3/4 1473/3/4 1493/3/4
f 1473/1/4 1474/1/4 1494/1/4
f 1493/3/4 1473/3/4 1494/3/4
f 1474/3/4 1475/3/4 1495/3/4
f 1494/1/4 1474/1/4 1495/1/4
f 1475/1/4 1460/1/4 1496/1/4
f 1495/3/4 1475/3/4 1496/3/4
f 1460/3/4 1426/3/4 1497/3/4
f 1496/1/4 1460/1/4 1497/1/4
f 1426/1/4 1476/1/4 1498/1/4
f 1497/3/4 1426/3/4 1498/3/4
f 1476/3/4 1477/3/4 1499/3/4
f 1498/1/4 1476/1/4 1499/1/4
f 1477/1/4 1431/1/4 1500/1/4
f 1499/3/4 1477/3/4 1500/3/4
f 1500/1/4 1431/1/4 1501/1/4
f 1501/1/4 1431/1/4 1502/1/4
f 1502/1/4 1431/1/4 1503/1/4
f 1503/1/4 1431/1/4 1504/1/4
f 1504/1/4 1431/1/4 1505/1/4
f 1505/1/4 1431/1/4 1506/1/4
f 1506/1/4 1431/1/4 1507/1/4
f 1507/1/4 1431/1/4 1508/1/4
f 1508/1/4 1431/1/4 1509/1/4
f 1432/1/4 1461/1/4 1510/1/4
f 1324/1/4 1371/1/4 1510/1/4
f 1371/1/4 1432/1/4 1510/1/4
f 1461/1/4 1462/1/4 1510/1/4
f 1510/1/4 1462/1/4 1511/1/4
f 1462/3/4 1463/3/4 1512/3/4
f 1511/1/4 1462/1/4 1512/1/4
f 1463/1/4 1464/1/4 1513/1/4
f 1512/3/4 1463/3/4 1513/3/4
f 1513/1/4 1464/1/4 1514/1/4
f 1514/1/4 1464/1/4 1515/1/4
f 1464/3/4 1465/3/4 1516/3/4
f 1515/1/4 1464/1/4 1516/1/4
f 1465/1/4 1466/1/4 1517/1/4
f 1516/3/4 1465/3/4 1517/3/4
f 1466/1/4 1445/1/4 1518/1/4
f 1517/1/4 1466/1/4 1518/1/4
f 1445/1/4 1382/1/4 1518/1/4
f 1382/1/4 1329/1/4 1519/1/4
f 1518/1/4 1382/1/4 1519/1/4
f 1446/1/4 1478/1/4 1520/1/4
f 1520/1/4 1478/1/4 1521/1/4
f 1521/1/4 1478/1/4 1522/1/4
f 1522/1/4 1478/1/4 1523/1/4
f 1523/1/4 1478/1/4 1524/1/4
f 1524/1/4 1478/1/4 1525/1/4
f 1478/3/4 1479/3/4 1526/3/4
f 1525/1/4 1478/1/4 1526/1/4
f 1479/1/4 1451/1/4 1527/1/4
f 1526/3/4 1479/3/4 1527/3/4
f 1451/3/4 1467/3/4 1528/3/4
f 1527/1/4 1451/1/4 1528/1/4
f 1467/1/4 1468/1/4 1529/1/4
f 1528/3/4 1467/3/4 1529/3/4
f 1529/1/4 1468/1/4 1530/1/4
f 1270/1/4 1271/1/4 1531/1/4
f 1224/3/4 1225/3/4 1532/3/4
f 1531/1/4 1271/1/4 1532/1/4
f 1271/1/4 1224/1/4 1532/1/4
f 1225/1/4 1480/1/4 1533/1/4
f 1532/3/4 1225/3/4 1533/3/4
f 1480/2/4 1481/2/4 1534/2/4
f 1533/1/4 1480/1/4 1534/1/4
f 1481/1/4 1482/1/4 1535/1/4
f 1534/2/4 1481/2/4 1535/2/4
f 1482/2/4 1483/2/4 1536/2/4
f 1535/1/4 1482/1/4 1536/1/4
f 1483/3/4 1484/3/4 1537/3/4
f 1536/2/4 1483/2/4 1537/2/4
f 1484/1/4 1485/1/4 1538/1/4
f 1537/3/4 1484/3/4 1538/3/4
f 1485/2/4 1486/2/4 1539/2/4
f 1538/1/4 1485/1/4 1539/1/4
f 1486/1/4 1487/1/4 1540/1/4
f 1539/2/4 1486/2/4 1540/2/4
f 1487/2/4 1488/2/4 1541/2/4
f 1540/1/4 1487/1/4 1541/1/4
f 1488/1/4 1392/1/4 1542/1/4
f 1541/2/4 1488/2/4 1542/2/4
f 1392/3/4 1393/3/4 1543/3/4
f 1542/1/4 1392/1/4 1543/1/4
f 1393/1/4 1489/1/4 1544/1/4
f 1543/3/4 1393/3/4 1544/3/4
f 1489/3/4 1490/3/4 1545/3/4
f 1544/1/4 1489/1/4 1545/1/4
f 1490/1/4 1470/1/4 1546/1/4
f 1545/3/4 1490/3/4 1546/3/4
f 1470/4/4 1274/4/4 1547/4/4
f 1546/1/4 1470/1/4 1547/1/4
f 1274/1/4 1356/1/4 1548/1/4
f 1547/4/4 1274/4/4 1548/4/4
f 1420/1/4 1454/1/4 1548/1/4
f 1356/1/4 1420/1/4 1548/1/4
f 1454/1/4 1491/1/4 1548/1/4
f 1492/3/4 1493/3/4 1549/3/4
f 1548/1/4 1491/1/4 1549/1/4
f 1491/3/4 1492/3/4 1549/3/4
f 1494/1/4 1495/1/4 1550/1/4
f 1549/3/4 1493/3/4 1550/3/4
f 1495/1/4 1496/1/4 1550/1/4
f 1493/1/4 1494/1/4 1550/1/4
f 1496/3/4 1497/3/4 1551/3/4
f 1550/1/4 1496/1/4 1551/1/4
f 1498/1/4 1499/1/4 1552/1/4
f 1551/3/4 1497/3/4 1552/3/4
f 1497/1/4 1498/1/4 1552/1/4
f 1499/1/4 1500/1/4 1552/1/4
f 1500/1/4 1501/1/4 1552/1/4
f 1501/2/4 1502/2/4 1553/2/4
f 1552/1/4 1501/1/4 1553/1/4
f 1502/1/4 1503/1/4 1554/1/4
f 1553/2/4 1502/2/4 1554/2/4
f 1503/3/4 1504/3/4 1555/3/4
f 1554/1/4 1503/1/4 1555/1/4
f 1504/2/4 1505/2/4 1556/2/4
f 1555/3/4 1504/3/4 1556/3/4
f 1505/1/4 1506/1/4 1557/1/4
f 1556/2/4 1505/2/4 1557/2/4
f 1506/2/4 1507/2/4 1558/2/4
f 1557/1/4 1506/1/4 1558/1/4
f 1507/1/4 1508/1/4 1559/1/4
f 1558/2/4 1507/2/4 1559/2/4
f 1508/2/4 1509/2/4 1560/2/4
f 1559/1/4 1508/1/4 1560/1/4
f 1509/1/4 1431/1/4 1561/1/4
f 1560/2/4 1509/2/4 1561/2/4
f 1288/4/4 1244/4/4 1562/4/4
f 1561/1/4 1431/1/4 1562/1/4
f 1431/1/4 1288/1/4 1562/1/4
f 1244/1/4 1324/1/4 1563/1/4
f 1562/4/4 1244/4/4 1563/4/4
f 1324/1/4 1510/1/4 1563/1/4
f 1510/3/4 1511/3/4 1564/3/4
f 1563/1/4 1510/1/4 1564/1/4
f 1511/1/4 1512/1/4 1565/1/4
f 1564/3/4 1511/3/4 1565/3/4
f 1512/1/4 1513/1/4 1565/1/4
f 1513/3/4 1514/3/4 1566/3/4
f 1565/1/4 1513/1/4 1566/1/4
f 1514/1/4 1515/1/4 1567/1/4
f 1566/3/4 1514/3/4 1567/3/4
f 1515/3/4 1516/3/4 1568/3/4
f 1567/1/4 1515/1/4 1568/1/4
f 1516/1/4 1517/1/4 1569/1/4
f 1568/3/4 1516/3/4 1569/3/4
f 1517/1/4 1518/1/4 1569/1/4
f 1518/3/4 1519/3/4 1570/3/4
f 1569/1/4 1518/1/4 1570/1/4
f 1519/1/4 1329/1/4 1571/1/4
f 1570/3/4 1519/3/4 1571/3/4
f 1261/4/4 1305/4/4 1572/4/4
f 1571/1/4 1329/1/4 1572/1/4
f 1329/1/4 1261/1/4 1572/1/4
f 1305/1/4 1446/1/4 1573/1/4
f 1572/4/4 1305/4/4 1573/4/4
f 1446/1/4 1520/1/4 1573/1/4
f 1520/2/4 1521/2/4 1574/2/4
f 1573/1/4 1520/1/4 1574/1/4
f 1521/1/4 1522/1/4 1575/1/4
f 1574/2/4 1521/2/4 1575/2/4
f 1522/2/4 1523/2/4 1576/2/4
f 1575/1/4 1522/1/4 1576/1/4
f 1523/1/4 1524/1/4 1577/1/4
f 1576/2/4 1523/2/4 1577/2/4
f 1524/3/4 1525/3/4 1578/3/4
f 1577/1/4 1524/1/4 1578/1/4
f 1525/1/4 1526/1/4 1579/1/4
f 1578/3/4 1525/3/4 1579/3/4
f 1528/1/4 1529/1/4 1579/1/4
f 1526/1/4 1527/1/4 1579/1/4
f 1527/1/4 1528/1/4 1579/1/4
f 1529/3/4 1530/3/4 1580/3/4
f 1579/1/4 1529/1/4 1580/1/4
f 1580/3/4 1530/3/4 1581/3/4
f 1584/1/5 1583/1/5 1582/1/5
f 1585/1/5 1583/1/5 1584/1/5
f 1586/3/5 1585/3/5 1584/3/5
f 1587/1/5 1583/1/5 1585/1/5
f 1587/3/5 1585/3/5 1586/3/5
f 1588/1/5 1587/1/5 1586/1/5
f 1589/1/5 1583/1/5 1587/1/5
f 1589/1/5 1587/1/5 1588/1/5
f 1590/4/5 1589/4/5 1588/4/5
f 1591/1/5 1583/1/5 1589/1/5
f 1591/4/5 1589/4/5 1590/4/5
f 1592/1/5 1583/1/5 1591/1/5
f 1593/1/6 1594/1/6 1595/1/6
f 1595/1/6 1594/1/6 1596/1/6
f 1596/1/6 1594/1/6 1597/1/6
f 1597/1/6 1594/1/6 1598/1/6
f 1598/1/6 1594/1/6 1599/1/6
f 1599/1/6 1594/1/6 1600/1/6
f 1600/1/6 1594/1/6 1601/1/6
f 1601/1/6 1594/1/6 1602/1/6
f 1595/3/6 1596/3/6 1603/3/6
f 1596/1/6 1597/1/6 1604/1/6
f 1603/3/6 1596/3/6 1604/3/6
f 1597/3/6 1598/3/6 1605/3/6
f 1604/1/6 1597/1/6 1605/1/6
f 1598/1/6 1599/1/6 1606/1/6
f 1605/3/6 1598/3/6 1606/3/6
f 1599/3/6 1600/3/6 1607/3/6
f 1606/1/6 1599/1/6 1607/1/6
f 1600/1/6 1601/1/6 1608/1/6
f 1607/3/6 1600/3/6 1608/3/6
f 1601/3/6 1602/3/6 1609/3/6
f 1608/1/6 1601/1/6 1609/1/6
f 1609/3/6 1602/3/6 1610/3/6
