# MagicaVoxel @ Ephtracy

# group
o 

# material
mtllib stadium-large-complex-16.mtl
usemtl palette

# normals
vn -1 0 0
vn 1 0 0
vn 0 0 1
vn 0 0 -1
vn 0 -1 0
vn 0 1 0

# texcoords
vt 0.970703 0.5
vt 0.978516 0.5
vt 0.982422 0.5

# verts
v -12.8 16 4
v -12.8 16 1.6
v -12.8 16.6 4
v -12.8 16.6 1.6
v 12.8 16 4
v 12.8 16 1.6
v 12.8 16.6 4
v 12.8 16.6 1.6
v -12.8 16 4
v -12.8 16.6 4
v -9.2 16 4
v -9.2 16.4 4
v -9.1 16 4
v -9.1 16.4 4
v -9.1 16.6 4
v -9 16.4 4
v -9 16.6 4
v -8.2 16 4
v -8.2 16.6 4
v -8.1 16 4
v -8.1 16.6 4
v -7.4 16.5 4
v -7.4 16.6 4
v -7.3 16 4
v -7.3 16.5 4
v -7.3 16.6 4
v -7.2 16 4
v -7.2 16.5 4
v -5.9 16.5 4
v -5.9 16.6 4
v -5.5 16.4 4
v -5.5 16.5 4
v -5.5 16.6 4
v -5 16.3 4
v -5 16.4 4
v -5 16.5 4
v -4.6 16.5 4
v -4.6 16.6 4
v -4.5 16.5 4
v -4.5 16.6 4
v -3.9 16.5 4
v -3.9 16.6 4
v -3.7 16.2 4
v -3.7 16.3 4
v -3.7 16.4 4
v -3.7 16.5 4
v -3.7 16.6 4
v -3.6 16.3 4
v -3.6 16.4 4
v -3.6 16.5 4
v -3.5 16.3 4
v -3.5 16.4 4
v -3.4 16.1 4
v -3.4 16.2 4
v -3.3 16 4
v -3.3 16.1 4
v -3.2 16 4
v -3.2 16.2 4
v -2.9 16.1 4
v -2.9 16.2 4
v -2.9 16.3 4
v -2.7 16 4
v -2.7 16.1 4
v -2.6 16 4
v -2.6 16.1 4
v -2.5 16 4
v -2.5 16.1 4
v -2.5 16.2 4
v -2.5 16.3 4
v -2.4 16.2 4
v -2.4 16.3 4
v -2.4 16.4 4
v -2.3 16.3 4
v -2.3 16.4 4
v -2.3 16.5 4
v -2.2 16.1 4
v -2.2 16.2 4
v -2.2 16.4 4
v -2.2 16.5 4
v -2.2 16.6 4
v -2.1 16.1 4
v -2.1 16.2 4
v -2.1 16.3 4
v -2 16.5 4
v -2 16.6 4
v -1.9 16.2 4
v -1.9 16.3 4
v -1.9 16.4 4
v -1.8 16 4
v -1.8 16.1 4
v -1.8 16.3 4
v -1.8 16.4 4
v -1.8 16.5 4
v -1.7 16.4 4
v -1.7 16.5 4
v -1.7 16.6 4
v -1.6 16.5 4
v -1.6 16.6 4
v 1.5 16.4 4
v 1.5 16.5 4
v 1.7 16.3 4
v 1.7 16.4 4
v 1.7 16.5 4
v 1.9 16.2 4
v 1.9 16.3 4
v 1.9 16.4 4
v 2.2 16.1 4
v 2.2 16.2 4
v 2.2 16.3 4
v 2.5 16 4
v 2.5 16.1 4
v 2.5 16.2 4
v 2.9 16 4
v 2.9 16.1 4
v 3.2 16 4
v 3.2 16.2 4
v 3.4 16 4
v 3.4 16.1 4
v 3.4 16.2 4
v 3.4 16.3 4
v 3.5 16.2 4
v 3.5 16.3 4
v 3.5 16.4 4
v 3.6 16.1 4
v 3.6 16.2 4
v 3.6 16.3 4
v 3.6 16.4 4
v 3.6 16.5 4
v 3.7 16.4 4
v 3.7 16.5 4
v 3.7 16.6 4
v 3.8 16.2 4
v 3.8 16.3 4
v 3.8 16.4 4
v 3.9 16.3 4
v 3.9 16.4 4
v 3.9 16.5 4
v 3.9 16.6 4
v 4.1 16.4 4
v 4.1 16.5 4
v 4.1 16.6 4
v 4.2 16.5 4
v 4.2 16.6 4
v 4.5 16.5 4
v 4.5 16.6 4
v 4.6 16.5 4
v 4.6 16.6 4
v 7.3 16.5 4
v 7.3 16.6 4
v 7.4 16.4 4
v 7.4 16.5 4
v 7.4 16.6 4
v 7.5 16.3 4
v 7.5 16.4 4
v 7.5 16.5 4
v 7.7 16 4
v 7.7 16.1 4
v 7.7 16.2 4
v 7.7 16.3 4
v 7.7 16.4 4
v 7.8 16.1 4
v 7.8 16.2 4
v 7.8 16.3 4
v 7.9 16.5 4
v 7.9 16.6 4
v 8 16.1 4
v 8 16.2 4
v 8 16.4 4
v 8 16.5 4
v 8 16.6 4
v 8.1 16.3 4
v 8.1 16.4 4
v 8.1 16.5 4
v 8.2 16.2 4
v 8.2 16.3 4
v 8.2 16.4 4
v 8.4 16.1 4
v 8.4 16.2 4
v 8.4 16.3 4
v 8.5 16 4
v 8.5 16.1 4
v 8.5 16.2 4
v 8.6 16 4
v 8.6 16.1 4
v 8.7 16 4
v 8.7 16.1 4
v 9.8 16.1 4
v 9.8 16.2 4
v 9.8 16.3 4
v 9.9 16.5 4
v 9.9 16.6 4
v 10 16.3 4
v 10 16.5 4
v 10 16.6 4
v 10.1 16.3 4
v 10.1 16.5 4
v 10.2 16.1 4
v 10.2 16.2 4
v 10.3 16 4
v 10.3 16.1 4
v 10.3 16.2 4
v 10.4 16 4
v 10.4 16.1 4
v 10.6 16.2 4
v 10.6 16.3 4
v 12.8 16 4
v 12.8 16.6 4
v -12.8 16 1.6
v -12.8 16.6 1.6
v -7.9 16.5 1.6
v -7.9 16.6 1.6
v -7.8 16.5 1.6
v -7.8 16.6 1.6
v -5 16.5 1.6
v -5 16.6 1.6
v -4.9 16.4 1.6
v -4.9 16.5 1.6
v -4.8 16.2 1.6
v -4.8 16.4 1.6
v -4.8 16.6 1.6
v -4.7 16 1.6
v -4.7 16.2 1.6
v -4.7 16.4 1.6
v -4.6 16 1.6
v -4.6 16.2 1.6
v -3.5 16 1.6
v -3.5 16.1 1.6
v -3.3 16 1.6
v -3.3 16.1 1.6
v -3.3 16.2 1.6
v -3.2 16.1 1.6
v -3.2 16.2 1.6
v -3.2 16.3 1.6
v -3.1 16.2 1.6
v -3.1 16.3 1.6
v -3.1 16.4 1.6
v -3 16.3 1.6
v -3 16.4 1.6
v -3 16.5 1.6
v -2.9 16.4 1.6
v -2.9 16.5 1.6
v -2.9 16.6 1.6
v -2.7 16.5 1.6
v -2.7 16.6 1.6
v 2.7 16.5 1.6
v 2.7 16.6 1.6
v 2.9 16.4 1.6
v 2.9 16.5 1.6
v 2.9 16.6 1.6
v 3 16.3 1.6
v 3 16.4 1.6
v 3 16.5 1.6
v 3.1 16.2 1.6
v 3.1 16.3 1.6
v 3.1 16.4 1.6
v 3.2 16.1 1.6
v 3.2 16.2 1.6
v 3.2 16.3 1.6
v 3.3 16 1.6
v 3.3 16.1 1.6
v 3.3 16.2 1.6
v 3.5 16 1.6
v 3.5 16.1 1.6
v 4.6 16 1.6
v 4.6 16.2 1.6
v 4.7 16 1.6
v 4.7 16.2 1.6
v 4.7 16.4 1.6
v 4.8 16.2 1.6
v 4.8 16.4 1.6
v 4.8 16.6 1.6
v 4.9 16.4 1.6
v 4.9 16.5 1.6
v 5 16.5 1.6
v 5 16.6 1.6
v 12.8 16 1.6
v 12.8 16.6 1.6
v -12.8 16 4
v -9.2 16 4
v -9.1 16 4
v -8.2 16 4
v -8.1 16 4
v -7.3 16 4
v -7.2 16 4
v -3.3 16 4
v -3.2 16 4
v -2.7 16 4
v -2.6 16 4
v -2.5 16 4
v -1.8 16 4
v 2.5 16 4
v 2.9 16 4
v 3.2 16 4
v 3.4 16 4
v 7.7 16 4
v 8.5 16 4
v 8.6 16 4
v 8.7 16 4
v 10.3 16 4
v 10.4 16 4
v 12.8 16 4
v -9.2 16 3.9
v -9.1 16 3.9
v -8.2 16 3.9
v -8.1 16 3.9
v -7.3 16 3.9
v -7.2 16 3.9
v -3.3 16 3.9
v -3.2 16 3.9
v -2.7 16 3.9
v -2.6 16 3.9
v -2.5 16 3.9
v -1.8 16 3.9
v 2.5 16 3.9
v 2.9 16 3.9
v 3.2 16 3.9
v 3.4 16 3.9
v 7.7 16 3.9
v 8.5 16 3.9
v 8.6 16 3.9
v 8.7 16 3.9
v 10.3 16 3.9
v 10.4 16 3.9
v 0.799999 16 3.3
v 1.2 16 3.3
v 0.799999 16 3.2
v 1.2 16 3.2
v 1.6 16 3.2
v 1.2 16 3.1
v 1.6 16 3.1
v 2 16 3.1
v 1.6 16 3
v 2 16 3
v 2.6 16 3
v -3.5 16 2.9
v -2.4 16 2.9
v 2 16 2.9
v 2.5 16 2.9
v 2.6 16 2.9
v 4.9 16 2.9
v -5.2 16 2.8
v -3.5 16 2.8
v -2.4 16 2.8
v 2.5 16 2.8
v 4.9 16 2.8
v -8.7 16 2.7
v -8.6 16 2.7
v -8.5 16 2.7
v -8 16 2.7
v -7.9 16 2.7
v -5.2 16 2.7
v -3.5 16 2.7
v -8.7 16 2.6
v -8.6 16 2.6
v -8.5 16 2.6
v -8.2 16 2.6
v -8.1 16 2.6
v -8 16 2.6
v -7.9 16 2.6
v -5.2 16 2.6
v -8.6 16 2.5
v -8.5 16 2.5
v -8.2 16 2.5
v -8.1 16 2.5
v -8 16 2.5
v -7.9 16 2.5
v -4.7 16 1.7
v -4.6 16 1.7
v -3.5 16 1.7
v -3.3 16 1.7
v 3.3 16 1.7
v 3.5 16 1.7
v 4.6 16 1.7
v 4.7 16 1.7
v -12.8 16 1.6
v -4.7 16 1.6
v -4.6 16 1.6
v -3.5 16 1.6
v -3.3 16 1.6
v 3.3 16 1.6
v 3.5 16 1.6
v 4.6 16 1.6
v 4.7 16 1.6
v 12.8 16 1.6
v -12.8 16.6 4
v -9.1 16.6 4
v -9 16.6 4
v -8.2 16.6 4
v -8.1 16.6 4
v -7.4 16.6 4
v -7.3 16.6 4
v -5.9 16.6 4
v -5.5 16.6 4
v -4.6 16.6 4
v -4.5 16.6 4
v -3.9 16.6 4
v -3.7 16.6 4
v -2.2 16.6 4
v -2 16.6 4
v -1.7 16.6 4
v -1.6 16.6 4
v 3.7 16.6 4
v 3.9 16.6 4
v 4.1 16.6 4
v 4.2 16.6 4
v 4.5 16.6 4
v 4.6 16.6 4
v 7.3 16.6 4
v 7.4 16.6 4
v 7.9 16.6 4
v 8 16.6 4
v 9.9 16.6 4
v 10 16.6 4
v 12.8 16.6 4
v -6.3 16.6 3.9
v -5.9 16.6 3.9
v -5.5 16.6 3.9
v -3.9 16.6 3.9
v -3.7 16.6 3.9
v -2.2 16.6 3.9
v -2 16.6 3.9
v -1.8 16.6 3.9
v 3.7 16.6 3.9
v 3.9 16.6 3.9
v 9.9 16.6 3.9
v 10 16.6 3.9
v -9.2 16.6 3.8
v -9.1 16.6 3.8
v -9 16.6 3.8
v -8.3 16.6 3.8
v -8.2 16.6 3.8
v -8.1 16.6 3.8
v -7.5 16.6 3.8
v -7.4 16.6 3.8
v -7.3 16.6 3.8
v -6.8 16.6 3.8
v -6.3 16.6 3.8
v -5.9 16.6 3.8
v -4.6 16.6 3.8
v -4.5 16.6 3.8
v -4.4 16.6 3.8
v -2 16.6 3.8
v -1.8 16.6 3.8
v -1.7 16.6 3.8
v 4.4 16.6 3.8
v 4.5 16.6 3.8
v 4.6 16.6 3.8
v -7.2 16.6 3.7
v -6.8 16.6 3.7
v -6.3 16.6 3.7
v -4.5 16.6 3.7
v -4.4 16.6 3.7
v -4.3 16.6 3.7
v -3.9 16.6 3.7
v -3.8 16.6 3.7
v -1.8 16.6 3.7
v -1.7 16.6 3.7
v -1.6 16.6 3.7
v -1.5 16.6 3.7
v 3.8 16.6 3.7
v 3.9 16.6 3.7
v 4.3 16.6 3.7
v 4.4 16.6 3.7
v 4.5 16.6 3.7
v 7.9 16.6 3.7
v 8 16.6 3.7
v 8.1 16.6 3.7
v -9.3 16.6 3.6
v -9.2 16.6 3.6
v -9.1 16.6 3.6
v -7.5 16.6 3.6
v -7.4 16.6 3.6
v -7.2 16.6 3.6
v -6.8 16.6 3.6
v -4.4 16.6 3.6
v -4.3 16.6 3.6
v -4.2 16.6 3.6
v -4 16.6 3.6
v -3.9 16.6 3.6
v -3.8 16.6 3.6
v -1.7 16.6 3.6
v -1.6 16.6 3.6
v -1.5 16.6 3.6
v -1.4 16.6 3.6
v 3.8 16.6 3.6
v 3.9 16.6 3.6
v 4 16.6 3.6
v 4.1 16.6 3.6
v 4.2 16.6 3.6
v 4.3 16.6 3.6
v 4.4 16.6 3.6
v -7.7 16.6 3.5
v -7.5 16.6 3.5
v -7.4 16.6 3.5
v -7.2 16.6 3.5
v -4.3 16.6 3.5
v -4.2 16.6 3.5
v -4.1 16.6 3.5
v -1.5 16.6 3.5
v -1.4 16.6 3.5
v -1.2 16.6 3.5
v 4.1 16.6 3.5
v 4.2 16.6 3.5
v 7.3 16.6 3.5
v 7.4 16.6 3.5
v 7.5 16.6 3.5
v -8.4 16.6 3.4
v -8.3 16.6 3.4
v -8.2 16.6 3.4
v -8.1 16.6 3.4
v -7.7 16.6 3.4
v -7.6 16.6 3.4
v -7.5 16.6 3.4
v -7.4 16.6 3.4
v -4.1 16.6 3.4
v -4 16.6 3.4
v -3.9 16.6 3.4
v -3.8 16.6 3.4
v -1.4 16.6 3.4
v -1.2 16.6 3.4
v -1 16.6 3.4
v 3.8 16.6 3.4
v 3.9 16.6 3.4
v 4 16.6 3.4
v 4.1 16.6 3.4
v -9.4 16.6 3.3
v -9.3 16.6 3.3
v -9.2 16.6 3.3
v -8.5 16.6 3.3
v -8.4 16.6 3.3
v -8.3 16.6 3.3
v -8.1 16.6 3.3
v -7.7 16.6 3.3
v -4.2 16.6 3.3
v -4.1 16.6 3.3
v -1.8 16.6 3.3
v -1.7 16.6 3.3
v -1.6 16.6 3.3
v -1.2 16.6 3.3
v -1 16.6 3.3
v -0.900001 16.6 3.3
v 4.1 16.6 3.3
v 4.2 16.6 3.3
v -8.9 16.6 3.2
v -8.5 16.6 3.2
v -8.4 16.6 3.2
v -8.3 16.6 3.2
v -8.1 16.6 3.2
v -4.2 16.6 3.2
v -4.1 16.6 3.2
v -4 16.6 3.2
v -3.9 16.6 3.2
v -1 16.6 3.2
v -0.900001 16.6 3.2
v -0.700001 16.6 3.2
v 3.9 16.6 3.2
v 4 16.6 3.2
v 4.1 16.6 3.2
v 4.2 16.6 3.2
v -9.5 16.6 3.1
v -9.4 16.6 3.1
v -9.3 16.6 3.1
v -9.2 16.6 3.1
v -8.9 16.6 3.1
v -8.5 16.6 3.1
v -8.4 16.6 3.1
v -8.3 16.6 3.1
v -7.7 16.6 3.1
v -7.6 16.6 3.1
v -7.5 16.6 3.1
v -4 16.6 3.1
v -3.9 16.6 3.1
v -0.900001 16.6 3.1
v -0.700001 16.6 3.1
v -0.5 16.6 3.1
v 3.9 16.6 3.1
v 4 16.6 3.1
v 8 16.6 3.1
v 8.1 16.6 3.1
v 8.2 16.6 3.1
v 10.1 16.6 3.1
v 10.2 16.6 3.1
v -9.4 16.6 3
v -9.2 16.6 3
v -8.9 16.6 3
v -4.3 16.6 3
v -4.2 16.6 3
v -4.1 16.6 3
v -0.700001 16.6 3
v -0.5 16.6 3
v -0.400001 16.6 3
v 4.1 16.6 3
v 4.2 16.6 3
v -9.7 16.6 2.9
v -9.5 16.6 2.9
v -9.4 16.6 2.9
v -9.2 16.6 2.9
v -4 16.6 2.9
v -3.9 16.6 2.9
v -3.8 16.6 2.9
v -3.7 16.6 2.9
v -0.5 16.6 2.9
v -0.400001 16.6 2.9
v -0.1 16.6 2.9
v 3.7 16.6 2.9
v 3.8 16.6 2.9
v 3.9 16.6 2.9
v 4 16.6 2.9
v -10 16.6 2.8
v -9.7 16.6 2.8
v -9.6 16.6 2.8
v -9.5 16.6 2.8
v -9.4 16.6 2.8
v -8.6 16.6 2.8
v -8.5 16.6 2.8
v -8.4 16.6 2.8
v -4.4 16.6 2.8
v -4.3 16.6 2.8
v -4.2 16.6 2.8
v -3.8 16.6 2.8
v -3.7 16.6 2.8
v -3.6 16.6 2.8
v -0.400001 16.6 2.8
v -0.1 16.6 2.8
v 0 16.6 2.8
v 3.6 16.6 2.8
v 3.7 16.6 2.8
v 3.8 16.6 2.8
v 4.2 16.6 2.8
v 4.3 16.6 2.8
v 4.4 16.6 2.8
v 10.1 16.6 2.8
v 10.2 16.6 2.8
v 10.3 16.6 2.8
v -10.3 16.6 2.7
v -10 16.6 2.7
v -9.7 16.6 2.7
v -7.8 16.6 2.7
v -7.7 16.6 2.7
v -7.6 16.6 2.7
v -4.5 16.6 2.7
v -4.4 16.6 2.7
v -4.3 16.6 2.7
v -3.7 16.6 2.7
v -3.6 16.6 2.7
v -3.5 16.6 2.7
v 3.5 16.6 2.7
v 3.6 16.6 2.7
v 3.7 16.6 2.7
v 4.4 16.6 2.7
v 4.5 16.6 2.7
v -10.6 16.6 2.6
v -10.3 16.6 2.6
v -10 16.6 2.6
v -9.7 16.6 2.6
v -9.6 16.6 2.6
v -9.5 16.6 2.6
v -1.8 16.6 2.6
v -1.7 16.6 2.6
v -0.1 16.6 2.6
v 0 16.6 2.6
v 0.0999994 16.6 2.6
v 7.4 16.6 2.6
v 7.5 16.6 2.6
v 7.6 16.6 2.6
v -10.8 16.6 2.5
v -10.6 16.6 2.5
v -10.3 16.6 2.5
v -4.6 16.6 2.5
v -4.5 16.6 2.5
v -4.4 16.6 2.5
v -3.6 16.6 2.5
v -3.5 16.6 2.5
v -3.4 16.6 2.5
v 0 16.6 2.5
v 0.0999994 16.6 2.5
v 0.2 16.6 2.5
v 3.4 16.6 2.5
v 3.5 16.6 2.5
v 3.6 16.6 2.5
v 4.4 16.6 2.5
v 4.5 16.6 2.5
v 4.6 16.6 2.5
v 8.1 16.6 2.5
v 8.2 16.6 2.5
v 8.3 16.6 2.5
v -10.9 16.6 2.4
v -10.8 16.6 2.4
v -10.6 16.6 2.4
v -8.7 16.6 2.4
v -8.6 16.6 2.4
v -8.5 16.6 2.4
v -7.9 16.6 2.4
v -7.8 16.6 2.4
v -7.7 16.6 2.4
v -3.5 16.6 2.4
v -3.4 16.6 2.4
v -3.3 16.6 2.4
v 0.0999994 16.6 2.4
v 0.2 16.6 2.4
v 0.4 16.6 2.4
v 3.3 16.6 2.4
v 3.4 16.6 2.4
v 3.5 16.6 2.4
v -11.1 16.6 2.3
v -10.9 16.6 2.3
v -10.8 16.6 2.3
v -9.8 16.6 2.3
v -9.7 16.6 2.3
v -9.6 16.6 2.3
v -4.7 16.6 2.3
v -4.6 16.6 2.3
v -4.5 16.6 2.3
v -4 16.6 2.3
v -3.9 16.6 2.3
v -3.4 16.6 2.3
v -3.3 16.6 2.3
v -3.2 16.6 2.3
v 0.2 16.6 2.3
v 0.4 16.6 2.3
v 3.2 16.6 2.3
v 3.3 16.6 2.3
v 3.4 16.6 2.3
v 3.9 16.6 2.3
v 4 16.6 2.3
v 4.3 16.6 2.3
v 4.4 16.6 2.3
v 4.5 16.6 2.3
v 4.6 16.6 2.3
v 4.7 16.6 2.3
v 10.2 16.6 2.3
v 10.3 16.6 2.3
v 10.4 16.6 2.3
v -11.4 16.6 2.2
v -11.1 16.6 2.2
v -10.9 16.6 2.2
v -11.7 16.6 2.1
v -11.4 16.6 2.1
v -11.1 16.6 2.1
v -9.9 16.6 2.1
v -9.8 16.6 2.1
v -9.7 16.6 2.1
v -8.8 16.6 2.1
v -8.7 16.6 2.1
v -8.6 16.6 2.1
v -4.8 16.6 2.1
v -4.7 16.6 2.1
v -4.6 16.6 2.1
v -3.3 16.6 2.1
v -3.2 16.6 2.1
v -3.1 16.6 2.1
v 3.1 16.6 2.1
v 3.2 16.6 2.1
v 3.3 16.6 2.1
v 4.6 16.6 2.1
v 4.7 16.6 2.1
v 4.8 16.6 2.1
v 7.5 16.6 2.1
v 7.6 16.6 2.1
v 8.2 16.6 2.1
v 8.3 16.6 2.1
v -11.9 16.6 2
v -11.7 16.6 2
v -11.4 16.6 2
v -8 16.6 2
v -7.9 16.6 2
v -3.2 16.6 2
v -3.1 16.6 2
v 3.1 16.6 2
v 3.2 16.6 2
v 10.3 16.6 2
v 10.4 16.6 2
v -12 16.6 1.9
v -11.9 16.6 1.9
v -11.7 16.6 1.9
v -9.9 16.6 1.9
v -9.8 16.6 1.9
v -8.8 16.6 1.9
v -8.7 16.6 1.9
v -4.9 16.6 1.9
v -4.8 16.6 1.9
v -4.7 16.6 1.9
v 4.7 16.6 1.9
v 4.8 16.6 1.9
v 4.9 16.6 1.9
v -12 16.6 1.8
v -11.9 16.6 1.8
v -8 16.6 1.8
v -7.9 16.6 1.8
v -5 16.6 1.7
v -4.9 16.6 1.7
v -2.9 16.6 1.7
v -2.7 16.6 1.7
v 2.7 16.6 1.7
v 2.9 16.6 1.7
v 4.9 16.6 1.7
v 5 16.6 1.7
v -12.8 16.6 1.6
v -7.9 16.6 1.6
v -7.8 16.6 1.6
v -5 16.6 1.6
v -4.8 16.6 1.6
v -2.9 16.6 1.6
v -2.7 16.6 1.6
v 2.7 16.6 1.6
v 2.9 16.6 1.6
v 4.8 16.6 1.6
v 5 16.6 1.6
v 12.8 16.6 1.6

# faces
f 3/1/1 2/1/1 1/1/1
f 4/1/1 2/1/1 3/1/1
f 5/1/2 6/1/2 7/1/2
f 7/1/2 6/1/2 8/1/2
f 11/1/3 10/1/3 9/1/3
f 12/1/3 10/1/3 11/1/3
f 13/2/3 12/2/3 11/2/3
f 14/1/3 10/1/3 12/1/3
f 14/2/3 12/2/3 13/2/3
f 15/1/3 10/1/3 14/1/3
f 16/1/3 14/1/3 13/1/3
f 16/2/3 15/2/3 14/2/3
f 17/2/3 15/2/3 16/2/3
f 18/1/3 16/1/3 13/1/3
f 18/1/3 17/1/3 16/1/3
f 19/1/3 17/1/3 18/1/3
f 20/2/3 19/2/3 18/2/3
f 21/2/3 19/2/3 20/2/3
f 22/1/3 21/1/3 20/1/3
f 23/1/3 21/1/3 22/1/3
f 24/1/3 22/1/3 20/1/3
f 25/2/3 23/2/3 22/2/3
f 25/1/3 22/1/3 24/1/3
f 26/2/3 23/2/3 25/2/3
f 27/2/3 25/2/3 24/2/3
f 28/1/3 26/1/3 25/1/3
f 28/2/3 25/2/3 27/2/3
f 29/1/3 28/1/3 27/1/3
f 29/1/3 26/1/3 28/1/3
f 30/1/3 26/1/3 29/1/3
f 31/1/3 29/1/3 27/1/3
f 32/3/3 30/3/3 29/3/3
f 32/1/3 29/1/3 31/1/3
f 33/3/3 30/3/3 32/3/3
f 34/1/3 31/1/3 27/1/3
f 35/3/3 32/3/3 31/3/3
f 35/1/3 31/1/3 34/1/3
f 36/1/3 33/1/3 32/1/3
f 36/3/3 32/3/3 35/3/3
f 37/1/3 36/1/3 35/1/3
f 37/1/3 33/1/3 36/1/3
f 38/1/3 33/1/3 37/1/3
f 39/1/3 37/1/3 35/1/3
f 39/2/3 38/2/3 37/2/3
f 40/2/3 38/2/3 39/2/3
f 41/1/3 39/1/3 35/1/3
f 41/1/3 40/1/3 39/1/3
f 42/1/3 40/1/3 41/1/3
f 43/1/3 34/1/3 27/1/3
f 44/3/3 35/3/3 34/3/3
f 44/1/3 34/1/3 43/1/3
f 45/1/3 41/1/3 35/1/3
f 45/3/3 35/3/3 44/3/3
f 46/2/3 42/2/3 41/2/3
f 46/1/3 41/1/3 45/1/3
f 47/2/3 42/2/3 46/2/3
f 48/3/3 44/3/3 43/3/3
f 48/1/3 45/1/3 44/1/3
f 49/2/3 46/2/3 45/2/3
f 49/1/3 45/1/3 48/1/3
f 50/1/3 47/1/3 46/1/3
f 50/2/3 46/2/3 49/2/3
f 51/2/3 49/2/3 48/2/3
f 51/3/3 48/3/3 43/3/3
f 52/1/3 50/1/3 49/1/3
f 52/2/3 49/2/3 51/2/3
f 53/1/3 43/1/3 27/1/3
f 54/3/3 51/3/3 43/3/3
f 54/1/3 43/1/3 53/1/3
f 55/1/3 53/1/3 27/1/3
f 56/2/3 54/2/3 53/2/3
f 56/1/3 53/1/3 55/1/3
f 57/2/3 56/2/3 55/2/3
f 58/3/3 51/3/3 54/3/3
f 58/2/3 56/2/3 57/2/3
f 58/2/3 54/2/3 56/2/3
f 59/1/3 58/1/3 57/1/3
f 60/3/3 51/3/3 58/3/3
f 60/1/3 58/1/3 59/1/3
f 61/1/3 52/1/3 51/1/3
f 61/3/3 51/3/3 60/3/3
f 62/1/3 59/1/3 57/1/3
f 63/3/3 60/3/3 59/3/3
f 63/1/3 59/1/3 62/1/3
f 64/3/3 63/3/3 62/3/3
f 65/3/3 60/3/3 63/3/3
f 65/3/3 63/3/3 64/3/3
f 66/1/3 65/1/3 64/1/3
f 67/3/3 60/3/3 65/3/3
f 67/1/3 65/1/3 66/1/3
f 68/1/3 61/1/3 60/1/3
f 68/3/3 60/3/3 67/3/3
f 69/1/3 52/1/3 61/1/3
f 69/1/3 61/1/3 68/1/3
f 70/1/3 68/1/3 67/1/3
f 70/3/3 69/3/3 68/3/3
f 71/1/3 52/1/3 69/1/3
f 71/3/3 69/3/3 70/3/3
f 72/1/3 50/1/3 52/1/3
f 72/1/3 52/1/3 71/1/3
f 73/1/3 71/1/3 70/1/3
f 73/3/3 72/3/3 71/3/3
f 74/1/3 50/1/3 72/1/3
f 74/3/3 72/3/3 73/3/3
f 75/1/3 47/1/3 50/1/3
f 75/1/3 50/1/3 74/1/3
f 76/1/3 73/1/3 70/1/3
f 76/1/3 74/1/3 73/1/3
f 76/1/3 70/1/3 67/1/3
f 76/3/3 67/3/3 66/3/3
f 77/1/3 74/1/3 76/1/3
f 78/3/3 75/3/3 74/3/3
f 78/1/3 74/1/3 77/1/3
f 79/1/3 47/1/3 75/1/3
f 79/3/3 75/3/3 78/3/3
f 80/1/3 47/1/3 79/1/3
f 81/2/3 77/2/3 76/2/3
f 81/3/3 76/3/3 66/3/3
f 82/1/3 78/1/3 77/1/3
f 82/2/3 77/2/3 81/2/3
f 82/1/3 79/1/3 78/1/3
f 83/1/3 79/1/3 82/1/3
f 84/3/3 80/3/3 79/3/3
f 84/1/3 79/1/3 83/1/3
f 85/3/3 80/3/3 84/3/3
f 86/2/3 83/2/3 82/2/3
f 86/1/3 82/1/3 81/1/3
f 87/1/3 85/1/3 84/1/3
f 87/2/3 83/2/3 86/2/3
f 87/1/3 84/1/3 83/1/3
f 88/1/3 85/1/3 87/1/3
f 89/3/3 81/3/3 66/3/3
f 90/1/3 86/1/3 81/1/3
f 90/3/3 81/3/3 89/3/3
f 90/1/3 87/1/3 86/1/3
f 91/2/3 88/2/3 87/2/3
f 91/1/3 87/1/3 90/1/3
f 92/1/3 85/1/3 88/1/3
f 92/2/3 88/2/3 91/2/3
f 93/1/3 85/1/3 92/1/3
f 94/1/3 91/1/3 90/1/3
f 94/1/3 90/1/3 89/1/3
f 94/2/3 93/2/3 92/2/3
f 94/1/3 92/1/3 91/1/3
f 95/1/3 85/1/3 93/1/3
f 95/2/3 93/2/3 94/2/3
f 96/1/3 85/1/3 95/1/3
f 97/1/3 95/1/3 94/1/3
f 97/2/3 96/2/3 95/2/3
f 98/2/3 96/2/3 97/2/3
f 99/1/3 94/1/3 89/1/3
f 99/1/3 97/1/3 94/1/3
f 99/1/3 98/1/3 97/1/3
f 100/1/3 98/1/3 99/1/3
f 101/1/3 99/1/3 89/1/3
f 102/3/3 100/3/3 99/3/3
f 102/1/3 99/1/3 101/1/3
f 103/1/3 98/1/3 100/1/3
f 103/3/3 100/3/3 102/3/3
f 104/1/3 101/1/3 89/1/3
f 105/3/3 102/3/3 101/3/3
f 105/1/3 101/1/3 104/1/3
f 106/1/3 103/1/3 102/1/3
f 106/3/3 102/3/3 105/3/3
f 107/1/3 104/1/3 89/1/3
f 108/3/3 105/3/3 104/3/3
f 108/1/3 104/1/3 107/1/3
f 109/1/3 106/1/3 105/1/3
f 109/3/3 105/3/3 108/3/3
f 110/1/3 107/1/3 89/1/3
f 111/3/3 108/3/3 107/3/3
f 111/1/3 107/1/3 110/1/3
f 112/1/3 109/1/3 108/1/3
f 112/3/3 108/3/3 111/3/3
f 113/3/3 111/3/3 110/3/3
f 114/1/3 112/1/3 111/1/3
f 114/3/3 111/3/3 113/3/3
f 115/1/3 114/1/3 113/1/3
f 116/1/3 109/1/3 112/1/3
f 116/1/3 114/1/3 115/1/3
f 116/1/3 112/1/3 114/1/3
f 117/2/3 116/2/3 115/2/3
f 118/2/3 116/2/3 117/2/3
f 119/1/3 109/1/3 116/1/3
f 119/2/3 116/2/3 118/2/3
f 120/1/3 106/1/3 109/1/3
f 120/1/3 109/1/3 119/1/3
f 121/2/3 119/2/3 118/2/3
f 121/2/3 120/2/3 119/2/3
f 122/1/3 106/1/3 120/1/3
f 122/2/3 120/2/3 121/2/3
f 123/1/3 103/1/3 106/1/3
f 123/1/3 106/1/3 122/1/3
f 124/2/3 121/2/3 118/2/3
f 124/1/3 118/1/3 117/1/3
f 125/1/3 122/1/3 121/1/3
f 125/2/3 121/2/3 124/2/3
f 126/2/3 123/2/3 122/2/3
f 126/1/3 122/1/3 125/1/3
f 127/1/3 103/1/3 123/1/3
f 127/2/3 123/2/3 126/2/3
f 128/1/3 98/1/3 103/1/3
f 128/1/3 103/1/3 127/1/3
f 129/1/3 127/1/3 126/1/3
f 129/2/3 128/2/3 127/2/3
f 130/1/3 98/1/3 128/1/3
f 130/2/3 128/2/3 129/2/3
f 131/1/3 98/1/3 130/1/3
f 132/2/3 126/2/3 125/2/3
f 132/1/3 125/1/3 124/1/3
f 133/1/3 129/1/3 126/1/3
f 133/2/3 126/2/3 132/2/3
f 133/1/3 130/1/3 129/1/3
f 134/1/3 130/1/3 133/1/3
f 135/1/3 133/1/3 132/1/3
f 135/2/3 134/2/3 133/2/3
f 136/1/3 130/1/3 134/1/3
f 136/2/3 134/2/3 135/2/3
f 137/2/3 131/2/3 130/2/3
f 137/1/3 130/1/3 136/1/3
f 138/2/3 131/2/3 137/2/3
f 139/1/3 136/1/3 135/1/3
f 139/2/3 137/2/3 136/2/3
f 140/1/3 138/1/3 137/1/3
f 140/2/3 137/2/3 139/2/3
f 141/1/3 138/1/3 140/1/3
f 142/1/3 140/1/3 139/1/3
f 142/2/3 141/2/3 140/2/3
f 143/2/3 141/2/3 142/2/3
f 144/1/3 142/1/3 139/1/3
f 144/1/3 143/1/3 142/1/3
f 145/1/3 143/1/3 144/1/3
f 146/1/3 144/1/3 139/1/3
f 146/2/3 145/2/3 144/2/3
f 147/2/3 145/2/3 146/2/3
f 148/1/3 146/1/3 139/1/3
f 148/1/3 147/1/3 146/1/3
f 149/1/3 147/1/3 148/1/3
f 150/1/3 139/1/3 135/1/3
f 150/1/3 148/1/3 139/1/3
f 151/2/3 149/2/3 148/2/3
f 151/1/3 148/1/3 150/1/3
f 152/2/3 149/2/3 151/2/3
f 153/1/3 135/1/3 132/1/3
f 153/1/3 150/1/3 135/1/3
f 154/2/3 151/2/3 150/2/3
f 154/1/3 150/1/3 153/1/3
f 155/1/3 152/1/3 151/1/3
f 155/2/3 151/2/3 154/2/3
f 156/1/3 124/1/3 117/1/3
f 156/1/3 132/1/3 124/1/3
f 156/1/3 153/1/3 132/1/3
f 157/1/3 153/1/3 156/1/3
f 158/1/3 153/1/3 157/1/3
f 159/2/3 154/2/3 153/2/3
f 159/1/3 153/1/3 158/1/3
f 160/1/3 155/1/3 154/1/3
f 160/2/3 154/2/3 159/2/3
f 161/1/3 158/1/3 157/1/3
f 161/3/3 157/3/3 156/3/3
f 162/2/3 159/2/3 158/2/3
f 162/1/3 158/1/3 161/1/3
f 163/1/3 160/1/3 159/1/3
f 163/2/3 159/2/3 162/2/3
f 164/1/3 152/1/3 155/1/3
f 164/1/3 160/1/3 163/1/3
f 164/1/3 163/1/3 162/1/3
f 164/1/3 155/1/3 160/1/3
f 165/1/3 152/1/3 164/1/3
f 166/2/3 162/2/3 161/2/3
f 166/3/3 161/3/3 156/3/3
f 167/1/3 164/1/3 162/1/3
f 167/2/3 162/2/3 166/2/3
f 168/1/3 164/1/3 167/1/3
f 169/2/3 165/2/3 164/2/3
f 169/1/3 164/1/3 168/1/3
f 170/2/3 165/2/3 169/2/3
f 171/1/3 168/1/3 167/1/3
f 171/1/3 167/1/3 166/1/3
f 172/2/3 169/2/3 168/2/3
f 172/1/3 168/1/3 171/1/3
f 173/1/3 170/1/3 169/1/3
f 173/2/3 169/2/3 172/2/3
f 174/1/3 171/1/3 166/1/3
f 175/2/3 172/2/3 171/2/3
f 175/1/3 171/1/3 174/1/3
f 176/1/3 173/1/3 172/1/3
f 176/2/3 172/2/3 175/2/3
f 177/3/3 166/3/3 156/3/3
f 177/1/3 174/1/3 166/1/3
f 178/2/3 175/2/3 174/2/3
f 178/1/3 174/1/3 177/1/3
f 179/1/3 176/1/3 175/1/3
f 179/2/3 175/2/3 178/2/3
f 180/3/3 177/3/3 156/3/3
f 181/2/3 178/2/3 177/2/3
f 181/3/3 177/3/3 180/3/3
f 182/1/3 179/1/3 178/1/3
f 182/2/3 178/2/3 181/2/3
f 183/1/3 181/1/3 180/1/3
f 184/3/3 182/3/3 181/3/3
f 184/1/3 181/1/3 183/1/3
f 185/2/3 184/2/3 183/2/3
f 186/3/3 182/3/3 184/3/3
f 186/2/3 184/2/3 185/2/3
f 187/1/3 186/1/3 185/1/3
f 187/3/3 182/3/3 186/3/3
f 188/1/3 179/1/3 182/1/3
f 188/3/3 182/3/3 187/3/3
f 189/1/3 176/1/3 179/1/3
f 189/1/3 179/1/3 188/1/3
f 190/1/3 173/1/3 176/1/3
f 190/1/3 176/1/3 189/1/3
f 190/1/3 170/1/3 173/1/3
f 191/1/3 170/1/3 190/1/3
f 192/3/3 189/3/3 188/3/3
f 192/1/3 190/1/3 189/1/3
f 193/2/3 191/2/3 190/2/3
f 193/1/3 190/1/3 192/1/3
f 194/2/3 191/2/3 193/2/3
f 195/3/3 192/3/3 188/3/3
f 195/2/3 193/2/3 192/2/3
f 196/1/3 194/1/3 193/1/3
f 196/2/3 193/2/3 195/2/3
f 197/1/3 188/1/3 187/1/3
f 197/1/3 187/1/3 185/1/3
f 198/3/3 195/3/3 188/3/3
f 198/1/3 188/1/3 197/1/3
f 199/1/3 197/1/3 185/1/3
f 200/2/3 198/2/3 197/2/3
f 200/1/3 197/1/3 199/1/3
f 201/3/3 195/3/3 198/3/3
f 201/2/3 198/2/3 200/2/3
f 202/2/3 200/2/3 199/2/3
f 203/1/3 201/1/3 200/1/3
f 203/2/3 200/2/3 202/2/3
f 204/3/3 195/3/3 201/3/3
f 204/1/3 201/1/3 203/1/3
f 204/1/3 203/1/3 202/1/3
f 205/1/3 196/1/3 195/1/3
f 205/3/3 195/3/3 204/3/3
f 206/1/3 204/1/3 202/1/3
f 206/1/3 205/1/3 204/1/3
f 207/1/3 194/1/3 196/1/3
f 207/1/3 205/1/3 206/1/3
f 207/1/3 196/1/3 205/1/3
f 208/1/4 209/1/4 210/1/4
f 210/1/4 209/1/4 211/1/4
f 208/1/4 210/1/4 212/1/4
f 210/2/4 211/2/4 212/2/4
f 212/2/4 211/2/4 213/2/4
f 208/1/4 212/1/4 214/1/4
f 212/1/4 213/1/4 214/1/4
f 214/1/4 213/1/4 215/1/4
f 208/1/4 214/1/4 216/1/4
f 214/2/4 215/2/4 217/2/4
f 216/1/4 214/1/4 217/1/4
f 208/1/4 216/1/4 218/1/4
f 216/2/4 217/2/4 219/2/4
f 218/1/4 216/1/4 219/1/4
f 217/2/4 215/2/4 220/2/4
f 219/2/4 217/2/4 220/2/4
f 208/1/4 218/1/4 221/1/4
f 218/2/4 219/2/4 222/2/4
f 221/1/4 218/1/4 222/1/4
f 219/1/4 220/1/4 223/1/4
f 222/2/4 219/2/4 223/2/4
f 221/2/4 222/2/4 224/2/4
f 222/1/4 223/1/4 225/1/4
f 224/2/4 222/2/4 225/2/4
f 224/1/4 225/1/4 226/1/4
f 226/1/4 225/1/4 227/1/4
f 226/2/4 227/2/4 228/2/4
f 227/1/4 225/1/4 229/1/4
f 228/2/4 227/2/4 229/2/4
f 225/1/4 223/1/4 230/1/4
f 229/1/4 225/1/4 230/1/4
f 228/1/4 229/1/4 231/1/4
f 229/2/4 230/2/4 231/2/4
f 230/1/4 223/1/4 232/1/4
f 231/2/4 230/2/4 232/2/4
f 232/1/4 223/1/4 233/1/4
f 231/1/4 232/1/4 234/1/4
f 232/2/4 233/2/4 234/2/4
f 233/1/4 223/1/4 235/1/4
f 234/2/4 233/2/4 235/2/4
f 223/1/4 220/1/4 236/1/4
f 235/1/4 223/1/4 236/1/4
f 234/1/4 235/1/4 237/1/4
f 235/2/4 236/2/4 237/2/4
f 236/1/4 220/1/4 238/1/4
f 237/2/4 236/2/4 238/2/4
f 238/1/4 220/1/4 239/1/4
f 237/1/4 238/1/4 240/1/4
f 238/2/4 239/2/4 240/2/4
f 239/1/4 220/1/4 241/1/4
f 240/2/4 239/2/4 241/2/4
f 241/1/4 220/1/4 242/1/4
f 240/1/4 241/1/4 243/1/4
f 241/2/4 242/2/4 243/2/4
f 243/2/4 242/2/4 244/2/4
f 240/1/4 243/1/4 245/1/4
f 243/1/4 244/1/4 245/1/4
f 245/1/4 244/1/4 246/1/4
f 237/1/4 240/1/4 247/1/4
f 240/1/4 245/1/4 247/1/4
f 245/2/4 246/2/4 248/2/4
f 247/1/4 245/1/4 248/1/4
f 248/2/4 246/2/4 249/2/4
f 234/1/4 237/1/4 250/1/4
f 237/1/4 247/1/4 250/1/4
f 247/2/4 248/2/4 251/2/4
f 250/1/4 247/1/4 251/1/4
f 248/1/4 249/1/4 252/1/4
f 251/2/4 248/2/4 252/2/4
f 231/1/4 234/1/4 253/1/4
f 234/1/4 250/1/4 253/1/4
f 250/2/4 251/2/4 254/2/4
f 253/1/4 250/1/4 254/1/4
f 251/1/4 252/1/4 255/1/4
f 254/2/4 251/2/4 255/2/4
f 228/1/4 231/1/4 256/1/4
f 231/1/4 253/1/4 256/1/4
f 253/2/4 254/2/4 257/2/4
f 256/1/4 253/1/4 257/1/4
f 254/1/4 255/1/4 258/1/4
f 257/2/4 254/2/4 258/2/4
f 228/1/4 256/1/4 259/1/4
f 256/2/4 257/2/4 260/2/4
f 259/1/4 256/1/4 260/1/4
f 257/1/4 258/1/4 261/1/4
f 260/2/4 257/2/4 261/2/4
f 259/2/4 260/2/4 262/2/4
f 260/1/4 261/1/4 263/1/4
f 262/2/4 260/2/4 263/2/4
f 262/1/4 263/1/4 264/1/4
f 261/1/4 258/1/4 265/1/4
f 264/1/4 263/1/4 265/1/4
f 263/1/4 261/1/4 265/1/4
f 264/2/4 265/2/4 266/2/4
f 265/1/4 258/1/4 267/1/4
f 266/2/4 265/2/4 267/2/4
f 255/1/4 252/1/4 268/1/4
f 267/1/4 258/1/4 268/1/4
f 258/1/4 255/1/4 268/1/4
f 266/1/4 267/1/4 269/1/4
f 267/2/4 268/2/4 269/2/4
f 268/1/4 252/1/4 270/1/4
f 269/2/4 268/2/4 270/2/4
f 252/1/4 249/1/4 271/1/4
f 270/1/4 252/1/4 271/1/4
f 269/1/4 270/1/4 272/1/4
f 270/2/4 271/2/4 272/2/4
f 272/2/4 271/2/4 273/2/4
f 272/1/4 273/1/4 274/1/4
f 273/2/4 271/2/4 274/2/4
f 274/2/4 271/2/4 275/2/4
f 266/1/4 269/1/4 276/1/4
f 269/1/4 272/1/4 276/1/4
f 274/1/4 275/1/4 276/1/4
f 272/1/4 274/1/4 276/1/4
f 276/1/4 275/1/4 277/1/4
f 302/1/5 279/1/5 278/1/5
f 302/2/5 280/2/5 279/2/5
f 303/1/5 281/1/5 280/1/5
f 303/2/5 280/2/5 302/2/5
f 304/2/5 282/2/5 281/2/5
f 304/1/5 281/1/5 303/1/5
f 305/1/5 283/1/5 282/1/5
f 305/2/5 282/2/5 304/2/5
f 306/2/5 284/2/5 283/2/5
f 306/1/5 283/1/5 305/1/5
f 307/1/5 285/1/5 284/1/5
f 307/2/5 284/2/5 306/2/5
f 308/2/5 286/2/5 285/2/5
f 308/1/5 285/1/5 307/1/5
f 309/1/5 287/1/5 286/1/5
f 309/2/5 286/2/5 308/2/5
f 310/3/5 288/3/5 287/3/5
f 310/1/5 287/1/5 309/1/5
f 311/1/5 289/1/5 288/1/5
f 311/3/5 288/3/5 310/3/5
f 312/3/5 290/3/5 289/3/5
f 312/1/5 289/1/5 311/1/5
f 313/1/5 291/1/5 290/1/5
f 313/3/5 290/3/5 312/3/5
f 314/3/5 292/3/5 291/3/5
f 314/1/5 291/1/5 313/1/5
f 315/1/5 293/1/5 292/1/5
f 315/3/5 292/3/5 314/3/5
f 316/2/5 294/2/5 293/2/5
f 316/1/5 293/1/5 315/1/5
f 317/1/5 295/1/5 294/1/5
f 317/2/5 294/2/5 316/2/5
f 318/3/5 296/3/5 295/3/5
f 318/1/5 295/1/5 317/1/5
f 319/1/5 297/1/5 296/1/5
f 319/3/5 296/3/5 318/3/5
f 320/2/5 298/2/5 297/2/5
f 320/1/5 297/1/5 319/1/5
f 321/1/5 299/1/5 298/1/5
f 321/2/5 298/2/5 320/2/5
f 322/2/5 300/2/5 299/2/5
f 322/1/5 299/1/5 321/1/5
f 323/1/5 301/1/5 300/1/5
f 323/2/5 300/2/5 322/2/5
f 324/1/5 322/1/5 321/1/5
f 324/1/5 321/1/5 320/1/5
f 324/1/5 323/1/5 322/1/5
f 324/1/5 320/1/5 319/1/5
f 324/1/5 319/1/5 318/1/5
f 324/1/5 318/1/5 317/1/5
f 324/1/5 317/1/5 316/1/5
f 324/1/5 316/1/5 315/1/5
f 324/1/5 315/1/5 314/1/5
f 324/1/5 314/1/5 313/1/5
f 324/1/5 313/1/5 312/1/5
f 324/1/5 312/1/5 311/1/5
f 324/1/5 311/1/5 310/1/5
f 324/1/5 310/1/5 309/1/5
f 324/1/5 309/1/5 308/1/5
f 324/1/5 308/1/5 307/1/5
f 324/1/5 307/1/5 306/1/5
f 324/1/5 306/1/5 305/1/5
f 324/1/5 305/1/5 304/1/5
f 324/1/5 304/1/5 303/1/5
f 324/1/5 303/1/5 302/1/5
f 325/1/5 323/1/5 324/1/5
f 326/1/5 324/1/5 302/1/5
f 326/2/5 325/2/5 324/2/5
f 327/1/5 323/1/5 325/1/5
f 327/2/5 325/2/5 326/2/5
f 328/1/5 323/1/5 327/1/5
f 329/1/5 327/1/5 326/1/5
f 329/2/5 328/2/5 327/2/5
f 330/1/5 323/1/5 328/1/5
f 330/2/5 328/2/5 329/2/5
f 331/1/5 323/1/5 330/1/5
f 332/1/5 330/1/5 329/1/5
f 332/2/5 331/2/5 330/2/5
f 333/1/5 323/1/5 331/1/5
f 333/2/5 331/2/5 332/2/5
f 334/1/5 323/1/5 333/1/5
f 335/1/5 326/1/5 302/1/5
f 335/1/5 329/1/5 326/1/5
f 335/1/5 332/1/5 329/1/5
f 335/1/5 333/1/5 332/1/5
f 336/1/5 333/1/5 335/1/5
f 337/2/5 334/2/5 333/2/5
f 337/1/5 333/1/5 336/1/5
f 338/2/5 334/2/5 337/2/5
f 339/1/5 323/1/5 334/1/5
f 339/2/5 334/2/5 338/2/5
f 340/1/5 323/1/5 339/1/5
f 341/1/5 335/1/5 302/1/5
f 342/2/5 336/2/5 335/2/5
f 342/1/5 335/1/5 341/1/5
f 343/1/5 338/1/5 337/1/5
f 343/2/5 336/2/5 342/2/5
f 343/1/5 337/1/5 336/1/5
f 344/2/5 340/2/5 339/2/5
f 344/1/5 338/1/5 343/1/5
f 344/2/5 339/2/5 338/2/5
f 345/1/5 323/1/5 340/1/5
f 345/2/5 340/2/5 344/2/5
f 346/1/5 341/1/5 302/1/5
f 347/1/5 341/1/5 346/1/5
f 348/1/5 341/1/5 347/1/5
f 349/1/5 341/1/5 348/1/5
f 350/1/5 341/1/5 349/1/5
f 351/2/5 342/2/5 341/2/5
f 351/1/5 341/1/5 350/1/5
f 352/1/5 344/1/5 343/1/5
f 352/2/5 342/2/5 351/2/5
f 352/1/5 343/1/5 342/1/5
f 352/1/5 345/1/5 344/1/5
f 353/1/5 346/1/5 302/1/5
f 353/2/5 347/2/5 346/2/5
f 354/1/5 348/1/5 347/1/5
f 354/2/5 347/2/5 353/2/5
f 355/2/5 349/2/5 348/2/5
f 355/1/5 348/1/5 354/1/5
f 356/2/5 349/2/5 355/2/5
f 357/2/5 349/2/5 356/2/5
f 358/1/5 350/1/5 349/1/5
f 358/2/5 349/2/5 357/2/5
f 359/2/5 351/2/5 350/2/5
f 359/1/5 350/1/5 358/1/5
f 360/1/5 352/1/5 351/1/5
f 360/2/5 351/2/5 359/2/5
f 361/1/5 354/1/5 353/1/5
f 361/2/5 355/2/5 354/2/5
f 362/1/5 356/1/5 355/1/5
f 362/2/5 355/2/5 361/2/5
f 363/2/5 357/2/5 356/2/5
f 363/1/5 356/1/5 362/1/5
f 364/1/5 358/1/5 357/1/5
f 364/2/5 357/2/5 363/2/5
f 365/2/5 359/2/5 358/2/5
f 365/1/5 358/1/5 364/1/5
f 366/1/5 360/1/5 359/1/5
f 366/2/5 359/2/5 365/2/5
f 367/1/5 362/1/5 361/1/5
f 367/1/5 360/1/5 366/1/5
f 367/1/5 366/1/5 365/1/5
f 367/1/5 363/1/5 362/1/5
f 367/1/5 365/1/5 364/1/5
f 367/1/5 364/1/5 363/1/5
f 367/1/5 352/1/5 360/1/5
f 368/1/5 352/1/5 367/1/5
f 369/1/5 345/1/5 352/1/5
f 369/1/5 352/1/5 368/1/5
f 370/1/5 345/1/5 369/1/5
f 371/1/5 345/1/5 370/1/5
f 372/1/5 345/1/5 371/1/5
f 373/1/5 345/1/5 372/1/5
f 374/1/5 345/1/5 373/1/5
f 375/1/5 302/1/5 278/1/5
f 375/1/5 361/1/5 353/1/5
f 375/1/5 353/1/5 302/1/5
f 375/1/5 367/1/5 361/1/5
f 376/2/5 368/2/5 367/2/5
f 376/1/5 367/1/5 375/1/5
f 377/1/5 369/1/5 368/1/5
f 377/2/5 368/2/5 376/2/5
f 378/2/5 370/2/5 369/2/5
f 378/1/5 369/1/5 377/1/5
f 379/1/5 371/1/5 370/1/5
f 379/2/5 370/2/5 378/2/5
f 380/2/5 372/2/5 371/2/5
f 380/1/5 371/1/5 379/1/5
f 381/1/5 373/1/5 372/1/5
f 381/2/5 372/2/5 380/2/5
f 382/2/5 374/2/5 373/2/5
f 382/1/5 373/1/5 381/1/5
f 383/1/5 345/1/5 374/1/5
f 383/2/5 374/2/5 382/2/5
f 384/1/5 301/1/5 323/1/5
f 384/1/5 345/1/5 383/1/5
f 384/1/5 323/1/5 345/1/5
f 391/1/6 392/1/6 415/1/6
f 392/3/6 393/3/6 416/3/6
f 415/1/6 392/1/6 416/1/6
f 393/1/6 394/1/6 417/1/6
f 416/3/6 393/3/6 417/3/6
f 395/1/6 396/1/6 418/1/6
f 396/2/6 397/2/6 418/2/6
f 397/1/6 398/1/6 419/1/6
f 418/2/6 397/2/6 419/2/6
f 398/3/6 399/3/6 420/3/6
f 419/1/6 398/1/6 420/1/6
f 399/1/6 400/1/6 421/1/6
f 420/3/6 399/3/6 421/3/6
f 421/1/6 400/1/6 422/1/6
f 401/1/6 402/1/6 423/1/6
f 402/2/6 403/2/6 423/2/6
f 403/1/6 404/1/6 424/1/6
f 423/2/6 403/2/6 424/2/6
f 411/1/6 412/1/6 425/1/6
f 412/2/6 413/2/6 425/2/6
f 413/1/6 414/1/6 426/1/6
f 425/2/6 413/2/6 426/2/6
f 385/1/6 386/1/6 427/1/6
f 386/2/6 387/2/6 428/2/6
f 427/1/6 386/1/6 428/1/6
f 387/1/6 388/1/6 429/1/6
f 428/2/6 387/2/6 429/2/6
f 429/1/6 388/1/6 430/1/6
f 388/2/6 389/2/6 431/2/6
f 430/1/6 388/1/6 431/1/6
f 389/1/6 390/1/6 432/1/6
f 431/2/6 389/2/6 432/2/6
f 432/1/6 390/1/6 433/1/6
f 390/2/6 391/2/6 434/2/6
f 433/1/6 390/1/6 434/1/6
f 391/1/6 415/1/6 435/1/6
f 434/2/6 391/2/6 435/2/6
f 435/1/6 415/1/6 436/1/6
f 415/3/6 416/3/6 437/3/6
f 436/1/6 415/1/6 437/1/6
f 416/1/6 417/1/6 438/1/6
f 437/3/6 416/3/6 438/3/6
f 394/2/6 395/2/6 439/2/6
f 438/1/6 417/1/6 439/1/6
f 417/1/6 394/1/6 439/1/6
f 395/1/6 418/1/6 440/1/6
f 439/2/6 395/2/6 440/2/6
f 418/1/6 419/1/6 440/1/6
f 419/1/6 420/1/6 440/1/6
f 420/1/6 421/1/6 440/1/6
f 440/1/6 421/1/6 441/1/6
f 421/3/6 422/3/6 442/3/6
f 441/1/6 421/1/6 442/1/6
f 422/1/6 400/1/6 443/1/6
f 442/3/6 422/3/6 443/3/6
f 400/2/6 401/2/6 444/2/6
f 443/1/6 400/1/6 444/1/6
f 405/1/6 406/1/6 445/1/6
f 406/2/6 407/2/6 446/2/6
f 445/1/6 406/1/6 446/1/6
f 407/1/6 408/1/6 447/1/6
f 446/2/6 407/2/6 447/2/6
f 435/1/6 436/1/6 448/1/6
f 434/1/6 435/1/6 448/1/6
f 436/3/6 437/3/6 449/3/6
f 448/1/6 436/1/6 449/1/6
f 437/1/6 438/1/6 450/1/6
f 449/3/6 437/3/6 450/3/6
f 438/1/6 439/1/6 450/1/6
f 439/1/6 440/1/6 450/1/6
f 440/2/6 441/2/6 451/2/6
f 450/1/6 440/1/6 451/1/6
f 442/1/6 443/1/6 452/1/6
f 451/2/6 441/2/6 452/2/6
f 441/1/6 442/1/6 452/1/6
f 452/1/6 443/1/6 453/1/6
f 453/1/6 443/1/6 454/1/6
f 454/1/6 443/1/6 455/1/6
f 443/3/6 444/3/6 456/3/6
f 455/1/6 443/1/6 456/1/6
f 444/2/6 401/2/6 457/2/6
f 456/3/6 444/3/6 457/3/6
f 401/1/6 423/1/6 458/1/6
f 457/2/6 401/2/6 458/2/6
f 423/1/6 424/1/6 458/1/6
f 458/1/6 424/1/6 459/1/6
f 459/1/6 424/1/6 460/1/6
f 424/1/6 404/1/6 461/1/6
f 460/1/6 424/1/6 461/1/6
f 405/1/6 445/1/6 462/1/6
f 445/2/6 446/2/6 463/2/6
f 462/1/6 445/1/6 463/1/6
f 446/1/6 447/1/6 464/1/6
f 463/2/6 446/2/6 464/2/6
f 409/1/6 410/1/6 465/1/6
f 410/2/6 411/2/6 465/2/6
f 411/1/6 425/1/6 466/1/6
f 465/2/6 411/2/6 466/2/6
f 425/1/6 426/1/6 466/1/6
f 466/1/6 426/1/6 467/1/6
f 385/1/6 427/1/6 468/1/6
f 427/2/6 428/2/6 469/2/6
f 468/1/6 427/1/6 469/1/6
f 429/1/6 430/1/6 470/1/6
f 469/2/6 428/2/6 470/2/6
f 428/1/6 429/1/6 470/1/6
f 432/1/6 433/1/6 471/1/6
f 433/2/6 434/2/6 471/2/6
f 431/1/6 432/1/6 471/1/6
f 434/1/6 448/1/6 472/1/6
f 471/2/6 434/2/6 472/2/6
f 448/3/6 449/3/6 473/3/6
f 472/1/6 448/1/6 473/1/6
f 450/1/6 451/1/6 474/1/6
f 473/3/6 449/3/6 474/3/6
f 449/1/6 450/1/6 474/1/6
f 451/1/6 452/1/6 474/1/6
f 452/2/6 453/2/6 475/2/6
f 474/1/6 452/1/6 475/1/6
f 453/1/6 454/1/6 476/1/6
f 475/2/6 453/2/6 476/2/6
f 476/1/6 454/1/6 477/1/6
f 477/1/6 454/1/6 478/1/6
f 454/2/6 455/2/6 479/2/6
f 478/1/6 454/1/6 479/1/6
f 456/1/6 457/1/6 480/1/6
f 479/2/6 455/2/6 480/2/6
f 455/1/6 456/1/6 480/1/6
f 458/3/6 459/3/6 481/3/6
f 480/1/6 457/1/6 481/1/6
f 457/3/6 458/3/6 481/3/6
f 481/3/6 459/3/6 482/3/6
f 459/1/6 460/1/6 483/1/6
f 482/3/6 459/3/6 483/3/6
f 483/1/6 460/1/6 484/1/6
f 460/2/6 461/2/6 485/2/6
f 484/1/6 460/1/6 485/1/6
f 461/1/6 404/1/6 486/1/6
f 485/2/6 461/2/6 486/2/6
f 486/1/6 404/1/6 487/1/6
f 404/2/6 405/2/6 488/2/6
f 487/1/6 404/1/6 488/1/6
f 405/1/6 462/1/6 489/1/6
f 488/2/6 405/2/6 489/2/6
f 462/2/6 463/2/6 490/2/6
f 489/1/6 462/1/6 490/1/6
f 463/1/6 464/1/6 491/1/6
f 490/2/6 463/2/6 491/2/6
f 431/1/6 471/1/6 492/1/6
f 471/3/6 472/3/6 493/3/6
f 492/1/6 471/1/6 493/1/6
f 472/3/6 473/3/6 493/3/6
f 493/3/6 473/3/6 494/3/6
f 474/1/6 475/1/6 495/1/6
f 494/3/6 473/3/6 495/3/6
f 475/1/6 476/1/6 495/1/6
f 473/1/6 474/1/6 495/1/6
f 476/2/6 477/2/6 496/2/6
f 495/1/6 476/1/6 496/1/6
f 477/1/6 478/1/6 497/1/6
f 496/2/6 477/2/6 497/2/6
f 497/1/6 478/1/6 498/1/6
f 483/3/6 484/3/6 499/3/6
f 482/1/6 483/1/6 499/1/6
f 484/1/6 485/1/6 500/1/6
f 499/3/6 484/3/6 500/3/6
f 485/1/6 486/1/6 500/1/6
f 500/1/6 486/1/6 501/1/6
f 488/1/6 489/1/6 502/1/6
f 487/1/6 488/1/6 502/1/6
f 489/2/6 490/2/6 503/2/6
f 502/1/6 489/1/6 503/1/6
f 447/1/6 408/1/6 504/1/6
f 491/1/6 464/1/6 504/1/6
f 490/1/6 491/1/6 504/1/6
f 408/2/6 409/2/6 504/2/6
f 464/1/6 447/1/6 504/1/6
f 409/1/6 465/1/6 505/1/6
f 504/2/6 409/2/6 505/2/6
f 465/1/6 466/1/6 505/1/6
f 505/1/6 466/1/6 506/1/6
f 470/1/6 430/1/6 507/1/6
f 469/1/6 470/1/6 507/1/6
f 430/2/6 431/2/6 508/2/6
f 507/1/6 430/1/6 508/1/6
f 431/1/6 492/1/6 509/1/6
f 508/2/6 431/2/6 509/2/6
f 509/1/6 492/1/6 510/1/6
f 492/3/6 493/3/6 511/3/6
f 510/1/6 492/1/6 511/1/6
f 511/3/6 493/3/6 512/3/6
f 493/2/6 494/2/6 513/2/6
f 512/3/6 493/3/6 513/3/6
f 495/1/6 496/1/6 514/1/6
f 513/2/6 494/2/6 514/2/6
f 496/1/6 497/1/6 514/1/6
f 494/1/6 495/1/6 514/1/6
f 498/1/6 478/1/6 515/1/6
f 497/2/6 498/2/6 515/2/6
f 478/2/6 479/2/6 516/2/6
f 515/1/6 478/1/6 516/1/6
f 479/1/6 480/1/6 517/1/6
f 516/2/6 479/2/6 517/2/6
f 480/1/6 481/1/6 517/1/6
f 517/1/6 481/1/6 518/1/6
f 499/1/6 500/1/6 519/1/6
f 500/3/6 501/3/6 519/3/6
f 501/1/6 486/1/6 520/1/6
f 519/3/6 501/3/6 520/3/6
f 520/1/6 486/1/6 521/1/6
f 521/1/6 486/1/6 522/1/6
f 486/2/6 487/2/6 523/2/6
f 522/1/6 486/1/6 523/1/6
f 487/1/6 502/1/6 524/1/6
f 523/2/6 487/2/6 524/2/6
f 502/2/6 503/2/6 525/2/6
f 524/1/6 502/1/6 525/1/6
f 385/1/6 468/1/6 526/1/6
f 468/2/6 469/2/6 527/2/6
f 526/1/6 468/1/6 527/1/6
f 469/1/6 507/1/6 528/1/6
f 527/2/6 469/2/6 528/2/6
f 528/1/6 507/1/6 529/1/6
f 507/2/6 508/2/6 530/2/6
f 529/1/6 507/1/6 530/1/6
f 508/1/6 509/1/6 531/1/6
f 530/2/6 508/2/6 531/2/6
f 509/1/6 510/1/6 531/1/6
f 510/3/6 511/3/6 532/3/6
f 531/1/6 510/1/6 532/1/6
f 511/1/6 512/1/6 533/1/6
f 532/3/6 511/3/6 533/3/6
f 514/1/6 497/1/6 534/1/6
f 515/2/6 516/2/6 534/2/6
f 497/2/6 515/2/6 534/2/6
f 513/1/6 514/1/6 534/1/6
f 534/2/6 516/2/6 535/2/6
f 518/1/6 481/1/6 536/1/6
f 481/2/6 482/2/6 537/2/6
f 536/1/6 481/1/6 537/1/6
f 499/1/6 519/1/6 538/1/6
f 537/2/6 482/2/6 538/2/6
f 482/1/6 499/1/6 538/1/6
f 519/1/6 520/1/6 538/1/6
f 520/3/6 521/3/6 539/3/6
f 538/1/6 520/1/6 539/1/6
f 521/1/6 522/1/6 540/1/6
f 539/3/6 521/3/6 540/3/6
f 540/1/6 522/1/6 541/1/6
f 525/2/6 503/2/6 542/2/6
f 524/2/6 525/2/6 542/2/6
f 503/2/6 490/2/6 543/2/6
f 542/2/6 503/2/6 543/2/6
f 528/1/6 529/1/6 544/1/6
f 527/1/6 528/1/6 544/1/6
f 530/3/6 531/3/6 545/3/6
f 544/1/6 529/1/6 545/1/6
f 529/3/6 530/3/6 545/3/6
f 531/3/6 532/3/6 545/3/6
f 545/3/6 532/3/6 546/3/6
f 546/3/6 532/3/6 547/3/6
f 532/1/6 533/1/6 548/1/6
f 547/3/6 532/3/6 548/3/6
f 534/1/6 535/1/6 549/1/6
f 513/1/6 534/1/6 549/1/6
f 535/2/6 516/2/6 550/2/6
f 549/1/6 535/1/6 550/1/6
f 516/1/6 517/1/6 551/1/6
f 550/2/6 516/2/6 551/2/6
f 517/2/6 518/2/6 552/2/6
f 551/1/6 517/1/6 552/1/6
f 540/3/6 541/3/6 553/3/6
f 538/1/6 539/1/6 553/1/6
f 539/1/6 540/1/6 553/1/6
f 537/1/6 538/1/6 553/1/6
f 541/1/6 522/1/6 554/1/6
f 553/3/6 541/3/6 554/3/6
f 554/1/6 522/1/6 555/1/6
f 523/1/6 524/1/6 556/1/6
f 522/2/6 523/2/6 556/2/6
f 524/2/6 542/2/6 557/2/6
f 556/1/6 524/1/6 557/1/6
f 542/1/6 543/1/6 558/1/6
f 557/2/6 542/2/6 558/2/6
f 543/2/6 490/2/6 559/2/6
f 558/1/6 543/1/6 559/1/6
f 385/1/6 526/1/6 560/1/6
f 526/2/6 527/2/6 561/2/6
f 560/1/6 526/1/6 561/1/6
f 527/1/6 544/1/6 562/1/6
f 561/2/6 527/2/6 562/2/6
f 562/1/6 544/1/6 563/1/6
f 544/3/6 545/3/6 564/3/6
f 563/1/6 544/1/6 564/1/6
f 545/1/6 546/1/6 565/1/6
f 564/3/6 545/3/6 565/3/6
f 546/2/6 547/2/6 566/2/6
f 565/1/6 546/1/6 566/1/6
f 547/1/6 548/1/6 567/1/6
f 566/2/6 547/2/6 567/2/6
f 533/1/6 512/1/6 568/1/6
f 567/1/6 548/1/6 568/1/6
f 548/1/6 533/1/6 568/1/6
f 512/2/6 513/2/6 569/2/6
f 568/1/6 512/1/6 569/1/6
f 513/1/6 549/1/6 570/1/6
f 569/2/6 513/2/6 570/2/6
f 551/2/6 552/2/6 571/2/6
f 550/1/6 551/1/6 571/1/6
f 552/2/6 518/2/6 572/2/6
f 571/2/6 552/2/6 572/2/6
f 554/3/6 555/3/6 573/3/6
f 553/1/6 554/1/6 573/1/6
f 555/1/6 522/1/6 574/1/6
f 573/3/6 555/3/6 574/3/6
f 574/1/6 522/1/6 575/1/6
f 522/2/6 556/2/6 576/2/6
f 556/2/6 557/2/6 576/2/6
f 557/1/6 558/1/6 577/1/6
f 576/2/6 557/2/6 577/2/6
f 506/1/6 466/1/6 578/1/6
f 466/2/6 467/2/6 578/2/6
f 467/1/6 426/1/6 579/1/6
f 578/2/6 467/2/6 579/2/6
f 579/1/6 426/1/6 580/1/6
f 426/1/6 414/1/6 581/1/6
f 580/1/6 426/1/6 581/1/6
f 581/1/6 414/1/6 582/1/6
f 560/2/6 561/2/6 583/2/6
f 561/1/6 562/1/6 583/1/6
f 562/1/6 563/1/6 583/1/6
f 563/3/6 564/3/6 584/3/6
f 583/1/6 563/1/6 584/1/6
f 564/1/6 565/1/6 585/1/6
f 584/3/6 564/3/6 585/3/6
f 570/1/6 549/1/6 586/1/6
f 569/1/6 570/1/6 586/1/6
f 549/2/6 550/2/6 587/2/6
f 586/1/6 549/1/6 587/1/6
f 550/1/6 571/1/6 588/1/6
f 587/2/6 550/2/6 588/2/6
f 571/1/6 572/1/6 588/1/6
f 574/3/6 575/3/6 589/3/6
f 573/1/6 574/1/6 589/1/6
f 575/1/6 522/1/6 590/1/6
f 589/3/6 575/3/6 590/3/6
f 590/1/6 522/1/6 591/1/6
f 577/1/6 558/1/6 592/1/6
f 576/1/6 577/1/6 592/1/6
f 558/2/6 559/2/6 592/2/6
f 559/2/6 490/2/6 593/2/6
f 592/2/6 559/2/6 593/2/6
f 385/1/6 560/1/6 594/1/6
f 560/2/6 583/2/6 595/2/6
f 594/1/6 560/1/6 595/1/6
f 583/3/6 584/3/6 596/3/6
f 595/2/6 583/2/6 596/2/6
f 584/1/6 585/1/6 597/1/6
f 596/3/6 584/3/6 597/3/6
f 588/1/6 572/1/6 598/1/6
f 587/1/6 588/1/6 598/1/6
f 572/2/6 518/2/6 599/2/6
f 598/1/6 572/1/6 599/1/6
f 518/1/6 536/1/6 600/1/6
f 599/2/6 518/2/6 600/2/6
f 600/1/6 536/1/6 601/1/6
f 590/3/6 591/3/6 602/3/6
f 589/1/6 590/1/6 602/1/6
f 591/1/6 522/1/6 603/1/6
f 602/3/6 591/3/6 603/3/6
f 603/1/6 522/1/6 604/1/6
f 604/1/6 522/1/6 605/1/6
f 522/2/6 576/2/6 606/2/6
f 605/1/6 522/1/6 606/1/6
f 576/1/6 592/1/6 607/1/6
f 606/2/6 576/2/6 607/2/6
f 592/1/6 593/1/6 607/1/6
f 607/1/6 593/1/6 608/1/6
f 385/1/6 594/1/6 609/1/6
f 594/3/6 595/3/6 610/3/6
f 609/1/6 594/1/6 610/1/6
f 595/3/6 596/3/6 610/3/6
f 610/3/6 596/3/6 611/3/6
f 611/3/6 596/3/6 612/3/6
f 596/1/6 597/1/6 613/1/6
f 612/3/6 596/3/6 613/3/6
f 585/1/6 565/1/6 614/1/6
f 613/1/6 597/1/6 614/1/6
f 597/1/6 585/1/6 614/1/6
f 565/2/6 566/2/6 615/2/6
f 614/1/6 565/1/6 615/1/6
f 567/1/6 568/1/6 616/1/6
f 615/2/6 566/2/6 616/2/6
f 566/1/6 567/1/6 616/1/6
f 569/1/6 586/1/6 617/1/6
f 586/2/6 587/2/6 618/2/6
f 617/1/6 586/1/6 618/1/6
f 587/1/6 598/1/6 619/1/6
f 618/2/6 587/2/6 619/2/6
f 600/2/6 601/2/6 620/2/6
f 599/1/6 600/1/6 620/1/6
f 601/1/6 536/1/6 621/1/6
f 620/2/6 601/2/6 621/2/6
f 621/1/6 536/1/6 622/1/6
f 603/3/6 604/3/6 623/3/6
f 602/1/6 603/1/6 623/1/6
f 604/1/6 605/1/6 624/1/6
f 623/3/6 604/3/6 624/3/6
f 624/1/6 605/1/6 625/1/6
f 625/1/6 605/1/6 626/1/6
f 605/2/6 606/2/6 627/2/6
f 626/1/6 605/1/6 627/1/6
f 606/1/6 607/1/6 628/1/6
f 627/2/6 606/2/6 628/2/6
f 593/2/6 490/2/6 629/2/6
f 608/1/6 593/1/6 629/1/6
f 490/1/6 504/1/6 630/1/6
f 629/2/6 490/2/6 630/2/6
f 504/1/6 505/1/6 630/1/6
f 630/1/6 505/1/6 631/1/6
f 581/2/6 582/2/6 632/2/6
f 580/1/6 581/1/6 632/1/6
f 582/1/6 414/1/6 633/1/6
f 632/2/6 582/2/6 633/2/6
f 633/1/6 414/1/6 634/1/6
f 385/1/6 609/1/6 635/1/6
f 609/3/6 610/3/6 636/3/6
f 635/1/6 609/1/6 636/1/6
f 610/1/6 611/1/6 637/1/6
f 636/3/6 610/3/6 637/3/6
f 616/1/6 568/1/6 638/1/6
f 615/1/6 616/1/6 638/1/6
f 568/2/6 569/2/6 639/2/6
f 638/1/6 568/1/6 639/1/6
f 569/1/6 617/1/6 640/1/6
f 639/2/6 569/2/6 640/2/6
f 640/1/6 617/1/6 641/1/6
f 617/2/6 618/2/6 642/2/6
f 641/1/6 617/1/6 642/1/6
f 618/1/6 619/1/6 643/1/6
f 642/2/6 618/2/6 643/2/6
f 621/2/6 622/2/6 644/2/6
f 620/1/6 621/1/6 644/1/6
f 622/1/6 536/1/6 645/1/6
f 644/2/6 622/2/6 645/2/6
f 645/1/6 536/1/6 646/1/6
f 625/1/6 626/1/6 647/1/6
f 626/2/6 627/2/6 648/2/6
f 647/1/6 626/1/6 648/1/6
f 627/1/6 628/1/6 649/1/6
f 648/2/6 627/2/6 649/2/6
f 631/1/6 505/1/6 650/1/6
f 630/2/6 631/2/6 650/2/6
f 650/1/6 505/1/6 651/1/6
f 385/1/6 635/1/6 652/1/6
f 635/3/6 636/3/6 653/3/6
f 652/1/6 635/1/6 653/1/6
f 636/1/6 637/1/6 654/1/6
f 653/3/6 636/3/6 654/3/6
f 637/1/6 611/1/6 655/1/6
f 654/1/6 637/1/6 655/1/6
f 611/2/6 612/2/6 656/2/6
f 655/1/6 611/1/6 656/1/6
f 612/1/6 613/1/6 657/1/6
f 656/2/6 612/2/6 657/2/6
f 613/1/6 614/1/6 657/1/6
f 646/1/6 536/1/6 658/1/6
f 536/2/6 537/2/6 658/2/6
f 537/1/6 553/1/6 659/1/6
f 658/2/6 537/2/6 659/2/6
f 589/1/6 602/1/6 659/1/6
f 573/1/6 589/1/6 659/1/6
f 602/1/6 623/1/6 659/1/6
f 553/1/6 573/1/6 659/1/6
f 623/1/6 624/1/6 659/1/6
f 624/3/6 625/3/6 660/3/6
f 659/1/6 624/1/6 660/1/6
f 625/1/6 647/1/6 661/1/6
f 660/3/6 625/3/6 661/3/6
f 661/1/6 647/1/6 662/1/6
f 505/2/6 506/2/6 663/2/6
f 651/1/6 505/1/6 663/1/6
f 506/1/6 578/1/6 664/1/6
f 663/2/6 506/2/6 664/2/6
f 578/1/6 579/1/6 664/1/6
f 664/1/6 579/1/6 665/1/6
f 385/1/6 652/1/6 666/1/6
f 652/3/6 653/3/6 667/3/6
f 666/1/6 652/1/6 667/1/6
f 653/1/6 654/1/6 668/1/6
f 667/3/6 653/3/6 668/3/6
f 654/1/6 655/1/6 668/1/6
f 639/1/6 640/1/6 669/1/6
f 640/1/6 641/1/6 669/1/6
f 641/2/6 642/2/6 670/2/6
f 669/1/6 641/1/6 670/1/6
f 642/1/6 643/1/6 671/1/6
f 670/2/6 642/2/6 671/2/6
f 645/2/6 646/2/6 672/2/6
f 644/1/6 645/1/6 672/1/6
f 646/1/6 658/1/6 673/1/6
f 672/2/6 646/2/6 673/2/6
f 658/1/6 659/1/6 673/1/6
f 660/1/6 661/1/6 673/1/6
f 659/1/6 660/1/6 673/1/6
f 673/1/6 661/1/6 674/1/6
f 661/3/6 662/3/6 675/3/6
f 674/1/6 661/1/6 675/1/6
f 662/1/6 647/1/6 676/1/6
f 675/3/6 662/3/6 676/3/6
f 676/1/6 647/1/6 677/1/6
f 677/1/6 647/1/6 678/1/6
f 647/2/6 648/2/6 679/2/6
f 678/1/6 647/1/6 679/1/6
f 648/1/6 649/1/6 680/1/6
f 679/2/6 648/2/6 680/2/6
f 630/2/6 650/2/6 681/2/6
f 650/2/6 651/2/6 681/2/6
f 651/1/6 663/1/6 682/1/6
f 681/2/6 651/2/6 682/2/6
f 663/1/6 664/1/6 682/1/6
f 682/1/6 664/1/6 683/1/6
f 579/2/6 580/2/6 684/2/6
f 665/1/6 579/1/6 684/1/6
f 580/1/6 632/1/6 685/1/6
f 684/2/6 580/2/6 685/2/6
f 632/1/6 633/1/6 685/1/6
f 685/1/6 633/1/6 686/1/6
f 385/1/6 666/1/6 687/1/6
f 666/3/6 667/3/6 688/3/6
f 687/1/6 666/1/6 688/1/6
f 667/1/6 668/1/6 689/1/6
f 688/3/6 667/3/6 689/3/6
f 657/1/6 614/1/6 690/1/6
f 656/1/6 657/1/6 690/1/6
f 614/2/6 615/2/6 691/2/6
f 690/1/6 614/1/6 691/1/6
f 615/1/6 638/1/6 692/1/6
f 691/2/6 615/2/6 692/2/6
f 692/1/6 638/1/6 693/1/6
f 638/2/6 639/2/6 694/2/6
f 693/1/6 638/1/6 694/1/6
f 639/1/6 669/1/6 695/1/6
f 694/2/6 639/2/6 695/2/6
f 673/2/6 674/2/6 696/2/6
f 672/1/6 673/1/6 696/1/6
f 674/1/6 675/1/6 697/1/6
f 696/2/6 674/2/6 697/2/6
f 675/1/6 676/1/6 697/1/6
f 697/1/6 676/1/6 698/1/6
f 676/3/6 677/3/6 699/3/6
f 698/1/6 676/1/6 699/1/6
f 677/1/6 678/1/6 700/1/6
f 699/3/6 677/3/6 700/3/6
f 700/1/6 678/1/6 701/1/6
f 701/1/6 678/1/6 702/1/6
f 678/2/6 679/2/6 703/2/6
f 702/1/6 678/1/6 703/1/6
f 679/1/6 680/1/6 704/1/6
f 703/2/6 679/2/6 704/2/6
f 385/1/6 687/1/6 705/1/6
f 687/3/6 688/3/6 706/3/6
f 705/1/6 687/1/6 706/1/6
f 688/1/6 689/1/6 707/1/6
f 706/3/6 688/3/6 707/3/6
f 689/1/6 668/1/6 708/1/6
f 707/1/6 689/1/6 708/1/6
f 668/1/6 655/1/6 708/1/6
f 655/2/6 656/2/6 709/2/6
f 708/1/6 655/1/6 709/1/6
f 656/1/6 690/1/6 710/1/6
f 709/2/6 656/2/6 710/2/6
f 695/1/6 669/1/6 711/1/6
f 694/1/6 695/1/6 711/1/6
f 669/2/6 670/2/6 712/2/6
f 711/1/6 669/1/6 712/1/6
f 670/1/6 671/1/6 713/1/6
f 712/2/6 670/2/6 713/2/6
f 671/1/6 643/1/6 714/1/6
f 713/1/6 671/1/6 714/1/6
f 598/2/6 599/2/6 714/2/6
f 619/1/6 598/1/6 714/1/6
f 643/1/6 619/1/6 714/1/6
f 644/1/6 672/1/6 715/1/6
f 714/2/6 599/2/6 715/2/6
f 672/1/6 696/1/6 715/1/6
f 599/1/6 620/1/6 715/1/6
f 620/1/6 644/1/6 715/1/6
f 696/1/6 697/1/6 715/1/6
f 697/2/6 698/2/6 716/2/6
f 715/1/6 697/1/6 716/1/6
f 698/1/6 699/1/6 717/1/6
f 716/2/6 698/2/6 717/2/6
f 699/1/6 700/1/6 717/1/6
f 717/1/6 700/1/6 718/1/6
f 700/3/6 701/3/6 719/3/6
f 718/1/6 700/1/6 719/1/6
f 701/1/6 702/1/6 720/1/6
f 719/3/6 701/3/6 720/3/6
f 720/1/6 702/1/6 721/1/6
f 702/2/6 703/2/6 722/2/6
f 721/1/6 702/1/6 722/1/6
f 703/1/6 704/1/6 723/1/6
f 722/2/6 703/2/6 723/2/6
f 628/1/6 607/1/6 724/1/6
f 723/1/6 704/1/6 724/1/6
f 680/1/6 649/1/6 724/1/6
f 649/1/6 628/1/6 724/1/6
f 607/2/6 608/2/6 724/2/6
f 704/1/6 680/1/6 724/1/6
f 608/1/6 629/1/6 725/1/6
f 724/2/6 608/2/6 725/2/6
f 629/1/6 630/1/6 725/1/6
f 630/2/6 681/2/6 726/2/6
f 725/1/6 630/1/6 726/1/6
f 681/1/6 682/1/6 727/1/6
f 726/2/6 681/2/6 727/2/6
f 682/2/6 683/2/6 728/2/6
f 727/1/6 682/1/6 728/1/6
f 683/1/6 664/1/6 729/1/6
f 728/2/6 683/2/6 729/2/6
f 729/1/6 664/1/6 730/1/6
f 686/1/6 633/1/6 731/1/6
f 633/2/6 634/2/6 731/2/6
f 634/1/6 414/1/6 732/1/6
f 731/2/6 634/2/6 732/2/6
f 732/1/6 414/1/6 733/1/6
f 385/1/6 705/1/6 734/1/6
f 705/3/6 706/3/6 735/3/6
f 734/1/6 705/1/6 735/1/6
f 706/1/6 707/1/6 736/1/6
f 735/3/6 706/3/6 736/3/6
f 707/1/6 708/1/6 736/1/6
f 385/1/6 734/1/6 737/1/6
f 734/3/6 735/3/6 738/3/6
f 737/1/6 734/1/6 738/1/6
f 735/1/6 736/1/6 739/1/6
f 738/3/6 735/3/6 739/3/6
f 736/1/6 708/1/6 740/1/6
f 739/1/6 736/1/6 740/1/6
f 708/2/6 709/2/6 741/2/6
f 740/1/6 708/1/6 741/1/6
f 709/1/6 710/1/6 742/1/6
f 741/2/6 709/2/6 742/2/6
f 710/1/6 690/1/6 743/1/6
f 742/1/6 710/1/6 743/1/6
f 690/2/6 691/2/6 744/2/6
f 743/1/6 690/1/6 744/1/6
f 692/1/6 693/1/6 745/1/6
f 744/2/6 691/2/6 745/2/6
f 691/1/6 692/1/6 745/1/6
f 694/1/6 711/1/6 746/1/6
f 711/2/6 712/2/6 747/2/6
f 746/1/6 711/1/6 747/1/6
f 713/1/6 714/1/6 748/1/6
f 747/2/6 712/2/6 748/2/6
f 712/1/6 713/1/6 748/1/6
f 715/1/6 716/1/6 748/1/6
f 716/1/6 717/1/6 748/1/6
f 714/1/6 715/1/6 748/1/6
f 717/2/6 718/2/6 749/2/6
f 748/1/6 717/1/6 749/1/6
f 719/1/6 720/1/6 750/1/6
f 749/2/6 718/2/6 750/2/6
f 718/1/6 719/1/6 750/1/6
f 720/1/6 721/1/6 750/1/6
f 750/1/6 721/1/6 751/1/6
f 751/1/6 721/1/6 752/1/6
f 721/2/6 722/2/6 753/2/6
f 752/1/6 721/1/6 753/1/6
f 727/1/6 728/1/6 754/1/6
f 753/2/6 722/2/6 754/2/6
f 724/1/6 725/1/6 754/1/6
f 722/1/6 723/1/6 754/1/6
f 723/1/6 724/1/6 754/1/6
f 728/1/6 729/1/6 754/1/6
f 726/1/6 727/1/6 754/1/6
f 725/1/6 726/1/6 754/1/6
f 729/2/6 730/2/6 755/2/6
f 754/1/6 729/1/6 755/1/6
f 730/1/6 664/1/6 756/1/6
f 755/2/6 730/2/6 756/2/6
f 756/1/6 664/1/6 757/1/6
f 664/2/6 665/2/6 758/2/6
f 757/1/6 664/1/6 758/1/6
f 665/1/6 684/1/6 759/1/6
f 758/2/6 665/2/6 759/2/6
f 684/1/6 685/1/6 759/1/6
f 685/2/6 686/2/6 760/2/6
f 759/1/6 685/1/6 760/1/6
f 686/1/6 731/1/6 761/1/6
f 760/2/6 686/2/6 761/2/6
f 731/1/6 732/1/6 761/1/6
f 385/1/6 737/1/6 762/1/6
f 737/3/6 738/3/6 763/3/6
f 762/1/6 737/1/6 763/1/6
f 738/1/6 739/1/6 764/1/6
f 763/3/6 738/3/6 764/3/6
f 739/1/6 740/1/6 764/1/6
f 744/1/6 745/1/6 765/1/6
f 745/1/6 693/1/6 765/1/6
f 693/2/6 694/2/6 766/2/6
f 765/1/6 693/1/6 766/1/6
f 750/2/6 751/2/6 767/2/6
f 749/1/6 750/1/6 767/1/6
f 748/1/6 749/1/6 767/1/6
f 747/1/6 748/1/6 767/1/6
f 751/1/6 752/1/6 768/1/6
f 767/2/6 751/2/6 768/2/6
f 752/2/6 753/2/6 769/2/6
f 768/1/6 752/1/6 769/1/6
f 755/1/6 756/1/6 770/1/6
f 769/2/6 753/2/6 770/2/6
f 754/1/6 755/1/6 770/1/6
f 753/1/6 754/1/6 770/1/6
f 761/1/6 732/1/6 771/1/6
f 758/1/6 759/1/6 771/1/6
f 760/1/6 761/1/6 771/1/6
f 757/1/6 758/1/6 771/1/6
f 759/1/6 760/1/6 771/1/6
f 732/2/6 733/2/6 771/2/6
f 733/1/6 414/1/6 772/1/6
f 771/2/6 733/2/6 772/2/6
f 385/1/6 762/1/6 773/1/6
f 762/3/6 763/3/6 774/3/6
f 773/1/6 762/1/6 774/1/6
f 763/1/6 764/1/6 775/1/6
f 774/3/6 763/3/6 775/3/6
f 764/1/6 740/1/6 776/1/6
f 775/1/6 764/1/6 776/1/6
f 740/2/6 741/2/6 776/2/6
f 742/1/6 743/1/6 777/1/6
f 776/2/6 741/2/6 777/2/6
f 741/1/6 742/1/6 777/1/6
f 743/2/6 744/2/6 778/2/6
f 777/1/6 743/1/6 778/1/6
f 744/1/6 765/1/6 779/1/6
f 778/2/6 744/2/6 779/2/6
f 694/1/6 746/1/6 780/1/6
f 746/2/6 747/2/6 781/2/6
f 780/1/6 746/1/6 781/1/6
f 767/1/6 768/1/6 782/1/6
f 781/2/6 747/2/6 782/2/6
f 769/1/6 770/1/6 782/1/6
f 747/1/6 767/1/6 782/1/6
f 768/1/6 769/1/6 782/1/6
f 770/1/6 756/1/6 783/1/6
f 782/1/6 770/1/6 783/1/6
f 756/2/6 757/2/6 783/2/6
f 757/1/6 771/1/6 784/1/6
f 783/2/6 757/2/6 784/2/6
f 771/1/6 772/1/6 784/1/6
f 784/1/6 772/1/6 785/1/6
f 385/1/6 773/1/6 786/1/6
f 773/3/6 774/3/6 786/3/6
f 778/1/6 779/1/6 787/1/6
f 786/3/6 774/3/6 787/3/6
f 774/1/6 775/1/6 787/1/6
f 776/1/6 777/1/6 787/1/6
f 775/1/6 776/1/6 787/1/6
f 777/1/6 778/1/6 787/1/6
f 765/2/6 766/2/6 788/2/6
f 787/1/6 779/1/6 788/1/6
f 779/1/6 765/1/6 788/1/6
f 766/2/6 694/2/6 789/2/6
f 788/2/6 766/2/6 789/2/6
f 694/1/6 780/1/6 790/1/6
f 780/2/6 781/2/6 791/2/6
f 790/1/6 780/1/6 791/1/6
f 781/1/6 782/1/6 792/1/6
f 782/1/6 783/1/6 792/1/6
f 783/1/6 784/1/6 792/1/6
f 792/1/6 784/1/6 793/1/6
f 793/1/6 784/1/6 794/1/6
f 794/1/6 784/1/6 795/1/6
f 784/2/6 785/2/6 796/2/6
f 785/1/6 772/1/6 796/1/6
f 796/1/6 772/1/6 797/1/6
f 787/1/6 788/1/6 798/1/6
f 786/1/6 787/1/6 798/1/6
f 385/1/6 786/1/6 798/1/6
f 788/1/6 789/1/6 798/1/6
f 789/2/6 694/2/6 799/2/6
f 798/1/6 789/1/6 799/1/6
f 694/1/6 790/1/6 800/1/6
f 799/2/6 694/2/6 800/2/6
f 790/2/6 791/2/6 801/2/6
f 800/1/6 790/1/6 801/1/6
f 791/2/6 781/2/6 802/2/6
f 801/2/6 791/2/6 802/2/6
f 781/1/6 792/1/6 802/1/6
f 792/2/6 793/2/6 803/2/6
f 802/1/6 792/1/6 803/1/6
f 793/1/6 794/1/6 804/1/6
f 803/2/6 793/2/6 804/2/6
f 794/2/6 795/2/6 805/2/6
f 804/1/6 794/1/6 805/1/6
f 795/1/6 784/1/6 806/1/6
f 805/2/6 795/2/6 806/2/6
f 796/2/6 797/2/6 807/2/6
f 806/1/6 784/1/6 807/1/6
f 784/2/6 796/2/6 807/2/6
f 797/1/6 772/1/6 808/1/6
f 807/2/6 797/2/6 808/2/6
f 772/1/6 414/1/6 809/1/6
f 808/1/6 772/1/6 809/1/6
