# MagicaVoxel @ Ephtracy

# group
o 

# material
mtllib stadium-large-complex-7.mtl
usemtl palette

# normals
vn -1 0 0
vn 1 0 0
vn 0 0 1
vn 0 0 -1
vn 0 -1 0
vn 0 1 0

# texcoords
vt 0.970703 0.5
vt 0.978516 0.5
vt 0.982422 0.5

# verts
v 0.3 2 5
v 0.3 2 4.1
v 0.3 2 4
v 0.3 2.1 5
v 0.3 2.1 4.9
v 0.3 2.2 5
v 0.3 2.2 4.9
v 0.3 2.2 4.1
v 0.3 2.2 4
v 0.3 2.3 5
v 0.3 2.3 4.9
v 0.3 2.6 5
v 0.3 2.6 4.9
v 0.3 3 5
v 0.3 3 4
v 11.8 2 5
v 11.8 2 4
v 11.8 2.1 5
v 11.8 2.1 4.9
v 11.8 2.4 5
v 11.8 2.4 4.9
v 11.8 3 5
v 11.8 3 4
v 0.3 2 5
v 0.3 2.1 5
v 0.3 2.2 5
v 0.3 2.3 5
v 0.3 2.6 5
v 0.3 3 5
v 0.5 2.1 5
v 0.5 2.2 5
v 0.5 2.4 5
v 0.5 2.5 5
v 0.7 2.2 5
v 0.7 2.3 5
v 0.7 2.4 5
v 0.7 2.5 5
v 0.7 2.6 5
v 0.7 2.7 5
v 0.9 2.7 5
v 0.9 2.8 5
v 1.1 2.7 5
v 1.1 2.8 5
v 1.1 2.9 5
v 1.2 2.1 5
v 1.2 2.2 5
v 1.2 2.3 5
v 1.3 2.8 5
v 1.3 2.9 5
v 1.3 3 5
v 1.5 2.9 5
v 1.5 3 5
v 1.6 2 5
v 1.6 2.1 5
v 1.6 2.2 5
v 1.6 2.6 5
v 1.6 2.7 5
v 1.6 2.8 5
v 1.9 2 5
v 1.9 2.1 5
v 2 2.7 5
v 2 2.8 5
v 2 2.9 5
v 2.5 2.8 5
v 2.5 2.9 5
v 2.5 3 5
v 2.7 2.9 5
v 2.7 3 5
v 2.9 2.9 5
v 2.9 3 5
v 3.5 2.9 5
v 3.5 3 5
v 3.6 2.9 5
v 3.6 3 5
v 3.7 2.8 5
v 3.7 2.9 5
v 3.7 3 5
v 3.8 2.7 5
v 3.8 2.8 5
v 3.8 2.9 5
v 3.9 2.6 5
v 3.9 2.7 5
v 3.9 2.8 5
v 4 2.4 5
v 4 2.6 5
v 4 2.7 5
v 4.1 2.2 5
v 4.1 2.4 5
v 4.1 2.6 5
v 4.2 2 5
v 4.2 2.2 5
v 4.2 2.4 5
v 4.3 2 5
v 4.3 2.2 5
v 5.5 2.6 5
v 5.5 3 5
v 5.6 2.6 5
v 5.6 3 5
v 6.7 2.9 5
v 6.7 3 5
v 6.9 2.9 5
v 6.9 3 5
v 7.2 2.9 5
v 7.2 3 5
v 7.3 2.9 5
v 7.3 3 5
v 8.6 2.9 5
v 8.6 3 5
v 8.8 2.8 5
v 8.8 2.9 5
v 8.8 3 5
v 9 2.7 5
v 9 2.8 5
v 9 2.9 5
v 9.2 2.6 5
v 9.2 2.7 5
v 9.2 2.8 5
v 9.4 2.5 5
v 9.4 2.6 5
v 9.4 2.7 5
v 9.6 2.4 5
v 9.6 2.5 5
v 9.6 2.6 5
v 9.8 2.3 5
v 9.8 2.4 5
v 9.8 2.5 5
v 10 2.2 5
v 10 2.3 5
v 10 2.4 5
v 10.2 2.1 5
v 10.2 2.2 5
v 10.2 2.3 5
v 10.4 2 5
v 10.4 2.1 5
v 10.4 2.2 5
v 10.5 2 5
v 10.5 2.1 5
v 10.7 2.9 5
v 10.7 3 5
v 10.8 2.9 5
v 10.8 3 5
v 11.5 2 5
v 11.5 2.1 5
v 11.6 2 5
v 11.6 2.1 5
v 11.6 2.3 5
v 11.7 2.3 5
v 11.7 2.4 5
v 11.8 2 5
v 11.8 2.1 5
v 11.8 2.4 5
v 11.8 3 5
v 0.3 2 4
v 0.3 2.2 4
v 0.3 3 4
v 0.4 2 4
v 0.4 2.1 4
v 0.4 2.2 4
v 0.4 2.5 4
v 0.5 2.2 4
v 0.5 2.5 4
v 0.5 2.7 4
v 0.6 2.5 4
v 0.6 2.7 4
v 0.6 2.8 4
v 0.7 2 4
v 0.7 2.1 4
v 0.7 2.7 4
v 0.7 2.8 4
v 0.7 2.9 4
v 0.8 2 4
v 0.8 2.1 4
v 0.8 2.8 4
v 0.8 2.9 4
v 0.8 3 4
v 0.9 2.9 4
v 0.9 3 4
v 1.5 2.9 4
v 1.5 3 4
v 1.6 2 4
v 1.6 2.1 4
v 1.6 2.2 4
v 1.6 2.9 4
v 1.6 3 4
v 2.1 2 4
v 2.1 2.1 4
v 2.1 2.2 4
v 2.3 2 4
v 2.3 2.1 4
v 2.3 2.2 4
v 3.2 2.1 4
v 3.2 2.2 4
v 3.2 2.3 4
v 3.2 2.8 4
v 3.2 2.9 4
v 3.3 2.8 4
v 3.3 2.9 4
v 3.3 3 4
v 3.4 2.9 4
v 3.4 3 4
v 3.7 2.2 4
v 3.7 2.3 4
v 3.7 2.4 4
v 4 2.9 4
v 4 3 4
v 4.1 2.9 4
v 4.1 3 4
v 4.2 2.3 4
v 4.2 2.4 4
v 4.2 2.5 4
v 4.7 2.4 4
v 4.7 2.5 4
v 4.7 2.6 4
v 4.9 2.5 4
v 4.9 2.6 4
v 4.9 2.7 4
v 5.1 2.6 4
v 5.1 2.7 4
v 5.1 2.8 4
v 5.5 2.7 4
v 5.5 2.8 4
v 5.5 2.9 4
v 5.7 2 4
v 5.7 2.1 4
v 5.7 2.8 4
v 5.7 2.9 4
v 5.7 3 4
v 5.8 2 4
v 5.8 2.1 4
v 5.8 2.2 4
v 6 2.1 4
v 6 2.2 4
v 6 2.3 4
v 6.1 2.2 4
v 6.1 2.3 4
v 6.1 2.4 4
v 6.2 2.3 4
v 6.2 2.4 4
v 6.2 2.5 4
v 6.3 2.9 4
v 6.3 3 4
v 6.4 2.4 4
v 6.4 2.5 4
v 6.4 2.6 4
v 6.5 2.5 4
v 6.5 2.6 4
v 6.5 2.7 4
v 6.5 2.9 4
v 6.5 3 4
v 6.6 2.6 4
v 6.6 2.7 4
v 6.6 2.8 4
v 6.6 2.9 4
v 6.6 3 4
v 6.8 2.7 4
v 6.8 2.8 4
v 6.8 3 4
v 6.9 2.9 4
v 6.9 3 4
v 7 2.8 4
v 7 2.9 4
v 7 3 4
v 7.2 2.9 4
v 7.2 3 4
v 9 2 4
v 9 2.1 4
v 9.1 2 4
v 9.1 2.1 4
v 9.1 2.2 4
v 9.3 2.1 4
v 9.3 2.2 4
v 9.3 2.3 4
v 9.5 2.2 4
v 9.5 2.3 4
v 9.5 2.4 4
v 9.6 2.3 4
v 9.6 2.4 4
v 9.6 2.5 4
v 9.7 2.4 4
v 9.7 2.5 4
v 9.7 2.6 4
v 9.8 2.5 4
v 9.8 2.6 4
v 9.8 2.7 4
v 10 2.6 4
v 10 2.7 4
v 10 2.8 4
v 10.1 2.7 4
v 10.1 2.8 4
v 10.1 2.9 4
v 10.2 2.8 4
v 10.2 2.9 4
v 10.2 3 4
v 10.3 2.9 4
v 10.3 3 4
v 11.8 2 4
v 11.8 3 4
v 0.3 2 5
v 1.6 2 5
v 1.9 2 5
v 4.2 2 5
v 4.3 2 5
v 10.4 2 5
v 10.5 2 5
v 11.5 2 5
v 11.6 2 5
v 11.8 2 5
v 1.6 2 4.9
v 1.9 2 4.9
v 4.2 2 4.9
v 4.3 2 4.9
v 10.4 2 4.9
v 10.5 2 4.9
v 11.5 2 4.9
v 11.6 2 4.9
v 0.3 2 4.1
v 0.4 2 4.1
v 0.7 2 4.1
v 0.8 2 4.1
v 1.6 2 4.1
v 2.1 2 4.1
v 2.3 2 4.1
v 5.7 2 4.1
v 5.8 2 4.1
v 9 2 4.1
v 9.1 2 4.1
v 0.3 2 4
v 0.4 2 4
v 0.7 2 4
v 0.8 2 4
v 1.6 2 4
v 2.1 2 4
v 2.3 2 4
v 5.7 2 4
v 5.8 2 4
v 9 2 4
v 9.1 2 4
v 11.8 2 4
v 0.3 3 5
v 1.3 3 5
v 1.5 3 5
v 2.5 3 5
v 2.7 3 5
v 2.9 3 5
v 3.5 3 5
v 3.6 3 5
v 3.7 3 5
v 5.5 3 5
v 5.6 3 5
v 6.7 3 5
v 6.9 3 5
v 7.2 3 5
v 7.3 3 5
v 8.6 3 5
v 8.8 3 5
v 10.7 3 5
v 10.8 3 5
v 11.8 3 5
v 1.3 3 4.9
v 1.4 3 4.9
v 2.3 3 4.9
v 2.5 3 4.9
v 2.7 3 4.9
v 2.9 3 4.9
v 3.5 3 4.9
v 3.6 3 4.9
v 3.7 3 4.9
v 3.8 3 4.9
v 5.5 3 4.9
v 5.6 3 4.9
v 5.7 3 4.9
v 6.6 3 4.9
v 6.7 3 4.9
v 6.8 3 4.9
v 6.9 3 4.9
v 8.4 3 4.9
v 8.6 3 4.9
v 8.8 3 4.9
v 1.9 3 4.8
v 2.3 3 4.8
v 2.7 3 4.8
v 3.5 3 4.8
v 3.7 3 4.8
v 3.8 3 4.8
v 4 3 4.8
v 5.6 3 4.8
v 5.7 3 4.8
v 5.9 3 4.8
v 6.7 3 4.8
v 6.8 3 4.8
v 8.2 3 4.8
v 8.4 3 4.8
v 8.6 3 4.8
v 10.6 3 4.8
v 10.7 3 4.8
v 10.8 3 4.8
v 1.7 3 4.7
v 1.9 3 4.7
v 2.3 3 4.7
v 3.8 3 4.7
v 4 3 4.7
v 4.4 3 4.7
v 5.7 3 4.7
v 5.9 3 4.7
v 6 3 4.7
v 6.7 3 4.7
v 6.9 3 4.7
v 7.1 3 4.7
v 7.2 3 4.7
v 7.3 3 4.7
v 8 3 4.7
v 8.2 3 4.7
v 8.4 3 4.7
v 1.3 3 4.6
v 1.4 3 4.6
v 1.5 3 4.6
v 1.7 3 4.6
v 1.9 3 4.6
v 3.7 3 4.6
v 3.8 3 4.6
v 3.9 3 4.6
v 4 3 4.6
v 4.4 3 4.6
v 4.6 3 4.6
v 5.9 3 4.6
v 6 3 4.6
v 6.1 3 4.6
v 6.5 3 4.6
v 6.6 3 4.6
v 6.9 3 4.6
v 7 3 4.6
v 7.8 3 4.6
v 8 3 4.6
v 8.2 3 4.6
v 10.5 3 4.6
v 10.6 3 4.6
v 10.7 3 4.6
v 1.3 3 4.5
v 1.4 3 4.5
v 1.5 3 4.5
v 1.7 3 4.5
v 4.4 3 4.5
v 4.6 3 4.5
v 4.8 3 4.5
v 6 3 4.5
v 6.1 3 4.5
v 6.2 3 4.5
v 7 3 4.5
v 7.1 3 4.5
v 7.2 3 4.5
v 7.6 3 4.5
v 7.8 3 4.5
v 8 3 4.5
v 1.2 3 4.4
v 1.3 3 4.4
v 1.4 3 4.4
v 1.5 3 4.4
v 3.8 3 4.4
v 3.9 3 4.4
v 4 3 4.4
v 4.6 3 4.4
v 4.8 3 4.4
v 5.2 3 4.4
v 6.1 3 4.4
v 6.2 3 4.4
v 6.3 3 4.4
v 6.4 3 4.4
v 6.5 3 4.4
v 6.6 3 4.4
v 6.9 3 4.4
v 7 3 4.4
v 7.4 3 4.4
v 7.6 3 4.4
v 7.8 3 4.4
v 10.4 3 4.4
v 10.5 3 4.4
v 10.6 3 4.4
v 1 3 4.3
v 1.2 3 4.3
v 1.3 3 4.3
v 4.8 3 4.3
v 5.2 3 4.3
v 5.5 3 4.3
v 6.3 3 4.3
v 6.4 3 4.3
v 6.5 3 4.3
v 6.9 3 4.3
v 7 3 4.3
v 7.2 3 4.3
v 7.4 3 4.3
v 7.6 3 4.3
v 10.3 3 4.3
v 10.4 3 4.3
v 10.5 3 4.3
v 0.9 3 4.2
v 1 3 4.2
v 1.2 3 4.2
v 1.3 3 4.2
v 1.4 3 4.2
v 1.6 3 4.2
v 5.2 3 4.2
v 5.5 3 4.2
v 6 3 4.2
v 6.2 3 4.2
v 6.3 3 4.2
v 6.4 3 4.2
v 6.5 3 4.2
v 7 3 4.2
v 7.1 3 4.2
v 7.2 3 4.2
v 7.4 3 4.2
v 0.8 3 4.1
v 0.9 3 4.1
v 1 3 4.1
v 1.4 3 4.1
v 1.5 3 4.1
v 3.3 3 4.1
v 3.4 3 4.1
v 3.9 3 4.1
v 4 3 4.1
v 4.1 3 4.1
v 5.5 3 4.1
v 5.7 3 4.1
v 6 3 4.1
v 6.3 3 4.1
v 6.5 3 4.1
v 6.6 3 4.1
v 6.8 3 4.1
v 6.9 3 4.1
v 7 3 4.1
v 7.2 3 4.1
v 10.2 3 4.1
v 10.3 3 4.1
v 10.4 3 4.1
v 0.3 3 4
v 0.8 3 4
v 0.9 3 4
v 1.5 3 4
v 1.6 3 4
v 3.3 3 4
v 3.4 3 4
v 4 3 4
v 4.1 3 4
v 5.7 3 4
v 6.3 3 4
v 6.5 3 4
v 6.6 3 4
v 6.8 3 4
v 6.9 3 4
v 7 3 4
v 7.2 3 4
v 10.2 3 4
v 10.3 3 4
v 11.8 3 4

# faces
f 4/1/1 2/1/1 1/1/1
f 5/1/1 2/1/1 4/1/1
f 6/2/1 5/2/1 4/2/1
f 7/1/1 2/1/1 5/1/1
f 7/2/1 5/2/1 6/2/1
f 8/3/1 3/3/1 2/3/1
f 8/1/1 2/1/1 7/1/1
f 9/3/1 3/3/1 8/3/1
f 10/1/1 7/1/1 6/1/1
f 10/1/1 8/1/1 7/1/1
f 10/1/1 9/1/1 8/1/1
f 11/1/1 9/1/1 10/1/1
f 12/2/1 11/2/1 10/2/1
f 13/1/1 9/1/1 11/1/1
f 13/2/1 11/2/1 12/2/1
f 14/1/1 13/1/1 12/1/1
f 15/1/1 9/1/1 13/1/1
f 15/1/1 13/1/1 14/1/1
f 16/1/2 17/1/2 18/1/2
f 18/1/2 17/1/2 19/1/2
f 18/2/2 19/2/2 20/2/2
f 19/1/2 17/1/2 21/1/2
f 20/2/2 19/2/2 21/2/2
f 20/1/2 21/1/2 22/1/2
f 21/1/2 17/1/2 23/1/2
f 22/1/2 21/1/2 23/1/2
f 30/1/3 25/1/3 24/1/3
f 30/2/3 26/2/3 25/2/3
f 31/1/3 27/1/3 26/1/3
f 31/2/3 26/2/3 30/2/3
f 32/2/3 28/2/3 27/2/3
f 33/2/3 28/2/3 32/2/3
f 34/1/3 27/1/3 31/1/3
f 34/1/3 31/1/3 30/1/3
f 35/2/3 32/2/3 27/2/3
f 35/1/3 27/1/3 34/1/3
f 36/1/3 33/1/3 32/1/3
f 36/2/3 32/2/3 35/2/3
f 37/2/3 28/2/3 33/2/3
f 37/1/3 33/1/3 36/1/3
f 38/1/3 29/1/3 28/1/3
f 38/2/3 28/2/3 37/2/3
f 39/1/3 29/1/3 38/1/3
f 40/2/3 39/2/3 38/2/3
f 40/1/3 29/1/3 39/1/3
f 41/1/3 29/1/3 40/1/3
f 42/2/3 40/2/3 38/2/3
f 42/2/3 41/2/3 40/2/3
f 43/1/3 29/1/3 41/1/3
f 43/2/3 41/2/3 42/2/3
f 44/1/3 29/1/3 43/1/3
f 45/1/3 30/1/3 24/1/3
f 45/1/3 34/1/3 30/1/3
f 46/2/3 35/2/3 34/2/3
f 46/1/3 34/1/3 45/1/3
f 47/1/3 37/1/3 36/1/3
f 47/2/3 35/2/3 46/2/3
f 47/1/3 36/1/3 35/1/3
f 47/1/3 38/1/3 37/1/3
f 48/1/3 43/1/3 42/1/3
f 48/2/3 44/2/3 43/2/3
f 49/1/3 29/1/3 44/1/3
f 49/2/3 44/2/3 48/2/3
f 50/1/3 29/1/3 49/1/3
f 51/1/3 49/1/3 48/1/3
f 51/2/3 50/2/3 49/2/3
f 52/2/3 50/2/3 51/2/3
f 53/1/3 45/1/3 24/1/3
f 54/2/3 46/2/3 45/2/3
f 54/1/3 45/1/3 53/1/3
f 55/1/3 47/1/3 46/1/3
f 55/2/3 46/2/3 54/2/3
f 56/1/3 38/1/3 47/1/3
f 56/1/3 47/1/3 55/1/3
f 56/2/3 42/2/3 38/2/3
f 57/1/3 48/1/3 42/1/3
f 57/2/3 42/2/3 56/2/3
f 57/1/3 52/1/3 51/1/3
f 57/1/3 51/1/3 48/1/3
f 58/1/3 52/1/3 57/1/3
f 59/2/3 54/2/3 53/2/3
f 60/1/3 55/1/3 54/1/3
f 60/2/3 54/2/3 59/2/3
f 60/1/3 56/1/3 55/1/3
f 60/1/3 57/1/3 56/1/3
f 61/2/3 58/2/3 57/2/3
f 61/1/3 57/1/3 60/1/3
f 61/1/3 60/1/3 59/1/3
f 62/1/3 52/1/3 58/1/3
f 62/2/3 58/2/3 61/2/3
f 63/1/3 52/1/3 62/1/3
f 64/1/3 62/1/3 61/1/3
f 64/2/3 63/2/3 62/2/3
f 65/1/3 52/1/3 63/1/3
f 65/2/3 63/2/3 64/2/3
f 66/1/3 52/1/3 65/1/3
f 67/1/3 65/1/3 64/1/3
f 67/2/3 66/2/3 65/2/3
f 68/2/3 66/2/3 67/2/3
f 69/1/3 67/1/3 64/1/3
f 69/3/3 68/3/3 67/3/3
f 70/3/3 68/3/3 69/3/3
f 71/1/3 69/1/3 64/1/3
f 71/2/3 70/2/3 69/2/3
f 72/2/3 70/2/3 71/2/3
f 73/1/3 71/1/3 64/1/3
f 73/1/3 72/1/3 71/1/3
f 74/1/3 72/1/3 73/1/3
f 75/1/3 64/1/3 61/1/3
f 75/1/3 73/1/3 64/1/3
f 76/2/3 74/2/3 73/2/3
f 76/1/3 73/1/3 75/1/3
f 77/2/3 74/2/3 76/2/3
f 78/1/3 61/1/3 59/1/3
f 78/1/3 75/1/3 61/1/3
f 79/2/3 76/2/3 75/2/3
f 79/1/3 75/1/3 78/1/3
f 80/1/3 77/1/3 76/1/3
f 80/2/3 76/2/3 79/2/3
f 81/1/3 78/1/3 59/1/3
f 82/2/3 79/2/3 78/2/3
f 82/1/3 78/1/3 81/1/3
f 83/1/3 80/1/3 79/1/3
f 83/2/3 79/2/3 82/2/3
f 84/1/3 81/1/3 59/1/3
f 85/2/3 82/2/3 81/2/3
f 85/1/3 81/1/3 84/1/3
f 86/1/3 83/1/3 82/1/3
f 86/2/3 82/2/3 85/2/3
f 87/1/3 84/1/3 59/1/3
f 88/2/3 85/2/3 84/2/3
f 88/1/3 84/1/3 87/1/3
f 89/1/3 86/1/3 85/1/3
f 89/2/3 85/2/3 88/2/3
f 90/1/3 87/1/3 59/1/3
f 91/2/3 88/2/3 87/2/3
f 91/1/3 87/1/3 90/1/3
f 92/1/3 89/1/3 88/1/3
f 92/2/3 88/2/3 91/2/3
f 93/2/3 91/2/3 90/2/3
f 94/1/3 92/1/3 91/1/3
f 94/2/3 91/2/3 93/2/3
f 95/1/3 86/1/3 89/1/3
f 95/1/3 92/1/3 94/1/3
f 95/1/3 94/1/3 93/1/3
f 95/1/3 89/1/3 92/1/3
f 96/1/3 80/1/3 83/1/3
f 96/1/3 86/1/3 95/1/3
f 96/1/3 77/1/3 80/1/3
f 96/1/3 83/1/3 86/1/3
f 97/1/3 95/1/3 93/1/3
f 97/2/3 96/2/3 95/2/3
f 98/2/3 96/2/3 97/2/3
f 99/1/3 98/1/3 97/1/3
f 100/1/3 98/1/3 99/1/3
f 101/1/3 99/1/3 97/1/3
f 101/2/3 100/2/3 99/2/3
f 102/2/3 100/2/3 101/2/3
f 103/1/3 101/1/3 97/1/3
f 103/1/3 102/1/3 101/1/3
f 104/1/3 102/1/3 103/1/3
f 105/1/3 103/1/3 97/1/3
f 105/2/3 104/2/3 103/2/3
f 106/2/3 104/2/3 105/2/3
f 107/1/3 105/1/3 97/1/3
f 107/1/3 106/1/3 105/1/3
f 108/1/3 106/1/3 107/1/3
f 109/1/3 107/1/3 97/1/3
f 110/3/3 108/3/3 107/3/3
f 110/1/3 107/1/3 109/1/3
f 111/3/3 108/3/3 110/3/3
f 112/1/3 109/1/3 97/1/3
f 113/3/3 110/3/3 109/3/3
f 113/1/3 109/1/3 112/1/3
f 114/1/3 111/1/3 110/1/3
f 114/3/3 110/3/3 113/3/3
f 115/1/3 97/1/3 93/1/3
f 115/1/3 112/1/3 97/1/3
f 116/3/3 113/3/3 112/3/3
f 116/1/3 112/1/3 115/1/3
f 117/1/3 114/1/3 113/1/3
f 117/3/3 113/3/3 116/3/3
f 118/1/3 115/1/3 93/1/3
f 119/3/3 116/3/3 115/3/3
f 119/1/3 115/1/3 118/1/3
f 120/1/3 117/1/3 116/1/3
f 120/3/3 116/3/3 119/3/3
f 121/1/3 118/1/3 93/1/3
f 122/3/3 119/3/3 118/3/3
f 122/1/3 118/1/3 121/1/3
f 123/1/3 120/1/3 119/1/3
f 123/3/3 119/3/3 122/3/3
f 124/1/3 121/1/3 93/1/3
f 125/3/3 122/3/3 121/3/3
f 125/1/3 121/1/3 124/1/3
f 126/1/3 123/1/3 122/1/3
f 126/3/3 122/3/3 125/3/3
f 127/1/3 124/1/3 93/1/3
f 128/3/3 125/3/3 124/3/3
f 128/1/3 124/1/3 127/1/3
f 129/1/3 126/1/3 125/1/3
f 129/3/3 125/3/3 128/3/3
f 130/1/3 127/1/3 93/1/3
f 131/3/3 128/3/3 127/3/3
f 131/1/3 127/1/3 130/1/3
f 132/1/3 129/1/3 128/1/3
f 132/3/3 128/3/3 131/3/3
f 133/1/3 130/1/3 93/1/3
f 134/3/3 131/3/3 130/3/3
f 134/1/3 130/1/3 133/1/3
f 135/1/3 132/1/3 131/1/3
f 135/3/3 131/3/3 134/3/3
f 136/3/3 134/3/3 133/3/3
f 137/1/3 135/1/3 134/1/3
f 137/3/3 134/3/3 136/3/3
f 138/1/3 111/1/3 114/1/3
f 138/1/3 135/1/3 137/1/3
f 138/1/3 137/1/3 136/1/3
f 138/1/3 117/1/3 120/1/3
f 138/1/3 132/1/3 135/1/3
f 138/1/3 114/1/3 117/1/3
f 138/1/3 129/1/3 132/1/3
f 138/1/3 126/1/3 129/1/3
f 138/1/3 123/1/3 126/1/3
f 138/1/3 120/1/3 123/1/3
f 139/1/3 111/1/3 138/1/3
f 140/1/3 138/1/3 136/1/3
f 140/2/3 139/2/3 138/2/3
f 141/2/3 139/2/3 140/2/3
f 142/1/3 140/1/3 136/1/3
f 142/1/3 141/1/3 140/1/3
f 143/1/3 141/1/3 142/1/3
f 144/2/3 143/2/3 142/2/3
f 145/1/3 141/1/3 143/1/3
f 145/2/3 143/2/3 144/2/3
f 146/1/3 141/1/3 145/1/3
f 147/2/3 146/2/3 145/2/3
f 147/1/3 141/1/3 146/1/3
f 148/1/3 141/1/3 147/1/3
f 149/1/3 145/1/3 144/1/3
f 150/2/3 147/2/3 145/2/3
f 150/1/3 145/1/3 149/1/3
f 150/2/3 148/2/3 147/2/3
f 151/1/3 141/1/3 148/1/3
f 151/2/3 148/2/3 150/2/3
f 152/1/3 141/1/3 151/1/3
f 153/3/4 154/3/4 156/3/4
f 156/3/4 154/3/4 157/3/4
f 154/1/4 155/1/4 158/1/4
f 157/3/4 154/3/4 158/3/4
f 158/1/4 155/1/4 159/1/4
f 157/1/4 158/1/4 160/1/4
f 158/3/4 159/3/4 160/3/4
f 159/1/4 155/1/4 161/1/4
f 160/3/4 159/3/4 161/3/4
f 161/1/4 155/1/4 162/1/4
f 160/1/4 161/1/4 163/1/4
f 161/3/4 162/3/4 163/3/4
f 162/1/4 155/1/4 164/1/4
f 163/3/4 162/3/4 164/3/4
f 164/1/4 155/1/4 165/1/4
f 156/2/4 157/2/4 166/2/4
f 157/1/4 160/1/4 167/1/4
f 166/2/4 157/2/4 167/2/4
f 160/1/4 163/1/4 167/1/4
f 163/1/4 164/1/4 167/1/4
f 164/3/4 165/3/4 168/3/4
f 167/1/4 164/1/4 168/1/4
f 165/1/4 155/1/4 169/1/4
f 168/3/4 165/3/4 169/3/4
f 169/1/4 155/1/4 170/1/4
f 167/1/4 168/1/4 171/1/4
f 166/1/4 167/1/4 171/1/4
f 168/1/4 169/1/4 171/1/4
f 171/1/4 169/1/4 172/1/4
f 169/3/4 170/3/4 173/3/4
f 172/1/4 169/1/4 173/1/4
f 170/1/4 155/1/4 174/1/4
f 173/3/4 170/3/4 174/3/4
f 174/1/4 155/1/4 175/1/4
f 172/1/4 173/1/4 176/1/4
f 173/1/4 174/1/4 176/1/4
f 174/3/4 175/3/4 176/3/4
f 176/3/4 175/3/4 177/3/4
f 172/1/4 176/1/4 178/1/4
f 176/1/4 177/1/4 178/1/4
f 178/1/4 177/1/4 179/1/4
f 171/2/4 172/2/4 180/2/4
f 172/1/4 178/1/4 181/1/4
f 180/2/4 172/2/4 181/2/4
f 181/1/4 178/1/4 182/1/4
f 178/2/4 179/2/4 183/2/4
f 182/1/4 178/1/4 183/1/4
f 183/2/4 179/2/4 184/2/4
f 180/1/4 181/1/4 185/1/4
f 181/2/4 182/2/4 186/2/4
f 185/1/4 181/1/4 186/1/4
f 182/1/4 183/1/4 187/1/4
f 186/2/4 182/2/4 187/2/4
f 183/1/4 184/1/4 187/1/4
f 185/2/4 186/2/4 188/2/4
f 186/1/4 187/1/4 189/1/4
f 188/2/4 186/2/4 189/2/4
f 187/1/4 184/1/4 190/1/4
f 189/1/4 187/1/4 190/1/4
f 188/1/4 189/1/4 191/1/4
f 189/2/4 190/2/4 191/2/4
f 190/1/4 184/1/4 192/1/4
f 191/2/4 190/2/4 192/2/4
f 192/1/4 184/1/4 193/1/4
f 193/1/4 184/1/4 194/1/4
f 194/1/4 184/1/4 195/1/4
f 193/1/4 194/1/4 196/1/4
f 194/2/4 195/2/4 196/2/4
f 195/1/4 184/1/4 197/1/4
f 196/2/4 195/2/4 197/2/4
f 197/1/4 184/1/4 198/1/4
f 196/1/4 197/1/4 199/1/4
f 197/2/4 198/2/4 199/2/4
f 199/2/4 198/2/4 200/2/4
f 191/1/4 192/1/4 201/1/4
f 192/2/4 193/2/4 201/2/4
f 199/1/4 200/1/4 202/1/4
f 201/2/4 193/2/4 202/2/4
f 193/1/4 196/1/4 202/1/4
f 196/1/4 199/1/4 202/1/4
f 202/1/4 200/1/4 203/1/4
f 203/1/4 200/1/4 204/1/4
f 204/1/4 200/1/4 205/1/4
f 203/1/4 204/1/4 206/1/4
f 204/2/4 205/2/4 206/2/4
f 206/2/4 205/2/4 207/2/4
f 201/1/4 202/1/4 208/1/4
f 202/2/4 203/2/4 208/2/4
f 206/1/4 207/1/4 209/1/4
f 208/2/4 203/2/4 209/2/4
f 203/1/4 206/1/4 209/1/4
f 209/1/4 207/1/4 210/1/4
f 208/1/4 209/1/4 211/1/4
f 209/2/4 210/2/4 211/2/4
f 210/1/4 207/1/4 212/1/4
f 211/2/4 210/2/4 212/2/4
f 212/1/4 207/1/4 213/1/4
f 211/1/4 212/1/4 214/1/4
f 212/2/4 213/2/4 214/2/4
f 213/1/4 207/1/4 215/1/4
f 214/2/4 213/2/4 215/2/4
f 215/1/4 207/1/4 216/1/4
f 214/1/4 215/1/4 217/1/4
f 215/2/4 216/2/4 217/2/4
f 216/1/4 207/1/4 218/1/4
f 217/2/4 216/2/4 218/2/4
f 218/1/4 207/1/4 219/1/4
f 217/1/4 218/1/4 220/1/4
f 218/2/4 219/2/4 220/2/4
f 219/1/4 207/1/4 221/1/4
f 220/2/4 219/2/4 221/2/4
f 221/1/4 207/1/4 222/1/4
f 188/1/4 191/1/4 223/1/4
f 191/1/4 201/1/4 223/1/4
f 201/1/4 208/1/4 223/1/4
f 220/1/4 221/1/4 223/1/4
f 217/1/4 220/1/4 223/1/4
f 214/1/4 217/1/4 223/1/4
f 211/1/4 214/1/4 223/1/4
f 208/1/4 211/1/4 223/1/4
f 223/1/4 221/1/4 224/1/4
f 221/2/4 222/2/4 225/2/4
f 224/1/4 221/1/4 225/1/4
f 222/1/4 207/1/4 226/1/4
f 225/2/4 222/2/4 226/2/4
f 226/1/4 207/1/4 227/1/4
f 223/2/4 224/2/4 228/2/4
f 224/1/4 225/1/4 229/1/4
f 228/2/4 224/2/4 229/2/4
f 225/1/4 226/1/4 229/1/4
f 229/1/4 226/1/4 230/1/4
f 228/1/4 229/1/4 231/1/4
f 229/2/4 230/2/4 231/2/4
f 230/1/4 226/1/4 232/1/4
f 231/2/4 230/2/4 232/2/4
f 232/1/4 226/1/4 233/1/4
f 231/1/4 232/1/4 234/1/4
f 232/2/4 233/2/4 234/2/4
f 233/1/4 226/1/4 235/1/4
f 234/2/4 233/2/4 235/2/4
f 235/1/4 226/1/4 236/1/4
f 234/1/4 235/1/4 237/1/4
f 235/2/4 236/2/4 237/2/4
f 236/1/4 226/1/4 238/1/4
f 237/2/4 236/2/4 238/2/4
f 238/1/4 226/1/4 239/1/4
f 226/2/4 227/2/4 240/2/4
f 239/1/4 226/1/4 240/1/4
f 240/2/4 227/2/4 241/2/4
f 238/2/4 239/2/4 242/2/4
f 237/1/4 238/1/4 242/1/4
f 240/1/4 241/1/4 243/1/4
f 242/2/4 239/2/4 243/2/4
f 239/1/4 240/1/4 243/1/4
f 243/1/4 241/1/4 244/1/4
f 242/1/4 243/1/4 245/1/4
f 243/2/4 244/2/4 245/2/4
f 244/1/4 241/1/4 246/1/4
f 245/2/4 244/2/4 246/2/4
f 246/1/4 241/1/4 247/1/4
f 247/1/4 241/1/4 248/1/4
f 248/1/4 241/1/4 249/1/4
f 245/1/4 246/1/4 250/1/4
f 246/2/4 247/2/4 250/2/4
f 247/1/4 248/1/4 251/1/4
f 250/2/4 247/2/4 251/2/4
f 251/1/4 248/1/4 252/1/4
f 248/2/4 249/2/4 253/2/4
f 252/1/4 248/1/4 253/1/4
f 253/2/4 249/2/4 254/2/4
f 251/2/4 252/2/4 255/2/4
f 250/1/4 251/1/4 255/1/4
f 253/1/4 254/1/4 256/1/4
f 255/2/4 252/2/4 256/2/4
f 252/1/4 253/1/4 256/1/4
f 256/1/4 254/1/4 257/1/4
f 256/2/4 257/2/4 258/2/4
f 258/2/4 257/2/4 259/2/4
f 255/1/4 256/1/4 260/1/4
f 256/2/4 258/2/4 260/2/4
f 258/3/4 259/3/4 261/3/4
f 260/2/4 258/2/4 261/2/4
f 261/3/4 259/3/4 262/3/4
f 260/1/4 261/1/4 263/1/4
f 261/2/4 262/2/4 263/2/4
f 263/2/4 262/2/4 264/2/4
f 228/1/4 231/1/4 265/1/4
f 231/1/4 234/1/4 265/1/4
f 263/1/4 264/1/4 265/1/4
f 260/1/4 263/1/4 265/1/4
f 234/1/4 237/1/4 265/1/4
f 255/1/4 260/1/4 265/1/4
f 237/1/4 242/1/4 265/1/4
f 242/1/4 245/1/4 265/1/4
f 250/1/4 255/1/4 265/1/4
f 245/1/4 250/1/4 265/1/4
f 265/1/4 264/1/4 266/1/4
f 265/2/4 266/2/4 267/2/4
f 266/1/4 264/1/4 268/1/4
f 267/2/4 266/2/4 268/2/4
f 268/1/4 264/1/4 269/1/4
f 267/1/4 268/1/4 270/1/4
f 268/2/4 269/2/4 270/2/4
f 269/1/4 264/1/4 271/1/4
f 270/2/4 269/2/4 271/2/4
f 271/1/4 264/1/4 272/1/4
f 270/1/4 271/1/4 273/1/4
f 271/2/4 272/2/4 273/2/4
f 272/1/4 264/1/4 274/1/4
f 273/2/4 272/2/4 274/2/4
f 274/1/4 264/1/4 275/1/4
f 273/1/4 274/1/4 276/1/4
f 274/2/4 275/2/4 276/2/4
f 275/1/4 264/1/4 277/1/4
f 276/2/4 275/2/4 277/2/4
f 277/1/4 264/1/4 278/1/4
f 276/1/4 277/1/4 279/1/4
f 277/2/4 278/2/4 279/2/4
f 278/1/4 264/1/4 280/1/4
f 279/2/4 278/2/4 280/2/4
f 280/1/4 264/1/4 281/1/4
f 279/1/4 280/1/4 282/1/4
f 280/2/4 281/2/4 282/2/4
f 281/1/4 264/1/4 283/1/4
f 282/2/4 281/2/4 283/2/4
f 283/1/4 264/1/4 284/1/4
f 282/1/4 283/1/4 285/1/4
f 283/2/4 284/2/4 285/2/4
f 284/1/4 264/1/4 286/1/4
f 285/2/4 284/2/4 286/2/4
f 286/1/4 264/1/4 287/1/4
f 285/1/4 286/1/4 288/1/4
f 286/2/4 287/2/4 288/2/4
f 287/1/4 264/1/4 289/1/4
f 288/2/4 287/2/4 289/2/4
f 289/1/4 264/1/4 290/1/4
f 288/1/4 289/1/4 291/1/4
f 289/2/4 290/2/4 291/2/4
f 290/1/4 264/1/4 292/1/4
f 291/2/4 290/2/4 292/2/4
f 292/1/4 264/1/4 293/1/4
f 291/1/4 292/1/4 294/1/4
f 292/2/4 293/2/4 294/2/4
f 294/2/4 293/2/4 295/2/4
f 267/1/4 270/1/4 296/1/4
f 270/1/4 273/1/4 296/1/4
f 294/1/4 295/1/4 296/1/4
f 291/1/4 294/1/4 296/1/4
f 273/1/4 276/1/4 296/1/4
f 288/1/4 291/1/4 296/1/4
f 285/1/4 288/1/4 296/1/4
f 282/1/4 285/1/4 296/1/4
f 279/1/4 282/1/4 296/1/4
f 276/1/4 279/1/4 296/1/4
f 296/1/4 295/1/4 297/1/4
f 308/1/5 299/1/5 298/1/5
f 308/2/5 300/2/5 299/2/5
f 309/1/5 301/1/5 300/1/5
f 309/2/5 300/2/5 308/2/5
f 310/2/5 302/2/5 301/2/5
f 310/1/5 301/1/5 309/1/5
f 311/1/5 303/1/5 302/1/5
f 311/2/5 302/2/5 310/2/5
f 312/3/5 304/3/5 303/3/5
f 312/1/5 303/1/5 311/1/5
f 313/1/5 305/1/5 304/1/5
f 313/3/5 304/3/5 312/3/5
f 314/2/5 306/2/5 305/2/5
f 314/1/5 305/1/5 313/1/5
f 315/1/5 307/1/5 306/1/5
f 315/2/5 306/2/5 314/2/5
f 316/1/5 314/1/5 313/1/5
f 316/1/5 313/1/5 312/1/5
f 316/1/5 315/1/5 314/1/5
f 316/1/5 312/1/5 311/1/5
f 316/1/5 311/1/5 310/1/5
f 316/1/5 310/1/5 309/1/5
f 316/1/5 309/1/5 308/1/5
f 316/1/5 308/1/5 298/1/5
f 317/1/5 315/1/5 316/1/5
f 318/1/5 315/1/5 317/1/5
f 319/1/5 315/1/5 318/1/5
f 320/1/5 315/1/5 319/1/5
f 321/1/5 315/1/5 320/1/5
f 322/1/5 315/1/5 321/1/5
f 323/1/5 315/1/5 322/1/5
f 324/1/5 315/1/5 323/1/5
f 325/1/5 315/1/5 324/1/5
f 326/1/5 315/1/5 325/1/5
f 327/3/5 317/3/5 316/3/5
f 328/2/5 318/2/5 317/2/5
f 328/3/5 317/3/5 327/3/5
f 329/1/5 319/1/5 318/1/5
f 329/2/5 318/2/5 328/2/5
f 330/2/5 320/2/5 319/2/5
f 330/1/5 319/1/5 329/1/5
f 331/1/5 321/1/5 320/1/5
f 331/2/5 320/2/5 330/2/5
f 332/2/5 322/2/5 321/2/5
f 332/1/5 321/1/5 331/1/5
f 333/1/5 323/1/5 322/1/5
f 333/2/5 322/2/5 332/2/5
f 334/2/5 324/2/5 323/2/5
f 334/1/5 323/1/5 333/1/5
f 335/1/5 325/1/5 324/1/5
f 335/2/5 324/2/5 334/2/5
f 336/2/5 326/2/5 325/2/5
f 336/1/5 325/1/5 335/1/5
f 337/1/5 315/1/5 326/1/5
f 337/2/5 326/2/5 336/2/5
f 338/1/5 307/1/5 315/1/5
f 338/1/5 315/1/5 337/1/5
f 339/1/6 340/1/6 359/1/6
f 340/2/6 341/2/6 359/2/6
f 359/2/6 341/2/6 360/2/6
f 341/1/6 342/1/6 361/1/6
f 342/2/6 343/2/6 362/2/6
f 361/1/6 342/1/6 362/1/6
f 343/3/6 344/3/6 363/3/6
f 362/2/6 343/2/6 363/2/6
f 344/2/6 345/2/6 364/2/6
f 363/3/6 344/3/6 364/3/6
f 345/1/6 346/1/6 365/1/6
f 364/2/6 345/2/6 365/2/6
f 346/2/6 347/2/6 366/2/6
f 365/1/6 346/1/6 366/1/6
f 347/1/6 348/1/6 367/1/6
f 366/2/6 347/2/6 367/2/6
f 367/1/6 348/1/6 368/1/6
f 348/2/6 349/2/6 369/2/6
f 368/1/6 348/1/6 369/1/6
f 349/1/6 350/1/6 370/1/6
f 369/2/6 349/2/6 370/2/6
f 370/1/6 350/1/6 371/1/6
f 371/1/6 350/1/6 372/1/6
f 350/2/6 351/2/6 373/2/6
f 372/1/6 350/1/6 373/1/6
f 373/2/6 351/2/6 374/2/6
f 351/1/6 352/1/6 375/1/6
f 374/2/6 351/2/6 375/2/6
f 353/1/6 354/1/6 376/1/6
f 354/3/6 355/3/6 377/3/6
f 376/1/6 354/1/6 377/1/6
f 355/1/6 356/1/6 378/1/6
f 377/3/6 355/3/6 378/3/6
f 341/1/6 361/1/6 379/1/6
f 361/3/6 362/3/6 380/3/6
f 379/1/6 361/1/6 380/1/6
f 362/3/6 363/3/6 380/3/6
f 363/1/6 364/1/6 381/1/6
f 380/3/6 363/3/6 381/3/6
f 364/1/6 365/1/6 381/1/6
f 365/2/6 366/2/6 382/2/6
f 381/1/6 365/1/6 382/1/6
f 367/2/6 368/2/6 382/2/6
f 366/2/6 367/2/6 382/2/6
f 382/2/6 368/2/6 383/2/6
f 368/1/6 369/1/6 384/1/6
f 383/2/6 368/2/6 384/2/6
f 369/1/6 370/1/6 384/1/6
f 384/1/6 370/1/6 385/1/6
f 370/2/6 371/2/6 386/2/6
f 385/1/6 370/1/6 386/1/6
f 371/1/6 372/1/6 387/1/6
f 386/2/6 371/2/6 387/2/6
f 387/1/6 372/1/6 388/1/6
f 372/2/6 373/2/6 389/2/6
f 373/2/6 374/2/6 389/2/6
f 374/1/6 375/1/6 390/1/6
f 389/2/6 374/2/6 390/2/6
f 353/1/6 376/1/6 391/1/6
f 376/3/6 377/3/6 392/3/6
f 391/1/6 376/1/6 392/1/6
f 377/1/6 378/1/6 393/1/6
f 392/3/6 377/3/6 393/3/6
f 378/1/6 356/1/6 394/1/6
f 393/1/6 378/1/6 394/1/6
f 356/2/6 357/2/6 395/2/6
f 394/1/6 356/1/6 395/1/6
f 357/1/6 358/1/6 396/1/6
f 395/2/6 357/2/6 396/2/6
f 341/1/6 379/1/6 397/1/6
f 379/3/6 380/3/6 398/3/6
f 397/1/6 379/1/6 398/1/6
f 380/1/6 381/1/6 399/1/6
f 398/3/6 380/3/6 399/3/6
f 382/1/6 383/1/6 399/1/6
f 381/1/6 382/1/6 399/1/6
f 384/2/6 385/2/6 400/2/6
f 383/2/6 384/2/6 400/2/6
f 385/1/6 386/1/6 401/1/6
f 400/2/6 385/2/6 401/2/6
f 386/1/6 387/1/6 401/1/6
f 401/1/6 387/1/6 402/1/6
f 387/2/6 388/2/6 403/2/6
f 402/1/6 387/1/6 403/1/6
f 388/1/6 372/1/6 404/1/6
f 403/2/6 388/2/6 404/2/6
f 404/1/6 372/1/6 405/1/6
f 372/2/6 389/2/6 406/2/6
f 389/1/6 390/1/6 406/1/6
f 375/1/6 352/1/6 407/1/6
f 406/1/6 390/1/6 407/1/6
f 390/1/6 375/1/6 407/1/6
f 407/1/6 352/1/6 408/1/6
f 352/2/6 353/2/6 409/2/6
f 408/1/6 352/1/6 409/1/6
f 353/1/6 391/1/6 410/1/6
f 409/2/6 353/2/6 410/2/6
f 410/1/6 391/1/6 411/1/6
f 391/3/6 392/3/6 412/3/6
f 411/1/6 391/1/6 412/1/6
f 393/1/6 394/1/6 413/1/6
f 412/3/6 392/3/6 413/3/6
f 392/1/6 393/1/6 413/1/6
f 339/1/6 359/1/6 414/1/6
f 359/1/6 360/1/6 414/1/6
f 360/2/6 341/2/6 415/2/6
f 414/1/6 360/1/6 415/1/6
f 341/1/6 397/1/6 416/1/6
f 415/2/6 341/2/6 416/2/6
f 397/3/6 398/3/6 417/3/6
f 416/1/6 397/1/6 417/1/6
f 398/1/6 399/1/6 418/1/6
f 417/3/6 398/3/6 418/3/6
f 383/2/6 400/2/6 419/2/6
f 418/1/6 399/1/6 419/1/6
f 399/1/6 383/1/6 419/1/6
f 400/1/6 401/1/6 420/1/6
f 419/2/6 400/2/6 420/2/6
f 420/1/6 401/1/6 421/1/6
f 401/2/6 402/2/6 422/2/6
f 421/1/6 401/1/6 422/1/6
f 402/1/6 403/1/6 423/1/6
f 422/2/6 402/2/6 423/2/6
f 403/1/6 404/1/6 423/1/6
f 423/1/6 404/1/6 424/1/6
f 404/2/6 405/2/6 425/2/6
f 424/1/6 404/1/6 425/1/6
f 405/1/6 372/1/6 426/1/6
f 425/2/6 405/2/6 426/2/6
f 426/1/6 372/1/6 427/1/6
f 427/1/6 372/1/6 428/1/6
f 372/2/6 406/2/6 429/2/6
f 428/1/6 372/1/6 429/1/6
f 406/2/6 407/2/6 429/2/6
f 407/1/6 408/1/6 430/1/6
f 429/2/6 407/2/6 430/2/6
f 430/1/6 408/1/6 431/1/6
f 409/1/6 410/1/6 432/1/6
f 410/1/6 411/1/6 432/1/6
f 411/3/6 412/3/6 433/3/6
f 432/1/6 411/1/6 433/1/6
f 412/1/6 413/1/6 434/1/6
f 433/3/6 412/3/6 434/3/6
f 413/1/6 394/1/6 435/1/6
f 434/1/6 413/1/6 435/1/6
f 394/2/6 395/2/6 436/2/6
f 435/1/6 394/1/6 436/1/6
f 395/1/6 396/1/6 437/1/6
f 436/2/6 395/2/6 437/2/6
f 339/1/6 414/1/6 438/1/6
f 414/2/6 415/2/6 438/2/6
f 415/1/6 416/1/6 439/1/6
f 438/2/6 415/2/6 439/2/6
f 416/3/6 417/3/6 440/3/6
f 439/1/6 416/1/6 440/1/6
f 417/1/6 418/1/6 441/1/6
f 440/3/6 417/3/6 441/3/6
f 419/1/6 420/1/6 441/1/6
f 418/1/6 419/1/6 441/1/6
f 421/1/6 422/1/6 442/1/6
f 423/2/6 424/2/6 442/2/6
f 422/1/6 423/1/6 442/1/6
f 424/1/6 425/1/6 443/1/6
f 442/2/6 424/2/6 443/2/6
f 425/1/6 426/1/6 443/1/6
f 443/1/6 426/1/6 444/1/6
f 426/2/6 427/2/6 445/2/6
f 444/1/6 426/1/6 445/1/6
f 427/1/6 428/1/6 446/1/6
f 445/2/6 427/2/6 446/2/6
f 446/1/6 428/1/6 447/1/6
f 431/1/6 408/1/6 448/1/6
f 430/2/6 431/2/6 448/2/6
f 408/2/6 409/2/6 449/2/6
f 448/1/6 408/1/6 449/1/6
f 409/1/6 432/1/6 450/1/6
f 449/2/6 409/2/6 450/2/6
f 450/1/6 432/1/6 451/1/6
f 432/3/6 433/3/6 452/3/6
f 451/1/6 432/1/6 452/1/6
f 434/1/6 435/1/6 453/1/6
f 452/3/6 433/3/6 453/3/6
f 433/1/6 434/1/6 453/1/6
f 339/1/6 438/1/6 454/1/6
f 439/3/6 440/3/6 455/3/6
f 454/1/6 438/1/6 455/1/6
f 438/3/6 439/3/6 455/3/6
f 455/3/6 440/3/6 456/3/6
f 440/1/6 441/1/6 457/1/6
f 456/3/6 440/3/6 457/3/6
f 441/1/6 420/1/6 458/1/6
f 457/1/6 441/1/6 458/1/6
f 420/2/6 421/2/6 458/2/6
f 421/1/6 442/1/6 459/1/6
f 458/2/6 421/2/6 459/2/6
f 442/1/6 443/1/6 459/1/6
f 459/1/6 443/1/6 460/1/6
f 443/2/6 444/2/6 461/2/6
f 460/1/6 443/1/6 461/1/6
f 444/1/6 445/1/6 462/1/6
f 461/2/6 444/2/6 462/2/6
f 445/1/6 446/1/6 462/1/6
f 462/1/6 446/1/6 463/1/6
f 446/2/6 447/2/6 464/2/6
f 463/1/6 446/1/6 464/1/6
f 447/1/6 428/1/6 465/1/6
f 464/2/6 447/2/6 465/2/6
f 465/1/6 428/1/6 466/1/6
f 466/1/6 428/1/6 467/1/6
f 428/2/6 429/2/6 468/2/6
f 467/1/6 428/1/6 468/1/6
f 429/1/6 430/1/6 469/1/6
f 468/2/6 429/2/6 469/2/6
f 448/2/6 449/2/6 470/2/6
f 469/1/6 430/1/6 470/1/6
f 430/2/6 448/2/6 470/2/6
f 470/2/6 449/2/6 471/2/6
f 449/1/6 450/1/6 472/1/6
f 450/1/6 451/1/6 472/1/6
f 451/3/6 452/3/6 473/3/6
f 472/1/6 451/1/6 473/1/6
f 452/1/6 453/1/6 474/1/6
f 473/3/6 452/3/6 474/3/6
f 453/1/6 435/1/6 475/1/6
f 474/1/6 453/1/6 475/1/6
f 435/2/6 436/2/6 476/2/6
f 475/1/6 435/1/6 476/1/6
f 436/1/6 437/1/6 477/1/6
f 476/2/6 436/2/6 477/2/6
f 339/1/6 454/1/6 478/1/6
f 454/3/6 455/3/6 479/3/6
f 478/1/6 454/1/6 479/1/6
f 455/2/6 456/2/6 480/2/6
f 479/3/6 455/3/6 480/3/6
f 462/2/6 463/2/6 481/2/6
f 460/1/6 461/1/6 481/1/6
f 461/1/6 462/1/6 481/1/6
f 463/1/6 464/1/6 482/1/6
f 481/2/6 463/2/6 482/2/6
f 464/1/6 465/1/6 482/1/6
f 482/1/6 465/1/6 483/1/6
f 466/1/6 467/1/6 484/1/6
f 465/2/6 466/2/6 484/2/6
f 467/2/6 468/2/6 485/2/6
f 484/1/6 467/1/6 485/1/6
f 468/1/6 469/1/6 486/1/6
f 485/2/6 468/2/6 486/2/6
f 470/1/6 471/1/6 486/1/6
f 469/1/6 470/1/6 486/1/6
f 486/1/6 471/1/6 487/1/6
f 471/2/6 449/2/6 488/2/6
f 487/1/6 471/1/6 488/1/6
f 449/1/6 472/1/6 489/1/6
f 472/3/6 473/3/6 490/3/6
f 489/1/6 472/1/6 490/1/6
f 473/1/6 474/1/6 491/1/6
f 490/3/6 473/3/6 491/3/6
f 474/1/6 475/1/6 491/1/6
f 491/1/6 475/1/6 492/1/6
f 475/2/6 476/2/6 493/2/6
f 492/1/6 475/1/6 493/1/6
f 476/1/6 477/1/6 494/1/6
f 493/2/6 476/2/6 494/2/6
f 339/1/6 478/1/6 495/1/6
f 478/3/6 479/3/6 496/3/6
f 495/1/6 478/1/6 496/1/6
f 479/1/6 480/1/6 497/1/6
f 496/3/6 479/3/6 497/3/6
f 480/2/6 456/2/6 498/2/6
f 497/1/6 480/1/6 498/1/6
f 457/1/6 458/1/6 499/1/6
f 498/2/6 456/2/6 499/2/6
f 456/1/6 457/1/6 499/1/6
f 458/1/6 459/1/6 499/1/6
f 499/1/6 459/1/6 500/1/6
f 482/2/6 483/2/6 501/2/6
f 481/1/6 482/1/6 501/1/6
f 483/1/6 465/1/6 502/1/6
f 501/2/6 483/2/6 502/2/6
f 502/1/6 465/1/6 503/1/6
f 484/2/6 485/2/6 504/2/6
f 503/1/6 465/1/6 504/1/6
f 465/2/6 484/2/6 504/2/6
f 504/2/6 485/2/6 505/2/6
f 486/1/6 487/1/6 506/1/6
f 505/2/6 485/2/6 506/2/6
f 485/1/6 486/1/6 506/1/6
f 506/1/6 487/1/6 507/1/6
f 488/2/6 449/2/6 508/2/6
f 487/2/6 488/2/6 508/2/6
f 449/1/6 489/1/6 509/1/6
f 508/2/6 449/2/6 509/2/6
f 489/3/6 490/3/6 510/3/6
f 509/1/6 489/1/6 510/1/6
f 491/1/6 492/1/6 511/1/6
f 510/3/6 490/3/6 511/3/6
f 490/1/6 491/1/6 511/1/6
f 339/1/6 495/1/6 512/1/6
f 495/3/6 496/3/6 513/3/6
f 512/1/6 495/1/6 513/1/6
f 496/1/6 497/1/6 514/1/6
f 513/3/6 496/3/6 514/3/6
f 497/1/6 498/1/6 514/1/6
f 498/1/6 499/1/6 514/1/6
f 499/2/6 500/2/6 515/2/6
f 514/1/6 499/1/6 515/1/6
f 515/2/6 500/2/6 516/2/6
f 500/1/6 459/1/6 517/1/6
f 517/1/6 459/1/6 518/1/6
f 459/2/6 460/2/6 519/2/6
f 518/1/6 459/1/6 519/1/6
f 460/1/6 481/1/6 520/1/6
f 519/2/6 460/2/6 520/2/6
f 481/1/6 501/1/6 520/1/6
f 501/1/6 502/1/6 520/1/6
f 520/1/6 502/1/6 521/1/6
f 502/2/6 503/2/6 522/2/6
f 521/1/6 502/1/6 522/1/6
f 522/2/6 503/2/6 523/2/6
f 504/1/6 505/1/6 524/1/6
f 523/2/6 503/2/6 524/2/6
f 503/1/6 504/1/6 524/1/6
f 506/2/6 507/2/6 525/2/6
f 524/1/6 505/1/6 525/1/6
f 505/2/6 506/2/6 525/2/6
f 507/1/6 487/1/6 526/1/6
f 525/2/6 507/2/6 526/2/6
f 526/1/6 487/1/6 527/1/6
f 527/1/6 487/1/6 528/1/6
f 487/2/6 508/2/6 529/2/6
f 528/1/6 487/1/6 529/1/6
f 509/3/6 510/3/6 530/3/6
f 529/2/6 508/2/6 530/2/6
f 508/3/6 509/3/6 530/3/6
f 510/1/6 511/1/6 531/1/6
f 530/3/6 510/3/6 531/3/6
f 511/1/6 492/1/6 532/1/6
f 531/1/6 511/1/6 532/1/6
f 492/2/6 493/2/6 533/2/6
f 532/1/6 492/1/6 533/1/6
f 493/1/6 494/1/6 534/1/6
f 533/2/6 493/2/6 534/2/6
f 339/1/6 512/1/6 535/1/6
f 512/3/6 513/3/6 536/3/6
f 535/1/6 512/1/6 536/1/6
f 515/1/6 516/1/6 537/1/6
f 536/3/6 513/3/6 537/3/6
f 513/1/6 514/1/6 537/1/6
f 514/1/6 515/1/6 537/1/6
f 516/2/6 500/2/6 538/2/6
f 537/1/6 516/1/6 538/1/6
f 500/1/6 517/1/6 539/1/6
f 538/2/6 500/2/6 539/2/6
f 517/2/6 518/2/6 540/2/6
f 539/1/6 517/1/6 540/1/6
f 518/1/6 519/1/6 541/1/6
f 540/2/6 518/2/6 541/2/6
f 519/1/6 520/1/6 541/1/6
f 520/2/6 521/2/6 542/2/6
f 541/1/6 520/1/6 542/1/6
f 522/1/6 523/1/6 543/1/6
f 542/2/6 521/2/6 543/2/6
f 521/1/6 522/1/6 543/1/6
f 524/2/6 525/2/6 544/2/6
f 543/1/6 523/1/6 544/1/6
f 523/2/6 524/2/6 544/2/6
f 525/1/6 526/1/6 545/1/6
f 544/2/6 525/2/6 545/2/6
f 526/2/6 527/2/6 546/2/6
f 545/1/6 526/1/6 546/1/6
f 527/1/6 528/1/6 547/1/6
f 546/2/6 527/2/6 547/2/6
f 528/2/6 529/2/6 548/2/6
f 547/1/6 528/1/6 548/1/6
f 529/3/6 530/3/6 549/3/6
f 548/2/6 529/2/6 549/2/6
f 530/2/6 531/2/6 550/2/6
f 549/3/6 530/3/6 550/3/6
f 531/1/6 532/1/6 551/1/6
f 550/2/6 531/2/6 551/2/6
f 532/2/6 533/2/6 552/2/6
f 551/1/6 532/1/6 552/1/6
f 533/1/6 534/1/6 553/1/6
f 552/2/6 533/2/6 553/2/6
f 437/1/6 396/1/6 554/1/6
f 553/1/6 534/1/6 554/1/6
f 396/1/6 358/1/6 554/1/6
f 477/1/6 437/1/6 554/1/6
f 494/1/6 477/1/6 554/1/6
f 534/1/6 494/1/6 554/1/6
