# MagicaVoxel @ Ephtracy

# group
o 

# material
mtllib stadium-large-complex-12.mtl
usemtl palette

# normals
vn -1 0 0
vn 1 0 0
vn 0 0 1
vn 0 0 -1
vn 0 -1 0
vn 0 1 0

# texcoords
vt 0.970703 0.5
vt 0.974609 0.5
vt 0.978516 0.5
vt 0.982422 0.5

# verts
v 11.8 9 1.6
v 11.8 9 1
v 11.8 9.3 1.6
v 11.8 9.3 1.4
v 11.8 9.4 1.6
v 11.8 9.4 1.4
v 11.8 9.4 1.2
v 11.8 9.4 1.1
v 11.8 9.4 1
v 11.8 9.5 1.6
v 11.8 9.5 1.4
v 11.8 9.5 1.2
v 11.8 9.5 1.1
v 11.8 9.5 1
v 11.8 9.6 1.6
v 11.8 9.6 1.4
v 11.8 9.6 1.2
v 11.8 9.6 1
v 11.8 9.7 1.4
v 11.8 9.7 1.2
v 11.8 9.7 1.1
v 11.8 9.7 1
v 11.8 9.9 1.3
v 11.8 9.9 1.2
v 11.8 9.9 1.1
v 11.8 10 1.5
v 11.8 10 1.3
v 11.8 10 1.2
v 11.8 10.1 1.5
v 11.8 10.1 1.4
v 11.8 10.1 1.3
v 11.8 10.1 1.1
v 11.8 10.2 1.6
v 11.8 10.2 1.4
v 11.8 10.2 1.1
v 11.8 10.2 1
v 11.8 10.3 1.6
v 11.8 10.3 1.5
v 11.8 10.3 1.4
v 11.8 10.3 1.2
v 11.8 10.4 1.5
v 11.8 10.4 1.4
v 11.8 10.4 1.3
v 11.8 10.4 1.2
v 11.8 10.4 1.1
v 11.8 10.5 1.2
v 11.8 10.5 1
v 11.8 10.6 1.5
v 11.8 10.6 1.4
v 11.8 10.6 1.3
v 11.8 10.8 1.6
v 11.8 10.8 1.5
v 11.8 10.8 1.4
v 11.8 10.9 1.2
v 11.8 10.9 1
v 11.8 11 1.4
v 11.8 11 1.2
v 11.8 11 1
v 11.8 11.1 1.5
v 11.8 11.1 1.4
v 11.8 11.1 1.2
v 11.8 11.2 1.5
v 11.8 11.2 1.4
v 11.8 11.2 1.2
v 11.8 11.2 1.1
v 11.8 11.4 1.3
v 11.8 11.4 1.2
v 11.8 11.4 1.1
v 11.8 11.5 1.4
v 11.8 11.5 1.3
v 11.8 11.5 1.2
v 11.8 11.6 1.5
v 11.8 11.6 1.4
v 11.8 11.6 1.3
v 11.8 11.6 1.2
v 11.8 11.7 1.4
v 11.8 11.7 1.2
v 11.8 11.7 1
v 11.8 11.8 1.5
v 11.8 11.8 1.4
v 11.8 11.8 1.2
v 11.8 11.8 1.1
v 11.8 11.9 1.5
v 11.8 11.9 1.1
v 11.8 12 1.5
v 11.8 12 1
v 11.8 12.2 1.6
v 11.8 12.2 1.5
v 11.8 12.3 1.6
v 11.8 12.3 1.5
v 11.8 12.3 1.3
v 11.8 12.4 1.5
v 11.8 12.4 1.3
v 11.8 12.4 1.2
v 11.8 12.4 1
v 11.8 12.5 1.3
v 11.8 12.5 1.2
v 11.8 12.5 1.1
v 11.8 12.5 1
v 11.8 12.6 1.2
v 11.8 12.6 1.1
v 11.8 12.6 1
v 11.8 12.7 1.5
v 11.8 12.7 1.2
v 11.8 12.7 1.1
v 11.8 12.7 1
v 11.8 12.9 1.5
v 11.8 12.9 1.2
v 11.8 12.9 1.1
v 11.8 12.9 1
v 11.8 13 1.2
v 11.8 13 1.1
v 11.8 13 1
v 11.8 13.1 1.3
v 11.8 13.1 1.2
v 11.8 13.1 1.1
v 11.8 13.1 1
v 11.8 13.2 1.5
v 11.8 13.2 1.3
v 11.8 13.2 1.2
v 11.8 13.2 1
v 11.8 13.3 1.6
v 11.8 13.3 1.5
v 11.8 13.3 1.3
v 11.8 13.4 1.6
v 11.8 13.4 1.5
v 11.8 13.6 1.5
v 11.8 13.6 1
v 11.8 13.7 1.5
v 11.8 13.7 1.1
v 11.8 13.8 1.5
v 11.8 13.8 1.4
v 11.8 13.8 1.2
v 11.8 13.8 1.1
v 11.8 13.9 1.4
v 11.8 13.9 1.2
v 11.8 13.9 1
v 11.8 14 1.5
v 11.8 14 1.4
v 11.8 14 1.3
v 11.8 14 1.2
v 11.8 14.1 1.4
v 11.8 14.1 1.3
v 11.8 14.1 1.2
v 11.8 14.2 1.3
v 11.8 14.2 1.2
v 11.8 14.2 1.1
v 11.8 14.4 1.5
v 11.8 14.4 1.4
v 11.8 14.4 1.2
v 11.8 14.4 1.1
v 11.8 14.5 1.5
v 11.8 14.5 1.4
v 11.8 14.5 1.2
v 11.8 14.6 1.4
v 11.8 14.6 1.2
v 11.8 14.6 1
v 11.8 14.7 1.2
v 11.8 14.7 1
v 11.8 14.8 1.6
v 11.8 14.8 1.5
v 11.8 14.8 1.4
v 11.8 15 1.5
v 11.8 15 1.4
v 11.8 15 1.3
v 11.8 15.1 1.2
v 11.8 15.1 1
v 11.8 15.2 1.5
v 11.8 15.2 1.4
v 11.8 15.2 1.3
v 11.8 15.2 1.2
v 11.8 15.2 1.1
v 11.8 15.3 1.6
v 11.8 15.3 1.5
v 11.8 15.3 1.4
v 11.8 15.3 1.2
v 11.8 15.4 1.6
v 11.8 15.4 1.4
v 11.8 15.4 1.1
v 11.8 15.4 1
v 11.8 15.5 1.5
v 11.8 15.5 1.4
v 11.8 15.5 1.3
v 11.8 15.5 1.1
v 11.8 15.6 1.5
v 11.8 15.6 1.3
v 11.8 15.6 1.2
v 11.8 15.7 1.3
v 11.8 15.7 1.2
v 11.8 15.7 1.1
v 11.8 15.9 1.4
v 11.8 15.9 1.2
v 11.8 15.9 1.1
v 11.8 15.9 1
v 11.8 16 1.6
v 11.8 16 1.4
v 11.8 16 1.2
v 11.8 16 1
v 11.8 16.1 1.6
v 11.8 16.1 1.4
v 11.8 16.1 1.2
v 11.8 16.1 1.1
v 11.8 16.1 1
v 11.8 16.2 1.6
v 11.8 16.2 1.4
v 11.8 16.2 1.2
v 11.8 16.2 1.1
v 11.8 16.2 1
v 11.8 16.3 1.6
v 11.8 16.3 1.4
v 11.8 17.1 1.1
v 11.8 17.1 1
v 11.8 17.2 1.2
v 11.8 17.2 1.1
v 11.8 17.2 1
v 11.8 17.3 1.3
v 11.8 17.3 1.2
v 11.8 17.3 1.1
v 11.8 17.4 1.4
v 11.8 17.4 1.3
v 11.8 17.4 1.2
v 11.8 17.5 1.5
v 11.8 17.5 1.4
v 11.8 17.5 1.3
v 11.8 17.6 1.5
v 11.8 17.6 1.4
v 11.8 18.2 1.2
v 11.8 18.2 1.1
v 11.8 18.3 1.6
v 11.8 18.3 1.2
v 11.8 18.3 1.1
v 11.8 18.3 1
v 12.8 9 1.6
v 12.8 9 1.4
v 12.8 9 1.2
v 12.8 9 1
v 12.8 9.1 1.4
v 12.8 9.1 1.2
v 12.8 9.1 1
v 12.8 9.2 1.2
v 12.8 9.2 1
v 12.8 9.5 1.1
v 12.8 9.5 1
v 12.8 9.8 1.2
v 12.8 9.8 1.1
v 12.8 9.8 1
v 12.8 9.9 1.1
v 12.8 9.9 1
v 12.8 10 1.4
v 12.8 10 1.2
v 12.8 10 1.1
v 12.8 10 1
v 12.8 10.1 1.6
v 12.8 10.1 1.4
v 12.8 10.1 1.3
v 12.8 10.1 1.2
v 12.8 10.1 1.1
v 12.8 10.2 1.5
v 12.8 10.2 1.4
v 12.8 10.3 1.6
v 12.8 10.3 1.5
v 12.8 10.4 1.4
v 12.8 10.4 1.3
v 12.8 10.4 1.2
v 12.8 10.6 1.5
v 12.8 10.6 1.4
v 12.8 10.6 1.3
v 12.8 10.9 1.6
v 12.8 10.9 1.5
v 12.8 10.9 1.4
v 12.8 11.2 1.6
v 12.8 11.2 1.5
v 12.8 12.7 1.1
v 12.8 12.7 1
v 12.8 12.9 1.1
v 12.8 12.9 1
v 12.8 14.4 1.6
v 12.8 14.4 1.5
v 12.8 14.7 1.6
v 12.8 14.7 1.5
v 12.8 14.7 1.4
v 12.8 15 1.5
v 12.8 15 1.4
v 12.8 15 1.3
v 12.8 15.2 1.4
v 12.8 15.2 1.3
v 12.8 15.2 1.2
v 12.8 15.3 1.6
v 12.8 15.3 1.5
v 12.8 15.4 1.5
v 12.8 15.4 1.4
v 12.8 15.5 1.6
v 12.8 15.5 1.4
v 12.8 15.5 1.3
v 12.8 15.5 1.2
v 12.8 15.5 1.1
v 12.8 15.6 1.4
v 12.8 15.6 1.2
v 12.8 15.6 1.1
v 12.8 15.6 1
v 12.8 15.7 1.1
v 12.8 15.7 1
v 12.8 15.8 1.2
v 12.8 15.8 1.1
v 12.8 15.8 1
v 12.8 16 1.6
v 12.8 16 1.5
v 12.8 16 1.3
v 12.8 16 1.2
v 12.8 16.1 1.6
v 12.8 16.1 1.5
v 12.8 16.1 1.3
v 12.8 16.1 1.2
v 12.8 16.1 1.1
v 12.8 16.1 1
v 12.8 16.4 1.2
v 12.8 16.4 1
v 12.8 16.5 1.6
v 12.8 16.5 1.5
v 12.8 16.5 1.4
v 12.8 16.5 1.2
v 12.8 16.5 1
v 12.8 16.6 1.6
v 12.8 16.6 1.5
v 12.8 16.6 1.4
v 12.8 16.6 1.2
v 12.8 16.7 1.6
v 12.8 16.7 1.4
v 12.8 17.8 1.4
v 12.8 17.8 1.3
v 12.8 17.8 1.1
v 12.8 17.8 1
v 12.8 17.9 1.4
v 12.8 17.9 1.3
v 12.8 17.9 1.1
v 12.8 17.9 1
v 12.8 18.2 1.4
v 12.8 18.2 1.3
v 12.8 18.2 1.1
v 12.8 18.2 1
v 12.8 18.3 1.6
v 12.8 18.3 1.4
v 12.8 18.3 1.3
v 12.8 18.3 1.1
v 12.8 18.3 1
v 11.8 9 1.6
v 11.8 9.3 1.6
v 11.8 9.4 1.6
v 11.8 9.5 1.6
v 11.8 9.6 1.6
v 11.8 10.2 1.6
v 11.8 10.3 1.6
v 11.8 10.8 1.6
v 11.8 12.2 1.6
v 11.8 12.3 1.6
v 11.8 13.3 1.6
v 11.8 13.4 1.6
v 11.8 14.8 1.6
v 11.8 15.3 1.6
v 11.8 15.4 1.6
v 11.8 16 1.6
v 11.8 16.1 1.6
v 11.8 16.2 1.6
v 11.8 16.3 1.6
v 11.8 18.3 1.6
v 11.9 9.3 1.6
v 11.9 9.4 1.6
v 11.9 9.5 1.6
v 11.9 9.6 1.6
v 11.9 10.2 1.6
v 11.9 10.3 1.6
v 11.9 10.8 1.6
v 11.9 11.2 1.6
v 11.9 11.3 1.6
v 11.9 11.4 1.6
v 11.9 11.5 1.6
v 11.9 12 1.6
v 11.9 12.2 1.6
v 11.9 12.3 1.6
v 11.9 13.3 1.6
v 11.9 13.4 1.6
v 11.9 13.6 1.6
v 11.9 14.1 1.6
v 11.9 14.2 1.6
v 11.9 14.3 1.6
v 11.9 14.4 1.6
v 11.9 14.8 1.6
v 11.9 15.3 1.6
v 11.9 15.4 1.6
v 11.9 16 1.6
v 11.9 16.1 1.6
v 11.9 16.2 1.6
v 11.9 16.3 1.6
v 12.1 11.9 1.6
v 12.1 12 1.6
v 12.1 12.3 1.6
v 12.1 12.4 1.6
v 12.1 13.2 1.6
v 12.1 13.3 1.6
v 12.1 13.6 1.6
v 12.1 13.7 1.6
v 12.2 11.2 1.6
v 12.2 11.3 1.6
v 12.2 11.4 1.6
v 12.2 11.8 1.6
v 12.2 11.9 1.6
v 12.2 12 1.6
v 12.2 12.3 1.6
v 12.2 12.4 1.6
v 12.2 12.5 1.6
v 12.2 13.1 1.6
v 12.2 13.2 1.6
v 12.2 13.3 1.6
v 12.2 13.6 1.6
v 12.2 13.7 1.6
v 12.2 13.8 1.6
v 12.2 14.2 1.6
v 12.2 14.3 1.6
v 12.2 14.4 1.6
v 12.3 11.6 1.6
v 12.3 11.8 1.6
v 12.3 11.9 1.6
v 12.3 12.4 1.6
v 12.3 12.5 1.6
v 12.3 12.6 1.6
v 12.3 13 1.6
v 12.3 13.1 1.6
v 12.3 13.2 1.6
v 12.3 13.7 1.6
v 12.3 13.8 1.6
v 12.3 14 1.6
v 12.4 11.5 1.6
v 12.4 11.6 1.6
v 12.4 11.8 1.6
v 12.4 12.5 1.6
v 12.4 12.6 1.6
v 12.4 13 1.6
v 12.4 13.1 1.6
v 12.4 13.8 1.6
v 12.4 14 1.6
v 12.4 14.1 1.6
v 12.5 11.4 1.6
v 12.5 11.6 1.6
v 12.5 12.6 1.6
v 12.5 13 1.6
v 12.5 14 1.6
v 12.5 14.2 1.6
v 12.6 11.2 1.6
v 12.6 11.3 1.6
v 12.6 11.4 1.6
v 12.6 14.2 1.6
v 12.6 14.3 1.6
v 12.6 14.4 1.6
v 12.7 10.1 1.6
v 12.7 10.3 1.6
v 12.7 10.9 1.6
v 12.7 11.2 1.6
v 12.7 11.3 1.6
v 12.7 14.3 1.6
v 12.7 14.4 1.6
v 12.7 14.7 1.6
v 12.7 15.3 1.6
v 12.7 15.5 1.6
v 12.7 16 1.6
v 12.7 16.1 1.6
v 12.7 16.5 1.6
v 12.7 16.6 1.6
v 12.7 16.7 1.6
v 12.8 9 1.6
v 12.8 10.1 1.6
v 12.8 10.3 1.6
v 12.8 10.9 1.6
v 12.8 11.2 1.6
v 12.8 14.4 1.6
v 12.8 14.7 1.6
v 12.8 15.3 1.6
v 12.8 15.5 1.6
v 12.8 16 1.6
v 12.8 16.1 1.6
v 12.8 16.5 1.6
v 12.8 16.6 1.6
v 12.8 16.7 1.6
v 12.8 18.3 1.6
v 11.8 9 1
v 11.8 9.4 1
v 11.8 9.5 1
v 11.8 9.6 1
v 11.8 9.7 1
v 11.8 10.2 1
v 11.8 10.5 1
v 11.8 10.9 1
v 11.8 11 1
v 11.8 11.7 1
v 11.8 12 1
v 11.8 12.4 1
v 11.8 12.5 1
v 11.8 12.6 1
v 11.8 12.7 1
v 11.8 12.9 1
v 11.8 13 1
v 11.8 13.1 1
v 11.8 13.2 1
v 11.8 13.6 1
v 11.8 13.9 1
v 11.8 14.6 1
v 11.8 14.7 1
v 11.8 15.1 1
v 11.8 15.4 1
v 11.8 15.9 1
v 11.8 16 1
v 11.8 16.1 1
v 11.8 16.2 1
v 11.8 17.1 1
v 11.8 17.2 1
v 11.8 18.3 1
v 11.9 9.4 1
v 11.9 9.5 1
v 11.9 9.6 1
v 11.9 10.2 1
v 11.9 10.4 1
v 11.9 10.5 1
v 11.9 10.6 1
v 11.9 10.9 1
v 11.9 11 1
v 11.9 11.7 1
v 11.9 11.8 1
v 11.9 11.9 1
v 11.9 12 1
v 11.9 12.4 1
v 11.9 12.5 1
v 11.9 12.6 1
v 11.9 12.7 1
v 11.9 12.9 1
v 11.9 13 1
v 11.9 13.1 1
v 11.9 13.2 1
v 11.9 13.6 1
v 11.9 13.7 1
v 11.9 13.8 1
v 11.9 13.9 1
v 11.9 14.6 1
v 11.9 14.7 1
v 11.9 15 1
v 11.9 15.1 1
v 11.9 15.2 1
v 11.9 15.4 1
v 11.9 16 1
v 11.9 16.1 1
v 11.9 16.2 1
v 11.9 17.1 1
v 11.9 17.2 1
v 12 10.4 1
v 12 10.5 1
v 12 10.6 1
v 12 10.8 1
v 12 11.8 1
v 12 11.9 1
v 12 12 1
v 12 12.4 1
v 12 12.5 1
v 12 12.6 1
v 12 13 1
v 12 13.1 1
v 12 13.2 1
v 12 13.6 1
v 12 13.7 1
v 12 13.8 1
v 12 14.8 1
v 12 15 1
v 12 15.1 1
v 12 15.2 1
v 12.1 9 1
v 12.1 9.4 1
v 12.1 9.5 1
v 12.1 10.6 1
v 12.1 10.8 1
v 12.1 11 1
v 12.1 11.9 1
v 12.1 12 1
v 12.1 12.1 1
v 12.1 12.3 1
v 12.1 12.4 1
v 12.1 12.5 1
v 12.1 13.1 1
v 12.1 13.2 1
v 12.1 13.3 1
v 12.1 13.5 1
v 12.1 13.6 1
v 12.1 13.7 1
v 12.1 14.6 1
v 12.1 14.8 1
v 12.1 15 1
v 12.1 16.1 1
v 12.1 16.2 1
v 12.1 16.6 1
v 12.1 18.2 1
v 12.1 18.3 1
v 12.2 9 1
v 12.2 9.1 1
v 12.2 9.4 1
v 12.2 9.5 1
v 12.2 9.6 1
v 12.2 10.5 1
v 12.2 10.6 1
v 12.2 10.7 1
v 12.2 10.8 1
v 12.2 11 1
v 12.2 11.2 1
v 12.2 12 1
v 12.2 12.1 1
v 12.2 12.3 1
v 12.2 12.4 1
v 12.2 13.2 1
v 12.2 13.3 1
v 12.2 13.5 1
v 12.2 13.6 1
v 12.2 14.4 1
v 12.2 14.6 1
v 12.2 14.8 1
v 12.2 14.9 1
v 12.2 15 1
v 12.2 15.1 1
v 12.2 16 1
v 12.2 16.1 1
v 12.2 16.2 1
v 12.2 16.5 1
v 12.2 16.6 1
v 12.3 9.1 1
v 12.3 9.2 1
v 12.3 11 1
v 12.3 11.2 1
v 12.3 11.5 1
v 12.3 12.2 1
v 12.3 12.3 1
v 12.3 13.3 1
v 12.3 13.4 1
v 12.3 14.1 1
v 12.3 14.4 1
v 12.3 14.6 1
v 12.3 16.4 1
v 12.3 16.5 1
v 12.4 9 1
v 12.4 9.2 1
v 12.4 9.7 1
v 12.4 9.8 1
v 12.4 10.6 1
v 12.4 10.7 1
v 12.4 11.2 1
v 12.4 11.5 1
v 12.4 12.1 1
v 12.4 12.2 1
v 12.4 13.4 1
v 12.4 13.5 1
v 12.4 14.1 1
v 12.4 14.4 1
v 12.4 14.9 1
v 12.4 15 1
v 12.4 15.8 1
v 12.4 15.9 1
v 12.4 16.4 1
v 12.4 16.6 1
v 12.5 18.2 1
v 12.5 18.3 1
v 12.6 9.5 1
v 12.6 9.6 1
v 12.6 9.8 1
v 12.6 9.9 1
v 12.6 15.7 1
v 12.6 15.8 1
v 12.6 16 1
v 12.6 16.1 1
v 12.7 9.1 1
v 12.7 9.2 1
v 12.7 9.6 1
v 12.7 9.8 1
v 12.7 9.9 1
v 12.7 10 1
v 12.7 15.6 1
v 12.7 15.7 1
v 12.7 15.8 1
v 12.7 16 1
v 12.7 16.4 1
v 12.7 16.5 1
v 12.7 17.8 1
v 12.7 17.9 1
v 12.7 18.2 1
v 12.7 18.3 1
v 12.8 9 1
v 12.8 9.1 1
v 12.8 9.2 1
v 12.8 9.5 1
v 12.8 9.8 1
v 12.8 9.9 1
v 12.8 10 1
v 12.8 12.7 1
v 12.8 12.9 1
v 12.8 15.6 1
v 12.8 15.7 1
v 12.8 15.8 1
v 12.8 16.1 1
v 12.8 16.4 1
v 12.8 16.5 1
v 12.8 17.8 1
v 12.8 17.9 1
v 12.8 18.2 1
v 12.8 18.3 1
v 11.8 9 1.6
v 12.8 9 1.6
v 12.7 9 1.4
v 12.8 9 1.4
v 12.7 9 1.2
v 12.8 9 1.2
v 12.1 9 1.1
v 12.2 9 1.1
v 12.4 9 1.1
v 11.8 9 1
v 12.1 9 1
v 12.2 9 1
v 12.4 9 1
v 12.8 9 1
v 11.8 18.3 1.6
v 12.8 18.3 1.6
v 12.7 18.3 1.4
v 12.8 18.3 1.4
v 12.7 18.3 1.3
v 12.8 18.3 1.3
v 11.8 18.3 1.2
v 12.1 18.3 1.2
v 11.8 18.3 1.1
v 12.1 18.3 1.1
v 12.5 18.3 1.1
v 12.7 18.3 1.1
v 12.8 18.3 1.1
v 11.8 18.3 1
v 12.1 18.3 1
v 12.5 18.3 1
v 12.7 18.3 1
v 12.8 18.3 1

# faces
f 3/1/1 2/1/1 1/1/1
f 4/1/1 2/1/1 3/1/1
f 5/4/1 4/4/1 3/4/1
f 6/1/1 2/1/1 4/1/1
f 6/4/1 4/4/1 5/4/1
f 7/1/1 2/1/1 6/1/1
f 8/1/1 2/1/1 7/1/1
f 9/1/1 2/1/1 8/1/1
f 10/1/1 6/1/1 5/1/1
f 11/4/1 7/4/1 6/4/1
f 11/1/1 6/1/1 10/1/1
f 12/1/1 8/1/1 7/1/1
f 12/4/1 7/4/1 11/4/1
f 13/3/1 9/3/1 8/3/1
f 13/1/1 8/1/1 12/1/1
f 14/3/1 9/3/1 13/3/1
f 15/3/1 11/3/1 10/3/1
f 16/1/1 12/1/1 11/1/1
f 16/3/1 11/3/1 15/3/1
f 17/4/1 13/4/1 12/4/1
f 17/1/1 12/1/1 16/1/1
f 17/4/1 14/4/1 13/4/1
f 18/4/1 14/4/1 17/4/1
f 19/1/1 16/1/1 15/1/1
f 19/3/1 17/3/1 16/3/1
f 19/3/1 18/3/1 17/3/1
f 20/3/1 18/3/1 19/3/1
f 21/3/1 18/3/1 20/3/1
f 22/3/1 18/3/1 21/3/1
f 23/1/1 20/1/1 19/1/1
f 24/3/1 21/3/1 20/3/1
f 24/1/1 20/1/1 23/1/1
f 25/1/1 22/1/1 21/1/1
f 25/3/1 21/3/1 24/3/1
f 26/1/1 19/1/1 15/1/1
f 26/1/1 23/1/1 19/1/1
f 27/3/1 24/3/1 23/3/1
f 27/1/1 23/1/1 26/1/1
f 28/1/1 25/1/1 24/1/1
f 28/3/1 24/3/1 27/3/1
f 29/3/1 27/3/1 26/3/1
f 29/1/1 26/1/1 15/1/1
f 30/3/1 27/3/1 29/3/1
f 31/1/1 28/1/1 27/1/1
f 31/3/1 27/3/1 30/3/1
f 32/1/1 22/1/1 25/1/1
f 32/1/1 28/1/1 31/1/1
f 32/1/1 25/1/1 28/1/1
f 33/1/1 29/1/1 15/1/1
f 33/1/1 30/1/1 29/1/1
f 34/3/1 31/3/1 30/3/1
f 34/1/1 30/1/1 33/1/1
f 34/3/1 32/3/1 31/3/1
f 35/1/1 22/1/1 32/1/1
f 35/3/1 32/3/1 34/3/1
f 36/1/1 22/1/1 35/1/1
f 37/3/1 34/3/1 33/3/1
f 38/3/1 34/3/1 37/3/1
f 39/1/1 35/1/1 34/1/1
f 39/3/1 34/3/1 38/3/1
f 40/1/1 35/1/1 39/1/1
f 41/1/1 38/1/1 37/1/1
f 41/3/1 39/3/1 38/3/1
f 41/3/1 40/3/1 39/3/1
f 42/3/1 40/3/1 41/3/1
f 43/3/1 40/3/1 42/3/1
f 44/1/1 35/1/1 40/1/1
f 44/3/1 40/3/1 43/3/1
f 45/3/1 36/3/1 35/3/1
f 45/1/1 35/1/1 44/1/1
f 46/1/1 44/1/1 43/1/1
f 46/3/1 45/3/1 44/3/1
f 47/3/1 36/3/1 45/3/1
f 47/3/1 45/3/1 46/3/1
f 48/1/1 41/1/1 37/1/1
f 48/1/1 42/1/1 41/1/1
f 49/3/1 43/3/1 42/3/1
f 49/1/1 42/1/1 48/1/1
f 50/1/1 46/1/1 43/1/1
f 50/3/1 43/3/1 49/3/1
f 50/1/1 47/1/1 46/1/1
f 51/1/1 48/1/1 37/1/1
f 52/3/1 49/3/1 48/3/1
f 52/1/1 48/1/1 51/1/1
f 53/1/1 50/1/1 49/1/1
f 53/3/1 49/3/1 52/3/1
f 54/1/1 47/1/1 50/1/1
f 54/1/1 50/1/1 53/1/1
f 54/1/1 53/1/1 52/1/1
f 55/1/1 47/1/1 54/1/1
f 56/1/1 54/1/1 52/1/1
f 57/3/1 55/3/1 54/3/1
f 57/1/1 54/1/1 56/1/1
f 58/3/1 55/3/1 57/3/1
f 59/3/1 52/3/1 51/3/1
f 59/1/1 56/1/1 52/1/1
f 60/3/1 57/3/1 56/3/1
f 60/1/1 56/1/1 59/1/1
f 61/1/1 58/1/1 57/1/1
f 61/3/1 57/3/1 60/3/1
f 62/3/1 60/3/1 59/3/1
f 62/3/1 59/3/1 51/3/1
f 63/1/1 61/1/1 60/1/1
f 63/3/1 60/3/1 62/3/1
f 64/1/1 58/1/1 61/1/1
f 64/1/1 61/1/1 63/1/1
f 65/1/1 58/1/1 64/1/1
f 66/1/1 63/1/1 62/1/1
f 66/1/1 64/1/1 63/1/1
f 67/3/1 65/3/1 64/3/1
f 67/1/1 64/1/1 66/1/1
f 68/1/1 58/1/1 65/1/1
f 68/3/1 65/3/1 67/3/1
f 69/1/1 66/1/1 62/1/1
f 70/3/1 67/3/1 66/3/1
f 70/1/1 66/1/1 69/1/1
f 71/1/1 68/1/1 67/1/1
f 71/3/1 67/3/1 70/3/1
f 72/1/1 69/1/1 62/1/1
f 72/3/1 62/3/1 51/3/1
f 73/3/1 70/3/1 69/3/1
f 73/1/1 69/1/1 72/1/1
f 74/1/1 71/1/1 70/1/1
f 74/3/1 70/3/1 73/3/1
f 75/1/1 68/1/1 71/1/1
f 75/1/1 71/1/1 74/1/1
f 76/3/1 74/3/1 73/3/1
f 76/3/1 73/3/1 72/3/1
f 76/3/1 75/3/1 74/3/1
f 77/1/1 68/1/1 75/1/1
f 77/3/1 75/3/1 76/3/1
f 78/1/1 58/1/1 68/1/1
f 78/1/1 68/1/1 77/1/1
f 79/3/1 76/3/1 72/3/1
f 79/3/1 72/3/1 51/3/1
f 80/1/1 77/1/1 76/1/1
f 80/3/1 76/3/1 79/3/1
f 81/3/1 78/3/1 77/3/1
f 81/1/1 77/1/1 80/1/1
f 82/3/1 78/3/1 81/3/1
f 83/1/1 80/1/1 79/1/1
f 83/3/1 79/3/1 51/3/1
f 83/1/1 82/1/1 81/1/1
f 83/1/1 81/1/1 80/1/1
f 84/3/1 78/3/1 82/3/1
f 84/1/1 82/1/1 83/1/1
f 85/3/1 83/3/1 51/3/1
f 85/3/1 84/3/1 83/3/1
f 86/3/1 78/3/1 84/3/1
f 86/3/1 84/3/1 85/3/1
f 87/3/1 85/3/1 51/3/1
f 88/1/1 86/1/1 85/1/1
f 88/3/1 85/3/1 87/3/1
f 89/4/1 88/4/1 87/4/1
f 90/1/1 86/1/1 88/1/1
f 90/4/1 88/4/1 89/4/1
f 91/1/1 86/1/1 90/1/1
f 92/3/1 90/3/1 89/3/1
f 92/4/1 91/4/1 90/4/1
f 93/1/1 86/1/1 91/1/1
f 93/4/1 91/4/1 92/4/1
f 94/1/1 86/1/1 93/1/1
f 95/1/1 86/1/1 94/1/1
f 96/1/1 93/1/1 92/1/1
f 96/4/1 94/4/1 93/4/1
f 97/3/1 95/3/1 94/3/1
f 97/4/1 94/4/1 96/4/1
f 98/3/1 95/3/1 97/3/1
f 99/3/1 95/3/1 98/3/1
f 100/1/1 97/1/1 96/1/1
f 100/4/1 98/4/1 97/4/1
f 101/1/1 99/1/1 98/1/1
f 101/4/1 98/4/1 100/4/1
f 102/1/1 99/1/1 101/1/1
f 103/3/1 92/3/1 89/3/1
f 103/1/1 96/1/1 92/1/1
f 103/1/1 100/1/1 96/1/1
f 104/3/1 101/3/1 100/3/1
f 104/1/1 100/1/1 103/1/1
f 105/4/1 102/4/1 101/4/1
f 105/3/1 101/3/1 104/3/1
f 106/4/1 102/4/1 105/4/1
f 107/3/1 104/3/1 103/3/1
f 107/3/1 103/3/1 89/3/1
f 108/1/1 106/1/1 105/1/1
f 108/3/1 104/3/1 107/3/1
f 108/1/1 105/1/1 104/1/1
f 109/1/1 106/1/1 108/1/1
f 110/1/1 106/1/1 109/1/1
f 111/1/1 108/1/1 107/1/1
f 111/3/1 109/3/1 108/3/1
f 112/4/1 110/4/1 109/4/1
f 112/3/1 109/3/1 111/3/1
f 113/4/1 110/4/1 112/4/1
f 114/1/1 111/1/1 107/1/1
f 115/4/1 112/4/1 111/4/1
f 115/1/1 111/1/1 114/1/1
f 116/1/1 113/1/1 112/1/1
f 116/4/1 112/4/1 115/4/1
f 117/1/1 113/1/1 116/1/1
f 118/3/1 107/3/1 89/3/1
f 118/1/1 114/1/1 107/1/1
f 119/4/1 115/4/1 114/4/1
f 119/1/1 114/1/1 118/1/1
f 120/3/1 117/3/1 116/3/1
f 120/4/1 115/4/1 119/4/1
f 120/3/1 116/3/1 115/3/1
f 121/3/1 117/3/1 120/3/1
f 122/3/1 118/3/1 89/3/1
f 123/4/1 119/4/1 118/4/1
f 123/3/1 118/3/1 122/3/1
f 124/1/1 120/1/1 119/1/1
f 124/4/1 119/4/1 123/4/1
f 124/1/1 121/1/1 120/1/1
f 125/4/1 123/4/1 122/4/1
f 126/1/1 124/1/1 123/1/1
f 126/4/1 123/4/1 125/4/1
f 127/3/1 126/3/1 125/3/1
f 127/1/1 124/1/1 126/1/1
f 128/1/1 121/1/1 124/1/1
f 128/1/1 124/1/1 127/1/1
f 129/3/1 127/3/1 125/3/1
f 129/3/1 128/3/1 127/3/1
f 130/3/1 128/3/1 129/3/1
f 131/3/1 129/3/1 125/3/1
f 131/1/1 130/1/1 129/1/1
f 132/1/1 130/1/1 131/1/1
f 133/1/1 130/1/1 132/1/1
f 134/3/1 128/3/1 130/3/1
f 134/1/1 130/1/1 133/1/1
f 135/1/1 133/1/1 132/1/1
f 135/3/1 132/3/1 131/3/1
f 136/3/1 134/3/1 133/3/1
f 136/1/1 133/1/1 135/1/1
f 137/3/1 128/3/1 134/3/1
f 137/3/1 134/3/1 136/3/1
f 138/3/1 136/3/1 135/3/1
f 138/3/1 131/3/1 125/3/1
f 138/3/1 135/3/1 131/3/1
f 139/3/1 136/3/1 138/3/1
f 140/3/1 136/3/1 139/3/1
f 141/1/1 137/1/1 136/1/1
f 141/3/1 136/3/1 140/3/1
f 142/3/1 140/3/1 139/3/1
f 142/1/1 139/1/1 138/1/1
f 143/1/1 141/1/1 140/1/1
f 143/3/1 140/3/1 142/3/1
f 144/1/1 137/1/1 141/1/1
f 144/1/1 141/1/1 143/1/1
f 145/1/1 143/1/1 142/1/1
f 145/3/1 144/3/1 143/3/1
f 146/1/1 137/1/1 144/1/1
f 146/3/1 144/3/1 145/3/1
f 147/1/1 137/1/1 146/1/1
f 148/1/1 145/1/1 142/1/1
f 148/3/1 138/3/1 125/3/1
f 148/1/1 142/1/1 138/1/1
f 148/1/1 146/1/1 145/1/1
f 149/1/1 146/1/1 148/1/1
f 150/3/1 147/3/1 146/3/1
f 150/1/1 146/1/1 149/1/1
f 151/1/1 137/1/1 147/1/1
f 151/3/1 147/3/1 150/3/1
f 152/3/1 149/3/1 148/3/1
f 152/3/1 148/3/1 125/3/1
f 153/1/1 150/1/1 149/1/1
f 153/3/1 149/3/1 152/3/1
f 153/1/1 151/1/1 150/1/1
f 154/1/1 151/1/1 153/1/1
f 155/1/1 153/1/1 152/1/1
f 155/3/1 154/3/1 153/3/1
f 156/1/1 151/1/1 154/1/1
f 156/3/1 154/3/1 155/3/1
f 157/1/1 137/1/1 151/1/1
f 157/1/1 151/1/1 156/1/1
f 158/1/1 156/1/1 155/1/1
f 158/3/1 157/3/1 156/3/1
f 159/3/1 157/3/1 158/3/1
f 160/3/1 152/3/1 125/3/1
f 161/1/1 155/1/1 152/1/1
f 161/3/1 152/3/1 160/3/1
f 161/1/1 158/1/1 155/1/1
f 161/1/1 159/1/1 158/1/1
f 162/1/1 159/1/1 161/1/1
f 163/1/1 161/1/1 160/1/1
f 163/3/1 162/3/1 161/3/1
f 164/1/1 159/1/1 162/1/1
f 164/3/1 162/3/1 163/3/1
f 165/1/1 159/1/1 164/1/1
f 166/1/1 159/1/1 165/1/1
f 167/1/1 159/1/1 166/1/1
f 168/1/1 163/1/1 160/1/1
f 168/1/1 164/1/1 163/1/1
f 169/3/1 165/3/1 164/3/1
f 169/1/1 164/1/1 168/1/1
f 170/1/1 166/1/1 165/1/1
f 170/3/1 165/3/1 169/3/1
f 171/3/1 167/3/1 166/3/1
f 171/1/1 166/1/1 170/1/1
f 172/3/1 167/3/1 171/3/1
f 173/1/1 168/1/1 160/1/1
f 174/3/1 170/3/1 169/3/1
f 174/1/1 168/1/1 173/1/1
f 174/3/1 169/3/1 168/3/1
f 174/3/1 171/3/1 170/3/1
f 175/3/1 171/3/1 174/3/1
f 176/1/1 172/1/1 171/1/1
f 176/3/1 171/3/1 175/3/1
f 177/3/1 175/3/1 174/3/1
f 177/3/1 174/3/1 173/3/1
f 178/1/1 176/1/1 175/1/1
f 178/3/1 175/3/1 177/3/1
f 179/3/1 167/3/1 172/3/1
f 179/1/1 176/1/1 178/1/1
f 179/1/1 172/1/1 176/1/1
f 180/3/1 167/3/1 179/3/1
f 181/1/1 178/1/1 177/1/1
f 182/3/1 179/3/1 178/3/1
f 182/1/1 178/1/1 181/1/1
f 183/3/1 179/3/1 182/3/1
f 184/1/1 180/1/1 179/1/1
f 184/3/1 179/3/1 183/3/1
f 185/1/1 181/1/1 177/1/1
f 185/3/1 183/3/1 182/3/1
f 185/3/1 182/3/1 181/3/1
f 186/1/1 184/1/1 183/1/1
f 186/3/1 183/3/1 185/3/1
f 187/1/1 184/1/1 186/1/1
f 188/1/1 186/1/1 185/1/1
f 188/3/1 187/3/1 186/3/1
f 189/1/1 184/1/1 187/1/1
f 189/3/1 187/3/1 188/3/1
f 190/1/1 180/1/1 184/1/1
f 190/1/1 184/1/1 189/1/1
f 191/1/1 189/1/1 188/1/1
f 191/1/1 188/1/1 185/1/1
f 192/3/1 190/3/1 189/3/1
f 192/1/1 189/1/1 191/1/1
f 193/1/1 180/1/1 190/1/1
f 193/3/1 190/3/1 192/3/1
f 194/1/1 180/1/1 193/1/1
f 195/1/1 185/1/1 177/1/1
f 195/1/1 191/1/1 185/1/1
f 196/3/1 192/3/1 191/3/1
f 196/1/1 191/1/1 195/1/1
f 196/3/1 194/3/1 193/3/1
f 196/3/1 193/3/1 192/3/1
f 197/3/1 194/3/1 196/3/1
f 198/3/1 194/3/1 197/3/1
f 199/3/1 196/3/1 195/3/1
f 200/1/1 197/1/1 196/1/1
f 200/3/1 196/3/1 199/3/1
f 201/4/1 198/4/1 197/4/1
f 201/1/1 197/1/1 200/1/1
f 202/4/1 198/4/1 201/4/1
f 203/4/1 198/4/1 202/4/1
f 204/1/1 200/1/1 199/1/1
f 205/4/1 201/4/1 200/4/1
f 205/1/1 200/1/1 204/1/1
f 206/1/1 202/1/1 201/1/1
f 206/4/1 201/4/1 205/4/1
f 207/3/1 203/3/1 202/3/1
f 207/1/1 202/1/1 206/1/1
f 208/3/1 203/3/1 207/3/1
f 209/4/1 205/4/1 204/4/1
f 210/1/1 206/1/1 205/1/1
f 210/4/1 205/4/1 209/4/1
f 210/1/1 207/1/1 206/1/1
f 210/1/1 208/1/1 207/1/1
f 211/1/1 210/1/1 209/1/1
f 211/1/1 208/1/1 210/1/1
f 212/1/1 208/1/1 211/1/1
f 213/1/1 211/1/1 209/1/1
f 214/4/1 212/4/1 211/4/1
f 214/1/1 211/1/1 213/1/1
f 215/4/1 212/4/1 214/4/1
f 216/1/1 213/1/1 209/1/1
f 217/4/1 214/4/1 213/4/1
f 217/1/1 213/1/1 216/1/1
f 218/1/1 215/1/1 214/1/1
f 218/4/1 214/4/1 217/4/1
f 219/1/1 216/1/1 209/1/1
f 220/4/1 217/4/1 216/4/1
f 220/1/1 216/1/1 219/1/1
f 221/1/1 218/1/1 217/1/1
f 221/4/1 217/4/1 220/4/1
f 222/1/1 219/1/1 209/1/1
f 223/4/1 220/4/1 219/4/1
f 223/1/1 219/1/1 222/1/1
f 224/1/1 221/1/1 220/1/1
f 224/4/1 220/4/1 223/4/1
f 225/1/1 222/1/1 209/1/1
f 225/4/1 223/4/1 222/4/1
f 226/1/1 224/1/1 223/1/1
f 226/4/1 223/4/1 225/4/1
f 227/1/1 218/1/1 221/1/1
f 227/1/1 224/1/1 226/1/1
f 227/1/1 226/1/1 225/1/1
f 227/1/1 221/1/1 224/1/1
f 228/1/1 215/1/1 218/1/1
f 228/1/1 218/1/1 227/1/1
f 229/1/1 227/1/1 225/1/1
f 229/1/1 225/1/1 209/1/1
f 230/4/1 228/4/1 227/4/1
f 230/1/1 227/1/1 229/1/1
f 231/1/1 215/1/1 228/1/1
f 231/4/1 228/4/1 230/4/1
f 232/1/1 215/1/1 231/1/1
f 233/1/2 234/1/2 237/1/2
f 234/3/2 235/3/2 237/3/2
f 235/1/2 236/1/2 238/1/2
f 237/3/2 235/3/2 238/3/2
f 238/1/2 236/1/2 239/1/2
f 237/1/2 238/1/2 240/1/2
f 238/3/2 239/3/2 240/3/2
f 240/3/2 239/3/2 241/3/2
f 240/1/2 241/1/2 242/1/2
f 242/1/2 241/1/2 243/1/2
f 237/1/2 240/1/2 244/1/2
f 240/1/2 242/1/2 244/1/2
f 242/3/2 243/3/2 245/3/2
f 244/1/2 242/1/2 245/1/2
f 245/3/2 243/3/2 246/3/2
f 244/3/2 245/3/2 247/3/2
f 245/1/2 246/1/2 247/1/2
f 247/1/2 246/1/2 248/1/2
f 233/1/2 237/1/2 249/1/2
f 237/1/2 244/1/2 249/1/2
f 247/3/2 248/3/2 250/3/2
f 249/1/2 244/1/2 250/1/2
f 244/3/2 247/3/2 250/3/2
f 250/3/2 248/3/2 251/3/2
f 251/3/2 248/3/2 252/3/2
f 233/1/2 249/1/2 253/1/2
f 249/3/2 250/3/2 254/3/2
f 253/1/2 249/1/2 254/1/2
f 250/3/2 251/3/2 254/3/2
f 254/3/2 251/3/2 255/3/2
f 255/3/2 251/3/2 256/3/2
f 251/1/2 252/1/2 257/1/2
f 256/3/2 251/3/2 257/3/2
f 253/3/2 254/3/2 258/3/2
f 254/1/2 255/1/2 259/1/2
f 258/3/2 254/3/2 259/3/2
f 253/3/2 258/3/2 260/3/2
f 258/1/2 259/1/2 261/1/2
f 260/3/2 258/3/2 261/3/2
f 259/1/2 255/1/2 262/1/2
f 261/1/2 259/1/2 262/1/2
f 260/1/2 261/1/2 262/1/2
f 255/3/2 256/3/2 263/3/2
f 262/1/2 255/1/2 263/1/2
f 256/1/2 257/1/2 264/1/2
f 263/3/2 256/3/2 264/3/2
f 260/1/2 262/1/2 265/1/2
f 262/3/2 263/3/2 266/3/2
f 265/1/2 262/1/2 266/1/2
f 263/1/2 264/1/2 267/1/2
f 266/3/2 263/3/2 267/3/2
f 260/1/2 265/1/2 268/1/2
f 265/3/2 266/3/2 269/3/2
f 268/1/2 265/1/2 269/1/2
f 266/1/2 267/1/2 270/1/2
f 269/3/2 266/3/2 270/3/2
f 268/3/2 269/3/2 271/3/2
f 269/1/2 270/1/2 272/1/2
f 271/3/2 269/3/2 272/3/2
f 264/1/2 257/1/2 273/1/2
f 272/1/2 270/1/2 273/1/2
f 271/1/2 272/1/2 273/1/2
f 257/1/2 252/1/2 273/1/2
f 270/1/2 267/1/2 273/1/2
f 267/1/2 264/1/2 273/1/2
f 273/1/2 252/1/2 274/1/2
f 271/1/2 273/1/2 275/1/2
f 273/4/2 274/4/2 275/4/2
f 275/4/2 274/4/2 276/4/2
f 271/1/2 275/1/2 277/1/2
f 275/1/2 276/1/2 277/1/2
f 277/1/2 276/1/2 278/1/2
f 277/3/2 278/3/2 279/3/2
f 278/1/2 276/1/2 280/1/2
f 279/3/2 278/3/2 280/3/2
f 280/1/2 276/1/2 281/1/2
f 279/1/2 280/1/2 282/1/2
f 280/3/2 281/3/2 282/3/2
f 281/1/2 276/1/2 283/1/2
f 282/3/2 281/3/2 283/3/2
f 283/1/2 276/1/2 284/1/2
f 282/1/2 283/1/2 285/1/2
f 283/3/2 284/3/2 285/3/2
f 284/1/2 276/1/2 286/1/2
f 285/3/2 284/3/2 286/3/2
f 286/1/2 276/1/2 287/1/2
f 279/1/2 282/1/2 288/1/2
f 282/1/2 285/1/2 288/1/2
f 285/1/2 286/1/2 288/1/2
f 288/1/2 286/1/2 289/1/2
f 288/3/2 289/3/2 290/3/2
f 289/1/2 286/1/2 290/1/2
f 290/1/2 286/1/2 291/1/2
f 288/3/2 290/3/2 292/3/2
f 290/3/2 291/3/2 292/3/2
f 291/1/2 286/1/2 293/1/2
f 292/3/2 291/3/2 293/3/2
f 286/3/2 287/3/2 294/3/2
f 293/1/2 286/1/2 294/1/2
f 287/1/2 276/1/2 295/1/2
f 294/3/2 287/3/2 295/3/2
f 295/1/2 276/1/2 296/1/2
f 293/3/2 294/3/2 297/3/2
f 292/1/2 293/1/2 297/1/2
f 295/3/2 296/3/2 297/3/2
f 294/3/2 295/3/2 297/3/2
f 297/3/2 296/3/2 298/3/2
f 296/1/2 276/1/2 299/1/2
f 298/3/2 296/3/2 299/3/2
f 299/1/2 276/1/2 300/1/2
f 298/3/2 299/3/2 301/3/2
f 299/3/2 300/3/2 301/3/2
f 301/3/2 300/3/2 302/3/2
f 297/1/2 298/1/2 303/1/2
f 298/3/2 301/3/2 303/3/2
f 301/1/2 302/1/2 304/1/2
f 303/3/2 301/3/2 304/3/2
f 304/1/2 302/1/2 305/1/2
f 292/1/2 297/1/2 306/1/2
f 297/1/2 303/1/2 306/1/2
f 303/1/2 304/1/2 306/1/2
f 306/1/2 304/1/2 307/1/2
f 307/1/2 304/1/2 308/1/2
f 308/1/2 304/1/2 309/1/2
f 306/2/2 307/2/2 310/2/2
f 307/1/2 308/1/2 311/1/2
f 310/2/2 307/2/2 311/2/2
f 308/2/2 309/2/2 312/2/2
f 311/1/2 308/1/2 312/1/2
f 309/1/2 304/1/2 313/1/2
f 312/2/2 309/2/2 313/2/2
f 304/3/2 305/3/2 314/3/2
f 313/1/2 304/1/2 314/1/2
f 314/3/2 305/3/2 315/3/2
f 312/1/2 313/1/2 316/1/2
f 311/1/2 312/1/2 316/1/2
f 314/1/2 315/1/2 316/1/2
f 313/1/2 314/1/2 316/1/2
f 310/1/2 311/1/2 316/1/2
f 316/1/2 315/1/2 317/1/2
f 310/1/2 316/1/2 318/1/2
f 318/1/2 316/1/2 319/1/2
f 319/1/2 316/1/2 320/1/2
f 316/3/2 317/3/2 321/3/2
f 320/1/2 316/1/2 321/1/2
f 321/3/2 317/3/2 322/3/2
f 318/2/2 319/2/2 323/2/2
f 319/1/2 320/1/2 324/1/2
f 323/2/2 319/2/2 324/2/2
f 320/3/2 321/3/2 325/3/2
f 324/1/2 320/1/2 325/1/2
f 321/1/2 322/1/2 326/1/2
f 325/3/2 321/3/2 326/3/2
f 323/3/2 324/3/2 327/3/2
f 324/3/2 325/3/2 327/3/2
f 325/1/2 326/1/2 328/1/2
f 327/3/2 325/3/2 328/3/2
f 327/1/2 328/1/2 329/1/2
f 328/1/2 326/1/2 329/1/2
f 329/1/2 326/1/2 330/1/2
f 326/1/2 322/1/2 331/1/2
f 330/1/2 326/1/2 331/1/2
f 331/1/2 322/1/2 332/1/2
f 329/2/2 330/2/2 333/2/2
f 327/1/2 329/1/2 333/1/2
f 330/1/2 331/1/2 334/1/2
f 333/2/2 330/2/2 334/2/2
f 331/2/2 332/2/2 335/2/2
f 334/1/2 331/1/2 335/1/2
f 335/2/2 332/2/2 336/2/2
f 333/1/2 334/1/2 337/1/2
f 327/1/2 333/1/2 337/1/2
f 335/1/2 336/1/2 337/1/2
f 334/1/2 335/1/2 337/1/2
f 337/1/2 336/1/2 338/1/2
f 338/1/2 336/1/2 339/1/2
f 339/1/2 336/1/2 340/1/2
f 327/1/2 337/1/2 341/1/2
f 337/2/2 338/2/2 342/2/2
f 341/1/2 337/1/2 342/1/2
f 338/1/2 339/1/2 343/1/2
f 342/2/2 338/2/2 343/2/2
f 339/2/2 340/2/2 344/2/2
f 343/1/2 339/1/2 344/1/2
f 344/2/2 340/2/2 345/2/2
f 366/1/3 347/1/3 346/1/3
f 366/4/3 348/4/3 347/4/3
f 367/1/3 349/1/3 348/1/3
f 367/4/3 348/4/3 366/4/3
f 368/3/3 350/3/3 349/3/3
f 368/1/3 349/1/3 367/1/3
f 369/1/3 351/1/3 350/1/3
f 369/3/3 350/3/3 368/3/3
f 370/3/3 352/3/3 351/3/3
f 370/1/3 351/1/3 369/1/3
f 371/1/3 353/1/3 352/1/3
f 371/3/3 352/3/3 370/3/3
f 372/3/3 354/3/3 353/3/3
f 372/1/3 353/1/3 371/1/3
f 373/3/3 354/3/3 372/3/3
f 374/3/3 354/3/3 373/3/3
f 375/3/3 354/3/3 374/3/3
f 376/3/3 354/3/3 375/3/3
f 377/3/3 354/3/3 376/3/3
f 378/4/3 355/4/3 354/4/3
f 378/3/3 354/3/3 377/3/3
f 379/3/3 356/3/3 355/3/3
f 379/4/3 355/4/3 378/4/3
f 380/4/3 357/4/3 356/4/3
f 380/3/3 356/3/3 379/3/3
f 381/3/3 358/3/3 357/3/3
f 381/4/3 357/4/3 380/4/3
f 382/3/3 358/3/3 381/3/3
f 383/3/3 358/3/3 382/3/3
f 384/3/3 358/3/3 383/3/3
f 385/3/3 358/3/3 384/3/3
f 386/3/3 358/3/3 385/3/3
f 387/1/3 359/1/3 358/1/3
f 387/3/3 358/3/3 386/3/3
f 388/3/3 360/3/3 359/3/3
f 388/1/3 359/1/3 387/1/3
f 389/1/3 361/1/3 360/1/3
f 389/3/3 360/3/3 388/3/3
f 390/3/3 362/3/3 361/3/3
f 390/1/3 361/1/3 389/1/3
f 391/1/3 363/1/3 362/1/3
f 391/3/3 362/3/3 390/3/3
f 392/4/3 364/4/3 363/4/3
f 392/1/3 363/1/3 391/1/3
f 393/1/3 365/1/3 364/1/3
f 393/4/3 364/4/3 392/4/3
f 394/1/3 377/1/3 376/1/3
f 395/3/3 378/3/3 377/3/3
f 395/1/3 377/1/3 394/1/3
f 395/3/3 379/3/3 378/3/3
f 396/1/3 380/1/3 379/1/3
f 396/3/3 379/3/3 395/3/3
f 397/1/3 380/1/3 396/1/3
f 398/1/3 380/1/3 397/1/3
f 399/3/3 381/3/3 380/3/3
f 399/1/3 380/1/3 398/1/3
f 399/3/3 382/3/3 381/3/3
f 400/1/3 383/1/3 382/1/3
f 400/3/3 382/3/3 399/3/3
f 401/1/3 383/1/3 400/1/3
f 402/1/3 367/1/3 366/1/3
f 402/1/3 368/1/3 367/1/3
f 402/1/3 369/1/3 368/1/3
f 402/1/3 370/1/3 369/1/3
f 402/1/3 371/1/3 370/1/3
f 402/1/3 372/1/3 371/1/3
f 402/1/3 373/1/3 372/1/3
f 402/3/3 374/3/3 373/3/3
f 403/1/3 375/1/3 374/1/3
f 403/3/3 374/3/3 402/3/3
f 404/3/3 376/3/3 375/3/3
f 404/1/3 375/1/3 403/1/3
f 405/1/3 394/1/3 376/1/3
f 406/3/3 395/3/3 394/3/3
f 406/1/3 394/1/3 405/1/3
f 407/1/3 396/1/3 395/1/3
f 407/3/3 395/3/3 406/3/3
f 408/3/3 397/3/3 396/3/3
f 408/1/3 396/1/3 407/1/3
f 409/1/3 398/1/3 397/1/3
f 409/3/3 397/3/3 408/3/3
f 410/1/3 398/1/3 409/1/3
f 411/1/3 398/1/3 410/1/3
f 412/3/3 399/3/3 398/3/3
f 412/1/3 398/1/3 411/1/3
f 413/1/3 400/1/3 399/1/3
f 413/3/3 399/3/3 412/3/3
f 414/3/3 401/3/3 400/3/3
f 414/1/3 400/1/3 413/1/3
f 415/1/3 383/1/3 401/1/3
f 415/3/3 401/3/3 414/3/3
f 416/1/3 383/1/3 415/1/3
f 417/1/3 385/1/3 384/1/3
f 417/3/3 384/3/3 383/3/3
f 418/3/3 386/3/3 385/3/3
f 418/1/3 385/1/3 417/1/3
f 419/1/3 392/1/3 391/1/3
f 419/3/3 386/3/3 418/3/3
f 419/1/3 391/1/3 390/1/3
f 419/1/3 393/1/3 392/1/3
f 419/1/3 387/1/3 386/1/3
f 419/1/3 388/1/3 387/1/3
f 419/1/3 389/1/3 388/1/3
f 419/1/3 390/1/3 389/1/3
f 420/1/3 405/1/3 376/1/3
f 421/3/3 406/3/3 405/3/3
f 421/1/3 405/1/3 420/1/3
f 422/1/3 409/1/3 408/1/3
f 422/3/3 406/3/3 421/3/3
f 422/1/3 408/1/3 407/1/3
f 422/1/3 407/1/3 406/1/3
f 423/3/3 410/3/3 409/3/3
f 423/1/3 409/1/3 422/1/3
f 424/1/3 411/1/3 410/1/3
f 424/3/3 410/3/3 423/3/3
f 425/1/3 411/1/3 424/1/3
f 426/1/3 411/1/3 425/1/3
f 427/3/3 412/3/3 411/3/3
f 427/1/3 411/1/3 426/1/3
f 428/1/3 415/1/3 414/1/3
f 428/3/3 412/3/3 427/3/3
f 428/1/3 414/1/3 413/1/3
f 428/1/3 413/1/3 412/1/3
f 429/3/3 416/3/3 415/3/3
f 429/1/3 415/1/3 428/1/3
f 430/1/3 383/1/3 416/1/3
f 430/3/3 416/3/3 429/3/3
f 431/1/3 383/1/3 430/1/3
f 432/1/3 420/1/3 376/1/3
f 432/3/3 376/3/3 404/3/3
f 432/3/3 404/3/3 403/3/3
f 433/3/3 421/3/3 420/3/3
f 433/1/3 420/1/3 432/1/3
f 434/1/3 424/1/3 423/1/3
f 434/3/3 421/3/3 433/3/3
f 434/1/3 422/1/3 421/1/3
f 434/1/3 423/1/3 422/1/3
f 435/3/3 425/3/3 424/3/3
f 435/1/3 424/1/3 434/1/3
f 436/1/3 426/1/3 425/1/3
f 436/3/3 425/3/3 435/3/3
f 437/3/3 427/3/3 426/3/3
f 437/1/3 426/1/3 436/1/3
f 438/1/3 429/1/3 428/1/3
f 438/3/3 427/3/3 437/3/3
f 438/1/3 430/1/3 429/1/3
f 438/1/3 428/1/3 427/1/3
f 439/3/3 431/3/3 430/3/3
f 439/1/3 430/1/3 438/1/3
f 440/1/3 383/1/3 431/1/3
f 440/3/3 431/3/3 439/3/3
f 441/3/3 418/3/3 417/3/3
f 441/1/3 383/1/3 440/1/3
f 441/3/3 417/3/3 383/3/3
f 442/3/3 433/3/3 432/3/3
f 442/3/3 432/3/3 403/3/3
f 443/1/3 436/1/3 435/1/3
f 443/3/3 433/3/3 442/3/3
f 443/1/3 434/1/3 433/1/3
f 443/1/3 435/1/3 434/1/3
f 444/3/3 437/3/3 436/3/3
f 444/1/3 436/1/3 443/1/3
f 445/1/3 440/1/3 439/1/3
f 445/3/3 437/3/3 444/3/3
f 445/1/3 439/1/3 438/1/3
f 445/1/3 438/1/3 437/1/3
f 446/3/3 441/3/3 440/3/3
f 446/1/3 440/1/3 445/1/3
f 447/3/3 418/3/3 441/3/3
f 447/3/3 441/3/3 446/3/3
f 448/1/3 403/1/3 402/1/3
f 448/1/3 402/1/3 366/1/3
f 449/3/3 442/3/3 403/3/3
f 449/1/3 403/1/3 448/1/3
f 450/1/3 444/1/3 443/1/3
f 450/3/3 442/3/3 449/3/3
f 450/1/3 446/1/3 445/1/3
f 450/1/3 447/1/3 446/1/3
f 450/1/3 445/1/3 444/1/3
f 450/1/3 443/1/3 442/1/3
f 451/3/3 418/3/3 447/3/3
f 451/1/3 447/1/3 450/1/3
f 452/1/3 419/1/3 418/1/3
f 452/3/3 418/3/3 451/3/3
f 453/1/3 393/1/3 419/1/3
f 453/1/3 419/1/3 452/1/3
f 454/1/3 448/1/3 366/1/3
f 455/1/3 448/1/3 454/1/3
f 456/1/3 448/1/3 455/1/3
f 457/3/3 449/3/3 448/3/3
f 457/1/3 448/1/3 456/1/3
f 458/1/3 450/1/3 449/1/3
f 458/3/3 449/3/3 457/3/3
f 458/1/3 452/1/3 451/1/3
f 458/1/3 451/1/3 450/1/3
f 459/3/3 453/3/3 452/3/3
f 459/1/3 452/1/3 458/1/3
f 460/1/3 393/1/3 453/1/3
f 460/3/3 453/3/3 459/3/3
f 461/1/3 393/1/3 460/1/3
f 462/1/3 393/1/3 461/1/3
f 463/1/3 393/1/3 462/1/3
f 464/1/3 393/1/3 463/1/3
f 465/1/3 393/1/3 464/1/3
f 466/1/3 365/1/3 393/1/3
f 466/1/3 393/1/3 465/1/3
f 467/1/3 365/1/3 466/1/3
f 468/1/3 365/1/3 467/1/3
f 469/1/3 366/1/3 346/1/3
f 469/1/3 454/1/3 366/1/3
f 470/3/3 455/3/3 454/3/3
f 470/1/3 454/1/3 469/1/3
f 471/1/3 456/1/3 455/1/3
f 471/3/3 455/3/3 470/3/3
f 472/3/3 457/3/3 456/3/3
f 472/1/3 456/1/3 471/1/3
f 473/1/3 459/1/3 458/1/3
f 473/3/3 457/3/3 472/3/3
f 473/1/3 458/1/3 457/1/3
f 473/1/3 460/1/3 459/1/3
f 474/3/3 461/3/3 460/3/3
f 474/1/3 460/1/3 473/1/3
f 475/1/3 462/1/3 461/1/3
f 475/3/3 461/3/3 474/3/3
f 476/3/3 463/3/3 462/3/3
f 476/1/3 462/1/3 475/1/3
f 477/1/3 464/1/3 463/1/3
f 477/3/3 463/3/3 476/3/3
f 478/2/3 465/2/3 464/2/3
f 478/1/3 464/1/3 477/1/3
f 479/1/3 466/1/3 465/1/3
f 479/2/3 465/2/3 478/2/3
f 480/2/3 467/2/3 466/2/3
f 480/1/3 466/1/3 479/1/3
f 481/3/3 468/3/3 467/3/3
f 481/2/3 467/2/3 480/2/3
f 482/1/3 365/1/3 468/1/3
f 482/3/3 468/3/3 481/3/3
f 483/1/3 365/1/3 482/1/3
f 484/1/4 485/1/4 516/1/4
f 485/3/4 486/3/4 516/3/4
f 486/4/4 487/4/4 517/4/4
f 516/3/4 486/3/4 517/3/4
f 487/3/4 488/3/4 518/3/4
f 517/4/4 487/4/4 518/4/4
f 488/1/4 489/1/4 519/1/4
f 489/3/4 490/3/4 519/3/4
f 519/3/4 490/3/4 520/3/4
f 490/1/4 491/1/4 521/1/4
f 520/3/4 490/3/4 521/3/4
f 521/1/4 491/1/4 522/1/4
f 491/3/4 492/3/4 523/3/4
f 522/1/4 491/1/4 523/1/4
f 492/1/4 493/1/4 524/1/4
f 523/3/4 492/3/4 524/3/4
f 493/3/4 494/3/4 525/3/4
f 524/1/4 493/1/4 525/1/4
f 525/3/4 494/3/4 526/3/4
f 526/3/4 494/3/4 527/3/4
f 494/1/4 495/1/4 528/1/4
f 527/3/4 494/3/4 528/3/4
f 495/3/4 496/3/4 529/3/4
f 528/1/4 495/1/4 529/1/4
f 496/1/4 497/1/4 530/1/4
f 529/3/4 496/3/4 530/3/4
f 497/4/4 498/4/4 531/4/4
f 530/1/4 497/1/4 531/1/4
f 498/1/4 499/1/4 532/1/4
f 531/4/4 498/4/4 532/4/4
f 499/4/4 500/4/4 533/4/4
f 532/1/4 499/1/4 533/1/4
f 500/1/4 501/1/4 534/1/4
f 533/4/4 500/4/4 534/4/4
f 501/3/4 502/3/4 535/3/4
f 534/1/4 501/1/4 535/1/4
f 502/1/4 503/1/4 536/1/4
f 535/3/4 502/3/4 536/3/4
f 503/3/4 504/3/4 537/3/4
f 536/1/4 503/1/4 537/1/4
f 537/3/4 504/3/4 538/3/4
f 538/3/4 504/3/4 539/3/4
f 504/1/4 505/1/4 540/1/4
f 539/3/4 504/3/4 540/3/4
f 505/3/4 506/3/4 541/3/4
f 540/1/4 505/1/4 541/1/4
f 506/1/4 507/1/4 542/1/4
f 541/3/4 506/3/4 542/3/4
f 542/1/4 507/1/4 543/1/4
f 507/3/4 508/3/4 544/3/4
f 543/1/4 507/1/4 544/1/4
f 544/3/4 508/3/4 545/3/4
f 508/1/4 509/1/4 546/1/4
f 545/3/4 508/3/4 546/3/4
f 509/3/4 510/3/4 547/3/4
f 510/4/4 511/4/4 547/4/4
f 511/3/4 512/3/4 548/3/4
f 547/4/4 511/4/4 548/4/4
f 512/1/4 513/1/4 549/1/4
f 548/3/4 512/3/4 549/3/4
f 513/4/4 514/4/4 550/4/4
f 549/1/4 513/1/4 550/1/4
f 514/1/4 515/1/4 551/1/4
f 550/4/4 514/4/4 551/4/4
f 519/1/4 520/1/4 552/1/4
f 521/3/4 522/3/4 552/3/4
f 520/3/4 521/3/4 552/3/4
f 552/3/4 522/3/4 553/3/4
f 522/1/4 523/1/4 554/1/4
f 553/3/4 522/3/4 554/3/4
f 523/1/4 524/1/4 554/1/4
f 524/1/4 525/1/4 554/1/4
f 525/1/4 526/1/4 554/1/4
f 554/1/4 526/1/4 555/1/4
f 526/3/4 527/3/4 556/3/4
f 555/1/4 526/1/4 556/1/4
f 527/1/4 528/1/4 557/1/4
f 556/3/4 527/3/4 557/3/4
f 528/1/4 529/1/4 557/1/4
f 529/1/4 530/1/4 557/1/4
f 557/1/4 530/1/4 558/1/4
f 558/1/4 530/1/4 559/1/4
f 530/3/4 531/3/4 560/3/4
f 559/1/4 530/1/4 560/1/4
f 531/1/4 532/1/4 561/1/4
f 560/3/4 531/3/4 561/3/4
f 533/1/4 534/1/4 562/1/4
f 534/3/4 535/3/4 562/3/4
f 536/1/4 537/1/4 563/1/4
f 562/3/4 535/3/4 563/3/4
f 535/1/4 536/1/4 563/1/4
f 537/1/4 538/1/4 563/1/4
f 563/1/4 538/1/4 564/1/4
f 564/1/4 538/1/4 565/1/4
f 538/3/4 539/3/4 566/3/4
f 565/1/4 538/1/4 566/1/4
f 539/1/4 540/1/4 567/1/4
f 566/3/4 539/3/4 567/3/4
f 540/1/4 541/1/4 567/1/4
f 542/1/4 543/1/4 567/1/4
f 541/1/4 542/1/4 567/1/4
f 567/1/4 543/1/4 568/1/4
f 544/3/4 545/3/4 569/3/4
f 568/1/4 543/1/4 569/1/4
f 543/3/4 544/3/4 569/3/4
f 569/3/4 545/3/4 570/3/4
f 545/1/4 546/1/4 571/1/4
f 570/3/4 545/3/4 571/3/4
f 484/1/4 516/1/4 572/1/4
f 516/4/4 517/4/4 573/4/4
f 572/1/4 516/1/4 573/1/4
f 517/3/4 518/3/4 574/3/4
f 573/4/4 517/4/4 574/4/4
f 554/3/4 555/3/4 575/3/4
f 553/3/4 554/3/4 575/3/4
f 555/1/4 556/1/4 576/1/4
f 575/3/4 555/3/4 576/3/4
f 556/1/4 557/1/4 576/1/4
f 576/1/4 557/1/4 577/1/4
f 557/3/4 558/3/4 578/3/4
f 577/1/4 557/1/4 578/1/4
f 558/1/4 559/1/4 579/1/4
f 578/3/4 558/3/4 579/3/4
f 579/1/4 559/1/4 580/1/4
f 580/1/4 559/1/4 581/1/4
f 559/3/4 560/3/4 582/3/4
f 581/1/4 559/1/4 582/1/4
f 560/1/4 561/1/4 583/1/4
f 582/3/4 560/3/4 583/3/4
f 563/3/4 564/3/4 584/3/4
f 562/1/4 563/1/4 584/1/4
f 564/1/4 565/1/4 585/1/4
f 584/3/4 564/3/4 585/3/4
f 585/1/4 565/1/4 586/1/4
f 586/1/4 565/1/4 587/1/4
f 565/3/4 566/3/4 588/3/4
f 587/1/4 565/1/4 588/1/4
f 567/1/4 568/1/4 589/1/4
f 588/3/4 566/3/4 589/3/4
f 566/1/4 567/1/4 589/1/4
f 589/1/4 568/1/4 590/1/4
f 569/3/4 570/3/4 591/3/4
f 590/1/4 568/1/4 591/1/4
f 568/3/4 569/3/4 591/3/4
f 591/3/4 570/3/4 592/3/4
f 548/4/4 549/4/4 593/4/4
f 547/3/4 548/3/4 593/3/4
f 549/1/4 550/1/4 594/1/4
f 593/4/4 549/4/4 594/4/4
f 550/1/4 551/1/4 594/1/4
f 594/1/4 551/1/4 595/1/4
f 551/1/4 515/1/4 596/1/4
f 595/1/4 551/1/4 596/1/4
f 596/1/4 515/1/4 597/1/4
f 572/4/4 573/4/4 598/4/4
f 598/4/4 573/4/4 599/4/4
f 573/1/4 574/1/4 600/1/4
f 599/4/4 573/4/4 600/4/4
f 574/3/4 518/3/4 601/3/4
f 600/1/4 574/1/4 601/1/4
f 518/3/4 488/3/4 602/3/4
f 601/3/4 518/3/4 602/3/4
f 552/1/4 553/1/4 603/1/4
f 553/3/4 575/3/4 603/3/4
f 575/1/4 576/1/4 604/1/4
f 603/3/4 575/3/4 604/3/4
f 604/1/4 576/1/4 605/1/4
f 576/3/4 577/3/4 606/3/4
f 605/1/4 576/1/4 606/1/4
f 577/1/4 578/1/4 607/1/4
f 606/3/4 577/3/4 607/3/4
f 578/1/4 579/1/4 607/1/4
f 607/1/4 579/1/4 608/1/4
f 579/3/4 580/3/4 609/3/4
f 608/1/4 579/1/4 609/1/4
f 580/1/4 581/1/4 610/1/4
f 609/3/4 580/3/4 610/3/4
f 581/3/4 582/3/4 611/3/4
f 610/1/4 581/1/4 611/1/4
f 582/1/4 583/1/4 612/1/4
f 611/3/4 582/3/4 612/3/4
f 585/3/4 586/3/4 613/3/4
f 584/1/4 585/1/4 613/1/4
f 586/1/4 587/1/4 614/1/4
f 613/3/4 586/3/4 614/3/4
f 587/3/4 588/3/4 615/3/4
f 614/1/4 587/1/4 615/1/4
f 589/1/4 590/1/4 616/1/4
f 615/3/4 588/3/4 616/3/4
f 588/1/4 589/1/4 616/1/4
f 616/1/4 590/1/4 617/1/4
f 590/3/4 591/3/4 618/3/4
f 617/1/4 590/1/4 618/1/4
f 591/1/4 592/1/4 619/1/4
f 618/3/4 591/3/4 619/3/4
f 619/1/4 592/1/4 620/1/4
f 592/3/4 570/3/4 621/3/4
f 620/1/4 592/1/4 621/1/4
f 570/1/4 571/1/4 622/1/4
f 621/3/4 570/3/4 622/3/4
f 547/3/4 593/3/4 623/3/4
f 509/3/4 547/3/4 623/3/4
f 593/1/4 594/1/4 624/1/4
f 623/3/4 593/3/4 624/3/4
f 594/4/4 595/4/4 625/4/4
f 624/1/4 594/1/4 625/1/4
f 625/4/4 595/4/4 626/4/4
f 595/1/4 596/1/4 627/1/4
f 626/4/4 595/4/4 627/4/4
f 600/1/4 601/1/4 628/1/4
f 599/1/4 600/1/4 628/1/4
f 601/1/4 602/1/4 628/1/4
f 598/3/4 599/3/4 628/3/4
f 628/1/4 602/1/4 629/1/4
f 605/1/4 606/1/4 630/1/4
f 606/1/4 607/1/4 630/1/4
f 607/3/4 608/3/4 630/3/4
f 608/1/4 609/1/4 631/1/4
f 630/3/4 608/3/4 631/3/4
f 609/1/4 610/1/4 631/1/4
f 631/1/4 610/1/4 632/1/4
f 610/3/4 611/3/4 633/3/4
f 611/1/4 612/1/4 634/1/4
f 633/3/4 611/3/4 634/3/4
f 613/1/4 614/1/4 635/1/4
f 614/3/4 615/3/4 635/3/4
f 635/3/4 615/3/4 636/3/4
f 616/1/4 617/1/4 637/1/4
f 615/1/4 616/1/4 637/1/4
f 617/3/4 618/3/4 638/3/4
f 637/1/4 617/1/4 638/1/4
f 619/1/4 620/1/4 639/1/4
f 638/3/4 618/3/4 639/3/4
f 618/1/4 619/1/4 639/1/4
f 623/1/4 624/1/4 640/1/4
f 624/1/4 625/1/4 640/1/4
f 625/1/4 626/1/4 640/1/4
f 626/3/4 627/3/4 641/3/4
f 640/1/4 626/1/4 641/1/4
f 628/3/4 629/3/4 642/3/4
f 598/3/4 628/3/4 642/3/4
f 629/1/4 602/1/4 643/1/4
f 642/3/4 629/3/4 643/3/4
f 602/3/4 488/3/4 644/3/4
f 519/1/4 552/1/4 644/1/4
f 488/1/4 519/1/4 644/1/4
f 552/1/4 603/1/4 644/1/4
f 603/1/4 604/1/4 644/1/4
f 644/1/4 604/1/4 645/1/4
f 604/3/4 605/3/4 646/3/4
f 645/1/4 604/1/4 646/1/4
f 605/1/4 630/1/4 647/1/4
f 646/3/4 605/3/4 647/3/4
f 630/1/4 631/1/4 647/1/4
f 631/3/4 632/3/4 648/3/4
f 647/1/4 631/1/4 648/1/4
f 632/1/4 610/1/4 649/1/4
f 648/3/4 632/3/4 649/3/4
f 610/3/4 633/3/4 650/3/4
f 649/1/4 610/1/4 650/1/4
f 633/1/4 634/1/4 651/1/4
f 650/3/4 633/3/4 651/3/4
f 636/3/4 615/3/4 652/3/4
f 635/1/4 636/1/4 652/1/4
f 615/1/4 637/1/4 653/1/4
f 652/3/4 615/3/4 653/3/4
f 637/3/4 638/3/4 654/3/4
f 653/1/4 637/1/4 654/1/4
f 638/1/4 639/1/4 655/1/4
f 654/3/4 638/3/4 655/3/4
f 639/1/4 620/1/4 656/1/4
f 655/1/4 639/1/4 656/1/4
f 620/3/4 621/3/4 656/3/4
f 621/1/4 622/1/4 657/1/4
f 656/3/4 621/3/4 657/3/4
f 622/1/4 571/1/4 658/1/4
f 657/1/4 622/1/4 658/1/4
f 571/1/4 546/1/4 658/1/4
f 546/1/4 509/1/4 658/1/4
f 509/3/4 623/3/4 659/3/4
f 658/1/4 509/1/4 659/1/4
f 623/1/4 640/1/4 660/1/4
f 640/3/4 641/3/4 660/3/4
f 627/1/4 596/1/4 661/1/4
f 660/3/4 641/3/4 661/3/4
f 641/3/4 627/3/4 661/3/4
f 596/4/4 597/4/4 662/4/4
f 661/1/4 596/1/4 662/1/4
f 660/1/4 661/1/4 662/1/4
f 662/4/4 597/4/4 663/4/4
f 643/1/4 602/1/4 664/1/4
f 642/1/4 643/1/4 664/1/4
f 644/3/4 645/3/4 665/3/4
f 664/1/4 602/1/4 665/1/4
f 602/3/4 644/3/4 665/3/4
f 645/1/4 646/1/4 666/1/4
f 665/3/4 645/3/4 666/3/4
f 650/1/4 651/1/4 666/1/4
f 647/1/4 648/1/4 666/1/4
f 648/1/4 649/1/4 666/1/4
f 646/1/4 647/1/4 666/1/4
f 649/1/4 650/1/4 666/1/4
f 666/1/4 651/1/4 667/1/4
f 656/1/4 657/1/4 668/1/4
f 652/1/4 653/1/4 668/1/4
f 657/1/4 658/1/4 668/1/4
f 654/1/4 655/1/4 668/1/4
f 653/1/4 654/1/4 668/1/4
f 655/1/4 656/1/4 668/1/4
f 658/3/4 659/3/4 669/3/4
f 668/1/4 658/1/4 669/1/4
f 623/1/4 660/1/4 670/1/4
f 669/3/4 659/3/4 670/3/4
f 662/1/4 663/1/4 670/1/4
f 659/3/4 623/3/4 670/3/4
f 660/1/4 662/1/4 670/1/4
f 670/1/4 663/1/4 671/1/4
f 642/1/4 664/1/4 672/1/4
f 672/1/4 664/1/4 673/1/4
f 665/1/4 666/1/4 674/1/4
f 664/3/4 665/3/4 674/3/4
f 666/3/4 667/3/4 675/3/4
f 674/1/4 666/1/4 675/1/4
f 667/1/4 651/1/4 676/1/4
f 675/3/4 667/3/4 676/3/4
f 676/1/4 651/1/4 677/1/4
f 652/1/4 668/1/4 678/1/4
f 668/3/4 669/3/4 679/3/4
f 678/1/4 668/1/4 679/1/4
f 669/1/4 670/1/4 680/1/4
f 679/3/4 669/3/4 680/3/4
f 670/3/4 671/3/4 681/3/4
f 680/1/4 670/1/4 681/1/4
f 671/1/4 663/1/4 682/1/4
f 682/1/4 663/1/4 683/1/4
f 683/1/4 663/1/4 684/1/4
f 684/1/4 663/1/4 685/1/4
f 685/1/4 663/1/4 686/1/4
f 686/1/4 663/1/4 687/1/4
f 642/1/4 672/1/4 688/1/4
f 672/3/4 673/3/4 689/3/4
f 688/1/4 672/1/4 689/1/4
f 673/1/4 664/1/4 690/1/4
f 689/3/4 673/3/4 690/3/4
f 674/3/4 675/3/4 691/3/4
f 690/1/4 664/1/4 691/1/4
f 664/3/4 674/3/4 691/3/4
f 675/1/4 676/1/4 692/1/4
f 691/3/4 675/3/4 692/3/4
f 676/3/4 677/3/4 693/3/4
f 692/1/4 676/1/4 693/1/4
f 677/1/4 651/1/4 694/1/4
f 693/3/4 677/3/4 694/3/4
f 651/1/4 634/1/4 695/1/4
f 694/1/4 651/1/4 695/1/4
f 612/1/4 583/1/4 695/1/4
f 634/1/4 612/1/4 695/1/4
f 532/4/4 533/4/4 695/4/4
f 561/1/4 532/1/4 695/1/4
f 583/1/4 561/1/4 695/1/4
f 652/1/4 678/1/4 696/1/4
f 695/4/4 533/4/4 696/4/4
f 635/1/4 652/1/4 696/1/4
f 613/1/4 635/1/4 696/1/4
f 533/1/4 562/1/4 696/1/4
f 562/1/4 584/1/4 696/1/4
f 584/1/4 613/1/4 696/1/4
f 678/3/4 679/3/4 697/3/4
f 696/1/4 678/1/4 697/1/4
f 679/1/4 680/1/4 698/1/4
f 697/3/4 679/3/4 698/3/4
f 680/3/4 681/3/4 699/3/4
f 698/1/4 680/1/4 699/1/4
f 681/3/4 671/3/4 700/3/4
f 699/3/4 681/3/4 700/3/4
f 671/1/4 682/1/4 700/1/4
f 682/3/4 683/3/4 701/3/4
f 700/1/4 682/1/4 701/1/4
f 683/1/4 684/1/4 702/1/4
f 701/3/4 683/3/4 702/3/4
f 684/2/4 685/2/4 703/2/4
f 702/1/4 684/1/4 703/1/4
f 685/1/4 686/1/4 704/1/4
f 703/2/4 685/2/4 704/2/4
f 686/2/4 687/2/4 705/2/4
f 704/1/4 686/1/4 705/1/4
f 705/2/4 687/2/4 706/2/4
f 709/1/5 708/1/5 707/1/5
f 710/1/5 708/1/5 709/1/5
f 711/1/5 709/1/5 707/1/5
f 711/3/5 710/3/5 709/3/5
f 712/3/5 710/3/5 711/3/5
f 713/1/5 711/1/5 707/1/5
f 713/1/5 712/1/5 711/1/5
f 714/1/5 712/1/5 713/1/5
f 715/1/5 712/1/5 714/1/5
f 716/1/5 713/1/5 707/1/5
f 717/4/5 714/4/5 713/4/5
f 717/1/5 713/1/5 716/1/5
f 718/3/5 715/3/5 714/3/5
f 718/4/5 714/4/5 717/4/5
f 719/1/5 712/1/5 715/1/5
f 719/3/5 715/3/5 718/3/5
f 720/1/5 712/1/5 719/1/5
f 721/1/6 722/1/6 723/1/6
f 723/1/6 722/1/6 724/1/6
f 721/1/6 723/1/6 725/1/6
f 723/2/6 724/2/6 725/2/6
f 725/2/6 724/2/6 726/2/6
f 721/1/6 725/1/6 727/1/6
f 725/1/6 726/1/6 727/1/6
f 727/1/6 726/1/6 728/1/6
f 727/4/6 728/4/6 729/4/6
f 728/1/6 726/1/6 730/1/6
f 729/4/6 728/4/6 730/4/6
f 730/1/6 726/1/6 731/1/6
f 731/1/6 726/1/6 732/1/6
f 732/1/6 726/1/6 733/1/6
f 729/1/6 730/1/6 734/1/6
f 730/4/6 731/4/6 735/4/6
f 734/1/6 730/1/6 735/1/6
f 731/1/6 732/1/6 736/1/6
f 735/4/6 731/4/6 736/4/6
f 732/2/6 733/2/6 737/2/6
f 736/1/6 732/1/6 737/1/6
f 737/2/6 733/2/6 738/2/6
