# MagicaVoxel @ Ephtracy

# group
o 

# material
mtllib stadium-large-complex-2.mtl
usemtl palette

# normals
vn -1 0 0
vn 1 0 0
vn 0 0 1
vn 0 0 -1
vn 0 -1 0
vn 0 1 0

# texcoords
vt 0.970703 0.5
vt 0.978516 0.5

# verts
v 11.8 2 4
v 11.8 2 3.6
v 11.8 2 3.5
v 11.8 2 0.9
v 11.8 2 0.8
v 11.8 2 -0.8
v 11.8 2 -0.9
v 11.8 2 -3.5
v 11.8 2 -3.6
v 11.8 2 -4
v 11.8 2.1 3.6
v 11.8 2.1 3.5
v 11.8 2.1 3.4
v 11.8 2.1 -3.4
v 11.8 2.1 -3.5
v 11.8 2.1 -3.6
v 11.8 2.2 3.5
v 11.8 2.2 3.4
v 11.8 2.2 3.3
v 11.8 2.2 1
v 11.8 2.2 0.9
v 11.8 2.2 0.8
v 11.8 2.2 -0.8
v 11.8 2.2 -0.9
v 11.8 2.2 -1
v 11.8 2.2 -3.3
v 11.8 2.2 -3.4
v 11.8 2.2 -3.5
v 11.8 2.3 3.4
v 11.8 2.3 3.3
v 11.8 2.3 3.2
v 11.8 2.3 -3.2
v 11.8 2.3 -3.3
v 11.8 2.3 -3.4
v 11.8 2.4 3.3
v 11.8 2.4 3.2
v 11.8 2.4 3.1
v 11.8 2.4 1.1
v 11.8 2.4 1
v 11.8 2.4 0.9
v 11.8 2.4 -0.9
v 11.8 2.4 -1
v 11.8 2.4 -1.1
v 11.8 2.4 -3.1
v 11.8 2.4 -3.2
v 11.8 2.4 -3.3
v 11.8 2.5 3.2
v 11.8 2.5 3.1
v 11.8 2.5 3
v 11.8 2.5 -3
v 11.8 2.5 -3.1
v 11.8 2.5 -3.2
v 11.8 2.6 3.1
v 11.8 2.6 3
v 11.8 2.6 -3
v 11.8 2.6 -3.1
v 11.8 2.7 1.2
v 11.8 2.7 1.1
v 11.8 2.7 1
v 11.8 2.7 -1
v 11.8 2.7 -1.1
v 11.8 2.7 -1.2
v 11.8 2.9 1.4
v 11.8 2.9 1.2
v 11.8 2.9 1.1
v 11.8 2.9 -1.1
v 11.8 2.9 -1.2
v 11.8 2.9 -1.4
v 11.8 3 4
v 11.8 3 1.4
v 11.8 3 1.2
v 11.8 3 -1.2
v 11.8 3 -1.4
v 11.8 3 -4
v 12.8 2 4
v 12.8 2 3.1
v 12.8 2 2.9
v 12.8 2 -2.9
v 12.8 2 -3.1
v 12.8 2 -4
v 12.8 2.1 3.4
v 12.8 2.1 3.1
v 12.8 2.1 2.9
v 12.8 2.1 -2.9
v 12.8 2.1 -3.1
v 12.8 2.1 -3.4
v 12.8 2.2 3.6
v 12.8 2.2 3.4
v 12.8 2.2 3.1
v 12.8 2.2 -3.1
v 12.8 2.2 -3.4
v 12.8 2.2 -3.6
v 12.8 2.3 4
v 12.8 2.3 3.6
v 12.8 2.3 3.4
v 12.8 2.3 -3.4
v 12.8 2.3 -3.6
v 12.8 2.3 -4
v 12.8 2.4 4
v 12.8 2.4 3.6
v 12.8 2.4 -3.6
v 12.8 2.4 -4
v 12.8 2.9 2.4
v 12.8 2.9 2.3
v 12.8 2.9 -2.3
v 12.8 2.9 -2.4
v 12.8 3 4
v 12.8 3 2.4
v 12.8 3 2.3
v 12.8 3 -2.3
v 12.8 3 -2.4
v 12.8 3 -4
v 11.8 2 4
v 11.8 3 4
v 12.7 2.3 4
v 12.7 2.4 4
v 12.8 2 4
v 12.8 2.3 4
v 12.8 2.4 4
v 12.8 3 4
v 11.8 2 -4
v 11.8 3 -4
v 12.7 2.3 -4
v 12.7 2.4 -4
v 12.8 2 -4
v 12.8 2.3 -4
v 12.8 2.4 -4
v 12.8 3 -4
v 11.8 2 4
v 12.8 2 4
v 11.8 2 3.6
v 11.9 2 3.6
v 11.8 2 3.5
v 11.9 2 3.5
v 12.7 2 3.1
v 12.8 2 3.1
v 12.7 2 2.9
v 12.8 2 2.9
v 11.8 2 0.9
v 11.9 2 0.9
v 11.8 2 0.8
v 11.9 2 0.8
v 11.8 2 -0.8
v 11.9 2 -0.8
v 11.8 2 -0.9
v 11.9 2 -0.9
v 12.7 2 -2.9
v 12.8 2 -2.9
v 12.7 2 -3.1
v 12.8 2 -3.1
v 11.8 2 -3.5
v 11.9 2 -3.5
v 11.8 2 -3.6
v 11.9 2 -3.6
v 11.8 2 -4
v 12.8 2 -4
v 11.8 3 4
v 12.8 3 4
v 12.7 3 2.4
v 12.8 3 2.4
v 12.6 3 2.3
v 12.7 3 2.3
v 12.8 3 2.3
v 12.5 3 2.2
v 12.6 3 2.2
v 12.7 3 2.2
v 12.4 3 2.1
v 12.5 3 2.1
v 12.6 3 2.1
v 12.3 3 2
v 12.4 3 2
v 12.5 3 2
v 12.2 3 1.8
v 12.3 3 1.8
v 12.4 3 1.8
v 12.1 3 1.7
v 12.2 3 1.7
v 12.3 3 1.7
v 12 3 1.6
v 12.1 3 1.6
v 12.2 3 1.6
v 11.9 3 1.5
v 12 3 1.5
v 12.1 3 1.5
v 11.8 3 1.4
v 11.9 3 1.4
v 12 3 1.4
v 11.8 3 1.2
v 11.9 3 1.2
v 11.8 3 -1.2
v 11.9 3 -1.2
v 11.8 3 -1.4
v 11.9 3 -1.4
v 12 3 -1.4
v 11.9 3 -1.5
v 12 3 -1.5
v 12.1 3 -1.5
v 12 3 -1.6
v 12.1 3 -1.6
v 12.2 3 -1.6
v 12.1 3 -1.7
v 12.2 3 -1.7
v 12.3 3 -1.7
v 12.2 3 -1.8
v 12.3 3 -1.8
v 12.4 3 -1.8
v 12.3 3 -2
v 12.4 3 -2
v 12.5 3 -2
v 12.4 3 -2.1
v 12.5 3 -2.1
v 12.6 3 -2.1
v 12.5 3 -2.2
v 12.6 3 -2.2
v 12.7 3 -2.2
v 12.6 3 -2.3
v 12.7 3 -2.3
v 12.8 3 -2.3
v 12.7 3 -2.4
v 12.8 3 -2.4
v 11.8 3 -4
v 12.8 3 -4

# faces
f 11/1/1 2/1/1 1/1/1
f 11/2/1 3/2/1 2/2/1
f 12/1/1 4/1/1 3/1/1
f 12/2/1 3/2/1 11/2/1
f 13/1/1 4/1/1 12/1/1
f 14/1/1 8/1/1 7/1/1
f 15/2/1 9/2/1 8/2/1
f 15/1/1 8/1/1 14/1/1
f 16/1/1 10/1/1 9/1/1
f 16/2/1 9/2/1 15/2/1
f 17/1/1 12/1/1 11/1/1
f 17/2/1 13/2/1 12/2/1
f 18/1/1 4/1/1 13/1/1
f 18/2/1 13/2/1 17/2/1
f 19/1/1 4/1/1 18/1/1
f 20/1/1 4/1/1 19/1/1
f 21/2/1 5/2/1 4/2/1
f 21/1/1 4/1/1 20/1/1
f 22/1/1 6/1/1 5/1/1
f 22/2/1 5/2/1 21/2/1
f 23/2/1 7/2/1 6/2/1
f 23/1/1 6/1/1 22/1/1
f 24/1/1 14/1/1 7/1/1
f 24/2/1 7/2/1 23/2/1
f 25/1/1 14/1/1 24/1/1
f 26/1/1 14/1/1 25/1/1
f 27/2/1 15/2/1 14/2/1
f 27/1/1 14/1/1 26/1/1
f 28/1/1 16/1/1 15/1/1
f 28/2/1 15/2/1 27/2/1
f 29/1/1 18/1/1 17/1/1
f 29/2/1 19/2/1 18/2/1
f 30/1/1 20/1/1 19/1/1
f 30/2/1 19/2/1 29/2/1
f 31/1/1 20/1/1 30/1/1
f 32/1/1 26/1/1 25/1/1
f 33/2/1 27/2/1 26/2/1
f 33/1/1 26/1/1 32/1/1
f 34/1/1 28/1/1 27/1/1
f 34/2/1 27/2/1 33/2/1
f 35/1/1 30/1/1 29/1/1
f 35/2/1 31/2/1 30/2/1
f 36/1/1 20/1/1 31/1/1
f 36/2/1 31/2/1 35/2/1
f 37/1/1 20/1/1 36/1/1
f 38/1/1 20/1/1 37/1/1
f 39/2/1 21/2/1 20/2/1
f 39/1/1 20/1/1 38/1/1
f 40/1/1 23/1/1 22/1/1
f 40/2/1 21/2/1 39/2/1
f 40/1/1 22/1/1 21/1/1
f 40/1/1 24/1/1 23/1/1
f 41/2/1 25/2/1 24/2/1
f 41/1/1 24/1/1 40/1/1
f 42/1/1 32/1/1 25/1/1
f 42/2/1 25/2/1 41/2/1
f 43/1/1 32/1/1 42/1/1
f 44/1/1 32/1/1 43/1/1
f 45/2/1 33/2/1 32/2/1
f 45/1/1 32/1/1 44/1/1
f 46/1/1 34/1/1 33/1/1
f 46/2/1 33/2/1 45/2/1
f 47/2/1 37/2/1 36/2/1
f 47/1/1 36/1/1 35/1/1
f 48/1/1 38/1/1 37/1/1
f 48/2/1 37/2/1 47/2/1
f 49/1/1 38/1/1 48/1/1
f 50/1/1 44/1/1 43/1/1
f 51/2/1 45/2/1 44/2/1
f 51/1/1 44/1/1 50/1/1
f 52/1/1 46/1/1 45/1/1
f 52/2/1 45/2/1 51/2/1
f 53/1/1 48/1/1 47/1/1
f 53/2/1 49/2/1 48/2/1
f 54/1/1 38/1/1 49/1/1
f 54/2/1 49/2/1 53/2/1
f 55/2/1 51/2/1 50/2/1
f 55/1/1 50/1/1 43/1/1
f 56/1/1 52/1/1 51/1/1
f 56/2/1 51/2/1 55/2/1
f 57/1/1 38/1/1 54/1/1
f 57/1/1 54/1/1 53/1/1
f 58/2/1 39/2/1 38/2/1
f 58/1/1 38/1/1 57/1/1
f 59/1/1 41/1/1 40/1/1
f 59/2/1 39/2/1 58/2/1
f 59/1/1 40/1/1 39/1/1
f 59/1/1 42/1/1 41/1/1
f 60/2/1 43/2/1 42/2/1
f 60/1/1 42/1/1 59/1/1
f 61/1/1 55/1/1 43/1/1
f 61/2/1 43/2/1 60/2/1
f 61/1/1 56/1/1 55/1/1
f 62/1/1 56/1/1 61/1/1
f 63/1/1 57/1/1 53/1/1
f 64/2/1 58/2/1 57/2/1
f 64/1/1 57/1/1 63/1/1
f 65/1/1 60/1/1 59/1/1
f 65/2/1 58/2/1 64/2/1
f 65/1/1 59/1/1 58/1/1
f 65/1/1 61/1/1 60/1/1
f 66/2/1 62/2/1 61/2/1
f 66/1/1 61/1/1 65/1/1
f 67/1/1 56/1/1 62/1/1
f 67/2/1 62/2/1 66/2/1
f 68/1/1 56/1/1 67/1/1
f 69/1/1 35/1/1 29/1/1
f 69/1/1 11/1/1 1/1/1
f 69/1/1 29/1/1 17/1/1
f 69/1/1 47/1/1 35/1/1
f 69/1/1 17/1/1 11/1/1
f 69/1/1 63/1/1 53/1/1
f 69/1/1 53/1/1 47/1/1
f 70/2/1 64/2/1 63/2/1
f 70/1/1 63/1/1 69/1/1
f 71/1/1 66/1/1 65/1/1
f 71/2/1 64/2/1 70/2/1
f 71/1/1 67/1/1 66/1/1
f 71/1/1 65/1/1 64/1/1
f 72/2/1 68/2/1 67/2/1
f 72/1/1 67/1/1 71/1/1
f 73/1/1 56/1/1 68/1/1
f 73/2/1 68/2/1 72/2/1
f 74/1/1 52/1/1 56/1/1
f 74/1/1 56/1/1 73/1/1
f 74/1/1 46/1/1 52/1/1
f 74/1/1 16/1/1 28/1/1
f 74/1/1 28/1/1 34/1/1
f 74/1/1 10/1/1 16/1/1
f 74/1/1 34/1/1 46/1/1
f 75/1/2 76/1/2 81/1/2
f 76/2/2 77/2/2 82/2/2
f 81/1/2 76/1/2 82/1/2
f 77/1/2 78/1/2 83/1/2
f 82/2/2 77/2/2 83/2/2
f 78/2/2 79/2/2 84/2/2
f 83/1/2 78/1/2 84/1/2
f 79/1/2 80/1/2 85/1/2
f 84/2/2 79/2/2 85/2/2
f 85/1/2 80/1/2 86/1/2
f 75/1/2 81/1/2 87/1/2
f 81/2/2 82/2/2 88/2/2
f 87/1/2 81/1/2 88/1/2
f 83/1/2 84/1/2 89/1/2
f 88/2/2 82/2/2 89/2/2
f 82/1/2 83/1/2 89/1/2
f 84/1/2 85/1/2 89/1/2
f 85/2/2 86/2/2 90/2/2
f 89/1/2 85/1/2 90/1/2
f 86/1/2 80/1/2 91/1/2
f 90/2/2 86/2/2 91/2/2
f 91/1/2 80/1/2 92/1/2
f 75/1/2 87/1/2 93/1/2
f 87/2/2 88/2/2 94/2/2
f 93/1/2 87/1/2 94/1/2
f 89/1/2 90/1/2 95/1/2
f 94/2/2 88/2/2 95/2/2
f 88/1/2 89/1/2 95/1/2
f 90/1/2 91/1/2 95/1/2
f 91/2/2 92/2/2 96/2/2
f 95/1/2 91/1/2 96/1/2
f 92/1/2 80/1/2 97/1/2
f 96/2/2 92/2/2 97/2/2
f 97/1/2 80/1/2 98/1/2
f 93/2/2 94/2/2 99/2/2
f 95/1/2 96/1/2 100/1/2
f 99/2/2 94/2/2 100/2/2
f 94/1/2 95/1/2 100/1/2
f 96/1/2 97/1/2 100/1/2
f 97/2/2 98/2/2 101/2/2
f 100/1/2 97/1/2 101/1/2
f 101/2/2 98/2/2 102/2/2
f 99/1/2 100/1/2 103/1/2
f 100/1/2 101/1/2 103/1/2
f 101/1/2 102/1/2 103/1/2
f 103/1/2 102/1/2 104/1/2
f 104/1/2 102/1/2 105/1/2
f 105/1/2 102/1/2 106/1/2
f 99/1/2 103/1/2 107/1/2
f 103/2/2 104/2/2 108/2/2
f 107/1/2 103/1/2 108/1/2
f 104/1/2 105/1/2 109/1/2
f 108/2/2 104/2/2 109/2/2
f 105/2/2 106/2/2 110/2/2
f 109/1/2 105/1/2 110/1/2
f 106/1/2 102/1/2 111/1/2
f 110/2/2 106/2/2 111/2/2
f 111/1/2 102/1/2 112/1/2
f 115/1/3 114/1/3 113/1/3
f 116/1/3 114/1/3 115/1/3
f 117/1/3 115/1/3 113/1/3
f 118/2/3 116/2/3 115/2/3
f 118/1/3 115/1/3 117/1/3
f 119/1/3 114/1/3 116/1/3
f 119/2/3 116/2/3 118/2/3
f 120/1/3 114/1/3 119/1/3
f 121/1/4 122/1/4 123/1/4
f 123/1/4 122/1/4 124/1/4
f 121/1/4 123/1/4 125/1/4
f 123/2/4 124/2/4 126/2/4
f 125/1/4 123/1/4 126/1/4
f 124/1/4 122/1/4 127/1/4
f 126/2/4 124/2/4 127/2/4
f 127/1/4 122/1/4 128/1/4
f 131/1/5 130/1/5 129/1/5
f 132/1/5 130/1/5 131/1/5
f 133/2/5 132/2/5 131/2/5
f 134/1/5 130/1/5 132/1/5
f 134/2/5 132/2/5 133/2/5
f 135/1/5 134/1/5 133/1/5
f 135/1/5 130/1/5 134/1/5
f 136/1/5 130/1/5 135/1/5
f 137/1/5 135/1/5 133/1/5
f 137/2/5 136/2/5 135/2/5
f 138/2/5 136/2/5 137/2/5
f 139/1/5 137/1/5 133/1/5
f 139/1/5 138/1/5 137/1/5
f 140/1/5 138/1/5 139/1/5
f 141/2/5 140/2/5 139/2/5
f 142/1/5 138/1/5 140/1/5
f 142/2/5 140/2/5 141/2/5
f 143/1/5 142/1/5 141/1/5
f 144/1/5 138/1/5 142/1/5
f 144/1/5 142/1/5 143/1/5
f 145/2/5 144/2/5 143/2/5
f 146/1/5 138/1/5 144/1/5
f 146/2/5 144/2/5 145/2/5
f 147/1/5 146/1/5 145/1/5
f 147/1/5 138/1/5 146/1/5
f 148/1/5 138/1/5 147/1/5
f 149/1/5 147/1/5 145/1/5
f 149/2/5 148/2/5 147/2/5
f 150/2/5 148/2/5 149/2/5
f 151/1/5 149/1/5 145/1/5
f 151/1/5 150/1/5 149/1/5
f 152/1/5 150/1/5 151/1/5
f 153/2/5 152/2/5 151/2/5
f 154/1/5 150/1/5 152/1/5
f 154/2/5 152/2/5 153/2/5
f 155/1/5 154/1/5 153/1/5
f 156/1/5 150/1/5 154/1/5
f 156/1/5 154/1/5 155/1/5
f 157/1/6 158/1/6 159/1/6
f 159/1/6 158/1/6 160/1/6
f 157/1/6 159/1/6 161/1/6
f 159/2/6 160/2/6 162/2/6
f 161/1/6 159/1/6 162/1/6
f 162/2/6 160/2/6 163/2/6
f 157/1/6 161/1/6 164/1/6
f 161/2/6 162/2/6 165/2/6
f 164/1/6 161/1/6 165/1/6
f 162/1/6 163/1/6 166/1/6
f 165/2/6 162/2/6 166/2/6
f 157/1/6 164/1/6 167/1/6
f 164/2/6 165/2/6 168/2/6
f 167/1/6 164/1/6 168/1/6
f 165/1/6 166/1/6 169/1/6
f 168/2/6 165/2/6 169/2/6
f 157/1/6 167/1/6 170/1/6
f 167/2/6 168/2/6 171/2/6
f 170/1/6 167/1/6 171/1/6
f 168/1/6 169/1/6 172/1/6
f 171/2/6 168/2/6 172/2/6
f 157/1/6 170/1/6 173/1/6
f 170/2/6 171/2/6 174/2/6
f 173/1/6 170/1/6 174/1/6
f 171/1/6 172/1/6 175/1/6
f 174/2/6 171/2/6 175/2/6
f 157/1/6 173/1/6 176/1/6
f 173/2/6 174/2/6 177/2/6
f 176/1/6 173/1/6 177/1/6
f 174/1/6 175/1/6 178/1/6
f 177/2/6 174/2/6 178/2/6
f 157/1/6 176/1/6 179/1/6
f 176/2/6 177/2/6 180/2/6
f 179/1/6 176/1/6 180/1/6
f 177/1/6 178/1/6 181/1/6
f 180/2/6 177/2/6 181/2/6
f 157/1/6 179/1/6 182/1/6
f 179/2/6 180/2/6 183/2/6
f 182/1/6 179/1/6 183/1/6
f 180/1/6 181/1/6 184/1/6
f 183/2/6 180/2/6 184/2/6
f 157/1/6 182/1/6 185/1/6
f 182/2/6 183/2/6 186/2/6
f 185/1/6 182/1/6 186/1/6
f 183/1/6 184/1/6 187/1/6
f 186/2/6 183/2/6 187/2/6
f 185/2/6 186/2/6 188/2/6
f 186/1/6 187/1/6 189/1/6
f 188/2/6 186/2/6 189/2/6
f 188/1/6 189/1/6 190/1/6
f 189/1/6 187/1/6 191/1/6
f 190/1/6 189/1/6 191/1/6
f 190/2/6 191/2/6 192/2/6
f 191/1/6 187/1/6 193/1/6
f 192/2/6 191/2/6 193/2/6
f 187/1/6 184/1/6 194/1/6
f 193/1/6 187/1/6 194/1/6
f 192/1/6 193/1/6 195/1/6
f 193/2/6 194/2/6 195/2/6
f 194/1/6 184/1/6 196/1/6
f 195/2/6 194/2/6 196/2/6
f 184/1/6 181/1/6 197/1/6
f 196/1/6 184/1/6 197/1/6
f 195/1/6 196/1/6 198/1/6
f 196/2/6 197/2/6 198/2/6
f 197/1/6 181/1/6 199/1/6
f 198/2/6 197/2/6 199/2/6
f 181/1/6 178/1/6 200/1/6
f 199/1/6 181/1/6 200/1/6
f 198/1/6 199/1/6 201/1/6
f 199/2/6 200/2/6 201/2/6
f 200/1/6 178/1/6 202/1/6
f 201/2/6 200/2/6 202/2/6
f 178/1/6 175/1/6 203/1/6
f 202/1/6 178/1/6 203/1/6
f 201/1/6 202/1/6 204/1/6
f 202/2/6 203/2/6 204/2/6
f 203/1/6 175/1/6 205/1/6
f 204/2/6 203/2/6 205/2/6
f 175/1/6 172/1/6 206/1/6
f 205/1/6 175/1/6 206/1/6
f 204/1/6 205/1/6 207/1/6
f 205/2/6 206/2/6 207/2/6
f 206/1/6 172/1/6 208/1/6
f 207/2/6 206/2/6 208/2/6
f 172/1/6 169/1/6 209/1/6
f 208/1/6 172/1/6 209/1/6
f 207/1/6 208/1/6 210/1/6
f 208/2/6 209/2/6 210/2/6
f 209/1/6 169/1/6 211/1/6
f 210/2/6 209/2/6 211/2/6
f 169/1/6 166/1/6 212/1/6
f 211/1/6 169/1/6 212/1/6
f 210/1/6 211/1/6 213/1/6
f 211/2/6 212/2/6 213/2/6
f 212/1/6 166/1/6 214/1/6
f 213/2/6 212/2/6 214/2/6
f 166/1/6 163/1/6 215/1/6
f 214/1/6 166/1/6 215/1/6
f 213/1/6 214/1/6 216/1/6
f 214/2/6 215/2/6 216/2/6
f 215/1/6 163/1/6 217/1/6
f 216/2/6 215/2/6 217/2/6
f 217/1/6 163/1/6 218/1/6
f 216/1/6 217/1/6 219/1/6
f 217/2/6 218/2/6 219/2/6
f 219/2/6 218/2/6 220/2/6
f 213/1/6 216/1/6 221/1/6
f 210/1/6 213/1/6 221/1/6
f 219/1/6 220/1/6 221/1/6
f 216/1/6 219/1/6 221/1/6
f 207/1/6 210/1/6 221/1/6
f 204/1/6 207/1/6 221/1/6
f 201/1/6 204/1/6 221/1/6
f 198/1/6 201/1/6 221/1/6
f 192/1/6 195/1/6 221/1/6
f 195/1/6 198/1/6 221/1/6
f 221/1/6 220/1/6 222/1/6
