# MagicaVoxel @ Ephtracy

# group
o 

# material
mtllib stadium-large-complex-0.mtl
usemtl palette

# normals
vn -1 0 0
vn 1 0 0
vn 0 0 1
vn 0 0 -1
vn 0 -1 0
vn 0 1 0

# texcoords
vt 0.970703 0.5
vt 0.974609 0.5
vt 0.978516 0.5
vt 0.982422 0.5

# verts
v 11.8 8 4
v 11.8 8 3.9
v 11.8 8 3.3
v 11.8 8 3.2
v 11.8 8 1.5
v 11.8 8 1.4
v 11.8 8 0.5
v 11.8 8 0.4
v 11.8 8 -0.4
v 11.8 8 -0.5
v 11.8 8 -1.4
v 11.8 8 -1.5
v 11.8 8 -3.2
v 11.8 8 -3.3
v 11.8 8 -3.9
v 11.8 8 -4
v 11.8 8.1 4
v 11.8 8.1 3.9
v 11.8 8.1 3.7
v 11.8 8.1 3.3
v 11.8 8.1 3.2
v 11.8 8.1 3.1
v 11.8 8.1 1.5
v 11.8 8.1 1.4
v 11.8 8.1 1.3
v 11.8 8.1 0.5
v 11.8 8.1 0.4
v 11.8 8.1 0.3
v 11.8 8.1 -0.3
v 11.8 8.1 -0.4
v 11.8 8.1 -0.5
v 11.8 8.1 -1.3
v 11.8 8.1 -1.4
v 11.8 8.1 -1.5
v 11.8 8.1 -3.1
v 11.8 8.1 -3.2
v 11.8 8.1 -3.3
v 11.8 8.1 -3.7
v 11.8 8.1 -3.9
v 11.8 8.1 -4
v 11.8 8.2 3.9
v 11.8 8.2 3.7
v 11.8 8.2 3.5
v 11.8 8.2 3.2
v 11.8 8.2 3.1
v 11.8 8.2 3
v 11.8 8.2 1.4
v 11.8 8.2 1.3
v 11.8 8.2 1.2
v 11.8 8.2 0.4
v 11.8 8.2 0.3
v 11.8 8.2 0.0999999
v 11.8 8.2 -0.1
v 11.8 8.2 -0.3
v 11.8 8.2 -0.4
v 11.8 8.2 -1.2
v 11.8 8.2 -1.3
v 11.8 8.2 -1.4
v 11.8 8.2 -3
v 11.8 8.2 -3.1
v 11.8 8.2 -3.2
v 11.8 8.2 -3.5
v 11.8 8.2 -3.7
v 11.8 8.2 -3.9
v 11.8 8.3 3.7
v 11.8 8.3 3.5
v 11.8 8.3 3.3
v 11.8 8.3 3.1
v 11.8 8.3 3
v 11.8 8.3 2.9
v 11.8 8.3 1.3
v 11.8 8.3 1.2
v 11.8 8.3 1.1
v 11.8 8.3 0.3
v 11.8 8.3 0.0999999
v 11.8 8.3 -0.1
v 11.8 8.3 -0.3
v 11.8 8.3 -1.1
v 11.8 8.3 -1.2
v 11.8 8.3 -1.3
v 11.8 8.3 -2.9
v 11.8 8.3 -3
v 11.8 8.3 -3.1
v 11.8 8.3 -3.3
v 11.8 8.3 -3.5
v 11.8 8.3 -3.7
v 11.8 8.4 3.5
v 11.8 8.4 3.3
v 11.8 8.4 3.1
v 11.8 8.4 3
v 11.8 8.4 2.9
v 11.8 8.4 2.8
v 11.8 8.4 1.2
v 11.8 8.4 1.1
v 11.8 8.4 1
v 11.8 8.4 -1
v 11.8 8.4 -1.1
v 11.8 8.4 -1.2
v 11.8 8.4 -2.8
v 11.8 8.4 -2.9
v 11.8 8.4 -3
v 11.8 8.4 -3.1
v 11.8 8.4 -3.3
v 11.8 8.4 -3.5
v 11.8 8.5 3.3
v 11.8 8.5 3.1
v 11.8 8.5 2.9
v 11.8 8.5 1.1
v 11.8 8.5 1
v 11.8 8.5 0.9
v 11.8 8.5 0.2
v 11.8 8.5 0.0999999
v 11.8 8.5 -0.1
v 11.8 8.5 -0.2
v 11.8 8.5 -0.9
v 11.8 8.5 -1
v 11.8 8.5 -1.1
v 11.8 8.5 -2.9
v 11.8 8.5 -3.1
v 11.8 8.5 -3.3
v 11.8 8.6 3.1
v 11.8 8.6 2.9
v 11.8 8.6 2.8
v 11.8 8.6 2.7
v 11.8 8.6 0.3
v 11.8 8.6 0.2
v 11.8 8.6 0.0999999
v 11.8 8.6 -0.1
v 11.8 8.6 -0.2
v 11.8 8.6 -0.3
v 11.8 8.6 -2.7
v 11.8 8.6 -2.8
v 11.8 8.6 -2.9
v 11.8 8.6 -3.1
v 11.8 8.7 2.9
v 11.8 8.7 2.8
v 11.8 8.7 2.7
v 11.8 8.7 2.5
v 11.8 8.7 1
v 11.8 8.7 0.9
v 11.8 8.7 0.8
v 11.8 8.7 0.4
v 11.8 8.7 0.3
v 11.8 8.7 0.2
v 11.8 8.7 -0.2
v 11.8 8.7 -0.3
v 11.8 8.7 -0.4
v 11.8 8.7 -0.8
v 11.8 8.7 -0.9
v 11.8 8.7 -1
v 11.8 8.7 -2.5
v 11.8 8.7 -2.7
v 11.8 8.7 -2.8
v 11.8 8.7 -2.9
v 11.8 8.8 2.8
v 11.8 8.8 2.7
v 11.8 8.8 2.6
v 11.8 8.8 2.5
v 11.8 8.8 2.3
v 11.8 8.8 0.5
v 11.8 8.8 0.4
v 11.8 8.8 0.3
v 11.8 8.8 -0.3
v 11.8 8.8 -0.4
v 11.8 8.8 -0.5
v 11.8 8.8 -2.3
v 11.8 8.8 -2.5
v 11.8 8.8 -2.6
v 11.8 8.8 -2.7
v 11.8 8.8 -2.8
v 11.8 8.9 2.7
v 11.8 8.9 2.6
v 11.8 8.9 2.5
v 11.8 8.9 2.3
v 11.8 8.9 2.2
v 11.8 8.9 0.9
v 11.8 8.9 0.8
v 11.8 8.9 0.7
v 11.8 8.9 0.5
v 11.8 8.9 0.0999999
v 11.8 8.9 -0.1
v 11.8 8.9 -0.5
v 11.8 8.9 -0.7
v 11.8 8.9 -0.8
v 11.8 8.9 -0.9
v 11.8 8.9 -2.2
v 11.8 8.9 -2.3
v 11.8 8.9 -2.5
v 11.8 8.9 -2.6
v 11.8 8.9 -2.7
v 11.8 9 4
v 11.8 9 2.6
v 11.8 9 2.5
v 11.8 9 2.3
v 11.8 9 2.2
v 11.8 9 0.8
v 11.8 9 0.7
v 11.8 9 0.4
v 11.8 9 0.0999999
v 11.8 9 -0.1
v 11.8 9 -0.4
v 11.8 9 -0.7
v 11.8 9 -0.8
v 11.8 9 -2.2
v 11.8 9 -2.3
v 11.8 9 -2.5
v 11.8 9 -2.6
v 11.8 9 -4
v 12.8 8 4
v 12.8 8 0.3
v 12.8 8 0.2
v 12.8 8 -0.2
v 12.8 8 -0.3
v 12.8 8 -4
v 12.8 8.1 0.4
v 12.8 8.1 0.3
v 12.8 8.1 0.2
v 12.8 8.1 -0.2
v 12.8 8.1 -0.3
v 12.8 8.1 -0.4
v 12.8 8.2 4
v 12.8 8.2 3.7
v 12.8 8.2 0.5
v 12.8 8.2 0.4
v 12.8 8.2 -0.4
v 12.8 8.2 -0.5
v 12.8 8.2 -3.7
v 12.8 8.2 -4
v 12.8 8.3 4
v 12.8 8.3 3.7
v 12.8 8.3 3.5
v 12.8 8.3 0.6
v 12.8 8.3 0.5
v 12.8 8.3 0.3
v 12.8 8.3 -0.3
v 12.8 8.3 -0.5
v 12.8 8.3 -0.6
v 12.8 8.3 -3.5
v 12.8 8.3 -3.7
v 12.8 8.3 -4
v 12.8 8.4 3.7
v 12.8 8.4 3.5
v 12.8 8.4 3
v 12.8 8.4 -3
v 12.8 8.4 -3.5
v 12.8 8.4 -3.7
v 12.8 8.5 3.5
v 12.8 8.5 3
v 12.8 8.5 2.8
v 12.8 8.5 -2.8
v 12.8 8.5 -3
v 12.8 8.5 -3.5
v 12.8 8.6 3
v 12.8 8.6 2.8
v 12.8 8.6 2.3
v 12.8 8.6 1.6
v 12.8 8.6 1.5
v 12.8 8.6 1.1
v 12.8 8.6 1
v 12.8 8.6 -1
v 12.8 8.6 -1.1
v 12.8 8.6 -1.5
v 12.8 8.6 -1.6
v 12.8 8.6 -2.3
v 12.8 8.6 -2.8
v 12.8 8.6 -3
v 12.8 8.7 2.8
v 12.8 8.7 2.3
v 12.8 8.7 2.1
v 12.8 8.7 1.6
v 12.8 8.7 1.5
v 12.8 8.7 1.1
v 12.8 8.7 1
v 12.8 8.7 0.7
v 12.8 8.7 0.6
v 12.8 8.7 0.5
v 12.8 8.7 -0.5
v 12.8 8.7 -0.6
v 12.8 8.7 -0.7
v 12.8 8.7 -1
v 12.8 8.7 -1.1
v 12.8 8.7 -1.5
v 12.8 8.7 -1.6
v 12.8 8.7 -2.1
v 12.8 8.7 -2.3
v 12.8 8.7 -2.8
v 12.8 8.8 2.3
v 12.8 8.8 2.1
v 12.8 8.8 1.8
v 12.8 8.8 0.8
v 12.8 8.8 0.7
v 12.8 8.8 0.6
v 12.8 8.8 -0.6
v 12.8 8.8 -0.7
v 12.8 8.8 -0.8
v 12.8 8.8 -1.8
v 12.8 8.8 -2.1
v 12.8 8.8 -2.3
v 12.8 8.9 2.1
v 12.8 8.9 1.8
v 12.8 8.9 1.4
v 12.8 8.9 1.1
v 12.8 8.9 1
v 12.8 8.9 -1
v 12.8 8.9 -1.1
v 12.8 8.9 -1.4
v 12.8 8.9 -1.8
v 12.8 8.9 -2.1
v 12.8 9 4
v 12.8 9 1.8
v 12.8 9 1.4
v 12.8 9 1.1
v 12.8 9 1
v 12.8 9 0.8
v 12.8 9 0.7
v 12.8 9 -0.7
v 12.8 9 -0.8
v 12.8 9 -1
v 12.8 9 -1.1
v 12.8 9 -1.4
v 12.8 9 -1.8
v 12.8 9 -4
v 11.8 8 4
v 11.8 8.1 4
v 11.8 9 4
v 11.9 8 4
v 11.9 8.1 4
v 12.7 8.2 4
v 12.7 8.3 4
v 12.8 8 4
v 12.8 8.2 4
v 12.8 8.3 4
v 12.8 9 4
v 11.8 8 -4
v 11.8 8.1 -4
v 11.8 9 -4
v 11.9 8 -4
v 11.9 8.1 -4
v 12.7 8.2 -4
v 12.7 8.3 -4
v 12.8 8 -4
v 12.8 8.2 -4
v 12.8 8.3 -4
v 12.8 9 -4
v 11.8 8 4
v 11.9 8 4
v 12.8 8 4
v 11.8 8 3.9
v 11.9 8 3.9
v 11.8 8 3.3
v 11.9 8 3.3
v 11.8 8 3.2
v 11.9 8 3.2
v 11.8 8 1.5
v 11.9 8 1.5
v 11.8 8 1.4
v 11.9 8 1.4
v 11.8 8 0.5
v 11.9 8 0.5
v 11.8 8 0.4
v 11.9 8 0.4
v 12.7 8 0.3
v 12.8 8 0.3
v 12.7 8 0.2
v 12.8 8 0.2
v 12.7 8 -0.2
v 12.8 8 -0.2
v 12.7 8 -0.3
v 12.8 8 -0.3
v 11.8 8 -0.4
v 11.9 8 -0.4
v 11.8 8 -0.5
v 11.9 8 -0.5
v 11.8 8 -1.4
v 11.9 8 -1.4
v 11.8 8 -1.5
v 11.9 8 -1.5
v 11.8 8 -3.2
v 11.9 8 -3.2
v 11.8 8 -3.3
v 11.9 8 -3.3
v 11.8 8 -3.9
v 11.9 8 -3.9
v 11.8 8 -4
v 11.9 8 -4
v 12.8 8 -4
v 11.8 9 4
v 12.8 9 4
v 11.8 9 2.6
v 11.9 9 2.6
v 11.8 9 2.5
v 11.9 9 2.5
v 12 9 2.5
v 12 9 2.4
v 12.6 9 2.4
v 11.8 9 2.3
v 11.9 9 2.3
v 12 9 2.3
v 12.6 9 2.3
v 11.8 9 2.2
v 12 9 2.2
v 12.1 9 2.2
v 12 9 2.1
v 12.1 9 2.1
v 12.2 9 2.1
v 12.1 9 2
v 12.2 9 2
v 12.7 9 1.8
v 12.8 9 1.8
v 12.7 9 1.4
v 12.8 9 1.4
v 12.7 9 1.1
v 12.8 9 1.1
v 12.1 9 1
v 12.2 9 1
v 12.7 9 1
v 12.8 9 1
v 12 9 0.9
v 12.1 9 0.9
v 12.2 9 0.9
v 12.3 9 0.9
v 12.4 9 0.9
v 12.5 9 0.9
v 11.8 9 0.8
v 12 9 0.8
v 12.1 9 0.8
v 12.3 9 0.8
v 12.4 9 0.8
v 12.5 9 0.8
v 12.8 9 0.8
v 11.8 9 0.7
v 12 9 0.7
v 12.2 9 0.7
v 12.4 9 0.7
v 12.8 9 0.7
v 11.9 9 0.6
v 12.1 9 0.6
v 12.2 9 0.6
v 12.4 9 0.6
v 11.8 9 0.4
v 11.9 9 0.4
v 12.1 9 0.4
v 12.1 9 0.3
v 12.2 9 0.3
v 11.8 9 0.0999999
v 11.9 9 0.0999999
v 11.8 9 -0.1
v 11.9 9 -0.1
v 12.1 9 -0.3
v 12.2 9 -0.3
v 11.8 9 -0.4
v 11.9 9 -0.4
v 12.1 9 -0.4
v 11.9 9 -0.6
v 12.1 9 -0.6
v 12.2 9 -0.6
v 12.4 9 -0.6
v 11.8 9 -0.7
v 12 9 -0.7
v 12.2 9 -0.7
v 12.4 9 -0.7
v 12.8 9 -0.7
v 11.8 9 -0.8
v 12 9 -0.8
v 12.1 9 -0.8
v 12.3 9 -0.8
v 12.4 9 -0.8
v 12.5 9 -0.8
v 12.8 9 -0.8
v 12 9 -0.9
v 12.1 9 -0.9
v 12.2 9 -0.9
v 12.3 9 -0.9
v 12.4 9 -0.9
v 12.5 9 -0.9
v 12.1 9 -1
v 12.2 9 -1
v 12.7 9 -1
v 12.8 9 -1
v 12.7 9 -1.1
v 12.8 9 -1.1
v 12.7 9 -1.4
v 12.8 9 -1.4
v 12.7 9 -1.8
v 12.8 9 -1.8
v 12.1 9 -2
v 12.2 9 -2
v 12 9 -2.1
v 12.1 9 -2.1
v 12.2 9 -2.1
v 11.8 9 -2.2
v 12 9 -2.2
v 12.1 9 -2.2
v 11.8 9 -2.3
v 11.9 9 -2.3
v 12 9 -2.3
v 12.6 9 -2.3
v 12 9 -2.4
v 12.6 9 -2.4
v 11.8 9 -2.5
v 11.9 9 -2.5
v 12 9 -2.5
v 11.8 9 -2.6
v 11.9 9 -2.6
v 11.8 9 -4
v 12.8 9 -4

# faces
f 17/4/1 2/4/1 1/4/1
f 18/1/1 3/1/1 2/1/1
f 18/4/1 2/4/1 17/4/1
f 19/1/1 3/1/1 18/1/1
f 20/3/1 4/3/1 3/3/1
f 20/1/1 3/1/1 19/1/1
f 21/1/1 5/1/1 4/1/1
f 21/3/1 4/3/1 20/3/1
f 22/1/1 5/1/1 21/1/1
f 23/4/1 6/4/1 5/4/1
f 23/1/1 5/1/1 22/1/1
f 24/1/1 7/1/1 6/1/1
f 24/4/1 6/4/1 23/4/1
f 25/1/1 7/1/1 24/1/1
f 26/3/1 8/3/1 7/3/1
f 26/1/1 7/1/1 25/1/1
f 27/1/1 9/1/1 8/1/1
f 27/3/1 8/3/1 26/3/1
f 28/1/1 9/1/1 27/1/1
f 29/1/1 9/1/1 28/1/1
f 30/3/1 10/3/1 9/3/1
f 30/1/1 9/1/1 29/1/1
f 31/1/1 11/1/1 10/1/1
f 31/3/1 10/3/1 30/3/1
f 32/1/1 11/1/1 31/1/1
f 33/4/1 12/4/1 11/4/1
f 33/1/1 11/1/1 32/1/1
f 34/1/1 13/1/1 12/1/1
f 34/4/1 12/4/1 33/4/1
f 35/1/1 13/1/1 34/1/1
f 36/3/1 14/3/1 13/3/1
f 36/1/1 13/1/1 35/1/1
f 37/1/1 15/1/1 14/1/1
f 37/3/1 14/3/1 36/3/1
f 38/1/1 15/1/1 37/1/1
f 39/4/1 16/4/1 15/4/1
f 39/1/1 15/1/1 38/1/1
f 40/4/1 16/4/1 39/4/1
f 41/4/1 19/4/1 18/4/1
f 41/1/1 18/1/1 17/1/1
f 42/1/1 20/1/1 19/1/1
f 42/4/1 19/4/1 41/4/1
f 42/1/1 21/1/1 20/1/1
f 43/1/1 21/1/1 42/1/1
f 44/3/1 22/3/1 21/3/1
f 44/1/1 21/1/1 43/1/1
f 45/1/1 23/1/1 22/1/1
f 45/3/1 22/3/1 44/3/1
f 45/1/1 24/1/1 23/1/1
f 46/1/1 24/1/1 45/1/1
f 47/4/1 25/4/1 24/4/1
f 47/1/1 24/1/1 46/1/1
f 48/1/1 26/1/1 25/1/1
f 48/4/1 25/4/1 47/4/1
f 48/1/1 27/1/1 26/1/1
f 49/1/1 27/1/1 48/1/1
f 50/3/1 28/3/1 27/3/1
f 50/1/1 27/1/1 49/1/1
f 51/1/1 29/1/1 28/1/1
f 51/3/1 28/3/1 50/3/1
f 52/1/1 29/1/1 51/1/1
f 53/1/1 29/1/1 52/1/1
f 54/3/1 30/3/1 29/3/1
f 54/1/1 29/1/1 53/1/1
f 55/1/1 32/1/1 31/1/1
f 55/3/1 30/3/1 54/3/1
f 55/1/1 31/1/1 30/1/1
f 56/1/1 32/1/1 55/1/1
f 57/4/1 33/4/1 32/4/1
f 57/1/1 32/1/1 56/1/1
f 58/1/1 35/1/1 34/1/1
f 58/4/1 33/4/1 57/4/1
f 58/1/1 34/1/1 33/1/1
f 59/1/1 35/1/1 58/1/1
f 60/3/1 36/3/1 35/3/1
f 60/1/1 35/1/1 59/1/1
f 61/1/1 38/1/1 37/1/1
f 61/3/1 36/3/1 60/3/1
f 61/1/1 37/1/1 36/1/1
f 62/1/1 38/1/1 61/1/1
f 63/4/1 39/4/1 38/4/1
f 63/1/1 38/1/1 62/1/1
f 64/1/1 40/1/1 39/1/1
f 64/4/1 39/4/1 63/4/1
f 65/4/1 43/4/1 42/4/1
f 65/1/1 42/1/1 41/1/1
f 66/1/1 44/1/1 43/1/1
f 66/4/1 43/4/1 65/4/1
f 66/1/1 45/1/1 44/1/1
f 67/1/1 45/1/1 66/1/1
f 68/3/1 46/3/1 45/3/1
f 68/1/1 45/1/1 67/1/1
f 69/1/1 47/1/1 46/1/1
f 69/3/1 46/3/1 68/3/1
f 69/1/1 48/1/1 47/1/1
f 70/1/1 48/1/1 69/1/1
f 71/4/1 49/4/1 48/4/1
f 71/1/1 48/1/1 70/1/1
f 72/1/1 50/1/1 49/1/1
f 72/4/1 49/4/1 71/4/1
f 72/1/1 51/1/1 50/1/1
f 73/1/1 51/1/1 72/1/1
f 74/3/1 52/3/1 51/3/1
f 74/1/1 51/1/1 73/1/1
f 75/1/1 53/1/1 52/1/1
f 75/3/1 52/3/1 74/3/1
f 76/3/1 54/3/1 53/3/1
f 76/1/1 53/1/1 75/1/1
f 77/1/1 56/1/1 55/1/1
f 77/3/1 54/3/1 76/3/1
f 77/1/1 55/1/1 54/1/1
f 78/1/1 56/1/1 77/1/1
f 79/4/1 57/4/1 56/4/1
f 79/1/1 56/1/1 78/1/1
f 80/1/1 59/1/1 58/1/1
f 80/4/1 57/4/1 79/4/1
f 80/1/1 58/1/1 57/1/1
f 81/1/1 59/1/1 80/1/1
f 82/3/1 60/3/1 59/3/1
f 82/1/1 59/1/1 81/1/1
f 83/1/1 62/1/1 61/1/1
f 83/3/1 60/3/1 82/3/1
f 83/1/1 61/1/1 60/1/1
f 84/1/1 62/1/1 83/1/1
f 85/4/1 63/4/1 62/4/1
f 85/1/1 62/1/1 84/1/1
f 86/1/1 64/1/1 63/1/1
f 86/4/1 63/4/1 85/4/1
f 87/4/1 67/4/1 66/4/1
f 87/1/1 66/1/1 65/1/1
f 88/1/1 68/1/1 67/1/1
f 88/4/1 67/4/1 87/4/1
f 88/1/1 69/1/1 68/1/1
f 89/1/1 69/1/1 88/1/1
f 90/3/1 70/3/1 69/3/1
f 90/1/1 69/1/1 89/1/1
f 91/1/1 71/1/1 70/1/1
f 91/3/1 70/3/1 90/3/1
f 91/1/1 72/1/1 71/1/1
f 92/1/1 72/1/1 91/1/1
f 93/4/1 73/4/1 72/4/1
f 93/1/1 72/1/1 92/1/1
f 94/1/1 74/1/1 73/1/1
f 94/4/1 73/4/1 93/4/1
f 94/1/1 75/1/1 74/1/1
f 95/1/1 75/1/1 94/1/1
f 96/1/1 78/1/1 77/1/1
f 96/1/1 77/1/1 76/1/1
f 97/4/1 79/4/1 78/4/1
f 97/1/1 78/1/1 96/1/1
f 98/1/1 81/1/1 80/1/1
f 98/4/1 79/4/1 97/4/1
f 98/1/1 80/1/1 79/1/1
f 99/1/1 81/1/1 98/1/1
f 100/3/1 82/3/1 81/3/1
f 100/1/1 81/1/1 99/1/1
f 101/1/1 84/1/1 83/1/1
f 101/3/1 82/3/1 100/3/1
f 101/1/1 83/1/1 82/1/1
f 102/1/1 84/1/1 101/1/1
f 103/4/1 85/4/1 84/4/1
f 103/1/1 84/1/1 102/1/1
f 104/1/1 86/1/1 85/1/1
f 104/4/1 85/4/1 103/4/1
f 105/4/1 89/4/1 88/4/1
f 105/1/1 88/1/1 87/1/1
f 106/1/1 90/1/1 89/1/1
f 106/4/1 89/4/1 105/4/1
f 106/1/1 91/1/1 90/1/1
f 107/3/1 92/3/1 91/3/1
f 107/1/1 91/1/1 106/1/1
f 108/1/1 93/1/1 92/1/1
f 108/1/1 94/1/1 93/1/1
f 108/4/1 95/4/1 94/4/1
f 109/1/1 75/1/1 95/1/1
f 109/4/1 95/4/1 108/4/1
f 110/1/1 75/1/1 109/1/1
f 111/1/1 75/1/1 110/1/1
f 112/3/1 76/3/1 75/3/1
f 112/1/1 75/1/1 111/1/1
f 113/1/1 96/1/1 76/1/1
f 113/3/1 76/3/1 112/3/1
f 114/1/1 96/1/1 113/1/1
f 115/1/1 96/1/1 114/1/1
f 116/4/1 97/4/1 96/4/1
f 116/1/1 96/1/1 115/1/1
f 117/1/1 99/1/1 98/1/1
f 117/4/1 97/4/1 116/4/1
f 117/1/1 98/1/1 97/1/1
f 118/1/1 101/1/1 100/1/1
f 118/3/1 100/3/1 99/3/1
f 118/1/1 102/1/1 101/1/1
f 119/4/1 103/4/1 102/4/1
f 119/1/1 102/1/1 118/1/1
f 120/1/1 104/1/1 103/1/1
f 120/4/1 103/4/1 119/4/1
f 121/4/1 107/4/1 106/4/1
f 121/1/1 106/1/1 105/1/1
f 122/3/1 92/3/1 107/3/1
f 122/4/1 107/4/1 121/4/1
f 123/1/1 108/1/1 92/1/1
f 123/3/1 92/3/1 122/3/1
f 123/1/1 109/1/1 108/1/1
f 124/1/1 109/1/1 123/1/1
f 125/1/1 111/1/1 110/1/1
f 126/3/1 112/3/1 111/3/1
f 126/1/1 111/1/1 125/1/1
f 127/1/1 113/1/1 112/1/1
f 127/3/1 112/3/1 126/3/1
f 128/3/1 114/3/1 113/3/1
f 128/1/1 113/1/1 127/1/1
f 129/1/1 115/1/1 114/1/1
f 129/3/1 114/3/1 128/3/1
f 130/1/1 115/1/1 129/1/1
f 131/1/1 99/1/1 117/1/1
f 131/1/1 117/1/1 116/1/1
f 132/3/1 118/3/1 99/3/1
f 132/1/1 99/1/1 131/1/1
f 133/4/1 119/4/1 118/4/1
f 133/3/1 118/3/1 132/3/1
f 134/1/1 120/1/1 119/1/1
f 134/4/1 119/4/1 133/4/1
f 135/1/1 122/1/1 121/1/1
f 135/4/1 123/4/1 122/4/1
f 135/4/1 124/4/1 123/4/1
f 136/4/1 124/4/1 135/4/1
f 137/1/1 109/1/1 124/1/1
f 137/4/1 124/4/1 136/4/1
f 138/1/1 109/1/1 137/1/1
f 139/4/1 110/4/1 109/4/1
f 139/1/1 109/1/1 138/1/1
f 140/1/1 125/1/1 110/1/1
f 140/4/1 110/4/1 139/4/1
f 141/1/1 125/1/1 140/1/1
f 142/1/1 125/1/1 141/1/1
f 143/3/1 126/3/1 125/3/1
f 143/1/1 125/1/1 142/1/1
f 144/1/1 128/1/1 127/1/1
f 144/3/1 126/3/1 143/3/1
f 144/1/1 127/1/1 126/1/1
f 144/1/1 129/1/1 128/1/1
f 145/3/1 130/3/1 129/3/1
f 145/1/1 129/1/1 144/1/1
f 146/1/1 115/1/1 130/1/1
f 146/3/1 130/3/1 145/3/1
f 147/1/1 115/1/1 146/1/1
f 148/1/1 115/1/1 147/1/1
f 149/4/1 116/4/1 115/4/1
f 149/1/1 115/1/1 148/1/1
f 150/1/1 131/1/1 116/1/1
f 150/4/1 116/4/1 149/4/1
f 151/1/1 131/1/1 150/1/1
f 152/4/1 133/4/1 132/4/1
f 152/1/1 131/1/1 151/1/1
f 152/4/1 132/4/1 131/4/1
f 153/4/1 133/4/1 152/4/1
f 154/1/1 134/1/1 133/1/1
f 154/4/1 133/4/1 153/4/1
f 155/1/1 136/1/1 135/1/1
f 155/3/1 137/3/1 136/3/1
f 156/4/1 138/4/1 137/4/1
f 156/3/1 137/3/1 155/3/1
f 157/4/1 138/4/1 156/4/1
f 158/1/1 139/1/1 138/1/1
f 158/4/1 138/4/1 157/4/1
f 158/1/1 140/1/1 139/1/1
f 159/1/1 140/1/1 158/1/1
f 160/1/1 142/1/1 141/1/1
f 161/3/1 143/3/1 142/3/1
f 161/1/1 142/1/1 160/1/1
f 162/1/1 145/1/1 144/1/1
f 162/3/1 143/3/1 161/3/1
f 162/1/1 144/1/1 143/1/1
f 162/1/1 146/1/1 145/1/1
f 163/3/1 147/3/1 146/3/1
f 163/1/1 146/1/1 162/1/1
f 164/1/1 148/1/1 147/1/1
f 164/3/1 147/3/1 163/3/1
f 165/1/1 148/1/1 164/1/1
f 166/1/1 151/1/1 150/1/1
f 166/1/1 150/1/1 149/1/1
f 167/4/1 152/4/1 151/4/1
f 167/1/1 151/1/1 166/1/1
f 168/4/1 152/4/1 167/4/1
f 169/3/1 153/3/1 152/3/1
f 169/4/1 152/4/1 168/4/1
f 170/1/1 154/1/1 153/1/1
f 170/3/1 153/3/1 169/3/1
f 171/3/1 157/3/1 156/3/1
f 171/1/1 156/1/1 155/1/1
f 172/1/1 158/1/1 157/1/1
f 172/3/1 157/3/1 171/3/1
f 173/4/1 159/4/1 158/4/1
f 173/1/1 158/1/1 172/1/1
f 174/1/1 140/1/1 159/1/1
f 174/4/1 159/4/1 173/4/1
f 175/1/1 140/1/1 174/1/1
f 176/4/1 141/4/1 140/4/1
f 176/1/1 140/1/1 175/1/1
f 177/1/1 160/1/1 141/1/1
f 177/4/1 141/4/1 176/4/1
f 178/1/1 160/1/1 177/1/1
f 179/3/1 161/3/1 160/3/1
f 179/1/1 160/1/1 178/1/1
f 180/1/1 163/1/1 162/1/1
f 180/1/1 162/1/1 161/1/1
f 180/1/1 164/1/1 163/1/1
f 181/1/1 164/1/1 180/1/1
f 182/1/1 148/1/1 165/1/1
f 182/3/1 165/3/1 164/3/1
f 183/1/1 148/1/1 182/1/1
f 184/4/1 149/4/1 148/4/1
f 184/1/1 148/1/1 183/1/1
f 185/1/1 166/1/1 149/1/1
f 185/4/1 149/4/1 184/4/1
f 186/1/1 166/1/1 185/1/1
f 187/4/1 167/4/1 166/4/1
f 187/1/1 166/1/1 186/1/1
f 188/1/1 168/1/1 167/1/1
f 188/4/1 167/4/1 187/4/1
f 189/3/1 169/3/1 168/3/1
f 189/1/1 168/1/1 188/1/1
f 190/1/1 170/1/1 169/1/1
f 190/3/1 169/3/1 189/3/1
f 191/1/1 41/1/1 17/1/1
f 191/1/1 65/1/1 41/1/1
f 191/1/1 87/1/1 65/1/1
f 191/1/1 105/1/1 87/1/1
f 191/1/1 121/1/1 105/1/1
f 191/1/1 172/1/1 171/1/1
f 191/1/1 155/1/1 135/1/1
f 191/1/1 135/1/1 121/1/1
f 191/1/1 171/1/1 155/1/1
f 192/3/1 173/3/1 172/3/1
f 192/1/1 172/1/1 191/1/1
f 193/1/1 174/1/1 173/1/1
f 193/3/1 173/3/1 192/3/1
f 194/4/1 175/4/1 174/4/1
f 194/1/1 174/1/1 193/1/1
f 195/1/1 176/1/1 175/1/1
f 195/4/1 175/4/1 194/4/1
f 195/1/1 177/1/1 176/1/1
f 196/4/1 178/4/1 177/4/1
f 196/1/1 177/1/1 195/1/1
f 197/3/1 179/3/1 178/3/1
f 197/4/1 178/4/1 196/4/1
f 198/1/1 180/1/1 161/1/1
f 198/3/1 179/3/1 197/3/1
f 198/3/1 161/3/1 179/3/1
f 199/3/1 181/3/1 180/3/1
f 199/1/1 180/1/1 198/1/1
f 200/1/1 164/1/1 181/1/1
f 200/3/1 181/3/1 199/3/1
f 201/3/1 182/3/1 164/3/1
f 201/1/1 164/1/1 200/1/1
f 201/3/1 183/3/1 182/3/1
f 202/4/1 184/4/1 183/4/1
f 202/3/1 183/3/1 201/3/1
f 203/1/1 185/1/1 184/1/1
f 203/4/1 184/4/1 202/4/1
f 203/1/1 186/1/1 185/1/1
f 204/4/1 187/4/1 186/4/1
f 204/1/1 186/1/1 203/1/1
f 205/1/1 188/1/1 187/1/1
f 205/4/1 187/4/1 204/4/1
f 206/3/1 189/3/1 188/3/1
f 206/1/1 188/1/1 205/1/1
f 207/1/1 190/1/1 189/1/1
f 207/3/1 189/3/1 206/3/1
f 208/1/1 170/1/1 190/1/1
f 208/1/1 190/1/1 207/1/1
f 208/1/1 40/1/1 64/1/1
f 208/1/1 64/1/1 86/1/1
f 208/1/1 134/1/1 154/1/1
f 208/1/1 120/1/1 134/1/1
f 208/1/1 154/1/1 170/1/1
f 208/1/1 104/1/1 120/1/1
f 208/1/1 86/1/1 104/1/1
f 209/1/2 210/1/2 215/1/2
f 210/3/2 211/3/2 216/3/2
f 215/1/2 210/1/2 216/1/2
f 211/1/2 212/1/2 217/1/2
f 216/3/2 211/3/2 217/3/2
f 212/3/2 213/3/2 218/3/2
f 217/1/2 212/1/2 218/1/2
f 213/1/2 214/1/2 219/1/2
f 218/3/2 213/3/2 219/3/2
f 219/1/2 214/1/2 220/1/2
f 209/1/2 215/1/2 221/1/2
f 221/1/2 215/1/2 222/1/2
f 222/1/2 215/1/2 223/1/2
f 215/3/2 216/3/2 224/3/2
f 223/1/2 215/1/2 224/1/2
f 220/1/2 214/1/2 225/1/2
f 219/3/2 220/3/2 225/3/2
f 225/1/2 214/1/2 226/1/2
f 226/1/2 214/1/2 227/1/2
f 227/1/2 214/1/2 228/1/2
f 221/3/2 222/3/2 229/3/2
f 222/1/2 223/1/2 230/1/2
f 229/3/2 222/3/2 230/3/2
f 230/1/2 223/1/2 231/1/2
f 231/1/2 223/1/2 232/1/2
f 223/3/2 224/3/2 233/3/2
f 232/1/2 223/1/2 233/1/2
f 217/1/2 218/1/2 234/1/2
f 233/3/2 224/3/2 234/3/2
f 224/3/2 216/3/2 234/3/2
f 216/1/2 217/1/2 234/1/2
f 218/1/2 219/1/2 234/1/2
f 219/3/2 225/3/2 235/3/2
f 234/1/2 219/1/2 235/1/2
f 225/3/2 226/3/2 235/3/2
f 226/1/2 227/1/2 236/1/2
f 235/3/2 226/3/2 236/3/2
f 236/1/2 227/1/2 237/1/2
f 237/1/2 227/1/2 238/1/2
f 227/3/2 228/3/2 239/3/2
f 238/1/2 227/1/2 239/1/2
f 239/3/2 228/3/2 240/3/2
f 230/3/2 231/3/2 241/3/2
f 229/1/2 230/1/2 241/1/2
f 231/1/2 232/1/2 242/1/2
f 241/3/2 231/3/2 242/3/2
f 242/1/2 232/1/2 243/1/2
f 237/1/2 238/1/2 244/1/2
f 238/3/2 239/3/2 245/3/2
f 244/1/2 238/1/2 245/1/2
f 239/1/2 240/1/2 246/1/2
f 245/3/2 239/3/2 246/3/2
f 241/1/2 242/1/2 247/1/2
f 242/3/2 243/3/2 247/3/2
f 243/1/2 232/1/2 248/1/2
f 247/3/2 243/3/2 248/3/2
f 248/1/2 232/1/2 249/1/2
f 237/1/2 244/1/2 250/1/2
f 244/3/2 245/3/2 251/3/2
f 250/1/2 244/1/2 251/1/2
f 245/1/2 246/1/2 252/1/2
f 251/3/2 245/3/2 252/3/2
f 247/1/2 248/1/2 253/1/2
f 248/3/2 249/3/2 253/3/2
f 249/1/2 232/1/2 254/1/2
f 253/3/2 249/3/2 254/3/2
f 254/1/2 232/1/2 255/1/2
f 255/1/2 232/1/2 256/1/2
f 256/1/2 232/1/2 257/1/2
f 257/1/2 232/1/2 258/1/2
f 258/1/2 232/1/2 259/1/2
f 237/1/2 250/1/2 260/1/2
f 260/1/2 250/1/2 261/1/2
f 261/1/2 250/1/2 262/1/2
f 262/1/2 250/1/2 263/1/2
f 263/1/2 250/1/2 264/1/2
f 250/3/2 251/3/2 265/3/2
f 264/1/2 250/1/2 265/1/2
f 251/1/2 252/1/2 266/1/2
f 265/3/2 251/3/2 266/3/2
f 253/1/2 254/1/2 267/1/2
f 254/3/2 255/3/2 267/3/2
f 255/1/2 256/1/2 268/1/2
f 267/3/2 255/3/2 268/3/2
f 268/1/2 256/1/2 269/1/2
f 256/2/2 257/2/2 270/2/2
f 269/1/2 256/1/2 270/1/2
f 257/1/2 258/1/2 271/1/2
f 270/2/2 257/2/2 271/2/2
f 258/2/2 259/2/2 272/2/2
f 271/1/2 258/1/2 272/1/2
f 259/1/2 232/1/2 273/1/2
f 272/2/2 259/2/2 273/2/2
f 273/1/2 232/1/2 274/1/2
f 232/3/2 233/3/2 275/3/2
f 274/1/2 232/1/2 275/1/2
f 233/1/2 234/1/2 276/1/2
f 275/3/2 233/3/2 276/3/2
f 234/1/2 235/1/2 276/1/2
f 235/1/2 236/1/2 276/1/2
f 236/3/2 237/3/2 277/3/2
f 276/1/2 236/1/2 277/1/2
f 237/1/2 260/1/2 278/1/2
f 277/3/2 237/3/2 278/3/2
f 278/1/2 260/1/2 279/1/2
f 260/2/2 261/2/2 280/2/2
f 279/1/2 260/1/2 280/1/2
f 261/1/2 262/1/2 281/1/2
f 280/2/2 261/2/2 281/2/2
f 262/2/2 263/2/2 282/2/2
f 281/1/2 262/1/2 282/1/2
f 263/1/2 264/1/2 283/1/2
f 282/2/2 263/2/2 283/2/2
f 283/1/2 264/1/2 284/1/2
f 264/3/2 265/3/2 285/3/2
f 284/1/2 264/1/2 285/1/2
f 265/1/2 266/1/2 286/1/2
f 285/3/2 265/3/2 286/3/2
f 267/1/2 268/1/2 287/1/2
f 268/3/2 269/3/2 287/3/2
f 273/1/2 274/1/2 288/1/2
f 287/3/2 269/3/2 288/3/2
f 271/1/2 272/1/2 288/1/2
f 272/1/2 273/1/2 288/1/2
f 269/1/2 270/1/2 288/1/2
f 270/1/2 271/1/2 288/1/2
f 288/1/2 274/1/2 289/1/2
f 289/1/2 274/1/2 290/1/2
f 274/3/2 275/3/2 291/3/2
f 290/1/2 274/1/2 291/1/2
f 277/1/2 278/1/2 292/1/2
f 291/3/2 275/3/2 292/3/2
f 275/1/2 276/1/2 292/1/2
f 276/1/2 277/1/2 292/1/2
f 278/3/2 279/3/2 293/3/2
f 292/1/2 278/1/2 293/1/2
f 282/1/2 283/1/2 294/1/2
f 293/3/2 279/3/2 294/3/2
f 281/1/2 282/1/2 294/1/2
f 283/1/2 284/1/2 294/1/2
f 280/1/2 281/1/2 294/1/2
f 279/1/2 280/1/2 294/1/2
f 294/1/2 284/1/2 295/1/2
f 295/1/2 284/1/2 296/1/2
f 284/3/2 285/3/2 297/3/2
f 296/1/2 284/1/2 297/1/2
f 285/1/2 286/1/2 298/1/2
f 297/3/2 285/3/2 298/3/2
f 288/3/2 289/3/2 299/3/2
f 287/1/2 288/1/2 299/1/2
f 289/1/2 290/1/2 300/1/2
f 299/3/2 289/3/2 300/3/2
f 300/1/2 290/1/2 301/1/2
f 301/1/2 290/1/2 302/1/2
f 302/1/2 290/1/2 303/1/2
f 295/1/2 296/1/2 304/1/2
f 304/1/2 296/1/2 305/1/2
f 305/1/2 296/1/2 306/1/2
f 296/3/2 297/3/2 307/3/2
f 306/1/2 296/1/2 307/1/2
f 297/1/2 298/1/2 308/1/2
f 307/3/2 297/3/2 308/3/2
f 267/1/2 287/1/2 309/1/2
f 241/1/2 247/1/2 309/1/2
f 229/1/2 241/1/2 309/1/2
f 287/1/2 299/1/2 309/1/2
f 247/1/2 253/1/2 309/1/2
f 253/1/2 267/1/2 309/1/2
f 299/1/2 300/1/2 309/1/2
f 300/3/2 301/3/2 310/3/2
f 309/1/2 300/1/2 310/1/2
f 301/1/2 302/1/2 311/1/2
f 310/3/2 301/3/2 311/3/2
f 302/2/2 303/2/2 312/2/2
f 311/1/2 302/1/2 312/1/2
f 303/1/2 290/1/2 313/1/2
f 312/2/2 303/2/2 313/2/2
f 290/3/2 291/3/2 314/3/2
f 313/1/2 290/1/2 314/1/2
f 292/1/2 293/1/2 315/1/2
f 314/3/2 291/3/2 315/3/2
f 291/1/2 292/1/2 315/1/2
f 293/1/2 294/1/2 315/1/2
f 294/3/2 295/3/2 316/3/2
f 315/1/2 294/1/2 316/1/2
f 295/1/2 304/1/2 317/1/2
f 316/3/2 295/3/2 317/3/2
f 304/2/2 305/2/2 318/2/2
f 317/1/2 304/1/2 318/1/2
f 305/1/2 306/1/2 319/1/2
f 318/2/2 305/2/2 319/2/2
f 306/3/2 307/3/2 320/3/2
f 319/1/2 306/1/2 320/1/2
f 307/1/2 308/1/2 321/1/2
f 320/3/2 307/3/2 321/3/2
f 308/1/2 298/1/2 322/1/2
f 321/1/2 308/1/2 322/1/2
f 286/1/2 266/1/2 322/1/2
f 298/1/2 286/1/2 322/1/2
f 246/1/2 240/1/2 322/1/2
f 252/1/2 246/1/2 322/1/2
f 266/1/2 252/1/2 322/1/2
f 326/4/3 324/4/3 323/4/3
f 327/1/3 325/1/3 324/1/3
f 327/4/3 324/4/3 326/4/3
f 328/1/3 327/1/3 326/1/3
f 328/1/3 325/1/3 327/1/3
f 329/1/3 325/1/3 328/1/3
f 330/1/3 328/1/3 326/1/3
f 331/3/3 329/3/3 328/3/3
f 331/1/3 328/1/3 330/1/3
f 332/1/3 325/1/3 329/1/3
f 332/3/3 329/3/3 331/3/3
f 333/1/3 325/1/3 332/1/3
f 334/4/4 335/4/4 337/4/4
f 335/1/4 336/1/4 338/1/4
f 337/4/4 335/4/4 338/4/4
f 337/1/4 338/1/4 339/1/4
f 338/1/4 336/1/4 339/1/4
f 339/1/4 336/1/4 340/1/4
f 337/1/4 339/1/4 341/1/4
f 339/3/4 340/3/4 342/3/4
f 341/1/4 339/1/4 342/1/4
f 340/1/4 336/1/4 343/1/4
f 342/3/4 340/3/4 343/3/4
f 343/1/4 336/1/4 344/1/4
f 348/4/5 346/4/5 345/4/5
f 349/1/5 347/1/5 346/1/5
f 349/4/5 346/4/5 348/4/5
f 350/1/5 349/1/5 348/1/5
f 351/1/5 347/1/5 349/1/5
f 351/1/5 349/1/5 350/1/5
f 352/3/5 351/3/5 350/3/5
f 353/1/5 347/1/5 351/1/5
f 353/3/5 351/3/5 352/3/5
f 354/1/5 353/1/5 352/1/5
f 355/1/5 347/1/5 353/1/5
f 355/1/5 353/1/5 354/1/5
f 356/4/5 355/4/5 354/4/5
f 357/1/5 347/1/5 355/1/5
f 357/4/5 355/4/5 356/4/5
f 358/1/5 357/1/5 356/1/5
f 359/1/5 347/1/5 357/1/5
f 359/1/5 357/1/5 358/1/5
f 360/3/5 359/3/5 358/3/5
f 361/1/5 347/1/5 359/1/5
f 361/3/5 359/3/5 360/3/5
f 362/1/5 361/1/5 360/1/5
f 362/1/5 347/1/5 361/1/5
f 363/1/5 347/1/5 362/1/5
f 364/1/5 362/1/5 360/1/5
f 364/3/5 363/3/5 362/3/5
f 365/3/5 363/3/5 364/3/5
f 366/1/5 364/1/5 360/1/5
f 366/1/5 365/1/5 364/1/5
f 367/1/5 365/1/5 366/1/5
f 368/1/5 366/1/5 360/1/5
f 368/3/5 367/3/5 366/3/5
f 369/3/5 367/3/5 368/3/5
f 370/1/5 368/1/5 360/1/5
f 370/1/5 369/1/5 368/1/5
f 371/1/5 369/1/5 370/1/5
f 372/3/5 371/3/5 370/3/5
f 373/1/5 369/1/5 371/1/5
f 373/3/5 371/3/5 372/3/5
f 374/1/5 373/1/5 372/1/5
f 375/1/5 369/1/5 373/1/5
f 375/1/5 373/1/5 374/1/5
f 376/4/5 375/4/5 374/4/5
f 377/1/5 369/1/5 375/1/5
f 377/4/5 375/4/5 376/4/5
f 378/1/5 377/1/5 376/1/5
f 379/1/5 369/1/5 377/1/5
f 379/1/5 377/1/5 378/1/5
f 380/3/5 379/3/5 378/3/5
f 381/1/5 369/1/5 379/1/5
f 381/3/5 379/3/5 380/3/5
f 382/1/5 381/1/5 380/1/5
f 383/1/5 369/1/5 381/1/5
f 383/1/5 381/1/5 382/1/5
f 384/4/5 383/4/5 382/4/5
f 385/1/5 369/1/5 383/1/5
f 385/4/5 383/4/5 384/4/5
f 386/1/5 369/1/5 385/1/5
f 387/1/6 388/1/6 389/1/6
f 389/1/6 388/1/6 390/1/6
f 389/3/6 390/3/6 391/3/6
f 390/1/6 388/1/6 392/1/6
f 391/3/6 390/3/6 392/3/6
f 392/1/6 388/1/6 393/1/6
f 392/3/6 393/3/6 394/3/6
f 393/1/6 388/1/6 394/1/6
f 394/1/6 388/1/6 395/1/6
f 391/1/6 392/1/6 396/1/6
f 392/3/6 394/3/6 397/3/6
f 396/1/6 392/1/6 397/1/6
f 394/3/6 395/3/6 397/3/6
f 397/3/6 395/3/6 398/3/6
f 395/1/6 388/1/6 399/1/6
f 398/3/6 395/3/6 399/3/6
f 397/4/6 398/4/6 400/4/6
f 396/4/6 397/4/6 400/4/6
f 398/1/6 399/1/6 401/1/6
f 400/4/6 398/4/6 401/4/6
f 401/1/6 399/1/6 402/1/6
f 400/1/6 401/1/6 403/1/6
f 401/4/6 402/4/6 403/4/6
f 402/1/6 399/1/6 404/1/6
f 403/4/6 402/4/6 404/4/6
f 404/1/6 399/1/6 405/1/6
f 403/1/6 404/1/6 406/1/6
f 404/4/6 405/4/6 406/4/6
f 405/1/6 399/1/6 407/1/6
f 406/4/6 405/4/6 407/4/6
f 399/1/6 388/1/6 408/1/6
f 407/1/6 399/1/6 408/1/6
f 406/1/6 407/1/6 408/1/6
f 408/1/6 388/1/6 409/1/6
f 406/1/6 408/1/6 410/1/6
f 408/3/6 409/3/6 410/3/6
f 410/3/6 409/3/6 411/3/6
f 406/1/6 410/1/6 412/1/6
f 410/1/6 411/1/6 412/1/6
f 412/1/6 411/1/6 413/1/6
f 403/1/6 406/1/6 414/1/6
f 406/1/6 412/1/6 414/1/6
f 414/1/6 412/1/6 415/1/6
f 412/2/6 413/2/6 416/2/6
f 415/1/6 412/1/6 416/1/6
f 416/2/6 413/2/6 417/2/6
f 400/1/6 403/1/6 418/1/6
f 403/1/6 414/1/6 418/1/6
f 414/4/6 415/4/6 419/4/6
f 418/1/6 414/1/6 419/1/6
f 416/1/6 417/1/6 420/1/6
f 419/4/6 415/4/6 420/4/6
f 415/1/6 416/1/6 420/1/6
f 420/1/6 417/1/6 421/1/6
f 421/1/6 417/1/6 422/1/6
f 422/1/6 417/1/6 423/1/6
f 400/1/6 418/1/6 424/1/6
f 418/4/6 419/4/6 425/4/6
f 424/1/6 418/1/6 425/1/6
f 419/1/6 420/1/6 426/1/6
f 425/4/6 419/4/6 426/4/6
f 420/3/6 421/3/6 427/3/6
f 421/1/6 422/1/6 427/1/6
f 422/3/6 423/3/6 428/3/6
f 427/1/6 422/1/6 428/1/6
f 423/1/6 417/1/6 429/1/6
f 428/3/6 423/3/6 429/3/6
f 429/1/6 417/1/6 430/1/6
f 424/4/6 425/4/6 431/4/6
f 425/1/6 426/1/6 432/1/6
f 431/4/6 425/4/6 432/4/6
f 427/3/6 428/3/6 433/3/6
f 432/1/6 426/1/6 433/1/6
f 426/1/6 420/1/6 433/1/6
f 429/3/6 430/3/6 433/3/6
f 428/3/6 429/3/6 433/3/6
f 420/3/6 427/3/6 433/3/6
f 433/3/6 430/3/6 434/3/6
f 434/3/6 430/3/6 435/3/6
f 431/3/6 432/3/6 436/3/6
f 432/3/6 433/3/6 436/3/6
f 433/3/6 434/3/6 436/3/6
f 436/3/6 434/3/6 437/3/6
f 437/3/6 434/3/6 438/3/6
f 434/1/6 435/1/6 439/1/6
f 438/3/6 434/3/6 439/3/6
f 431/3/6 436/3/6 440/3/6
f 436/1/6 437/1/6 441/1/6
f 440/3/6 436/3/6 441/3/6
f 437/3/6 438/3/6 442/3/6
f 441/1/6 437/1/6 442/1/6
f 441/3/6 442/3/6 443/3/6
f 442/3/6 438/3/6 443/3/6
f 438/1/6 439/1/6 444/1/6
f 443/3/6 438/3/6 444/3/6
f 440/1/6 441/1/6 445/1/6
f 441/3/6 443/3/6 446/3/6
f 445/1/6 441/1/6 446/1/6
f 445/3/6 446/3/6 447/3/6
f 446/3/6 443/3/6 448/3/6
f 447/3/6 446/3/6 448/3/6
f 443/1/6 444/1/6 449/1/6
f 448/3/6 443/3/6 449/3/6
f 444/1/6 439/1/6 450/1/6
f 449/1/6 444/1/6 450/1/6
f 447/1/6 448/1/6 451/1/6
f 448/3/6 449/3/6 452/3/6
f 451/1/6 448/1/6 452/1/6
f 449/3/6 450/3/6 452/3/6
f 452/3/6 450/3/6 453/3/6
f 451/3/6 452/3/6 454/3/6
f 452/1/6 453/1/6 454/1/6
f 453/3/6 450/3/6 455/3/6
f 454/1/6 453/1/6 455/1/6
f 450/1/6 439/1/6 456/1/6
f 455/3/6 450/3/6 456/3/6
f 439/1/6 435/1/6 457/1/6
f 456/1/6 439/1/6 457/1/6
f 455/3/6 456/3/6 458/3/6
f 454/3/6 455/3/6 458/3/6
f 456/3/6 457/3/6 458/3/6
f 451/3/6 454/3/6 458/3/6
f 458/3/6 457/3/6 459/3/6
f 459/3/6 457/3/6 460/3/6
f 457/1/6 435/1/6 461/1/6
f 460/3/6 457/3/6 461/3/6
f 461/1/6 435/1/6 462/1/6
f 458/4/6 459/4/6 463/4/6
f 459/1/6 460/1/6 464/1/6
f 463/4/6 459/4/6 464/4/6
f 464/1/6 460/1/6 465/1/6
f 460/3/6 461/3/6 466/3/6
f 461/3/6 462/3/6 466/3/6
f 466/3/6 462/3/6 467/3/6
f 467/3/6 462/3/6 468/3/6
f 468/3/6 462/3/6 469/3/6
f 464/4/6 465/4/6 470/4/6
f 463/1/6 464/1/6 470/1/6
f 465/1/6 460/1/6 471/1/6
f 470/4/6 465/4/6 471/4/6
f 460/3/6 466/3/6 472/3/6
f 471/1/6 460/1/6 472/1/6
f 466/1/6 467/1/6 473/1/6
f 472/3/6 466/3/6 473/3/6
f 467/3/6 468/3/6 474/3/6
f 473/1/6 467/1/6 474/1/6
f 468/1/6 469/1/6 475/1/6
f 474/3/6 468/3/6 475/3/6
f 470/1/6 471/1/6 476/1/6
f 471/4/6 472/4/6 476/4/6
f 473/1/6 474/1/6 477/1/6
f 476/4/6 472/4/6 477/4/6
f 474/1/6 475/1/6 477/1/6
f 472/1/6 473/1/6 477/1/6
f 475/1/6 469/1/6 478/1/6
f 477/1/6 475/1/6 478/1/6
f 478/1/6 469/1/6 479/1/6
f 476/1/6 477/1/6 480/1/6
f 477/1/6 478/1/6 480/1/6
f 478/2/6 479/2/6 480/2/6
f 480/2/6 479/2/6 481/2/6
f 476/1/6 480/1/6 482/1/6
f 480/1/6 481/1/6 482/1/6
f 482/1/6 481/1/6 483/1/6
f 476/1/6 482/1/6 484/1/6
f 482/3/6 483/3/6 484/3/6
f 484/3/6 483/3/6 485/3/6
f 470/1/6 476/1/6 486/1/6
f 476/1/6 484/1/6 486/1/6
f 484/1/6 485/1/6 486/1/6
f 486/1/6 485/1/6 487/1/6
f 463/1/6 470/1/6 488/1/6
f 470/1/6 486/1/6 488/1/6
f 486/4/6 487/4/6 489/4/6
f 488/1/6 486/1/6 489/1/6
f 487/1/6 485/1/6 490/1/6
f 489/4/6 487/4/6 490/4/6
f 463/1/6 488/1/6 491/1/6
f 488/4/6 489/4/6 492/4/6
f 491/1/6 488/1/6 492/1/6
f 489/1/6 490/1/6 493/1/6
f 492/4/6 489/4/6 493/4/6
f 491/4/6 492/4/6 494/4/6
f 494/4/6 492/4/6 495/4/6
f 492/1/6 493/1/6 496/1/6
f 495/4/6 492/4/6 496/4/6
f 490/1/6 485/1/6 497/1/6
f 496/1/6 493/1/6 497/1/6
f 493/1/6 490/1/6 497/1/6
f 495/3/6 496/3/6 498/3/6
f 496/3/6 497/3/6 498/3/6
f 497/1/6 485/1/6 499/1/6
f 498/3/6 497/3/6 499/3/6
f 494/1/6 495/1/6 500/1/6
f 495/3/6 498/3/6 501/3/6
f 500/1/6 495/1/6 501/1/6
f 498/1/6 499/1/6 502/1/6
f 501/3/6 498/3/6 502/3/6
f 500/3/6 501/3/6 503/3/6
f 501/1/6 502/1/6 504/1/6
f 503/3/6 501/3/6 504/3/6
f 503/1/6 504/1/6 505/1/6
f 499/1/6 485/1/6 506/1/6
f 505/1/6 504/1/6 506/1/6
f 502/1/6 499/1/6 506/1/6
f 504/1/6 502/1/6 506/1/6
