# MagicaVoxel @ Ephtracy

# group
o 

# material
mtllib stadium-large-complex-18.mtl
usemtl palette

# normals
vn -1 0 0
vn 1 0 0
vn 0 0 1
vn 0 0 -1
vn 0 -1 0
vn 0 1 0

# texcoords
vt 0.970703 0.5
vt 0.974609 0.5
vt 0.978516 0.5
vt 0.982422 0.5

# verts
v -12.8 19.5 -1
v -12.8 19.5 -1.2
v -12.8 19.5 -1.3
v -12.8 19.5 -1.5
v -12.8 19.5 -1.6
v -12.8 19.5 -2.1
v -12.8 19.5 -2.3
v -12.8 19.5 -4
v -12.8 19.6 -1.2
v -12.8 19.6 -1.3
v -12.8 19.6 -1.5
v -12.8 19.6 -1.6
v -12.8 19.6 -1.9
v -12.8 19.6 -2.1
v -12.8 19.6 -2.3
v -12.8 19.7 -1.7
v -12.8 19.7 -1.9
v -12.8 19.7 -2.1
v -12.8 19.8 -1.5
v -12.8 19.8 -1.7
v -12.8 19.8 -1.9
v -12.8 19.9 -1.2
v -12.8 19.9 -1.5
v -12.8 19.9 -1.6
v -12.8 19.9 -1.7
v -12.8 20 -1
v -12.8 20 -1.2
v -12.8 20 -1.5
v -12.8 20 -1.6
v -12.8 20 -4
v 12.8 19.5 -1
v 12.8 19.5 -1.2
v 12.8 19.5 -1.3
v 12.8 19.5 -1.5
v 12.8 19.5 -1.6
v 12.8 19.5 -4
v 12.8 19.6 -1.2
v 12.8 19.6 -1.3
v 12.8 19.6 -1.5
v 12.8 19.6 -1.6
v 12.8 19.9 -1.2
v 12.8 19.9 -1.3
v 12.8 19.9 -1.5
v 12.8 19.9 -1.6
v 12.8 20 -1
v 12.8 20 -1.2
v 12.8 20 -1.3
v 12.8 20 -1.5
v 12.8 20 -1.6
v 12.8 20 -4
v -12.8 19.5 -1
v -12.8 20 -1
v -12.5 19.9 -1
v -12.5 20 -1
v -12.2 19.8 -1
v -12.2 19.9 -1
v -12.2 20 -1
v -11.8 19.7 -1
v -11.8 19.8 -1
v -11.8 19.9 -1
v -11.5 19.6 -1
v -11.5 19.7 -1
v -11.5 19.8 -1
v -11.3 19.5 -1
v -11.3 19.6 -1
v -11.3 19.7 -1
v -11.1 19.5 -1
v -11.1 19.6 -1
v -10.9 19.9 -1
v -10.9 20 -1
v -10.8 19.5 -1
v -10.8 19.9 -1
v -10.8 20 -1
v -10.7 19.5 -1
v -10.7 19.9 -1
v -10.3 19.9 -1
v -10.3 20 -1
v -10.2 19.5 -1
v -10.2 19.6 -1
v -10.1 19.8 -1
v -10.1 19.9 -1
v -10.1 20 -1
v -9.9 19.7 -1
v -9.9 19.8 -1
v -9.9 19.9 -1
v -9.7 19.6 -1
v -9.7 19.7 -1
v -9.7 19.8 -1
v -9.4 19.5 -1
v -9.4 19.6 -1
v -9.4 19.7 -1
v -9.1 19.5 -1
v -9.1 19.6 -1
v -8.7 19.6 -1
v -8.7 19.7 -1
v -8.7 19.8 -1
v -8.3 19.5 -1
v -8.3 19.6 -1
v -8.2 19.5 -1
v -8.2 19.6 -1
v -8.2 19.7 -1
v -8.1 19.6 -1
v -8.1 19.8 -1
v -8.1 20 -1
v -8 19.9 -1
v -8 20 -1
v -7.3 19.5 -1
v -7.3 19.6 -1
v -7.3 19.8 -1
v -7.3 19.9 -1
v -7.3 20 -1
v -7.2 19.5 -1
v -7.2 19.6 -1
v -7.2 19.7 -1
v -6.8 19.6 -1
v -6.8 19.7 -1
v -6.8 19.8 -1
v -6.6 19.7 -1
v -6.6 19.8 -1
v -6.6 19.9 -1
v -6.4 19.8 -1
v -6.4 19.9 -1
v -6.1 19.9 -1
v -6.1 20 -1
v -5.7 19.5 -1
v -5.7 19.6 -1
v -5.6 19.5 -1
v -5.6 19.6 -1
v -5.6 19.8 -1
v -5.5 19.6 -1
v -5.5 19.8 -1
v -5.5 19.9 -1
v -5.4 19.8 -1
v -5.4 19.9 -1
v -5.4 20 -1
v -5.2 19.9 -1
v -5.2 20 -1
v -4.6 19.5 -1
v -4.6 19.7 -1
v -4.5 19.5 -1
v -4.5 19.6 -1
v -4.5 19.7 -1
v -4.5 20 -1
v -4.4 19.6 -1
v -4.4 19.9 -1
v -4.3 19.9 -1
v -4.3 20 -1
v -2 19.5 -1
v -2 19.6 -1
v -1.9 19.5 -1
v -1.9 19.6 -1
v 1.4 19.5 -1
v 1.4 19.6 -1
v 1.5 19.5 -1
v 1.5 19.6 -1
v 1.5 19.7 -1
v 1.7 19.6 -1
v 1.7 19.7 -1
v 1.7 19.8 -1
v 1.8 19.7 -1
v 1.8 19.8 -1
v 1.8 19.9 -1
v 1.9 19.5 -1
v 1.9 19.6 -1
v 2 19.5 -1
v 2 19.6 -1
v 2 19.8 -1
v 2 19.9 -1
v 2 20 -1
v 2.2 19.5 -1
v 2.2 19.6 -1
v 2.2 19.9 -1
v 2.2 20 -1
v 2.5 19.5 -1
v 2.5 19.6 -1
v 2.5 19.7 -1
v 2.9 19.6 -1
v 2.9 19.7 -1
v 2.9 19.8 -1
v 3.3 19.7 -1
v 3.3 19.8 -1
v 3.3 19.9 -1
v 3.7 19.8 -1
v 3.7 19.9 -1
v 3.7 20 -1
v 3.9 19.8 -1
v 3.9 19.9 -1
v 3.9 20 -1
v 4.1 19.7 -1
v 4.1 19.8 -1
v 4.1 19.9 -1
v 4.2 19.5 -1
v 4.2 19.6 -1
v 4.3 19.6 -1
v 4.3 19.7 -1
v 4.3 19.8 -1
v 4.3 19.9 -1
v 4.3 20 -1
v 4.4 19.7 -1
v 4.4 19.9 -1
v 4.5 19.7 -1
v 4.5 20 -1
v 4.6 19.5 -1
v 4.6 19.6 -1
v 4.6 19.7 -1
v 5.1 19.6 -1
v 5.1 19.7 -1
v 5.1 19.8 -1
v 5.2 19.9 -1
v 5.2 20 -1
v 5.3 19.8 -1
v 5.3 19.9 -1
v 5.3 20 -1
v 5.4 19.6 -1
v 5.4 19.7 -1
v 5.4 19.8 -1
v 5.4 19.9 -1
v 5.5 19.5 -1
v 5.5 19.6 -1
v 5.5 19.7 -1
v 5.5 19.8 -1
v 5.5 19.9 -1
v 5.6 19.5 -1
v 5.6 19.6 -1
v 6 19.8 -1
v 6 19.9 -1
v 6 20 -1
v 6.7 19.9 -1
v 6.7 20 -1
v 6.8 19.8 -1
v 6.8 19.9 -1
v 6.8 20 -1
v 7 19.7 -1
v 7 19.8 -1
v 7 19.9 -1
v 7.1 19.6 -1
v 7.1 19.7 -1
v 7.1 19.8 -1
v 7.3 19.5 -1
v 7.3 19.6 -1
v 7.3 19.7 -1
v 7.5 19.5 -1
v 7.5 19.6 -1
v 12.8 19.5 -1
v 12.8 20 -1
v -12.8 19.5 -4
v -12.8 20 -4
v -12.4 19.9 -4
v -12.4 20 -4
v -12.3 19.9 -4
v -12.3 20 -4
v -10 19.9 -4
v -10 20 -4
v -9.6 19.9 -4
v -9.6 20 -4
v -9.5 19.7 -4
v -9.5 19.9 -4
v -9.4 19.5 -4
v -9.4 19.7 -4
v -9.4 20 -4
v -9.3 19.5 -4
v -9.3 19.7 -4
v -9.2 19.5 -4
v -9.2 19.6 -4
v -9.1 19.5 -4
v -9.1 19.6 -4
v -8.4 19.5 -4
v -8.4 19.6 -4
v -8.3 19.5 -4
v -8.3 19.6 -4
v -5.6 19.9 -4
v -5.6 20 -4
v -5.5 19.9 -4
v -5.5 20 -4
v -4.5 19.9 -4
v -4.5 20 -4
v -4.4 19.7 -4
v -4.4 19.9 -4
v -4.3 19.5 -4
v -4.3 19.7 -4
v -4.3 20 -4
v -4.2 19.6 -4
v -4.2 19.7 -4
v -4.1 19.5 -4
v -4.1 19.6 -4
v -1.1 19.9 -4
v -1.1 20 -4
v -0.8 19.9 -4
v -0.8 20 -4
v 1.2 19.5 -4
v 1.2 19.6 -4
v 1.3 19.5 -4
v 1.3 19.6 -4
v 4.1 19.5 -4
v 4.1 19.6 -4
v 4.2 19.6 -4
v 4.2 19.7 -4
v 4.3 19.5 -4
v 4.3 19.7 -4
v 4.3 20 -4
v 4.4 19.7 -4
v 4.4 19.9 -4
v 4.5 19.9 -4
v 4.5 20 -4
v 4.8 19.5 -4
v 4.8 19.6 -4
v 4.9 19.5 -4
v 4.9 19.6 -4
v 5.9 19.5 -4
v 5.9 19.6 -4
v 6 19.5 -4
v 6 19.6 -4
v 9.3 19.5 -4
v 9.3 19.7 -4
v 9.4 19.5 -4
v 9.4 19.7 -4
v 9.4 20 -4
v 9.5 19.7 -4
v 9.5 19.9 -4
v 9.6 19.9 -4
v 9.6 20 -4
v 10.3 19.5 -4
v 10.3 19.6 -4
v 10.6 19.5 -4
v 10.6 19.6 -4
v 12.8 19.5 -4
v 12.8 20 -4
v -12.8 19.5 -1
v -11.3 19.5 -1
v -11.1 19.5 -1
v -10.8 19.5 -1
v -10.7 19.5 -1
v -10.2 19.5 -1
v -9.4 19.5 -1
v -9.1 19.5 -1
v -8.3 19.5 -1
v -8.2 19.5 -1
v -7.3 19.5 -1
v -7.2 19.5 -1
v -5.7 19.5 -1
v -5.6 19.5 -1
v -4.6 19.5 -1
v -4.5 19.5 -1
v -2 19.5 -1
v -1.9 19.5 -1
v 1.4 19.5 -1
v 1.5 19.5 -1
v 1.9 19.5 -1
v 2 19.5 -1
v 2.2 19.5 -1
v 2.5 19.5 -1
v 4.2 19.5 -1
v 4.6 19.5 -1
v 5.5 19.5 -1
v 5.6 19.5 -1
v 7.3 19.5 -1
v 7.5 19.5 -1
v 12.8 19.5 -1
v -11.3 19.5 -1.1
v -11.1 19.5 -1.1
v -10.2 19.5 -1.1
v -10.1 19.5 -1.1
v -10 19.5 -1.1
v -9.4 19.5 -1.1
v -9.1 19.5 -1.1
v -7.9 19.5 -1.1
v -7.8 19.5 -1.1
v -5.7 19.5 -1.1
v -5.6 19.5 -1.1
v -4.6 19.5 -1.1
v -4.5 19.5 -1.1
v -2.1 19.5 -1.1
v -2 19.5 -1.1
v -1.9 19.5 -1.1
v 1.4 19.5 -1.1
v 1.5 19.5 -1.1
v 1.9 19.5 -1.1
v 2 19.5 -1.1
v 2.1 19.5 -1.1
v 2.2 19.5 -1.1
v 2.4 19.5 -1.1
v 2.5 19.5 -1.1
v 2.6 19.5 -1.1
v 4.2 19.5 -1.1
v 4.6 19.5 -1.1
v 5.5 19.5 -1.1
v 5.6 19.5 -1.1
v 7.3 19.5 -1.1
v 7.4 19.5 -1.1
v 7.8 19.5 -1.1
v 7.9 19.5 -1.1
v -12.8 19.5 -1.2
v -12.7 19.5 -1.2
v -10.9 19.5 -1.2
v -10.8 19.5 -1.2
v -10.7 19.5 -1.2
v -10.1 19.5 -1.2
v -10 19.5 -1.2
v -9.9 19.5 -1.2
v -8.4 19.5 -1.2
v -8.3 19.5 -1.2
v -8.2 19.5 -1.2
v -7.4 19.5 -1.2
v -7.3 19.5 -1.2
v -7.2 19.5 -1.2
v 2.4 19.5 -1.2
v 2.6 19.5 -1.2
v 2.9 19.5 -1.2
v 12.7 19.5 -1.2
v 12.8 19.5 -1.2
v -12.8 19.5 -1.3
v -12.7 19.5 -1.3
v -8 19.5 -1.3
v -7.9 19.5 -1.3
v -7.8 19.5 -1.3
v -2.2 19.5 -1.3
v -2.1 19.5 -1.3
v -2 19.5 -1.3
v 2 19.5 -1.3
v 2.1 19.5 -1.3
v 2.2 19.5 -1.3
v 2.6 19.5 -1.3
v 2.9 19.5 -1.3
v 3.2 19.5 -1.3
v 7.4 19.5 -1.3
v 7.5 19.5 -1.3
v 7.6 19.5 -1.3
v 7.8 19.5 -1.3
v 7.9 19.5 -1.3
v 8 19.5 -1.3
v 12.7 19.5 -1.3
v 12.8 19.5 -1.3
v -10 19.5 -1.4
v -9.9 19.5 -1.4
v -9.8 19.5 -1.4
v -2.3 19.5 -1.4
v -2.2 19.5 -1.4
v -2.1 19.5 -1.4
v 2.1 19.5 -1.4
v 2.2 19.5 -1.4
v 2.3 19.5 -1.4
v 2.9 19.5 -1.4
v 3.2 19.5 -1.4
v 3.4 19.5 -1.4
v -12.8 19.5 -1.5
v -12.7 19.5 -1.5
v -11 19.5 -1.5
v -10.9 19.5 -1.5
v -10.8 19.5 -1.5
v -9.9 19.5 -1.5
v -9.8 19.5 -1.5
v -9.7 19.5 -1.5
v -8.5 19.5 -1.5
v -8.4 19.5 -1.5
v -8.3 19.5 -1.5
v -8.1 19.5 -1.5
v -8 19.5 -1.5
v -7.9 19.5 -1.5
v -7.5 19.5 -1.5
v -7.4 19.5 -1.5
v -7.3 19.5 -1.5
v -2.4 19.5 -1.5
v -2.3 19.5 -1.5
v -2.2 19.5 -1.5
v 2.2 19.5 -1.5
v 2.3 19.5 -1.5
v 2.4 19.5 -1.5
v 3.2 19.5 -1.5
v 3.4 19.5 -1.5
v 3.7 19.5 -1.5
v 7.9 19.5 -1.5
v 8 19.5 -1.5
v 8.1 19.5 -1.5
v 12.7 19.5 -1.5
v 12.8 19.5 -1.5
v -12.8 19.5 -1.6
v -12.7 19.5 -1.6
v -9.8 19.5 -1.6
v -9.7 19.5 -1.6
v -9.6 19.5 -1.6
v 1.4 19.5 -1.6
v 1.5 19.5 -1.6
v 3.4 19.5 -1.6
v 3.7 19.5 -1.6
v 4 19.5 -1.6
v 12.7 19.5 -1.6
v 12.8 19.5 -1.6
v -11.1 19.5 -1.7
v -11 19.5 -1.7
v -10.9 19.5 -1.7
v -9.7 19.5 -1.7
v -9.6 19.5 -1.7
v -9.5 19.5 -1.7
v -8.2 19.5 -1.7
v -8.1 19.5 -1.7
v -8 19.5 -1.7
v -2.5 19.5 -1.7
v -2.4 19.5 -1.7
v -2.3 19.5 -1.7
v 2.3 19.5 -1.7
v 2.4 19.5 -1.7
v 2.5 19.5 -1.7
v 3.7 19.5 -1.7
v 4 19.5 -1.7
v 4.2 19.5 -1.7
v 4.5 19.5 -1.7
v 4.6 19.5 -1.7
v 8 19.5 -1.7
v 8.1 19.5 -1.7
v 8.2 19.5 -1.7
v -7.6 19.5 -1.8
v -7.5 19.5 -1.8
v -7.4 19.5 -1.8
v -2.6 19.5 -1.8
v -2.5 19.5 -1.8
v -2.4 19.5 -1.8
v 2.4 19.5 -1.8
v 2.5 19.5 -1.8
v 2.6 19.5 -1.8
v 4 19.5 -1.8
v 4.2 19.5 -1.8
v 4.5 19.5 -1.8
v 5.6 19.5 -1.8
v 5.7 19.5 -1.8
v 7.5 19.5 -1.8
v 7.6 19.5 -1.8
v 7.7 19.5 -1.8
v -9.6 19.5 -1.9
v -9.5 19.5 -1.9
v -9.4 19.5 -1.9
v -8.6 19.5 -1.9
v -8.5 19.5 -1.9
v -8.4 19.5 -1.9
v -8.3 19.5 -1.9
v -8.2 19.5 -1.9
v -8.1 19.5 -1.9
v -2.7 19.5 -1.9
v -2.6 19.5 -1.9
v -2.5 19.5 -1.9
v 2.5 19.5 -1.9
v 2.6 19.5 -1.9
v 2.7 19.5 -1.9
v 4.2 19.5 -1.9
v 4.5 19.5 -1.9
v 4.6 19.5 -1.9
v 4.8 19.5 -1.9
v 8.1 19.5 -1.9
v 8.2 19.5 -1.9
v 8.3 19.5 -1.9
v -11.2 19.5 -2
v -11.1 19.5 -2
v -11 19.5 -2
v -9.5 19.5 -2
v -9.4 19.5 -2
v -9.3 19.5 -2
v 4.6 19.5 -2
v 4.8 19.5 -2
v 5.1 19.5 -2
v -12.8 19.5 -2.1
v -12.7 19.5 -2.1
v -8.4 19.5 -2.1
v -8.3 19.5 -2.1
v -8.2 19.5 -2.1
v -7.7 19.5 -2.1
v -7.6 19.5 -2.1
v -7.5 19.5 -2.1
v -2.8 19.5 -2.1
v -2.7 19.5 -2.1
v -2.6 19.5 -2.1
v 2.6 19.5 -2.1
v 2.7 19.5 -2.1
v 2.8 19.5 -2.1
v 4.8 19.5 -2.1
v 5.1 19.5 -2.1
v 5.4 19.5 -2.1
v 8.2 19.5 -2.1
v 8.3 19.5 -2.1
v 8.4 19.5 -2.1
v -9.4 19.5 -2.2
v -9.3 19.5 -2.2
v -8.7 19.5 -2.2
v -8.6 19.5 -2.2
v -8.5 19.5 -2.2
v -8.4 19.5 -2.2
v -8.3 19.5 -2.2
v -2.9 19.5 -2.2
v -2.8 19.5 -2.2
v -2.7 19.5 -2.2
v 1.3 19.5 -2.2
v 1.4 19.5 -2.2
v 1.5 19.5 -2.2
v 2.7 19.5 -2.2
v 2.8 19.5 -2.2
v 2.9 19.5 -2.2
v 4.5 19.5 -2.2
v 4.6 19.5 -2.2
v 4.7 19.5 -2.2
v 5.1 19.5 -2.2
v 5.4 19.5 -2.2
v 5.6 19.5 -2.2
v 5.7 19.5 -2.2
v 5.8 19.5 -2.2
v 7.6 19.5 -2.2
v 7.7 19.5 -2.2
v 7.8 19.5 -2.2
v 8.3 19.5 -2.2
v 8.4 19.5 -2.2
v 8.5 19.5 -2.2
v -12.8 19.5 -2.3
v -12.7 19.5 -2.3
v -11.3 19.5 -2.3
v -11.2 19.5 -2.3
v -11.1 19.5 -2.3
v -7.8 19.5 -2.3
v -7.7 19.5 -2.3
v -7.6 19.5 -2.3
v -3 19.5 -2.3
v -2.9 19.5 -2.3
v -2.8 19.5 -2.3
v 2.8 19.5 -2.3
v 2.9 19.5 -2.3
v 3 19.5 -2.3
v 5.4 19.5 -2.3
v 5.6 19.5 -2.3
v 5.7 19.5 -2.3
v 5.8 19.5 -2.3
v 5.9 19.5 -2.3
v -8.6 19.5 -2.4
v -8.5 19.5 -2.4
v -8.4 19.5 -2.4
v -3.1 19.5 -2.4
v -3 19.5 -2.4
v -2.9 19.5 -2.4
v 2.9 19.5 -2.4
v 3 19.5 -2.4
v 3.1 19.5 -2.4
v 5.6 19.5 -2.4
v 5.7 19.5 -2.4
v 5.8 19.5 -2.4
v 5.9 19.5 -2.4
v 6.2 19.5 -2.4
v 8.4 19.5 -2.4
v 8.5 19.5 -2.4
v 8.6 19.5 -2.4
v -11.4 19.5 -2.5
v -11.3 19.5 -2.5
v -11.2 19.5 -2.5
v -8.8 19.5 -2.5
v -8.7 19.5 -2.5
v -8.6 19.5 -2.5
v -3.2 19.5 -2.5
v -3.1 19.5 -2.5
v -3 19.5 -2.5
v 3 19.5 -2.5
v 3.1 19.5 -2.5
v 3.2 19.5 -2.5
v 5.9 19.5 -2.5
v 6.2 19.5 -2.5
v 6.5 19.5 -2.5
v -8.7 19.5 -2.6
v -8.6 19.5 -2.6
v -8.5 19.5 -2.6
v -7.9 19.5 -2.6
v -7.8 19.5 -2.6
v -7.7 19.5 -2.6
v -3.3 19.5 -2.6
v -3.2 19.5 -2.6
v -3.1 19.5 -2.6
v 3.1 19.5 -2.6
v 3.2 19.5 -2.6
v 3.3 19.5 -2.6
v 6.2 19.5 -2.6
v 6.5 19.5 -2.6
v 6.8 19.5 -2.6
v 8.5 19.5 -2.6
v 8.6 19.5 -2.6
v 8.7 19.5 -2.6
v 6.5 19.5 -2.7
v 6.8 19.5 -2.7
v 7.1 19.5 -2.7
v 7.7 19.5 -2.7
v 7.8 19.5 -2.7
v 7.9 19.5 -2.7
v -11.5 19.5 -2.8
v -11.4 19.5 -2.8
v -11.3 19.5 -2.8
v -8.9 19.5 -2.8
v -8.8 19.5 -2.8
v -8.7 19.5 -2.8
v -8.6 19.5 -2.8
v -3.4 19.5 -2.8
v -3.3 19.5 -2.8
v -3.2 19.5 -2.8
v 3.2 19.5 -2.8
v 3.3 19.5 -2.8
v 3.4 19.5 -2.8
v 5.7 19.5 -2.8
v 5.8 19.5 -2.8
v 5.9 19.5 -2.8
v 6.8 19.5 -2.8
v 7.1 19.5 -2.8
v 7.4 19.5 -2.8
v 8.6 19.5 -2.8
v 8.7 19.5 -2.8
v 8.8 19.5 -2.8
v -8 19.5 -2.9
v -7.9 19.5 -2.9
v -7.8 19.5 -2.9
v -3.5 19.5 -2.9
v -3.4 19.5 -2.9
v -3.3 19.5 -2.9
v 3.3 19.5 -2.9
v 3.4 19.5 -2.9
v 3.5 19.5 -2.9
v 7.1 19.5 -2.9
v 7.4 19.5 -2.9
v 7.7 19.5 -2.9
v -8.8 19.5 -3
v -8.7 19.5 -3
v -3.6 19.5 -3
v -3.5 19.5 -3
v -3.4 19.5 -3
v 3.4 19.5 -3
v 3.5 19.5 -3
v 3.6 19.5 -3
v 4.6 19.5 -3
v 4.7 19.5 -3
v 4.8 19.5 -3
v 7.4 19.5 -3
v 7.7 19.5 -3
v 7.8 19.5 -3
v 7.9 19.5 -3
v 8 19.5 -3
v 8.7 19.5 -3
v 8.8 19.5 -3
v 8.9 19.5 -3
v -11.6 19.5 -3.1
v -11.5 19.5 -3.1
v -11.4 19.5 -3.1
v -9 19.5 -3.1
v -8.9 19.5 -3.1
v 7.7 19.5 -3.1
v 7.8 19.5 -3.1
v 7.9 19.5 -3.1
v 8 19.5 -3.1
v 8.2 19.5 -3.1
v -8.9 19.5 -3.2
v -8.8 19.5 -3.2
v -8.1 19.5 -3.2
v -8 19.5 -3.2
v -7.9 19.5 -3.2
v -3.7 19.5 -3.2
v -3.6 19.5 -3.2
v -3.5 19.5 -3.2
v 3.5 19.5 -3.2
v 3.6 19.5 -3.2
v 3.7 19.5 -3.2
v 7.8 19.5 -3.2
v 7.9 19.5 -3.2
v 8 19.5 -3.2
v 8.2 19.5 -3.2
v 8.5 19.5 -3.2
v 8.8 19.5 -3.2
v 8.9 19.5 -3.2
v 9 19.5 -3.2
v -11.7 19.5 -3.3
v -11.6 19.5 -3.3
v -11.5 19.5 -3.3
v -3.8 19.5 -3.3
v -3.7 19.5 -3.3
v -3.6 19.5 -3.3
v 1.2 19.5 -3.3
v 1.3 19.5 -3.3
v 1.4 19.5 -3.3
v 3.6 19.5 -3.3
v 3.7 19.5 -3.3
v 3.8 19.5 -3.3
v 8.2 19.5 -3.3
v 8.5 19.5 -3.3
v 8.8 19.5 -3.3
v -9.1 19.5 -3.4
v -9 19.5 -3.4
v -8.2 19.5 -3.4
v -8.1 19.5 -3.4
v -8 19.5 -3.4
v 5.8 19.5 -3.4
v 5.9 19.5 -3.4
v 6 19.5 -3.4
v 8.5 19.5 -3.4
v 8.8 19.5 -3.4
v 8.9 19.5 -3.4
v 9 19.5 -3.4
v 9.1 19.5 -3.4
v -9.2 19.5 -3.5
v -9.1 19.5 -3.5
v -9 19.5 -3.5
v -8.9 19.5 -3.5
v -3.9 19.5 -3.5
v -3.8 19.5 -3.5
v -3.7 19.5 -3.5
v 3.7 19.5 -3.5
v 3.8 19.5 -3.5
v 3.9 19.5 -3.5
v 8.8 19.5 -3.5
v 9.1 19.5 -3.5
v 9.4 19.5 -3.5
v -11.8 19.5 -3.6
v -11.7 19.5 -3.6
v -11.6 19.5 -3.6
v -8.3 19.5 -3.6
v -8.2 19.5 -3.6
v -8.1 19.5 -3.6
v -4 19.5 -3.6
v -3.9 19.5 -3.6
v -3.8 19.5 -3.6
v 3.8 19.5 -3.6
v 3.9 19.5 -3.6
v 4 19.5 -3.6
v 7.9 19.5 -3.6
v 8 19.5 -3.6
v 8.1 19.5 -3.6
v 9.2 19.5 -3.6
v 9.4 19.5 -3.6
v 9.7 19.5 -3.6
v -9.3 19.5 -3.7
v -9.2 19.5 -3.7
v -9.1 19.5 -3.7
v -4.1 19.5 -3.7
v -4 19.5 -3.7
v -3.9 19.5 -3.7
v 3.9 19.5 -3.7
v 4 19.5 -3.7
v 4.1 19.5 -3.7
v 9.1 19.5 -3.7
v 9.2 19.5 -3.7
v 9.3 19.5 -3.7
v 9.4 19.5 -3.7
v 9.7 19.5 -3.7
v 10 19.5 -3.7
v -11.8 19.5 -3.8
v -11.7 19.5 -3.8
v -9.2 19.5 -3.8
v -9.1 19.5 -3.8
v -9 19.5 -3.8
v -8.4 19.5 -3.8
v -8.3 19.5 -3.8
v -8.2 19.5 -3.8
v 4.7 19.5 -3.8
v 4.8 19.5 -3.8
v 4.9 19.5 -3.8
v 9.7 19.5 -3.8
v 10 19.5 -3.8
v 10.3 19.5 -3.8
v -9.4 19.5 -3.9
v -9.3 19.5 -3.9
v -9.2 19.5 -3.9
v -4.3 19.5 -3.9
v -4.1 19.5 -3.9
v -4 19.5 -3.9
v 4 19.5 -3.9
v 4.1 19.5 -3.9
v 4.3 19.5 -3.9
v 8 19.5 -3.9
v 8.1 19.5 -3.9
v 9.2 19.5 -3.9
v 9.3 19.5 -3.9
v 9.4 19.5 -3.9
v 10 19.5 -3.9
v 10.3 19.5 -3.9
v 10.6 19.5 -3.9
v -12.8 19.5 -4
v -9.4 19.5 -4
v -9.3 19.5 -4
v -9.2 19.5 -4
v -9.1 19.5 -4
v -8.4 19.5 -4
v -8.3 19.5 -4
v -4.3 19.5 -4
v -4.1 19.5 -4
v 1.2 19.5 -4
v 1.3 19.5 -4
v 4.1 19.5 -4
v 4.3 19.5 -4
v 4.8 19.5 -4
v 4.9 19.5 -4
v 5.9 19.5 -4
v 6 19.5 -4
v 9.3 19.5 -4
v 9.4 19.5 -4
v 10.3 19.5 -4
v 10.6 19.5 -4
v 12.8 19.5 -4
v -12.8 20 -1
v -12.5 20 -1
v -12.2 20 -1
v -10.9 20 -1
v -10.8 20 -1
v -10.3 20 -1
v -10.1 20 -1
v -8.1 20 -1
v -8 20 -1
v -7.3 20 -1
v -6.1 20 -1
v -5.4 20 -1
v -5.2 20 -1
v -4.5 20 -1
v -4.3 20 -1
v 2 20 -1
v 2.2 20 -1
v 3.7 20 -1
v 3.9 20 -1
v 4.3 20 -1
v 4.5 20 -1
v 5.2 20 -1
v 5.3 20 -1
v 6 20 -1
v 6.7 20 -1
v 6.8 20 -1
v 12.8 20 -1
v -12.7 20 -1.1
v -12.5 20 -1.1
v -12.2 20 -1.1
v -10.9 20 -1.1
v -10.8 20 -1.1
v -10.5 20 -1.1
v -10.3 20 -1.1
v -10.1 20 -1.1
v -8.1 20 -1.1
v -8 20 -1.1
v -7.3 20 -1.1
v -6.1 20 -1.1
v -5.4 20 -1.1
v -5.3 20 -1.1
v -4.5 20 -1.1
v -4.3 20 -1.1
v 2 20 -1.1
v 2.2 20 -1.1
v 3.7 20 -1.1
v 3.9 20 -1.1
v 4.3 20 -1.1
v 4.5 20 -1.1
v 5.2 20 -1.1
v 5.3 20 -1.1
v 6 20 -1.1
v 6.7 20 -1.1
v 6.8 20 -1.1
v 6.9 20 -1.1
v -12.8 20 -1.2
v -12.7 20 -1.2
v -12.5 20 -1.2
v -10.6 20 -1.2
v -10.5 20 -1.2
v -10.3 20 -1.2
v 6.7 20 -1.2
v 6.9 20 -1.2
v 7 20 -1.2
v 12.7 20 -1.2
v 12.8 20 -1.2
v -10.8 20 -1.3
v -10.6 20 -1.3
v -10.5 20 -1.3
v -5.3 20 -1.3
v -5.2 20 -1.3
v -5.1 20 -1.3
v -4.2 20 -1.3
v -3.7 20 -1.3
v 3.7 20 -1.3
v 4.2 20 -1.3
v 6.9 20 -1.3
v 7 20 -1.3
v 7.2 20 -1.3
v 12.7 20 -1.3
v 12.8 20 -1.3
v -10.9 20 -1.4
v -10.8 20 -1.4
v -10.6 20 -1.4
v -4.2 20 -1.4
v -3.8 20 -1.4
v 3.8 20 -1.4
v 4.2 20 -1.4
v 7 20 -1.4
v 7.2 20 -1.4
v 7.3 20 -1.4
v -12.8 20 -1.5
v -12.7 20 -1.5
v -11 20 -1.5
v -10.9 20 -1.5
v -10.8 20 -1.5
v -5.2 20 -1.5
v -5.1 20 -1.5
v -3.7 20 -1.5
v -3.6 20 -1.5
v 3.6 20 -1.5
v 3.7 20 -1.5
v 7.2 20 -1.5
v 7.3 20 -1.5
v 7.4 20 -1.5
v 12.7 20 -1.5
v 12.8 20 -1.5
v -12.8 20 -1.6
v -12.7 20 -1.6
v -11.1 20 -1.6
v -11 20 -1.6
v -10.9 20 -1.6
v -3.8 20 -1.6
v -3.6 20 -1.6
v 3.6 20 -1.6
v 3.8 20 -1.6
v 7.3 20 -1.6
v 7.4 20 -1.6
v 7.5 20 -1.6
v 12.7 20 -1.6
v 12.8 20 -1.6
v -9.4 20 -1.7
v -8.6 20 -1.7
v -6.5 20 -1.7
v -5.6 20 -1.7
v 5.6 20 -1.7
v 6.5 20 -1.7
v 7.4 20 -1.7
v 7.5 20 -1.7
v 7.7 20 -1.7
v 8.6 20 -1.7
v 9.4 20 -1.7
v -11.2 20 -1.8
v -11.1 20 -1.8
v -11 20 -1.8
v -9.8 20 -1.8
v -9.4 20 -1.8
v -8.7 20 -1.8
v -8.6 20 -1.8
v -7.9 20 -1.8
v -6.5 20 -1.8
v -5.6 20 -1.8
v 5.6 20 -1.8
v 6.5 20 -1.8
v 7.5 20 -1.8
v 7.7 20 -1.8
v 7.8 20 -1.8
v 7.9 20 -1.8
v 8.6 20 -1.8
v 8.7 20 -1.8
v 9.4 20 -1.8
v 9.8 20 -1.8
v -10.4 20 -1.9
v -9.8 20 -1.9
v -9.7 20 -1.9
v -9.4 20 -1.9
v -8.7 20 -1.9
v -7.9 20 -1.9
v 7.7 20 -1.9
v 7.8 20 -1.9
v 7.9 20 -1.9
v 8 20 -1.9
v 8.7 20 -1.9
v 9.4 20 -1.9
v 9.7 20 -1.9
v 9.8 20 -1.9
v 10.4 20 -1.9
v -11.3 20 -2
v -11.2 20 -2
v -11.1 20 -2
v -10.4 20 -2
v -9.7 20 -2
v 7.8 20 -2
v 8 20 -2
v 8.2 20 -2
v 9.7 20 -2
v 10.4 20 -2
v -11.4 20 -2.1
v -11.3 20 -2.1
v -11.2 20 -2.1
v -3.4 20 -2.1
v -3.3 20 -2.1
v 3.3 20 -2.1
v 3.4 20 -2.1
v 8 20 -2.1
v 8.2 20 -2.1
v 8.3 20 -2.1
v -11.5 20 -2.2
v -11.4 20 -2.2
v -11.3 20 -2.2
v -3.7 20 -2.2
v -3.4 20 -2.2
v -3.3 20 -2.2
v -2.7 20 -2.2
v 2.7 20 -2.2
v 3.3 20 -2.2
v 3.4 20 -2.2
v 3.7 20 -2.2
v 8.2 20 -2.2
v 8.3 20 -2.2
v 8.5 20 -2.2
v -8.8 20 -2.3
v -8.4 20 -2.3
v -3.7 20 -2.3
v -3.4 20 -2.3
v -3.3 20 -2.3
v -2.7 20 -2.3
v -1.6 20 -2.3
v -1.4 20 -2.3
v 1.4 20 -2.3
v 1.6 20 -2.3
v 2.7 20 -2.3
v 3.3 20 -2.3
v 3.4 20 -2.3
v 3.7 20 -2.3
v 8.3 20 -2.3
v 8.4 20 -2.3
v 8.5 20 -2.3
v 8.6 20 -2.3
v 8.8 20 -2.3
v -11.6 20 -2.4
v -11.5 20 -2.4
v -11.4 20 -2.4
v -8.8 20 -2.4
v -8.4 20 -2.4
v -7.6 20 -2.4
v -1.7 20 -2.4
v -1.6 20 -2.4
v -1.5 20 -2.4
v -1.4 20 -2.4
v 1.4 20 -2.4
v 1.5 20 -2.4
v 1.6 20 -2.4
v 1.7 20 -2.4
v 7.6 20 -2.4
v 8.4 20 -2.4
v 8.5 20 -2.4
v 8.6 20 -2.4
v 8.7 20 -2.4
v 8.8 20 -2.4
v -11.7 20 -2.5
v -11.6 20 -2.5
v -11.5 20 -2.5
v -8.4 20 -2.5
v -7.6 20 -2.5
v -7.4 20 -2.5
v -1.6 20 -2.5
v -1.5 20 -2.5
v 1.5 20 -2.5
v 1.6 20 -2.5
v 7.4 20 -2.5
v 7.6 20 -2.5
v 8.4 20 -2.5
v 8.6 20 -2.5
v 8.7 20 -2.5
v 8.8 20 -2.5
v -11.2 20 -2.6
v -10.5 20 -2.6
v -7.6 20 -2.6
v -7.5 20 -2.6
v -7.4 20 -2.6
v -7.2 20 -2.6
v -1.8 20 -2.6
v -1.7 20 -2.6
v -1.6 20 -2.6
v 1.6 20 -2.6
v 1.7 20 -2.6
v 1.8 20 -2.6
v 7.2 20 -2.6
v 7.4 20 -2.6
v 7.5 20 -2.6
v 7.6 20 -2.6
v 8.7 20 -2.6
v 8.8 20 -2.6
v 8.9 20 -2.6
v 10.5 20 -2.6
v 11.2 20 -2.6
v -11.8 20 -2.7
v -11.7 20 -2.7
v -11.6 20 -2.7
v -11.3 20 -2.7
v -11.2 20 -2.7
v -11.1 20 -2.7
v -10.5 20 -2.7
v -7.5 20 -2.7
v -7.2 20 -2.7
v -0.700001 20 -2.7
v -0.6 20 -2.7
v 0.599999 20 -2.7
v 0.7 20 -2.7
v 7.2 20 -2.7
v 7.5 20 -2.7
v 8.8 20 -2.7
v 8.9 20 -2.7
v 9.1 20 -2.7
v 10.5 20 -2.7
v 11.1 20 -2.7
v 11.2 20 -2.7
v 11.3 20 -2.7
v -11.9 20 -2.8
v -11.8 20 -2.8
v -11.7 20 -2.8
v -11.5 20 -2.8
v -11.3 20 -2.8
v -11.1 20 -2.8
v -1.9 20 -2.8
v -1.8 20 -2.8
v -0.6 20 -2.8
v -0.5 20 -2.8
v 0.5 20 -2.8
v 0.599999 20 -2.8
v 1.8 20 -2.8
v 1.9 20 -2.8
v 8.9 20 -2.8
v 9.1 20 -2.8
v 9.3 20 -2.8
v 11.1 20 -2.8
v 11.3 20 -2.8
v 11.5 20 -2.8
v -11.7 20 -2.9
v -11.5 20 -2.9
v -11.4 20 -2.9
v -11.3 20 -2.9
v -1.8 20 -2.9
v -1.7 20 -2.9
v -0.700001 20 -2.9
v -0.6 20 -2.9
v 0.599999 20 -2.9
v 0.7 20 -2.9
v 1.7 20 -2.9
v 1.8 20 -2.9
v 9.1 20 -2.9
v 9.3 20 -2.9
v 9.4 20 -2.9
v 11.3 20 -2.9
v 11.4 20 -2.9
v 11.5 20 -2.9
v 11.7 20 -2.9
v -12 20 -3
v -11.9 20 -3
v -11.8 20 -3
v -11.7 20 -3
v -11.6 20 -3
v -11.4 20 -3
v -3.9 20 -3
v -3.6 20 -3
v 9.3 20 -3
v 9.4 20 -3
v 9.5 20 -3
v 11.4 20 -3
v 11.6 20 -3
v 11.7 20 -3
v 11.8 20 -3
v -12.1 20 -3.1
v -12 20 -3.1
v -11.9 20 -3.1
v -11.8 20 -3.1
v -11.7 20 -3.1
v -11.6 20 -3.1
v -5.8 20 -3.1
v -5.6 20 -3.1
v -4.3 20 -3.1
v -3.9 20 -3.1
v -3.7 20 -3.1
v -3.6 20 -3.1
v -3.4 20 -3.1
v -1.9 20 -3.1
v -1.8 20 -3.1
v 1.8 20 -3.1
v 1.9 20 -3.1
v 3.6 20 -3.1
v 3.7 20 -3.1
v 5.6 20 -3.1
v 5.8 20 -3.1
v 9.4 20 -3.1
v 9.5 20 -3.1
v 9.7 20 -3.1
v 11.6 20 -3.1
v 11.7 20 -3.1
v 11.8 20 -3.1
v 11.9 20 -3.1
v -12 20 -3.2
v -11.9 20 -3.2
v -11.8 20 -3.2
v -11.7 20 -3.2
v -11.6 20 -3.2
v -7 20 -3.2
v -5.8 20 -3.2
v -5.7 20 -3.2
v -5.6 20 -3.2
v -4.6 20 -3.2
v -4.3 20 -3.2
v -3.9 20 -3.2
v -3.6 20 -3.2
v -3.4 20 -3.2
v -2.9 20 -3.2
v -0.6 20 -3.2
v -0.5 20 -3.2
v 0.5 20 -3.2
v 0.599999 20 -3.2
v 5.6 20 -3.2
v 5.7 20 -3.2
v 5.8 20 -3.2
v 7 20 -3.2
v 9.5 20 -3.2
v 9.7 20 -3.2
v 9.8 20 -3.2
v 11.7 20 -3.2
v 11.8 20 -3.2
v 11.9 20 -3.2
v 12 20 -3.2
v -12.2 20 -3.3
v -12.1 20 -3.3
v -12 20 -3.3
v -11.9 20 -3.3
v -11.8 20 -3.3
v -11.6 20 -3.3
v -11.4 20 -3.3
v -11.2 20 -3.3
v -11.1 20 -3.3
v -7.3 20 -3.3
v -7 20 -3.3
v -5.7 20 -3.3
v -4.8 20 -3.3
v -4.6 20 -3.3
v -4.3 20 -3.3
v -3.7 20 -3.3
v -3.6 20 -3.3
v -3.4 20 -3.3
v -2.9 20 -3.3
v -2.6 20 -3.3
v 3.6 20 -3.3
v 3.7 20 -3.3
v 5.7 20 -3.3
v 7 20 -3.3
v 7.3 20 -3.3
v 9.7 20 -3.3
v 9.8 20 -3.3
v 10 20 -3.3
v 11.8 20 -3.3
v 11.9 20 -3.3
v 12 20 -3.3
v 12.1 20 -3.3
v -12 20 -3.4
v -11.9 20 -3.4
v -11.7 20 -3.4
v -11.5 20 -3.4
v -11.4 20 -3.4
v -11.2 20 -3.4
v -11.1 20 -3.4
v -11 20 -3.4
v -7.3 20 -3.4
v -7 20 -3.4
v -5.3 20 -3.4
v -4.8 20 -3.4
v -4.6 20 -3.4
v -2.9 20 -3.4
v -2.6 20 -3.4
v -2.3 20 -3.4
v 7 20 -3.4
v 7.3 20 -3.4
v 9.8 20 -3.4
v 10 20 -3.4
v 10.2 20 -3.4
v 11.9 20 -3.4
v 12 20 -3.4
v 12.1 20 -3.4
v 12.2 20 -3.4
v -12.3 20 -3.5
v -12.2 20 -3.5
v -12.1 20 -3.5
v -12 20 -3.5
v -11.5 20 -3.5
v -11.2 20 -3.5
v -11 20 -3.5
v -10.9 20 -3.5
v -5.2 20 -3.5
v -4.8 20 -3.5
v -2.6 20 -3.5
v -2.3 20 -3.5
v -2.1 20 -3.5
v 10 20 -3.5
v 10.2 20 -3.5
v 10.4 20 -3.5
v 12 20 -3.5
v 12.1 20 -3.5
v -12.2 20 -3.6
v -12.1 20 -3.6
v -11.1 20 -3.6
v -10.9 20 -3.6
v -10.6 20 -3.6
v -5.4 20 -3.6
v -5.3 20 -3.6
v -5.2 20 -3.6
v -2.3 20 -3.6
v -2.1 20 -3.6
v -1.8 20 -3.6
v 10.2 20 -3.6
v 10.4 20 -3.6
v 10.5 20 -3.6
v 12.1 20 -3.6
v 12.2 20 -3.6
v -12.4 20 -3.7
v -12.3 20 -3.7
v -12.2 20 -3.7
v -10.9 20 -3.7
v -10.6 20 -3.7
v -10.2 20 -3.7
v -5.5 20 -3.7
v -5.4 20 -3.7
v -5.3 20 -3.7
v -2.1 20 -3.7
v -1.8 20 -3.7
v -1.5 20 -3.7
v 10.4 20 -3.7
v 10.5 20 -3.7
v 10.7 20 -3.7
v -10.6 20 -3.8
v -10.2 20 -3.8
v -10 20 -3.8
v -5.6 20 -3.8
v -5.5 20 -3.8
v -5.4 20 -3.8
v -1.8 20 -3.8
v -1.5 20 -3.8
v -1.1 20 -3.8
v 10.5 20 -3.8
v 10.7 20 -3.8
v 10.8 20 -3.8
v -10.2 20 -3.9
v -10 20 -3.9
v -9.6 20 -3.9
v -9.4 20 -3.9
v -4.5 20 -3.9
v -4.3 20 -3.9
v -1.5 20 -3.9
v -1.1 20 -3.9
v -0.8 20 -3.9
v 4.3 20 -3.9
v 4.5 20 -3.9
v 9.4 20 -3.9
v 9.6 20 -3.9
v 10.7 20 -3.9
v 10.8 20 -3.9
v -12.8 20 -4
v -12.4 20 -4
v -12.3 20 -4
v -10 20 -4
v -9.6 20 -4
v -9.4 20 -4
v -5.6 20 -4
v -5.5 20 -4
v -4.5 20 -4
v -4.3 20 -4
v -1.1 20 -4
v -0.8 20 -4
v 4.3 20 -4
v 4.5 20 -4
v 9.4 20 -4
v 9.6 20 -4
v 12.8 20 -4

# faces
f 9/1/1 2/1/1 1/1/1
f 9/2/1 3/2/1 2/2/1
f 10/1/1 4/1/1 3/1/1
f 10/2/1 3/2/1 9/2/1
f 11/2/1 5/2/1 4/2/1
f 11/1/1 4/1/1 10/1/1
f 12/1/1 6/1/1 5/1/1
f 12/2/1 5/2/1 11/2/1
f 13/1/1 6/1/1 12/1/1
f 14/4/1 7/4/1 6/4/1
f 14/1/1 6/1/1 13/1/1
f 15/1/1 8/1/1 7/1/1
f 15/4/1 7/4/1 14/4/1
f 16/1/1 13/1/1 12/1/1
f 16/1/1 10/1/1 9/1/1
f 16/1/1 11/1/1 10/1/1
f 16/1/1 12/1/1 11/1/1
f 17/4/1 14/4/1 13/4/1
f 17/1/1 13/1/1 16/1/1
f 18/1/1 15/1/1 14/1/1
f 18/4/1 14/4/1 17/4/1
f 19/1/1 16/1/1 9/1/1
f 20/4/1 17/4/1 16/4/1
f 20/1/1 16/1/1 19/1/1
f 21/1/1 18/1/1 17/1/1
f 21/4/1 17/4/1 20/4/1
f 22/1/1 9/1/1 1/1/1
f 22/1/1 19/1/1 9/1/1
f 23/4/1 20/4/1 19/4/1
f 23/1/1 19/1/1 22/1/1
f 24/4/1 20/4/1 23/4/1
f 25/1/1 21/1/1 20/1/1
f 25/4/1 20/4/1 24/4/1
f 26/1/1 22/1/1 1/1/1
f 27/4/1 23/4/1 22/4/1
f 27/1/1 22/1/1 26/1/1
f 28/2/1 24/2/1 23/2/1
f 28/4/1 23/4/1 27/4/1
f 29/1/1 25/1/1 24/1/1
f 29/2/1 24/2/1 28/2/1
f 30/1/1 15/1/1 18/1/1
f 30/1/1 25/1/1 29/1/1
f 30/1/1 8/1/1 15/1/1
f 30/1/1 18/1/1 21/1/1
f 30/1/1 21/1/1 25/1/1
f 31/1/2 32/1/2 37/1/2
f 32/2/2 33/2/2 37/2/2
f 33/1/2 34/1/2 38/1/2
f 37/2/2 33/2/2 38/2/2
f 34/2/2 35/2/2 39/2/2
f 38/1/2 34/1/2 39/1/2
f 35/1/2 36/1/2 40/1/2
f 39/2/2 35/2/2 40/2/2
f 38/1/2 39/1/2 41/1/2
f 37/1/2 38/1/2 41/1/2
f 39/1/2 40/1/2 41/1/2
f 31/1/2 37/1/2 41/1/2
f 41/1/2 40/1/2 42/1/2
f 42/1/2 40/1/2 43/1/2
f 40/1/2 36/1/2 44/1/2
f 43/1/2 40/1/2 44/1/2
f 31/1/2 41/1/2 45/1/2
f 41/2/2 42/2/2 46/2/2
f 45/1/2 41/1/2 46/1/2
f 42/1/2 43/1/2 47/1/2
f 46/2/2 42/2/2 47/2/2
f 43/2/2 44/2/2 48/2/2
f 47/1/2 43/1/2 48/1/2
f 44/1/2 36/1/2 49/1/2
f 48/2/2 44/2/2 49/2/2
f 49/1/2 36/1/2 50/1/2
f 53/1/3 52/1/3 51/1/3
f 54/1/3 52/1/3 53/1/3
f 55/1/3 53/1/3 51/1/3
f 56/4/3 54/4/3 53/4/3
f 56/1/3 53/1/3 55/1/3
f 57/4/3 54/4/3 56/4/3
f 58/1/3 55/1/3 51/1/3
f 59/4/3 56/4/3 55/4/3
f 59/1/3 55/1/3 58/1/3
f 60/1/3 57/1/3 56/1/3
f 60/4/3 56/4/3 59/4/3
f 61/1/3 58/1/3 51/1/3
f 62/4/3 59/4/3 58/4/3
f 62/1/3 58/1/3 61/1/3
f 63/1/3 60/1/3 59/1/3
f 63/4/3 59/4/3 62/4/3
f 64/1/3 61/1/3 51/1/3
f 65/4/3 62/4/3 61/4/3
f 65/1/3 61/1/3 64/1/3
f 66/1/3 63/1/3 62/1/3
f 66/4/3 62/4/3 65/4/3
f 67/4/3 65/4/3 64/4/3
f 68/1/3 66/1/3 65/1/3
f 68/4/3 65/4/3 67/4/3
f 69/1/3 57/1/3 60/1/3
f 69/1/3 66/1/3 68/1/3
f 69/1/3 68/1/3 67/1/3
f 69/1/3 60/1/3 63/1/3
f 69/1/3 63/1/3 66/1/3
f 70/1/3 57/1/3 69/1/3
f 71/1/3 69/1/3 67/1/3
f 72/3/3 70/3/3 69/3/3
f 72/1/3 69/1/3 71/1/3
f 73/3/3 70/3/3 72/3/3
f 74/3/3 72/3/3 71/3/3
f 75/1/3 73/1/3 72/1/3
f 75/3/3 72/3/3 74/3/3
f 76/1/3 75/1/3 74/1/3
f 76/1/3 73/1/3 75/1/3
f 77/1/3 73/1/3 76/1/3
f 78/1/3 76/1/3 74/1/3
f 79/1/3 76/1/3 78/1/3
f 80/1/3 76/1/3 79/1/3
f 81/4/3 77/4/3 76/4/3
f 81/1/3 76/1/3 80/1/3
f 82/4/3 77/4/3 81/4/3
f 83/1/3 80/1/3 79/1/3
f 84/4/3 81/4/3 80/4/3
f 84/1/3 80/1/3 83/1/3
f 85/1/3 82/1/3 81/1/3
f 85/4/3 81/4/3 84/4/3
f 86/3/3 79/3/3 78/3/3
f 86/1/3 83/1/3 79/1/3
f 87/4/3 84/4/3 83/4/3
f 87/1/3 83/1/3 86/1/3
f 88/1/3 85/1/3 84/1/3
f 88/4/3 84/4/3 87/4/3
f 89/3/3 86/3/3 78/3/3
f 90/4/3 87/4/3 86/4/3
f 90/3/3 86/3/3 89/3/3
f 91/1/3 88/1/3 87/1/3
f 91/4/3 87/4/3 90/4/3
f 92/4/3 90/4/3 89/4/3
f 93/3/3 91/3/3 90/3/3
f 93/4/3 90/4/3 92/4/3
f 94/1/3 93/1/3 92/1/3
f 94/3/3 91/3/3 93/3/3
f 95/1/3 88/1/3 91/1/3
f 95/3/3 91/3/3 94/3/3
f 96/1/3 85/1/3 88/1/3
f 96/1/3 88/1/3 95/1/3
f 97/1/3 95/1/3 94/1/3
f 97/1/3 94/1/3 92/1/3
f 98/1/3 95/1/3 97/1/3
f 99/3/3 98/3/3 97/3/3
f 100/1/3 95/1/3 98/1/3
f 100/3/3 98/3/3 99/3/3
f 101/3/3 96/3/3 95/3/3
f 101/1/3 95/1/3 100/1/3
f 102/1/3 100/1/3 99/1/3
f 102/3/3 101/3/3 100/3/3
f 103/1/3 85/1/3 96/1/3
f 103/3/3 101/3/3 102/3/3
f 103/3/3 96/3/3 101/3/3
f 104/1/3 82/1/3 85/1/3
f 104/1/3 85/1/3 103/1/3
f 105/3/3 104/3/3 103/3/3
f 106/3/3 104/3/3 105/3/3
f 107/1/3 103/1/3 102/1/3
f 107/1/3 102/1/3 99/1/3
f 108/1/3 103/1/3 107/1/3
f 109/3/3 105/3/3 103/3/3
f 109/1/3 103/1/3 108/1/3
f 110/1/3 106/1/3 105/1/3
f 110/3/3 105/3/3 109/3/3
f 111/1/3 106/1/3 110/1/3
f 112/3/3 108/3/3 107/3/3
f 113/1/3 109/1/3 108/1/3
f 113/3/3 108/3/3 112/3/3
f 113/1/3 110/1/3 109/1/3
f 114/1/3 110/1/3 113/1/3
f 115/1/3 113/1/3 112/1/3
f 115/3/3 114/3/3 113/3/3
f 116/1/3 110/1/3 114/1/3
f 116/3/3 114/3/3 115/3/3
f 117/1/3 110/1/3 116/1/3
f 118/1/3 116/1/3 115/1/3
f 118/3/3 117/3/3 116/3/3
f 119/1/3 110/1/3 117/1/3
f 119/3/3 117/3/3 118/3/3
f 120/3/3 111/3/3 110/3/3
f 120/1/3 110/1/3 119/1/3
f 121/1/3 119/1/3 118/1/3
f 121/3/3 120/3/3 119/3/3
f 122/3/3 111/3/3 120/3/3
f 122/3/3 120/3/3 121/3/3
f 123/1/3 122/1/3 121/1/3
f 123/3/3 111/3/3 122/3/3
f 124/3/3 111/3/3 123/3/3
f 125/1/3 121/1/3 118/1/3
f 125/1/3 115/1/3 112/1/3
f 125/1/3 124/1/3 123/1/3
f 125/1/3 123/1/3 121/1/3
f 125/1/3 118/1/3 115/1/3
f 126/1/3 124/1/3 125/1/3
f 127/3/3 126/3/3 125/3/3
f 128/1/3 124/1/3 126/1/3
f 128/3/3 126/3/3 127/3/3
f 129/1/3 124/1/3 128/1/3
f 130/1/3 128/1/3 127/1/3
f 130/3/3 129/3/3 128/3/3
f 131/1/3 124/1/3 129/1/3
f 131/3/3 129/3/3 130/3/3
f 132/1/3 124/1/3 131/1/3
f 133/1/3 131/1/3 130/1/3
f 133/3/3 132/3/3 131/3/3
f 134/1/3 124/1/3 132/1/3
f 134/3/3 132/3/3 133/3/3
f 135/1/3 124/1/3 134/1/3
f 136/1/3 134/1/3 133/1/3
f 136/3/3 135/3/3 134/3/3
f 137/3/3 135/3/3 136/3/3
f 138/1/3 130/1/3 127/1/3
f 138/1/3 133/1/3 130/1/3
f 138/1/3 137/1/3 136/1/3
f 138/1/3 136/1/3 133/1/3
f 139/1/3 137/1/3 138/1/3
f 140/3/3 139/3/3 138/3/3
f 141/3/3 139/3/3 140/3/3
f 142/1/3 137/1/3 139/1/3
f 142/3/3 139/3/3 141/3/3
f 143/1/3 137/1/3 142/1/3
f 144/1/3 141/1/3 140/1/3
f 144/3/3 142/3/3 141/3/3
f 144/3/3 143/3/3 142/3/3
f 145/3/3 143/3/3 144/3/3
f 146/1/3 145/1/3 144/1/3
f 146/3/3 143/3/3 145/3/3
f 147/3/3 143/3/3 146/3/3
f 148/1/3 144/1/3 140/1/3
f 148/1/3 146/1/3 144/1/3
f 148/1/3 147/1/3 146/1/3
f 149/1/3 147/1/3 148/1/3
f 150/3/3 149/3/3 148/3/3
f 151/1/3 147/1/3 149/1/3
f 151/3/3 149/3/3 150/3/3
f 152/1/3 151/1/3 150/1/3
f 153/1/3 147/1/3 151/1/3
f 153/1/3 151/1/3 152/1/3
f 154/3/3 153/3/3 152/3/3
f 155/1/3 147/1/3 153/1/3
f 155/3/3 153/3/3 154/3/3
f 156/1/3 147/1/3 155/1/3
f 157/1/3 155/1/3 154/1/3
f 157/3/3 156/3/3 155/3/3
f 158/1/3 147/1/3 156/1/3
f 158/3/3 156/3/3 157/3/3
f 159/1/3 147/1/3 158/1/3
f 160/1/3 158/1/3 157/1/3
f 160/3/3 159/3/3 158/3/3
f 161/1/3 147/1/3 159/1/3
f 161/3/3 159/3/3 160/3/3
f 162/1/3 147/1/3 161/1/3
f 163/1/3 157/1/3 154/1/3
f 163/1/3 160/1/3 157/1/3
f 163/1/3 161/1/3 160/1/3
f 164/1/3 161/1/3 163/1/3
f 165/3/3 164/3/3 163/3/3
f 166/1/3 161/1/3 164/1/3
f 166/3/3 164/3/3 165/3/3
f 167/3/3 162/3/3 161/3/3
f 167/1/3 161/1/3 166/1/3
f 168/1/3 147/1/3 162/1/3
f 168/3/3 162/3/3 167/3/3
f 169/1/3 147/1/3 168/1/3
f 170/1/3 167/1/3 166/1/3
f 170/1/3 166/1/3 165/1/3
f 170/1/3 168/1/3 167/1/3
f 171/1/3 168/1/3 170/1/3
f 172/3/3 169/3/3 168/3/3
f 172/1/3 168/1/3 171/1/3
f 173/3/3 169/3/3 172/3/3
f 174/3/3 171/3/3 170/3/3
f 175/1/3 172/1/3 171/1/3
f 175/3/3 171/3/3 174/3/3
f 175/1/3 173/1/3 172/1/3
f 176/1/3 173/1/3 175/1/3
f 177/1/3 175/1/3 174/1/3
f 177/3/3 176/3/3 175/3/3
f 178/1/3 173/1/3 176/1/3
f 178/3/3 176/3/3 177/3/3
f 179/1/3 173/1/3 178/1/3
f 180/1/3 178/1/3 177/1/3
f 180/3/3 179/3/3 178/3/3
f 181/1/3 173/1/3 179/1/3
f 181/3/3 179/3/3 180/3/3
f 182/1/3 173/1/3 181/1/3
f 183/1/3 181/1/3 180/1/3
f 183/3/3 182/3/3 181/3/3
f 184/1/3 173/1/3 182/1/3
f 184/3/3 182/3/3 183/3/3
f 185/1/3 173/1/3 184/1/3
f 186/1/3 183/1/3 180/1/3
f 186/1/3 184/1/3 183/1/3
f 187/3/3 185/3/3 184/3/3
f 187/1/3 184/1/3 186/1/3
f 188/3/3 185/3/3 187/3/3
f 189/1/3 180/1/3 177/1/3
f 189/1/3 186/1/3 180/1/3
f 190/3/3 187/3/3 186/3/3
f 190/1/3 186/1/3 189/1/3
f 191/1/3 188/1/3 187/1/3
f 191/3/3 187/3/3 190/3/3
f 192/1/3 177/1/3 174/1/3
f 192/1/3 189/1/3 177/1/3
f 193/1/3 189/1/3 192/1/3
f 194/4/3 193/4/3 192/4/3
f 194/1/3 189/1/3 193/1/3
f 195/3/3 190/3/3 189/3/3
f 195/1/3 189/1/3 194/1/3
f 196/1/3 191/1/3 190/1/3
f 196/3/3 190/3/3 195/3/3
f 197/1/3 188/1/3 191/1/3
f 197/1/3 191/1/3 196/1/3
f 198/1/3 188/1/3 197/1/3
f 199/1/3 196/1/3 195/1/3
f 199/3/3 195/3/3 194/3/3
f 199/1/3 197/1/3 196/1/3
f 200/3/3 198/3/3 197/3/3
f 200/1/3 197/1/3 199/1/3
f 201/3/3 199/3/3 194/3/3
f 201/3/3 200/3/3 199/3/3
f 202/3/3 198/3/3 200/3/3
f 202/3/3 200/3/3 201/3/3
f 203/4/3 194/4/3 192/4/3
f 204/3/3 201/3/3 194/3/3
f 204/4/3 194/4/3 203/4/3
f 205/1/3 202/1/3 201/1/3
f 205/3/3 201/3/3 204/3/3
f 206/1/3 204/1/3 203/1/3
f 206/4/3 205/4/3 204/4/3
f 207/1/3 202/1/3 205/1/3
f 207/4/3 205/4/3 206/4/3
f 208/1/3 202/1/3 207/1/3
f 209/1/3 202/1/3 208/1/3
f 210/1/3 202/1/3 209/1/3
f 211/4/3 208/4/3 207/4/3
f 211/1/3 209/1/3 208/1/3
f 212/3/3 210/3/3 209/3/3
f 212/1/3 209/1/3 211/1/3
f 213/3/3 210/3/3 212/3/3
f 214/1/3 206/1/3 203/1/3
f 214/1/3 207/1/3 206/1/3
f 215/4/3 211/4/3 207/4/3
f 215/1/3 207/1/3 214/1/3
f 216/3/3 212/3/3 211/3/3
f 216/4/3 211/4/3 215/4/3
f 217/1/3 213/1/3 212/1/3
f 217/3/3 212/3/3 216/3/3
f 218/1/3 214/1/3 203/1/3
f 219/3/3 215/3/3 214/3/3
f 219/1/3 214/1/3 218/1/3
f 220/4/3 216/4/3 215/4/3
f 220/3/3 215/3/3 219/3/3
f 221/1/3 217/1/3 216/1/3
f 221/4/3 216/4/3 220/4/3
f 222/1/3 213/1/3 217/1/3
f 222/1/3 217/1/3 221/1/3
f 223/3/3 219/3/3 218/3/3
f 224/1/3 221/1/3 220/1/3
f 224/3/3 219/3/3 223/3/3
f 224/1/3 220/1/3 219/1/3
f 225/4/3 222/4/3 221/4/3
f 225/1/3 221/1/3 224/1/3
f 225/1/3 224/1/3 223/1/3
f 226/1/3 213/1/3 222/1/3
f 226/4/3 222/4/3 225/4/3
f 227/1/3 213/1/3 226/1/3
f 228/1/3 226/1/3 225/1/3
f 228/4/3 227/4/3 226/4/3
f 229/4/3 227/4/3 228/4/3
f 230/1/3 225/1/3 223/1/3
f 230/1/3 228/1/3 225/1/3
f 231/3/3 229/3/3 228/3/3
f 231/1/3 228/1/3 230/1/3
f 232/3/3 229/3/3 231/3/3
f 233/1/3 230/1/3 223/1/3
f 234/3/3 231/3/3 230/3/3
f 234/1/3 230/1/3 233/1/3
f 235/1/3 232/1/3 231/1/3
f 235/3/3 231/3/3 234/3/3
f 236/1/3 233/1/3 223/1/3
f 237/3/3 234/3/3 233/3/3
f 237/1/3 233/1/3 236/1/3
f 238/1/3 235/1/3 234/1/3
f 238/3/3 234/3/3 237/3/3
f 239/1/3 236/1/3 223/1/3
f 240/3/3 237/3/3 236/3/3
f 240/1/3 236/1/3 239/1/3
f 241/1/3 238/1/3 237/1/3
f 241/3/3 237/3/3 240/3/3
f 242/3/3 240/3/3 239/3/3
f 243/1/3 241/1/3 240/1/3
f 243/3/3 240/3/3 242/3/3
f 244/1/3 243/1/3 242/1/3
f 245/1/3 232/1/3 235/1/3
f 245/1/3 243/1/3 244/1/3
f 245/1/3 235/1/3 238/1/3
f 245/1/3 241/1/3 243/1/3
f 245/1/3 238/1/3 241/1/3
f 246/1/4 247/1/4 248/1/4
f 248/1/4 247/1/4 249/1/4
f 246/1/4 248/1/4 250/1/4
f 248/4/4 249/4/4 250/4/4
f 250/4/4 249/4/4 251/4/4
f 246/1/4 250/1/4 252/1/4
f 250/1/4 251/1/4 252/1/4
f 252/1/4 251/1/4 253/1/4
f 246/1/4 252/1/4 254/1/4
f 252/4/4 253/4/4 254/4/4
f 254/4/4 253/4/4 255/4/4
f 246/1/4 254/1/4 256/1/4
f 254/3/4 255/3/4 257/3/4
f 256/1/4 254/1/4 257/1/4
f 246/1/4 256/1/4 258/1/4
f 256/3/4 257/3/4 259/3/4
f 258/1/4 256/1/4 259/1/4
f 257/3/4 255/3/4 260/3/4
f 259/3/4 257/3/4 260/3/4
f 258/3/4 259/3/4 261/3/4
f 259/1/4 260/1/4 262/1/4
f 261/3/4 259/3/4 262/3/4
f 261/1/4 262/1/4 263/1/4
f 263/1/4 262/1/4 264/1/4
f 263/3/4 264/3/4 265/3/4
f 264/1/4 262/1/4 266/1/4
f 265/3/4 264/3/4 266/3/4
f 265/1/4 266/1/4 267/1/4
f 266/1/4 262/1/4 268/1/4
f 267/1/4 266/1/4 268/1/4
f 267/3/4 268/3/4 269/3/4
f 268/1/4 262/1/4 270/1/4
f 269/3/4 268/3/4 270/3/4
f 262/1/4 260/1/4 271/1/4
f 270/1/4 262/1/4 271/1/4
f 269/1/4 270/1/4 271/1/4
f 271/1/4 260/1/4 272/1/4
f 269/1/4 271/1/4 273/1/4
f 271/4/4 272/4/4 273/4/4
f 273/4/4 272/4/4 274/4/4
f 269/1/4 273/1/4 275/1/4
f 273/1/4 274/1/4 275/1/4
f 275/1/4 274/1/4 276/1/4
f 269/1/4 275/1/4 277/1/4
f 275/3/4 276/3/4 278/3/4
f 277/1/4 275/1/4 278/1/4
f 269/1/4 277/1/4 279/1/4
f 277/3/4 278/3/4 280/3/4
f 279/1/4 277/1/4 280/1/4
f 278/3/4 276/3/4 281/3/4
f 280/3/4 278/3/4 281/3/4
f 279/3/4 280/3/4 282/3/4
f 280/1/4 281/1/4 283/1/4
f 282/3/4 280/3/4 283/3/4
f 279/3/4 282/3/4 284/3/4
f 282/1/4 283/1/4 285/1/4
f 284/3/4 282/3/4 285/3/4
f 283/1/4 281/1/4 286/1/4
f 285/1/4 283/1/4 286/1/4
f 284/1/4 285/1/4 286/1/4
f 286/1/4 281/1/4 287/1/4
f 284/1/4 286/1/4 288/1/4
f 286/4/4 287/4/4 288/4/4
f 288/4/4 287/4/4 289/4/4
f 284/1/4 288/1/4 290/1/4
f 288/1/4 289/1/4 290/1/4
f 290/1/4 289/1/4 291/1/4
f 290/3/4 291/3/4 292/3/4
f 291/1/4 289/1/4 293/1/4
f 292/3/4 291/3/4 293/3/4
f 292/1/4 293/1/4 294/1/4
f 293/1/4 289/1/4 295/1/4
f 294/1/4 293/1/4 295/1/4
f 294/3/4 295/3/4 296/3/4
f 295/1/4 289/1/4 296/1/4
f 296/1/4 289/1/4 297/1/4
f 294/3/4 296/3/4 298/3/4
f 296/3/4 297/3/4 298/3/4
f 297/1/4 289/1/4 299/1/4
f 298/3/4 297/3/4 299/3/4
f 299/1/4 289/1/4 300/1/4
f 298/1/4 299/1/4 301/1/4
f 299/3/4 300/3/4 301/3/4
f 301/3/4 300/3/4 302/3/4
f 301/1/4 302/1/4 303/1/4
f 302/3/4 300/3/4 303/3/4
f 303/3/4 300/3/4 304/3/4
f 298/1/4 301/1/4 305/1/4
f 301/1/4 303/1/4 305/1/4
f 303/1/4 304/1/4 305/1/4
f 305/1/4 304/1/4 306/1/4
f 305/3/4 306/3/4 307/3/4
f 306/1/4 304/1/4 308/1/4
f 307/3/4 306/3/4 308/3/4
f 307/1/4 308/1/4 309/1/4
f 308/1/4 304/1/4 310/1/4
f 309/1/4 308/1/4 310/1/4
f 309/3/4 310/3/4 311/3/4
f 310/1/4 304/1/4 312/1/4
f 311/3/4 310/3/4 312/3/4
f 311/1/4 312/1/4 313/1/4
f 312/1/4 304/1/4 314/1/4
f 313/1/4 312/1/4 314/1/4
f 313/3/4 314/3/4 315/3/4
f 314/1/4 304/1/4 316/1/4
f 315/3/4 314/3/4 316/3/4
f 316/1/4 304/1/4 317/1/4
f 315/1/4 316/1/4 318/1/4
f 316/3/4 317/3/4 318/3/4
f 318/3/4 317/3/4 319/3/4
f 318/1/4 319/1/4 320/1/4
f 319/3/4 317/3/4 320/3/4
f 320/3/4 317/3/4 321/3/4
f 315/1/4 318/1/4 322/1/4
f 318/1/4 320/1/4 322/1/4
f 320/1/4 321/1/4 322/1/4
f 322/1/4 321/1/4 323/1/4
f 322/3/4 323/3/4 324/3/4
f 323/1/4 321/1/4 325/1/4
f 324/3/4 323/3/4 325/3/4
f 324/1/4 325/1/4 326/1/4
f 325/1/4 321/1/4 327/1/4
f 326/1/4 325/1/4 327/1/4
f 359/1/5 329/1/5 328/1/5
f 359/4/5 330/4/5 329/4/5
f 360/1/5 331/1/5 330/1/5
f 360/4/5 330/4/5 359/4/5
f 361/1/5 333/1/5 332/1/5
f 361/3/5 334/3/5 333/3/5
f 362/3/5 334/3/5 361/3/5
f 363/3/5 334/3/5 362/3/5
f 364/4/5 335/4/5 334/4/5
f 364/3/5 334/3/5 363/3/5
f 365/1/5 336/1/5 335/1/5
f 365/4/5 335/4/5 364/4/5
f 366/1/5 338/1/5 337/1/5
f 367/1/5 338/1/5 366/1/5
f 368/1/5 340/1/5 339/1/5
f 368/3/5 341/3/5 340/3/5
f 369/1/5 342/1/5 341/1/5
f 369/3/5 341/3/5 368/3/5
f 370/3/5 343/3/5 342/3/5
f 370/1/5 342/1/5 369/1/5
f 371/1/5 344/1/5 343/1/5
f 371/3/5 343/3/5 370/3/5
f 372/1/5 344/1/5 371/1/5
f 373/3/5 345/3/5 344/3/5
f 373/1/5 344/1/5 372/1/5
f 374/1/5 346/1/5 345/1/5
f 374/3/5 345/3/5 373/3/5
f 375/3/5 347/3/5 346/3/5
f 375/1/5 346/1/5 374/1/5
f 376/1/5 348/1/5 347/1/5
f 376/3/5 347/3/5 375/3/5
f 377/3/5 349/3/5 348/3/5
f 377/1/5 348/1/5 376/1/5
f 378/1/5 350/1/5 349/1/5
f 378/3/5 349/3/5 377/3/5
f 379/1/5 350/1/5 378/1/5
f 380/3/5 351/3/5 350/3/5
f 380/1/5 350/1/5 379/1/5
f 381/3/5 351/3/5 380/3/5
f 382/1/5 352/1/5 351/1/5
f 382/3/5 351/3/5 381/3/5
f 383/1/5 352/1/5 382/1/5
f 384/4/5 353/4/5 352/4/5
f 384/1/5 352/1/5 383/1/5
f 385/1/5 354/1/5 353/1/5
f 385/4/5 353/4/5 384/4/5
f 386/3/5 355/3/5 354/3/5
f 386/1/5 354/1/5 385/1/5
f 387/1/5 356/1/5 355/1/5
f 387/3/5 355/3/5 386/3/5
f 388/3/5 357/3/5 356/3/5
f 388/1/5 356/1/5 387/1/5
f 389/3/5 357/3/5 388/3/5
f 390/1/5 358/1/5 357/1/5
f 391/1/5 358/1/5 390/1/5
f 392/1/5 359/1/5 328/1/5
f 392/1/5 360/1/5 359/1/5
f 393/1/5 360/1/5 392/1/5
f 394/1/5 331/1/5 360/1/5
f 394/1/5 360/1/5 393/1/5
f 395/3/5 332/3/5 331/3/5
f 395/1/5 331/1/5 394/1/5
f 396/1/5 361/1/5 332/1/5
f 396/3/5 332/3/5 395/3/5
f 396/1/5 362/1/5 361/1/5
f 397/3/5 363/3/5 362/3/5
f 397/1/5 362/1/5 396/1/5
f 398/1/5 364/1/5 363/1/5
f 398/3/5 363/3/5 397/3/5
f 398/1/5 365/1/5 364/1/5
f 399/1/5 365/1/5 398/1/5
f 400/1/5 336/1/5 365/1/5
f 400/1/5 365/1/5 399/1/5
f 401/3/5 337/3/5 336/3/5
f 401/1/5 336/1/5 400/1/5
f 402/1/5 366/1/5 337/1/5
f 402/3/5 337/3/5 401/3/5
f 403/1/5 338/1/5 367/1/5
f 404/3/5 339/3/5 338/3/5
f 404/1/5 338/1/5 403/1/5
f 405/1/5 368/1/5 339/1/5
f 405/3/5 339/3/5 404/3/5
f 405/1/5 369/1/5 368/1/5
f 405/1/5 370/1/5 369/1/5
f 405/1/5 372/1/5 371/1/5
f 405/1/5 371/1/5 370/1/5
f 406/1/5 381/1/5 380/1/5
f 406/3/5 383/3/5 382/3/5
f 406/1/5 380/1/5 379/1/5
f 406/3/5 382/3/5 381/3/5
f 407/1/5 387/1/5 386/1/5
f 407/3/5 383/3/5 406/3/5
f 407/1/5 389/1/5 388/1/5
f 407/1/5 384/1/5 383/1/5
f 407/1/5 388/1/5 387/1/5
f 407/1/5 385/1/5 384/1/5
f 407/1/5 386/1/5 385/1/5
f 408/1/5 389/1/5 407/1/5
f 409/1/5 358/1/5 391/1/5
f 410/1/5 358/1/5 409/1/5
f 411/2/5 393/2/5 392/2/5
f 412/1/5 394/1/5 393/1/5
f 412/2/5 393/2/5 411/2/5
f 413/1/5 366/1/5 402/1/5
f 413/1/5 402/1/5 401/1/5
f 414/3/5 367/3/5 366/3/5
f 414/1/5 366/1/5 413/1/5
f 415/1/5 403/1/5 367/1/5
f 415/3/5 367/3/5 414/3/5
f 416/1/5 372/1/5 405/1/5
f 416/1/5 405/1/5 404/1/5
f 417/3/5 373/3/5 372/3/5
f 417/1/5 372/1/5 416/1/5
f 418/1/5 378/1/5 377/1/5
f 418/3/5 373/3/5 417/3/5
f 418/1/5 374/1/5 373/1/5
f 418/1/5 375/1/5 374/1/5
f 418/1/5 376/1/5 375/1/5
f 418/1/5 377/1/5 376/1/5
f 419/3/5 379/3/5 378/3/5
f 419/1/5 378/1/5 418/1/5
f 420/1/5 406/1/5 379/1/5
f 420/3/5 379/3/5 419/3/5
f 420/1/5 407/1/5 406/1/5
f 421/1/5 407/1/5 420/1/5
f 422/3/5 408/3/5 407/3/5
f 422/1/5 407/1/5 421/1/5
f 423/1/5 389/1/5 408/1/5
f 423/3/5 408/3/5 422/3/5
f 424/1/5 389/1/5 423/1/5
f 425/3/5 357/3/5 389/3/5
f 425/1/5 389/1/5 424/1/5
f 426/1/5 390/1/5 357/1/5
f 426/3/5 357/3/5 425/3/5
f 427/1/5 390/1/5 426/1/5
f 428/3/5 391/3/5 390/3/5
f 428/1/5 390/1/5 427/1/5
f 429/1/5 409/1/5 391/1/5
f 429/3/5 391/3/5 428/3/5
f 430/1/5 409/1/5 429/1/5
f 431/2/5 410/2/5 409/2/5
f 431/1/5 409/1/5 430/1/5
f 432/2/5 410/2/5 431/2/5
f 433/1/5 396/1/5 395/1/5
f 433/1/5 397/1/5 396/1/5
f 433/3/5 399/3/5 398/3/5
f 433/1/5 398/1/5 397/1/5
f 434/1/5 400/1/5 399/1/5
f 434/3/5 399/3/5 433/3/5
f 435/1/5 400/1/5 434/1/5
f 436/1/5 416/1/5 404/1/5
f 437/3/5 417/3/5 416/3/5
f 437/1/5 416/1/5 436/1/5
f 438/1/5 419/1/5 418/1/5
f 438/3/5 417/3/5 437/3/5
f 438/1/5 418/1/5 417/1/5
f 438/1/5 420/1/5 419/1/5
f 439/3/5 421/3/5 420/3/5
f 439/1/5 420/1/5 438/1/5
f 440/1/5 422/1/5 421/1/5
f 440/3/5 421/3/5 439/3/5
f 440/1/5 423/1/5 422/1/5
f 441/1/5 423/1/5 440/1/5
f 442/3/5 424/3/5 423/3/5
f 442/1/5 423/1/5 441/1/5
f 443/1/5 425/1/5 424/1/5
f 443/3/5 424/3/5 442/3/5
f 443/1/5 426/1/5 425/1/5
f 444/1/5 426/1/5 443/1/5
f 445/1/5 412/1/5 411/1/5
f 446/1/5 394/1/5 412/1/5
f 446/1/5 412/1/5 445/1/5
f 447/1/5 394/1/5 446/1/5
f 448/3/5 395/3/5 394/3/5
f 448/1/5 394/1/5 447/1/5
f 449/1/5 433/1/5 395/1/5
f 449/3/5 395/3/5 448/3/5
f 449/1/5 434/1/5 433/1/5
f 450/3/5 435/3/5 434/3/5
f 450/1/5 434/1/5 449/1/5
f 451/1/5 400/1/5 435/1/5
f 451/3/5 435/3/5 450/3/5
f 452/1/5 400/1/5 451/1/5
f 453/1/5 400/1/5 452/1/5
f 454/3/5 401/3/5 400/3/5
f 454/1/5 400/1/5 453/1/5
f 455/1/5 413/1/5 401/1/5
f 455/3/5 401/3/5 454/3/5
f 456/1/5 413/1/5 455/1/5
f 457/3/5 414/3/5 413/3/5
f 457/1/5 413/1/5 456/1/5
f 458/1/5 415/1/5 414/1/5
f 458/3/5 414/3/5 457/3/5
f 459/1/5 403/1/5 415/1/5
f 459/1/5 415/1/5 458/1/5
f 460/3/5 404/3/5 403/3/5
f 460/1/5 403/1/5 459/1/5
f 461/1/5 436/1/5 404/1/5
f 461/3/5 404/3/5 460/3/5
f 462/1/5 436/1/5 461/1/5
f 463/3/5 437/3/5 436/3/5
f 463/1/5 436/1/5 462/1/5
f 464/1/5 439/1/5 438/1/5
f 464/3/5 437/3/5 463/3/5
f 464/1/5 438/1/5 437/1/5
f 464/1/5 440/1/5 439/1/5
f 465/3/5 441/3/5 440/3/5
f 465/1/5 440/1/5 464/1/5
f 466/1/5 442/1/5 441/1/5
f 466/3/5 441/3/5 465/3/5
f 466/1/5 443/1/5 442/1/5
f 467/1/5 443/1/5 466/1/5
f 468/3/5 444/3/5 443/3/5
f 468/1/5 443/1/5 467/1/5
f 469/1/5 426/1/5 444/1/5
f 469/3/5 444/3/5 468/3/5
f 470/1/5 426/1/5 469/1/5
f 471/1/5 429/1/5 428/1/5
f 471/3/5 430/3/5 429/3/5
f 471/1/5 428/1/5 427/1/5
f 472/1/5 432/1/5 431/1/5
f 472/3/5 430/3/5 471/3/5
f 472/1/5 431/1/5 430/1/5
f 473/1/5 432/1/5 472/1/5
f 474/1/5 432/1/5 473/1/5
f 475/1/5 432/1/5 474/1/5
f 476/2/5 446/2/5 445/2/5
f 477/1/5 447/1/5 446/1/5
f 477/2/5 446/2/5 476/2/5
f 478/1/5 450/1/5 449/1/5
f 478/1/5 449/1/5 448/1/5
f 478/3/5 452/3/5 451/3/5
f 478/1/5 451/1/5 450/1/5
f 479/1/5 453/1/5 452/1/5
f 479/3/5 452/3/5 478/3/5
f 480/1/5 453/1/5 479/1/5
f 481/1/5 464/1/5 463/1/5
f 481/1/5 466/1/5 465/1/5
f 481/1/5 465/1/5 464/1/5
f 482/1/5 466/1/5 481/1/5
f 483/1/5 468/1/5 467/1/5
f 483/3/5 470/3/5 469/3/5
f 483/1/5 469/1/5 468/1/5
f 484/1/5 426/1/5 470/1/5
f 484/3/5 470/3/5 483/3/5
f 485/1/5 426/1/5 484/1/5
f 486/2/5 475/2/5 474/2/5
f 486/1/5 474/1/5 473/1/5
f 487/2/5 475/2/5 486/2/5
f 488/1/5 447/1/5 477/1/5
f 488/1/5 477/1/5 476/1/5
f 489/3/5 448/3/5 447/3/5
f 489/1/5 447/1/5 488/1/5
f 490/1/5 478/1/5 448/1/5
f 490/3/5 448/3/5 489/3/5
f 490/1/5 479/1/5 478/1/5
f 491/3/5 480/3/5 479/3/5
f 491/1/5 479/1/5 490/1/5
f 492/1/5 453/1/5 480/1/5
f 492/3/5 480/3/5 491/3/5
f 493/1/5 453/1/5 492/1/5
f 494/1/5 456/1/5 455/1/5
f 494/1/5 455/1/5 454/1/5
f 495/3/5 457/3/5 456/3/5
f 495/1/5 456/1/5 494/1/5
f 496/1/5 459/1/5 458/1/5
f 496/3/5 457/3/5 495/3/5
f 496/1/5 458/1/5 457/1/5
f 497/1/5 462/1/5 461/1/5
f 497/1/5 461/1/5 460/1/5
f 498/3/5 463/3/5 462/3/5
f 498/1/5 462/1/5 497/1/5
f 499/1/5 481/1/5 463/1/5
f 499/3/5 463/3/5 498/3/5
f 500/1/5 466/1/5 482/1/5
f 500/3/5 467/3/5 466/3/5
f 501/1/5 483/1/5 467/1/5
f 501/3/5 467/3/5 500/3/5
f 501/1/5 484/1/5 483/1/5
f 502/1/5 484/1/5 501/1/5
f 503/3/5 485/3/5 484/3/5
f 503/1/5 484/1/5 502/1/5
f 504/1/5 426/1/5 485/1/5
f 504/3/5 485/3/5 503/3/5
f 505/1/5 426/1/5 504/1/5
f 506/1/5 426/1/5 505/1/5
f 507/1/5 426/1/5 506/1/5
f 508/1/5 472/1/5 471/1/5
f 508/3/5 473/3/5 472/3/5
f 509/1/5 487/1/5 486/1/5
f 509/3/5 473/3/5 508/3/5
f 509/1/5 486/1/5 473/1/5
f 510/1/5 487/1/5 509/1/5
f 511/1/5 459/1/5 496/1/5
f 511/1/5 496/1/5 495/1/5
f 512/3/5 460/3/5 459/3/5
f 512/1/5 459/1/5 511/1/5
f 513/1/5 497/1/5 460/1/5
f 513/3/5 460/3/5 512/3/5
f 514/1/5 497/1/5 513/1/5
f 515/3/5 498/3/5 497/3/5
f 515/1/5 497/1/5 514/1/5
f 516/1/5 499/1/5 498/1/5
f 516/3/5 498/3/5 515/3/5
f 517/3/5 502/3/5 501/3/5
f 517/1/5 501/1/5 500/1/5
f 518/1/5 503/1/5 502/1/5
f 518/3/5 502/3/5 517/3/5
f 518/1/5 504/1/5 503/1/5
f 519/1/5 504/1/5 518/1/5
f 520/3/5 505/3/5 504/3/5
f 520/1/5 504/1/5 519/1/5
f 521/1/5 506/1/5 505/1/5
f 521/3/5 505/3/5 520/3/5
f 522/3/5 507/3/5 506/3/5
f 522/1/5 506/1/5 521/1/5
f 523/1/5 426/1/5 507/1/5
f 524/1/5 426/1/5 523/1/5
f 525/3/5 427/3/5 426/3/5
f 525/1/5 426/1/5 524/1/5
f 526/1/5 471/1/5 427/1/5
f 526/3/5 427/3/5 525/3/5
f 526/1/5 508/1/5 471/1/5
f 526/1/5 509/1/5 508/1/5
f 527/1/5 509/1/5 526/1/5
f 528/1/5 491/1/5 490/1/5
f 528/1/5 490/1/5 489/1/5
f 528/1/5 492/1/5 491/1/5
f 528/3/5 493/3/5 492/3/5
f 529/1/5 453/1/5 493/1/5
f 529/3/5 493/3/5 528/3/5
f 530/1/5 453/1/5 529/1/5
f 531/1/5 453/1/5 530/1/5
f 532/3/5 454/3/5 453/3/5
f 532/1/5 453/1/5 531/1/5
f 533/1/5 494/1/5 454/1/5
f 533/3/5 454/3/5 532/3/5
f 534/1/5 494/1/5 533/1/5
f 535/3/5 495/3/5 494/3/5
f 535/1/5 494/1/5 534/1/5
f 536/1/5 511/1/5 495/1/5
f 536/3/5 495/3/5 535/3/5
f 537/1/5 514/1/5 513/1/5
f 537/1/5 513/1/5 512/1/5
f 538/3/5 515/3/5 514/3/5
f 538/1/5 514/1/5 537/1/5
f 539/1/5 516/1/5 515/1/5
f 539/3/5 515/3/5 538/3/5
f 540/1/5 518/1/5 517/1/5
f 540/3/5 519/3/5 518/3/5
f 541/1/5 520/1/5 519/1/5
f 541/3/5 519/3/5 540/3/5
f 541/1/5 521/1/5 520/1/5
f 542/1/5 521/1/5 541/1/5
f 543/3/5 522/3/5 521/3/5
f 543/1/5 521/1/5 542/1/5
f 544/3/5 507/3/5 522/3/5
f 544/3/5 522/3/5 543/3/5
f 545/1/5 523/1/5 507/1/5
f 545/3/5 507/3/5 544/3/5
f 546/1/5 523/1/5 545/1/5
f 547/1/5 509/1/5 527/1/5
f 547/3/5 510/3/5 509/3/5
f 548/1/5 487/1/5 510/1/5
f 548/3/5 510/3/5 547/3/5
f 549/1/5 487/1/5 548/1/5
f 550/1/5 488/1/5 476/1/5
f 551/3/5 489/3/5 488/3/5
f 551/1/5 488/1/5 550/1/5
f 552/1/5 528/1/5 489/1/5
f 552/3/5 489/3/5 551/3/5
f 552/1/5 529/1/5 528/1/5
f 553/3/5 530/3/5 529/3/5
f 553/1/5 529/1/5 552/1/5
f 554/1/5 531/1/5 530/1/5
f 554/3/5 530/3/5 553/3/5
f 555/1/5 531/1/5 554/1/5
f 556/3/5 546/3/5 545/3/5
f 556/3/5 545/3/5 544/3/5
f 557/1/5 523/1/5 546/1/5
f 557/3/5 546/3/5 556/3/5
f 558/1/5 523/1/5 557/1/5
f 559/1/5 550/1/5 476/1/5
f 560/1/5 550/1/5 559/1/5
f 561/1/5 534/1/5 533/1/5
f 561/1/5 533/1/5 532/1/5
f 562/3/5 535/3/5 534/3/5
f 562/1/5 534/1/5 561/1/5
f 563/1/5 536/1/5 535/1/5
f 563/3/5 535/3/5 562/3/5
f 564/1/5 511/1/5 536/1/5
f 564/1/5 536/1/5 563/1/5
f 565/3/5 512/3/5 511/3/5
f 565/1/5 511/1/5 564/1/5
f 566/1/5 537/1/5 512/1/5
f 566/3/5 512/3/5 565/3/5
f 567/1/5 537/1/5 566/1/5
f 568/3/5 538/3/5 537/3/5
f 568/1/5 537/1/5 567/1/5
f 569/1/5 539/1/5 538/1/5
f 569/3/5 538/3/5 568/3/5
f 570/3/5 542/3/5 541/3/5
f 570/1/5 541/1/5 540/1/5
f 571/1/5 544/1/5 543/1/5
f 571/3/5 542/3/5 570/3/5
f 571/1/5 543/1/5 542/1/5
f 572/1/5 544/1/5 571/1/5
f 573/1/5 557/1/5 556/1/5
f 573/3/5 558/3/5 557/3/5
f 574/1/5 523/1/5 558/1/5
f 574/3/5 558/3/5 573/3/5
f 575/1/5 523/1/5 574/1/5
f 576/3/5 549/3/5 548/3/5
f 576/1/5 548/1/5 547/1/5
f 577/1/5 487/1/5 549/1/5
f 577/3/5 549/3/5 576/3/5
f 578/1/5 487/1/5 577/1/5
f 579/1/5 553/1/5 552/1/5
f 579/1/5 552/1/5 551/1/5
f 579/3/5 555/3/5 554/3/5
f 579/1/5 554/1/5 553/1/5
f 580/1/5 531/1/5 555/1/5
f 580/3/5 555/3/5 579/3/5
f 581/1/5 531/1/5 580/1/5
f 582/3/5 532/3/5 531/3/5
f 582/1/5 531/1/5 581/1/5
f 583/1/5 561/1/5 532/1/5
f 583/3/5 532/3/5 582/3/5
f 584/3/5 562/3/5 561/3/5
f 584/1/5 561/1/5 583/1/5
f 585/1/5 564/1/5 563/1/5
f 585/3/5 562/3/5 584/3/5
f 585/1/5 563/1/5 562/1/5
f 586/1/5 566/1/5 565/1/5
f 586/1/5 567/1/5 566/1/5
f 587/3/5 568/3/5 567/3/5
f 587/1/5 567/1/5 586/1/5
f 588/1/5 569/1/5 568/1/5
f 588/3/5 568/3/5 587/3/5
f 589/1/5 481/1/5 499/1/5
f 589/1/5 569/1/5 588/1/5
f 589/1/5 516/1/5 539/1/5
f 589/1/5 499/1/5 516/1/5
f 589/1/5 539/1/5 569/1/5
f 590/3/5 482/3/5 481/3/5
f 590/1/5 481/1/5 589/1/5
f 591/1/5 500/1/5 482/1/5
f 591/3/5 482/3/5 590/3/5
f 591/1/5 570/1/5 540/1/5
f 591/1/5 540/1/5 517/1/5
f 591/1/5 571/1/5 570/1/5
f 591/1/5 517/1/5 500/1/5
f 592/3/5 572/3/5 571/3/5
f 592/1/5 571/1/5 591/1/5
f 593/1/5 544/1/5 572/1/5
f 593/3/5 572/3/5 592/3/5
f 594/1/5 544/1/5 593/1/5
f 595/3/5 556/3/5 544/3/5
f 595/1/5 544/1/5 594/1/5
f 596/1/5 573/1/5 556/1/5
f 596/3/5 556/3/5 595/3/5
f 596/1/5 574/1/5 573/1/5
f 597/1/5 574/1/5 596/1/5
f 598/3/5 575/3/5 574/3/5
f 598/1/5 574/1/5 597/1/5
f 599/1/5 523/1/5 575/1/5
f 599/3/5 575/3/5 598/3/5
f 600/3/5 524/3/5 523/3/5
f 600/1/5 523/1/5 599/1/5
f 601/1/5 525/1/5 524/1/5
f 601/3/5 524/3/5 600/3/5
f 601/1/5 526/1/5 525/1/5
f 602/1/5 526/1/5 601/1/5
f 603/3/5 527/3/5 526/3/5
f 603/1/5 526/1/5 602/1/5
f 604/1/5 547/1/5 527/1/5
f 604/3/5 527/3/5 603/3/5
f 604/1/5 576/1/5 547/1/5
f 604/1/5 577/1/5 576/1/5
f 605/1/5 577/1/5 604/1/5
f 606/3/5 578/3/5 577/3/5
f 606/1/5 577/1/5 605/1/5
f 607/1/5 487/1/5 578/1/5
f 607/3/5 578/3/5 606/3/5
f 608/1/5 487/1/5 607/1/5
f 609/4/5 560/4/5 559/4/5
f 610/1/5 550/1/5 560/1/5
f 610/4/5 560/4/5 609/4/5
f 611/1/5 550/1/5 610/1/5
f 612/3/5 551/3/5 550/3/5
f 612/1/5 550/1/5 611/1/5
f 613/1/5 580/1/5 579/1/5
f 613/3/5 551/3/5 612/3/5
f 613/1/5 579/1/5 551/1/5
f 613/1/5 581/1/5 580/1/5
f 614/1/5 564/1/5 585/1/5
f 614/1/5 585/1/5 584/1/5
f 615/3/5 565/3/5 564/3/5
f 615/1/5 564/1/5 614/1/5
f 616/1/5 586/1/5 565/1/5
f 616/3/5 565/3/5 615/3/5
f 617/1/5 586/1/5 616/1/5
f 618/3/5 587/3/5 586/3/5
f 618/1/5 586/1/5 617/1/5
f 619/1/5 588/1/5 587/1/5
f 619/3/5 587/3/5 618/3/5
f 619/1/5 589/1/5 588/1/5
f 620/3/5 594/3/5 593/3/5
f 620/1/5 592/1/5 591/1/5
f 620/1/5 593/1/5 592/1/5
f 620/1/5 591/1/5 590/1/5
f 621/1/5 596/1/5 595/1/5
f 621/3/5 594/3/5 620/3/5
f 621/1/5 595/1/5 594/1/5
f 622/1/5 596/1/5 621/1/5
f 623/1/5 599/1/5 598/1/5
f 623/3/5 600/3/5 599/3/5
f 623/1/5 598/1/5 597/1/5
f 624/1/5 601/1/5 600/1/5
f 624/3/5 600/3/5 623/3/5
f 625/3/5 602/3/5 601/3/5
f 625/1/5 601/1/5 624/1/5
f 626/1/5 603/1/5 602/1/5
f 626/3/5 602/3/5 625/3/5
f 626/1/5 604/1/5 603/1/5
f 627/1/5 604/1/5 626/1/5
f 628/3/5 582/3/5 581/3/5
f 628/1/5 583/1/5 582/1/5
f 629/3/5 584/3/5 583/3/5
f 629/1/5 583/1/5 628/1/5
f 630/1/5 614/1/5 584/1/5
f 630/3/5 584/3/5 629/3/5
f 631/1/5 616/1/5 615/1/5
f 631/1/5 617/1/5 616/1/5
f 632/3/5 618/3/5 617/3/5
f 632/1/5 617/1/5 631/1/5
f 633/1/5 619/1/5 618/1/5
f 633/3/5 618/3/5 632/3/5
f 634/3/5 622/3/5 621/3/5
f 634/1/5 621/1/5 620/1/5
f 635/1/5 596/1/5 622/1/5
f 635/3/5 622/3/5 634/3/5
f 636/1/5 596/1/5 635/1/5
f 637/3/5 625/3/5 624/3/5
f 637/1/5 624/1/5 623/1/5
f 637/3/5 627/3/5 626/3/5
f 637/3/5 626/3/5 625/3/5
f 638/3/5 627/3/5 637/3/5
f 639/3/5 627/3/5 638/3/5
f 640/1/5 604/1/5 627/1/5
f 640/3/5 627/3/5 639/3/5
f 641/1/5 604/1/5 640/1/5
f 642/1/5 606/1/5 605/1/5
f 642/3/5 608/3/5 607/3/5
f 642/1/5 607/1/5 606/1/5
f 643/1/5 487/1/5 608/1/5
f 643/3/5 608/3/5 642/3/5
f 644/1/5 487/1/5 643/1/5
f 645/1/5 611/1/5 610/1/5
f 645/1/5 610/1/5 609/1/5
f 646/3/5 612/3/5 611/3/5
f 646/1/5 611/1/5 645/1/5
f 647/1/5 613/1/5 612/1/5
f 647/3/5 612/3/5 646/3/5
f 648/1/5 581/1/5 613/1/5
f 648/1/5 613/1/5 647/1/5
f 649/3/5 628/3/5 581/3/5
f 649/1/5 581/1/5 648/1/5
f 649/3/5 629/3/5 628/3/5
f 650/3/5 629/3/5 649/3/5
f 651/1/5 631/1/5 615/1/5
f 652/3/5 632/3/5 631/3/5
f 652/1/5 631/1/5 651/1/5
f 653/1/5 633/1/5 632/1/5
f 653/3/5 632/3/5 652/3/5
f 654/3/5 636/3/5 635/3/5
f 654/1/5 635/1/5 634/1/5
f 655/1/5 596/1/5 636/1/5
f 655/3/5 636/3/5 654/3/5
f 656/1/5 596/1/5 655/1/5
f 657/3/5 641/3/5 640/3/5
f 657/1/5 640/1/5 639/1/5
f 658/1/5 604/1/5 641/1/5
f 658/3/5 641/3/5 657/3/5
f 659/1/5 604/1/5 658/1/5
f 660/3/5 649/3/5 648/3/5
f 660/1/5 650/1/5 649/1/5
f 661/3/5 629/3/5 650/3/5
f 661/1/5 650/1/5 660/1/5
f 662/1/5 630/1/5 629/1/5
f 662/3/5 629/3/5 661/3/5
f 663/1/5 614/1/5 630/1/5
f 663/1/5 630/1/5 662/1/5
f 664/3/5 615/3/5 614/3/5
f 664/1/5 614/1/5 663/1/5
f 665/1/5 651/1/5 615/1/5
f 665/3/5 615/3/5 664/3/5
f 666/1/5 651/1/5 665/1/5
f 667/3/5 652/3/5 651/3/5
f 667/1/5 651/1/5 666/1/5
f 668/1/5 653/1/5 652/1/5
f 668/3/5 652/3/5 667/3/5
f 669/3/5 656/3/5 655/3/5
f 669/1/5 655/1/5 654/1/5
f 670/1/5 596/1/5 656/1/5
f 670/3/5 656/3/5 669/3/5
f 671/1/5 596/1/5 670/1/5
f 672/3/5 659/3/5 658/3/5
f 672/1/5 658/1/5 657/1/5
f 673/1/5 604/1/5 659/1/5
f 673/3/5 659/3/5 672/3/5
f 674/1/5 604/1/5 673/1/5
f 675/3/5 644/3/5 643/3/5
f 675/1/5 643/1/5 642/1/5
f 676/1/5 487/1/5 644/1/5
f 676/3/5 644/3/5 675/3/5
f 677/1/5 487/1/5 676/1/5
f 678/3/5 674/3/5 673/3/5
f 678/1/5 673/1/5 672/1/5
f 679/1/5 604/1/5 674/1/5
f 679/3/5 674/3/5 678/3/5
f 680/1/5 604/1/5 679/1/5
f 681/3/5 605/3/5 604/3/5
f 681/1/5 604/1/5 680/1/5
f 682/1/5 675/1/5 642/1/5
f 682/3/5 605/3/5 681/3/5
f 682/1/5 642/1/5 605/1/5
f 682/1/5 676/1/5 675/1/5
f 683/1/5 676/1/5 682/1/5
f 684/1/5 645/1/5 609/1/5
f 685/3/5 646/3/5 645/3/5
f 685/1/5 645/1/5 684/1/5
f 686/1/5 648/1/5 647/1/5
f 686/3/5 646/3/5 685/3/5
f 686/1/5 647/1/5 646/1/5
f 687/1/5 648/1/5 686/1/5
f 688/3/5 660/3/5 648/3/5
f 688/1/5 648/1/5 687/1/5
f 688/3/5 661/3/5 660/3/5
f 689/3/5 661/3/5 688/3/5
f 690/1/5 662/1/5 661/1/5
f 690/3/5 661/3/5 689/3/5
f 690/1/5 663/1/5 662/1/5
f 691/1/5 666/1/5 665/1/5
f 691/1/5 665/1/5 664/1/5
f 692/3/5 667/3/5 666/3/5
f 692/1/5 666/1/5 691/1/5
f 693/1/5 668/1/5 667/1/5
f 693/3/5 667/3/5 692/3/5
f 694/3/5 671/3/5 670/3/5
f 694/1/5 670/1/5 669/1/5
f 695/1/5 596/1/5 671/1/5
f 695/3/5 671/3/5 694/3/5
f 696/1/5 596/1/5 695/1/5
f 697/3/5 639/3/5 638/3/5
f 697/1/5 638/1/5 637/1/5
f 698/1/5 657/1/5 639/1/5
f 698/3/5 639/3/5 697/3/5
f 698/1/5 678/1/5 672/1/5
f 698/1/5 679/1/5 678/1/5
f 698/1/5 672/1/5 657/1/5
f 699/1/5 679/1/5 698/1/5
f 700/3/5 680/3/5 679/3/5
f 700/1/5 679/1/5 699/1/5
f 701/1/5 681/1/5 680/1/5
f 701/3/5 680/3/5 700/3/5
f 701/1/5 682/1/5 681/1/5
f 702/1/5 682/1/5 701/1/5
f 703/1/5 676/1/5 683/1/5
f 703/3/5 677/3/5 676/3/5
f 704/1/5 487/1/5 677/1/5
f 704/3/5 677/3/5 703/3/5
f 705/1/5 487/1/5 704/1/5
f 706/1/5 663/1/5 690/1/5
f 706/1/5 690/1/5 689/1/5
f 707/3/5 664/3/5 663/3/5
f 707/1/5 663/1/5 706/1/5
f 708/1/5 691/1/5 664/1/5
f 708/3/5 664/3/5 707/3/5
f 709/1/5 691/1/5 708/1/5
f 710/3/5 692/3/5 691/3/5
f 710/1/5 691/1/5 709/1/5
f 711/1/5 693/1/5 692/1/5
f 711/3/5 692/3/5 710/3/5
f 712/1/5 695/1/5 694/1/5
f 712/3/5 696/3/5 695/3/5
f 713/1/5 596/1/5 696/1/5
f 713/3/5 696/3/5 712/3/5
f 714/1/5 596/1/5 713/1/5
f 715/1/5 700/1/5 699/1/5
f 715/3/5 702/3/5 701/3/5
f 715/1/5 701/1/5 700/1/5
f 716/1/5 682/1/5 702/1/5
f 716/3/5 702/3/5 715/3/5
f 717/1/5 682/1/5 716/1/5
f 718/3/5 689/3/5 688/3/5
f 718/3/5 688/3/5 687/3/5
f 719/1/5 706/1/5 689/1/5
f 719/3/5 689/3/5 718/3/5
f 720/1/5 709/1/5 708/1/5
f 720/1/5 708/1/5 707/1/5
f 721/3/5 710/3/5 709/3/5
f 721/1/5 709/1/5 720/1/5
f 722/1/5 711/1/5 710/1/5
f 722/3/5 710/3/5 721/3/5
f 723/3/5 714/3/5 713/3/5
f 723/1/5 713/1/5 712/1/5
f 724/1/5 596/1/5 714/1/5
f 724/3/5 714/3/5 723/3/5
f 725/1/5 596/1/5 724/1/5
f 726/3/5 597/3/5 596/3/5
f 726/1/5 596/1/5 725/1/5
f 727/1/5 623/1/5 597/1/5
f 727/3/5 597/3/5 726/3/5
f 727/1/5 697/1/5 637/1/5
f 727/1/5 698/1/5 697/1/5
f 727/1/5 637/1/5 623/1/5
f 728/1/5 698/1/5 727/1/5
f 729/1/5 716/1/5 715/1/5
f 729/3/5 717/3/5 716/3/5
f 730/1/5 682/1/5 717/1/5
f 730/3/5 717/3/5 729/3/5
f 731/3/5 683/3/5 682/3/5
f 731/1/5 682/1/5 730/1/5
f 732/1/5 703/1/5 683/1/5
f 732/3/5 683/3/5 731/3/5
f 732/1/5 704/1/5 703/1/5
f 733/1/5 704/1/5 732/1/5
f 734/3/5 705/3/5 704/3/5
f 734/1/5 704/1/5 733/1/5
f 735/1/5 487/1/5 705/1/5
f 735/3/5 705/3/5 734/3/5
f 736/1/5 487/1/5 735/1/5
f 737/1/5 684/1/5 609/1/5
f 738/3/5 685/3/5 684/3/5
f 738/1/5 684/1/5 737/1/5
f 739/1/5 687/1/5 686/1/5
f 739/3/5 685/3/5 738/3/5
f 739/1/5 686/1/5 685/1/5
f 740/1/5 687/1/5 739/1/5
f 741/3/5 718/3/5 687/3/5
f 741/1/5 687/1/5 740/1/5
f 742/3/5 731/3/5 730/3/5
f 742/1/5 730/1/5 729/1/5
f 742/3/5 733/3/5 732/3/5
f 742/3/5 732/3/5 731/3/5
f 743/3/5 733/3/5 742/3/5
f 744/3/5 733/3/5 743/3/5
f 745/1/5 734/1/5 733/1/5
f 745/3/5 733/3/5 744/3/5
f 745/1/5 735/1/5 734/1/5
f 746/1/5 735/1/5 745/1/5
f 747/3/5 718/3/5 741/3/5
f 747/3/5 741/3/5 740/3/5
f 748/1/5 719/1/5 718/1/5
f 748/3/5 718/3/5 747/3/5
f 749/1/5 706/1/5 719/1/5
f 749/1/5 719/1/5 748/1/5
f 750/3/5 707/3/5 706/3/5
f 750/1/5 706/1/5 749/1/5
f 751/1/5 720/1/5 707/1/5
f 751/3/5 707/3/5 750/3/5
f 752/1/5 720/1/5 751/1/5
f 753/3/5 721/3/5 720/3/5
f 753/1/5 720/1/5 752/1/5
f 754/1/5 722/1/5 721/1/5
f 754/3/5 721/3/5 753/3/5
f 755/1/5 724/1/5 723/1/5
f 755/3/5 725/3/5 724/3/5
f 756/1/5 726/1/5 725/1/5
f 756/3/5 725/3/5 755/3/5
f 756/1/5 727/1/5 726/1/5
f 757/1/5 727/1/5 756/1/5
f 758/3/5 744/3/5 743/3/5
f 758/1/5 743/1/5 742/1/5
f 759/1/5 745/1/5 744/1/5
f 759/3/5 744/3/5 758/3/5
f 760/3/5 746/3/5 745/3/5
f 760/1/5 745/1/5 759/1/5
f 761/1/5 735/1/5 746/1/5
f 761/3/5 746/3/5 760/3/5
f 762/1/5 735/1/5 761/1/5
f 763/3/5 736/3/5 735/3/5
f 763/1/5 735/1/5 762/1/5
f 764/1/5 487/1/5 736/1/5
f 764/3/5 736/3/5 763/3/5
f 765/1/5 487/1/5 764/1/5
f 766/1/5 737/1/5 609/1/5
f 767/3/5 738/3/5 737/3/5
f 767/1/5 737/1/5 766/1/5
f 768/1/5 740/1/5 739/1/5
f 768/3/5 738/3/5 767/3/5
f 768/1/5 739/1/5 738/1/5
f 769/1/5 752/1/5 751/1/5
f 769/1/5 751/1/5 750/1/5
f 770/3/5 753/3/5 752/3/5
f 770/1/5 752/1/5 769/1/5
f 771/1/5 754/1/5 753/1/5
f 771/3/5 753/3/5 770/3/5
f 772/1/5 589/1/5 619/1/5
f 772/1/5 754/1/5 771/1/5
f 772/1/5 619/1/5 633/1/5
f 772/1/5 633/1/5 653/1/5
f 772/1/5 722/1/5 754/1/5
f 772/1/5 693/1/5 711/1/5
f 772/1/5 653/1/5 668/1/5
f 772/1/5 711/1/5 722/1/5
f 772/1/5 668/1/5 693/1/5
f 773/3/5 590/3/5 589/3/5
f 773/1/5 589/1/5 772/1/5
f 774/1/5 654/1/5 634/1/5
f 774/3/5 590/3/5 773/3/5
f 774/1/5 634/1/5 620/1/5
f 774/1/5 755/1/5 723/1/5
f 774/1/5 723/1/5 712/1/5
f 774/1/5 756/1/5 755/1/5
f 774/1/5 712/1/5 694/1/5
f 774/1/5 620/1/5 590/1/5
f 774/1/5 694/1/5 669/1/5
f 774/1/5 669/1/5 654/1/5
f 775/3/5 757/3/5 756/3/5
f 775/1/5 756/1/5 774/1/5
f 776/1/5 727/1/5 757/1/5
f 776/3/5 757/3/5 775/3/5
f 777/1/5 727/1/5 776/1/5
f 778/1/5 761/1/5 760/1/5
f 778/3/5 762/3/5 761/3/5
f 779/1/5 764/1/5 763/1/5
f 779/3/5 762/3/5 778/3/5
f 779/1/5 763/1/5 762/1/5
f 780/1/5 764/1/5 779/1/5
f 781/1/5 768/1/5 767/1/5
f 781/1/5 740/1/5 768/1/5
f 782/3/5 747/3/5 740/3/5
f 782/1/5 740/1/5 781/1/5
f 783/1/5 748/1/5 747/1/5
f 783/1/5 749/1/5 748/1/5
f 784/3/5 750/3/5 749/3/5
f 784/1/5 749/1/5 783/1/5
f 785/1/5 769/1/5 750/1/5
f 785/3/5 750/3/5 784/3/5
f 786/3/5 699/3/5 698/3/5
f 786/1/5 698/1/5 728/1/5
f 787/1/5 729/1/5 715/1/5
f 787/3/5 699/3/5 786/3/5
f 787/1/5 715/1/5 699/1/5
f 787/1/5 758/1/5 742/1/5
f 787/1/5 742/1/5 729/1/5
f 787/1/5 759/1/5 758/1/5
f 788/1/5 759/1/5 787/1/5
f 789/1/5 779/1/5 778/1/5
f 789/3/5 780/3/5 779/3/5
f 790/1/5 764/1/5 780/1/5
f 790/3/5 780/3/5 789/3/5
f 791/3/5 765/3/5 764/3/5
f 791/1/5 764/1/5 790/1/5
f 792/1/5 487/1/5 765/1/5
f 792/3/5 765/3/5 791/3/5
f 793/1/5 487/1/5 792/1/5
f 794/1/5 781/1/5 767/1/5
f 795/3/5 782/3/5 781/3/5
f 795/1/5 781/1/5 794/1/5
f 796/3/5 747/3/5 782/3/5
f 796/3/5 782/3/5 795/3/5
f 797/1/5 783/1/5 747/1/5
f 797/3/5 747/3/5 796/3/5
f 798/1/5 769/1/5 785/1/5
f 798/1/5 785/1/5 784/1/5
f 799/3/5 770/3/5 769/3/5
f 799/1/5 769/1/5 798/1/5
f 800/1/5 771/1/5 770/1/5
f 800/3/5 770/3/5 799/3/5
f 800/1/5 772/1/5 771/1/5
f 801/1/5 774/1/5 773/1/5
f 801/1/5 775/1/5 774/1/5
f 801/3/5 777/3/5 776/3/5
f 801/1/5 776/1/5 775/1/5
f 802/1/5 727/1/5 777/1/5
f 802/3/5 777/3/5 801/3/5
f 803/1/5 727/1/5 802/1/5
f 804/3/5 791/3/5 790/3/5
f 804/1/5 790/1/5 789/1/5
f 804/3/5 793/3/5 792/3/5
f 804/3/5 792/3/5 791/3/5
f 805/1/5 487/1/5 793/1/5
f 805/3/5 793/3/5 804/3/5
f 806/1/5 487/1/5 805/1/5
f 807/1/5 766/1/5 609/1/5
f 808/3/5 767/3/5 766/3/5
f 808/1/5 766/1/5 807/1/5
f 809/1/5 794/1/5 767/1/5
f 809/3/5 767/3/5 808/3/5
f 810/1/5 783/1/5 797/1/5
f 810/1/5 797/1/5 796/1/5
f 811/3/5 784/3/5 783/3/5
f 811/1/5 783/1/5 810/1/5
f 812/1/5 798/1/5 784/1/5
f 812/3/5 784/3/5 811/3/5
f 813/1/5 798/1/5 812/1/5
f 814/3/5 799/3/5 798/3/5
f 814/1/5 798/1/5 813/1/5
f 815/1/5 800/1/5 799/1/5
f 815/3/5 799/3/5 814/3/5
f 816/3/5 803/3/5 802/3/5
f 816/1/5 802/1/5 801/1/5
f 817/1/5 727/1/5 803/1/5
f 817/3/5 803/3/5 816/3/5
f 818/1/5 727/1/5 817/1/5
f 819/1/5 759/1/5 788/1/5
f 819/3/5 760/3/5 759/3/5
f 820/1/5 778/1/5 760/1/5
f 820/3/5 760/3/5 819/3/5
f 820/1/5 789/1/5 778/1/5
f 820/1/5 804/1/5 789/1/5
f 820/1/5 805/1/5 804/1/5
f 821/1/5 805/1/5 820/1/5
f 822/3/5 806/3/5 805/3/5
f 823/1/5 487/1/5 806/1/5
f 823/3/5 806/3/5 822/3/5
f 824/1/5 487/1/5 823/1/5
f 825/1/5 794/1/5 809/1/5
f 825/1/5 809/1/5 808/1/5
f 826/3/5 796/3/5 795/3/5
f 826/1/5 794/1/5 825/1/5
f 826/3/5 795/3/5 794/3/5
f 827/3/5 796/3/5 826/3/5
f 828/1/5 813/1/5 812/1/5
f 828/1/5 812/1/5 811/1/5
f 829/3/5 814/3/5 813/3/5
f 829/1/5 813/1/5 828/1/5
f 830/1/5 815/1/5 814/1/5
f 830/3/5 814/3/5 829/3/5
f 831/1/5 817/1/5 816/1/5
f 831/3/5 818/3/5 817/3/5
f 832/1/5 727/1/5 818/1/5
f 832/3/5 818/3/5 831/3/5
f 833/1/5 727/1/5 832/1/5
f 834/3/5 822/3/5 805/3/5
f 834/1/5 805/1/5 821/1/5
f 835/1/5 823/1/5 822/1/5
f 835/3/5 822/3/5 834/3/5
f 836/1/5 823/1/5 835/1/5
f 837/3/5 824/3/5 823/3/5
f 837/1/5 823/1/5 836/1/5
f 838/1/5 487/1/5 824/1/5
f 838/3/5 824/3/5 837/3/5
f 839/1/5 487/1/5 838/1/5
f 840/1/5 807/1/5 609/1/5
f 840/3/5 808/3/5 807/3/5
f 841/1/5 825/1/5 808/1/5
f 841/3/5 808/3/5 840/3/5
f 842/1/5 827/1/5 826/1/5
f 842/3/5 826/3/5 825/3/5
f 843/3/5 796/3/5 827/3/5
f 843/1/5 827/1/5 842/1/5
f 844/1/5 810/1/5 796/1/5
f 844/3/5 796/3/5 843/3/5
f 845/1/5 810/1/5 844/1/5
f 846/3/5 811/3/5 810/3/5
f 846/1/5 810/1/5 845/1/5
f 847/1/5 828/1/5 811/1/5
f 847/3/5 811/3/5 846/3/5
f 848/1/5 727/1/5 833/1/5
f 848/3/5 728/3/5 727/3/5
f 849/1/5 786/1/5 728/1/5
f 849/3/5 728/3/5 848/3/5
f 849/1/5 787/1/5 786/1/5
f 850/1/5 787/1/5 849/1/5
f 851/1/5 837/1/5 836/1/5
f 851/3/5 839/3/5 838/3/5
f 851/1/5 838/1/5 837/1/5
f 852/1/5 487/1/5 839/1/5
f 852/3/5 839/3/5 851/3/5
f 853/1/5 487/1/5 852/1/5
f 854/1/5 825/1/5 841/1/5
f 854/1/5 841/1/5 840/1/5
f 855/3/5 842/3/5 825/3/5
f 855/1/5 825/1/5 854/1/5
f 855/3/5 843/3/5 842/3/5
f 856/3/5 843/3/5 855/3/5
f 857/1/5 828/1/5 847/1/5
f 857/1/5 847/1/5 846/1/5
f 858/3/5 829/3/5 828/3/5
f 858/1/5 828/1/5 857/1/5
f 859/1/5 830/1/5 829/1/5
f 859/3/5 829/3/5 858/3/5
f 860/3/5 833/3/5 832/3/5
f 860/1/5 832/1/5 831/1/5
f 861/1/5 848/1/5 833/1/5
f 861/3/5 833/3/5 860/3/5
f 861/1/5 849/1/5 848/1/5
f 862/1/5 849/1/5 861/1/5
f 863/1/5 820/1/5 819/1/5
f 863/3/5 821/3/5 820/3/5
f 864/1/5 834/1/5 821/1/5
f 864/3/5 821/3/5 863/3/5
f 864/1/5 835/1/5 834/1/5
f 865/3/5 836/3/5 835/3/5
f 865/1/5 835/1/5 864/1/5
f 866/1/5 852/1/5 851/1/5
f 866/3/5 836/3/5 865/3/5
f 866/1/5 851/1/5 836/1/5
f 867/1/5 852/1/5 866/1/5
f 868/3/5 853/3/5 852/3/5
f 868/1/5 852/1/5 867/1/5
f 869/1/5 487/1/5 853/1/5
f 869/3/5 853/3/5 868/3/5
f 870/1/5 487/1/5 869/1/5
f 871/1/5 854/1/5 840/1/5
f 871/1/5 840/1/5 609/1/5
f 872/3/5 855/3/5 854/3/5
f 872/1/5 854/1/5 871/1/5
f 873/1/5 856/1/5 855/1/5
f 873/3/5 855/3/5 872/3/5
f 874/3/5 843/3/5 856/3/5
f 874/1/5 856/1/5 873/1/5
f 875/1/5 845/1/5 844/1/5
f 875/3/5 843/3/5 874/3/5
f 875/1/5 844/1/5 843/1/5
f 876/3/5 846/3/5 845/3/5
f 876/1/5 845/1/5 875/1/5
f 877/1/5 857/1/5 846/1/5
f 877/3/5 846/3/5 876/3/5
f 878/3/5 858/3/5 857/3/5
f 878/1/5 857/1/5 877/1/5
f 879/1/5 859/1/5 858/1/5
f 879/3/5 858/3/5 878/3/5
f 880/3/5 773/3/5 772/3/5
f 880/1/5 859/1/5 879/1/5
f 880/1/5 800/1/5 815/1/5
f 880/1/5 815/1/5 830/1/5
f 880/1/5 772/1/5 800/1/5
f 880/1/5 830/1/5 859/1/5
f 881/1/5 816/1/5 801/1/5
f 881/3/5 773/3/5 880/3/5
f 881/1/5 801/1/5 773/1/5
f 881/1/5 861/1/5 860/1/5
f 881/1/5 860/1/5 831/1/5
f 881/1/5 831/1/5 816/1/5
f 882/3/5 862/3/5 861/3/5
f 882/1/5 861/1/5 881/1/5
f 883/1/5 849/1/5 862/1/5
f 883/3/5 862/3/5 882/3/5
f 884/3/5 850/3/5 849/3/5
f 884/1/5 849/1/5 883/1/5
f 885/1/5 787/1/5 850/1/5
f 885/3/5 850/3/5 884/3/5
f 886/3/5 788/3/5 787/3/5
f 886/1/5 787/1/5 885/1/5
f 887/1/5 865/1/5 864/1/5
f 887/3/5 788/3/5 886/3/5
f 887/1/5 819/1/5 788/1/5
f 887/1/5 864/1/5 863/1/5
f 887/1/5 866/1/5 865/1/5
f 887/1/5 863/1/5 819/1/5
f 888/3/5 867/3/5 866/3/5
f 888/1/5 866/1/5 887/1/5
f 889/1/5 869/1/5 868/1/5
f 889/3/5 867/3/5 888/3/5
f 889/1/5 868/1/5 867/1/5
f 890/3/5 870/3/5 869/3/5
f 890/1/5 869/1/5 889/1/5
f 891/1/5 487/1/5 870/1/5
f 891/3/5 870/3/5 890/3/5
f 892/1/5 487/1/5 891/1/5
f 893/1/6 894/1/6 920/1/6
f 894/4/6 895/4/6 921/4/6
f 920/1/6 894/1/6 921/1/6
f 895/1/6 896/1/6 922/1/6
f 921/4/6 895/4/6 922/4/6
f 896/3/6 897/3/6 923/3/6
f 922/1/6 896/1/6 923/1/6
f 897/1/6 898/1/6 924/1/6
f 923/3/6 897/3/6 924/3/6
f 924/1/6 898/1/6 925/1/6
f 898/4/6 899/4/6 926/4/6
f 925/1/6 898/1/6 926/1/6
f 899/1/6 900/1/6 927/1/6
f 926/4/6 899/4/6 927/4/6
f 900/3/6 901/3/6 928/3/6
f 927/1/6 900/1/6 928/1/6
f 901/1/6 902/1/6 929/1/6
f 928/3/6 901/3/6 929/3/6
f 902/3/6 903/3/6 930/3/6
f 929/1/6 902/1/6 930/1/6
f 903/1/6 904/1/6 931/1/6
f 930/3/6 903/3/6 931/3/6
f 904/3/6 905/3/6 932/3/6
f 931/1/6 904/1/6 932/1/6
f 932/3/6 905/3/6 933/3/6
f 905/1/6 906/1/6 934/1/6
f 906/3/6 907/3/6 934/3/6
f 907/1/6 908/1/6 935/1/6
f 934/3/6 907/3/6 935/3/6
f 908/3/6 909/3/6 936/3/6
f 935/1/6 908/1/6 936/1/6
f 909/1/6 910/1/6 937/1/6
f 936/3/6 909/3/6 937/3/6
f 910/3/6 911/3/6 938/3/6
f 937/1/6 910/1/6 938/1/6
f 911/1/6 912/1/6 939/1/6
f 938/3/6 911/3/6 939/3/6
f 912/3/6 913/3/6 940/3/6
f 939/1/6 912/1/6 940/1/6
f 913/1/6 914/1/6 941/1/6
f 940/3/6 913/3/6 941/3/6
f 914/3/6 915/3/6 942/3/6
f 941/1/6 914/1/6 942/1/6
f 915/1/6 916/1/6 943/1/6
f 942/3/6 915/3/6 943/3/6
f 916/4/6 917/4/6 944/4/6
f 943/1/6 916/1/6 944/1/6
f 917/3/6 918/3/6 945/3/6
f 944/4/6 917/4/6 945/4/6
f 918/1/6 919/1/6 946/1/6
f 945/3/6 918/3/6 946/3/6
f 946/1/6 919/1/6 947/1/6
f 893/1/6 920/1/6 948/1/6
f 920/4/6 921/4/6 949/4/6
f 948/1/6 920/1/6 949/1/6
f 921/1/6 922/1/6 950/1/6
f 949/4/6 921/4/6 950/4/6
f 922/1/6 923/1/6 950/1/6
f 924/1/6 925/1/6 950/1/6
f 923/1/6 924/1/6 950/1/6
f 950/1/6 925/1/6 951/1/6
f 925/4/6 926/4/6 952/4/6
f 951/1/6 925/1/6 952/1/6
f 926/1/6 927/1/6 953/1/6
f 952/4/6 926/4/6 953/4/6
f 927/1/6 928/1/6 953/1/6
f 928/1/6 929/1/6 953/1/6
f 931/1/6 932/1/6 953/1/6
f 929/1/6 930/1/6 953/1/6
f 930/1/6 931/1/6 953/1/6
f 932/1/6 933/1/6 953/1/6
f 944/1/6 945/1/6 954/1/6
f 946/4/6 947/4/6 954/4/6
f 945/4/6 946/4/6 954/4/6
f 939/1/6 940/1/6 954/1/6
f 938/1/6 939/1/6 954/1/6
f 937/1/6 938/1/6 954/1/6
f 936/1/6 937/1/6 954/1/6
f 935/1/6 936/1/6 954/1/6
f 934/1/6 935/1/6 954/1/6
f 943/1/6 944/1/6 954/1/6
f 940/1/6 941/1/6 954/1/6
f 942/1/6 943/1/6 954/1/6
f 941/1/6 942/1/6 954/1/6
f 947/1/6 919/1/6 955/1/6
f 954/4/6 947/4/6 955/4/6
f 955/1/6 919/1/6 956/1/6
f 956/1/6 919/1/6 957/1/6
f 957/1/6 919/1/6 958/1/6
f 950/1/6 951/1/6 959/1/6
f 949/1/6 950/1/6 959/1/6
f 951/4/6 952/4/6 960/4/6
f 959/1/6 951/1/6 960/1/6
f 952/1/6 953/1/6 961/1/6
f 960/4/6 952/4/6 961/4/6
f 953/1/6 933/1/6 962/1/6
f 961/1/6 953/1/6 962/1/6
f 933/3/6 905/3/6 962/3/6
f 934/1/6 954/1/6 963/1/6
f 962/3/6 905/3/6 963/3/6
f 905/1/6 934/1/6 963/1/6
f 954/1/6 955/1/6 963/1/6
f 963/1/6 955/1/6 964/1/6
f 964/1/6 955/1/6 965/1/6
f 965/1/6 955/1/6 966/1/6
f 966/1/6 955/1/6 967/1/6
f 967/1/6 955/1/6 968/1/6
f 955/4/6 956/4/6 969/4/6
f 968/1/6 955/1/6 969/1/6
f 956/1/6 957/1/6 970/1/6
f 969/4/6 956/4/6 970/4/6
f 970/1/6 957/1/6 971/1/6
f 957/2/6 958/2/6 972/2/6
f 971/1/6 957/1/6 972/1/6
f 972/2/6 958/2/6 973/2/6
f 949/1/6 959/1/6 974/1/6
f 959/4/6 960/4/6 975/4/6
f 974/1/6 959/1/6 975/1/6
f 960/1/6 961/1/6 976/1/6
f 975/4/6 960/4/6 976/4/6
f 961/1/6 962/1/6 976/1/6
f 962/1/6 963/1/6 976/1/6
f 964/1/6 965/1/6 977/1/6
f 965/3/6 966/3/6 977/3/6
f 977/3/6 966/3/6 978/3/6
f 967/3/6 968/3/6 979/3/6
f 968/1/6 969/1/6 980/1/6
f 979/3/6 968/3/6 980/3/6
f 969/1/6 970/1/6 980/1/6
f 970/4/6 971/4/6 981/4/6
f 980/1/6 970/1/6 981/1/6
f 972/1/6 973/1/6 982/1/6
f 981/4/6 971/4/6 982/4/6
f 971/1/6 972/1/6 982/1/6
f 982/1/6 973/1/6 983/1/6
f 948/4/6 949/4/6 984/4/6
f 949/1/6 974/1/6 985/1/6
f 984/4/6 949/4/6 985/4/6
f 985/1/6 974/1/6 986/1/6
f 974/4/6 975/4/6 987/4/6
f 986/1/6 974/1/6 987/1/6
f 975/1/6 976/1/6 988/1/6
f 987/4/6 975/4/6 988/4/6
f 963/3/6 964/3/6 989/3/6
f 988/1/6 976/1/6 989/1/6
f 976/1/6 963/1/6 989/1/6
f 964/1/6 977/1/6 990/1/6
f 989/3/6 964/3/6 990/3/6
f 977/1/6 978/1/6 990/1/6
f 978/3/6 966/3/6 991/3/6
f 966/1/6 967/1/6 991/1/6
f 991/1/6 967/1/6 992/1/6
f 992/1/6 967/1/6 993/1/6
f 967/3/6 979/3/6 994/3/6
f 993/1/6 967/1/6 994/1/6
f 980/1/6 981/1/6 995/1/6
f 979/1/6 980/1/6 995/1/6
f 982/4/6 983/4/6 995/4/6
f 981/1/6 982/1/6 995/1/6
f 983/1/6 973/1/6 996/1/6
f 995/4/6 983/4/6 996/4/6
f 996/1/6 973/1/6 997/1/6
f 997/1/6 973/1/6 998/1/6
f 998/1/6 973/1/6 999/1/6
f 984/2/6 985/2/6 1000/2/6
f 985/1/6 986/1/6 1001/1/6
f 1000/2/6 985/2/6 1001/2/6
f 1001/1/6 986/1/6 1002/1/6
f 986/4/6 987/4/6 1003/4/6
f 1002/1/6 986/1/6 1003/1/6
f 988/1/6 989/1/6 1004/1/6
f 1003/4/6 987/4/6 1004/4/6
f 987/1/6 988/1/6 1004/1/6
f 989/1/6 990/1/6 1004/1/6
f 990/1/6 978/1/6 1005/1/6
f 1004/1/6 990/1/6 1005/1/6
f 991/3/6 992/3/6 1005/3/6
f 978/3/6 991/3/6 1005/3/6
f 992/1/6 993/1/6 1006/1/6
f 1005/3/6 992/3/6 1006/3/6
f 993/3/6 994/3/6 1007/3/6
f 1006/1/6 993/1/6 1007/1/6
f 994/3/6 979/3/6 1008/3/6
f 1007/3/6 994/3/6 1008/3/6
f 979/1/6 995/1/6 1008/1/6
f 995/1/6 996/1/6 1008/1/6
f 996/4/6 997/4/6 1009/4/6
f 1008/1/6 996/1/6 1009/1/6
f 997/1/6 998/1/6 1010/1/6
f 1009/4/6 997/4/6 1010/4/6
f 1010/1/6 998/1/6 1011/1/6
f 998/2/6 999/2/6 1012/2/6
f 1011/1/6 998/1/6 1012/1/6
f 1012/2/6 999/2/6 1013/2/6
f 1006/1/6 1007/1/6 1014/1/6
f 1007/1/6 1008/1/6 1014/1/6
f 1003/1/6 1004/1/6 1014/1/6
f 1005/1/6 1006/1/6 1014/1/6
f 1009/1/6 1010/1/6 1014/1/6
f 1008/1/6 1009/1/6 1014/1/6
f 1004/1/6 1005/1/6 1014/1/6
f 1014/1/6 1010/1/6 1015/1/6
f 1015/1/6 1010/1/6 1016/1/6
f 1016/1/6 1010/1/6 1017/1/6
f 1017/1/6 1010/1/6 1018/1/6
f 1018/1/6 1010/1/6 1019/1/6
f 1010/4/6 1011/4/6 1020/4/6
f 1019/1/6 1010/1/6 1020/1/6
f 1012/1/6 1013/1/6 1021/1/6
f 1020/4/6 1011/4/6 1021/4/6
f 1011/1/6 1012/1/6 1021/1/6
f 1021/1/6 1013/1/6 1022/1/6
f 1022/1/6 1013/1/6 1023/1/6
f 1023/1/6 1013/1/6 1024/1/6
f 1001/1/6 1002/1/6 1025/1/6
f 1000/1/6 1001/1/6 1025/1/6
f 1002/4/6 1003/4/6 1026/4/6
f 1025/1/6 1002/1/6 1026/1/6
f 1003/1/6 1014/1/6 1027/1/6
f 1026/4/6 1003/4/6 1027/4/6
f 1027/1/6 1014/1/6 1028/1/6
f 1014/3/6 1015/3/6 1029/3/6
f 1028/1/6 1014/1/6 1029/1/6
f 1029/3/6 1015/3/6 1030/3/6
f 1015/1/6 1016/1/6 1031/1/6
f 1030/3/6 1015/3/6 1031/3/6
f 1031/1/6 1016/1/6 1032/1/6
f 1016/3/6 1017/3/6 1033/3/6
f 1032/1/6 1016/1/6 1033/1/6
f 1017/1/6 1018/1/6 1034/1/6
f 1033/3/6 1017/3/6 1034/3/6
f 1018/3/6 1019/3/6 1035/3/6
f 1034/1/6 1018/1/6 1035/1/6
f 1019/1/6 1020/1/6 1036/1/6
f 1035/3/6 1019/3/6 1036/3/6
f 1020/1/6 1021/1/6 1036/1/6
f 1021/4/6 1022/4/6 1037/4/6
f 1036/1/6 1021/1/6 1037/1/6
f 1022/1/6 1023/1/6 1038/1/6
f 1037/4/6 1022/4/6 1038/4/6
f 1038/1/6 1023/1/6 1039/1/6
f 1039/1/6 1023/1/6 1040/1/6
f 1023/3/6 1024/3/6 1041/3/6
f 1040/1/6 1023/1/6 1041/1/6
f 1041/3/6 1024/3/6 1042/3/6
f 1024/1/6 1013/1/6 1043/1/6
f 1042/3/6 1024/3/6 1043/3/6
f 1043/1/6 1013/1/6 1044/1/6
f 1027/1/6 1028/1/6 1045/1/6
f 1026/1/6 1027/1/6 1045/1/6
f 1028/3/6 1029/3/6 1046/3/6
f 1045/1/6 1028/1/6 1046/1/6
f 1046/3/6 1029/3/6 1047/3/6
f 1029/1/6 1030/1/6 1048/1/6
f 1047/3/6 1029/3/6 1048/3/6
f 1031/3/6 1032/3/6 1049/3/6
f 1048/1/6 1030/1/6 1049/1/6
f 1030/3/6 1031/3/6 1049/3/6
f 1034/1/6 1035/1/6 1050/1/6
f 1049/3/6 1032/3/6 1050/3/6
f 1032/1/6 1033/1/6 1050/1/6
f 1033/1/6 1034/1/6 1050/1/6
f 1035/1/6 1036/1/6 1050/1/6
f 1036/1/6 1037/1/6 1050/1/6
f 1037/1/6 1038/1/6 1050/1/6
f 1038/4/6 1039/4/6 1051/4/6
f 1050/1/6 1038/1/6 1051/1/6
f 1039/1/6 1040/1/6 1052/1/6
f 1051/4/6 1039/4/6 1052/4/6
f 1040/3/6 1041/3/6 1053/3/6
f 1052/1/6 1040/1/6 1053/1/6
f 1041/3/6 1042/3/6 1053/3/6
f 1053/3/6 1042/3/6 1054/3/6
f 1042/1/6 1043/1/6 1055/1/6
f 1054/3/6 1042/3/6 1055/3/6
f 1043/3/6 1044/3/6 1056/3/6
f 1055/1/6 1043/1/6 1056/1/6
f 1056/3/6 1044/3/6 1057/3/6
f 1044/1/6 1013/1/6 1058/1/6
f 1057/3/6 1044/3/6 1058/3/6
f 1058/1/6 1013/1/6 1059/1/6
f 1000/1/6 1025/1/6 1060/1/6
f 1025/4/6 1026/4/6 1061/4/6
f 1060/1/6 1025/1/6 1061/1/6
f 1026/1/6 1045/1/6 1062/1/6
f 1061/4/6 1026/4/6 1062/4/6
f 1046/3/6 1047/3/6 1063/3/6
f 1062/1/6 1045/1/6 1063/1/6
f 1045/3/6 1046/3/6 1063/3/6
f 1048/1/6 1049/1/6 1064/1/6
f 1063/3/6 1047/3/6 1064/3/6
f 1051/1/6 1052/1/6 1064/1/6
f 1050/1/6 1051/1/6 1064/1/6
f 1047/1/6 1048/1/6 1064/1/6
f 1049/1/6 1050/1/6 1064/1/6
f 1053/4/6 1054/4/6 1065/4/6
f 1064/1/6 1052/1/6 1065/1/6
f 1052/4/6 1053/4/6 1065/4/6
f 1054/1/6 1055/1/6 1066/1/6
f 1065/4/6 1054/4/6 1066/4/6
f 1055/1/6 1056/1/6 1066/1/6
f 1056/1/6 1057/1/6 1066/1/6
f 1066/1/6 1057/1/6 1067/1/6
f 1057/3/6 1058/3/6 1068/3/6
f 1067/1/6 1057/1/6 1068/1/6
f 1058/3/6 1059/3/6 1068/3/6
f 1059/1/6 1013/1/6 1069/1/6
f 1068/3/6 1059/3/6 1069/3/6
f 1000/1/6 1060/1/6 1070/1/6
f 1060/4/6 1061/4/6 1071/4/6
f 1070/1/6 1060/1/6 1071/1/6
f 1062/1/6 1063/1/6 1072/1/6
f 1071/4/6 1061/4/6 1072/4/6
f 1063/1/6 1064/1/6 1072/1/6
f 1064/1/6 1065/1/6 1072/1/6
f 1061/1/6 1062/1/6 1072/1/6
f 1065/1/6 1066/1/6 1072/1/6
f 1072/1/6 1066/1/6 1073/1/6
f 1073/1/6 1066/1/6 1074/1/6
f 1074/1/6 1066/1/6 1075/1/6
f 1075/1/6 1066/1/6 1076/1/6
f 1066/4/6 1067/4/6 1077/4/6
f 1076/1/6 1066/1/6 1077/1/6
f 1068/1/6 1069/1/6 1078/1/6
f 1077/4/6 1067/4/6 1078/4/6
f 1067/1/6 1068/1/6 1078/1/6
f 1078/1/6 1069/1/6 1079/1/6
f 1000/1/6 1070/1/6 1080/1/6
f 1070/4/6 1071/4/6 1081/4/6
f 1080/1/6 1070/1/6 1081/1/6
f 1071/1/6 1072/1/6 1082/1/6
f 1081/4/6 1071/4/6 1082/4/6
f 1072/1/6 1073/1/6 1082/1/6
f 1082/1/6 1073/1/6 1083/1/6
f 1073/3/6 1074/3/6 1084/3/6
f 1083/1/6 1073/1/6 1084/1/6
f 1074/1/6 1075/1/6 1085/1/6
f 1084/3/6 1074/3/6 1085/3/6
f 1085/1/6 1075/1/6 1086/1/6
f 1086/1/6 1075/1/6 1087/1/6
f 1075/3/6 1076/3/6 1088/3/6
f 1087/1/6 1075/1/6 1088/1/6
f 1076/1/6 1077/1/6 1089/1/6
f 1088/3/6 1076/3/6 1089/3/6
f 1077/1/6 1078/1/6 1089/1/6
f 1089/1/6 1078/1/6 1090/1/6
f 1078/4/6 1079/4/6 1091/4/6
f 1090/1/6 1078/1/6 1091/1/6
f 1079/1/6 1069/1/6 1092/1/6
f 1091/4/6 1079/4/6 1092/4/6
f 1092/1/6 1069/1/6 1093/1/6
f 1082/1/6 1083/1/6 1094/1/6
f 1081/1/6 1082/1/6 1094/1/6
f 1094/1/6 1083/1/6 1095/1/6
f 1083/3/6 1084/3/6 1096/3/6
f 1095/1/6 1083/1/6 1096/1/6
f 1084/1/6 1085/1/6 1097/1/6
f 1096/3/6 1084/3/6 1097/3/6
f 1085/3/6 1086/3/6 1098/3/6
f 1097/1/6 1085/1/6 1098/1/6
f 1086/1/6 1087/1/6 1099/1/6
f 1098/3/6 1086/3/6 1099/3/6
f 1099/1/6 1087/1/6 1100/1/6
f 1100/1/6 1087/1/6 1101/1/6
f 1101/1/6 1087/1/6 1102/1/6
f 1102/1/6 1087/1/6 1103/1/6
f 1087/3/6 1088/3/6 1104/3/6
f 1103/1/6 1087/1/6 1104/1/6
f 1088/1/6 1089/1/6 1105/1/6
f 1104/3/6 1088/3/6 1105/3/6
f 1089/3/6 1090/3/6 1106/3/6
f 1105/1/6 1089/1/6 1106/1/6
f 1090/1/6 1091/1/6 1107/1/6
f 1106/3/6 1090/3/6 1107/3/6
f 1091/1/6 1092/1/6 1107/1/6
f 1092/4/6 1093/4/6 1108/4/6
f 1107/1/6 1092/1/6 1108/1/6
f 1108/4/6 1093/4/6 1109/4/6
f 1093/1/6 1069/1/6 1110/1/6
f 1109/4/6 1093/4/6 1110/4/6
f 1110/1/6 1069/1/6 1111/1/6
f 1111/1/6 1069/1/6 1112/1/6
f 1000/1/6 1080/1/6 1113/1/6
f 1080/4/6 1081/4/6 1114/4/6
f 1113/1/6 1080/1/6 1114/1/6
f 1081/1/6 1094/1/6 1115/1/6
f 1114/4/6 1081/4/6 1115/4/6
f 1094/3/6 1095/3/6 1116/3/6
f 1115/1/6 1094/1/6 1116/1/6
f 1097/1/6 1098/1/6 1117/1/6
f 1116/3/6 1095/3/6 1117/3/6
f 1096/1/6 1097/1/6 1117/1/6
f 1095/1/6 1096/1/6 1117/1/6
f 1098/1/6 1099/1/6 1117/1/6
f 1099/1/6 1100/1/6 1117/1/6
f 1117/1/6 1100/1/6 1118/1/6
f 1118/1/6 1100/1/6 1119/1/6
f 1100/3/6 1101/3/6 1120/3/6
f 1119/1/6 1100/1/6 1120/1/6
f 1120/3/6 1101/3/6 1121/3/6
f 1101/1/6 1102/1/6 1122/1/6
f 1121/3/6 1101/3/6 1122/3/6
f 1102/3/6 1103/3/6 1123/3/6
f 1122/1/6 1102/1/6 1123/1/6
f 1123/3/6 1103/3/6 1124/3/6
f 1105/1/6 1106/1/6 1125/1/6
f 1124/3/6 1103/3/6 1125/3/6
f 1104/1/6 1105/1/6 1125/1/6
f 1108/1/6 1109/1/6 1125/1/6
f 1106/1/6 1107/1/6 1125/1/6
f 1103/1/6 1104/1/6 1125/1/6
f 1107/1/6 1108/1/6 1125/1/6
f 1125/1/6 1109/1/6 1126/1/6
f 1126/1/6 1109/1/6 1127/1/6
f 1109/3/6 1110/3/6 1128/3/6
f 1127/1/6 1109/1/6 1128/1/6
f 1110/4/6 1111/4/6 1129/4/6
f 1128/3/6 1110/3/6 1129/3/6
f 1111/3/6 1112/3/6 1130/3/6
f 1129/4/6 1111/4/6 1130/4/6
f 1130/3/6 1112/3/6 1131/3/6
f 1112/1/6 1069/1/6 1132/1/6
f 1131/3/6 1112/3/6 1132/3/6
f 1000/1/6 1113/1/6 1133/1/6
f 1113/4/6 1114/4/6 1134/4/6
f 1133/1/6 1113/1/6 1134/1/6
f 1115/1/6 1116/1/6 1135/1/6
f 1134/4/6 1114/4/6 1135/4/6
f 1114/1/6 1115/1/6 1135/1/6
f 1116/1/6 1117/1/6 1135/1/6
f 1117/3/6 1118/3/6 1136/3/6
f 1135/1/6 1117/1/6 1136/1/6
f 1118/1/6 1119/1/6 1137/1/6
f 1136/3/6 1118/3/6 1137/3/6
f 1137/1/6 1119/1/6 1138/1/6
f 1119/3/6 1120/3/6 1139/3/6
f 1120/3/6 1121/3/6 1139/3/6
f 1121/1/6 1122/1/6 1140/1/6
f 1139/3/6 1121/3/6 1140/3/6
f 1123/1/6 1124/1/6 1140/1/6
f 1122/1/6 1123/1/6 1140/1/6
f 1125/3/6 1126/3/6 1141/3/6
f 1140/1/6 1124/1/6 1141/1/6
f 1124/3/6 1125/3/6 1141/3/6
f 1141/3/6 1126/3/6 1142/3/6
f 1126/1/6 1127/1/6 1143/1/6
f 1127/3/6 1128/3/6 1144/3/6
f 1143/1/6 1127/1/6 1144/1/6
f 1128/1/6 1129/1/6 1145/1/6
f 1144/3/6 1128/3/6 1145/3/6
f 1129/1/6 1130/1/6 1145/1/6
f 1130/4/6 1131/4/6 1146/4/6
f 1145/1/6 1130/1/6 1146/1/6
f 1131/1/6 1132/1/6 1147/1/6
f 1146/4/6 1131/4/6 1147/4/6
f 1132/1/6 1069/1/6 1148/1/6
f 1147/1/6 1132/1/6 1148/1/6
f 1136/1/6 1137/1/6 1149/1/6
f 1134/1/6 1135/1/6 1149/1/6
f 1135/1/6 1136/1/6 1149/1/6
f 1149/1/6 1137/1/6 1150/1/6
f 1137/3/6 1138/3/6 1151/3/6
f 1150/1/6 1137/1/6 1151/1/6
f 1151/3/6 1138/3/6 1152/3/6
f 1138/1/6 1119/1/6 1153/1/6
f 1152/3/6 1138/3/6 1153/3/6
f 1153/1/6 1119/1/6 1154/1/6
f 1154/1/6 1119/1/6 1155/1/6
f 1119/3/6 1139/3/6 1156/3/6
f 1155/1/6 1119/1/6 1156/1/6
f 1139/1/6 1140/1/6 1157/1/6
f 1156/3/6 1139/3/6 1157/3/6
f 1141/1/6 1142/1/6 1157/1/6
f 1140/1/6 1141/1/6 1157/1/6
f 1142/3/6 1126/3/6 1158/3/6
f 1157/1/6 1142/1/6 1158/1/6
f 1126/1/6 1143/1/6 1159/1/6
f 1158/3/6 1126/3/6 1159/3/6
f 1159/1/6 1143/1/6 1160/1/6
f 1160/1/6 1143/1/6 1161/1/6
f 1143/3/6 1144/3/6 1162/3/6
f 1161/1/6 1143/1/6 1162/1/6
f 1162/3/6 1144/3/6 1163/3/6
f 1144/1/6 1145/1/6 1164/1/6
f 1163/3/6 1144/3/6 1164/3/6
f 1145/1/6 1146/1/6 1164/1/6
f 1146/1/6 1147/1/6 1164/1/6
f 1147/4/6 1148/4/6 1165/4/6
f 1164/1/6 1147/1/6 1165/1/6
f 1148/1/6 1069/1/6 1166/1/6
f 1165/4/6 1148/4/6 1166/4/6
f 1166/1/6 1069/1/6 1167/1/6
f 1069/1/6 1013/1/6 1168/1/6
f 1167/1/6 1069/1/6 1168/1/6
f 1168/1/6 1013/1/6 1169/1/6
f 1000/1/6 1133/1/6 1170/1/6
f 1133/4/6 1134/4/6 1171/4/6
f 1170/1/6 1133/1/6 1171/1/6
f 1134/1/6 1149/1/6 1172/1/6
f 1171/4/6 1134/4/6 1172/4/6
f 1172/1/6 1149/1/6 1173/1/6
f 1149/3/6 1150/3/6 1174/3/6
f 1173/1/6 1149/1/6 1174/1/6
f 1174/3/6 1150/3/6 1175/3/6
f 1151/1/6 1152/1/6 1176/1/6
f 1175/3/6 1150/3/6 1176/3/6
f 1150/1/6 1151/1/6 1176/1/6
f 1153/3/6 1154/3/6 1177/3/6
f 1176/1/6 1152/1/6 1177/1/6
f 1152/3/6 1153/3/6 1177/3/6
f 1154/1/6 1155/1/6 1178/1/6
f 1177/3/6 1154/3/6 1178/3/6
f 1157/1/6 1158/1/6 1179/1/6
f 1156/1/6 1157/1/6 1179/1/6
f 1158/1/6 1159/1/6 1179/1/6
f 1179/1/6 1159/1/6 1180/1/6
f 1180/1/6 1159/1/6 1181/1/6
f 1181/1/6 1159/1/6 1182/1/6
f 1162/3/6 1163/3/6 1183/3/6
f 1161/3/6 1162/3/6 1183/3/6
f 1160/1/6 1161/1/6 1183/1/6
f 1164/1/6 1165/1/6 1184/1/6
f 1183/3/6 1163/3/6 1184/3/6
f 1163/1/6 1164/1/6 1184/1/6
f 1165/1/6 1166/1/6 1184/1/6
f 1166/4/6 1167/4/6 1185/4/6
f 1184/1/6 1166/1/6 1185/1/6
f 1167/1/6 1168/1/6 1186/1/6
f 1185/4/6 1167/4/6 1186/4/6
f 1186/1/6 1168/1/6 1187/1/6
f 1168/3/6 1169/3/6 1188/3/6
f 1187/1/6 1168/1/6 1188/1/6
f 1188/3/6 1169/3/6 1189/3/6
f 1169/1/6 1013/1/6 1190/1/6
f 1189/3/6 1169/3/6 1190/3/6
f 1190/1/6 1013/1/6 1191/1/6
f 1000/1/6 1170/1/6 1192/1/6
f 1170/4/6 1171/4/6 1193/4/6
f 1192/1/6 1170/1/6 1193/1/6
f 1172/1/6 1173/1/6 1194/1/6
f 1193/4/6 1171/4/6 1194/4/6
f 1171/1/6 1172/1/6 1194/1/6
f 1194/1/6 1173/1/6 1195/1/6
f 1174/3/6 1175/3/6 1196/3/6
f 1195/1/6 1173/1/6 1196/1/6
f 1173/3/6 1174/3/6 1196/3/6
f 1176/1/6 1177/1/6 1197/1/6
f 1196/3/6 1175/3/6 1197/3/6
f 1175/1/6 1176/1/6 1197/1/6
f 1177/1/6 1178/1/6 1197/1/6
f 1178/1/6 1155/1/6 1198/1/6
f 1197/1/6 1178/1/6 1198/1/6
f 1155/3/6 1156/3/6 1199/3/6
f 1198/1/6 1155/1/6 1199/1/6
f 1180/1/6 1181/1/6 1200/1/6
f 1179/3/6 1180/3/6 1200/3/6
f 1200/1/6 1181/1/6 1201/1/6
f 1201/1/6 1181/1/6 1202/1/6
f 1181/3/6 1182/3/6 1203/3/6
f 1202/1/6 1181/1/6 1203/1/6
f 1160/1/6 1183/1/6 1204/1/6
f 1183/1/6 1184/1/6 1204/1/6
f 1159/3/6 1160/3/6 1204/3/6
f 1184/1/6 1185/1/6 1204/1/6
f 1185/1/6 1186/1/6 1204/1/6
f 1204/1/6 1186/1/6 1205/1/6
f 1186/4/6 1187/4/6 1206/4/6
f 1205/1/6 1186/1/6 1206/1/6
f 1188/1/6 1189/1/6 1207/1/6
f 1206/4/6 1187/4/6 1207/4/6
f 1187/1/6 1188/1/6 1207/1/6
f 1207/1/6 1189/1/6 1208/1/6
f 1189/3/6 1190/3/6 1209/3/6
f 1208/1/6 1189/1/6 1209/1/6
f 1190/3/6 1191/3/6 1209/3/6
f 1191/1/6 1013/1/6 1210/1/6
f 1209/3/6 1191/3/6 1210/3/6
f 1210/1/6 1013/1/6 1211/1/6
f 1194/1/6 1195/1/6 1212/1/6
f 1193/1/6 1194/1/6 1212/1/6
f 1195/3/6 1196/3/6 1213/3/6
f 1212/1/6 1195/1/6 1213/1/6
f 1213/3/6 1196/3/6 1214/3/6
f 1197/1/6 1198/1/6 1215/1/6
f 1214/3/6 1196/3/6 1215/3/6
f 1196/1/6 1197/1/6 1215/1/6
f 1199/3/6 1156/3/6 1216/3/6
f 1198/3/6 1199/3/6 1216/3/6
f 1156/1/6 1179/1/6 1217/1/6
f 1216/3/6 1156/3/6 1217/3/6
f 1200/3/6 1201/3/6 1218/3/6
f 1217/1/6 1179/1/6 1218/1/6
f 1179/3/6 1200/3/6 1218/3/6
f 1218/3/6 1201/3/6 1219/3/6
f 1203/3/6 1182/3/6 1220/3/6
f 1202/3/6 1203/3/6 1220/3/6
f 1182/1/6 1159/1/6 1221/1/6
f 1220/3/6 1182/3/6 1221/3/6
f 1159/3/6 1204/3/6 1222/3/6
f 1221/1/6 1159/1/6 1222/1/6
f 1204/3/6 1205/3/6 1222/3/6
f 1222/3/6 1205/3/6 1223/3/6
f 1207/4/6 1208/4/6 1224/4/6
f 1205/1/6 1206/1/6 1224/1/6
f 1206/1/6 1207/1/6 1224/1/6
f 1208/1/6 1209/1/6 1225/1/6
f 1224/4/6 1208/4/6 1225/4/6
f 1209/1/6 1210/1/6 1225/1/6
f 1225/1/6 1210/1/6 1226/1/6
f 1210/3/6 1211/3/6 1227/3/6
f 1226/1/6 1210/1/6 1227/1/6
f 1227/3/6 1211/3/6 1228/3/6
f 1211/1/6 1013/1/6 1229/1/6
f 1228/3/6 1211/3/6 1229/3/6
f 1229/1/6 1013/1/6 1230/1/6
f 1000/1/6 1192/1/6 1231/1/6
f 1192/4/6 1193/4/6 1232/4/6
f 1231/1/6 1192/1/6 1232/1/6
f 1193/1/6 1212/1/6 1233/1/6
f 1232/4/6 1193/4/6 1233/4/6
f 1213/3/6 1214/3/6 1234/3/6
f 1233/1/6 1212/1/6 1234/1/6
f 1212/3/6 1213/3/6 1234/3/6
f 1234/3/6 1214/3/6 1235/3/6
f 1214/1/6 1215/1/6 1236/1/6
f 1235/3/6 1214/3/6 1236/3/6
f 1215/1/6 1198/1/6 1237/1/6
f 1236/1/6 1215/1/6 1237/1/6
f 1237/1/6 1198/1/6 1238/1/6
f 1225/4/6 1226/4/6 1239/4/6
f 1224/1/6 1225/1/6 1239/1/6
f 1227/1/6 1228/1/6 1240/1/6
f 1239/4/6 1226/4/6 1240/4/6
f 1226/1/6 1227/1/6 1240/1/6
f 1240/1/6 1228/1/6 1241/1/6
f 1229/3/6 1230/3/6 1242/3/6
f 1241/1/6 1228/1/6 1242/1/6
f 1228/3/6 1229/3/6 1242/3/6
f 1242/3/6 1230/3/6 1243/3/6
f 1230/1/6 1013/1/6 1244/1/6
f 1243/3/6 1230/3/6 1244/3/6
f 1244/1/6 1013/1/6 1245/1/6
f 1000/1/6 1231/1/6 1246/1/6
f 1231/4/6 1232/4/6 1247/4/6
f 1246/1/6 1231/1/6 1247/1/6
f 1232/4/6 1233/4/6 1247/4/6
f 1247/4/6 1233/4/6 1248/4/6
f 1234/3/6 1235/3/6 1249/3/6
f 1248/4/6 1233/4/6 1249/4/6
f 1233/3/6 1234/3/6 1249/3/6
f 1249/3/6 1235/3/6 1250/3/6
f 1235/1/6 1236/1/6 1251/1/6
f 1250/3/6 1235/3/6 1251/3/6
f 1236/1/6 1237/1/6 1251/1/6
f 1251/1/6 1237/1/6 1252/1/6
f 1252/1/6 1237/1/6 1253/1/6
f 1253/1/6 1237/1/6 1254/1/6
f 1237/4/6 1238/4/6 1255/4/6
f 1254/1/6 1237/1/6 1255/1/6
f 1255/4/6 1238/4/6 1256/4/6
f 1238/1/6 1198/1/6 1257/1/6
f 1256/4/6 1238/4/6 1257/4/6
f 1257/1/6 1198/1/6 1258/1/6
f 1198/3/6 1216/3/6 1259/3/6
f 1258/1/6 1198/1/6 1259/1/6
f 1218/1/6 1219/1/6 1260/1/6
f 1259/3/6 1216/3/6 1260/3/6
f 1216/1/6 1217/1/6 1260/1/6
f 1217/1/6 1218/1/6 1260/1/6
f 1223/3/6 1205/3/6 1261/3/6
f 1222/1/6 1223/1/6 1261/1/6
f 1220/1/6 1221/1/6 1261/1/6
f 1221/1/6 1222/1/6 1261/1/6
f 1205/1/6 1224/1/6 1262/1/6
f 1261/3/6 1205/3/6 1262/3/6
f 1224/1/6 1239/1/6 1262/1/6
f 1239/1/6 1240/1/6 1262/1/6
f 1262/1/6 1240/1/6 1263/1/6
f 1263/1/6 1240/1/6 1264/1/6
f 1264/1/6 1240/1/6 1265/1/6
f 1265/1/6 1240/1/6 1266/1/6
f 1240/4/6 1241/4/6 1267/4/6
f 1266/1/6 1240/1/6 1267/1/6
f 1242/1/6 1243/1/6 1268/1/6
f 1267/4/6 1241/4/6 1268/4/6
f 1241/1/6 1242/1/6 1268/1/6
f 1268/1/6 1243/1/6 1269/1/6
f 1244/3/6 1245/3/6 1270/3/6
f 1269/1/6 1243/1/6 1270/1/6
f 1243/3/6 1244/3/6 1270/3/6
f 1270/3/6 1245/3/6 1271/3/6
f 1245/1/6 1013/1/6 1272/1/6
f 1271/3/6 1245/3/6 1272/3/6
f 1272/1/6 1013/1/6 1273/1/6
f 1247/1/6 1248/1/6 1274/1/6
f 1246/4/6 1247/4/6 1274/4/6
f 1249/4/6 1250/4/6 1275/4/6
f 1274/1/6 1248/1/6 1275/1/6
f 1248/4/6 1249/4/6 1275/4/6
f 1275/4/6 1250/4/6 1276/4/6
f 1250/1/6 1251/1/6 1277/1/6
f 1276/4/6 1250/4/6 1277/4/6
f 1251/1/6 1252/1/6 1277/1/6
f 1277/1/6 1252/1/6 1278/1/6
f 1278/1/6 1252/1/6 1279/1/6
f 1252/3/6 1253/3/6 1280/3/6
f 1279/1/6 1252/1/6 1280/1/6
f 1280/3/6 1253/3/6 1281/3/6
f 1253/1/6 1254/1/6 1282/1/6
f 1281/3/6 1253/3/6 1282/3/6
f 1282/1/6 1254/1/6 1283/1/6
f 1254/4/6 1255/4/6 1284/4/6
f 1283/1/6 1254/1/6 1284/1/6
f 1255/1/6 1256/1/6 1285/1/6
f 1284/4/6 1255/4/6 1285/4/6
f 1256/3/6 1257/3/6 1286/3/6
f 1257/4/6 1258/4/6 1286/4/6
f 1258/1/6 1259/1/6 1287/1/6
f 1286/4/6 1258/4/6 1287/4/6
f 1259/1/6 1260/1/6 1287/1/6
f 1287/1/6 1260/1/6 1288/1/6
f 1219/3/6 1201/3/6 1289/3/6
f 1288/1/6 1260/1/6 1289/1/6
f 1260/1/6 1219/1/6 1289/1/6
f 1201/1/6 1202/1/6 1290/1/6
f 1289/3/6 1201/3/6 1290/3/6
f 1202/3/6 1220/3/6 1291/3/6
f 1290/1/6 1202/1/6 1291/1/6
f 1220/1/6 1261/1/6 1292/1/6
f 1291/3/6 1220/3/6 1292/3/6
f 1261/1/6 1262/1/6 1292/1/6
f 1262/1/6 1263/1/6 1292/1/6
f 1265/3/6 1266/3/6 1293/3/6
f 1264/1/6 1265/1/6 1293/1/6
f 1293/3/6 1266/3/6 1294/3/6
f 1266/1/6 1267/1/6 1295/1/6
f 1294/3/6 1266/3/6 1295/3/6
f 1267/1/6 1268/1/6 1295/1/6
f 1295/1/6 1268/1/6 1296/1/6
f 1268/4/6 1269/4/6 1297/4/6
f 1296/1/6 1268/1/6 1297/1/6
f 1270/1/6 1271/1/6 1298/1/6
f 1297/4/6 1269/4/6 1298/4/6
f 1269/1/6 1270/1/6 1298/1/6
f 1298/1/6 1271/1/6 1299/1/6
f 1271/3/6 1272/3/6 1300/3/6
f 1299/1/6 1271/1/6 1300/1/6
f 1272/3/6 1273/3/6 1300/3/6
f 1300/3/6 1273/3/6 1301/3/6
f 1273/1/6 1013/1/6 1302/1/6
f 1301/3/6 1273/3/6 1302/3/6
f 1302/1/6 1013/1/6 1303/1/6
f 1000/1/6 1246/1/6 1304/1/6
f 1246/4/6 1274/4/6 1305/4/6
f 1304/1/6 1246/1/6 1305/1/6
f 1275/3/6 1276/3/6 1306/3/6
f 1305/4/6 1274/4/6 1306/4/6
f 1274/3/6 1275/3/6 1306/3/6
f 1306/3/6 1276/3/6 1307/3/6
f 1276/1/6 1277/1/6 1308/1/6
f 1307/3/6 1276/3/6 1308/3/6
f 1278/1/6 1279/1/6 1309/1/6
f 1277/4/6 1278/4/6 1309/4/6
f 1309/1/6 1279/1/6 1310/1/6
f 1310/1/6 1279/1/6 1311/1/6
f 1311/1/6 1279/1/6 1312/1/6
f 1312/1/6 1279/1/6 1313/1/6
f 1280/3/6 1281/3/6 1314/3/6
f 1313/1/6 1279/1/6 1314/1/6
f 1279/3/6 1280/3/6 1314/3/6
f 1281/1/6 1282/1/6 1315/1/6
f 1314/3/6 1281/3/6 1315/3/6
f 1282/1/6 1283/1/6 1315/1/6
f 1315/1/6 1283/1/6 1316/1/6
f 1283/4/6 1284/4/6 1317/4/6
f 1316/1/6 1283/1/6 1317/1/6
f 1284/1/6 1285/1/6 1318/1/6
f 1317/4/6 1284/4/6 1318/4/6
f 1256/3/6 1286/3/6 1319/3/6
f 1318/1/6 1285/1/6 1319/1/6
f 1285/1/6 1256/1/6 1319/1/6
f 1286/1/6 1287/1/6 1320/1/6
f 1319/3/6 1286/3/6 1320/3/6
f 1287/4/6 1288/4/6 1321/4/6
f 1320/1/6 1287/1/6 1321/1/6
f 1289/1/6 1290/1/6 1322/1/6
f 1321/4/6 1288/4/6 1322/4/6
f 1290/1/6 1291/1/6 1322/1/6
f 1288/1/6 1289/1/6 1322/1/6
f 1291/1/6 1292/1/6 1322/1/6
f 1322/1/6 1292/1/6 1323/1/6
f 1292/1/6 1263/1/6 1324/1/6
f 1323/1/6 1292/1/6 1324/1/6
f 1263/3/6 1264/3/6 1324/3/6
f 1293/1/6 1294/1/6 1325/1/6
f 1324/3/6 1264/3/6 1325/3/6
f 1264/1/6 1293/1/6 1325/1/6
f 1295/3/6 1296/3/6 1326/3/6
f 1325/1/6 1294/1/6 1326/1/6
f 1294/3/6 1295/3/6 1326/3/6
f 1296/1/6 1297/1/6 1327/1/6
f 1326/3/6 1296/3/6 1327/3/6
f 1297/1/6 1298/1/6 1327/1/6
f 1327/1/6 1298/1/6 1328/1/6
f 1298/4/6 1299/4/6 1329/4/6
f 1328/1/6 1298/1/6 1329/1/6
f 1300/1/6 1301/1/6 1330/1/6
f 1329/4/6 1299/4/6 1330/4/6
f 1299/1/6 1300/1/6 1330/1/6
f 1330/1/6 1301/1/6 1331/1/6
f 1302/3/6 1303/3/6 1332/3/6
f 1331/1/6 1301/1/6 1332/1/6
f 1301/3/6 1302/3/6 1332/3/6
f 1332/3/6 1303/3/6 1333/3/6
f 1303/1/6 1013/1/6 1334/1/6
f 1333/3/6 1303/3/6 1334/3/6
f 1334/1/6 1013/1/6 1335/1/6
f 1306/3/6 1307/3/6 1336/3/6
f 1305/3/6 1306/3/6 1336/3/6
f 1307/1/6 1308/1/6 1337/1/6
f 1336/3/6 1307/3/6 1337/3/6
f 1309/4/6 1310/4/6 1338/4/6
f 1337/1/6 1308/1/6 1338/1/6
f 1277/4/6 1309/4/6 1338/4/6
f 1308/1/6 1277/1/6 1338/1/6
f 1338/4/6 1310/4/6 1339/4/6
f 1310/1/6 1311/1/6 1340/1/6
f 1339/4/6 1310/4/6 1340/4/6
f 1311/4/6 1312/4/6 1341/4/6
f 1340/1/6 1311/1/6 1341/1/6
f 1312/1/6 1313/1/6 1342/1/6
f 1341/4/6 1312/4/6 1342/4/6
f 1342/1/6 1313/1/6 1343/1/6
f 1313/3/6 1314/3/6 1344/3/6
f 1343/1/6 1313/1/6 1344/1/6
f 1314/1/6 1315/1/6 1345/1/6
f 1344/3/6 1314/3/6 1345/3/6
f 1315/1/6 1316/1/6 1345/1/6
f 1345/1/6 1316/1/6 1346/1/6
f 1316/4/6 1317/4/6 1347/4/6
f 1346/1/6 1316/1/6 1347/1/6
f 1320/1/6 1321/1/6 1348/1/6
f 1347/4/6 1317/4/6 1348/4/6
f 1319/1/6 1320/1/6 1348/1/6
f 1317/1/6 1318/1/6 1348/1/6
f 1318/1/6 1319/1/6 1348/1/6
f 1321/1/6 1322/1/6 1348/1/6
f 1322/4/6 1323/4/6 1349/4/6
f 1348/1/6 1322/1/6 1349/1/6
f 1324/1/6 1325/1/6 1350/1/6
f 1349/4/6 1323/4/6 1350/4/6
f 1326/1/6 1327/1/6 1350/1/6
f 1325/1/6 1326/1/6 1350/1/6
f 1323/1/6 1324/1/6 1350/1/6
f 1350/1/6 1327/1/6 1351/1/6
f 1327/3/6 1328/3/6 1352/3/6
f 1351/1/6 1327/1/6 1352/1/6
f 1328/1/6 1329/1/6 1353/1/6
f 1352/3/6 1328/3/6 1353/3/6
f 1329/1/6 1330/1/6 1353/1/6
f 1330/4/6 1331/4/6 1354/4/6
f 1353/1/6 1330/1/6 1354/1/6
f 1332/1/6 1333/1/6 1355/1/6
f 1354/4/6 1331/4/6 1355/4/6
f 1331/1/6 1332/1/6 1355/1/6
f 1355/1/6 1333/1/6 1356/1/6
f 1333/3/6 1334/3/6 1357/3/6
f 1356/1/6 1333/1/6 1357/1/6
f 1334/3/6 1335/3/6 1357/3/6
f 1357/3/6 1335/3/6 1358/3/6
f 1335/1/6 1013/1/6 1359/1/6
f 1358/3/6 1335/3/6 1359/3/6
f 1359/1/6 1013/1/6 1360/1/6
f 1000/1/6 1304/1/6 1361/1/6
f 1304/4/6 1305/4/6 1362/4/6
f 1361/1/6 1304/1/6 1362/1/6
f 1305/3/6 1336/3/6 1363/3/6
f 1362/4/6 1305/4/6 1363/4/6
f 1336/1/6 1337/1/6 1364/1/6
f 1363/3/6 1336/3/6 1364/3/6
f 1337/1/6 1338/1/6 1364/1/6
f 1338/1/6 1339/1/6 1364/1/6
f 1339/4/6 1340/4/6 1365/4/6
f 1364/1/6 1339/1/6 1365/1/6
f 1340/4/6 1341/4/6 1365/4/6
f 1341/1/6 1342/1/6 1366/1/6
f 1365/4/6 1341/4/6 1366/4/6
f 1344/1/6 1345/1/6 1367/1/6
f 1343/1/6 1344/1/6 1367/1/6
f 1342/4/6 1343/4/6 1367/4/6
f 1345/1/6 1346/1/6 1367/1/6
f 1367/1/6 1346/1/6 1368/1/6
f 1346/4/6 1347/4/6 1369/4/6
f 1348/1/6 1349/1/6 1370/1/6
f 1369/4/6 1347/4/6 1370/4/6
f 1347/1/6 1348/1/6 1370/1/6
f 1349/1/6 1350/1/6 1370/1/6
f 1350/4/6 1351/4/6 1371/4/6
f 1370/1/6 1350/1/6 1371/1/6
f 1353/1/6 1354/1/6 1372/1/6
f 1371/4/6 1351/4/6 1372/4/6
f 1351/1/6 1352/1/6 1372/1/6
f 1352/1/6 1353/1/6 1372/1/6
f 1354/1/6 1355/1/6 1372/1/6
f 1372/1/6 1355/1/6 1373/1/6
f 1355/4/6 1356/4/6 1374/4/6
f 1373/1/6 1355/1/6 1374/1/6
f 1356/1/6 1357/1/6 1375/1/6
f 1374/4/6 1356/4/6 1375/4/6
f 1357/1/6 1358/1/6 1375/1/6
f 1375/1/6 1358/1/6 1376/1/6
f 1359/3/6 1360/3/6 1377/3/6
f 1376/1/6 1358/1/6 1377/1/6
f 1358/3/6 1359/3/6 1377/3/6
f 1377/3/6 1360/3/6 1378/3/6
f 1362/3/6 1363/3/6 1379/3/6
f 1361/4/6 1362/4/6 1379/4/6
f 1365/1/6 1366/1/6 1380/1/6
f 1379/3/6 1363/3/6 1380/3/6
f 1363/1/6 1364/1/6 1380/1/6
f 1364/1/6 1365/1/6 1380/1/6
f 1366/1/6 1342/1/6 1381/1/6
f 1380/1/6 1366/1/6 1381/1/6
f 1367/4/6 1368/4/6 1381/4/6
f 1342/4/6 1367/4/6 1381/4/6
f 1368/1/6 1346/1/6 1382/1/6
f 1381/4/6 1368/4/6 1382/4/6
f 1382/1/6 1346/1/6 1383/1/6
f 1383/1/6 1346/1/6 1384/1/6
f 1346/4/6 1369/4/6 1385/4/6
f 1384/1/6 1346/1/6 1385/1/6
f 1370/1/6 1371/1/6 1386/1/6
f 1385/4/6 1369/4/6 1386/4/6
f 1369/1/6 1370/1/6 1386/1/6
f 1371/1/6 1372/1/6 1386/1/6
f 1372/4/6 1373/4/6 1387/4/6
f 1386/1/6 1372/1/6 1387/1/6
f 1373/1/6 1374/1/6 1388/1/6
f 1387/4/6 1373/4/6 1388/4/6
f 1374/1/6 1375/1/6 1388/1/6
f 1388/1/6 1375/1/6 1389/1/6
f 1375/4/6 1376/4/6 1390/4/6
f 1389/1/6 1375/1/6 1390/1/6
f 1377/1/6 1378/1/6 1391/1/6
f 1390/4/6 1376/4/6 1391/4/6
f 1376/1/6 1377/1/6 1391/1/6
f 1391/1/6 1378/1/6 1392/1/6
f 1378/3/6 1360/3/6 1393/3/6
f 1392/1/6 1378/1/6 1393/1/6
f 1360/1/6 1013/1/6 1394/1/6
f 1393/3/6 1360/3/6 1394/3/6
f 1000/1/6 1361/1/6 1395/1/6
f 1361/4/6 1379/4/6 1396/4/6
f 1395/1/6 1361/1/6 1396/1/6
f 1380/1/6 1381/1/6 1397/1/6
f 1396/4/6 1379/4/6 1397/4/6
f 1379/1/6 1380/1/6 1397/1/6
f 1381/1/6 1382/1/6 1397/1/6
f 1382/4/6 1383/4/6 1398/4/6
f 1397/1/6 1382/1/6 1398/1/6
f 1383/1/6 1384/1/6 1399/1/6
f 1398/4/6 1383/4/6 1399/4/6
f 1399/1/6 1384/1/6 1400/1/6
f 1400/1/6 1384/1/6 1401/1/6
f 1384/4/6 1385/4/6 1402/4/6
f 1401/1/6 1384/1/6 1402/1/6
f 1385/1/6 1386/1/6 1403/1/6
f 1402/4/6 1385/4/6 1403/4/6
f 1386/1/6 1387/1/6 1403/1/6
f 1387/1/6 1388/1/6 1403/1/6
f 1388/4/6 1389/4/6 1404/4/6
f 1403/1/6 1388/1/6 1404/1/6
f 1390/1/6 1391/1/6 1405/1/6
f 1404/4/6 1389/4/6 1405/4/6
f 1389/1/6 1390/1/6 1405/1/6
f 1405/1/6 1391/1/6 1406/1/6
f 1391/4/6 1392/4/6 1407/4/6
f 1406/1/6 1391/1/6 1407/1/6
f 1393/1/6 1394/1/6 1408/1/6
f 1407/4/6 1392/4/6 1408/4/6
f 1392/1/6 1393/1/6 1408/1/6
f 1408/1/6 1394/1/6 1409/1/6
f 1397/1/6 1398/1/6 1410/1/6
f 1399/4/6 1400/4/6 1410/4/6
f 1396/1/6 1397/1/6 1410/1/6
f 1398/1/6 1399/1/6 1410/1/6
f 1400/1/6 1401/1/6 1411/1/6
f 1410/4/6 1400/4/6 1411/4/6
f 1411/1/6 1401/1/6 1412/1/6
f 1412/1/6 1401/1/6 1413/1/6
f 1401/4/6 1402/4/6 1414/4/6
f 1413/1/6 1401/1/6 1414/1/6
f 1402/1/6 1403/1/6 1415/1/6
f 1414/4/6 1402/4/6 1415/4/6
f 1404/1/6 1405/1/6 1415/1/6
f 1403/1/6 1404/1/6 1415/1/6
f 1405/4/6 1406/4/6 1416/4/6
f 1415/1/6 1405/1/6 1416/1/6
f 1406/1/6 1407/1/6 1417/1/6
f 1416/4/6 1406/4/6 1417/4/6
f 1407/1/6 1408/1/6 1417/1/6
f 1417/1/6 1408/1/6 1418/1/6
f 1408/4/6 1409/4/6 1419/4/6
f 1418/1/6 1408/1/6 1419/1/6
f 1409/1/6 1394/1/6 1420/1/6
f 1419/4/6 1409/4/6 1420/4/6
f 1420/1/6 1394/1/6 1421/1/6
f 1411/4/6 1412/4/6 1422/4/6
f 1410/1/6 1411/1/6 1422/1/6
f 1412/1/6 1413/1/6 1423/1/6
f 1422/4/6 1412/4/6 1423/4/6
f 1423/1/6 1413/1/6 1424/1/6
f 1424/1/6 1413/1/6 1425/1/6
f 1414/1/6 1415/1/6 1426/1/6
f 1415/1/6 1416/1/6 1426/1/6
f 1416/1/6 1417/1/6 1426/1/6
f 1426/1/6 1417/1/6 1427/1/6
f 1417/4/6 1418/4/6 1428/4/6
f 1427/1/6 1417/1/6 1428/1/6
f 1418/1/6 1419/1/6 1429/1/6
f 1428/4/6 1418/4/6 1429/4/6
f 1419/1/6 1420/1/6 1429/1/6
f 1429/1/6 1420/1/6 1430/1/6
f 1430/1/6 1420/1/6 1431/1/6
f 1431/1/6 1420/1/6 1432/1/6
f 1432/1/6 1420/1/6 1433/1/6
f 1433/1/6 1420/1/6 1434/1/6
f 1420/4/6 1421/4/6 1435/4/6
f 1434/1/6 1420/1/6 1435/1/6
f 1421/1/6 1394/1/6 1436/1/6
f 1435/4/6 1421/4/6 1436/4/6
f 1000/1/6 1395/1/6 1437/1/6
f 1395/4/6 1396/4/6 1438/4/6
f 1437/1/6 1395/1/6 1438/1/6
f 1396/1/6 1410/1/6 1439/1/6
f 1438/4/6 1396/4/6 1439/4/6
f 1410/1/6 1422/1/6 1439/1/6
f 1422/1/6 1423/1/6 1439/1/6
f 1423/4/6 1424/4/6 1440/4/6
f 1439/1/6 1423/1/6 1440/1/6
f 1424/3/6 1425/3/6 1441/3/6
f 1440/4/6 1424/4/6 1441/4/6
f 1425/1/6 1413/1/6 1442/1/6
f 1441/3/6 1425/3/6 1442/3/6
f 1413/4/6 1414/4/6 1443/4/6
f 1442/1/6 1413/1/6 1443/1/6
f 1414/1/6 1426/1/6 1444/1/6
f 1443/4/6 1414/4/6 1444/4/6
f 1426/3/6 1427/3/6 1445/3/6
f 1444/1/6 1426/1/6 1445/1/6
f 1427/1/6 1428/1/6 1446/1/6
f 1445/3/6 1427/3/6 1446/3/6
f 1428/1/6 1429/1/6 1446/1/6
f 1429/4/6 1430/4/6 1447/4/6
f 1446/1/6 1429/1/6 1447/1/6
f 1430/1/6 1431/1/6 1448/1/6
f 1447/4/6 1430/4/6 1448/4/6
f 1431/3/6 1432/3/6 1449/3/6
f 1448/1/6 1431/1/6 1449/1/6
f 1432/1/6 1433/1/6 1450/1/6
f 1449/3/6 1432/3/6 1450/3/6
f 1433/3/6 1434/3/6 1451/3/6
f 1450/1/6 1433/1/6 1451/1/6
f 1435/1/6 1436/1/6 1452/1/6
f 1451/3/6 1434/3/6 1452/3/6
f 1434/1/6 1435/1/6 1452/1/6
f 1436/1/6 1394/1/6 1453/1/6
f 1452/1/6 1436/1/6 1453/1/6
f 1394/1/6 1013/1/6 1453/1/6
