# MagicaVoxel @ Ephtracy

# group
o 

# material
mtllib stadium-large-complex-4.mtl
usemtl palette

# normals
vn -1 0 0
vn 1 0 0
vn 0 0 1
vn 0 0 -1
vn 0 -1 0
vn 0 1 0

# texcoords
vt 0.970703 0.5
vt 0.978516 0.5
vt 0.982422 0.5

# verts
v -11.8 8 5
v -11.8 8 4
v -11.8 8.4 5
v -11.8 8.4 4.9
v -11.8 8.5 5
v -11.8 8.5 4.9
v -11.8 8.8 5
v -11.8 8.8 4.9
v -11.8 8.9 5
v -11.8 8.9 4.9
v -11.8 8.9 4.8
v -11.8 8.9 4.7
v -11.8 9 5
v -11.8 9 4.8
v -11.8 9 4.7
v -11.8 9 4
v -0.3 8 5
v -0.3 8 4
v -0.3 8.1 4.1
v -0.3 8.1 4
v -0.3 8.2 4.1
v -0.3 8.2 4
v -0.3 8.8 5
v -0.3 8.8 4.9
v -0.3 8.9 5
v -0.3 8.9 4.9
v -0.3 9 5
v -0.3 9 4
v -11.8 8 5
v -11.8 8.4 5
v -11.8 8.5 5
v -11.8 8.8 5
v -11.8 8.9 5
v -11.8 9 5
v -11.7 8.5 5
v -11.7 8.8 5
v -11.7 8.9 5
v -11.6 8.4 5
v -11.6 8.8 5
v -11.1 8 5
v -11.1 8.1 5
v -11 8 5
v -11 8.1 5
v -11 8.4 5
v -10.9 8.1 5
v -10.9 8.4 5
v -10.9 8.6 5
v -10.8 8.4 5
v -10.8 8.6 5
v -10.8 8.8 5
v -10.7 8.6 5
v -10.7 8.8 5
v -10.7 9 5
v -10.6 8.8 5
v -10.6 9 5
v -9.4 8.2 5
v -9.4 8.4 5
v -9.3 8.2 5
v -9.3 8.3 5
v -9.2 8.3 5
v -9.2 8.4 5
v -9.2 8.5 5
v -9.1 8.4 5
v -9.1 8.5 5
v -9.1 8.6 5
v -8.9 8.5 5
v -8.9 8.6 5
v -8.9 8.7 5
v -8.7 8.6 5
v -8.7 8.7 5
v -8.7 8.8 5
v -8.6 8.7 5
v -8.6 8.8 5
v -8.6 9 5
v -8.5 8.9 5
v -8.5 9 5
v -8.4 8.8 5
v -8.4 8.9 5
v -8.4 9 5
v -8.1 8.9 5
v -8.1 9 5
v -8 8.9 5
v -8 9 5
v -7.9 8.9 5
v -7.9 9 5
v -7.7 8.9 5
v -7.7 9 5
v -7.6 8.9 5
v -7.6 9 5
v -6.8 8 5
v -6.8 9 5
v -6.7 8 5
v -6.7 9 5
v -5.5 8.9 5
v -5.5 9 5
v -5.4 8.9 5
v -5.4 9 5
v -5.3 8.5 5
v -5.3 9 5
v -5.2 8 5
v -5.2 8.5 5
v -5.2 9 5
v -5.1 8 5
v -5.1 8.5 5
v -3.6 8 5
v -3.6 8.1 5
v -3.5 8 5
v -3.5 8.1 5
v -3.5 8.3 5
v -3.4 8.1 5
v -3.4 8.3 5
v -3.4 8.6 5
v -3.3 8.3 5
v -3.3 8.6 5
v -3.3 8.8 5
v -3.2 8.6 5
v -3.2 8.8 5
v -3.2 9 5
v -3.1 8.8 5
v -3.1 9 5
v -2.8 8.9 5
v -2.8 9 5
v -2.7 8.8 5
v -2.7 8.9 5
v -2.7 9 5
v -2.6 8.7 5
v -2.6 8.8 5
v -2.6 8.9 5
v -2.5 8.6 5
v -2.5 8.7 5
v -2.5 8.8 5
v -2.4 8.5 5
v -2.4 8.6 5
v -2.4 8.7 5
v -2.3 8.4 5
v -2.3 8.5 5
v -2.3 8.6 5
v -2.2 8.3 5
v -2.2 8.4 5
v -2.2 8.5 5
v -2.1 8.2 5
v -2.1 8.3 5
v -2.1 8.4 5
v -2 8.1 5
v -2 8.2 5
v -2 8.3 5
v -2 8.9 5
v -2 9 5
v -1.9 8 5
v -1.9 8.1 5
v -1.9 8.2 5
v -1.9 8.9 5
v -1.9 9 5
v -1.8 8 5
v -1.8 8.1 5
v -0.700001 8.9 5
v -0.700001 9 5
v -0.400001 8.8 5
v -0.400001 8.9 5
v -0.400001 9 5
v -0.3 8 5
v -0.3 8.8 5
v -0.3 8.9 5
v -0.3 9 5
v -11.8 8 4
v -11.8 9 4
v -11.6 8 4
v -11.6 8.2 4
v -11.5 8 4
v -11.5 8.2 4
v -11.5 8.4 4
v -11.4 8.2 4
v -11.4 8.4 4
v -11.4 8.5 4
v -11.3 8.4 4
v -11.3 8.5 4
v -11.3 8.7 4
v -11.2 8.5 4
v -11.2 8.7 4
v -11.2 8.9 4
v -11.2 9 4
v -11.1 8.7 4
v -11.1 8.8 4
v -11.1 8.9 4
v -11.1 9 4
v -11 8.7 4
v -11 8.8 4
v -11 8.9 4
v -10.9 8.6 4
v -10.9 8.7 4
v -10.9 8.8 4
v -10.9 8.9 4
v -10.9 9 4
v -10.8 8.5 4
v -10.8 8.6 4
v -10.8 8.7 4
v -10.7 8.4 4
v -10.7 8.5 4
v -10.7 8.6 4
v -10.6 8.3 4
v -10.6 8.4 4
v -10.6 8.5 4
v -10.5 8.2 4
v -10.5 8.3 4
v -10.5 8.4 4
v -10.4 8.1 4
v -10.4 8.2 4
v -10.4 8.3 4
v -10.3 8 4
v -10.3 8.1 4
v -10.3 8.2 4
v -10.2 8 4
v -10.2 8.1 4
v -8.9 8 4
v -8.9 8.1 4
v -8.8 8 4
v -8.8 8.1 4
v -8.8 8.3 4
v -8.7 8.1 4
v -8.7 8.3 4
v -8.7 8.6 4
v -8.7 8.9 4
v -8.7 9 4
v -8.6 8.3 4
v -8.6 8.6 4
v -8.6 8.8 4
v -8.5 8.6 4
v -8.5 8.8 4
v -8.5 8.9 4
v -8.4 8.9 4
v -8.4 9 4
v -8.3 8.7 4
v -8.3 8.8 4
v -8.3 8.9 4
v -8.2 8.6 4
v -8.2 8.7 4
v -8.2 8.8 4
v -8 8 4
v -8 8.1 4
v -8 8.5 4
v -8 8.6 4
v -8 8.7 4
v -8 9 4
v -7.9 8.2 4
v -7.9 8.5 4
v -7.9 8.6 4
v -7.9 8.9 4
v -7.8 8.1 4
v -7.8 8.2 4
v -7.8 8.4 4
v -7.8 8.5 4
v -7.8 8.6 4
v -7.8 8.9 4
v -7.8 9 4
v -7.7 8 4
v -7.7 8.1 4
v -7.6 8.3 4
v -7.6 8.4 4
v -7.6 8.5 4
v -7.5 8.1 4
v -7.5 8.2 4
v -7.5 8.3 4
v -7.4 8.3 4
v -7.4 8.4 4
v -7.3 8.1 4
v -7.3 8.2 4
v -7.2 8.2 4
v -7.2 8.3 4
v -7.2 8.4 4
v -7.1 8 4
v -7.1 8.1 4
v -7.1 8.2 4
v -7 8 4
v -7 8.1 4
v -6.9 8.3 4
v -6.9 8.4 4
v -6.9 8.5 4
v -6.7 8.4 4
v -6.7 8.5 4
v -6.7 8.6 4
v -6.5 8.5 4
v -6.5 8.6 4
v -6.5 8.7 4
v -6.3 8.6 4
v -6.3 8.7 4
v -6.3 8.8 4
v -6 8.7 4
v -6 8.8 4
v -6 8.9 4
v -5.8 8.8 4
v -5.8 8.9 4
v -5.8 9 4
v -5.6 8.9 4
v -5.6 9 4
v -5.5 8.9 4
v -5.5 9 4
v -5.4 8.9 4
v -5.4 9 4
v -4 8.9 4
v -4 9 4
v -3.9 8.9 4
v -3.9 9 4
v -2.4 8.9 4
v -2.4 9 4
v -2.3 8 4
v -2.3 8.1 4
v -2.3 8.9 4
v -2.3 9 4
v -2.2 8 4
v -2.2 8.1 4
v -2.2 8.2 4
v -2.1 8.1 4
v -2.1 8.2 4
v -2.1 8.4 4
v -2 8.2 4
v -2 8.4 4
v -2 8.5 4
v -1.9 8.4 4
v -1.9 8.5 4
v -1.9 8.6 4
v -1.8 8.5 4
v -1.8 8.6 4
v -1.8 8.7 4
v -1.6 8.6 4
v -1.6 8.7 4
v -1.6 8.9 4
v -1.5 8.7 4
v -1.5 8.9 4
v -1.5 9 4
v -1.4 8.9 4
v -1.4 9 4
v -1.3 8.9 4
v -1.3 9 4
v -1.2 8.9 4
v -1.2 9 4
v -1 8.7 4
v -1 8.8 4
v -0.900001 8.6 4
v -0.900001 8.7 4
v -0.900001 8.8 4
v -0.900001 9 4
v -0.8 8.5 4
v -0.8 8.6 4
v -0.8 8.7 4
v -0.8 8.8 4
v -0.8 9 4
v -0.700001 8.4 4
v -0.700001 8.5 4
v -0.700001 8.6 4
v -0.6 8.3 4
v -0.6 8.4 4
v -0.6 8.5 4
v -0.5 8.2 4
v -0.5 8.3 4
v -0.5 8.4 4
v -0.400001 8.1 4
v -0.400001 8.2 4
v -0.400001 8.3 4
v -0.3 8 4
v -0.3 8.1 4
v -0.3 8.2 4
v -0.3 9 4
v -11.8 8 5
v -11.1 8 5
v -11 8 5
v -6.8 8 5
v -6.7 8 5
v -5.2 8 5
v -5.1 8 5
v -3.6 8 5
v -3.5 8 5
v -1.9 8 5
v -1.8 8 5
v -0.3 8 5
v -11.1 8 4.9
v -11 8 4.9
v -6.8 8 4.9
v -6.7 8 4.9
v -5.2 8 4.9
v -5.1 8 4.9
v -3.6 8 4.9
v -3.5 8 4.9
v -1.9 8 4.9
v -1.8 8 4.9
v -11.6 8 4.1
v -11.5 8 4.1
v -10.3 8 4.1
v -10.2 8 4.1
v -8.9 8 4.1
v -8.8 8 4.1
v -8 8 4.1
v -7.7 8 4.1
v -7.1 8 4.1
v -7 8 4.1
v -2.3 8 4.1
v -2.2 8 4.1
v -11.8 8 4
v -11.6 8 4
v -11.5 8 4
v -10.3 8 4
v -10.2 8 4
v -8.9 8 4
v -8.8 8 4
v -8 8 4
v -7.7 8 4
v -7.1 8 4
v -7 8 4
v -2.3 8 4
v -2.2 8 4
v -0.3 8 4
v -11.8 9 5
v -10.7 9 5
v -10.6 9 5
v -8.6 9 5
v -8.5 9 5
v -8.4 9 5
v -8.1 9 5
v -8 9 5
v -7.9 9 5
v -7.7 9 5
v -7.6 9 5
v -6.8 9 5
v -6.7 9 5
v -5.5 9 5
v -5.4 9 5
v -5.3 9 5
v -5.2 9 5
v -3.2 9 5
v -3.1 9 5
v -2.8 9 5
v -2.7 9 5
v -2 9 5
v -1.9 9 5
v -0.700001 9 5
v -0.400001 9 5
v -0.3 9 5
v -8.4 9 4.9
v -8.2 9 4.9
v -8.1 9 4.9
v -8 9 4.9
v -7.9 9 4.9
v -7.7 9 4.9
v -7.6 9 4.9
v -3.3 9 4.9
v -3.2 9 4.9
v -3.1 9 4.9
v -2 9 4.9
v -1.9 9 4.9
v -1.8 9 4.9
v -0.8 9 4.9
v -0.700001 9 4.9
v -0.6 9 4.9
v -0.400001 9 4.9
v -11.8 9 4.8
v -11.7 9 4.8
v -3.4 9 4.8
v -3.3 9 4.8
v -3.2 9 4.8
v -0.700001 9 4.8
v -0.6 9 4.8
v -11.8 9 4.7
v -11.7 9 4.7
v -11.5 9 4.7
v -10.8 9 4.7
v -10.7 9 4.7
v -10.6 9 4.7
v -6.9 9 4.7
v -6.8 9 4.7
v -6.7 9 4.7
v -5.4 9 4.7
v -5.3 9 4.7
v -5.2 9 4.7
v -3.5 9 4.7
v -3.4 9 4.7
v -3.3 9 4.7
v -2.8 9 4.7
v -2.7 9 4.7
v -2.6 9 4.7
v -1.9 9 4.7
v -1.8 9 4.7
v -1.7 9 4.7
v -0.900001 9 4.7
v -0.8 9 4.7
v -11.7 9 4.6
v -11.5 9 4.6
v -11.4 9 4.6
v -8.3 9 4.6
v -8.2 9 4.6
v -5.6 9 4.6
v -5.5 9 4.6
v -5.4 9 4.6
v -3.6 9 4.6
v -3.5 9 4.6
v -3.4 9 4.6
v -11.5 9 4.5
v -11.4 9 4.5
v -11.3 9 4.5
v -8.6 9 4.5
v -8.5 9 4.5
v -8.3 9 4.5
v -8.1 9 4.5
v -3.7 9 4.5
v -3.6 9 4.5
v -3.5 9 4.5
v -2.7 9 4.5
v -2.6 9 4.5
v -2.5 9 4.5
v -1.8 9 4.5
v -1.7 9 4.5
v -1.6 9 4.5
v -1 9 4.5
v -0.900001 9 4.5
v -0.8 9 4.5
v -0.700001 9 4.5
v -11.4 9 4.4
v -11.3 9 4.4
v -10.9 9 4.4
v -10.8 9 4.4
v -10.7 9 4.4
v -8 9 4.4
v -7.9 9 4.4
v -3.8 9 4.4
v -3.7 9 4.4
v -3.6 9 4.4
v -1.1 9 4.4
v -1 9 4.4
v -0.900001 9 4.4
v -11.3 9 4.3
v -11.2 9 4.3
v -8.4 9 4.3
v -8.3 9 4.3
v -7 9 4.3
v -6.9 9 4.3
v -6.8 9 4.3
v -5.5 9 4.3
v -5.4 9 4.3
v -5.3 9 4.3
v -2.6 9 4.3
v -2.5 9 4.3
v -2.4 9 4.3
v -1.7 9 4.3
v -1.6 9 4.3
v -1.5 9 4.3
v -1.2 9 4.3
v -1.1 9 4.3
v -1 9 4.3
v -11.4 9 4.2
v -11.3 9 4.2
v -11.2 9 4.2
v -11.1 9 4.2
v -11 9 4.2
v -10.9 9 4.2
v -10.8 9 4.2
v -8.6 9 4.2
v -8.5 9 4.2
v -3.9 9 4.2
v -3.8 9 4.2
v -3.7 9 4.2
v -11.3 9 4.1
v -11.2 9 4.1
v -11.1 9 4.1
v -11 9 4.1
v -8.7 9 4.1
v -8.6 9 4.1
v -8.1 9 4.1
v -8 9 4.1
v -7.9 9 4.1
v -7.8 9 4.1
v -7 9 4.1
v -6.9 9 4.1
v -5.8 9 4.1
v -5.6 9 4.1
v -5.5 9 4.1
v -4 9 4.1
v -3.9 9 4.1
v -3.8 9 4.1
v -2.5 9 4.1
v -2.4 9 4.1
v -2.3 9 4.1
v -1.6 9 4.1
v -1.5 9 4.1
v -1.4 9 4.1
v -1.3 9 4.1
v -1.2 9 4.1
v -1.1 9 4.1
v -11.8 9 4
v -11.2 9 4
v -11.1 9 4
v -10.9 9 4
v -8.7 9 4
v -8.4 9 4
v -8 9 4
v -7.8 9 4
v -5.8 9 4
v -5.6 9 4
v -5.5 9 4
v -5.4 9 4
v -4 9 4
v -3.9 9 4
v -2.4 9 4
v -2.3 9 4
v -1.5 9 4
v -1.4 9 4
v -1.3 9 4
v -1.2 9 4
v -0.900001 9 4
v -0.8 9 4
v -0.3 9 4

# faces
f 3/1/1 2/1/1 1/1/1
f 4/1/1 2/1/1 3/1/1
f 5/3/1 4/3/1 3/3/1
f 6/1/1 2/1/1 4/1/1
f 6/3/1 4/3/1 5/3/1
f 7/1/1 6/1/1 5/1/1
f 8/1/1 2/1/1 6/1/1
f 8/1/1 6/1/1 7/1/1
f 9/3/1 8/3/1 7/3/1
f 10/1/1 2/1/1 8/1/1
f 10/3/1 8/3/1 9/3/1
f 11/1/1 2/1/1 10/1/1
f 12/1/1 2/1/1 11/1/1
f 13/1/1 10/1/1 9/1/1
f 13/1/1 11/1/1 10/1/1
f 14/2/1 12/2/1 11/2/1
f 14/1/1 11/1/1 13/1/1
f 15/1/1 2/1/1 12/1/1
f 15/2/1 12/2/1 14/2/1
f 16/1/1 2/1/1 15/1/1
f 17/1/2 18/1/2 19/1/2
f 19/1/2 18/1/2 20/1/2
f 17/1/2 19/1/2 21/1/2
f 19/3/2 20/3/2 21/3/2
f 21/3/2 20/3/2 22/3/2
f 17/1/2 21/1/2 23/1/2
f 21/1/2 22/1/2 23/1/2
f 23/1/2 22/1/2 24/1/2
f 23/3/2 24/3/2 25/3/2
f 24/1/2 22/1/2 26/1/2
f 25/3/2 24/3/2 26/3/2
f 25/1/2 26/1/2 27/1/2
f 26/1/2 22/1/2 28/1/2
f 27/1/2 26/1/2 28/1/2
f 35/3/3 31/3/3 30/3/3
f 35/1/3 32/1/3 31/1/3
f 36/3/3 33/3/3 32/3/3
f 36/1/3 32/1/3 35/1/3
f 37/1/3 34/1/3 33/1/3
f 37/3/3 33/3/3 36/3/3
f 38/1/3 30/1/3 29/1/3
f 38/3/3 36/3/3 35/3/3
f 38/3/3 35/3/3 30/3/3
f 39/1/3 37/1/3 36/1/3
f 39/3/3 36/3/3 38/3/3
f 40/1/3 38/1/3 29/1/3
f 40/1/3 39/1/3 38/1/3
f 41/1/3 39/1/3 40/1/3
f 42/2/3 41/2/3 40/2/3
f 43/1/3 39/1/3 41/1/3
f 43/2/3 41/2/3 42/2/3
f 44/1/3 39/1/3 43/1/3
f 45/1/3 43/1/3 42/1/3
f 45/2/3 44/2/3 43/2/3
f 46/1/3 39/1/3 44/1/3
f 46/2/3 44/2/3 45/2/3
f 47/1/3 39/1/3 46/1/3
f 48/1/3 46/1/3 45/1/3
f 48/2/3 47/2/3 46/2/3
f 49/1/3 39/1/3 47/1/3
f 49/2/3 47/2/3 48/2/3
f 50/1/3 37/1/3 39/1/3
f 50/1/3 39/1/3 49/1/3
f 51/1/3 49/1/3 48/1/3
f 51/2/3 50/2/3 49/2/3
f 52/1/3 37/1/3 50/1/3
f 52/2/3 50/2/3 51/2/3
f 53/1/3 34/1/3 37/1/3
f 53/1/3 37/1/3 52/1/3
f 54/1/3 52/1/3 51/1/3
f 54/2/3 53/2/3 52/2/3
f 55/2/3 53/2/3 54/2/3
f 56/1/3 51/1/3 48/1/3
f 56/1/3 48/1/3 45/1/3
f 56/1/3 55/1/3 54/1/3
f 56/1/3 54/1/3 51/1/3
f 57/1/3 55/1/3 56/1/3
f 58/1/3 56/1/3 45/1/3
f 58/2/3 57/2/3 56/2/3
f 59/2/3 57/2/3 58/2/3
f 60/1/3 59/1/3 58/1/3
f 60/2/3 57/2/3 59/2/3
f 61/1/3 55/1/3 57/1/3
f 61/2/3 57/2/3 60/2/3
f 62/1/3 55/1/3 61/1/3
f 63/1/3 61/1/3 60/1/3
f 63/2/3 62/2/3 61/2/3
f 64/1/3 55/1/3 62/1/3
f 64/2/3 62/2/3 63/2/3
f 65/1/3 55/1/3 64/1/3
f 66/1/3 64/1/3 63/1/3
f 66/2/3 65/2/3 64/2/3
f 67/1/3 55/1/3 65/1/3
f 67/2/3 65/2/3 66/2/3
f 68/1/3 55/1/3 67/1/3
f 69/1/3 67/1/3 66/1/3
f 69/2/3 68/2/3 67/2/3
f 70/1/3 55/1/3 68/1/3
f 70/2/3 68/2/3 69/2/3
f 71/1/3 55/1/3 70/1/3
f 72/1/3 70/1/3 69/1/3
f 72/2/3 71/2/3 70/2/3
f 73/1/3 55/1/3 71/1/3
f 73/2/3 71/2/3 72/2/3
f 74/1/3 55/1/3 73/1/3
f 75/2/3 74/2/3 73/2/3
f 76/2/3 74/2/3 75/2/3
f 77/1/3 73/1/3 72/1/3
f 77/2/3 75/2/3 73/2/3
f 78/1/3 76/1/3 75/1/3
f 78/2/3 75/2/3 77/2/3
f 79/1/3 76/1/3 78/1/3
f 80/1/3 78/1/3 77/1/3
f 80/2/3 79/2/3 78/2/3
f 81/2/3 79/2/3 80/2/3
f 82/1/3 80/1/3 77/1/3
f 82/1/3 81/1/3 80/1/3
f 83/1/3 81/1/3 82/1/3
f 84/1/3 82/1/3 77/1/3
f 84/2/3 83/2/3 82/2/3
f 85/2/3 83/2/3 84/2/3
f 86/1/3 84/1/3 77/1/3
f 86/1/3 85/1/3 84/1/3
f 87/1/3 85/1/3 86/1/3
f 88/1/3 86/1/3 77/1/3
f 88/3/3 87/3/3 86/3/3
f 89/3/3 87/3/3 88/3/3
f 90/1/3 45/1/3 42/1/3
f 90/1/3 60/1/3 58/1/3
f 90/1/3 89/1/3 88/1/3
f 90/1/3 88/1/3 77/1/3
f 90/1/3 58/1/3 45/1/3
f 90/1/3 63/1/3 60/1/3
f 90/1/3 66/1/3 63/1/3
f 90/1/3 69/1/3 66/1/3
f 90/1/3 72/1/3 69/1/3
f 90/1/3 77/1/3 72/1/3
f 91/1/3 89/1/3 90/1/3
f 92/2/3 91/2/3 90/2/3
f 93/2/3 91/2/3 92/2/3
f 94/1/3 93/1/3 92/1/3
f 95/1/3 93/1/3 94/1/3
f 96/1/3 94/1/3 92/1/3
f 96/2/3 95/2/3 94/2/3
f 97/2/3 95/2/3 96/2/3
f 98/1/3 96/1/3 92/1/3
f 98/1/3 97/1/3 96/1/3
f 99/1/3 97/1/3 98/1/3
f 100/1/3 98/1/3 92/1/3
f 101/2/3 99/2/3 98/2/3
f 101/1/3 98/1/3 100/1/3
f 102/2/3 99/2/3 101/2/3
f 103/2/3 101/2/3 100/2/3
f 104/1/3 102/1/3 101/1/3
f 104/2/3 101/2/3 103/2/3
f 105/1/3 104/1/3 103/1/3
f 106/1/3 104/1/3 105/1/3
f 107/2/3 106/2/3 105/2/3
f 108/1/3 104/1/3 106/1/3
f 108/2/3 106/2/3 107/2/3
f 109/1/3 104/1/3 108/1/3
f 110/1/3 108/1/3 107/1/3
f 110/2/3 109/2/3 108/2/3
f 111/1/3 104/1/3 109/1/3
f 111/2/3 109/2/3 110/2/3
f 112/1/3 102/1/3 104/1/3
f 112/1/3 104/1/3 111/1/3
f 113/1/3 111/1/3 110/1/3
f 113/2/3 112/2/3 111/2/3
f 114/1/3 102/1/3 112/1/3
f 114/2/3 112/2/3 113/2/3
f 115/1/3 102/1/3 114/1/3
f 116/1/3 114/1/3 113/1/3
f 116/2/3 115/2/3 114/2/3
f 117/1/3 102/1/3 115/1/3
f 117/2/3 115/2/3 116/2/3
f 118/1/3 102/1/3 117/1/3
f 119/1/3 117/1/3 116/1/3
f 119/2/3 118/2/3 117/2/3
f 120/2/3 118/2/3 119/2/3
f 121/1/3 120/1/3 119/1/3
f 122/1/3 120/1/3 121/1/3
f 123/1/3 119/1/3 116/1/3
f 123/1/3 121/1/3 119/1/3
f 124/2/3 122/2/3 121/2/3
f 124/1/3 121/1/3 123/1/3
f 125/2/3 122/2/3 124/2/3
f 126/1/3 123/1/3 116/1/3
f 127/2/3 124/2/3 123/2/3
f 127/1/3 123/1/3 126/1/3
f 128/1/3 125/1/3 124/1/3
f 128/2/3 124/2/3 127/2/3
f 129/1/3 116/1/3 113/1/3
f 129/1/3 126/1/3 116/1/3
f 130/2/3 127/2/3 126/2/3
f 130/1/3 126/1/3 129/1/3
f 131/1/3 128/1/3 127/1/3
f 131/2/3 127/2/3 130/2/3
f 132/1/3 129/1/3 113/1/3
f 133/2/3 130/2/3 129/2/3
f 133/1/3 129/1/3 132/1/3
f 134/1/3 131/1/3 130/1/3
f 134/2/3 130/2/3 133/2/3
f 135/1/3 132/1/3 113/1/3
f 136/2/3 133/2/3 132/2/3
f 136/1/3 132/1/3 135/1/3
f 137/1/3 134/1/3 133/1/3
f 137/2/3 133/2/3 136/2/3
f 138/1/3 113/1/3 110/1/3
f 138/1/3 135/1/3 113/1/3
f 139/2/3 136/2/3 135/2/3
f 139/1/3 135/1/3 138/1/3
f 140/1/3 137/1/3 136/1/3
f 140/2/3 136/2/3 139/2/3
f 141/1/3 138/1/3 110/1/3
f 142/2/3 139/2/3 138/2/3
f 142/1/3 138/1/3 141/1/3
f 143/1/3 140/1/3 139/1/3
f 143/2/3 139/2/3 142/2/3
f 144/1/3 110/1/3 107/1/3
f 144/1/3 141/1/3 110/1/3
f 145/2/3 142/2/3 141/2/3
f 145/1/3 141/1/3 144/1/3
f 146/1/3 143/1/3 142/1/3
f 146/2/3 142/2/3 145/2/3
f 147/1/3 134/1/3 137/1/3
f 147/1/3 143/1/3 146/1/3
f 147/1/3 140/1/3 143/1/3
f 147/1/3 125/1/3 128/1/3
f 147/1/3 137/1/3 140/1/3
f 147/1/3 131/1/3 134/1/3
f 147/1/3 128/1/3 131/1/3
f 148/1/3 125/1/3 147/1/3
f 149/1/3 144/1/3 107/1/3
f 150/2/3 145/2/3 144/2/3
f 150/1/3 144/1/3 149/1/3
f 151/1/3 146/1/3 145/1/3
f 151/2/3 145/2/3 150/2/3
f 151/1/3 147/1/3 146/1/3
f 152/2/3 148/2/3 147/2/3
f 152/1/3 147/1/3 151/1/3
f 153/2/3 148/2/3 152/2/3
f 154/2/3 150/2/3 149/2/3
f 155/1/3 151/1/3 150/1/3
f 155/2/3 150/2/3 154/2/3
f 155/1/3 152/1/3 151/1/3
f 155/1/3 153/1/3 152/1/3
f 156/1/3 155/1/3 154/1/3
f 156/1/3 153/1/3 155/1/3
f 157/1/3 153/1/3 156/1/3
f 158/1/3 156/1/3 154/1/3
f 159/3/3 157/3/3 156/3/3
f 159/1/3 156/1/3 158/1/3
f 160/3/3 157/3/3 159/3/3
f 161/1/3 158/1/3 154/1/3
f 162/3/3 159/3/3 158/3/3
f 162/1/3 158/1/3 161/1/3
f 163/1/3 160/1/3 159/1/3
f 163/3/3 159/3/3 162/3/3
f 164/1/3 160/1/3 163/1/3
f 165/1/4 166/1/4 167/1/4
f 167/1/4 166/1/4 168/1/4
f 167/2/4 168/2/4 169/2/4
f 168/1/4 166/1/4 170/1/4
f 169/2/4 168/2/4 170/2/4
f 170/1/4 166/1/4 171/1/4
f 169/1/4 170/1/4 172/1/4
f 170/2/4 171/2/4 172/2/4
f 171/1/4 166/1/4 173/1/4
f 172/2/4 171/2/4 173/2/4
f 173/1/4 166/1/4 174/1/4
f 172/1/4 173/1/4 175/1/4
f 173/2/4 174/2/4 175/2/4
f 174/1/4 166/1/4 176/1/4
f 175/2/4 174/2/4 176/2/4
f 176/1/4 166/1/4 177/1/4
f 175/1/4 176/1/4 178/1/4
f 176/2/4 177/2/4 178/2/4
f 177/1/4 166/1/4 179/1/4
f 178/2/4 177/2/4 179/2/4
f 179/1/4 166/1/4 180/1/4
f 180/1/4 166/1/4 181/1/4
f 178/1/4 179/1/4 182/1/4
f 179/2/4 180/2/4 182/2/4
f 182/2/4 180/2/4 183/2/4
f 180/3/4 181/3/4 184/3/4
f 183/2/4 180/2/4 184/2/4
f 184/3/4 181/3/4 185/3/4
f 182/1/4 183/1/4 186/1/4
f 178/1/4 182/1/4 186/1/4
f 183/3/4 184/3/4 187/3/4
f 186/1/4 183/1/4 187/1/4
f 184/2/4 185/2/4 188/2/4
f 187/3/4 184/3/4 188/3/4
f 178/1/4 186/1/4 189/1/4
f 186/3/4 187/3/4 190/3/4
f 189/1/4 186/1/4 190/1/4
f 187/1/4 188/1/4 191/1/4
f 190/3/4 187/3/4 191/3/4
f 188/2/4 185/2/4 192/2/4
f 191/1/4 188/1/4 192/1/4
f 192/2/4 185/2/4 193/2/4
f 175/1/4 178/1/4 194/1/4
f 178/1/4 189/1/4 194/1/4
f 189/3/4 190/3/4 195/3/4
f 194/1/4 189/1/4 195/1/4
f 192/1/4 193/1/4 196/1/4
f 195/3/4 190/3/4 196/3/4
f 190/1/4 191/1/4 196/1/4
f 191/1/4 192/1/4 196/1/4
f 172/1/4 175/1/4 197/1/4
f 175/1/4 194/1/4 197/1/4
f 194/3/4 195/3/4 198/3/4
f 197/1/4 194/1/4 198/1/4
f 195/1/4 196/1/4 199/1/4
f 198/3/4 195/3/4 199/3/4
f 172/1/4 197/1/4 200/1/4
f 197/3/4 198/3/4 201/3/4
f 200/1/4 197/1/4 201/1/4
f 198/1/4 199/1/4 202/1/4
f 201/3/4 198/3/4 202/3/4
f 169/1/4 172/1/4 203/1/4
f 172/1/4 200/1/4 203/1/4
f 200/3/4 201/3/4 204/3/4
f 203/1/4 200/1/4 204/1/4
f 201/1/4 202/1/4 205/1/4
f 204/3/4 201/3/4 205/3/4
f 169/1/4 203/1/4 206/1/4
f 203/3/4 204/3/4 207/3/4
f 206/1/4 203/1/4 207/1/4
f 204/1/4 205/1/4 208/1/4
f 207/3/4 204/3/4 208/3/4
f 169/1/4 206/1/4 209/1/4
f 206/3/4 207/3/4 210/3/4
f 209/1/4 206/1/4 210/1/4
f 207/1/4 208/1/4 211/1/4
f 210/3/4 207/3/4 211/3/4
f 209/3/4 210/3/4 212/3/4
f 210/1/4 211/1/4 213/1/4
f 212/3/4 210/3/4 213/3/4
f 212/1/4 213/1/4 214/1/4
f 213/1/4 211/1/4 215/1/4
f 214/1/4 213/1/4 215/1/4
f 214/2/4 215/2/4 216/2/4
f 215/1/4 211/1/4 217/1/4
f 216/2/4 215/2/4 217/2/4
f 208/1/4 205/1/4 218/1/4
f 217/1/4 211/1/4 218/1/4
f 211/1/4 208/1/4 218/1/4
f 216/1/4 217/1/4 219/1/4
f 217/2/4 218/2/4 219/2/4
f 218/1/4 205/1/4 220/1/4
f 219/2/4 218/2/4 220/2/4
f 202/1/4 199/1/4 221/1/4
f 220/1/4 205/1/4 221/1/4
f 199/1/4 196/1/4 221/1/4
f 205/1/4 202/1/4 221/1/4
f 196/1/4 193/1/4 222/1/4
f 221/1/4 196/1/4 222/1/4
f 222/1/4 193/1/4 223/1/4
f 219/1/4 220/1/4 224/1/4
f 220/2/4 221/2/4 224/2/4
f 221/1/4 222/1/4 225/1/4
f 224/2/4 221/2/4 225/2/4
f 225/1/4 222/1/4 226/1/4
f 224/1/4 225/1/4 227/1/4
f 225/2/4 226/2/4 227/2/4
f 226/1/4 222/1/4 228/1/4
f 227/2/4 226/2/4 228/2/4
f 222/2/4 223/2/4 229/2/4
f 228/1/4 222/1/4 229/1/4
f 228/2/4 229/2/4 230/2/4
f 229/2/4 223/2/4 230/2/4
f 230/2/4 223/2/4 231/2/4
f 227/1/4 228/1/4 232/1/4
f 228/2/4 230/2/4 233/2/4
f 232/1/4 228/1/4 233/1/4
f 230/1/4 231/1/4 234/1/4
f 233/2/4 230/2/4 234/2/4
f 224/1/4 227/1/4 235/1/4
f 227/1/4 232/1/4 235/1/4
f 232/2/4 233/2/4 236/2/4
f 235/1/4 232/1/4 236/1/4
f 233/1/4 234/1/4 237/1/4
f 236/2/4 233/2/4 237/2/4
f 216/1/4 219/1/4 238/1/4
f 219/1/4 224/1/4 238/1/4
f 224/1/4 235/1/4 238/1/4
f 238/1/4 235/1/4 239/1/4
f 239/1/4 235/1/4 240/1/4
f 235/2/4 236/2/4 241/2/4
f 240/1/4 235/1/4 241/1/4
f 236/1/4 237/1/4 242/1/4
f 241/2/4 236/2/4 242/2/4
f 237/1/4 234/1/4 243/1/4
f 242/1/4 237/1/4 243/1/4
f 234/1/4 231/1/4 243/1/4
f 239/1/4 240/1/4 244/1/4
f 241/2/4 242/2/4 245/2/4
f 244/1/4 240/1/4 245/1/4
f 240/2/4 241/2/4 245/2/4
f 242/2/4 243/2/4 245/2/4
f 245/2/4 243/2/4 246/2/4
f 246/2/4 243/2/4 247/2/4
f 239/1/4 244/1/4 248/1/4
f 238/2/4 239/2/4 248/2/4
f 244/2/4 245/2/4 249/2/4
f 248/1/4 244/1/4 249/1/4
f 245/2/4 246/2/4 249/2/4
f 249/2/4 246/2/4 250/2/4
f 250/2/4 246/2/4 251/2/4
f 246/1/4 247/1/4 252/1/4
f 251/2/4 246/2/4 252/2/4
f 247/2/4 243/2/4 253/2/4
f 252/1/4 247/1/4 253/1/4
f 253/2/4 243/2/4 254/2/4
f 238/2/4 248/2/4 255/2/4
f 248/2/4 249/2/4 255/2/4
f 255/2/4 249/2/4 256/2/4
f 249/1/4 250/1/4 257/1/4
f 250/2/4 251/2/4 258/2/4
f 257/1/4 250/1/4 258/1/4
f 251/1/4 252/1/4 259/1/4
f 258/2/4 251/2/4 259/2/4
f 253/1/4 254/1/4 259/1/4
f 252/1/4 253/1/4 259/1/4
f 255/1/4 256/1/4 260/1/4
f 256/2/4 249/2/4 260/2/4
f 249/1/4 257/1/4 261/1/4
f 260/2/4 249/2/4 261/2/4
f 257/2/4 258/2/4 262/2/4
f 261/1/4 257/1/4 262/1/4
f 261/2/4 262/2/4 263/2/4
f 262/2/4 258/2/4 263/2/4
f 258/1/4 259/1/4 264/1/4
f 263/2/4 258/2/4 264/2/4
f 260/1/4 261/1/4 265/1/4
f 255/1/4 260/1/4 265/1/4
f 261/2/4 263/2/4 266/2/4
f 265/1/4 261/1/4 266/1/4
f 265/2/4 266/2/4 267/2/4
f 266/2/4 263/2/4 267/2/4
f 263/1/4 264/1/4 268/1/4
f 267/2/4 263/2/4 268/2/4
f 264/1/4 259/1/4 269/1/4
f 268/1/4 264/1/4 269/1/4
f 255/1/4 265/1/4 270/1/4
f 265/2/4 267/2/4 271/2/4
f 270/1/4 265/1/4 271/1/4
f 267/1/4 268/1/4 272/1/4
f 271/2/4 267/2/4 272/2/4
f 270/2/4 271/2/4 273/2/4
f 271/1/4 272/1/4 274/1/4
f 273/2/4 271/2/4 274/2/4
f 272/1/4 268/1/4 275/1/4
f 274/1/4 272/1/4 275/1/4
f 273/1/4 274/1/4 275/1/4
f 268/2/4 269/2/4 275/2/4
f 269/1/4 259/1/4 276/1/4
f 275/2/4 269/2/4 276/2/4
f 259/1/4 254/1/4 277/1/4
f 276/1/4 259/1/4 277/1/4
f 275/1/4 276/1/4 278/1/4
f 276/2/4 277/2/4 278/2/4
f 277/1/4 254/1/4 279/1/4
f 278/2/4 277/2/4 279/2/4
f 279/1/4 254/1/4 280/1/4
f 278/1/4 279/1/4 281/1/4
f 279/2/4 280/2/4 281/2/4
f 280/1/4 254/1/4 282/1/4
f 281/2/4 280/2/4 282/2/4
f 282/1/4 254/1/4 283/1/4
f 281/1/4 282/1/4 284/1/4
f 282/2/4 283/2/4 284/2/4
f 283/1/4 254/1/4 285/1/4
f 284/2/4 283/2/4 285/2/4
f 285/1/4 254/1/4 286/1/4
f 284/1/4 285/1/4 287/1/4
f 285/2/4 286/2/4 287/2/4
f 286/1/4 254/1/4 288/1/4
f 287/2/4 286/2/4 288/2/4
f 288/1/4 254/1/4 289/1/4
f 287/1/4 288/1/4 290/1/4
f 288/2/4 289/2/4 290/2/4
f 289/1/4 254/1/4 291/1/4
f 290/2/4 289/2/4 291/2/4
f 291/1/4 254/1/4 292/1/4
f 290/1/4 291/1/4 293/1/4
f 291/2/4 292/2/4 293/2/4
f 293/2/4 292/2/4 294/2/4
f 290/1/4 293/1/4 295/1/4
f 293/1/4 294/1/4 295/1/4
f 295/1/4 294/1/4 296/1/4
f 290/1/4 295/1/4 297/1/4
f 295/2/4 296/2/4 297/2/4
f 297/2/4 296/2/4 298/2/4
f 290/1/4 297/1/4 299/1/4
f 297/1/4 298/1/4 299/1/4
f 299/1/4 298/1/4 300/1/4
f 290/1/4 299/1/4 301/1/4
f 299/2/4 300/2/4 301/2/4
f 301/2/4 300/2/4 302/2/4
f 290/1/4 301/1/4 303/1/4
f 301/1/4 302/1/4 303/1/4
f 303/1/4 302/1/4 304/1/4
f 275/1/4 278/1/4 305/1/4
f 273/1/4 275/1/4 305/1/4
f 278/1/4 281/1/4 305/1/4
f 290/1/4 303/1/4 305/1/4
f 281/1/4 284/1/4 305/1/4
f 284/1/4 287/1/4 305/1/4
f 287/1/4 290/1/4 305/1/4
f 305/1/4 303/1/4 306/1/4
f 303/2/4 304/2/4 307/2/4
f 306/1/4 303/1/4 307/1/4
f 307/2/4 304/2/4 308/2/4
f 305/2/4 306/2/4 309/2/4
f 306/1/4 307/1/4 310/1/4
f 309/2/4 306/2/4 310/2/4
f 307/1/4 308/1/4 310/1/4
f 310/1/4 308/1/4 311/1/4
f 309/1/4 310/1/4 312/1/4
f 310/2/4 311/2/4 312/2/4
f 311/1/4 308/1/4 313/1/4
f 312/2/4 311/2/4 313/2/4
f 313/1/4 308/1/4 314/1/4
f 312/1/4 313/1/4 315/1/4
f 313/2/4 314/2/4 315/2/4
f 314/1/4 308/1/4 316/1/4
f 315/2/4 314/2/4 316/2/4
f 316/1/4 308/1/4 317/1/4
f 315/1/4 316/1/4 318/1/4
f 316/2/4 317/2/4 318/2/4
f 317/1/4 308/1/4 319/1/4
f 318/2/4 317/2/4 319/2/4
f 319/1/4 308/1/4 320/1/4
f 318/1/4 319/1/4 321/1/4
f 319/2/4 320/2/4 321/2/4
f 320/1/4 308/1/4 322/1/4
f 321/2/4 320/2/4 322/2/4
f 322/1/4 308/1/4 323/1/4
f 321/1/4 322/1/4 324/1/4
f 322/2/4 323/2/4 324/2/4
f 323/1/4 308/1/4 325/1/4
f 324/2/4 323/2/4 325/2/4
f 325/1/4 308/1/4 326/1/4
f 324/1/4 325/1/4 327/1/4
f 325/2/4 326/2/4 327/2/4
f 326/1/4 308/1/4 328/1/4
f 327/2/4 326/2/4 328/2/4
f 328/1/4 308/1/4 329/1/4
f 327/1/4 328/1/4 330/1/4
f 328/2/4 329/2/4 330/2/4
f 330/2/4 329/2/4 331/2/4
f 327/1/4 330/1/4 332/1/4
f 330/1/4 331/1/4 332/1/4
f 332/1/4 331/1/4 333/1/4
f 327/1/4 332/1/4 334/1/4
f 332/3/4 333/3/4 334/3/4
f 334/3/4 333/3/4 335/3/4
f 324/1/4 327/1/4 336/1/4
f 327/1/4 334/1/4 336/1/4
f 334/1/4 335/1/4 336/1/4
f 336/1/4 335/1/4 337/1/4
f 321/1/4 324/1/4 338/1/4
f 324/1/4 336/1/4 338/1/4
f 336/3/4 337/3/4 339/3/4
f 338/1/4 336/1/4 339/1/4
f 337/1/4 335/1/4 340/1/4
f 339/3/4 337/3/4 340/3/4
f 340/1/4 335/1/4 341/1/4
f 318/1/4 321/1/4 342/1/4
f 321/1/4 338/1/4 342/1/4
f 338/3/4 339/3/4 343/3/4
f 342/1/4 338/1/4 343/1/4
f 339/1/4 340/1/4 344/1/4
f 343/3/4 339/3/4 344/3/4
f 340/3/4 341/3/4 345/3/4
f 344/1/4 340/1/4 345/1/4
f 345/3/4 341/3/4 346/3/4
f 315/1/4 318/1/4 347/1/4
f 318/1/4 342/1/4 347/1/4
f 342/3/4 343/3/4 348/3/4
f 347/1/4 342/1/4 348/1/4
f 345/1/4 346/1/4 349/1/4
f 348/3/4 343/3/4 349/3/4
f 343/1/4 344/1/4 349/1/4
f 344/1/4 345/1/4 349/1/4
f 315/1/4 347/1/4 350/1/4
f 347/3/4 348/3/4 351/3/4
f 350/1/4 347/1/4 351/1/4
f 348/1/4 349/1/4 352/1/4
f 351/3/4 348/3/4 352/3/4
f 312/1/4 315/1/4 353/1/4
f 315/1/4 350/1/4 353/1/4
f 350/3/4 351/3/4 354/3/4
f 353/1/4 350/1/4 354/1/4
f 351/1/4 352/1/4 355/1/4
f 354/3/4 351/3/4 355/3/4
f 309/1/4 312/1/4 356/1/4
f 312/1/4 353/1/4 356/1/4
f 353/3/4 354/3/4 357/3/4
f 356/1/4 353/1/4 357/1/4
f 354/1/4 355/1/4 358/1/4
f 357/3/4 354/3/4 358/3/4
f 309/1/4 356/1/4 359/1/4
f 356/3/4 357/3/4 360/3/4
f 359/1/4 356/1/4 360/1/4
f 357/1/4 358/1/4 361/1/4
f 360/3/4 357/3/4 361/3/4
f 355/1/4 352/1/4 362/1/4
f 361/1/4 358/1/4 362/1/4
f 352/1/4 349/1/4 362/1/4
f 358/1/4 355/1/4 362/1/4
f 349/1/4 346/1/4 362/1/4
f 375/1/5 364/1/5 363/1/5
f 375/2/5 365/2/5 364/2/5
f 376/1/5 366/1/5 365/1/5
f 376/2/5 365/2/5 375/2/5
f 377/2/5 367/2/5 366/2/5
f 377/1/5 366/1/5 376/1/5
f 378/1/5 368/1/5 367/1/5
f 378/2/5 367/2/5 377/2/5
f 379/2/5 369/2/5 368/2/5
f 379/1/5 368/1/5 378/1/5
f 380/1/5 370/1/5 369/1/5
f 380/2/5 369/2/5 379/2/5
f 381/2/5 371/2/5 370/2/5
f 381/1/5 370/1/5 380/1/5
f 382/1/5 372/1/5 371/1/5
f 382/2/5 371/2/5 381/2/5
f 383/2/5 373/2/5 372/2/5
f 383/1/5 372/1/5 382/1/5
f 384/1/5 374/1/5 373/1/5
f 384/2/5 373/2/5 383/2/5
f 385/1/5 383/1/5 382/1/5
f 385/1/5 382/1/5 381/1/5
f 385/1/5 384/1/5 383/1/5
f 385/1/5 381/1/5 380/1/5
f 385/1/5 380/1/5 379/1/5
f 385/1/5 379/1/5 378/1/5
f 385/1/5 378/1/5 377/1/5
f 385/1/5 377/1/5 376/1/5
f 385/1/5 376/1/5 375/1/5
f 385/1/5 375/1/5 363/1/5
f 386/1/5 384/1/5 385/1/5
f 387/1/5 384/1/5 386/1/5
f 388/1/5 384/1/5 387/1/5
f 389/1/5 384/1/5 388/1/5
f 390/1/5 384/1/5 389/1/5
f 391/1/5 384/1/5 390/1/5
f 392/1/5 384/1/5 391/1/5
f 393/1/5 384/1/5 392/1/5
f 394/1/5 384/1/5 393/1/5
f 395/1/5 384/1/5 394/1/5
f 396/1/5 384/1/5 395/1/5
f 397/1/5 385/1/5 363/1/5
f 398/2/5 386/2/5 385/2/5
f 398/1/5 385/1/5 397/1/5
f 399/1/5 387/1/5 386/1/5
f 399/2/5 386/2/5 398/2/5
f 400/3/5 388/3/5 387/3/5
f 400/1/5 387/1/5 399/1/5
f 401/1/5 389/1/5 388/1/5
f 401/3/5 388/3/5 400/3/5
f 402/2/5 390/2/5 389/2/5
f 402/1/5 389/1/5 401/1/5
f 403/1/5 391/1/5 390/1/5
f 403/2/5 390/2/5 402/2/5
f 404/2/5 392/2/5 391/2/5
f 404/1/5 391/1/5 403/1/5
f 405/1/5 393/1/5 392/1/5
f 405/2/5 392/2/5 404/2/5
f 406/2/5 394/2/5 393/2/5
f 406/1/5 393/1/5 405/1/5
f 407/1/5 395/1/5 394/1/5
f 407/2/5 394/2/5 406/2/5
f 408/2/5 396/2/5 395/2/5
f 408/1/5 395/1/5 407/1/5
f 409/1/5 384/1/5 396/1/5
f 409/2/5 396/2/5 408/2/5
f 410/1/5 374/1/5 384/1/5
f 410/1/5 384/1/5 409/1/5
f 415/1/6 416/1/6 437/1/6
f 416/2/6 417/2/6 437/2/6
f 437/2/6 417/2/6 438/2/6
f 417/1/6 418/1/6 439/1/6
f 438/2/6 417/2/6 439/2/6
f 418/2/6 419/2/6 440/2/6
f 439/1/6 418/1/6 440/1/6
f 419/1/6 420/1/6 441/1/6
f 440/2/6 419/2/6 441/2/6
f 420/3/6 421/3/6 442/3/6
f 441/1/6 420/1/6 442/1/6
f 421/1/6 422/1/6 443/1/6
f 442/3/6 421/3/6 443/3/6
f 427/1/6 428/1/6 444/1/6
f 428/2/6 429/2/6 445/2/6
f 444/1/6 428/1/6 445/1/6
f 429/1/6 430/1/6 446/1/6
f 445/2/6 429/2/6 446/2/6
f 431/1/6 432/1/6 447/1/6
f 432/2/6 433/2/6 447/2/6
f 433/1/6 434/1/6 448/1/6
f 447/2/6 433/2/6 448/2/6
f 448/1/6 434/1/6 449/1/6
f 449/1/6 434/1/6 450/1/6
f 434/3/6 435/3/6 451/3/6
f 450/1/6 434/1/6 451/1/6
f 451/3/6 435/3/6 452/3/6
f 435/1/6 436/1/6 453/1/6
f 452/3/6 435/3/6 453/3/6
f 411/1/6 412/1/6 454/1/6
f 454/1/6 412/1/6 455/1/6
f 427/1/6 444/1/6 456/1/6
f 444/2/6 445/2/6 457/2/6
f 456/1/6 444/1/6 457/1/6
f 445/1/6 446/1/6 458/1/6
f 457/2/6 445/2/6 458/2/6
f 451/3/6 452/3/6 459/3/6
f 450/3/6 451/3/6 459/3/6
f 452/1/6 453/1/6 460/1/6
f 459/3/6 452/3/6 460/3/6
f 454/2/6 455/2/6 461/2/6
f 455/1/6 412/1/6 462/1/6
f 461/2/6 455/2/6 462/2/6
f 462/1/6 412/1/6 463/1/6
f 463/1/6 412/1/6 464/1/6
f 412/2/6 413/2/6 465/2/6
f 464/1/6 412/1/6 465/1/6
f 413/1/6 414/1/6 466/1/6
f 465/2/6 413/2/6 466/2/6
f 440/1/6 441/1/6 467/1/6
f 441/1/6 442/1/6 467/1/6
f 443/1/6 422/1/6 467/1/6
f 442/1/6 443/1/6 467/1/6
f 422/2/6 423/2/6 468/2/6
f 467/1/6 422/1/6 468/1/6
f 423/1/6 424/1/6 469/1/6
f 468/2/6 423/2/6 469/2/6
f 424/2/6 425/2/6 470/2/6
f 425/1/6 426/1/6 470/1/6
f 426/2/6 427/2/6 471/2/6
f 470/1/6 426/1/6 471/1/6
f 427/1/6 456/1/6 472/1/6
f 471/2/6 427/2/6 472/2/6
f 472/1/6 456/1/6 473/1/6
f 456/2/6 457/2/6 474/2/6
f 473/1/6 456/1/6 474/1/6
f 457/1/6 458/1/6 475/1/6
f 474/2/6 457/2/6 475/2/6
f 458/1/6 446/1/6 476/1/6
f 475/1/6 458/1/6 476/1/6
f 430/2/6 431/2/6 476/2/6
f 446/1/6 430/1/6 476/1/6
f 431/1/6 447/1/6 477/1/6
f 476/2/6 431/2/6 477/2/6
f 447/1/6 448/1/6 477/1/6
f 477/1/6 448/1/6 478/1/6
f 448/2/6 449/2/6 479/2/6
f 478/1/6 448/1/6 479/1/6
f 449/1/6 450/1/6 480/1/6
f 479/2/6 449/2/6 480/2/6
f 480/1/6 450/1/6 481/1/6
f 481/1/6 450/1/6 482/1/6
f 450/3/6 459/3/6 483/3/6
f 482/1/6 450/1/6 483/1/6
f 462/2/6 463/2/6 484/2/6
f 461/1/6 462/1/6 484/1/6
f 463/1/6 464/1/6 485/1/6
f 484/2/6 463/2/6 485/2/6
f 485/1/6 464/1/6 486/1/6
f 437/1/6 438/1/6 487/1/6
f 438/2/6 439/2/6 488/2/6
f 487/1/6 438/1/6 488/1/6
f 439/2/6 440/2/6 488/2/6
f 469/1/6 424/1/6 489/1/6
f 468/1/6 469/1/6 489/1/6
f 424/2/6 470/2/6 490/2/6
f 489/1/6 424/1/6 490/1/6
f 470/2/6 471/2/6 490/2/6
f 490/2/6 471/2/6 491/2/6
f 471/1/6 472/1/6 492/1/6
f 472/1/6 473/1/6 492/1/6
f 473/2/6 474/2/6 493/2/6
f 492/1/6 473/1/6 493/1/6
f 474/1/6 475/1/6 494/1/6
f 493/2/6 474/2/6 494/2/6
f 475/1/6 476/1/6 494/1/6
f 476/1/6 477/1/6 494/1/6
f 485/2/6 486/2/6 495/2/6
f 484/1/6 485/1/6 495/1/6
f 486/1/6 464/1/6 496/1/6
f 495/2/6 486/2/6 496/2/6
f 496/1/6 464/1/6 497/1/6
f 414/2/6 415/2/6 498/2/6
f 466/1/6 414/1/6 498/1/6
f 465/1/6 466/1/6 498/1/6
f 437/1/6 487/1/6 499/1/6
f 498/2/6 415/2/6 499/2/6
f 415/1/6 437/1/6 499/1/6
f 487/2/6 488/2/6 500/2/6
f 499/1/6 487/1/6 500/1/6
f 488/2/6 440/2/6 501/2/6
f 500/2/6 488/2/6 501/2/6
f 471/1/6 492/1/6 502/1/6
f 492/2/6 493/2/6 503/2/6
f 502/1/6 492/1/6 503/1/6
f 493/1/6 494/1/6 504/1/6
f 503/2/6 493/2/6 504/2/6
f 494/1/6 477/1/6 505/1/6
f 504/1/6 494/1/6 505/1/6
f 477/2/6 478/2/6 505/2/6
f 478/1/6 479/1/6 506/1/6
f 505/2/6 478/2/6 506/2/6
f 479/1/6 480/1/6 506/1/6
f 506/1/6 480/1/6 507/1/6
f 480/2/6 481/2/6 508/2/6
f 507/1/6 480/1/6 508/1/6
f 481/1/6 482/1/6 509/1/6
f 508/2/6 481/2/6 509/2/6
f 509/1/6 482/1/6 510/1/6
f 510/1/6 482/1/6 511/1/6
f 482/3/6 483/3/6 512/3/6
f 511/1/6 482/1/6 512/1/6
f 483/3/6 459/3/6 513/3/6
f 512/3/6 483/3/6 513/3/6
f 459/1/6 460/1/6 514/1/6
f 513/3/6 459/3/6 514/3/6
f 496/2/6 497/2/6 515/2/6
f 495/1/6 496/1/6 515/1/6
f 497/1/6 464/1/6 516/1/6
f 515/2/6 497/2/6 516/2/6
f 516/1/6 464/1/6 517/1/6
f 464/2/6 465/2/6 518/2/6
f 517/1/6 464/1/6 518/1/6
f 465/1/6 498/1/6 519/1/6
f 518/2/6 465/2/6 519/2/6
f 498/1/6 499/1/6 519/1/6
f 440/1/6 467/1/6 520/1/6
f 501/2/6 440/2/6 520/2/6
f 520/1/6 467/1/6 521/1/6
f 471/1/6 502/1/6 522/1/6
f 502/2/6 503/2/6 523/2/6
f 522/1/6 502/1/6 523/1/6
f 504/1/6 505/1/6 524/1/6
f 523/2/6 503/2/6 524/2/6
f 503/1/6 504/1/6 524/1/6
f 505/1/6 506/1/6 524/1/6
f 510/1/6 511/1/6 525/1/6
f 511/3/6 512/3/6 526/3/6
f 525/1/6 511/1/6 526/1/6
f 512/3/6 513/3/6 526/3/6
f 526/3/6 513/3/6 527/3/6
f 516/1/6 517/1/6 528/1/6
f 515/3/6 516/3/6 528/3/6
f 528/1/6 517/1/6 529/1/6
f 499/2/6 500/2/6 530/2/6
f 500/1/6 501/1/6 531/1/6
f 530/2/6 500/2/6 531/2/6
f 521/1/6 467/1/6 532/1/6
f 467/2/6 468/2/6 533/2/6
f 532/1/6 467/1/6 533/1/6
f 468/1/6 489/1/6 534/1/6
f 533/2/6 468/2/6 534/2/6
f 490/1/6 491/1/6 535/1/6
f 489/2/6 490/2/6 535/2/6
f 491/2/6 471/2/6 536/2/6
f 535/1/6 491/1/6 536/1/6
f 471/1/6 522/1/6 537/1/6
f 536/2/6 471/2/6 537/2/6
f 523/1/6 524/1/6 538/1/6
f 506/2/6 507/2/6 538/2/6
f 524/1/6 506/1/6 538/1/6
f 507/1/6 508/1/6 539/1/6
f 538/2/6 507/2/6 539/2/6
f 508/1/6 509/1/6 539/1/6
f 539/1/6 509/1/6 540/1/6
f 509/2/6 510/2/6 541/2/6
f 540/1/6 509/1/6 541/1/6
f 510/1/6 525/1/6 542/1/6
f 541/2/6 510/2/6 542/2/6
f 542/1/6 525/1/6 543/1/6
f 543/1/6 525/1/6 544/1/6
f 525/3/6 526/3/6 545/3/6
f 544/1/6 525/1/6 545/1/6
f 526/1/6 527/1/6 546/1/6
f 545/3/6 526/3/6 546/3/6
f 495/1/6 515/1/6 547/1/6
f 515/3/6 528/3/6 547/3/6
f 528/2/6 529/2/6 548/2/6
f 547/3/6 528/3/6 548/3/6
f 529/1/6 517/1/6 549/1/6
f 548/2/6 529/2/6 549/2/6
f 549/1/6 517/1/6 550/1/6
f 550/1/6 517/1/6 551/1/6
f 517/2/6 518/2/6 552/2/6
f 551/1/6 517/1/6 552/1/6
f 518/1/6 519/1/6 553/1/6
f 552/2/6 518/2/6 553/2/6
f 519/1/6 499/1/6 554/1/6
f 553/1/6 519/1/6 554/1/6
f 499/2/6 530/2/6 555/2/6
f 554/1/6 499/1/6 555/1/6
f 537/1/6 522/1/6 556/1/6
f 536/1/6 537/1/6 556/1/6
f 522/2/6 523/2/6 557/2/6
f 556/1/6 522/1/6 557/1/6
f 523/1/6 538/1/6 558/1/6
f 557/2/6 523/2/6 558/2/6
f 538/1/6 539/1/6 558/1/6
f 547/1/6 548/1/6 559/1/6
f 548/3/6 549/3/6 559/3/6
f 549/2/6 550/2/6 560/2/6
f 559/3/6 549/3/6 560/3/6
f 550/1/6 551/1/6 561/1/6
f 560/2/6 550/2/6 561/2/6
f 551/2/6 552/2/6 562/2/6
f 561/1/6 551/1/6 562/1/6
f 552/1/6 553/1/6 563/1/6
f 553/1/6 554/1/6 563/1/6
f 554/2/6 555/2/6 564/2/6
f 563/1/6 554/1/6 564/1/6
f 531/1/6 501/1/6 565/1/6
f 520/2/6 521/2/6 565/2/6
f 530/1/6 531/1/6 565/1/6
f 501/2/6 520/2/6 565/2/6
f 565/2/6 521/2/6 566/2/6
f 521/1/6 532/1/6 567/1/6
f 566/2/6 521/2/6 567/2/6
f 567/1/6 532/1/6 568/1/6
f 532/2/6 533/2/6 569/2/6
f 568/1/6 532/1/6 569/1/6
f 533/1/6 534/1/6 570/1/6
f 569/2/6 533/2/6 570/2/6
f 534/1/6 489/1/6 571/1/6
f 570/1/6 534/1/6 571/1/6
f 535/2/6 536/2/6 572/2/6
f 571/1/6 489/1/6 572/1/6
f 489/2/6 535/2/6 572/2/6
f 572/2/6 536/2/6 573/2/6
f 536/1/6 556/1/6 574/1/6
f 556/2/6 557/2/6 575/2/6
f 574/1/6 556/1/6 575/1/6
f 557/1/6 558/1/6 576/1/6
f 575/2/6 557/2/6 576/2/6
f 558/1/6 539/1/6 577/1/6
f 576/1/6 558/1/6 577/1/6
f 539/2/6 540/2/6 577/2/6
f 540/1/6 541/1/6 578/1/6
f 577/2/6 540/2/6 578/2/6
f 541/1/6 542/1/6 578/1/6
f 578/1/6 542/1/6 579/1/6
f 542/2/6 543/2/6 580/2/6
f 579/1/6 542/1/6 580/1/6
f 543/1/6 544/1/6 581/1/6
f 580/2/6 543/2/6 581/2/6
f 581/1/6 544/1/6 582/1/6
f 582/1/6 544/1/6 583/1/6
f 544/3/6 545/3/6 584/3/6
f 583/1/6 544/1/6 584/1/6
f 545/1/6 546/1/6 585/1/6
f 584/3/6 545/3/6 585/3/6
f 461/1/6 484/1/6 586/1/6
f 484/1/6 495/1/6 586/1/6
f 559/1/6 560/1/6 586/1/6
f 495/1/6 547/1/6 586/1/6
f 547/1/6 559/1/6 586/1/6
f 560/3/6 561/3/6 587/3/6
f 586/1/6 560/1/6 587/1/6
f 561/2/6 562/2/6 588/2/6
f 587/3/6 561/3/6 588/3/6
f 562/2/6 552/2/6 589/2/6
f 588/2/6 562/2/6 589/2/6
f 552/1/6 563/1/6 589/1/6
f 563/2/6 564/2/6 590/2/6
f 589/1/6 563/1/6 590/1/6
f 564/2/6 555/2/6 591/2/6
f 590/2/6 564/2/6 591/2/6
f 565/1/6 566/1/6 591/1/6
f 555/2/6 530/2/6 591/2/6
f 530/1/6 565/1/6 591/1/6
f 567/2/6 568/2/6 592/2/6
f 591/1/6 566/1/6 592/1/6
f 566/2/6 567/2/6 592/2/6
f 570/1/6 571/1/6 593/1/6
f 592/2/6 568/2/6 593/2/6
f 569/1/6 570/1/6 593/1/6
f 568/1/6 569/1/6 593/1/6
f 571/2/6 572/2/6 594/2/6
f 593/1/6 571/1/6 594/1/6
f 572/1/6 573/1/6 595/1/6
f 594/2/6 572/2/6 595/2/6
f 573/2/6 536/2/6 596/2/6
f 595/1/6 573/1/6 596/1/6
f 536/1/6 574/1/6 597/1/6
f 596/2/6 536/2/6 597/2/6
f 574/2/6 575/2/6 598/2/6
f 597/1/6 574/1/6 598/1/6
f 575/1/6 576/1/6 599/1/6
f 598/2/6 575/2/6 599/2/6
f 576/1/6 577/1/6 599/1/6
f 577/1/6 578/1/6 599/1/6
f 578/2/6 579/2/6 600/2/6
f 599/1/6 578/1/6 600/1/6
f 579/1/6 580/1/6 601/1/6
f 600/2/6 579/2/6 601/2/6
f 580/1/6 581/1/6 601/1/6
f 581/2/6 582/2/6 602/2/6
f 601/1/6 581/1/6 602/1/6
f 582/1/6 583/1/6 603/1/6
f 602/2/6 582/2/6 603/2/6
f 583/3/6 584/3/6 604/3/6
f 603/1/6 583/1/6 604/1/6
f 584/1/6 585/1/6 605/1/6
f 604/3/6 584/3/6 605/3/6
f 585/1/6 546/1/6 606/1/6
f 605/1/6 585/1/6 606/1/6
f 527/3/6 513/3/6 606/3/6
f 546/1/6 527/1/6 606/1/6
f 513/1/6 514/1/6 607/1/6
f 606/3/6 513/3/6 607/3/6
f 453/1/6 436/1/6 608/1/6
f 607/1/6 514/1/6 608/1/6
f 514/1/6 460/1/6 608/1/6
f 460/1/6 453/1/6 608/1/6
