# MagicaVoxel @ Ephtracy

# group
o 

# material
mtllib stadium-large-complex-10.mtl
usemtl palette

# normals
vn -1 0 0
vn 1 0 0
vn 0 0 1
vn 0 0 -1
vn 0 -1 0
vn 0 1 0

# texcoords
vt 0.970703 0.5
vt 0.978516 0.5
vt 0.982422 0.5

# verts
v -11.8 2 -4
v -11.8 2 -5
v -11.8 2.1 -4.9
v -11.8 2.1 -5
v -11.8 2.4 -4.9
v -11.8 2.4 -5
v -11.8 2.6 -4.9
v -11.8 2.6 -5
v -11.8 2.8 -4.9
v -11.8 2.8 -5
v -11.8 3 -4
v -11.8 3 -5
v -0.3 2 -4
v -0.3 2 -4.1
v -0.3 2 -5
v -0.3 2.1 -4
v -0.3 2.1 -4.1
v -0.3 2.1 -4.9
v -0.3 2.1 -5
v -0.3 2.2 -4.9
v -0.3 2.2 -5
v -0.3 2.3 -4.9
v -0.3 2.3 -5
v -0.3 2.6 -4.9
v -0.3 2.6 -5
v -0.3 3 -4
v -0.3 3 -5
v -11.8 2 -4
v -11.8 3 -4
v -8.5 2.9 -4
v -8.5 3 -4
v -8.4 2.8 -4
v -8.4 2.9 -4
v -8.4 3 -4
v -8.2 2.7 -4
v -8.2 2.8 -4
v -8.2 2.9 -4
v -8.1 2.5 -4
v -8.1 2.7 -4
v -8.1 2.8 -4
v -8 2.4 -4
v -8 2.5 -4
v -8 2.7 -4
v -7.9 2.3 -4
v -7.9 2.4 -4
v -7.9 2.5 -4
v -7.8 2.2 -4
v -7.8 2.3 -4
v -7.8 2.4 -4
v -7.6 2 -4
v -7.6 2.2 -4
v -7.6 2.3 -4
v -7.5 2.2 -4
v -7.5 2.5 -4
v -7.4 2 -4
v -7.4 2.5 -4
v -7.4 3 -4
v -7.3 2.5 -4
v -7.3 3 -4
v -7.2 2.9 -4
v -7.2 3 -4
v -7 2.8 -4
v -7 2.9 -4
v -6.8 2.7 -4
v -6.8 2.8 -4
v -6.8 3 -4
v -6.6 2.6 -4
v -6.6 2.7 -4
v -6.6 2.8 -4
v -6.6 2.9 -4
v -6.6 3 -4
v -6.5 2.5 -4
v -6.5 2.6 -4
v -6.5 2.7 -4
v -6.5 2.9 -4
v -6.5 3 -4
v -6.4 2.4 -4
v -6.4 2.5 -4
v -6.4 2.6 -4
v -6.3 2 -4
v -6.3 2.1 -4
v -6.3 2.9 -4
v -6.3 3 -4
v -6.2 2 -4
v -6.2 2.1 -4
v -6.2 2.2 -4
v -6.2 2.3 -4
v -6.2 2.4 -4
v -6.2 2.5 -4
v -6.1 2.2 -4
v -6.1 2.3 -4
v -6.1 2.4 -4
v -5.9 2.2 -4
v -5.9 2.3 -4
v -5.9 2.4 -4
v -5.8 2 -4
v -5.8 2.1 -4
v -5.8 2.2 -4
v -5.7 2 -4
v -5.7 2.1 -4
v -5.7 2.3 -4
v -5.7 2.4 -4
v -5.7 2.5 -4
v -5.7 2.8 -4
v -5.7 2.9 -4
v -5.7 3 -4
v -5.6 2.4 -4
v -5.6 2.5 -4
v -5.6 2.6 -4
v -5.5 2.5 -4
v -5.5 2.6 -4
v -5.5 2.8 -4
v -5.5 2.9 -4
v -5.4 2.6 -4
v -5.4 2.7 -4
v -5.2 2.8 -4
v -5.2 2.9 -4
v -5.1 2.6 -4
v -5.1 2.7 -4
v -5.1 2.9 -4
v -5.1 3 -4
v -5 2.9 -4
v -5 3 -4
v -4.9 2.5 -4
v -4.9 2.6 -4
v -4.9 2.7 -4
v -4.9 2.8 -4
v -4.9 2.9 -4
v -4.9 3 -4
v -4.8 2.7 -4
v -4.8 2.8 -4
v -4.8 2.9 -4
v -4.7 2.4 -4
v -4.7 2.5 -4
v -4.7 2.6 -4
v -4.7 2.7 -4
v -4.7 2.8 -4
v -4.5 2.5 -4
v -4.5 2.6 -4
v -4.5 2.7 -4
v -4.4 2.4 -4
v -4.4 2.5 -4
v -4.4 2.6 -4
v -4.3 2.3 -4
v -4.3 2.4 -4
v -4.3 2.5 -4
v -4.2 2.2 -4
v -4.2 2.3 -4
v -4.2 2.4 -4
v -4.2 2.5 -4
v -4.1 2.1 -4
v -4.1 2.2 -4
v -4.1 2.3 -4
v -4.1 2.9 -4
v -4.1 3 -4
v -4 2.9 -4
v -4 3 -4
v -3.9 2 -4
v -3.9 2.1 -4
v -3.9 2.2 -4
v -3.8 2 -4
v -3.8 2.1 -4
v -3.7 2.2 -4
v -3.7 2.3 -4
v -3.7 2.4 -4
v -3.4 2.9 -4
v -3.4 3 -4
v -3.3 2.8 -4
v -3.3 2.9 -4
v -3.3 3 -4
v -3.2 2.1 -4
v -3.2 2.2 -4
v -3.2 2.3 -4
v -3.2 2.8 -4
v -3.2 2.9 -4
v -2.5 2.9 -4
v -2.5 3 -4
v -2.4 2.8 -4
v -2.4 2.9 -4
v -2.4 3 -4
v -2.3 2 -4
v -2.3 2.1 -4
v -2.3 2.2 -4
v -2.3 2.7 -4
v -2.3 2.8 -4
v -2.3 2.9 -4
v -2.2 2.6 -4
v -2.2 2.7 -4
v -2.2 2.8 -4
v -2.1 2 -4
v -2.1 2.1 -4
v -2.1 2.2 -4
v -2.1 2.5 -4
v -2.1 2.6 -4
v -2.1 2.7 -4
v -2 2.5 -4
v -2 2.6 -4
v -1.6 2 -4
v -1.6 2.1 -4
v -1.6 2.2 -4
v -1.6 2.9 -4
v -1.6 3 -4
v -1.5 2.9 -4
v -1.5 3 -4
v -0.8 2 -4
v -0.8 2.1 -4
v -0.700001 2 -4
v -0.700001 2.1 -4
v -0.3 2 -4
v -0.3 2.1 -4
v -0.3 3 -4
v -11.8 2 -5
v -11.8 2.1 -5
v -11.8 2.4 -5
v -11.8 2.6 -5
v -11.8 2.8 -5
v -11.8 3 -5
v -11.7 2.3 -5
v -11.7 2.4 -5
v -11.7 2.5 -5
v -11.7 2.6 -5
v -11.7 2.8 -5
v -11.6 2 -5
v -11.6 2.1 -5
v -11.6 2.3 -5
v -11.6 2.5 -5
v -11.6 2.6 -5
v -11.5 2 -5
v -11.5 2.1 -5
v -11.5 2.4 -5
v -11.5 2.5 -5
v -11.4 2.2 -5
v -11.4 2.3 -5
v -11.4 2.4 -5
v -11.3 2 -5
v -11.3 2.2 -5
v -11.3 2.3 -5
v -11.2 2.1 -5
v -11.2 2.2 -5
v -11 2 -5
v -11 2.1 -5
v -9 2.9 -5
v -9 3 -5
v -8.9 2.9 -5
v -8.9 3 -5
v -8.6 2 -5
v -8.6 2.1 -5
v -8.3 2 -5
v -8.3 2.1 -5
v -8.3 2.2 -5
v -8.1 2.1 -5
v -8.1 2.2 -5
v -8.1 2.3 -5
v -8 2.2 -5
v -8 2.3 -5
v -8 2.4 -5
v -7.8 2.3 -5
v -7.8 2.4 -5
v -7.8 2.5 -5
v -7.6 2.4 -5
v -7.6 2.5 -5
v -7.6 2.6 -5
v -7.6 2.9 -5
v -7.6 3 -5
v -7.5 2.5 -5
v -7.5 2.6 -5
v -7.5 2.7 -5
v -7.5 2.9 -5
v -7.5 3 -5
v -7.3 2.6 -5
v -7.3 2.7 -5
v -7.3 3 -5
v -7.2 2.7 -5
v -7.2 2.9 -5
v -7 2.9 -5
v -7 3 -5
v -6.9 2.9 -5
v -6.9 3 -5
v -6.7 2.9 -5
v -6.7 3 -5
v -6.1 2.4 -5
v -6.1 3 -5
v -6 2.2 -5
v -6 2.4 -5
v -6 2.5 -5
v -6 3 -5
v -5.9 2.1 -5
v -5.9 2.2 -5
v -5.9 2.3 -5
v -5.9 2.5 -5
v -5.8 2.2 -5
v -5.8 2.3 -5
v -5.7 2 -5
v -5.7 2.1 -5
v -5.7 2.2 -5
v -5.6 2 -5
v -5.6 2.1 -5
v -5.6 2.6 -5
v -5.6 3 -5
v -5.5 2.6 -5
v -5.5 3 -5
v -4.7 2.9 -5
v -4.7 3 -5
v -4.6 2.9 -5
v -4.6 3 -5
v -4.3 2 -5
v -4.3 2.2 -5
v -4.2 2 -5
v -4.2 2.2 -5
v -4.2 2.4 -5
v -4.1 2.2 -5
v -4.1 2.4 -5
v -4.1 2.6 -5
v -4 2.4 -5
v -4 2.6 -5
v -4 2.7 -5
v -3.9 2.6 -5
v -3.9 2.7 -5
v -3.9 2.8 -5
v -3.8 2.7 -5
v -3.8 2.8 -5
v -3.8 2.9 -5
v -3.7 2.8 -5
v -3.7 2.9 -5
v -3.7 3 -5
v -3.6 2.9 -5
v -3.6 3 -5
v -3.5 2.9 -5
v -3.5 3 -5
v -2.5 2.8 -5
v -2.5 2.9 -5
v -2.5 3 -5
v -2.4 2.9 -5
v -2.4 3 -5
v -2.3 2.9 -5
v -2.3 3 -5
v -2 2.7 -5
v -2 2.8 -5
v -2 2.9 -5
v -1.9 2 -5
v -1.9 2.1 -5
v -1.6 2 -5
v -1.6 2.1 -5
v -1.6 2.2 -5
v -1.6 2.6 -5
v -1.6 2.7 -5
v -1.6 2.8 -5
v -1.5 2.9 -5
v -1.5 3 -5
v -1.3 2.8 -5
v -1.3 2.9 -5
v -1.3 3 -5
v -1.2 2.1 -5
v -1.2 2.2 -5
v -1.2 2.3 -5
v -1.1 2.7 -5
v -1.1 2.8 -5
v -1.1 2.9 -5
v -0.900001 2.7 -5
v -0.900001 2.8 -5
v -0.700001 2.2 -5
v -0.700001 2.3 -5
v -0.700001 2.4 -5
v -0.700001 2.5 -5
v -0.700001 2.6 -5
v -0.700001 2.7 -5
v -0.5 2.1 -5
v -0.5 2.2 -5
v -0.5 2.4 -5
v -0.5 2.5 -5
v -0.3 2 -5
v -0.3 2.1 -5
v -0.3 2.2 -5
v -0.3 2.3 -5
v -0.3 2.6 -5
v -0.3 3 -5
v -11.8 2 -4
v -7.6 2 -4
v -7.4 2 -4
v -6.3 2 -4
v -6.2 2 -4
v -5.8 2 -4
v -5.7 2 -4
v -3.9 2 -4
v -3.8 2 -4
v -2.3 2 -4
v -2.1 2 -4
v -1.6 2 -4
v -0.8 2 -4
v -0.700001 2 -4
v -0.3 2 -4
v -7.6 2 -4.1
v -7.4 2 -4.1
v -6.3 2 -4.1
v -6.2 2 -4.1
v -5.8 2 -4.1
v -5.7 2 -4.1
v -3.9 2 -4.1
v -3.8 2 -4.1
v -2.3 2 -4.1
v -2.1 2 -4.1
v -1.6 2 -4.1
v -0.8 2 -4.1
v -0.700001 2 -4.1
v -0.3 2 -4.1
v -11.6 2 -4.9
v -11.5 2 -4.9
v -11.3 2 -4.9
v -11 2 -4.9
v -8.6 2 -4.9
v -8.3 2 -4.9
v -5.7 2 -4.9
v -5.6 2 -4.9
v -4.3 2 -4.9
v -4.2 2 -4.9
v -1.9 2 -4.9
v -1.6 2 -4.9
v -11.8 2 -5
v -11.6 2 -5
v -11.5 2 -5
v -11.3 2 -5
v -11 2 -5
v -8.6 2 -5
v -8.3 2 -5
v -5.7 2 -5
v -5.6 2 -5
v -4.3 2 -5
v -4.2 2 -5
v -1.9 2 -5
v -1.6 2 -5
v -0.3 2 -5
v -11.8 3 -4
v -8.5 3 -4
v -8.4 3 -4
v -7.4 3 -4
v -7.3 3 -4
v -7.2 3 -4
v -6.8 3 -4
v -6.6 3 -4
v -6.5 3 -4
v -6.3 3 -4
v -5.7 3 -4
v -5.1 3 -4
v -5 3 -4
v -4.9 3 -4
v -4.1 3 -4
v -4 3 -4
v -3.4 3 -4
v -3.3 3 -4
v -2.5 3 -4
v -2.4 3 -4
v -1.6 3 -4
v -1.5 3 -4
v -0.3 3 -4
v -8.6 3 -4.1
v -8.5 3 -4.1
v -8.4 3 -4.1
v -7.1 3 -4.1
v -7 3 -4.1
v -6.9 3 -4.1
v -6.8 3 -4.1
v -6.6 3 -4.1
v -6.5 3 -4.1
v -6.3 3 -4.1
v -6.2 3 -4.1
v -6 3 -4.1
v -5.7 3 -4.1
v -5.5 3 -4.1
v -5.1 3 -4.1
v -5 3 -4.1
v -4.9 3 -4.1
v -4.1 3 -4.1
v -4 3 -4.1
v -3.9 3 -4.1
v -3.4 3 -4.1
v -3.3 3 -4.1
v -1.5 3 -4.1
v -1.4 3 -4.1
v -7.2 3 -4.2
v -7.1 3 -4.2
v -7 3 -4.2
v -6.5 3 -4.2
v -6.4 3 -4.2
v -6 3 -4.2
v -5.5 3 -4.2
v -5.2 3 -4.2
v -2.5 3 -4.2
v -2.4 3 -4.2
v -2.3 3 -4.2
v -1.6 3 -4.2
v -1.4 3 -4.2
v -1.3 3 -4.2
v -8.7 3 -4.3
v -8.6 3 -4.3
v -8.5 3 -4.3
v -7.5 3 -4.3
v -7.4 3 -4.3
v -7.3 3 -4.3
v -7 3 -4.3
v -6.9 3 -4.3
v -6.8 3 -4.3
v -6.5 3 -4.3
v -6.4 3 -4.3
v -6.3 3 -4.3
v -5.5 3 -4.3
v -5.2 3 -4.3
v -5.1 3 -4.3
v -5 3 -4.3
v -4.9 3 -4.3
v -4.8 3 -4.3
v -7 3 -4.4
v -6.9 3 -4.4
v -6.6 3 -4.4
v -6.5 3 -4.4
v -6.4 3 -4.4
v -6.2 3 -4.4
v -6.1 3 -4.4
v -5.3 3 -4.4
v -5.2 3 -4.4
v -5.1 3 -4.4
v -4.9 3 -4.4
v -4.8 3 -4.4
v -4.6 3 -4.4
v -4 3 -4.4
v -3.9 3 -4.4
v -3.8 3 -4.4
v -8.8 3 -4.5
v -8.7 3 -4.5
v -8.6 3 -4.5
v -7.2 3 -4.5
v -7.1 3 -4.5
v -7 3 -4.5
v -6.2 3 -4.5
v -6.1 3 -4.5
v -6 3 -4.5
v -4.8 3 -4.5
v -4.6 3 -4.5
v -4.4 3 -4.5
v -6.8 3 -4.6
v -6.6 3 -4.6
v -6.5 3 -4.6
v -6.3 3 -4.6
v -6.2 3 -4.6
v -6.1 3 -4.6
v -6 3 -4.6
v -5.9 3 -4.6
v -5.4 3 -4.6
v -5.3 3 -4.6
v -5.2 3 -4.6
v -4.9 3 -4.6
v -4.8 3 -4.6
v -4.7 3 -4.6
v -4.6 3 -4.6
v -4.4 3 -4.6
v -4 3 -4.6
v -3.9 3 -4.6
v -3.8 3 -4.6
v -3.7 3 -4.6
v -1.5 3 -4.6
v -1.4 3 -4.6
v -1.3 3 -4.6
v -8.9 3 -4.7
v -8.8 3 -4.7
v -8.7 3 -4.7
v -7.3 3 -4.7
v -7.2 3 -4.7
v -7.1 3 -4.7
v -6.9 3 -4.7
v -6.7 3 -4.7
v -6 3 -4.7
v -5.9 3 -4.7
v -5.7 3 -4.7
v -5.4 3 -4.7
v -5.3 3 -4.7
v -4.4 3 -4.7
v -4 3 -4.7
v -3.8 3 -4.7
v -7.6 3 -4.8
v -7.5 3 -4.8
v -7.4 3 -4.8
v -7.1 3 -4.8
v -7 3 -4.8
v -6.9 3 -4.8
v -6.8 3 -4.8
v -6.7 3 -4.8
v -6.2 3 -4.8
v -6.1 3 -4.8
v -6 3 -4.8
v -5.9 3 -4.8
v -5.7 3 -4.8
v -5.6 3 -4.8
v -4.8 3 -4.8
v -4.7 3 -4.8
v -4.6 3 -4.8
v -4 3 -4.8
v -3.8 3 -4.8
v -3.7 3 -4.8
v -3.5 3 -4.8
v -9 3 -4.9
v -8.9 3 -4.9
v -8.8 3 -4.9
v -7.2 3 -4.9
v -7.1 3 -4.9
v -6.9 3 -4.9
v -6.8 3 -4.9
v -6.7 3 -4.9
v -6.6 3 -4.9
v -5.7 3 -4.9
v -5.6 3 -4.9
v -5.5 3 -4.9
v -3.8 3 -4.9
v -3.7 3 -4.9
v -3.6 3 -4.9
v -3.5 3 -4.9
v -2.5 3 -4.9
v -1.4 3 -4.9
v -1.3 3 -4.9
v -11.8 3 -5
v -9 3 -5
v -8.9 3 -5
v -7.6 3 -5
v -7.5 3 -5
v -7.3 3 -5
v -7 3 -5
v -6.9 3 -5
v -6.7 3 -5
v -6.1 3 -5
v -6 3 -5
v -5.6 3 -5
v -5.5 3 -5
v -4.7 3 -5
v -4.6 3 -5
v -3.7 3 -5
v -3.6 3 -5
v -3.5 3 -5
v -2.5 3 -5
v -2.4 3 -5
v -2.3 3 -5
v -1.5 3 -5
v -1.3 3 -5
v -0.3 3 -5

# faces
f 3/1/1 2/1/1 1/1/1
f 4/1/1 2/1/1 3/1/1
f 5/1/1 3/1/1 1/1/1
f 5/2/1 4/2/1 3/2/1
f 6/2/1 4/2/1 5/2/1
f 7/1/1 5/1/1 1/1/1
f 7/1/1 6/1/1 5/1/1
f 8/1/1 6/1/1 7/1/1
f 9/1/1 7/1/1 1/1/1
f 9/2/1 8/2/1 7/2/1
f 10/2/1 8/2/1 9/2/1
f 11/1/1 9/1/1 1/1/1
f 11/1/1 10/1/1 9/1/1
f 12/1/1 10/1/1 11/1/1
f 13/2/2 14/2/2 16/2/2
f 14/1/2 15/1/2 17/1/2
f 16/2/2 14/2/2 17/2/2
f 17/1/2 15/1/2 18/1/2
f 18/1/2 15/1/2 19/1/2
f 16/1/2 17/1/2 20/1/2
f 17/1/2 18/1/2 20/1/2
f 18/2/2 19/2/2 20/2/2
f 20/2/2 19/2/2 21/2/2
f 16/1/2 20/1/2 22/1/2
f 20/1/2 21/1/2 22/1/2
f 22/1/2 21/1/2 23/1/2
f 16/1/2 22/1/2 24/1/2
f 22/2/2 23/2/2 24/2/2
f 24/2/2 23/2/2 25/2/2
f 16/1/2 24/1/2 26/1/2
f 24/1/2 25/1/2 26/1/2
f 26/1/2 25/1/2 27/1/2
f 30/1/3 29/1/3 28/1/3
f 31/1/3 29/1/3 30/1/3
f 32/1/3 30/1/3 28/1/3
f 33/2/3 31/2/3 30/2/3
f 33/1/3 30/1/3 32/1/3
f 34/2/3 31/2/3 33/2/3
f 35/1/3 32/1/3 28/1/3
f 36/2/3 33/2/3 32/2/3
f 36/1/3 32/1/3 35/1/3
f 37/1/3 34/1/3 33/1/3
f 37/2/3 33/2/3 36/2/3
f 38/1/3 35/1/3 28/1/3
f 39/2/3 36/2/3 35/2/3
f 39/1/3 35/1/3 38/1/3
f 40/1/3 37/1/3 36/1/3
f 40/2/3 36/2/3 39/2/3
f 41/1/3 38/1/3 28/1/3
f 42/2/3 39/2/3 38/2/3
f 42/1/3 38/1/3 41/1/3
f 43/1/3 40/1/3 39/1/3
f 43/2/3 39/2/3 42/2/3
f 44/1/3 41/1/3 28/1/3
f 45/2/3 42/2/3 41/2/3
f 45/1/3 41/1/3 44/1/3
f 46/1/3 43/1/3 42/1/3
f 46/2/3 42/2/3 45/2/3
f 47/1/3 44/1/3 28/1/3
f 48/2/3 45/2/3 44/2/3
f 48/1/3 44/1/3 47/1/3
f 49/1/3 46/1/3 45/1/3
f 49/2/3 45/2/3 48/2/3
f 50/1/3 47/1/3 28/1/3
f 51/2/3 48/2/3 47/2/3
f 51/1/3 47/1/3 50/1/3
f 52/1/3 49/1/3 48/1/3
f 52/2/3 48/2/3 51/2/3
f 53/2/3 51/2/3 50/2/3
f 53/1/3 52/1/3 51/1/3
f 54/1/3 43/1/3 46/1/3
f 54/1/3 52/1/3 53/1/3
f 54/1/3 46/1/3 49/1/3
f 54/1/3 49/1/3 52/1/3
f 55/2/3 53/2/3 50/2/3
f 55/2/3 54/2/3 53/2/3
f 56/1/3 43/1/3 54/1/3
f 56/2/3 54/2/3 55/2/3
f 57/1/3 34/1/3 37/1/3
f 57/1/3 43/1/3 56/1/3
f 57/1/3 37/1/3 40/1/3
f 57/1/3 40/1/3 43/1/3
f 58/1/3 56/1/3 55/1/3
f 58/2/3 57/2/3 56/2/3
f 59/2/3 57/2/3 58/2/3
f 60/1/3 59/1/3 58/1/3
f 61/1/3 59/1/3 60/1/3
f 62/1/3 60/1/3 58/1/3
f 63/2/3 61/2/3 60/2/3
f 63/1/3 60/1/3 62/1/3
f 64/1/3 62/1/3 58/1/3
f 65/2/3 63/2/3 62/2/3
f 65/1/3 62/1/3 64/1/3
f 66/2/3 61/2/3 63/2/3
f 66/2/3 63/2/3 65/2/3
f 67/1/3 64/1/3 58/1/3
f 68/2/3 65/2/3 64/2/3
f 68/1/3 64/1/3 67/1/3
f 69/1/3 66/1/3 65/1/3
f 69/2/3 65/2/3 68/2/3
f 70/1/3 66/1/3 69/1/3
f 71/1/3 66/1/3 70/1/3
f 72/1/3 58/1/3 55/1/3
f 72/1/3 67/1/3 58/1/3
f 73/2/3 68/2/3 67/2/3
f 73/1/3 67/1/3 72/1/3
f 74/1/3 69/1/3 68/1/3
f 74/2/3 68/2/3 73/2/3
f 74/1/3 70/1/3 69/1/3
f 75/2/3 71/2/3 70/2/3
f 75/1/3 70/1/3 74/1/3
f 76/2/3 71/2/3 75/2/3
f 77/1/3 72/1/3 55/1/3
f 78/2/3 73/2/3 72/2/3
f 78/1/3 72/1/3 77/1/3
f 79/1/3 74/1/3 73/1/3
f 79/2/3 73/2/3 78/2/3
f 79/1/3 75/1/3 74/1/3
f 79/1/3 76/1/3 75/1/3
f 80/1/3 77/1/3 55/1/3
f 81/1/3 77/1/3 80/1/3
f 82/1/3 76/1/3 79/1/3
f 82/1/3 79/1/3 78/1/3
f 83/1/3 76/1/3 82/1/3
f 84/2/3 81/2/3 80/2/3
f 85/1/3 77/1/3 81/1/3
f 85/2/3 81/2/3 84/2/3
f 86/1/3 77/1/3 85/1/3
f 87/1/3 77/1/3 86/1/3
f 88/2/3 78/2/3 77/2/3
f 88/1/3 77/1/3 87/1/3
f 89/1/3 82/1/3 78/1/3
f 89/2/3 78/2/3 88/2/3
f 90/1/3 87/1/3 86/1/3
f 90/2/3 86/2/3 85/2/3
f 91/2/3 88/2/3 87/2/3
f 91/1/3 87/1/3 90/1/3
f 92/1/3 89/1/3 88/1/3
f 92/2/3 88/2/3 91/2/3
f 93/2/3 90/2/3 85/2/3
f 93/2/3 91/2/3 90/2/3
f 94/1/3 92/1/3 91/1/3
f 94/2/3 91/2/3 93/2/3
f 95/1/3 89/1/3 92/1/3
f 95/1/3 92/1/3 94/1/3
f 96/1/3 85/1/3 84/1/3
f 97/2/3 93/2/3 85/2/3
f 97/1/3 85/1/3 96/1/3
f 98/1/3 94/1/3 93/1/3
f 98/2/3 93/2/3 97/2/3
f 99/2/3 97/2/3 96/2/3
f 100/1/3 98/1/3 97/1/3
f 100/2/3 97/2/3 99/2/3
f 101/1/3 94/1/3 98/1/3
f 101/1/3 98/1/3 100/1/3
f 101/2/3 95/2/3 94/2/3
f 102/1/3 89/1/3 95/1/3
f 102/2/3 95/2/3 101/2/3
f 103/1/3 82/1/3 89/1/3
f 103/1/3 89/1/3 102/1/3
f 104/1/3 82/1/3 103/1/3
f 105/2/3 83/2/3 82/2/3
f 105/1/3 82/1/3 104/1/3
f 106/2/3 83/2/3 105/2/3
f 107/1/3 102/1/3 101/1/3
f 107/1/3 100/1/3 99/1/3
f 107/1/3 101/1/3 100/1/3
f 107/2/3 103/2/3 102/2/3
f 108/1/3 104/1/3 103/1/3
f 108/2/3 103/2/3 107/2/3
f 109/1/3 104/1/3 108/1/3
f 110/1/3 108/1/3 107/1/3
f 110/2/3 109/2/3 108/2/3
f 111/1/3 104/1/3 109/1/3
f 111/2/3 109/2/3 110/2/3
f 112/2/3 105/2/3 104/2/3
f 112/1/3 104/1/3 111/1/3
f 113/1/3 106/1/3 105/1/3
f 113/2/3 105/2/3 112/2/3
f 114/2/3 112/2/3 111/2/3
f 114/1/3 111/1/3 110/1/3
f 115/2/3 112/2/3 114/2/3
f 116/1/3 113/1/3 112/1/3
f 116/2/3 112/2/3 115/2/3
f 117/1/3 106/1/3 113/1/3
f 117/1/3 113/1/3 116/1/3
f 118/1/3 115/1/3 114/1/3
f 118/1/3 114/1/3 110/1/3
f 119/2/3 116/2/3 115/2/3
f 119/1/3 115/1/3 118/1/3
f 119/2/3 117/2/3 116/2/3
f 120/1/3 106/1/3 117/1/3
f 120/2/3 117/2/3 119/2/3
f 121/1/3 106/1/3 120/1/3
f 122/1/3 120/1/3 119/1/3
f 122/2/3 121/2/3 120/2/3
f 123/2/3 121/2/3 122/2/3
f 124/1/3 118/1/3 110/1/3
f 124/1/3 110/1/3 107/1/3
f 125/2/3 119/2/3 118/2/3
f 125/1/3 118/1/3 124/1/3
f 126/1/3 122/1/3 119/1/3
f 126/2/3 119/2/3 125/2/3
f 127/1/3 122/1/3 126/1/3
f 128/3/3 123/3/3 122/3/3
f 128/1/3 122/1/3 127/1/3
f 129/3/3 123/3/3 128/3/3
f 130/1/3 127/1/3 126/1/3
f 130/1/3 126/1/3 125/1/3
f 131/3/3 128/3/3 127/3/3
f 131/1/3 127/1/3 130/1/3
f 132/1/3 129/1/3 128/1/3
f 132/3/3 128/3/3 131/3/3
f 133/1/3 107/1/3 99/1/3
f 133/1/3 124/1/3 107/1/3
f 134/2/3 125/2/3 124/2/3
f 134/1/3 124/1/3 133/1/3
f 135/1/3 130/1/3 125/1/3
f 135/2/3 125/2/3 134/2/3
f 136/3/3 131/3/3 130/3/3
f 136/1/3 130/1/3 135/1/3
f 137/1/3 132/1/3 131/1/3
f 137/3/3 131/3/3 136/3/3
f 138/1/3 135/1/3 134/1/3
f 138/2/3 134/2/3 133/2/3
f 139/3/3 136/3/3 135/3/3
f 139/1/3 135/1/3 138/1/3
f 140/1/3 137/1/3 136/1/3
f 140/3/3 136/3/3 139/3/3
f 141/2/3 138/2/3 133/2/3
f 141/1/3 133/1/3 99/1/3
f 142/3/3 139/3/3 138/3/3
f 142/2/3 138/2/3 141/2/3
f 143/1/3 140/1/3 139/1/3
f 143/3/3 139/3/3 142/3/3
f 144/1/3 141/1/3 99/1/3
f 145/3/3 142/3/3 141/3/3
f 145/1/3 141/1/3 144/1/3
f 146/1/3 143/1/3 142/1/3
f 146/3/3 142/3/3 145/3/3
f 147/1/3 144/1/3 99/1/3
f 148/3/3 145/3/3 144/3/3
f 148/1/3 144/1/3 147/1/3
f 149/2/3 146/2/3 145/2/3
f 149/3/3 145/3/3 148/3/3
f 150/1/3 143/1/3 146/1/3
f 150/2/3 146/2/3 149/2/3
f 151/1/3 147/1/3 99/1/3
f 152/3/3 148/3/3 147/3/3
f 152/1/3 147/1/3 151/1/3
f 153/2/3 149/2/3 148/2/3
f 153/3/3 148/3/3 152/3/3
f 154/1/3 129/1/3 132/1/3
f 154/1/3 137/1/3 140/1/3
f 154/1/3 132/1/3 137/1/3
f 154/1/3 150/1/3 149/1/3
f 154/1/3 140/1/3 143/1/3
f 154/1/3 143/1/3 150/1/3
f 155/1/3 129/1/3 154/1/3
f 156/1/3 154/1/3 149/1/3
f 156/2/3 155/2/3 154/2/3
f 157/2/3 155/2/3 156/2/3
f 158/1/3 151/1/3 99/1/3
f 159/3/3 152/3/3 151/3/3
f 159/1/3 151/1/3 158/1/3
f 160/1/3 153/1/3 152/1/3
f 160/3/3 152/3/3 159/3/3
f 161/3/3 159/3/3 158/3/3
f 162/1/3 160/1/3 159/1/3
f 162/3/3 159/3/3 161/3/3
f 163/1/3 153/1/3 160/1/3
f 163/1/3 160/1/3 162/1/3
f 163/1/3 162/1/3 161/1/3
f 164/2/3 149/2/3 153/2/3
f 164/1/3 153/1/3 163/1/3
f 165/1/3 156/1/3 149/1/3
f 165/2/3 149/2/3 164/2/3
f 165/1/3 157/1/3 156/1/3
f 166/1/3 165/1/3 164/1/3
f 166/1/3 157/1/3 165/1/3
f 167/1/3 157/1/3 166/1/3
f 168/1/3 166/1/3 164/1/3
f 169/2/3 167/2/3 166/2/3
f 169/1/3 166/1/3 168/1/3
f 170/2/3 167/2/3 169/2/3
f 171/1/3 163/1/3 161/1/3
f 172/2/3 164/2/3 163/2/3
f 172/1/3 163/1/3 171/1/3
f 173/1/3 168/1/3 164/1/3
f 173/2/3 164/2/3 172/2/3
f 174/2/3 169/2/3 168/2/3
f 174/1/3 168/1/3 173/1/3
f 175/1/3 170/1/3 169/1/3
f 175/2/3 169/2/3 174/2/3
f 176/1/3 173/1/3 172/1/3
f 176/1/3 170/1/3 175/1/3
f 176/1/3 175/1/3 174/1/3
f 176/1/3 174/1/3 173/1/3
f 177/1/3 170/1/3 176/1/3
f 178/1/3 176/1/3 172/1/3
f 179/3/3 177/3/3 176/3/3
f 179/1/3 176/1/3 178/1/3
f 180/3/3 177/3/3 179/3/3
f 181/1/3 171/1/3 161/1/3
f 182/2/3 172/2/3 171/2/3
f 182/1/3 171/1/3 181/1/3
f 183/1/3 178/1/3 172/1/3
f 183/2/3 172/2/3 182/2/3
f 184/1/3 178/1/3 183/1/3
f 185/3/3 179/3/3 178/3/3
f 185/1/3 178/1/3 184/1/3
f 186/1/3 180/1/3 179/1/3
f 186/3/3 179/3/3 185/3/3
f 187/1/3 184/1/3 183/1/3
f 187/1/3 183/1/3 182/1/3
f 188/3/3 185/3/3 184/3/3
f 188/1/3 184/1/3 187/1/3
f 189/1/3 186/1/3 185/1/3
f 189/3/3 185/3/3 188/3/3
f 190/2/3 182/2/3 181/2/3
f 191/1/3 187/1/3 182/1/3
f 191/2/3 182/2/3 190/2/3
f 192/1/3 187/1/3 191/1/3
f 193/1/3 187/1/3 192/1/3
f 194/3/3 188/3/3 187/3/3
f 194/1/3 187/1/3 193/1/3
f 195/1/3 189/1/3 188/1/3
f 195/3/3 188/3/3 194/3/3
f 196/1/3 193/1/3 192/1/3
f 196/3/3 194/3/3 193/3/3
f 197/1/3 195/1/3 194/1/3
f 197/3/3 194/3/3 196/3/3
f 198/1/3 191/1/3 190/1/3
f 199/2/3 192/2/3 191/2/3
f 199/1/3 191/1/3 198/1/3
f 200/1/3 196/1/3 192/1/3
f 200/2/3 192/2/3 199/2/3
f 200/1/3 197/1/3 196/1/3
f 201/1/3 186/1/3 189/1/3
f 201/1/3 197/1/3 200/1/3
f 201/1/3 180/1/3 186/1/3
f 201/1/3 189/1/3 195/1/3
f 201/1/3 195/1/3 197/1/3
f 202/1/3 180/1/3 201/1/3
f 203/1/3 200/1/3 199/1/3
f 203/1/3 201/1/3 200/1/3
f 203/2/3 202/2/3 201/2/3
f 204/2/3 202/2/3 203/2/3
f 205/2/3 199/2/3 198/2/3
f 206/1/3 203/1/3 199/1/3
f 206/2/3 199/2/3 205/2/3
f 206/1/3 204/1/3 203/1/3
f 207/1/3 206/1/3 205/1/3
f 208/1/3 204/1/3 206/1/3
f 208/1/3 206/1/3 207/1/3
f 209/2/3 208/2/3 207/2/3
f 210/1/3 204/1/3 208/1/3
f 210/2/3 208/2/3 209/2/3
f 211/1/3 204/1/3 210/1/3
f 213/2/4 214/2/4 218/2/4
f 214/1/4 215/1/4 219/1/4
f 218/2/4 214/2/4 219/2/4
f 219/1/4 215/1/4 220/1/4
f 215/2/4 216/2/4 221/2/4
f 220/1/4 215/1/4 221/1/4
f 216/1/4 217/1/4 222/1/4
f 221/2/4 216/2/4 222/2/4
f 212/1/4 213/1/4 223/1/4
f 213/2/4 218/2/4 224/2/4
f 223/1/4 213/1/4 224/1/4
f 219/1/4 220/1/4 225/1/4
f 224/2/4 218/2/4 225/2/4
f 218/1/4 219/1/4 225/1/4
f 220/2/4 221/2/4 226/2/4
f 225/1/4 220/1/4 226/1/4
f 221/1/4 222/1/4 227/1/4
f 226/2/4 221/2/4 227/2/4
f 223/2/4 224/2/4 228/2/4
f 224/1/4 225/1/4 229/1/4
f 228/2/4 224/2/4 229/2/4
f 225/2/4 226/2/4 230/2/4
f 226/1/4 227/1/4 231/1/4
f 230/2/4 226/2/4 231/2/4
f 229/1/4 225/1/4 232/1/4
f 228/1/4 229/1/4 232/1/4
f 225/2/4 230/2/4 233/2/4
f 232/1/4 225/1/4 233/1/4
f 230/1/4 231/1/4 234/1/4
f 233/2/4 230/2/4 234/2/4
f 228/1/4 232/1/4 235/1/4
f 232/2/4 233/2/4 236/2/4
f 235/1/4 232/1/4 236/1/4
f 233/1/4 234/1/4 237/1/4
f 236/2/4 233/2/4 237/2/4
f 235/2/4 236/2/4 238/2/4
f 236/1/4 237/1/4 239/1/4
f 238/2/4 236/2/4 239/2/4
f 235/2/4 238/2/4 240/2/4
f 238/1/4 239/1/4 241/1/4
f 240/2/4 238/2/4 241/2/4
f 222/1/4 217/1/4 242/1/4
f 241/1/4 239/1/4 242/1/4
f 240/1/4 241/1/4 242/1/4
f 227/1/4 222/1/4 242/1/4
f 239/1/4 237/1/4 242/1/4
f 237/1/4 234/1/4 242/1/4
f 231/1/4 227/1/4 242/1/4
f 234/1/4 231/1/4 242/1/4
f 242/1/4 217/1/4 243/1/4
f 240/1/4 242/1/4 244/1/4
f 242/2/4 243/2/4 244/2/4
f 244/2/4 243/2/4 245/2/4
f 240/1/4 244/1/4 246/1/4
f 244/1/4 245/1/4 246/1/4
f 246/1/4 245/1/4 247/1/4
f 246/2/4 247/2/4 248/2/4
f 247/1/4 245/1/4 249/1/4
f 248/2/4 247/2/4 249/2/4
f 249/1/4 245/1/4 250/1/4
f 248/1/4 249/1/4 251/1/4
f 249/2/4 250/2/4 251/2/4
f 250/1/4 245/1/4 252/1/4
f 251/2/4 250/2/4 252/2/4
f 252/1/4 245/1/4 253/1/4
f 251/1/4 252/1/4 254/1/4
f 252/2/4 253/2/4 254/2/4
f 253/1/4 245/1/4 255/1/4
f 254/2/4 253/2/4 255/2/4
f 255/1/4 245/1/4 256/1/4
f 254/1/4 255/1/4 257/1/4
f 255/2/4 256/2/4 257/2/4
f 256/1/4 245/1/4 258/1/4
f 257/2/4 256/2/4 258/2/4
f 258/1/4 245/1/4 259/1/4
f 257/1/4 258/1/4 260/1/4
f 258/2/4 259/2/4 260/2/4
f 259/1/4 245/1/4 261/1/4
f 260/2/4 259/2/4 261/2/4
f 261/1/4 245/1/4 262/1/4
f 262/1/4 245/1/4 263/1/4
f 263/1/4 245/1/4 264/1/4
f 260/1/4 261/1/4 265/1/4
f 261/2/4 262/2/4 265/2/4
f 262/1/4 263/1/4 266/1/4
f 265/2/4 262/2/4 266/2/4
f 266/1/4 263/1/4 267/1/4
f 263/2/4 264/2/4 268/2/4
f 267/1/4 263/1/4 268/1/4
f 268/2/4 264/2/4 269/2/4
f 266/2/4 267/2/4 270/2/4
f 265/1/4 266/1/4 270/1/4
f 268/1/4 269/1/4 271/1/4
f 270/2/4 267/2/4 271/2/4
f 267/1/4 268/1/4 271/1/4
f 271/1/4 269/1/4 272/1/4
f 270/1/4 271/1/4 273/1/4
f 271/2/4 272/2/4 273/2/4
f 273/2/4 272/2/4 274/2/4
f 273/1/4 274/1/4 275/1/4
f 274/2/4 272/2/4 275/2/4
f 275/2/4 272/2/4 276/2/4
f 273/1/4 275/1/4 277/1/4
f 275/1/4 276/1/4 277/1/4
f 277/1/4 276/1/4 278/1/4
f 273/1/4 277/1/4 279/1/4
f 277/2/4 278/2/4 279/2/4
f 279/2/4 278/2/4 280/2/4
f 257/1/4 260/1/4 281/1/4
f 260/1/4 265/1/4 281/1/4
f 279/1/4 280/1/4 281/1/4
f 273/1/4 279/1/4 281/1/4
f 265/1/4 270/1/4 281/1/4
f 270/1/4 273/1/4 281/1/4
f 281/1/4 280/1/4 282/1/4
f 251/1/4 254/1/4 283/1/4
f 254/1/4 257/1/4 283/1/4
f 257/1/4 281/1/4 283/1/4
f 281/2/4 282/2/4 284/2/4
f 283/1/4 281/1/4 284/1/4
f 284/2/4 282/2/4 285/2/4
f 285/2/4 282/2/4 286/2/4
f 248/1/4 251/1/4 287/1/4
f 251/1/4 283/1/4 287/1/4
f 283/2/4 284/2/4 288/2/4
f 287/1/4 283/1/4 288/1/4
f 284/2/4 285/2/4 288/2/4
f 288/2/4 285/2/4 289/2/4
f 285/1/4 286/1/4 290/1/4
f 289/2/4 285/2/4 290/2/4
f 288/2/4 289/2/4 291/2/4
f 287/2/4 288/2/4 291/2/4
f 289/1/4 290/1/4 292/1/4
f 291/2/4 289/2/4 292/2/4
f 248/1/4 287/1/4 293/1/4
f 287/2/4 291/2/4 294/2/4
f 293/1/4 287/1/4 294/1/4
f 291/1/4 292/1/4 295/1/4
f 294/2/4 291/2/4 295/2/4
f 293/2/4 294/2/4 296/2/4
f 294/1/4 295/1/4 297/1/4
f 296/2/4 294/2/4 297/2/4
f 290/1/4 286/1/4 298/1/4
f 297/1/4 295/1/4 298/1/4
f 292/1/4 290/1/4 298/1/4
f 295/1/4 292/1/4 298/1/4
f 298/1/4 286/1/4 299/1/4
f 296/1/4 297/1/4 300/1/4
f 297/1/4 298/1/4 300/1/4
f 298/2/4 299/2/4 300/2/4
f 300/2/4 299/2/4 301/2/4
f 300/1/4 301/1/4 302/1/4
f 302/1/4 301/1/4 303/1/4
f 300/1/4 302/1/4 304/1/4
f 302/2/4 303/2/4 304/2/4
f 304/2/4 303/2/4 305/2/4
f 296/1/4 300/1/4 306/1/4
f 300/1/4 304/1/4 306/1/4
f 304/1/4 305/1/4 306/1/4
f 306/1/4 305/1/4 307/1/4
f 306/2/4 307/2/4 308/2/4
f 307/1/4 305/1/4 309/1/4
f 308/2/4 307/2/4 309/2/4
f 309/1/4 305/1/4 310/1/4
f 308/1/4 309/1/4 311/1/4
f 309/2/4 310/2/4 311/2/4
f 310/1/4 305/1/4 312/1/4
f 311/2/4 310/2/4 312/2/4
f 312/1/4 305/1/4 313/1/4
f 311/1/4 312/1/4 314/1/4
f 312/2/4 313/2/4 314/2/4
f 313/1/4 305/1/4 315/1/4
f 314/2/4 313/2/4 315/2/4
f 315/1/4 305/1/4 316/1/4
f 314/1/4 315/1/4 317/1/4
f 315/2/4 316/2/4 317/2/4
f 316/1/4 305/1/4 318/1/4
f 317/2/4 316/2/4 318/2/4
f 318/1/4 305/1/4 319/1/4
f 317/1/4 318/1/4 320/1/4
f 318/2/4 319/2/4 320/2/4
f 319/1/4 305/1/4 321/1/4
f 320/2/4 319/2/4 321/2/4
f 321/1/4 305/1/4 322/1/4
f 320/1/4 321/1/4 323/1/4
f 321/2/4 322/2/4 323/2/4
f 322/1/4 305/1/4 324/1/4
f 323/2/4 322/2/4 324/2/4
f 324/1/4 305/1/4 325/1/4
f 323/1/4 324/1/4 326/1/4
f 324/2/4 325/2/4 326/2/4
f 326/2/4 325/2/4 327/2/4
f 323/1/4 326/1/4 328/1/4
f 326/1/4 327/1/4 328/1/4
f 328/1/4 327/1/4 329/1/4
f 320/1/4 323/1/4 330/1/4
f 323/1/4 328/1/4 330/1/4
f 328/2/4 329/2/4 331/2/4
f 330/1/4 328/1/4 331/1/4
f 331/2/4 329/2/4 332/2/4
f 330/2/4 331/2/4 333/2/4
f 331/1/4 332/1/4 333/1/4
f 333/1/4 332/1/4 334/1/4
f 330/2/4 333/2/4 335/2/4
f 333/3/4 334/3/4 335/3/4
f 335/3/4 334/3/4 336/3/4
f 317/1/4 320/1/4 337/1/4
f 320/1/4 330/1/4 337/1/4
f 330/2/4 335/2/4 338/2/4
f 337/1/4 330/1/4 338/1/4
f 335/1/4 336/1/4 339/1/4
f 338/2/4 335/2/4 339/2/4
f 308/1/4 311/1/4 340/1/4
f 311/1/4 314/1/4 340/1/4
f 314/1/4 317/1/4 340/1/4
f 317/1/4 337/1/4 340/1/4
f 340/1/4 337/1/4 341/1/4
f 340/2/4 341/2/4 342/2/4
f 341/1/4 337/1/4 343/1/4
f 342/2/4 341/2/4 343/2/4
f 343/1/4 337/1/4 344/1/4
f 344/1/4 337/1/4 345/1/4
f 337/2/4 338/2/4 346/2/4
f 345/1/4 337/1/4 346/1/4
f 338/1/4 339/1/4 347/1/4
f 346/2/4 338/2/4 347/2/4
f 339/1/4 336/1/4 348/1/4
f 347/1/4 339/1/4 348/1/4
f 346/1/4 347/1/4 348/1/4
f 348/1/4 336/1/4 349/1/4
f 346/1/4 348/1/4 350/1/4
f 348/2/4 349/2/4 351/2/4
f 350/1/4 348/1/4 351/1/4
f 351/2/4 349/2/4 352/2/4
f 343/2/4 344/2/4 353/2/4
f 342/1/4 343/1/4 353/1/4
f 344/1/4 345/1/4 354/1/4
f 353/2/4 344/2/4 354/2/4
f 354/1/4 345/1/4 355/1/4
f 345/2/4 346/2/4 356/2/4
f 346/1/4 350/1/4 356/1/4
f 350/2/4 351/2/4 357/2/4
f 356/1/4 350/1/4 357/1/4
f 351/1/4 352/1/4 358/1/4
f 357/2/4 351/2/4 358/2/4
f 356/2/4 357/2/4 359/2/4
f 345/2/4 356/2/4 359/2/4
f 357/1/4 358/1/4 360/1/4
f 359/2/4 357/2/4 360/2/4
f 354/2/4 355/2/4 361/2/4
f 353/1/4 354/1/4 361/1/4
f 355/1/4 345/1/4 362/1/4
f 361/2/4 355/2/4 362/2/4
f 362/1/4 345/1/4 363/1/4
f 363/1/4 345/1/4 364/1/4
f 345/2/4 359/2/4 365/2/4
f 364/1/4 345/1/4 365/1/4
f 359/1/4 360/1/4 366/1/4
f 365/2/4 359/2/4 366/2/4
f 353/1/4 361/1/4 367/1/4
f 342/1/4 353/1/4 367/1/4
f 361/1/4 362/1/4 367/1/4
f 367/1/4 362/1/4 368/1/4
f 363/1/4 364/1/4 369/1/4
f 362/2/4 363/2/4 369/2/4
f 364/2/4 365/2/4 370/2/4
f 369/1/4 364/1/4 370/1/4
f 342/1/4 367/1/4 371/1/4
f 367/2/4 368/2/4 372/2/4
f 371/1/4 367/1/4 372/1/4
f 368/1/4 362/1/4 373/1/4
f 372/2/4 368/2/4 373/2/4
f 362/2/4 369/2/4 374/2/4
f 373/1/4 362/1/4 374/1/4
f 369/2/4 370/2/4 374/2/4
f 365/1/4 366/1/4 375/1/4
f 374/2/4 370/2/4 375/2/4
f 370/2/4 365/2/4 375/2/4
f 366/1/4 360/1/4 376/1/4
f 375/1/4 366/1/4 376/1/4
f 358/1/4 352/1/4 376/1/4
f 360/1/4 358/1/4 376/1/4
f 392/1/5 378/1/5 377/1/5
f 392/2/5 379/2/5 378/2/5
f 393/1/5 380/1/5 379/1/5
f 393/2/5 379/2/5 392/2/5
f 394/2/5 381/2/5 380/2/5
f 394/1/5 380/1/5 393/1/5
f 395/1/5 382/1/5 381/1/5
f 395/2/5 381/2/5 394/2/5
f 396/2/5 383/2/5 382/2/5
f 396/1/5 382/1/5 395/1/5
f 397/1/5 384/1/5 383/1/5
f 397/2/5 383/2/5 396/2/5
f 398/3/5 385/3/5 384/3/5
f 398/1/5 384/1/5 397/1/5
f 399/1/5 386/1/5 385/1/5
f 399/3/5 385/3/5 398/3/5
f 400/2/5 387/2/5 386/2/5
f 400/1/5 386/1/5 399/1/5
f 401/1/5 388/1/5 387/1/5
f 401/2/5 387/2/5 400/2/5
f 402/2/5 389/2/5 388/2/5
f 402/1/5 388/1/5 401/1/5
f 403/1/5 390/1/5 389/1/5
f 403/2/5 389/2/5 402/2/5
f 404/2/5 391/2/5 390/2/5
f 404/1/5 390/1/5 403/1/5
f 405/2/5 391/2/5 404/2/5
f 406/1/5 403/1/5 402/1/5
f 406/1/5 402/1/5 401/1/5
f 406/1/5 405/1/5 404/1/5
f 406/1/5 404/1/5 403/1/5
f 406/1/5 401/1/5 400/1/5
f 406/1/5 400/1/5 399/1/5
f 406/1/5 399/1/5 398/1/5
f 406/1/5 398/1/5 397/1/5
f 406/1/5 397/1/5 396/1/5
f 406/1/5 396/1/5 395/1/5
f 406/1/5 395/1/5 394/1/5
f 406/1/5 394/1/5 393/1/5
f 406/1/5 393/1/5 392/1/5
f 406/1/5 392/1/5 377/1/5
f 407/1/5 405/1/5 406/1/5
f 408/1/5 405/1/5 407/1/5
f 409/1/5 405/1/5 408/1/5
f 410/1/5 405/1/5 409/1/5
f 411/1/5 405/1/5 410/1/5
f 412/1/5 405/1/5 411/1/5
f 413/1/5 405/1/5 412/1/5
f 414/1/5 405/1/5 413/1/5
f 415/1/5 405/1/5 414/1/5
f 416/1/5 405/1/5 415/1/5
f 417/1/5 405/1/5 416/1/5
f 418/1/5 406/1/5 377/1/5
f 419/2/5 407/2/5 406/2/5
f 419/1/5 406/1/5 418/1/5
f 420/1/5 408/1/5 407/1/5
f 420/2/5 407/2/5 419/2/5
f 421/2/5 409/2/5 408/2/5
f 421/1/5 408/1/5 420/1/5
f 422/1/5 410/1/5 409/1/5
f 422/2/5 409/2/5 421/2/5
f 423/2/5 411/2/5 410/2/5
f 423/1/5 410/1/5 422/1/5
f 424/1/5 412/1/5 411/1/5
f 424/2/5 411/2/5 423/2/5
f 425/2/5 413/2/5 412/2/5
f 425/1/5 412/1/5 424/1/5
f 426/1/5 414/1/5 413/1/5
f 426/2/5 413/2/5 425/2/5
f 427/2/5 415/2/5 414/2/5
f 427/1/5 414/1/5 426/1/5
f 428/1/5 416/1/5 415/1/5
f 428/2/5 415/2/5 427/2/5
f 429/2/5 417/2/5 416/2/5
f 429/1/5 416/1/5 428/1/5
f 430/1/5 405/1/5 417/1/5
f 430/2/5 417/2/5 429/2/5
f 431/1/5 405/1/5 430/1/5
f 432/1/6 433/1/6 455/1/6
f 433/2/6 434/2/6 456/2/6
f 455/1/6 433/1/6 456/1/6
f 434/1/6 435/1/6 457/1/6
f 456/2/6 434/2/6 457/2/6
f 437/2/6 438/2/6 458/2/6
f 458/2/6 438/2/6 459/2/6
f 459/2/6 438/2/6 460/2/6
f 438/1/6 439/1/6 461/1/6
f 460/2/6 438/2/6 461/2/6
f 439/2/6 440/2/6 462/2/6
f 461/1/6 439/1/6 462/1/6
f 440/1/6 441/1/6 463/1/6
f 462/2/6 440/2/6 463/2/6
f 441/2/6 442/2/6 464/2/6
f 463/1/6 441/1/6 464/1/6
f 464/2/6 442/2/6 465/2/6
f 465/2/6 442/2/6 466/2/6
f 442/1/6 443/1/6 467/1/6
f 466/2/6 442/2/6 467/2/6
f 467/1/6 443/1/6 468/1/6
f 443/2/6 444/2/6 469/2/6
f 468/1/6 443/1/6 469/1/6
f 444/3/6 445/3/6 470/3/6
f 469/2/6 444/2/6 470/2/6
f 445/1/6 446/1/6 471/1/6
f 470/3/6 445/3/6 471/3/6
f 446/2/6 447/2/6 472/2/6
f 471/1/6 446/1/6 472/1/6
f 447/1/6 448/1/6 473/1/6
f 472/2/6 447/2/6 473/2/6
f 473/1/6 448/1/6 474/1/6
f 448/2/6 449/2/6 475/2/6
f 474/1/6 448/1/6 475/1/6
f 449/1/6 450/1/6 476/1/6
f 475/2/6 449/2/6 476/2/6
f 453/1/6 454/1/6 477/1/6
f 452/2/6 453/2/6 477/2/6
f 477/1/6 454/1/6 478/1/6
f 436/1/6 437/1/6 479/1/6
f 437/2/6 458/2/6 479/2/6
f 458/1/6 459/1/6 480/1/6
f 479/2/6 458/2/6 480/2/6
f 459/2/6 460/2/6 481/2/6
f 480/1/6 459/1/6 481/1/6
f 460/1/6 461/1/6 482/1/6
f 461/1/6 462/1/6 482/1/6
f 462/1/6 463/1/6 482/1/6
f 463/2/6 464/2/6 482/2/6
f 464/2/6 465/2/6 482/2/6
f 482/2/6 465/2/6 483/2/6
f 465/1/6 466/1/6 484/1/6
f 467/2/6 468/2/6 484/2/6
f 466/2/6 467/2/6 484/2/6
f 468/1/6 469/1/6 485/1/6
f 484/2/6 468/2/6 485/2/6
f 485/1/6 469/1/6 486/1/6
f 476/1/6 450/1/6 487/1/6
f 474/1/6 475/1/6 487/1/6
f 450/3/6 451/3/6 487/3/6
f 475/1/6 476/1/6 487/1/6
f 451/1/6 452/1/6 488/1/6
f 487/3/6 451/3/6 488/3/6
f 488/1/6 452/1/6 489/1/6
f 452/2/6 477/2/6 490/2/6
f 489/1/6 452/1/6 490/1/6
f 477/2/6 478/2/6 490/2/6
f 478/1/6 454/1/6 491/1/6
f 490/2/6 478/2/6 491/2/6
f 491/1/6 454/1/6 492/1/6
f 432/1/6 455/1/6 493/1/6
f 455/2/6 456/2/6 494/2/6
f 493/1/6 455/1/6 494/1/6
f 456/1/6 457/1/6 495/1/6
f 494/2/6 456/2/6 495/2/6
f 457/1/6 435/1/6 496/1/6
f 495/1/6 457/1/6 496/1/6
f 435/2/6 436/2/6 497/2/6
f 496/1/6 435/1/6 497/1/6
f 479/1/6 480/1/6 498/1/6
f 497/2/6 436/2/6 498/2/6
f 436/1/6 479/1/6 498/1/6
f 481/2/6 460/2/6 499/2/6
f 480/2/6 481/2/6 499/2/6
f 482/1/6 483/1/6 500/1/6
f 499/2/6 460/2/6 500/2/6
f 460/1/6 482/1/6 500/1/6
f 500/1/6 483/1/6 501/1/6
f 501/1/6 483/1/6 502/1/6
f 483/2/6 465/2/6 503/2/6
f 502/1/6 483/1/6 503/1/6
f 503/2/6 465/2/6 504/2/6
f 485/2/6 486/2/6 505/2/6
f 484/1/6 485/1/6 505/1/6
f 486/1/6 469/1/6 506/1/6
f 505/2/6 486/2/6 506/2/6
f 469/3/6 470/3/6 507/3/6
f 506/1/6 469/1/6 507/1/6
f 470/2/6 471/2/6 508/2/6
f 507/3/6 470/3/6 508/3/6
f 471/1/6 472/1/6 509/1/6
f 508/2/6 471/2/6 509/2/6
f 472/1/6 473/1/6 509/1/6
f 509/1/6 473/1/6 510/1/6
f 480/2/6 499/2/6 511/2/6
f 499/1/6 500/1/6 511/1/6
f 500/2/6 501/2/6 512/2/6
f 511/1/6 500/1/6 512/1/6
f 501/1/6 502/1/6 513/1/6
f 502/2/6 503/2/6 514/2/6
f 513/1/6 502/1/6 514/1/6
f 503/1/6 504/1/6 515/1/6
f 514/2/6 503/2/6 515/2/6
f 484/1/6 505/1/6 516/1/6
f 465/1/6 484/1/6 516/1/6
f 505/1/6 506/1/6 516/1/6
f 504/2/6 465/2/6 516/2/6
f 516/1/6 506/1/6 517/1/6
f 517/1/6 506/1/6 518/1/6
f 506/3/6 507/3/6 519/3/6
f 518/1/6 506/1/6 519/1/6
f 507/2/6 508/2/6 520/2/6
f 519/3/6 507/3/6 520/3/6
f 508/2/6 509/2/6 520/2/6
f 509/2/6 510/2/6 520/2/6
f 520/2/6 510/2/6 521/2/6
f 510/1/6 473/1/6 522/1/6
f 521/2/6 510/2/6 522/2/6
f 522/1/6 473/1/6 523/1/6
f 473/2/6 474/2/6 524/2/6
f 523/1/6 473/1/6 524/1/6
f 474/1/6 487/1/6 525/1/6
f 524/2/6 474/2/6 525/2/6
f 487/1/6 488/1/6 525/1/6
f 525/1/6 488/1/6 526/1/6
f 432/1/6 493/1/6 527/1/6
f 493/2/6 494/2/6 528/2/6
f 527/1/6 493/1/6 528/1/6
f 495/1/6 496/1/6 529/1/6
f 528/2/6 494/2/6 529/2/6
f 494/1/6 495/1/6 529/1/6
f 498/1/6 480/1/6 530/1/6
f 497/1/6 498/1/6 530/1/6
f 511/2/6 512/2/6 531/2/6
f 530/1/6 480/1/6 531/1/6
f 480/2/6 511/2/6 531/2/6
f 531/2/6 512/2/6 532/2/6
f 516/2/6 517/2/6 533/2/6
f 504/2/6 516/2/6 533/2/6
f 517/1/6 518/1/6 534/1/6
f 533/2/6 517/2/6 534/2/6
f 534/1/6 518/1/6 535/1/6
f 522/2/6 523/2/6 536/2/6
f 521/2/6 522/2/6 536/2/6
f 523/1/6 524/1/6 537/1/6
f 536/2/6 523/2/6 537/2/6
f 524/1/6 525/1/6 537/1/6
f 537/1/6 525/1/6 538/1/6
f 512/2/6 501/2/6 539/2/6
f 532/2/6 512/2/6 539/2/6
f 501/1/6 513/1/6 539/1/6
f 513/2/6 514/2/6 540/2/6
f 539/1/6 513/1/6 540/1/6
f 514/1/6 515/1/6 541/1/6
f 540/2/6 514/2/6 541/2/6
f 515/1/6 504/1/6 542/1/6
f 541/1/6 515/1/6 542/1/6
f 504/2/6 533/2/6 542/2/6
f 533/1/6 534/1/6 543/1/6
f 542/2/6 533/2/6 543/2/6
f 534/2/6 535/2/6 544/2/6
f 543/1/6 534/1/6 544/1/6
f 535/1/6 518/1/6 545/1/6
f 544/2/6 535/2/6 545/2/6
f 545/1/6 518/1/6 546/1/6
f 546/1/6 518/1/6 547/1/6
f 518/3/6 519/3/6 548/3/6
f 547/1/6 518/1/6 548/1/6
f 520/1/6 521/1/6 549/1/6
f 548/3/6 519/3/6 549/3/6
f 519/1/6 520/1/6 549/1/6
f 521/2/6 536/2/6 550/2/6
f 549/1/6 521/1/6 550/1/6
f 536/1/6 537/1/6 551/1/6
f 550/2/6 536/2/6 551/2/6
f 551/1/6 537/1/6 552/1/6
f 537/2/6 538/2/6 553/2/6
f 552/1/6 537/1/6 553/1/6
f 538/1/6 525/1/6 554/1/6
f 553/2/6 538/2/6 554/2/6
f 554/1/6 525/1/6 555/1/6
f 525/2/6 526/2/6 556/2/6
f 555/1/6 525/1/6 556/1/6
f 526/1/6 488/1/6 557/1/6
f 556/2/6 526/2/6 557/2/6
f 557/1/6 488/1/6 558/1/6
f 489/1/6 490/1/6 559/1/6
f 490/1/6 491/1/6 559/1/6
f 491/2/6 492/2/6 560/2/6
f 559/1/6 491/1/6 560/1/6
f 492/1/6 454/1/6 561/1/6
f 560/2/6 492/2/6 561/2/6
f 432/1/6 527/1/6 562/1/6
f 527/2/6 528/2/6 563/2/6
f 562/1/6 527/1/6 563/1/6
f 528/1/6 529/1/6 564/1/6
f 563/2/6 528/2/6 564/2/6
f 497/1/6 530/1/6 565/1/6
f 530/2/6 531/2/6 566/2/6
f 565/1/6 530/1/6 566/1/6
f 531/1/6 532/1/6 567/1/6
f 566/2/6 531/2/6 567/2/6
f 539/2/6 540/2/6 568/2/6
f 532/2/6 539/2/6 568/2/6
f 568/2/6 540/2/6 569/2/6
f 545/2/6 546/2/6 570/2/6
f 544/1/6 545/1/6 570/1/6
f 546/1/6 547/1/6 571/1/6
f 570/2/6 546/2/6 571/2/6
f 571/1/6 547/1/6 572/1/6
f 547/3/6 548/3/6 573/3/6
f 572/1/6 547/1/6 573/1/6
f 548/1/6 549/1/6 574/1/6
f 573/3/6 548/3/6 574/3/6
f 549/1/6 550/1/6 574/1/6
f 550/1/6 551/1/6 574/1/6
f 554/2/6 555/2/6 575/2/6
f 552/1/6 553/1/6 575/1/6
f 553/1/6 554/1/6 575/1/6
f 555/1/6 556/1/6 576/1/6
f 575/2/6 555/2/6 576/2/6
f 556/1/6 557/1/6 576/1/6
f 557/2/6 558/2/6 577/2/6
f 576/1/6 557/1/6 577/1/6
f 529/1/6 496/1/6 578/1/6
f 564/1/6 529/1/6 578/1/6
f 563/1/6 564/1/6 578/1/6
f 496/2/6 497/2/6 579/2/6
f 578/1/6 496/1/6 579/1/6
f 497/1/6 565/1/6 580/1/6
f 579/2/6 497/2/6 580/2/6
f 567/1/6 532/1/6 581/1/6
f 566/1/6 567/1/6 581/1/6
f 532/2/6 568/2/6 582/2/6
f 581/1/6 532/1/6 582/1/6
f 568/1/6 569/1/6 583/1/6
f 582/2/6 568/2/6 583/2/6
f 583/1/6 569/1/6 584/1/6
f 569/2/6 540/2/6 585/2/6
f 584/1/6 569/1/6 585/1/6
f 540/1/6 541/1/6 586/1/6
f 543/2/6 544/2/6 586/2/6
f 542/1/6 543/1/6 586/1/6
f 541/1/6 542/1/6 586/1/6
f 544/1/6 570/1/6 587/1/6
f 586/2/6 544/2/6 587/2/6
f 570/1/6 571/1/6 587/1/6
f 587/1/6 571/1/6 588/1/6
f 571/2/6 572/2/6 589/2/6
f 588/1/6 571/1/6 589/1/6
f 573/1/6 574/1/6 590/1/6
f 589/2/6 572/2/6 590/2/6
f 572/1/6 573/1/6 590/1/6
f 590/1/6 574/1/6 591/1/6
f 574/1/6 551/1/6 592/1/6
f 591/1/6 574/1/6 592/1/6
f 551/2/6 552/2/6 592/2/6
f 552/1/6 575/1/6 593/1/6
f 592/2/6 552/2/6 593/2/6
f 575/1/6 576/1/6 593/1/6
f 593/1/6 576/1/6 594/1/6
f 576/2/6 577/2/6 595/2/6
f 594/1/6 576/1/6 595/1/6
f 577/2/6 558/2/6 596/2/6
f 595/2/6 577/2/6 596/2/6
f 558/1/6 488/1/6 597/1/6
f 596/2/6 558/2/6 597/2/6
f 597/1/6 488/1/6 598/1/6
f 432/1/6 562/1/6 599/1/6
f 562/2/6 563/2/6 600/2/6
f 599/1/6 562/1/6 600/1/6
f 563/1/6 578/1/6 601/1/6
f 600/2/6 563/2/6 601/2/6
f 566/1/6 581/1/6 602/1/6
f 565/2/6 566/2/6 602/2/6
f 581/2/6 582/2/6 603/2/6
f 602/1/6 581/1/6 603/1/6
f 582/1/6 583/1/6 604/1/6
f 583/1/6 584/1/6 604/1/6
f 584/2/6 585/2/6 605/2/6
f 604/1/6 584/1/6 605/1/6
f 585/2/6 540/2/6 606/2/6
f 605/2/6 585/2/6 606/2/6
f 540/1/6 586/1/6 607/1/6
f 606/2/6 540/2/6 607/2/6
f 586/1/6 587/1/6 607/1/6
f 590/2/6 591/2/6 608/2/6
f 588/1/6 589/1/6 608/1/6
f 589/1/6 590/1/6 608/1/6
f 591/1/6 592/1/6 609/1/6
f 608/2/6 591/2/6 609/2/6
f 592/1/6 593/1/6 609/1/6
f 609/1/6 593/1/6 610/1/6
f 595/1/6 596/1/6 611/1/6
f 594/1/6 595/1/6 611/1/6
f 596/2/6 597/2/6 611/2/6
f 597/2/6 598/2/6 611/2/6
f 611/2/6 598/2/6 612/2/6
f 612/2/6 598/2/6 613/2/6
f 598/1/6 488/1/6 614/1/6
f 613/2/6 598/2/6 614/2/6
f 614/1/6 488/1/6 615/1/6
f 559/2/6 560/2/6 616/2/6
f 560/1/6 561/1/6 616/1/6
f 561/1/6 454/1/6 617/1/6
f 616/1/6 561/1/6 617/1/6
f 432/1/6 599/1/6 618/1/6
f 599/2/6 600/2/6 619/2/6
f 618/1/6 599/1/6 619/1/6
f 600/1/6 601/1/6 620/1/6
f 619/2/6 600/2/6 620/2/6
f 578/2/6 579/2/6 621/2/6
f 620/1/6 601/1/6 621/1/6
f 601/1/6 578/1/6 621/1/6
f 579/1/6 580/1/6 622/1/6
f 621/2/6 579/2/6 622/2/6
f 580/1/6 565/1/6 623/1/6
f 622/1/6 580/1/6 623/1/6
f 602/2/6 603/2/6 623/2/6
f 565/2/6 602/2/6 623/2/6
f 582/1/6 604/1/6 624/1/6
f 623/2/6 603/2/6 624/2/6
f 603/2/6 582/2/6 624/2/6
f 604/2/6 605/2/6 625/2/6
f 624/1/6 604/1/6 625/1/6
f 605/2/6 606/2/6 625/2/6
f 606/1/6 607/1/6 626/1/6
f 625/2/6 606/2/6 626/2/6
f 607/1/6 587/1/6 627/1/6
f 626/1/6 607/1/6 627/1/6
f 587/2/6 588/2/6 627/2/6
f 588/1/6 608/1/6 628/1/6
f 627/2/6 588/2/6 628/2/6
f 608/1/6 609/1/6 628/1/6
f 609/2/6 610/2/6 629/2/6
f 628/1/6 609/1/6 629/1/6
f 610/1/6 593/1/6 630/1/6
f 629/2/6 610/2/6 630/2/6
f 593/2/6 594/2/6 631/2/6
f 630/1/6 593/1/6 631/1/6
f 611/1/6 612/1/6 632/1/6
f 631/2/6 594/2/6 632/2/6
f 594/1/6 611/1/6 632/1/6
f 612/2/6 613/2/6 633/2/6
f 632/1/6 612/1/6 633/1/6
f 613/1/6 614/1/6 634/1/6
f 633/2/6 613/2/6 634/2/6
f 614/2/6 615/2/6 635/2/6
f 634/1/6 614/1/6 635/1/6
f 615/1/6 488/1/6 636/1/6
f 635/2/6 615/2/6 636/2/6
f 488/3/6 489/3/6 637/3/6
f 636/1/6 488/1/6 637/1/6
f 489/1/6 559/1/6 638/1/6
f 637/3/6 489/3/6 638/3/6
f 616/2/6 617/2/6 639/2/6
f 638/1/6 559/1/6 639/1/6
f 559/2/6 616/2/6 639/2/6
f 617/1/6 454/1/6 640/1/6
f 639/2/6 617/2/6 640/2/6
f 640/1/6 454/1/6 641/1/6
